M48
; DRILL file KiCad 10.0.1 date 2026-06-06T03:53:06
; FORMAT={-:-/ absolute / metric / decimal}
; #@! TF.CreationDate,2026-06-06T03:53:06+02:00
; #@! TF.GenerationSoftware,Kicad,Pcbnew,10.0.1
; #@! TF.FileFunction,Plated,1,2,PTH
FMAT,2
METRIC
; #@! TA.AperFunction,Plated,PTH,ComponentDrill
T1C0.800
; #@! TA.AperFunction,Plated,PTH,ComponentDrill
T2C0.900
; #@! TA.AperFunction,Plated,PTH,ComponentDrill
T3C1.000
; #@! TA.AperFunction,Plated,PTH,ComponentDrill
T4C1.100
%
G90
G05
T1
X22.7Y-14.6
X22.7Y-22.22
X25.8Y-14.6
X25.8Y-22.22
X28.9Y-14.6
X28.9Y-22.22
X32.0Y-14.6
X32.0Y-22.22
X35.89Y-16.1
X36.46Y-21.4
X39.0Y-21.4
X41.54Y-21.4
X43.51Y-16.1
X44.2Y-36.2
X44.2Y-41.2
X49.5Y-43.0
X54.5Y-43.0
X57.93Y-21.86
X57.99Y-16.1
X59.8Y-36.2
X59.8Y-41.2
X60.47Y-21.86
X63.01Y-21.86
X65.61Y-16.1
X71.5Y-14.69
X71.5Y-22.31
X74.7Y-14.69
X74.7Y-22.31
X77.9Y-14.69
X77.9Y-22.31
X81.1Y-14.69
X81.1Y-22.31
T2
X19.625Y-29.5
X19.66Y-44.5
X22.165Y-29.5
X22.2Y-44.5
X34.625Y-29.5
X34.66Y-44.5
X37.165Y-29.5
X37.2Y-44.5
X66.625Y-29.2
X66.66Y-44.3
X69.165Y-29.2
X69.2Y-44.3
X81.66Y-44.5
X81.76Y-29.5
X84.2Y-44.5
X84.3Y-29.5
T3
X45.75Y-30.525
X48.25Y-30.525
X50.75Y-30.525
X53.25Y-30.525
X55.75Y-30.525
X58.25Y-30.525
T4
X25.1Y-34.8
X25.1Y-39.3
X31.6Y-34.8
X31.6Y-39.3
X72.1Y-34.8
X72.1Y-39.3
X78.6Y-34.8
X78.6Y-39.3
M30
