<?xml version='1.0' encoding='UTF-8'?>
<svg xmlns="http://www.w3.org/2000/svg" xmlns:svg="http://www.w3.org/2000/svg" version="1.1" width="39.395525mm" height="77.774580mm" viewBox="0 0 39.395525 77.77458" id="svg6">
  <defs id="defs6"/>
  <title id="title1">SVG Image created as play_cue_btn-B_Cu.svg date 2026-06-09T17:36:50 </title>
  <desc id="desc1">Image generated by PCBNEW </desc>
  <path id="bambu_00005" style="fill:#046307;fill-opacity:1;stroke:none" d="M 39.395528,0 H 0 v 77.774581 h 39.395528 z m -0.500744,0.696599 v 8.04292 l -0.0026,0.03359 -0.0016,0.0098 -0.02791,0.07286 -0.01395,0.02222 -0.0279,0.03514 -0.40101,0.4010097 a 0.80000001,0.80000001 0 0 1 0.08578,0.3607015 0.80000001,0.80000001 0 0 1 -0.08578,0.3607018 l 0.405144,0.405143 0.02119,0.02532 0.0062,0.0083 0.03152,0.07131 0.0062,0.02584 0.0047,0.04392 v 1.324468 l -0.0026,0.03307 -0.0016,0.01033 -0.02791,0.07235 -0.01395,0.02274 -0.0279,0.03462 -0.40101,0.401009 a 0.80000001,0.80000001 0 0 1 0.08578,0.360701 0.80000001,0.80000001 0 0 1 -0.08578,0.360702 l 0.405144,0.405143 0.02119,0.02584 0.0062,0.0083 0.03152,0.0708 0.0062,0.02584 0.0047,0.04444 v 1.32395 l -0.0026,0.03359 -0.0016,0.0098 -0.02791,0.07286 -0.01395,0.02222 -0.0279,0.03462 -0.40101,0.401011 v 5.15e-4 a 0.80000001,0.80000001 0 0 1 0.08578,0.360702 0.80000001,0.80000001 0 0 1 -0.08578,0.360185 l 0.405144,0.40566 0.02119,0.02532 0.0062,0.0083 0.03152,0.0708 0.0062,0.02584 0.0047,0.04444 v 1.32395 l -0.0026,0.03359 -0.0016,0.0098 -0.02791,0.07286 -0.01395,0.02222 -0.0279,0.03514 -0.40101,0.401009 a 0.80000001,0.80000001 0 0 1 0.08578,0.360702 0.80000001,0.80000001 0 0 1 -0.08578,0.360702 l 0.405144,0.405142 0.02119,0.02532 0.0062,0.0088 0.03152,0.0708 0.0062,0.02584 0.0047,0.04444 v 37.340373 l -0.0036,0.03979 -0.0036,0.01602 -0.03359,0.077 -10e-4,0.001 -10e-4,0.0016 0.03411,0.07028 0.0021,0.0098 0.0021,0.0088 0.0047,0.04393 v 0.10542 l -0.0026,0.03307 -0.0021,0.01137 -0.03256,0.07958 v 5.18e-4 l -5.17e-4,10e-4 -5.17e-4,0.001 -0.0021,0.0026 -0.0057,0.0093 -0.0279,0.03462 -0.311093,0.311092 a 0.80000001,0.80000001 0 0 1 0.08578,0.360701 0.80000001,0.80000001 0 0 1 -0.08578,0.360702 l 0.315227,0.315226 0.02119,0.02532 0.0062,0.0088 0.03152,0.0708 0.0062,0.02584 0.0047,0.04444 v 0.164331 0.01137 l -0.01499,0.05168 0.01499,0.06666 v 0.736389 l -0.0036,0.03979 -0.0036,0.01602 -0.03359,0.077 -0.001,10e-4 -10e-4,0.0016 0.03411,0.07028 0.0021,0.0098 0.0021,0.0088 0.0047,0.04393 v 0.104903 l -0.0026,0.03359 -0.0021,0.01137 -0.01757,0.04289 -0.01499,0.03669 -5.17e-4,0.0016 -5.17e-4,5.18e-4 -0.0021,0.0031 -0.0057,0.0093 -0.0279,0.03463 -0.311093,0.311091 a 0.80000001,0.80000001 0 0 1 0.08578,0.360701 0.80000001,0.80000001 0 0 1 -0.08578,0.360702 l 0.315227,0.315226 0.02119,0.02532 0.0062,0.0083 0.03152,0.07131 0.0062,0.02584 0.0047,0.04393 v 0.164848 0.01137 l -0.01499,0.05168 0.01499,0.06666 v 0.735872 l -0.0036,0.04031 -0.0036,0.01602 -0.03359,0.077 -10e-4,10e-4 -0.001,10e-4 0.03411,0.0708 0.0021,0.0098 0.0021,0.0083 0.0047,0.04444 v 0.104902 l -0.0026,0.03359 -0.0021,0.01137 -0.01757,0.04289 -0.01499,0.03669 -5.17e-4,0.001 -5.17e-4,0.001 -0.0021,0.0031 -0.0057,0.0093 -0.0279,0.03462 -0.311093,0.311092 a 0.80000001,0.80000001 0 0 1 0.08578,0.360702 0.80000001,0.80000001 0 0 1 -0.08578,0.360702 l 0.315227,0.315226 0.02119,0.02532 0.0062,0.0083 0.03152,0.0708 0.0062,0.02635 0.0047,0.04393 v 0.164847 0.01137 l -0.01499,0.05168 0.01499,0.06666 v 0.735873 l -0.0036,0.03979 -0.0036,0.01654 -0.03359,0.077 -10e-4,0.001 -10e-4,0.001 0.03411,0.0708 0.0021,0.0098 0.0021,0.0083 0.0047,0.04444 v 0.104904 l -0.0026,0.03359 -0.0021,0.01137 -0.01757,0.04289 -0.01499,0.03669 -5.17e-4,0.001 -5.17e-4,0.001 -0.0021,0.0026 -0.0057,0.0093 -0.0279,0.03514 -0.311093,0.311093 a 0.80000001,0.80000001 0 0 1 0.08578,0.360702 0.80000001,0.80000001 0 0 1 -0.08578,0.3607 l 0.315227,0.315227 0.02119,0.02532 0.0062,0.0083 0.03152,0.0708 0.0062,0.02584 0.0047,0.04444 v 0.106969 l -0.0093,0.05633 -5.17e-4,0.0067 -5.16e-4,0.001 -0.0016,0.0046 -5.16e-4,5.18e-4 -0.0016,0.0052 -0.02015,0.04238 -0.0098,0.01034 0.03462,0.07286 0.0026,0.0098 0.0021,0.0093 0.0047,0.04444 v 7.768001 l -0.01964,0.0863 -0.0031,0.0067 -0.05529,0.06976 -0.0801,0.03824 -0.0186,0.0041 -0.04444,0.0052 H 35.454292 28.221142 24.860107 4.140441 0.70706 l -0.0863,-0.01964 -0.0072,-0.0036 -0.06873,-0.05529 -0.03876,-0.07958 -0.0041,-0.01912 -0.0052,-0.04444 V 0.685747 l 0.01964,-0.0863 0.0036,-0.0072 0.05529,-0.06925 0.03824,-0.0186 0.04134,-0.01964 0.01912,-0.0046 0.04444,-0.0047 h 37.966676 l 0.0863,0.01964 0.0072,0.0036 0.06925,0.05478 0.03824,0.0801 0.0026,0.0093 0.0021,0.0093 z m -0.373104,56.998587 -0.04496,-0.03204 -0.182418,-0.09302 -0.0987,-0.03204 -0.0956,-0.03152 -0.202055,-0.03152 h -0.204638 l -0.202055,0.03152 -0.19482,0.06356 -0.182418,0.09302 -0.04444,0.03204 0.365353,0.365353 a 0.80000001,0.80000001 0 0 1 0.360701,-0.08578 0.80000001,0.80000001 0 0 1 0.360702,0.08578 z m 0,3.10007 -0.04496,-0.03256 -0.182418,-0.0925 -0.0987,-0.03256 -0.0956,-0.03101 -0.202055,-0.03204 h -0.204638 l -0.202055,0.03204 -0.19482,0.06356 -0.182418,0.0925 -0.04444,0.03256 0.365353,0.365352 a 0.80000001,0.80000001 0 0 1 0.360701,-0.08578 0.80000001,0.80000001 0 0 1 0.360185,0.08578 z m 0,3.100069 -0.04496,-0.03256 -0.182418,-0.09302 -0.0987,-0.03204 -0.0956,-0.03101 -0.202055,-0.03204 h -0.204638 l -0.202055,0.03204 -0.19482,0.06305 -0.182418,0.09302 -0.04444,0.03256 0.365353,0.365353 a 0.80000001,0.80000001 0 0 1 0.360701,-0.08578 0.80000001,0.80000001 0 0 1 0.360185,0.08578 z m 0,3.10007 -0.04496,-0.03256 -0.182418,-0.09302 -0.0987,-0.03204 -0.0956,-0.03101 -0.202055,-0.03204 h -0.204638 l -0.202055,0.03204 -0.19482,0.06305 -0.182418,0.09302 -0.04444,0.03256 0.365353,0.365352 a 0.80000001,0.80000001 0 0 1 0.360701,-0.08578 0.80000001,0.80000001 0 0 1 0.360185,0.08578 z m 0,2.159041 -0.365352,-0.365352 a 0.80000001,0.80000001 0 0 1 -0.360702,0.08578 0.80000001,0.80000001 0 0 1 -0.360701,-0.08578 l -0.365353,0.365352 0.0078,0.0186 0.03204,0.01033 0.0047,0.0031 0.182418,0.09302 0.19482,0.06356 0.202055,0.03152 h 0.204638 l 0.202055,-0.03152 0.194304,-0.06356 0.182418,-0.09302 z m -0.01499,-9.301241 -0.0098,-0.02325 -0.340547,-0.341065 a 0.80000001,0.80000001 0 0 1 -0.360702,0.08578 0.80000001,0.80000001 0 0 1 -0.360701,-0.08578 l -0.365353,0.365353 0.0078,0.0186 0.03204,0.01085 0.0047,0.0031 0.182418,0.09302 0.19482,0.06305 0.202055,0.03204 h 0.204638 l 0.202055,-0.03204 0.194304,-0.06305 0.182418,-0.09302 0.02015,-0.01499 z m 0,3.100068 -0.0098,-0.02325 -0.340547,-0.341065 a 0.80000001,0.80000001 0 0 1 -0.360702,0.08578 0.80000001,0.80000001 0 0 1 -0.360701,-0.08578 l -0.365353,0.365353 0.0078,0.0186 0.03204,0.01085 0.0047,0.0031 0.182418,0.0925 0.19482,0.06356 0.202055,0.03204 h 0.204638 l 0.202055,-0.03204 0.194304,-0.06356 0.182418,-0.0925 0.02015,-0.01498 z m 0,3.10007 -0.0098,-0.02325 -0.340547,-0.341065 a 0.80000001,0.80000001 0 0 1 -0.360702,0.08578 0.80000001,0.80000001 0 0 1 -0.360701,-0.08578 l -0.365353,0.365353 0.0078,0.0186 0.03204,0.01085 0.0047,0.0031 0.182418,0.0925 0.19482,0.06356 0.202055,0.03204 h 0.204638 l 0.202055,-0.03204 0.194304,-0.06356 0.182418,-0.0925 0.02015,-0.01499 z M 38.43124,8.595341 38.3868,8.562781 l -0.182417,-0.09302 -0.01705,-0.0052 -0.17725,-0.05788 -0.202055,-0.03204 H 37.60339 l -0.202055,0.03204 -0.19482,0.06305 -0.182418,0.09302 -0.04444,0.03256 0.365353,0.365353 a 0.80000001,0.80000001 0 0 1 0.360701,-0.08578 0.80000001,0.80000001 0 0 1 0.360185,0.08578 z m 0,2.159042 -0.365352,-0.365352 a 0.80000001,0.80000001 0 0 1 -0.360185,0.08578 0.80000001,0.80000001 0 0 1 -0.360701,-0.08578 l -0.365353,0.365352 0.0078,0.0186 0.03204,0.01085 0.0047,0.0031 0.182418,0.0925 0.19482,0.06356 0.202055,0.03204 h 0.204638 l 0.202055,-0.03204 0.194304,-0.06356 0.182417,-0.0925 z m 0,1.040764 -0.04444,-0.03204 -0.182417,-0.09302 -0.01705,-0.0057 -0.17725,-0.05736 -0.202055,-0.03204 H 37.60339 l -0.202055,0.03204 -0.19482,0.06305 -0.182418,0.09302 -0.04444,0.03204 0.365353,0.365352 a 0.80000001,0.80000001 0 0 1 0.360701,-0.08578 0.80000001,0.80000001 0 0 1 0.360185,0.08578 z m 0,2.159041 -0.365352,-0.365352 a 0.80000001,0.80000001 0 0 1 -0.360185,0.08578 0.80000001,0.80000001 0 0 1 -0.360701,-0.08578 l -0.365353,0.365352 0.0078,0.0186 0.03204,0.01085 0.0047,0.0031 0.182418,0.09302 0.19482,0.06304 0.202055,0.03204 h 0.204638 l 0.202055,-0.03204 0.194304,-0.06304 0.182417,-0.09302 z m 0,1.04128 -0.04444,-0.03256 -0.182417,-0.09302 -0.01705,-0.0052 -0.17725,-0.05788 -0.202055,-0.03204 H 37.60339 l -0.202055,0.03204 -0.19482,0.06305 -0.182418,0.09302 -0.04444,0.03256 0.365353,0.365352 a 0.80000001,0.80000001 0 0 1 0.360701,-0.08578 0.80000001,0.80000001 0 0 1 0.360185,0.08578 z m 0,2.159041 -0.365352,-0.365352 a 0.80000001,0.80000001 0 0 1 -0.360185,0.08578 0.80000001,0.80000001 0 0 1 -0.360701,-0.08578 l -0.365353,0.365352 0.0078,0.01809 0.03204,0.01085 0.0047,0.0031 0.182418,0.09302 0.19482,0.06305 0.202055,0.03204 h 0.204638 l 0.202055,-0.03204 0.194304,-0.06305 0.182417,-0.09302 z m 0,1.040764 -0.04444,-0.03256 -0.182417,-0.0925 -0.01705,-0.0057 -0.17725,-0.05788 -0.202055,-0.03204 H 37.60339 l -0.202055,0.03204 -0.19482,0.06356 -0.182418,0.0925 -0.04444,0.03256 0.365353,0.365352 a 0.80000001,0.80000001 0 0 1 0.360701,-0.08578 0.80000001,0.80000001 0 0 1 0.360185,0.08578 z m 0,2.159041 -0.365352,-0.365352 a 0.80000001,0.80000001 0 0 1 -0.360185,0.08578 0.80000001,0.80000001 0 0 1 -0.360701,-0.08578 l -0.365353,0.365352 0.0078,0.0186 0.03204,0.01085 0.0047,0.0031 0.182418,0.0925 0.19482,0.06356 0.202055,0.03204 h 0.204638 l 0.202055,-0.03204 0.194304,-0.06356 0.182417,-0.0925 z m -0.735355,4.700488 -0.03411,-0.218074 -0.03514,-0.108004 -0.03307,-0.101286 -0.100252,-0.196887 -0.129708,-0.178284 -0.155546,-0.155546 -0.178284,-0.129707 -0.18035,-0.09198 -0.0093,-0.0047 -0.0057,-0.0031 -0.0016,-5.17e-4 -0.0015,-5.17e-4 -0.0093,-0.0031 -0.181384,-0.05891 -0.01447,-0.0047 -0.0026,-0.001 -0.08217,-0.01292 -0.135909,-0.02119 H 36.18535 l -0.218074,0.03411 -0.20929,0.06821 -0.0186,0.0093 -0.102836,0.05271 -0.02894,0.01447 -0.04599,0.02377 -0.0217,0.01602 -0.15658,0.113688 -0.156063,0.155546 -0.129707,0.178284 -0.09974,0.196887 -0.06821,0.20929 -0.03462,0.218074 v 0.220142 l 0.03462,0.218075 v 5.16e-4 l 0.01809,0.05478 0.04651,0.143144 5.16e-4,0.0021 5.17e-4,0.0016 0.0026,0.0072 0.09974,0.196371 0.129707,0.178283 0.156063,0.156063 0.178284,0.129708 0.19637,0.09973 0.20929,0.06821 h 5.17e-4 l 0.217557,0.03462 h 0.220142 l 0.218075,-0.03462 0.209289,-0.06821 0.196887,-0.09973 0.178284,-0.129708 0.155546,-0.156063 0.129708,-0.178283 0.100252,-0.196371 0.06821,-0.209289 v -5.17e-4 l 0.03411,-0.217558 z m 0,7.61969 -0.03411,-0.217558 -0.06821,-0.209807 -0.100252,-0.19637 -0.129708,-0.178284 -0.155546,-0.156063 -0.178284,-0.129191 -0.18035,-0.09198 -0.0093,-0.0047 -0.0057,-0.0031 -0.0031,-10e-4 -0.0062,-0.0026 -0.0031,-5.16e-4 -0.195854,-0.06356 -0.0026,-0.001 -0.218075,-0.03462 h -0.220142 l -0.218074,0.03462 -0.20929,0.06821 -0.19637,0.100252 -0.178284,0.129191 -0.156063,0.156063 -0.129707,0.178284 -0.09974,0.19637 -0.06821,0.209807 -0.03462,0.217558 v 0.220658 l 0.03462,0.217558 v 5.16e-4 l 0.01809,0.05478 0.04651,0.143145 5.16e-4,0.0026 5.17e-4,10e-4 0.0026,0.0078 0.09974,0.19637 0.129707,0.178284 0.156063,0.156063 0.178284,0.129191 0.19637,0.100252 0.20929,0.06821 h 5.17e-4 l 0.217557,0.03462 h 0.220142 l 0.218075,-0.03462 0.209289,-0.06821 0.196887,-0.100252 0.178284,-0.129191 0.155546,-0.156063 0.129708,-0.178284 0.100252,-0.19637 0.06821,-0.209806 0.03411,-0.217558 z m 0,14.480252 -0.03411,-0.218074 -0.06821,-0.20929 -0.100252,-0.19637 -0.129708,-0.178801 -0.155546,-0.155546 -0.178284,-0.129707 -0.18035,-0.09198 -0.0093,-0.0047 -0.0057,-0.0031 -0.0031,-0.001 -0.0062,-0.0021 -0.0031,-10e-4 -0.195854,-0.06356 -0.0026,-5.17e-4 -0.08217,-0.01344 -0.135909,-0.02119 H 36.18535 l -0.218074,0.03462 -0.20929,0.0677 -0.0186,0.0093 -0.102836,0.05271 -0.02894,0.01447 -0.04599,0.02377 -0.0217,0.01602 -0.15658,0.113688 -0.156063,0.155546 -0.129707,0.178801 -0.09974,0.19637 -0.06821,0.20929 -0.03462,0.218074 v 0.220142 l 0.03462,0.218075 v 5.16e-4 l 0.01809,0.05478 0.04651,0.143144 5.16e-4,0.0021 5.17e-4,0.0016 0.0026,0.0072 0.09974,0.196371 0.129707,0.1788 0.156063,0.155546 0.178284,0.129708 0.19637,0.100252 0.20929,0.0677 h 5.17e-4 l 0.217557,0.03462 h 0.220142 l 0.218075,-0.03462 0.209289,-0.0677 0.196887,-0.100252 0.178284,-0.129708 0.155546,-0.155546 0.129708,-0.1788 0.100252,-0.196371 0.06821,-0.209289 v -5.17e-4 l 0.03411,-0.217558 z m 0,7.61969 -0.03411,-0.217557 -0.06821,-0.209806 -0.100252,-0.196371 -0.129708,-0.178284 -0.155546,-0.156063 -0.178284,-0.129191 -0.18035,-0.09198 -0.0093,-0.0047 -0.0057,-0.0031 -0.0031,-10e-4 -0.0062,-0.0021 -0.0031,-0.001 -0.195854,-0.06356 -0.0026,-0.001 -0.218075,-0.03462 h -0.220142 l -0.218074,0.03462 -0.20929,0.06821 -0.19637,0.100251 -0.178284,0.129191 -0.156063,0.156063 -0.129707,0.178284 -0.09974,0.196371 -0.06821,0.209806 -0.03462,0.217557 v 0.220659 l 0.03462,0.217558 v 5.16e-4 l 0.01809,0.05478 0.04651,0.143144 5.16e-4,0.0026 5.17e-4,0.001 0.0026,0.0078 0.09974,0.19637 0.129707,0.178285 0.156063,0.156062 0.178284,0.129191 0.19637,0.100252 0.20929,0.06821 h 5.17e-4 l 0.217557,0.03462 h 0.220142 l 0.218075,-0.03462 0.209289,-0.06821 0.196887,-0.100252 0.178284,-0.129191 0.155546,-0.156062 0.129708,-0.178285 0.100252,-0.19637 0.06821,-0.209806 0.03411,-0.217558 z m -0.09974,-50.94366 -0.01964,-0.148311 -0.01654,-0.125057 -5.17e-4,-0.01292 -0.0047,-0.0124 -0.0047,-0.01912 -0.06666,-0.247013 -0.0248,-0.06046 -0.08527,-0.206189 -0.144177,-0.249598 -0.1757,-0.228926 -0.204122,-0.204122 -0.001,-5.17e-4 -0.158647,-0.121956 -0.0062,-0.0047 -0.06305,-0.04858 -0.09302,-0.05374 -0.156579,-0.09043 -0.266651,-0.110071 -0.278535,-0.07493 -0.285771,-0.03772 h -0.288871 l -0.285771,0.03772 -0.278536,0.07493 -0.26665,0.110071 -0.249598,0.144177 -0.228926,0.1757 -0.204122,0.204122 -0.1757,0.228926 -0.144177,0.249598 -0.110071,0.26665 -0.07493,0.278536 -0.03772,0.286287 v 0.288355 l 0.03772,0.285771 0.07493,0.278536 0.110071,0.26665 0.05839,0.100769 0.08578,0.148828 v 5.17e-4 l 0.1757,0.22841 0.204122,0.204122 0.228926,0.175699 0.249598,0.144178 0.0036,0.0015 0.0031,0.001 0.173633,0.07235 0.0863,0.03566 0.278536,0.07441 0.285771,0.03772 h 0.238745 0.05013 l 0.285771,-0.03772 0.141593,-0.03824 0.136942,-0.03617 0.259933,-0.108003 0.0031,-10e-4 0.0036,-0.0015 0.249597,-0.144178 0.228927,-0.175699 0.204122,-0.204122 0.1757,-0.228927 0.144177,-0.249597 0.0016,-0.0036 0.001,-0.0031 0.107487,-0.259416 v -5.16e-4 l 0.01137,-0.04134 0.05684,-0.211873 0.0067,-0.02532 0.0026,-0.02015 0.02274,-0.173633 0.0124,-0.09198 z m 0,34.899678 -0.01964,-0.147794 -0.01654,-0.125057 -5.17e-4,-0.01344 -0.0047,-0.0124 -0.0047,-0.0186 -0.06666,-0.247013 -0.0248,-0.06046 -0.08527,-0.206189 -0.144177,-0.249597 -0.1757,-0.228926 -0.204122,-0.204122 -0.001,-5.17e-4 -0.164848,-0.126607 -0.06305,-0.04858 -0.09302,-0.05374 -0.121956,-0.07028 -0.03462,-0.02015 -0.266651,-0.110588 -0.278535,-0.07441 -0.285771,-0.03772 h -0.288871 l -0.285771,0.03772 -0.278536,0.07441 -0.26665,0.110588 -0.249598,0.144177 -0.228926,0.1757 -0.204122,0.204122 -0.1757,0.22841 -0.144177,0.250113 -0.110071,0.266651 -0.07493,0.278536 -0.03772,0.28577 v 0.288355 l 0.03772,0.286287 0.07493,0.278536 0.110071,0.266651 0.05839,0.100769 0.08578,0.148828 0.1757,0.228927 0.204122,0.204121 0.228926,0.1757 0.249598,0.144178 0.0036,0.0015 0.0031,10e-4 0.173633,0.07183 0.0863,0.03566 0.278536,0.07493 0.285771,0.03772 h 0.238745 0.05013 l 0.285771,-0.03772 0.141593,-0.03824 0.136942,-0.03669 0.259933,-0.107487 0.0031,-10e-4 0.0036,-0.0015 0.249597,-0.144178 0.228927,-0.1757 0.204122,-0.204121 0.1757,-0.228927 0.144177,-0.249597 0.0016,-0.0036 10e-4,-0.0031 0.107487,-0.259933 0.01137,-0.04186 0.05684,-0.211873 0.0067,-0.02481 0.0026,-0.02015 0.02274,-0.17415 0.0124,-0.09198 z m -0.0863,34.983913 -0.03772,-0.285771 -0.01344,-0.05064 -0.06098,-0.227892 -0.07803,-0.188619 -0.03256,-0.07803 -0.144177,-0.249599 -0.1757,-0.228926 -0.203605,-0.204122 -0.04754,-0.03617 -0.04547,-0.03514 -0.129191,-0.09922 -0.0067,-0.0052 -0.03411,-0.01912 -0.09508,-0.05529 -0.120923,-0.06976 -0.266133,-0.11007 -0.279053,-0.07493 -0.285771,-0.03772 h -0.288354 l -0.286288,0.03772 -0.278536,0.07493 -0.266133,0.11007 -0.250114,0.144177 -0.228927,0.1757 -0.204122,0.204122 -0.175183,0.228926 -0.144177,0.249599 -0.110588,0.26665 -0.07441,0.278536 -0.03772,0.285771 v 0.288871 l 0.03772,0.28577 0.07441,0.278537 0.110588,0.26665 0.08578,0.149344 0.05839,0.100252 0.175183,0.228927 0.204122,0.204123 0.228927,0.175699 0.250114,0.144177 0.0031,0.0016 0.0031,0.001 0.07958,0.03307 0.18035,0.07441 0.278536,0.07493 0.05064,0.0067 0.235645,0.031 h 0.238228 0.05013 l 0.285771,-0.03772 0.0186,-0.0052 0.26045,-0.06976 0.259932,-0.107487 0.0031,-0.001 0.0031,-0.0016 0.250114,-0.144177 0.0067,-0.0052 0.222209,-0.170532 0.203605,-0.204123 0.1757,-0.228927 0.144177,-0.249596 0.0016,-0.0036 10e-4,-0.0031 0.108004,-0.259931 0.02274,-0.08578 0.04496,-0.167948 0.0067,-0.02481 0.0026,-0.02015 0.01912,-0.144178 0.01602,-0.121438 z M 37.09541,25.164872 a 0.80000001,0.80000001 0 0 1 -0.799951,0.799951 0.80000001,0.80000001 0 0 1 -0.799951,-0.799951 0.80000001,0.80000001 0 0 1 0.799951,-0.799951 0.80000001,0.80000001 0 0 1 0.799951,0.799951 z m 0,7.61969 a 0.80000001,0.80000001 0 0 1 -0.799951,0.800469 0.80000001,0.80000001 0 0 1 -0.799951,-0.800469 0.80000001,0.80000001 0 0 1 0.799951,-0.799951 0.80000001,0.80000001 0 0 1 0.799951,0.799951 z m 0,14.480253 a 0.80000001,0.80000001 0 0 1 -0.799951,0.799951 0.80000001,0.80000001 0 0 1 -0.799951,-0.799951 0.80000001,0.80000001 0 0 1 0.799951,-0.799951 0.80000001,0.80000001 0 0 1 0.799951,0.799951 z m 0,7.620207 a 0.80000001,0.80000001 0 0 1 -0.799951,0.799951 0.80000001,0.80000001 0 0 1 -0.799951,-0.799951 0.80000001,0.80000001 0 0 1 0.799951,-0.800468 0.80000001,0.80000001 0 0 1 0.799951,0.800468 z m -0.01395,3.528984 -0.365353,-0.365352 -0.03256,0.04496 -0.06718,0.132292 -0.0021,0.0031 -0.02325,0.04599 v 5.16e-4 l -5.16e-4,5.16e-4 -0.03049,0.09405 -0.03256,0.100252 -0.03204,0.202055 v 0.204642 l 0.03204,0.202055 0.01395,0.04237 0.04909,0.152445 0.09302,0.182418 0.03256,0.04444 0.365353,-0.365352 a 0.80000001,0.80000001 0 0 1 -0.08578,-0.360702 0.80000001,0.80000001 0 0 1 0.08578,-0.360185 z m 0,3.100069 -0.365353,-0.365353 -0.03256,0.04496 -0.09302,0.181901 -0.06305,0.194821 -0.03204,0.202055 v 0.204639 l 0.03204,0.202053 0.01395,0.04237 0.04909,0.151929 v 5.17e-4 l 0.09302,0.181901 0.03256,0.04496 0.365353,-0.365353 a 0.80000001,0.80000001 0 0 1 -0.08578,-0.360702 0.80000001,0.80000001 0 0 1 0.08578,-0.360701 z m 0,3.100069 -0.365353,-0.365352 -0.03256,0.04496 -0.09302,0.1819 -0.06305,0.194821 -0.03204,0.202054 v 0.204639 l 0.03204,0.202055 0.01395,0.04186 0.04909,0.152445 v 5.18e-4 l 0.09302,0.1819 0.03256,0.04496 0.365353,-0.365352 a 0.80000001,0.80000001 0 0 1 -0.08578,-0.360702 0.80000001,0.80000001 0 0 1 0.08578,-0.360702 z m 0,3.10007 -0.365353,-0.365353 -0.03256,0.04444 -0.09302,0.182418 -0.06305,0.194819 -0.03204,0.202055 v 0.204639 l 0.03204,0.202055 0.01395,0.04186 0.04909,0.152445 0.09302,0.182418 0.03256,0.04444 0.365353,-0.364837 a 0.80000001,0.80000001 0 0 1 -0.08578,-0.3607 0.80000001,0.80000001 0 0 1 0.08578,-0.360702 z M 36.99154,9.3141607 36.626187,8.948808 l -0.03256,0.04444 -0.09302,0.182418 -0.06305,0.19482 -0.03204,0.2020548 v 0.2046387 l 0.03204,0.2020548 0.0124,0.03824 0.05064,0.156063 v 5.17e-4 l 0.09302,0.181901 0.03256,0.04496 0.365353,-0.365353 A 0.80000001,0.80000001 0 0 1 36.90575,9.67486 0.80000001,0.80000001 0 0 1 36.99153,9.3141585 Z m 0,3.1998043 -0.365353,-0.364836 -0.03256,0.04444 -0.09302,0.182418 -0.06305,0.194303 -0.03204,0.202055 v 0.204639 l 0.03204,0.202055 0.0124,0.03824 0.05064,0.15658 0.09302,0.182417 0.03256,0.04444 0.365353,-0.365352 a 0.80000001,0.80000001 0 0 1 -0.08578,-0.360702 0.80000001,0.80000001 0 0 1 0.08578,-0.360184 z m 0,3.200321 -0.365353,-0.365352 -0.03256,0.04444 -0.09302,0.182417 -0.06305,0.194821 -0.03204,0.202054 v 0.204639 l 0.03204,0.202055 0.0124,0.03824 0.05064,0.156062 0.09302,0.182418 0.03256,0.04444 0.365353,-0.365352 a 0.80000001,0.80000001 0 0 1 -0.08578,-0.360185 0.80000001,0.80000001 0 0 1 0.08578,-0.360702 z m 0,3.199805 -0.365353,-0.365352 -0.03256,0.04496 -0.09302,0.181901 -0.06305,0.19482 -0.03204,0.202055 v 0.204639 l 0.03204,0.202055 0.0124,0.03824 0.05064,0.156063 v 5.17e-4 l 0.09302,0.181901 0.03256,0.04496 0.365353,-0.365352 a 0.80000001,0.80000001 0 0 1 -0.08578,-0.360702 0.80000001,0.80000001 0 0 1 0.08578,-0.360701 z m -4.595585,29.481405 -0.0155,-0.117306 -5.17e-4,-0.0021 -0.0021,-0.0047 -0.01447,-0.03462 -0.03256,-0.07906 -0.01085,-0.02584 -0.06408,-0.08372 -0.03204,-0.04186 -0.05013,-0.03824 -0.07545,-0.05788 -0.0015,-10e-4 -0.0052,-0.0015 -0.02894,-0.0124 -0.110071,-0.04548 -0.117822,-0.0155 h -0.714169 -0.964282 l -0.117822,0.0155 -0.138493,0.05736 -0.0072,0.0031 -0.0098,0.0078 -0.115755,0.08837 -0.06976,0.09095 -0.0062,0.0088 -0.01654,0.01499 -0.0016,0.0047 -0.0047,0.0124 -0.05788,0.140043 -0.0155,0.117306 v 1.67845 l 0.0155,0.117822 0.06046,0.145728 0.05426,0.07131 0.03204,0.04186 0.0098,0.0124 0.10697,0.08216 5.17e-4,5.17e-4 h 5.16e-4 l 0.0186,0.01654 0.0072,0.0072 0.01602,0.01602 0.04703,0.07493 0.0098,0.08837 -0.02894,0.0832 -0.01447,0.02274 -0.01033,0.01705 -0.0078,0.01085 -0.114721,0.15813 -0.100253,0.196372 -0.0677,0.209806 -0.03462,0.217557 v 0.220658 l 0.03462,0.217558 v 5.17e-4 l 0.02946,0.08992 0.03462,0.108003 0.001,0.0026 5.16e-4,10e-4 0.0021,0.0078 0.100253,0.196371 0.129708,0.178284 0.155546,0.155545 0.04341,0.03152 0.04393,0.04393 0.0067,0.0093 0.03462,0.08165 -0.0036,0.08837 -0.04237,0.07803 -0.01137,0.01343 -0.03307,0.02997 -0.03824,0.02739 -0.155546,0.156063 -0.129708,0.178284 -0.100253,0.19637 -0.0677,0.209807 -0.03462,0.217557 v 0.220659 l 0.03462,0.217558 v 5.16e-4 l 0.02946,0.09043 0.03462,0.107487 0.001,0.0026 5.16e-4,10e-4 0.0021,0.0078 0.100253,0.19637 0.129708,0.178284 0.155546,0.156064 0.1788,0.12919 0.19637,0.100252 0.0031,10e-4 0.206189,0.06718 0.19637,0.03101 0.0078,10e-4 0.01395,0.0026 h 0.220141 l 0.01499,-0.0026 0.03307,-0.0052 0.170016,-0.02687 0.209289,-0.06821 0.196371,-0.100252 0.1788,-0.12919 0.155546,-0.156064 0.129708,-0.178284 0.100252,-0.19637 0.0677,-0.209806 0.03462,-0.217558 v -0.220659 l -0.03462,-0.217557 -0.0677,-0.209807 -0.100252,-0.19637 -0.129708,-0.178284 -0.155546,-0.156063 -0.01137,-0.0078 -0.03204,-0.02325 -0.04393,-0.04393 -0.0067,-0.0093 -0.03462,-0.08165 0.0036,-0.08837 0.04237,-0.07803 0.01137,-0.01344 0.03307,-0.02997 0.03824,-0.02791 0.155546,-0.155545 0.129708,-0.178284 0.100252,-0.196371 0.0677,-0.209806 0.03462,-0.217558 v -0.220643 l -0.03462,-0.217557 -0.0677,-0.209806 -0.100252,-0.196372 -0.125574,-0.172599 -0.01137,-0.01757 -0.01395,-0.02429 -0.02635,-0.08475 0.01344,-0.08785 0.04961,-0.07286 0.03514,-0.03256 0.01395,-0.01189 0.0956,-0.07338 0.09612,-0.125574 10e-4,-0.0015 0.0016,-0.0047 0.04031,-0.09715 5.17e-4,-0.0016 0.01447,-0.01964 0.0098,-0.07441 0.0083,-0.0646 z m -0.04496,-5.945891 -0.01137,-0.08682 -0.0093,-0.06976 -0.06046,-0.145728 -5.17e-4,-0.001 -0.0016,-0.0016 -0.09405,-0.12299 -0.0832,-0.06408 -0.03101,-0.02377 -0.001,-5.17e-4 -0.01034,-0.0078 -0.140043,-0.05839 -0.0057,-0.0021 -0.0031,-5.17e-4 -0.01033,-0.0026 -0.05684,-0.02429 -0.02687,-0.01705 -0.03204,-0.02532 -0.01085,-0.01602 -0.0016,-0.0026 -0.02532,-0.03824 -0.0031,0.0015 -0.0052,-0.01033 -0.0072,-0.02119 -0.0031,-0.0052 -0.0036,-0.01137 -5.17e-4,-0.0021 -0.0036,-0.0093 -0.0016,-0.0062 -0.0021,-0.0062 -0.0041,-0.01034 -0.0031,-0.0067 -0.0093,-0.02532 -0.0021,-0.0031 -0.0021,-0.0041 -0.03979,-0.09663 -0.09612,-0.125573 -0.05684,-0.04289 -0.04082,-0.03152 -0.02791,-0.02171 -0.09974,-0.04134 -0.04651,-0.01912 -0.15658,-0.02067 h -0.250114 l -0.12454,0.01654 -0.03204,0.0041 -0.04651,0.01912 -0.09973,0.04134 -0.125057,0.09612 -0.07648,0.09973 -0.01499,0.01395 -0.0026,0.0067 -0.0046,0.01034 -0.0016,0.0026 -0.0016,0.0057 -0.02481,0.05943 -0.01654,0.03979 -0.01395,0.03359 -0.0031,0.0124 -0.0031,-5.17e-4 -0.02119,0.0584 -0.01654,0.02635 -0.01034,0.01292 -0.0015,0.0041 -0.0041,0.0031 -0.0093,0.0124 -0.02894,0.0186 -0.02636,0.0217 h -5.17e-4 l -0.0088,0.0047 -0.0021,5.17e-4 -0.0279,0.01034 -0.01137,0.0041 -0.0072,0.0026 -0.0124,0.0041 -0.0021,0.001 -0.145728,0.06046 -0.125573,0.09612 -0.07596,0.09922 -0.01499,0.01395 -0.0031,0.0067 -0.0047,0.01034 -0.001,0.0026 -0.0021,0.0062 -0.01912,0.04651 -0.03566,0.08578 -0.02067,0.156579 v 0.0036 0.246496 0.001 l 5.16e-4,0.0026 0.0186,0.140043 v 0.0067 l 0.001,0.0067 0.0031,0.0057 0.0078,0.01912 0.05013,0.120923 0.01395,0.01809 0.03204,0.04186 0.05013,0.06563 0.12299,0.09405 0.0021,0.0015 5.16e-4,5.17e-4 0.145728,0.06046 0.0047,10e-4 0.06563,0.02636 0.02687,0.01705 0.01292,0.0098 0.0041,0.0021 0.0031,0.0036 0.01189,0.0093 0.01912,0.02894 0.0217,0.02687 0.0041,0.0093 h 5.16e-4 l 5.17e-4,0.0016 0.0098,0.02791 h 5.16e-4 l 0.0047,0.0124 0.0021,0.0062 0.0041,0.0124 5.17e-4,0.0021 h 5.17e-4 l 0.05994,0.145727 0.09663,0.125574 0.122473,0.09457 0.0021,0.0016 h 5.17e-4 l 0.146244,0.06046 0.07648,0.01034 0.0801,0.01034 h 0.250114 l 0.04341,-0.0057 0.113171,-0.01499 0.146244,-0.06046 0.125574,-0.09612 0.09612,-0.125574 0.06046,-0.145727 5.16e-4,-0.0031 0.0016,-0.0036 5.16e-4,-0.0026 h 5.17e-4 l 0.02377,-0.06098 0.01705,-0.02687 0.01033,-0.01292 0.0021,-0.0041 0.0031,-0.0026 0.0093,-0.0124 0.02946,-0.0186 0.02635,-0.0217 h 5.17e-4 v -5.17e-4 l 0.0088,-0.0041 0.0021,-10e-4 0.0279,-0.0098 0.0186,-0.0072 0.01137,-0.0036 0.0031,-10e-4 0.0098,-0.0041 0.04393,-0.01809 0.09198,-0.03824 0.125574,-0.09612 0.09612,-0.125574 0.06046,-0.146244 0.01188,-0.08837 0.0088,-0.06821 z m -0.41496,-14.794962 -0.03462,-0.217558 v -5.17e-4 l -0.06821,-0.209289 -0.09974,-0.196371 -0.129708,-0.178283 -0.156063,-0.156063 -0.178284,-0.129708 -0.189135,-0.09663 -0.0057,-0.0026 -0.0036,-0.0015 -0.0062,-0.0021 -0.0026,-5.17e-4 -0.06615,-0.0217 -0.12454,-0.04031 -0.001,-5.17e-4 -0.0072,-0.0021 -0.153996,-0.02429 -0.06356,-0.01034 h -0.220145 l -0.218074,0.03462 -0.20929,0.06821 -0.196887,0.09974 -0.178284,0.129708 -0.155546,0.156063 -0.129708,0.178283 -0.100251,0.196371 -0.06821,0.209289 -0.03411,0.218075 v 0.220141 l 0.03411,0.218075 5.16e-4,5.17e-4 0.0217,0.0677 0.04237,0.130224 5.18e-4,0.0021 10e-4,0.0015 0.0021,0.0072 0.100251,0.196888 0.129708,0.178283 0.155546,0.155546 0.001,5.17e-4 5.17e-4,0.001 0.0041,0.0041 0.03152,0.03617 0.03152,0.0832 -0.0078,0.08785 -0.04548,0.07648 -0.07338,0.04858 -0.7028,0.265617 -0.01292,0.0052 -0.05788,0.01034 v 0.0015 l -0.0098,0.001 -0.03721,0.0072 -0.01447,0.0026 -0.112655,0.02274 -0.154513,0.06408 -0.139526,0.09302 -2.040703,2.040703 -1.952852,1.952852 -0.150378,0.150378 -0.271819,0.271819 -0.04186,0.03204 -0.08475,0.02584 -0.08785,-0.01395 -0.513663,-0.204638 -0.06718,-0.02687 -0.03204,-0.01602 -0.06253,-0.06253 -0.02945,-0.08372 0.0098,-0.08785 0.04754,-0.07545 0.04444,-0.04444 0.13901,-0.191202 0.106971,-0.210324 0.07286,-0.224792 0.03721,-0.233061 v -0.236092 l -0.03721,-0.23306 v -5.17e-4 l -0.07286,-0.224276 -0.106971,-0.210323 -0.04444,-0.06098 -0.09457,-0.130225 -0.166915,-0.166914 -0.02119,-0.0155 -0.170015,-0.123507 -0.112654,-0.05736 -0.09767,-0.05013 -0.112137,-0.03617 h -5.18e-4 l -0.112138,-0.03669 -0.119372,-0.0186 -0.113689,-0.01809 h -0.386539 l -0.23306,0.03669 -0.224794,0.07286 -0.210323,0.107487 -0.04599,0.03307 -0.14521,0.105937 -0.166915,0.166914 -0.04703,0.06511 -0.05684,0.07803 -0.03462,0.04806 -0.106454,0.207739 -0.001,0.0026 -0.05581,0.171049 -0.0072,0.0186 -0.0057,0.0083 -0.0015,0.01137 -0.0026,0.01498 -0.03721,0.233577 V 32.643 l 0.03721,0.233061 0.07286,0.224792 0.0036,0.0072 0.103869,0.203089 0.116272,0.160196 0.02222,0.03101 0.123506,0.123506 0.04754,0.07493 0.0026,0.0078 0.0098,0.08785 -0.01705,0.04806 v 0.0015 l -0.001,0.0021 -0.01137,0.03204 -0.01033,0.01654 -0.01757,0.0217 -0.0026,0.0052 -0.0036,0.0041 -0.11989,0.119889 -0.04703,0.06511 -0.09147,0.125574 -0.106454,0.208256 -0.001,0.0021 -0.05581,0.171566 -0.0072,0.01861 -0.0057,0.0083 -0.0015,0.01085 -0.0026,0.0155 -0.03721,0.233578 v 0.236162 l 0.03721,0.233059 0.07286,0.224793 0.0036,0.0067 0.103869,0.203605 0.116272,0.160197 0.02222,0.03101 0.04444,0.04444 0.02325,0.02791 0.03307,0.08216 -0.0062,0.08837 -0.04392,0.077 -0.07286,0.05013 -0.721919,0.287838 -0.0739,0.01395 h -0.235645 l -0.03359,-0.0026 -0.01034,-0.0021 -0.07235,-0.02739 -0.02222,-0.01447 -0.03514,-0.02739 -2.307352,-2.30787 -0.0217,-0.02532 -0.0057,-0.0083 -0.03204,-0.07131 -0.0057,-0.02584 -0.0052,-0.04392 v -1.38648 l 0.01292,-0.07028 0.429431,-1.136365 0.0047,-0.01085 5.17e-4,-0.0016 0.0016,-0.0041 0.001,-0.0047 0.02687,-0.0708 0.0098,-0.04186 0.0026,-0.0078 0.01809,-0.05581 0.0083,-0.02429 v -5.17e-4 l 0.03411,-0.217558 V 30.86467 l -0.03411,-0.218075 -0.06821,-0.209289 -0.100253,-0.196371 -0.129707,-0.1788 -0.155545,-0.155546 -0.178285,-0.129708 -0.196371,-0.100252 -0.209806,-0.0677 -0.217557,-0.03462 h -0.220756 l -0.217559,0.03462 -0.209806,0.0677 -0.196371,0.100252 -0.178283,0.129708 -0.156063,0.155546 -0.129708,0.1788 -0.09974,0.196371 -0.06821,0.209289 -0.03462,0.218075 v 0.220141 l 0.03462,0.218075 v 5.17e-4 l 0.01395,0.04186 0.0031,0.01189 0.01499,0.05736 v 5.17e-4 l 0.0062,0.01757 0.02377,0.06201 0.0016,0.0052 0.0026,0.0072 5.17e-4,0.0015 0.0016,0.0036 10e-4,0.0021 0.0057,0.0155 0.001,0.0021 0.426331,1.129131 0.01292,0.07028 v 1.927015 l 0.0124,0.06201 0.0124,0.06201 v 5.17e-4 l 0.0083,0.03979 v 0.0015 l 0.0026,0.0052 0.01809,0.04341 0.04341,0.104903 0.03101,0.04651 0.0067,0.01033 0.01964,0.02946 0.03566,0.05322 3.068545,3.06803 0.03462,0.02325 5.16e-4,5.16e-4 0.10387,0.06925 0.155029,0.06408 0.164332,0.03307 h 0.771012 l 0.0739,0.01395 0.02325,0.0093 0.359668,0.143143 0.338998,0.135393 0.01344,0.0067 0.0036,0.001 0.0031,0.0021 0.01188,0.0062 0.02532,0.02532 0.02791,0.02325 0.0031,0.0083 0.0062,0.0057 0.01188,0.03411 0.01499,0.03307 -5.16e-4,0.0083 0.0031,0.0083 -0.0041,0.03566 -0.001,0.03617 -0.0036,0.0078 -0.001,0.0088 -0.01912,0.02997 -0.01654,0.03204 -0.0057,0.0067 -0.05064,0.05064 -0.04703,0.06511 -0.0041,0.0057 -0.05271,0.07235 -0.03462,0.04806 -0.106454,0.207739 -0.001,0.0026 -0.05581,0.171566 -0.0072,0.0186 -0.0057,0.0078 -0.0015,0.01137 -0.0026,0.0155 -0.03721,0.233061 v 0.236161 l 0.03721,0.233578 0.07286,0.224276 0.0036,0.0072 0.103869,0.203089 0.116272,0.160713 0.02222,0.03049 0.123506,0.124024 0.04754,0.07493 0.0026,0.0072 0.0098,0.08837 -0.01705,0.04806 v 10e-4 l -0.001,0.0021 -0.01137,0.03204 -0.01033,0.01654 -0.01757,0.02222 -0.0026,0.0047 -0.0036,0.0041 -0.11989,0.11989 -0.04703,0.06511 -0.09147,0.126091 -0.106454,0.207739 -0.001,0.0026 -0.05581,0.171049 -0.0072,0.01912 -0.0057,0.0078 -0.0015,0.01137 -0.0026,0.0155 -0.03721,0.233061 v 0.236161 l 0.03721,0.233578 0.07286,0.224275 0.0036,0.0072 0.103869,0.203088 0.116272,0.160197 0.02222,0.03101 0.0088,0.0088 0.04703,0.07493 0.0026,0.0072 0.0098,0.08837 -0.02894,0.0832 -0.01033,0.01654 -0.02791,0.03514 -0.0956,0.0956 -0.09405,0.151929 -0.05633,0.170016 -0.01033,0.102836 v 0.0016 0.436666 h 0.499711 v -0.385506 l 0.02016,-0.101286 0.05736,-0.08578 0.0863,-0.05736 0.101286,-0.02015 h 1.420584 l 0.101286,0.02015 0.08578,0.05736 0.05736,0.08578 0.02016,0.101286 v 0.385506 h 0.49971 v -0.436666 l -0.01034,-0.104386 -0.0083,-0.07855 -0.03979,-0.06563 -0.0083,-0.02584 -0.04599,-0.07441 -0.04806,-0.07751 -0.103353,-0.103353 -0.04702,-0.07493 -0.0026,-0.0078 -0.0098,-0.08785 0.02894,-0.08372 0.01034,-0.01654 0.02687,-0.03359 0.001,-5.16e-4 v -5.17e-4 l 0.001,-10e-4 0.13901,-0.191203 0.106971,-0.210323 0.07286,-0.224275 v -5.17e-4 l 0.03721,-0.233061 v -0.236161 l -0.03721,-0.233061 -0.07286,-0.224792 -0.106971,-0.210323 -0.04444,-0.06098 -0.09457,-0.130224 -0.123506,-0.123507 -0.04703,-0.07493 -0.0031,-0.0078 -0.0098,-0.08785 0.02946,-0.08372 0.01034,-0.01654 0.0279,-0.03462 0.115755,-0.116272 0.13901,-0.191202 0.106971,-0.210323 0.07286,-0.224276 0.03721,-0.233578 v -0.236161 l -0.03721,-0.233061 -0.07286,-0.224792 -0.106971,-0.210323 -0.04444,-0.06098 -0.09457,-0.130225 -0.123506,-0.123507 -0.04703,-0.07493 -0.0031,-0.0078 -0.0098,-0.08785 0.02946,-0.08372 0.01034,-0.01654 0.0279,-0.03462 0.115755,-0.116272 0.13901,-0.190686 0.106971,-0.210323 0.07286,-0.224793 0.03721,-0.233577 v -0.236162 l -0.03721,-0.23306 -0.07286,-0.224793 -0.106971,-0.210323 -0.04444,-0.06098 -0.09457,-0.130225 -0.04444,-0.04444 -0.02325,-0.02791 -0.03307,-0.08216 0.0062,-0.08837 0.04393,-0.077 0.07287,-0.05013 0.721919,-0.287838 0.0739,-0.01395 h 0.321427 l 0.164331,-0.03256 0.07545,-0.03152 0.07906,-0.03256 0.139527,-0.09353 4.277258,-4.277258 0.0021,-0.0015 5.17e-4,-10e-4 0.0016,-5.17e-4 0.02015,-0.01705 5.17e-4,-10e-4 0.03721,-0.01705 0.01654,-0.0098 0.0062,-5.17e-4 0.0088,-0.0047 0.04444,-5.16e-4 0.02894,-0.0026 0.0052,0.0021 0.01034,-5.17e-4 0.04393,0.02067 0.02325,0.0083 0.0036,0.0036 0.0093,0.0047 0.03256,0.03927 0.01602,0.01654 0.0016,0.0041 0.0067,0.0083 0.01189,0.04909 0.0078,0.02222 -0.001,0.0052 0.0026,0.0093 -0.0098,0.04651 -0.0036,0.02687 -0.0026,0.0067 -0.0016,0.0031 -5.17e-4,0.0036 -0.0036,0.0072 -0.0083,0.01188 -0.01447,0.02636 -0.05013,0.06563 -0.06046,0.145727 -0.0155,0.117306 v 1.678967 l 0.0155,0.117306 0.06046,0.146245 0.06356,0.0832 0.03256,0.04186 0.0031,0.0026 0.05478,0.04186 0.0046,0.0041 0.06305,0.04806 0.02481,0.01033 0.120923,0.05013 0.04703,0.0062 0.0708,0.0093 h 1.67845 l 0.0036,-5.17e-4 0.04496,-0.0062 0.02429,-0.0031 0.02584,-0.0031 0.0186,-0.0026 0.0021,-5.17e-4 0.0047,-0.0026 0.132808,-0.05478 0.0052,-0.0021 0.0016,-5.16e-4 0.125574,-0.09664 0.09612,-0.125056 0.001,-0.0021 0.0015,-0.0047 0.04031,-0.09664 5.16e-4,-0.0015 0.01447,-0.01964 0.0098,-0.07493 0.0083,-0.06408 v -1.678967 l -0.01137,-0.08785 -0.0041,-0.02946 -0.0124,-0.03049 -0.04806,-0.115238 -0.04341,-0.05684 -0.0036,-0.0052 -0.04909,-0.06356 -0.077,-0.05891 -0.0021,-0.0016 -0.02791,-0.0217 -0.01964,-0.01705 -0.02325,-0.02325 -0.04703,-0.07493 -0.01034,-0.08837 0.02946,-0.08372 0.02429,-0.03876 0.0078,-0.01137 0.115239,-0.15813 0.09974,-0.19637 0.06821,-0.209806 0.03462,-0.217558 v -0.220659 l -0.03462,-0.217557 -0.06821,-0.209807 -0.09974,-0.19637 -0.129708,-0.178284 -0.156063,-0.156063 -0.04289,-0.03101 -0.04392,-0.04392 -0.0067,-0.0093 -0.03462,-0.08165 0.0036,-0.08837 0.04186,-0.07803 0.01189,-0.01344 0.03307,-0.02997 0.03772,-0.02791 0.156063,-0.155546 0.129708,-0.178283 0.09974,-0.196888 0.06821,-0.209289 0.03462,-0.218075 z M 31.795476,48.43477 v 1.599902 H 30.195573 V 48.43477 Z m 0,3.339848 a 0.80000001,0.80000001 0 0 1 -0.799952,0.799951 0.80000001,0.80000001 0 0 1 -0.799951,-0.799951 0.80000001,0.80000001 0 0 1 0.799951,-0.799952 0.80000001,0.80000001 0 0 1 0.799952,0.799952 z m 0,2.540413 a 0.80000001,0.80000001 0 0 1 -0.799952,0.799951 0.80000001,0.80000001 0 0 1 -0.799951,-0.799951 0.80000001,0.80000001 0 0 1 0.799951,-0.800468 0.80000001,0.80000001 0 0 1 0.799952,0.800468 z m -0.05013,-11.865426 v 0.250114 h -0.624768 v 0.625285 h -0.250114 v -0.625285 h -0.624768 v -0.250114 h 0.624768 v -0.624768 h 0.250114 v 0.624768 z m -0.169495,16.215032 -0.03411,-0.217559 v -5.16e-4 l -0.06821,-0.20929 -0.100252,-0.196369 -0.129708,-0.178285 -0.137976,-0.137975 -0.01757,-0.01809 -0.08992,-0.06511 -0.0016,-0.001 -5.17e-4,-5.16e-4 -0.08268,-0.05994 -0.0036,-0.0031 h -0.001 l -0.01189,-0.0062 -5.16e-4,-5.17e-4 -0.02636,-0.01344 -0.01137,-0.0062 -0.03927,-0.02325 -0.01085,-0.0067 h -5.17e-4 l -0.01757,-0.0083 -0.06305,-0.02842 -0.0062,-0.0026 -0.0078,-0.0041 -0.0041,-0.0016 -0.0041,-0.0021 -1.111043,-0.501261 -0.05891,-0.04082 -0.918807,-0.918807 -0.0217,-0.02532 -0.0062,-0.0088 -0.03152,-0.0708 -0.0057,-0.02584 -0.0052,-0.04393 v -1.846916 l -0.03256,-0.16433 -0.0036,-0.0088 -0.0078,-0.03876 -0.01344,-0.01499 -0.0052,-0.0093 -0.03411,-0.0832 -0.05736,-0.08526 -0.03617,-0.05374 -4.386813,-4.386813 -0.212906,-0.213423 -0.118339,-0.118339 -0.01809,-0.01189 -0.04082,-0.02739 -0.08062,-0.05374 -0.04134,-0.01705 -0.113171,-0.04703 -0.05994,-0.01188 -0.05116,-0.01034 -0.05323,-0.01033 h -6.873387 -4.394048 l -0.164331,0.03256 -0.02119,0.0088 -0.133842,0.05529 -0.13901,0.09302 -0.147794,0.147794 -1.808159,1.807642 -0.815971,0.815971 -0.06201,0.04237 -1.263489,0.543637 -0.01705,0.0062 -0.0124,0.0041 -0.0062,0.0016 -0.0031,0.0021 -0.0041,0.0021 -0.03101,0.0155 -0.03876,0.01705 -0.03566,0.02119 -0.0987,0.05013 -0.191203,0.139009 -0.166915,0.166916 -0.13901,0.191202 v 5.17e-4 l -0.10697,0.209806 -0.05581,0.171049 -0.0072,0.01912 -0.0057,0.0078 -0.0021,0.01137 -0.0021,0.0155 -0.03721,0.23306 v 0.236162 l 0.03721,0.233577 0.03876,0.119889 0.03411,0.104387 0.10697,0.210324 0.02015,0.02739 0.03876,0.05374 0.0026,0.0031 0.03359,0.07648 0.0021,0.0088 -0.0021,0.08837 -0.03979,0.07906 -0.0124,0.01499 -0.03204,0.03101 -0.05581,0.04238 -0.06201,0.08113 -0.01395,0.0186 -0.01654,0.01499 -0.0015,0.0047 -0.0047,0.0124 -0.05788,0.140043 -0.0155,0.117306 v 1.878955 l 0.0155,0.117305 0.06046,0.145728 0.05426,0.07131 0.04186,0.05426 0.02791,0.02119 0.01292,0.01033 0.0041,0.0031 0.08062,0.0615 0.02584,0.01085 0.120406,0.04961 0.07028,0.0093 0.04702,0.0062 h 1.878955 l 0.02274,-0.0026 0.09457,-0.01292 0.145728,-0.06046 10e-4,-5.18e-4 0.12454,-0.0956 0.09612,-0.125573 10e-4,-0.0016 0.0021,-0.0047 0.03979,-0.09663 0.001,-0.0021 0.01395,-0.01964 0.0098,-0.07442 0.0083,-0.06408 v -1.878955 l -0.0155,-0.117306 -5.17e-4,-0.0021 -0.0021,-0.0047 -0.04961,-0.119889 -0.0052,-0.01292 -0.0021,-0.0052 -10e-4,-0.0016 -0.03462,-0.04496 -0.0615,-0.08061 -0.06356,-0.04858 -0.05426,-0.06356 -0.0041,-0.0078 -0.02377,-0.08527 0.01602,-0.08733 0.0078,-0.01808 0.0217,-0.03876 0.05529,-0.07596 0.02636,-0.05116 0.0057,-0.01034 0.02946,-0.05064 5.16e-4,-5.18e-4 0.0098,-0.0217 0.01395,-0.03256 0.0026,-0.0062 0.01912,-0.03721 0.0088,-0.02791 0.0036,-0.0083 0.544153,-1.264005 0.04186,-0.06201 2.393135,-2.393135 0.02532,-0.0217 0.0083,-0.0057 0.07131,-0.03204 0.02584,-0.0057 0.04392,-0.0052 h 10.191626 l 0.03307,0.0031 0.01033,0.0015 0.07235,0.02791 0.02274,0.01395 0.03462,0.02791 3.957381,3.957381 0.0217,0.02584 0.0062,0.0083 0.03152,0.0708 0.0062,0.02584 0.0047,0.04444 v 1.678967 0.167432 l 0.0124,0.06201 0.0124,0.06201 0.0083,0.04031 v 10e-4 l 0.0026,0.0057 0.01809,0.04341 0.04341,0.104903 0.03101,0.04651 0.0067,0.0098 0.01964,0.02997 0.03566,0.05271 1.297079,1.297595 0.04082,0.05891 0.108004,0.239779 0.0067,0.01602 0.0098,0.08785 -0.02945,0.08372 -0.06253,0.06253 -0.08372,0.02945 -0.08785,-0.01033 -0.07493,-0.04703 -2.143022,-2.142504 -0.02119,-0.02584 -0.0062,-0.0083 -0.03152,-0.0708 -0.0062,-0.02584 -0.0047,-0.04444 v -1.446423 l -0.03307,-0.164331 -0.0036,-0.0088 -0.0072,-0.03876 -0.01292,-0.01344 -0.0057,-0.01033 -0.03462,-0.08372 -0.06925,-0.10387 -0.0047,-0.0067 -0.01189,-0.01809 -0.0072,-0.01033 -1.483114,-1.483629 -10e-4,-10e-4 -0.02687,-0.02584 -0.02636,-0.03256 -0.02481,-0.03721 -0.01447,-0.02842 -5.17e-4,-5.16e-4 -0.0057,-0.0083 -0.0036,-0.0047 -0.129708,-0.178283 -0.04289,-0.04341 -5.17e-4,-5.18e-4 -0.05529,-0.05684 -0.0067,-0.0062 -0.0036,-0.0026 -0.05788,-0.05736 -0.03876,-0.02842 -0.152445,-0.110587 -0.13591,-0.06925 -0.07441,-0.03824 -0.135391,-0.04393 -0.08888,-0.02894 -0.169499,-0.02687 -0.06408,-0.0098 h -0.23616 l -0.233062,0.03669 -0.217558,0.0708 -0.0057,0.0016 -0.0015,5.16e-4 -0.210324,0.107487 -0.191203,0.139009 -0.166915,0.166916 -0.01912,0.02584 -0.04186,0.05736 -0.03876,0.04031 -0.0062,0.0031 -0.03256,0.06408 -5.17e-4,5.17e-4 -0.04857,0.09508 -0.05839,0.115238 -0.05581,0.17105 -0.0072,0.0186 -0.0057,0.0083 -0.0021,0.01085 -0.0026,0.0155 -0.03669,0.233577 v 0.236162 l 0.03669,0.23306 0.03927,0.120406 0.03411,0.104387 0.10697,0.210324 0.01137,0.0155 0.05013,0.06873 0.03359,0.07648 0.0021,0.0083 -0.0021,0.08888 -0.03979,0.07906 -0.0124,0.01499 -0.03204,0.03049 -0.0072,0.0057 -0.04857,0.03721 -0.06201,0.08113 -0.01395,0.01809 -0.01654,0.0155 -0.0016,0.0046 -0.0047,0.0124 -0.05788,0.139526 -0.0155,0.117822 v 1.878439 l 0.0155,0.117822 0.06046,0.145728 0.05426,0.0708 0.02067,0.02687 0.02119,0.0279 0.04857,0.03721 h 5.16e-4 l 0.0041,0.0036 0.07235,0.05529 0.02532,0.01033 0.120923,0.05013 0.07338,0.0098 0.04393,0.0057 h 1.87844 l 0.03824,-0.0052 0.07958,-0.01033 0.0067,-0.0026 0.132808,-0.05529 0.0047,-0.0016 0.0016,-0.001 0.125573,-0.09612 0.0041,-0.0052 0.02377,-0.02584 0.0088,-0.0083 0.06821,-0.04082 0.0016,-5.16e-4 0.08785,-0.0098 0.08371,0.02945 0.01654,0.01033 0.03462,0.02739 3.779098,3.779613 0.04082,0.0584 0.499194,1.105874 0.0057,0.01499 0.0016,0.0031 0.001,0.001 0.0021,0.0046 0.03049,0.06718 0.02274,0.03617 0.0036,0.0078 0.03824,0.07493 0.129708,0.1788 0.156063,0.155546 0.178284,0.129709 0.196371,0.100251 0.0021,5.18e-4 0.1788,0.05788 0.02481,0.01034 0.0031,0.0015 0.05788,0.04186 0.001,10e-4 0.04548,0.07596 0.0078,0.08837 -0.03101,0.0832 -0.03824,0.03617 -0.0036,0.0057 -0.0057,0.0036 -0.01654,0.0155 -0.01344,0.0083 -0.04031,0.01809 -0.0015,5.17e-4 -0.0036,10e-4 -0.01188,0.0036 -0.05736,0.01447 -5.17e-4,5.17e-4 -0.01757,0.0062 -0.0708,0.02687 -0.0088,0.0026 -0.0036,0.0021 -0.985986,0.372589 -0.158647,0.05994 -0.07028,0.01292 h -1.97249 l -0.0708,0.01395 -0.09354,0.0186 -0.155029,0.06408 -0.139526,0.09353 -2.306319,2.306319 -0.06201,0.04186 -1.249019,0.53795 -0.01447,0.0062 -0.01757,0.0062 -0.01189,0.0036 -0.0062,0.0021 -0.0036,0.0015 -0.0036,0.0021 -0.03101,0.01602 -0.03876,0.01654 -0.03566,0.02119 -0.0987,0.05064 -0.191203,0.138493 -0.166915,0.166915 -0.01912,0.02636 -0.04186,0.05736 -0.03876,0.03979 -0.0062,0.0031 -0.03256,0.0646 h -5.17e-4 l -0.04857,0.0956 -0.05839,0.114721 -0.05581,0.171566 -0.0072,0.0186 -0.0057,0.0083 -0.0021,0.01085 -0.0026,0.0155 -0.03669,0.233578 v 0.236161 l 0.03669,0.23306 0.03927,0.119891 0.03411,0.104902 0.10697,0.210324 0.01137,0.01498 0.05013,0.06925 0.03359,0.07648 0.0021,0.0083 -0.0021,0.08837 -0.03979,0.07906 -0.0124,0.01499 -0.03204,0.03101 -0.0072,0.0052 -0.04857,0.03772 -0.06201,0.08113 -0.01395,0.01809 -0.01654,0.0155 -0.0016,0.0046 -0.0047,0.01189 -0.05788,0.140042 -0.0155,0.117306 v 1.878955 l 0.0155,0.117306 0.05374,0.130741 0.0155,0.07596 v 0.0083 l -0.01964,0.0863 -0.05529,0.06925 -0.0801,0.03824 -0.01705,0.0041 -0.04444,0.0052 h -1.316198 l -0.03359,-0.0031 -0.0098,-0.0016 -0.07286,-0.02791 -0.02222,-0.01395 -0.03514,-0.0279 -2.052072,-2.052072 -0.132809,-0.132809 -1.213879,-1.213878 -1.118795,-1.118796 -0.118339,-0.118338 -0.0925,-0.06201 -0.04651,-0.03101 -0.06666,-0.0279 -0.08837,-0.03618 -0.01395,-0.0031 -0.03462,-0.0067 -0.115755,-0.02274 H 13.221625 9.858523 l -0.0739,-0.01447 -0.08423,-0.03359 -1.030428,-0.410312 -0.163298,-0.06511 -0.01705,-0.0078 -0.01809,-0.0093 -0.03359,-0.01085 -0.01189,-0.0041 -0.03307,-0.01344 -0.04031,-0.0098 -0.03669,-0.01188 -0.06873,-0.02274 -0.149345,-0.02377 -0.08423,-0.01292 H 7.777511 l -0.233061,0.03669 -0.217558,0.0708 -0.0057,0.0016 -0.0015,5.16e-4 -0.210323,0.107487 -0.191203,0.139009 -0.166915,0.166916 -0.13901,0.191203 -0.10697,0.210322 -0.05581,0.17105 -0.0072,0.0186 -0.0057,0.0083 -0.0021,0.01137 -0.0021,0.01498 -0.03721,0.233577 v 0.236163 l 0.03721,0.233059 0.03876,0.120406 0.03411,0.104388 0.10697,0.210323 0.02015,0.02739 0.03876,0.05374 0.0026,0.0031 0.03359,0.07648 0.0021,0.0083 -0.0021,0.08888 -0.03979,0.07906 -0.0124,0.01499 -0.03204,0.03049 -0.05581,0.04289 -0.06201,0.08113 -0.01395,0.01809 -0.01654,0.0155 -0.0015,0.0047 -0.0047,0.0124 -0.05788,0.140043 -0.0155,0.117306 v 1.878439 l 0.0155,0.117822 0.06046,0.145727 0.05426,0.0708 0.04186,0.05478 0.02791,0.02119 0.01292,0.0098 0.0041,0.0036 0.08062,0.0615 0.02584,0.01085 0.120406,0.04961 0.07028,0.0093 0.04702,0.0062 h 1.878955 l 0.02274,-0.0031 0.09457,-0.0124 0.145728,-0.06046 10e-4,-5.18e-4 0.12454,-0.0956 0.09612,-0.125573 10e-4,-0.0016 0.0021,-0.0047 0.03979,-0.09715 10e-4,-0.0016 0.01395,-0.01964 0.0098,-0.07442 0.0083,-0.06459 v -1.878439 l -0.0155,-0.117306 -5.17e-4,-0.0021 -0.0021,-0.0047 -0.05788,-0.139525 -0.01602,-0.02067 -0.0057,-0.01033 -0.02584,-0.07131 5.17e-4,-0.0072 -0.0021,-0.0057 0.0052,-0.03772 0.0026,-0.03721 0.0036,-0.0062 0.001,-0.0067 0.02067,-0.03152 0.0186,-0.03256 0.0057,-0.0041 0.0036,-0.0057 0.03256,-0.01912 0.03101,-0.0217 0.389124,-0.15503 0.0739,-0.01395 H 14.1439 l 0.03359,0.0031 0.01033,0.0016 0.07235,0.02739 0.02222,0.01447 0.03514,0.02791 4.635893,4.635893 0.112655,0.07493 0.01292,0.0088 0.01344,0.0093 0.109553,0.04547 0.0072,0.0026 0.03824,0.01602 0.16433,0.03256 h 5.430159 0.01757 l 0.16433,-0.03256 0.115239,-0.04806 0.01137,-0.0046 0.0072,-0.0026 0.02067,-0.0088 0.139526,-0.09302 4.217314,-4.217314 0.05891,-0.04082 1.106392,-0.499711 0.0093,-0.0036 0.0036,-0.0015 0.0036,-0.0021 0.0041,-0.0021 0.06925,-0.03101 0.03669,-0.02274 0.0072,-0.0036 0.07545,-0.03824 0.178283,-0.129707 0.155546,-0.156063 0.129708,-0.178284 0.03669,-0.07183 0.06356,-0.124542 0.06821,-0.209806 0.03411,-0.217558 v -0.220141 l -0.03411,-0.218075 -0.06821,-0.209806 -0.100252,-0.19637 -0.129708,-0.178284 -0.155546,-0.155545 -0.178283,-0.129709 -0.189653,-0.09663 -0.0057,-0.0031 -0.0031,-10e-4 -0.0062,-0.0021 -0.0031,-0.001 -0.169498,-0.05478 -0.02119,-0.0088 h -0.001 l -5.17e-4,-5.16e-4 -0.0021,-10e-4 -0.0036,-0.0015 -0.05736,-0.04186 -0.0016,-10e-4 -0.0047,-0.0078 v -5.17e-4 l -0.001,-0.0021 -0.03979,-0.06615 -0.0078,-0.08785 0.03101,-0.0832 0.02842,-0.02687 0.01344,-0.01499 0.0062,-0.0036 0.01602,-0.0155 0.01344,-0.0083 0.01292,-0.0067 0.01499,-0.0036 0.0124,-0.0078 0.172599,-0.05581 0.196371,-0.100253 0.178283,-0.129708 0.155546,-0.155546 0.129708,-0.178799 0.03669,-0.07183 0.06356,-0.124539 0.06821,-0.209289 v -5.17e-4 l 0.03411,-0.217558 v -0.220142 l -0.03411,-0.218075 -0.06821,-0.20929 -0.100252,-0.19637 -0.129708,-0.178799 -0.155546,-0.155546 -0.178283,-0.129709 -0.189653,-0.09663 -0.0057,-0.0031 -0.0031,-0.001 -0.0062,-0.0021 -0.0031,-10e-4 -0.169498,-0.05478 -0.02119,-0.0088 h -0.001 l -5.17e-4,-5.18e-4 -0.0021,-10e-4 -0.0036,-0.0016 -0.05736,-0.04186 -0.0016,-10e-4 -0.0047,-0.0078 v -5.16e-4 l -0.001,-0.0021 -0.03979,-0.06563 -0.0078,-0.08837 0.03101,-0.08268 0.02842,-0.02739 0.01344,-0.01498 0.0062,-0.0036 0.01602,-0.0155 0.01344,-0.0083 0.01292,-0.0067 0.01499,-0.0036 0.0124,-0.0078 0.172599,-0.05581 0.196371,-0.100251 0.178283,-0.129709 0.155546,-0.155546 0.129708,-0.1788 0.03669,-0.07183 0.06356,-0.12454 0.06821,-0.209288 0.03411,-0.218075 V 61.76418 l -0.03411,-0.217557 v -5.17e-4 l -0.06821,-0.20929 -0.100252,-0.19637 -0.129708,-0.178801 -0.155546,-0.155546 -0.178283,-0.129706 -0.02429,-0.0124 -0.0155,-0.0078 -0.01137,-0.0062 -0.0155,-0.0093 -0.03462,-0.02067 h -5.17e-4 l -0.01757,-0.0083 -0.06305,-0.02842 -0.0124,-0.0067 -0.0155,-0.0062 -0.160713,-0.07235 -0.0067,-0.0031 -0.02791,-0.01499 -0.01964,-0.02119 -0.02325,-0.01705 -0.0072,-0.01447 -0.01085,-0.01137 -0.0088,-0.02739 -0.01344,-0.02584 -5.16e-4,-0.01602 -0.0047,-0.01499 0.0036,-0.02894 -5.17e-4,-0.02842 0.0067,-0.01447 0.0021,-0.01602 0.0155,-0.02429 0.01189,-0.02635 0.0124,-0.0098 0.0088,-0.01344 0.0248,-0.01499 0.02222,-0.0186 0.0155,-0.0036 0.01344,-0.0083 0.16123,-0.05219 0.196371,-0.100252 0.178283,-0.129708 0.155546,-0.155545 0.129708,-0.178285 0.03669,-0.07183 0.06356,-0.125057 0.06821,-0.20929 0.03411,-0.218074 z M 31.485931,9.5647914 31.451311,9.3467168 31.383611,9.137427 31.283359,8.941057 31.153651,8.762256 30.998105,8.60671 l -0.1788,-0.129708 -0.01137,-0.0062 -0.0279,-0.01395 -0.01137,-0.0062 -0.02274,-0.01343 -0.02739,-0.01654 -10e-4,-5.17e-4 -0.01705,-0.0078 -0.06305,-0.02842 -0.0062,-0.0031 -0.0083,-0.0041 -0.0036,-10e-4 -0.0093,-0.0041 -1.07487,-0.485241 -0.03152,-0.01447 -0.05839,-0.04031 L 27.385432,5.772318 25.04604,3.432409 24.927702,3.31407 24.841922,3.25723 24.832622,3.25053 24.788692,3.22107 24.757172,3.20815 24.633665,3.15699 24.586125,3.14769 24.469336,3.12444 h -4.557344 l -0.0646,0.01292 -0.09974,0.01964 -0.05994,0.0248 -0.09508,0.03927 -0.139526,0.09302 -2.339392,2.339909 -0.02584,0.0217 -0.0083,0.0062 -0.0708,0.03152 -0.02635,0.0062 -0.04393,0.0047 H 9.858305 L 9.784405,5.710369 9.700175,5.676779 8.669747,5.266468 8.506449,5.201358 8.489399,5.193558 8.471309,5.184258 8.437719,5.173408 8.425829,5.168708 8.392759,5.155788 8.352449,5.145448 8.315759,5.133558 8.247029,5.111338 8.097684,5.087568 8.013454,5.074128 H 7.777293 l -0.233061,0.03721 -0.217558,0.07028 -0.0057,0.0021 -0.0015,5.17e-4 L 7.109151,5.291722 6.917948,5.430215 6.751033,5.59713 6.612023,5.788333 v 5.16e-4 l -0.10697,0.209807 -0.05581,0.171565 -0.0072,0.0186 -0.0057,0.0083 -0.0021,0.01085 -0.0021,0.0155 -0.03721,0.233061 V 6.69321 l 0.03721,0.233061 0.03876,0.119889 0.03411,0.104903 0.10697,0.210323 0.02015,0.02739 0.03876,0.05374 0.0026,0.0031 0.03359,0.07648 0.0021,0.0083 -0.0021,0.08837 -0.03979,0.07906 -0.0124,0.01499 -0.03204,0.03101 -0.05581,0.04289 -0.06201,0.08113 -0.01395,0.01809 -0.01654,0.0155 -0.0015,0.0047 -0.0047,0.01189 -0.05788,0.140044 -0.0155,0.117305 v 1.878955 l 0.0155,0.117305 0.06046,0.146244 0.05426,0.0708 0.04186,0.05478 0.02791,0.02119 0.01292,0.0098 0.0041,0.0031 0.08062,0.06201 0.02584,0.01034 0.120406,0.05013 0.07028,0.0093 0.04702,0.0062 h 1.878955 l 0.02274,-0.0031 0.09457,-0.0124 0.145728,-0.06046 0.001,-5.16e-4 0.12454,-0.0956 0.09612,-0.125574 0.001,-0.0021 0.0021,-0.0046 0.03979,-0.09664 0.001,-0.0015 0.01395,-0.01964 0.0098,-0.07493 0.0083,-0.06408 V 8.175372 l -0.0155,-0.117305 -5.17e-4,-0.0016 -0.0021,-0.0047 -0.05788,-0.139526 -0.01602,-0.02119 -0.0057,-0.0098 -0.02584,-0.07131 5.17e-4,-0.0078 -0.0021,-0.0052 0.0052,-0.03772 0.0026,-0.03772 0.0036,-0.0057 10e-4,-0.0067 0.02067,-0.03152 0.0186,-0.03307 0.0057,-0.0036 0.0036,-0.0057 0.03256,-0.01912 0.03101,-0.0217 0.389124,-0.155029 0.0739,-0.01395 h 7.62124 l 0.164331,-0.03256 0.07751,-0.03256 0.04341,-0.01809 0.03359,-0.01344 0.139009,-0.09353 h 5.17e-4 l 2.33991,-2.339909 0.02532,-0.02119 0.0083,-0.0062 0.07131,-0.03152 0.02584,-0.0062 0.04392,-0.0047 h 1.531173 l 0.03462,0.0026 0.0083,0.0015 0.0016,10e-4 h 5.16e-4 l 0.001,5.17e-4 0.07028,0.02739 0.06201,0.06305 0.02842,0.08423 -0.01085,0.08785 -0.04806,0.07441 -0.01757,0.01705 -5.17e-4,5.16e-4 -0.0155,0.01344 -0.0036,0.0021 -0.0031,0.0031 -0.173116,0.12609 -0.166915,0.166915 -0.01912,0.02636 -0.04186,0.05736 -0.03876,0.03979 -0.0062,0.0031 -0.03256,0.06408 -5.17e-4,5.17e-4 -0.04857,0.0956 -0.05839,0.114721 -0.05581,0.171049 -0.0072,0.01912 -0.0057,0.0078 -0.0021,0.01137 -0.0026,0.0155 -0.03669,0.23306 V 6.59286 l 0.03669,0.233577 0.03927,0.119889 0.03411,0.104387 0.10697,0.210323 0.01137,0.0155 0.05013,0.06873 0.03359,0.07648 0.0021,0.0088 -0.0021,0.08837 -0.03979,0.07906 -0.0124,0.01499 -0.03204,0.03101 -0.0072,0.0052 -0.04857,0.03721 -0.06201,0.08113 -0.01395,0.0186 -0.01654,0.01499 -0.0016,0.0047 -0.0047,0.0124 -0.05788,0.140043 -0.0155,0.117306 v 1.8789547 l 0.0155,0.1173053 0.06046,0.145727 0.05426,0.07131 0.02067,0.02636 0.02119,0.02791 0.04857,0.03721 h 5.16e-4 l 0.0041,0.0036 0.07235,0.05529 0.02532,0.01085 0.120923,0.04961 0.07338,0.0098 0.04393,0.0057 h 1.87844 l 0.02222,-0.0026 0.01602,-0.0021 0.07958,-0.01085 0.0067,-0.0026 0.13901,-0.05788 0.125573,-0.09612 0.01499,-0.01912 0.08113,-0.106454 10e-4,-0.0015 0.0016,-0.0046 0.04031,-0.09663 5.17e-4,-0.0021 0.01447,-0.01964 0.01137,-0.08837 0.0067,-0.050126 V 8.883777 l 0.01137,-0.06563 0.0026,-0.0078 0.04703,-0.07493 0.07493,-0.04703 0.08785,-0.0098 0.08372,0.02894 0.0124,0.0078 0.001,5.17e-4 0.03462,0.02791 3.490743,3.490742 0.04082,0.05891 0.498678,1.105359 0.0062,0.0155 0.0016,0.0026 10e-4,0.0016 0.0021,0.0041 0.03049,0.06718 0.02274,0.03669 0.0036,0.0072 0.03824,0.07545 0.129708,0.178284 0.155546,0.155546 0.178801,0.129708 0.196371,0.100252 0.01292,0.0041 0.19637,0.06408 h 5.17e-4 l 0.185001,0.02894 0.01344,0.0026 0.01912,0.0026 h 0.220141 0.001 0.001 l 0.216008,-0.03411 0.209289,-0.06821 0.196371,-0.100252 0.1788,-0.129708 0.155546,-0.155546 0.129708,-0.178284 0.100252,-0.19637 0.0677,-0.209806 0.03462,-0.217558 v -0.220658 l -0.03462,-0.217558 -0.0677,-0.209807 -0.100252,-0.19637 -0.129708,-0.178284 -0.155546,-0.156063 -0.1788,-0.129707 -0.01137,-0.0057 -0.0279,-0.01447 -0.01137,-0.0062 -0.02274,-0.01344 -0.02739,-0.01654 h -0.001 l -0.01705,-0.0083 -0.06305,-0.02842 -0.01292,-0.0067 -0.01499,-0.0057 -0.260966,-0.118339 -0.05323,-0.02377 -0.05219,-0.03462 -0.0078,-0.01085 -0.01085,-0.0077 -0.01395,-0.02791 -0.01809,-0.02584 -0.0021,-0.01344 -0.0062,-0.01188 -5.16e-4,-0.03152 -0.0052,-0.03101 0.0041,-0.0124 -5.17e-4,-0.01344 0.01292,-0.02894 0.0093,-0.02997 0.0088,-0.0098 0.0057,-0.01189 0.02377,-0.02015 0.02119,-0.02325 0.0124,-0.0052 0.01034,-0.0088 0.03049,-0.0072 0.02894,-0.01188 0.0646,-0.01033 0.0031,-5.17e-4 0.209289,-0.06821 0.196371,-0.09974 0.1788,-0.129707 0.155546,-0.156063 0.129708,-0.178284 0.100252,-0.19637 0.0677,-0.20929 v -5.17e-4 l 0.03462,-0.2175572 z m 0,6.3996086 -0.03462,-0.217558 -0.0677,-0.209806 -0.100252,-0.19637 -0.129708,-0.178284 -0.155546,-0.155546 -0.1788,-0.129708 -0.173633,-0.08888 -0.0155,-0.0077 -0.0057,-0.0031 -0.0031,-0.001 -0.0062,-0.0021 -0.0031,-0.001 -0.14056,-0.04547 -0.05788,-0.01912 -0.218075,-0.03411 h -0.220141 l -0.218075,0.03411 -0.209289,0.06821 -0.04496,0.02274 -0.0155,0.0072 -0.04496,0.01809 -0.880567,0.410311 -0.04548,0.01499 -0.03411,0.0067 -0.155029,0.06408 -0.13901,0.09302 -0.01809,0.01809 -0.01447,0.01343 -0.03204,0.02584 -0.160714,0.160714 -0.01498,0.02015 -0.01757,0.01964 -3.948595,3.948596 -0.06201,0.04237 -1.242818,0.534335 -0.02119,0.0093 -0.01705,0.0062 -0.01188,0.0041 -0.0062,0.0016 -0.0036,0.0015 -0.0036,0.0026 -0.03152,0.01602 -0.03824,0.01654 -0.03566,0.02067 -0.09922,0.05064 -0.190685,0.139009 -0.167433,0.166915 -0.03256,0.04444 -0.105937,0.146761 -0.107487,0.210323 -0.05529,0.171049 -0.0072,0.01912 -0.0062,0.0077 -0.0016,0.01137 -0.0026,0.0155 -0.03721,0.23306 v 0.236162 l 0.03721,0.233577 0.03928,0.11989 0.03359,0.104386 0.107487,0.210323 0.02377,0.03359 0.03721,0.05064 0.0341,0.07648 0.0016,0.0088 -0.0016,0.08837 -0.03979,0.07906 -0.0124,0.01499 -0.03256,0.03101 -0.05529,0.04237 -0.05426,0.07028 -0.02222,0.02946 -0.01654,0.01499 -0.001,0.0047 -0.0046,0.0124 -0.0584,0.140043 -0.0155,0.117306 v 1.878955 l 0.0155,0.117305 0.04341,0.104387 0.01447,0.03514 0.0021,0.0046 10e-4,0.0016 0.05271,0.06925 0.01499,0.01912 0.02842,0.03721 0.04599,0.03566 0.0047,0.0031 0.07493,0.05736 0.02532,0.01085 0.120406,0.04961 0.117306,0.0155 h 1.665531 l 0.06615,0.01137 0.0072,0.0026 0.07493,0.04703 0.04703,0.07493 0.01034,0.08837 -0.02945,0.0832 -0.0083,0.01344 -0.02791,0.03462 -0.248047,0.248563 -0.02584,0.02171 -0.0093,0.0067 -0.01602,0.0067 -0.06356,0.02584 v 5.16e-4 h -10e-4 l -0.001,5.17e-4 -0.0036,5.17e-4 -0.01033,0.0026 -0.04444,0.0052 h -3.091285 l -0.03359,-0.0031 -0.0098,-0.0015 -0.07286,-0.02791 -0.02222,-0.01395 -0.03514,-0.02791 -2.652034,-2.652034 -2.683557,-2.684074 -0.138493,-0.0925 -10e-4,-5.17e-4 h -5.16e-4 l -0.102837,-0.04289 -0.05116,-0.02119 -0.0646,-0.01292 -0.01292,-0.0026 -0.08682,-0.01705 h -1.358057 -3.163114 l -0.0739,-0.01395 -1.275374,-0.50798 -0.0026,-0.0016 -0.01705,-0.0072 -0.01809,-0.0093 -0.03979,-0.01292 -0.03876,-0.0155 -0.04031,-0.01034 -0.10542,-0.03411 -0.233577,-0.03721 H 7.977475 l -0.233061,0.03721 -0.224792,0.07286 -0.199988,0.101802 -0.01034,0.0052 -0.191202,0.13901 -0.166915,0.166914 -0.05064,0.06976 -0.04547,0.06253 -0.04289,0.05891 -0.09353,0.183968 -0.01344,0.02635 -0.05581,0.171566 -0.0072,0.0186 -0.0057,0.0083 -0.0021,0.01085 -0.0021,0.0155 -0.03721,0.23306 v 0.236162 l 0.03721,0.233577 0.03876,0.11989 0.03411,0.104386 0.0708,0.139526 0.03617,0.07131 0.02687,0.03617 0.03462,0.04806 0.03359,0.07597 0.0021,0.0088 -0.0021,0.08837 -0.03979,0.07906 -0.0124,0.01499 -0.03204,0.03101 -0.05581,0.04289 -0.04858,0.06304 -0.02739,0.03617 -0.01654,0.0155 -0.0016,0.0041 -0.0047,0.0124 -0.05788,0.140043 -0.0155,0.117306 v 1.878955 l 0.0155,0.117305 0.06046,0.146244 0.05426,0.0708 0.04186,0.05426 0.07183,0.05529 0.05374,0.04134 0.02429,0.0098 0.121956,0.05064 0.07028,0.0093 0.04702,0.0062 h 1.878955 l 0.01654,-0.0026 0.01602,-0.0021 0.08475,-0.01085 0.145727,-0.06046 0.125574,-0.09663 0.01809,-0.02325 0.07803,-0.101803 10e-4,-0.0021 0.0021,-0.0047 0.03979,-0.09663 10e-4,-0.0016 0.01395,-0.01964 0.01033,-0.07648 0.0078,-0.06253 v -1.878955 l -0.0155,-0.117306 -5.17e-4,-0.0021 -0.0021,-0.0047 -0.05788,-0.139526 -0.01602,-0.02067 -0.0057,-0.01033 -0.02584,-0.0708 5.17e-4,-0.0077 -0.0021,-0.0052 0.0052,-0.03772 0.0026,-0.03772 0.0036,-0.0057 10e-4,-0.0067 0.02067,-0.03152 0.0186,-0.03307 0.0057,-0.0036 0.0036,-0.0057 0.03256,-0.01964 0.03101,-0.02119 0.389123,-0.155029 0.0739,-0.01395 h 3.985803 l 0.03307,0.0026 0.01034,0.0016 0.07235,0.02791 0.01757,0.01085 0.0052,0.0031 0.03462,0.02791 5.336108,5.336108 0.139527,0.09302 0.154512,0.06408 0.05116,0.01033 0.0052,0.001 0.108003,0.02119 h 4.151168 0.01654 l 0.164331,-0.03256 0.09095,-0.03772 0.0124,-0.0052 0.01499,-0.0062 0.03617,-0.01499 0.139526,-0.09302 6.108155,-6.108671 0.09457,-0.141076 0.0026,-0.0072 0.0155,-0.03824 0.0052,-0.01137 0.0078,-0.0186 0.01395,-0.03359 0.01809,-0.04393 0.0057,-0.03049 0.02687,-0.133842 v -0.237195 l 0.01292,-0.07028 0.429431,-1.136364 0.0047,-0.01085 5.16e-4,-0.0016 0.001,-0.0041 0.0016,-0.0047 0.02687,-0.0708 0.0098,-0.04186 0.0026,-0.0078 0.02222,-0.06925 0.0036,-0.01085 0.03462,-0.218075 v -0.220141 l -0.03462,-0.218075 -0.0677,-0.209289 -0.100252,-0.196371 -0.129708,-0.1788 -0.155546,-0.155546 -0.1788,-0.129708 -0.173633,-0.08837 -0.0155,-0.0083 -0.0057,-0.0031 -0.0031,-0.001 -0.0062,-0.0021 -0.0031,-0.001 -0.14056,-0.04547 -0.05788,-0.0186 -0.218075,-0.03462 h -0.220141 l -0.218075,0.03462 -0.209289,0.0677 -0.196371,0.100252 -0.178801,0.129708 -0.155546,0.155546 -0.129708,0.1788 -0.100251,0.196371 -0.0677,0.209289 -0.03462,0.218075 v 0.220141 l 0.03462,0.218075 v 5.17e-4 l 0.01344,0.04186 0.0036,0.01189 0.01447,0.05736 5.17e-4,5.17e-4 0.0062,0.01757 0.02325,0.06201 0.0021,0.0052 0.0026,0.0072 5.16e-4,0.0016 10e-4,0.0036 0.001,0.0021 0.0062,0.0155 0.001,0.0021 0.117821,0.311609 0.231511,0.6134 0.01188,0.04806 -0.01033,0.08785 -0.04702,0.07493 -4.052983,4.0535 -0.05426,0.03824 -0.0072,0.0036 -0.08578,0.01964 h -5.17e-4 l -0.08682,-0.01964 -0.06925,-0.05529 -0.03824,-0.07958 -0.0026,-0.01188 -0.001,-0.0031 -0.0046,-0.04444 v -1.658296 l -0.0155,-0.117306 -5.17e-4,-0.0021 -0.0021,-0.0047 -0.04444,-0.10697 -0.01085,-0.02584 -0.0021,-0.0052 -5.17e-4,-0.0015 -0.03411,-0.04444 -0.06201,-0.08113 -0.06408,-0.04858 -0.05426,-0.06356 -0.0041,-0.0077 -0.02325,-0.08527 0.0155,-0.08733 0.0078,-0.01809 0.02222,-0.03876 0.05478,-0.07596 0.02636,-0.05116 0.0057,-0.01034 0.02946,-0.05064 5.17e-4,-5.17e-4 0.0098,-0.0217 0.01395,-0.03256 0.0026,-0.0062 0.01912,-0.03721 0.0093,-0.02791 0.0036,-0.0083 0.543636,-1.264005 0.04186,-0.06201 3.641638,-3.641638 0.05219,-0.03772 0.0863,-0.02067 0.0863,0.0186 0.04858,0.02274 0.343132,0.15968 0.0026,0.001 0.0098,0.0031 0.03049,0.0124 0.06253,0.03152 0.209289,0.06821 h 5.17e-4 l 0.198437,0.03152 0.01912,0.0031 h 0.220141 l 0.0021,-5.17e-4 0.216008,-0.03411 0.209289,-0.06821 0.196371,-0.09974 0.1788,-0.129707 0.155546,-0.156063 0.129708,-0.178284 0.100252,-0.19637 0.0677,-0.209807 0.03462,-0.217557 z m -0.150379,11.800314 a 0.80000001,0.80000001 0 0 1 -0.799951,0.799951 0.80000001,0.80000001 0 0 1 -0.799951,-0.799951 0.80000001,0.80000001 0 0 1 0.799951,-0.799952 0.80000001,0.80000001 0 0 1 0.799951,0.799952 z m 0,2.539896 a 0.80000001,0.80000001 0 0 1 -0.799951,0.799951 0.80000001,0.80000001 0 0 1 -0.331763,-0.07183 l -1.242301,-0.469739 -4.633308,4.632793 a 0.25,0.25 0 0 1 -0.0031,0.0036 l -0.0021,0.0015 a 0.25,0.25 0 0 1 -0.01602,0.01447 0.25,0.25 0 0 1 -0.0067,0.0062 0.25,0.25 0 0 1 -0.02119,0.01447 0.25,0.25 0 0 1 -0.0067,0.0047 0.25,0.25 0 0 1 -10e-4,5.17e-4 0.25,0.25 0 0 1 -0.02842,0.01447 0.25,0.25 0 0 1 -0.001,5.17e-4 0.25,0.25 0 0 1 -0.03049,0.01034 0.25,0.25 0 0 0 -5.16e-4,0 0.25,0.25 0 0 1 -0.03204,0.0067 0.25,0.25 0 0 1 -0.03359,0.0021 h -0.408762 l -0.0026,0.0026 -1.400948,0.557589 a 0.89999998,0.89999998 0 0 1 -0.11369,0.04547 l -0.0016,5.17e-4 a 0.89999998,0.89999998 0 0 1 -0.271301,0.04237 h -0.150379 a 0.89999998,0.89999998 0 0 1 -0.90072,-0.898653 0.89999998,0.89999998 0 0 1 0.90072,-0.900203 h 0.150379 a 0.89999998,0.89999998 0 0 1 0.269235,0.04289 h 0.0021 l 0.0057,0.0021 a 0.89999998,0.89999998 0 0 1 0.112138,0.04496 l 1.398365,0.557072 0.0036,0.0026 v 5.16e-4 h 0.302824 l 4.646745,-4.644677 a 0.25,0.25 0 0 1 0.0016,-0.0016 0.25,0.25 0 0 1 0.0036,-0.0031 0.25,0.25 0 0 1 0.0801,-0.05271 0.25,0.25 0 0 1 0.0021,-5.17e-4 0.25,0.25 0 0 1 0.09199,-0.01809 h 0.07803 l 0.0026,-0.0026 1.255738,-0.474906 a 0.80000001,0.80000001 0 0 1 0.332796,-0.07235 0.80000001,0.80000001 0 0 1 0.799951,0.799951 z m 0,1.739946 v 1.600419 h -1.599899 v -1.600419 z m -0.360181,26.730151 a 0.80000001,0.80000001 0 0 1 -0.799952,0.799951 0.80000001,0.80000001 0 0 1 -0.749308,-0.519348 l -0.552938,-1.225248 -5.17e-4,-0.0046 5.17e-4,-5.18e-4 -1.350822,-1.350822 a 0.25,0.25 0 0 1 -0.02429,-0.02687 0.25,0.25 0 0 1 -0.05168,-0.174667 v -2.092946 l -4.45502,-4.455026 H 12.100553 l -2.761588,2.761589 v 0.0031 L 8.749337,53.85821 a 0.89999998,0.89999998 0 0 1 -0.05529,0.129192 0.89999998,0.89999998 0 0 1 0,5.16e-4 v 5.17e-4 l -10e-4,5.17e-4 A 0.89999998,0.89999998 0 0 1 7.89568,54.47471 0.89999998,0.89999998 0 0 1 6.995476,53.575023 0.89999998,0.89999998 0 0 1 7.607325,52.722363 l 1.374077,-0.591178 0.0047,-5.18e-4 2.814815,-2.813265 a 0.25,0.25 0 0 1 0.194303,-0.09302 h 11.099494 a 0.25,0.25 0 0 1 0.09664,0.02015 0.25,0.25 0 0 0 5.16e-4,0 0.25,0.25 0 0 1 0.02894,0.01447 0.25,0.25 0 0 1 0.001,5.17e-4 0.25,0.25 0 0 1 0.02584,0.01757 0.25,0.25 0 0 1 0.0016,0.001 0.25,0.25 0 0 1 0.0155,0.01395 0.25,0.25 0 0 1 0.0078,0.0067 l 4.581116,4.581115 a 0.25,0.25 0 0 1 0.0925,0.194304 v 2.116666 l 1.281058,1.281576 h 0.0036 l 1.223698,0.552421 a 0.80000001,0.80000001 0 0 1 0.520899,0.749825 z m 0,3.100069 a 0.80000001,0.80000001 0 0 1 -0.799952,0.799951 0.80000001,0.80000001 0 0 1 -0.749308,-0.519348 l -0.552938,-1.225247 -5.17e-4,-0.0047 5.17e-4,-5.17e-4 -3.935677,-3.935677 a 0.25,0.25 0 0 1 -0.0925,-0.194302 v -1.716692 l -1.050065,-1.050064 -0.09043,-0.01137 -0.0016,-5.17e-4 -0.0031,-0.0026 a 0.89999998,0.89999998 0 0 1 -0.804085,0.496094 0.89999998,0.89999998 0 0 1 -0.900204,-0.900203 0.89999998,0.89999998 0 0 1 0.900204,-0.899687 0.89999998,0.89999998 0 0 1 0.862996,0.651123 0.25,0.25 0 0 1 0.167432,0.09147 l 1.342555,1.342554 a 0.25,0.25 0 0 1 0.0036,0.0036 0.25,0.25 0 0 1 0.03772,0.04858 0.25,0.25 0 0 0 5.17e-4,5.17e-4 0.25,0.25 0 0 1 0.03411,0.149345 v 1.692403 l 3.883483,3.882967 h 0.0026 l 1.223698,0.552421 a 0.80000001,0.80000001 0 0 1 0.520899,0.749825 z m 0,3.10007 a 0.80000001,0.80000001 0 0 1 -0.799952,0.799952 0.80000001,0.80000001 0 0 1 -0.331246,-0.07183 l -1.257288,-0.475424 -0.0041,-0.0026 v -5.16e-4 h -1.947169 l -2.296499,2.296501 v 0.0031 l -0.589629,1.368907 a 0.89999998,0.89999998 0 0 1 -0.05529,0.129192 l -5.17e-4,0.001 a 0.89999998,0.89999998 0 0 1 -0.797884,0.486791 0.89999998,0.89999998 0 0 1 -0.900204,-0.900203 0.89999998,0.89999998 0 0 1 0.486793,-0.798401 l 5.17e-4,-5.17e-4 0.0021,-0.001 a 0.89999998,0.89999998 0 0 1 0.09819,-0.04186 l 1.398364,-0.601513 0.0041,-0.001 5.17e-4,5.17e-4 2.355411,-2.354377 a 0.25,0.25 0 0 1 0.188619,-0.08682 h 2.054139 l 0.0026,-0.0026 1.257288,-0.475425 a 0.80000001,0.80000001 0 0 1 0.331246,-0.07183 0.80000001,0.80000001 0 0 1 0.799952,0.799952 z m 0,3.10007 a 0.80000001,0.80000001 0 0 1 -0.519349,0.749308 l -1.225248,0.55242 -0.0041,0.001 h -5.17e-4 l -4.274158,4.274674 a 0.25,0.25 0 0 1 -0.02119,0.0186 0.25,0.25 0 0 1 -0.02739,0.01912 0.25,0.25 0 0 1 -0.0279,0.01447 0.25,0.25 0 0 1 -0.0016,5.17e-4 0.25,0.25 0 0 1 -0.120405,0.01964 h -5.235857 a 0.25,0.25 0 0 1 -0.149345,-0.03411 0.25,0.25 0 0 0 -5.17e-4,-5.15e-4 0.25,0.25 0 0 1 -0.04858,-0.03772 0.25,0.25 0 0 1 -0.0036,-0.0036 L 14.491102,68.824208 H 9.687778 l -0.0041,0.0036 -1.385961,0.551905 a 0.89999998,0.89999998 0 0 1 -0.125057,0.05013 l -0.0041,0.0015 -10e-4,5.18e-4 h -0.0015 a 0.89999998,0.89999998 0 0 1 -0.270268,0.04289 0.89999998,0.89999998 0 0 1 -0.900204,-0.900203 0.89999998,0.89999998 0 0 1 0.900204,-0.899687 0.89999998,0.89999998 0 0 1 0.271818,0.04341 h 10e-4 l 0.0026,0.001 a 0.89999998,0.89999998 0 0 1 0.128158,0.05116 l 1.384411,0.551388 0.0031,0.0021 h 4.908228 a 0.25,0.25 0 0 1 0.09663,0.02016 0.25,0.25 0 0 0 5.17e-4,0 0.25,0.25 0 0 1 0.05581,0.03256 0.25,0.25 0 0 1 0.0016,0.001 0.25,0.25 0 0 1 0.02274,0.02067 l 0.0021,0.0015 a 0.25,0.25 0 0 1 0.0031,0.0036 l 4.820895,4.820894 h 5.074625 l 4.200261,-4.20026 v -0.0052 l 0.552421,-1.223181 a 0.80000001,0.80000001 0 0 1 0.749825,-0.520899 0.80000001,0.80000001 0 0 1 0.799952,0.799953 z M 30.885454,9.6748622 A 0.80000001,0.80000001 0 0 1 30.085502,10.474813 0.80000001,0.80000001 0 0 1 29.336194,9.9549484 l -0.552938,-1.2247314 -0.001,-0.0047 -4.50205,-4.501017 h -4.179589 l -2.527496,2.527494 a 0.25,0.25 0 0 1 -0.208256,0.07235 H 9.686781 l -0.0031,0.0031 -1.385961,0.552421 a 0.89999998,0.89999998 0 0 1 -0.125057,0.05013 l -0.0041,0.0015 h -0.001 A 0.89999998,0.89999998 0 0 1 7.895745,7.474905 0.89999998,0.89999998 0 0 1 6.995541,6.574702 0.89999998,0.89999998 0 0 1 7.895745,5.674498 0.89999998,0.89999998 0 0 1 8.166529,5.717908 h 0.0021 l 0.0078,0.0031 a 0.89999998,0.89999998 0 0 1 0.115755,0.04599 l 1.391646,0.555005 0.0031,0.0021 h 7.605221 l 2.50889,-2.506823 a 0.25,0.25 0 0 1 0.194304,-0.0925 h 4.390429 a 0.25,0.25 0 0 1 0.195855,0.09405 l 4.555793,4.553727 h 0.0036 l 1.223698,0.552421 a 0.80000001,0.80000001 0 0 1 0.07545,0.03411 l 0.01137,0.0052 h 5.16e-4 l 5.17e-4,5.17e-4 a 0.80000001,0.80000001 0 0 1 0.433049,0.7100342 z m 0,3.1998038 a 0.80000001,0.80000001 0 0 1 -0.799952,0.799952 0.80000001,0.80000001 0 0 1 -0.749308,-0.519349 l -0.552938,-1.224731 -0.001,-0.0052 5.17e-4,-0.001 -4.972306,-4.970239 -0.13746,-0.01447 -0.0026,-5.17e-4 -0.0026,-0.0026 a 0.89999998,0.89999998 0 0 1 -0.772046,0.438216 0.89999998,0.89999998 0 0 1 -0.900204,-0.899687 0.89999998,0.89999998 0 0 1 0.900204,-0.900203 0.89999998,0.89999998 0 0 1 0.867647,0.662492 0.25,0.25 0 0 1 0.09663,0.05943 0.25,0.25 0 0 1 0.0021,0.0021 l 5.275647,5.274097 h 0.0031 l 1.223181,0.551904 a 0.80000001,0.80000001 0 0 1 0.077,0.03462 l 0.01034,0.0046 a 0.80000001,0.80000001 0 0 1 0.434082,0.710551 z m 0,3.200322 a 0.80000001,0.80000001 0 0 1 -0.799952,0.799951 0.80000001,0.80000001 0 0 1 -0.385506,-0.09922 h -0.0016 l -0.897102,-0.418062 -4.162537,4.162536 v 0.0041 l -0.589112,1.369425 a 0.89999998,0.89999998 0 0 1 -0.05529,0.128674 l -5.17e-4,0.001 a 0.89999998,0.89999998 0 0 1 -0.798401,0.486275 0.89999998,0.89999998 0 0 1 -0.900203,-0.899687 0.89999998,0.89999998 0 0 1 0.617016,-0.854211 l 1.368909,-0.589628 0.0047,-5.17e-4 5.17e-4,5.17e-4 4.104659,-4.104659 5.17e-4,-0.001 0.160713,-0.160197 a 0.25,0.25 0 0 0 0,-5.16e-4 l 5.17e-4,-5.17e-4 a 0.25,0.25 0 0 0 5.18e-4,-5.17e-4 l 5.16e-4,-5.17e-4 a 0.25,0.25 0 0 1 0.0026,-0.0021 0.25,0.25 0 0 1 0.02119,-0.01912 0.25,0.25 0 0 1 0.153995,-0.05271 l 0.966867,-0.450618 h 0.0016 a 0.80000001,0.80000001 0 0 1 0.385506,-0.0987 0.80000001,0.80000001 0 0 1 0.799952,0.799951 z m 0,3.199804 a 0.80000001,0.80000001 0 0 1 -0.07183,0.331246 l -0.475423,1.257288 -0.0026,0.0041 h -5.16e-4 v 0.295589 a 0.25,0.25 0 0 1 -0.03411,0.149345 0.25,0.25 0 0 0 -5.17e-4,5.17e-4 0.25,0.25 0 0 1 -0.01912,0.02739 0.25,0.25 0 0 1 -0.02222,0.02481 l -5.986715,5.986715 a 0.25,0.25 0 0 1 -0.198437,0.07183 h -3.956865 a 0.25,0.25 0 0 1 -0.174665,-0.05168 0.25,0.25 0 0 1 -0.0021,-0.0016 0.25,0.25 0 0 1 -0.02119,-0.0186 0.25,0.25 0 0 1 -0.0036,-0.0036 l -5.524211,-5.52421 H 9.887734 l -0.0041,0.0036 -1.385962,0.552421 a 0.89999998,0.89999998 0 0 1 -0.126607,0.05013 l -0.0026,0.001 -5.16e-4,5.17e-4 h -0.0016 a 0.89999998,0.89999998 0 0 1 -0.270784,0.04289 0.89999998,0.89999998 0 0 1 -0.900204,-0.899687 0.89999998,0.89999998 0 0 1 0.900204,-0.900203 0.89999998,0.89999998 0 0 1 0.271818,0.04341 h 10e-4 l 0.0041,0.0016 a 0.89999998,0.89999998 0 0 1 0.118856,0.04754 l 1.392163,0.554488 0.0041,0.0026 h 4.607471 a 0.25,0.25 0 0 1 0.174666,0.07183 0.25,0.25 0 0 1 0.0031,0.0026 l 5.525762,5.525244 h 3.794083 l 5.842021,-5.841504 v -0.217041 l -0.0021,-0.0021 -0.475424,-1.257288 a 0.80000001,0.80000001 0 0 1 -0.07183,-0.331246 0.80000001,0.80000001 0 0 1 0.799951,-0.799951 0.80000001,0.80000001 0 0 1 0.799952,0.799951 z m -1.434538,55.974878 -0.0093,-0.07235 -0.01137,-0.08423 -0.06046,-0.146244 v -5.17e-4 l -0.0021,-0.0021 -0.09405,-0.122474 -0.08527,-0.06563 -0.03772,-0.02894 -0.0026,-0.0021 -0.01292,-0.0052 -0.132808,-0.0553 h -0.0016 l -0.0083,-0.0015 -5.15e-4,-5.17e-4 -0.05995,-0.02481 -0.02687,-0.01705 -0.03204,-0.02532 -0.01085,-0.01602 -0.0016,-0.0026 -0.02481,-0.03824 -0.0031,0.0016 -0.0057,-0.01085 -0.0072,-0.02067 -0.0031,-0.0052 -0.0036,-0.01137 -5.17e-4,-0.0021 -0.0031,-0.0093 h -5.17e-4 l -0.0016,-0.0062 -0.0021,-0.0062 -0.0041,-0.01033 -0.0026,-0.0067 -0.0098,-0.02532 -0.0021,-0.0031 -0.0021,-0.0041 -0.03979,-0.09663 -0.09612,-0.125573 -0.03979,-0.03049 -0.04858,-0.03721 -0.03721,-0.02842 -0.05013,-0.02067 -0.08113,-0.03359 -0.0088,-0.0036 -0.0052,-0.0026 h -0.001 l -0.0041,-5.17e-4 -0.0088,-0.001 -0.14366,-0.01912 h -0.250114 l -0.15658,0.02067 -0.07286,0.03049 -0.07286,0.02997 h -5.16e-4 l -0.125057,0.09612 -0.07648,0.09973 -0.01499,0.01395 -0.0026,0.0067 -0.0046,0.01034 -10e-4,0.0026 -0.0021,0.0057 -0.02481,0.05943 -0.0078,0.01912 -0.02274,0.05426 -0.0031,0.0124 -0.0031,-0.001 -0.02119,0.05891 -0.01654,0.02636 -0.0098,0.01292 -0.0021,0.0041 -0.0036,0.0031 -0.0098,0.0124 -0.02894,0.0186 -0.02635,0.0217 h -5.18e-4 l -0.0088,0.0041 v 5.16e-4 l -0.0015,5.17e-4 -0.02842,0.01033 -0.01085,0.0041 -0.0078,0.0026 -0.0124,0.0041 -0.0016,5.17e-4 -0.146244,0.06046 -0.125574,0.09663 -0.07596,0.09922 -0.01499,0.01395 -0.0031,0.0067 -0.0047,0.01034 -10e-4,0.0026 -0.0021,0.0062 -0.02429,0.05943 -0.03049,0.07286 -0.02067,0.156578 v 0.0031 0.247014 10e-4 l 5.16e-4,0.0021 0.0186,0.140559 v 0.0021 10e-4 l 0.0016,0.0098 0.06046,0.146245 0.09612,0.125574 0.122991,0.09405 0.0021,0.0016 5.17e-4,5.17e-4 0.146244,0.06046 0.0041,0.001 0.06563,0.02635 0.02687,0.01654 0.03256,0.02532 0.01033,0.01654 h 5.18e-4 l 0.0015,0.0026 0.02481,0.03824 0.0031,-0.0016 0.0052,0.01034 0.0078,0.02119 0.0031,0.0052 0.0036,0.01085 v 0.0026 l 0.0036,0.0093 0.0016,0.0052 0.0016,0.0057 5.16e-4,0.0016 0.06046,0.145726 0.09663,0.125574 0.122473,0.09405 0.0021,0.0015 10e-4,5.17e-4 0.145728,0.06046 0.149345,0.01964 0.0072,0.001 h 0.250114 l 0.102836,-0.01344 0.05374,-0.0072 0.146244,-0.06046 0.125574,-0.09612 0.09612,-0.125574 0.06046,-0.145726 5.16e-4,-0.0031 0.0016,-0.0036 5.17e-4,-0.0026 h 5.16e-4 l 0.02429,-0.06098 0.01654,-0.02687 0.01034,-0.01292 0.0021,-0.0041 0.0036,-0.0031 0.0093,-0.01189 0.02894,-0.0186 0.02687,-0.0217 v -5.17e-4 l 0.0088,-0.0041 h 5.17e-4 l 0.0016,-0.001 0.0279,-0.0098 0.0186,-0.0072 0.01137,-0.0041 0.0031,-5.17e-4 0.0098,-0.0041 0.04392,-0.01809 0.09198,-0.03824 0.125574,-0.09612 0.09612,-0.125574 0.06046,-0.146245 0.01499,-0.110587 0.0057,-0.04599 z m -0.605132,0 v 0.250115 H 28.2205 v 0.624767 H 27.970386 V 75.499785 H 27.345618 V 75.24967 h 0.624768 V 74.624903 H 28.2205 v 0.624767 z m -3.974951,-28.723311 -0.01137,-0.05891 -0.02687,-0.134359 -0.07545,-0.182418 -0.04134,-0.06201 -0.06821,-0.101803 -0.13901,-0.13901 -0.16278,-0.109037 h -5.17e-4 l -0.001,-5.17e-4 -0.120407,-0.05013 -0.0615,-0.02532 -0.19327,-0.03876 h -0.196887 l -0.168465,0.03359 -0.04134,0.0036 h -0.01654 l -0.08371,-0.01964 -0.06925,-0.05529 -0.03824,-0.07958 -0.0041,-0.01809 -0.0052,-0.04444 v -0.169499 h -0.49971 v 0.385506 l -0.02016,0.101286 -0.05736,0.08578 -0.08578,0.05736 -0.101286,0.02015 h -0.460437 v 0.499711 h 0.51108 0.0031 l 0.03204,-5.16e-4 0.0093,5.16e-4 0.07441,0.01912 0.0026,0.0016 0.06925,0.05478 0.03824,0.0801 0.0021,0.0093 0.0026,0.0098 0.0047,0.04392 v 0.0801 l 0.03876,0.19327 0.03979,0.09663 0.03566,0.08578 5.16e-4,0.001 0.109039,0.162781 0.139008,0.13901 0.01447,0.0098 0.09663,0.0646 0.05271,0.03514 0.182417,0.07545 0.164331,0.03307 0.0036,5.17e-4 0.02532,0.0052 h 0.196887 l 0.04754,-0.0098 0.0021,-5.17e-4 0.14366,-0.02842 0.181902,-0.07545 0.16433,-0.109554 0.13901,-0.13901 0.109554,-0.163814 0.07545,-0.182418 0.02894,-0.145211 0.0093,-0.04806 z M 24.095687,23.249744 v 1.79989 H 22.29528 v -1.79989 z M 23.795447,8.114751 V 9.9146408 H 21.995556 V 8.114751 Z m 0,47.135108 v 1.799889 h -1.799891 v -1.799889 z m 0,15.000118 v 1.799889 H 21.995556 V 70.249977 Z M 22.8446,32.525146 A 0.89999998,0.89999998 0 0 1 21.946464,33.4238 h -0.150379 a 0.89999998,0.89999998 0 0 1 -0.90072,-0.898654 0.89999998,0.89999998 0 0 1 0.90072,-0.900203 h 0.150379 a 0.89999998,0.89999998 0 0 1 0.898136,0.900203 z m 0,5.000212 a 0.89999998,0.89999998 0 0 1 -0.898136,0.898653 h -0.150379 a 0.89999998,0.89999998 0 0 1 -0.27285,-0.04237 0.89999998,0.89999998 0 0 1 -0.11989,-0.04754 l -1.396298,-0.556555 -0.0031,-0.0021 h -0.858346 a 0.25,0.25 0 0 1 -0.03307,-0.0021 0.25,0.25 0 0 1 -0.03204,-0.0067 0.25,0.25 0 0 1 -0.06201,-0.02584 0.25,0.25 0 0 1 -0.02584,-0.01809 0.25,0.25 0 0 1 -0.0015,-10e-4 0.25,0.25 0 0 1 -0.02326,-0.02067 0.25,0.25 0 0 1 -0.0015,-0.0016 l -2.947624,-2.947624 a 0.25,0.25 0 0 1 -0.07235,-0.198438 v -1.985925 l -0.0036,-0.0041 -0.475423,-1.257288 a 0.80000001,0.80000001 0 0 1 -10e-4,-0.0031 0.80000001,0.80000001 0 0 1 -0.03204,-0.08423 0.80000001,0.80000001 0 0 1 -0.03876,-0.243912 0.80000001,0.80000001 0 0 1 0.799951,-0.799952 0.80000001,0.80000001 0 0 1 0.799951,0.799952 0.80000001,0.80000001 0 0 1 -0.07028,0.327111 0.80000001,0.80000001 0 0 1 -0.0016,0.0041 l -0.474907,1.257288 -0.0021,0.0026 v 1.90686 l 2.80448,2.802413 h 0.752926 l 0.0031,-0.0031 1.38803,-0.552938 a 0.89999998,0.89999998 0 0 1 0.121439,-0.04858 l 0.0067,-0.0026 h 0.0021 a 0.89999998,0.89999998 0 0 1 0.270784,-0.04289 h 0.150379 a 0.89999998,0.89999998 0 0 1 0.898136,0.900203 z m 0,2.500106 A 0.89999998,0.89999998 0 0 1 21.946464,40.9236 h -0.150379 a 0.89999998,0.89999998 0 0 1 -0.90072,-0.898136 0.89999998,0.89999998 0 0 1 0.90072,-0.90072 h 0.150379 a 0.89999998,0.89999998 0 0 1 0.898136,0.90072 z m 0,2.500106 a 0.89999998,0.89999998 0 0 1 -0.898136,0.898136 h -0.150379 a 0.89999998,0.89999998 0 0 1 -0.90072,-0.898136 0.89999998,0.89999998 0 0 1 0.90072,-0.900721 h 0.150379 A 0.89999998,0.89999998 0 0 1 22.8446,42.52557 Z m -1.224214,3.399275 h -0.45992 l -0.101286,-0.02015 -0.0863,-0.05736 -0.05736,-0.08578 -0.02016,-0.101286 v -0.385513 h -0.499706 v 0.436149 l 0.01033,0.104903 0.0083,0.07855 0.03979,0.06511 0.0083,0.02584 0.09405,0.152445 0.126607,0.126091 0.151929,0.09405 0.169499,0.05633 0.104904,0.01034 h 0.511079 z m -2.424142,-33.875968 -0.01705,-0.107487 -0.0057,-0.03514 -0.01654,-0.104903 -5.17e-4,-0.001 v -5.16e-4 l -0.07751,-0.239262 -0.114722,-0.224793 -0.147794,-0.203605 -0.178284,-0.178284 -0.0031,-0.0021 -0.199987,-0.14521 -5.17e-4,-5.17e-4 -0.0036,-0.0021 -0.221175,-0.112138 -0.230994,-0.07545 -0.0083,-0.0026 -0.24908,-0.03927 H 17.46971 l -0.249081,0.03927 -0.239779,0.07803 -0.224275,0.114205 -0.203605,0.147794 -0.178284,0.178284 -0.148311,0.203605 -0.114205,0.224793 -0.07751,0.239262 -0.03979,0.24908 v 0.252181 l 0.03979,0.248564 0.07751,0.239778 0.114205,0.223759 v 5.17e-4 l 0.146244,0.200505 0.0016,0.0026 5.16e-4,5.17e-4 0.178284,0.178284 0.18035,0.131258 0.02222,0.01602 0.001,5.16e-4 5.17e-4,5.17e-4 0.223758,0.114205 0.239779,0.07803 h 5.17e-4 10e-4 l 0.171049,0.02687 0.07648,0.0124 h 0.244429 0.0072 l 0.216524,-0.03411 v -5.17e-4 l 0.03101,-0.0046 h 0.001 5.17e-4 l 0.239262,-0.07803 0.224793,-0.114205 0.203605,-0.148311 0.178284,-0.178284 0.147794,-0.203605 0.114722,-0.224276 0.07751,-0.239778 5.17e-4,-0.0015 0.02739,-0.172082 0.01188,-0.07493 z m 0,6.499862 -0.01705,-0.107487 -0.0057,-0.03514 -0.01654,-0.104387 -5.17e-4,-0.0016 -0.07751,-0.239779 -0.114722,-0.224275 -0.147794,-0.204122 -0.178284,-0.177767 -0.0031,-0.0026 -0.199987,-0.145211 -5.17e-4,-5.17e-4 -0.0036,-0.0016 -0.221175,-0.112655 -0.230994,-0.07545 -0.0083,-0.0026 -0.24908,-0.03927 H 17.46971 l -0.249081,0.03927 -0.239779,0.07803 -0.224275,0.114205 -0.203605,0.148312 -0.178284,0.177767 -0.148311,0.204122 -0.114205,0.224275 -0.07751,0.239779 -0.03979,0.248564 v 0.252181 l 0.03979,0.248563 0.07751,0.239779 0.114205,0.223759 v 5.17e-4 l 0.146244,0.200504 0.0016,0.0026 5.16e-4,0.001 0.178284,0.177766 0.18035,0.131259 0.02222,0.01602 0.001,0.001 5.17e-4,5.17e-4 0.223758,0.113688 0.239779,0.07803 h 5.17e-4 10e-4 l 0.171049,0.02739 0.07648,0.01188 h 0.244429 0.0072 l 0.216524,-0.03411 0.03101,-0.0052 h 0.001 5.17e-4 l 0.239262,-0.07803 0.224793,-0.114205 0.203605,-0.148312 0.178284,-0.177766 0.147794,-0.204122 0.114722,-0.224276 0.07751,-0.239779 5.17e-4,-0.0016 0.02739,-0.172083 0.01188,-0.07493 z m 0,40.499853 -0.01705,-0.107487 -0.0057,-0.03462 -0.01654,-0.104903 -5.17e-4,-0.0016 -0.07751,-0.239778 -0.114722,-0.224276 -0.147794,-0.204122 -0.178284,-0.177767 -0.0031,-0.0026 -0.199987,-0.145209 -5.17e-4,-5.18e-4 -0.0036,-0.0016 -0.221175,-0.112654 -0.230994,-0.07493 -0.0083,-0.0031 -0.24908,-0.03927 H 17.46971 l -0.249081,0.03927 -0.239779,0.07803 -0.224275,0.114204 -0.203605,0.148311 -0.178284,0.177767 -0.148311,0.204122 -0.114205,0.224276 -0.07751,0.239778 -0.03979,0.248564 v 0.252181 l 0.03979,0.249081 0.07751,0.239261 0.114205,0.223759 v 5.17e-4 l 0.146244,0.201021 0.0016,0.0021 5.16e-4,10e-4 0.178284,0.178285 0.18035,0.130741 0.02222,0.01602 0.001,0.001 5.17e-4,5.17e-4 0.223758,0.113688 0.239779,0.07803 h 5.17e-4 l 10e-4,5.17e-4 0.171049,0.02687 0.07648,0.01189 h 0.244429 0.0072 l 0.216524,-0.03411 0.03101,-0.0046 0.001,-5.17e-4 h 5.17e-4 l 0.239262,-0.07803 0.224793,-0.114205 0.203605,-0.147793 0.178284,-0.178285 0.147794,-0.204122 0.114722,-0.224276 0.07751,-0.239261 v -5.17e-4 l 5.17e-4,-10e-4 0.02739,-0.172599 0.01188,-0.07493 z m 0,6.500379 -0.01705,-0.107486 -0.0057,-0.03514 -0.01654,-0.104905 -5.17e-4,-0.001 v -5.17e-4 l -0.07751,-0.239263 -0.114722,-0.224792 -0.147794,-0.203604 -0.178284,-0.178285 -0.0031,-0.0021 -0.199987,-0.145212 -5.17e-4,-5.17e-4 -0.0036,-0.0021 -0.221175,-0.112654 -0.230994,-0.07493 -0.0083,-0.0026 -0.24908,-0.03979 H 17.46971 l -0.249081,0.03979 -0.239779,0.07751 -0.224275,0.114721 -0.203605,0.147795 -0.178284,0.178285 -0.148311,0.203604 -0.114205,0.224792 -0.07751,0.239263 -0.03979,0.24908 v 0.251664 l 0.03979,0.249081 0.07751,0.239262 0.114205,0.224276 v 5.16e-4 l 0.146244,0.200505 0.0016,0.0026 5.16e-4,5.17e-4 0.178284,0.178282 0.18035,0.130742 0.02222,0.01654 0.001,5.17e-4 5.17e-4,5.18e-4 0.223758,0.114204 0.239779,0.07751 h 5.17e-4 l 10e-4,5.17e-4 0.171049,0.02687 0.07648,0.0124 h 0.244429 0.0072 l 0.216524,-0.03462 0.03101,-0.0047 0.001,-5.17e-4 h 5.17e-4 l 0.239262,-0.07751 0.224793,-0.114722 0.203605,-0.147795 0.178284,-0.178282 0.147794,-0.203606 0.114722,-0.224792 0.07751,-0.239262 v -5.17e-4 l 5.17e-4,-0.001 0.02739,-0.172083 v -5.15e-4 l 0.01188,-0.07493 z M 18.595765,12.174967 a 1,1 0 0 1 -1.000456,0.999939 1,1 0 0 1 -0.99994,-0.999939 1,1 0 0 1 0.99994,-0.999939 1,1 0 0 1 1.000456,0.999939 z m 0,6.499862 a 1,1 0 0 1 -1.000456,0.999939 1,1 0 0 1 -0.99994,-0.999939 1,1 0 0 1 0.99994,-0.999939 1,1 0 0 1 1.000456,0.999939 z m 0,40.499855 a 1,1 0 0 1 -1.000456,0.999938 1,1 0 0 1 -0.99994,-0.999938 1,1 0 0 1 0.99994,-0.99994 1,1 0 0 1 1.000456,0.99994 z m 0,6.49986 a 1,1 0 0 1 -1.000456,1.000456 1,1 0 0 1 -0.99994,-1.000456 1,1 0 0 1 0.99994,-0.999939 1,1 0 0 1 1.000456,0.999939 z m -0.99994,-19.210197 -0.03411,-0.217557 -0.06821,-0.209807 -0.100253,-0.19637 -0.129707,-0.178284 -0.155545,-0.155546 -0.178285,-0.129708 -0.196371,-0.100252 -0.209806,-0.06821 -0.217557,-0.03411 h -0.220657 l -0.217559,0.03411 -0.209806,0.06821 -0.196371,0.100252 -0.178283,0.129708 -0.156063,0.155546 -0.129708,0.178284 -0.09974,0.19637 -0.06821,0.209807 -0.03462,0.217557 v 0.220659 l 0.03462,0.217557 v 10e-4 l 0.03204,0.09715 0.03256,0.100769 5.16e-4,0.0021 5.17e-4,0.0015 0.0026,0.0072 0.09974,0.19637 0.129708,0.178284 0.156063,0.156063 0.178283,0.129708 0.196371,0.09973 0.209806,0.06821 0.217559,0.03462 h 0.220658 l 0.217557,-0.03462 0.209806,-0.06821 0.196371,-0.09973 0.178285,-0.129708 0.155545,-0.156063 0.129707,-0.178284 0.100253,-0.19637 0.06821,-0.209807 0.03411,-0.217557 z m -0.60048,0.110588 a 0.80000001,0.80000001 0 0 1 -0.799951,0.799951 0.80000001,0.80000001 0 0 1 -0.799951,-0.799951 0.80000001,0.80000001 0 0 1 0.799951,-0.799951 0.80000001,0.80000001 0 0 1 0.799951,0.799951 z m -2.299085,-34.526058 -0.01705,-0.10542 -0.02222,-0.14211 -5.17e-4,-0.001 v -5.16e-4 l -0.07751,-0.239262 -0.114722,-0.224793 -0.147793,-0.203605 -0.178285,-0.178284 -0.0031,-0.0021 -0.199986,-0.14521 -5.18e-4,-5.17e-4 -0.0036,-0.0021 -0.221175,-0.112138 -0.230993,-0.07545 -0.0083,-0.0026 -0.24908,-0.03927 h -0.251663 l -0.249082,0.03927 -0.239778,0.07803 -0.224276,0.114205 -0.203605,0.147794 -0.178284,0.178284 -0.148311,0.203605 -0.114205,0.224793 -0.07803,0.239262 -0.03927,0.24908 v 0.252181 l 0.03927,0.248564 0.07803,0.239778 0.114205,0.223759 v 5.17e-4 l 0.146244,0.200505 0.0015,0.0026 5.17e-4,5.17e-4 0.05478,0.05478 0.123507,0.123507 0.203605,0.148311 0.224276,0.114205 0.239778,0.07803 h 0.0016 l 0.247531,0.03927 h 0.244428 0.0072 l 0.24753,-0.03927 h 10e-4 5.16e-4 l 0.239262,-0.07803 0.224793,-0.114205 0.203605,-0.148311 0.178285,-0.178284 0.147793,-0.203605 0.114722,-0.224276 0.07751,-0.239778 5.17e-4,-0.0015 0.02739,-0.172082 0.01188,-0.07493 z m 0,6.499862 -0.01705,-0.10542 -0.02222,-0.141594 -5.17e-4,-0.0016 -0.07751,-0.239779 -0.114722,-0.224275 -0.147793,-0.204122 -0.178285,-0.177767 -0.0031,-0.0026 -0.199986,-0.145211 -5.18e-4,-5.17e-4 -0.0036,-0.0016 -0.221175,-0.112655 -0.230993,-0.07545 -0.0083,-0.0026 -0.24908,-0.03927 h -0.251663 l -0.249082,0.03927 -0.239778,0.07803 -0.224276,0.114205 -0.203605,0.148312 -0.178284,0.177767 -0.148311,0.204122 -0.114205,0.224275 -0.07803,0.239779 -0.03927,0.248564 v 0.252181 l 0.03927,0.248563 0.07803,0.239779 0.114205,0.223759 v 5.17e-4 l 0.146244,0.200504 0.0015,0.0026 5.17e-4,0.001 0.05478,0.05478 0.123507,0.122989 0.203605,0.148312 0.224276,0.114205 0.239778,0.07803 h 0.0016 l 0.247531,0.03927 h 0.251663 l 0.24753,-0.03927 h 0.001 5.16e-4 l 0.239262,-0.07803 0.224793,-0.114205 0.203605,-0.148312 0.178285,-0.177766 0.147793,-0.204122 0.114722,-0.224276 0.07751,-0.239779 5.17e-4,-0.0015 0.02739,-0.172083 0.01188,-0.07493 z m 0,40.499853 -0.01705,-0.10542 -0.02222,-0.141593 -5.17e-4,-0.0016 -0.07751,-0.239778 -0.114722,-0.224276 -0.147793,-0.204122 -0.178285,-0.177767 -0.0031,-0.0026 -0.199986,-0.145209 -5.18e-4,-5.18e-4 -0.0036,-0.0016 -0.221175,-0.112654 -0.230993,-0.07493 -0.0083,-0.0031 -0.24908,-0.03927 h -0.251663 l -0.249082,0.03927 -0.239778,0.07803 -0.224276,0.114204 -0.203605,0.148311 -0.178284,0.177767 -0.148311,0.204122 -0.114205,0.224276 -0.07803,0.239778 -0.03927,0.248564 v 0.252181 l 0.03927,0.249081 0.07803,0.239261 0.114205,0.223759 v 5.17e-4 l 0.146244,0.201021 0.0015,0.0021 5.17e-4,10e-4 0.05478,0.05478 0.123507,0.123508 0.203605,0.147793 0.224276,0.114205 0.239778,0.07803 0.0016,5.17e-4 0.247531,0.03876 h 0.244428 0.0072 l 0.24753,-0.03876 10e-4,-5.17e-4 h 5.16e-4 l 0.239262,-0.07803 0.224793,-0.114205 0.203605,-0.147793 0.178285,-0.178285 0.147793,-0.204122 0.114722,-0.224276 0.07751,-0.239261 v -5.17e-4 l 5.17e-4,-0.001 0.02739,-0.172599 0.01188,-0.07493 z m 0,6.500379 -0.01705,-0.105937 -0.02222,-0.141594 -5.17e-4,-0.001 v -5.17e-4 l -0.07751,-0.239263 -0.114722,-0.224792 -0.147793,-0.203604 -0.178285,-0.178285 -0.0031,-0.0021 -0.199986,-0.145212 -5.18e-4,-5.17e-4 -0.0036,-0.0021 -0.221175,-0.112654 -0.230993,-0.07493 -0.0083,-0.0026 -0.24908,-0.03979 h -0.251663 l -0.249082,0.03979 -0.239778,0.07751 -0.224276,0.114721 -0.203605,0.147795 -0.178284,0.178285 -0.148311,0.203604 -0.114205,0.224792 -0.07803,0.239263 -0.03927,0.24908 v 0.251664 l 0.03927,0.249081 0.07803,0.239262 0.114205,0.224276 v 5.16e-4 l 0.146244,0.200505 0.0015,0.0026 5.17e-4,5.17e-4 0.05478,0.05478 0.123507,0.123505 0.203605,0.147795 0.224276,0.114722 0.239778,0.07751 0.0016,5.17e-4 0.247531,0.03928 h 0.251663 l 0.24753,-0.03928 0.001,-5.17e-4 h 5.16e-4 l 0.239262,-0.07751 0.224793,-0.114722 0.203605,-0.147795 0.178285,-0.178282 0.147793,-0.203606 0.114722,-0.224792 0.07751,-0.239262 v -5.17e-4 l 5.17e-4,-10e-4 0.02739,-0.172083 v -5.15e-4 l 0.01188,-0.07493 z M 14.09578,12.174968 a 1,1 0 0 1 -1.000454,0.999939 1,1 0 0 1 -0.99994,-0.999939 1,1 0 0 1 0.99994,-0.999939 1,1 0 0 1 1.000454,0.999939 z m 0,6.499862 a 1,1 0 0 1 -1.000454,0.999939 1,1 0 0 1 -0.99994,-0.999939 1,1 0 0 1 0.99994,-0.99994 1,1 0 0 1 1.000454,0.99994 z m 0,40.499854 a 1,1 0 0 1 -1.000454,0.999938 1,1 0 0 1 -0.99994,-0.999938 1,1 0 0 1 0.99994,-0.99994 1,1 0 0 1 1.000454,0.99994 z m 0,6.49986 a 1,1 0 0 1 -1.000454,1.000456 1,1 0 0 1 -0.99994,-1.000456 1,1 0 0 1 0.99994,-0.999939 1,1 0 0 1 1.000454,0.999939 z m -1.49965,-34.809761 -0.03462,-0.218075 -0.06821,-0.209289 -0.09973,-0.196371 -0.129708,-0.1788 -0.156063,-0.155546 -0.178284,-0.129708 -0.19637,-0.100252 -0.209807,-0.0677 -0.217557,-0.03462 h -0.220659 l -0.217557,0.03462 -0.209807,0.0677 -0.19637,0.100252 -0.178284,0.129708 -0.155546,0.155546 -0.129708,0.1788 -0.100252,0.196371 -0.06821,0.209289 -0.03411,0.218075 v 0.220141 l 0.03411,0.218075 5.17e-4,5.17e-4 0.02532,0.07803 0.03876,0.119889 5.16e-4,0.0021 5.17e-4,0.0016 0.0026,0.0072 0.100252,0.196371 0.129708,0.178284 0.155546,0.156062 0.178284,0.129708 0.19637,0.09974 0.03566,0.01188 0.17415,0.05633 0.217557,0.03462 h 0.220659 l 0.217557,-0.03462 0.209807,-0.06821 0.19637,-0.09974 0.178284,-0.129708 0.156063,-0.156062 0.129708,-0.178284 0.09973,-0.196371 0.06821,-0.209289 v -5.17e-4 l 0.03462,-0.217558 z m 0,15.599564 -0.03462,-0.217557 -0.06821,-0.209807 -0.09973,-0.19637 -0.129708,-0.178284 -0.156063,-0.155546 -0.178284,-0.129708 -0.19637,-0.100252 -0.209807,-0.06821 -0.217557,-0.03411 h -0.220659 l -0.217557,0.03411 -0.209807,0.06821 -0.19637,0.100252 -0.178284,0.129708 -0.155546,0.155546 -0.129708,0.178284 -0.100252,0.19637 -0.06821,0.209807 -0.03411,0.217557 v 0.220659 l 0.03411,0.217557 5.17e-4,10e-4 0.02532,0.07803 0.03876,0.11989 5.16e-4,0.0021 5.17e-4,0.0015 0.0026,0.0072 0.100252,0.19637 0.129708,0.178284 0.155546,0.156063 0.178284,0.129708 0.19637,0.09973 0.03566,0.01189 0.17415,0.05633 0.217557,0.03462 h 0.220659 l 0.217557,-0.03462 0.209807,-0.06821 0.19637,-0.09973 0.178284,-0.129708 0.156063,-0.156063 0.129708,-0.178284 0.09973,-0.19637 0.06821,-0.209807 0.03462,-0.217557 z M 11.99565,30.974854 a 0.80000001,0.80000001 0 0 1 -0.799951,0.799951 0.80000001,0.80000001 0 0 1 -0.799951,-0.799951 0.80000001,0.80000001 0 0 1 0.799951,-0.799952 0.80000001,0.80000001 0 0 1 0.799951,0.799952 z m 0,15.600081 a 0.80000001,0.80000001 0 0 1 -0.799951,0.799951 0.80000001,0.80000001 0 0 1 -0.799951,-0.799951 0.80000001,0.80000001 0 0 1 0.799951,-0.799951 0.80000001,0.80000001 0 0 1 0.799951,0.799951 z m -1.19941,-10.410217 -0.03462,-0.218075 -0.06821,-0.209289 -0.100252,-0.196371 -0.129191,-0.1788 -0.156063,-0.155546 -0.178284,-0.129708 -0.168465,-0.08578 -0.02119,-0.01085 -0.0052,-0.0031 -0.0036,-10e-4 -0.0062,-0.0021 -0.0031,-0.001 -0.02429,-0.0078 -0.17415,-0.05633 -0.217557,-0.03462 H 9.285209 l -0.217558,0.03462 -0.209806,0.0677 -0.19637,0.100253 -0.178284,0.129708 -0.156063,0.155546 -0.129191,0.1788 -0.100252,0.196371 -0.06821,0.209289 -0.03462,0.218075 v 0.220141 l 0.03462,0.218075 v 5.17e-4 l 0.01809,0.05478 0.04651,0.143143 5.17e-4,0.0021 5.17e-4,0.0016 0.0026,0.0072 0.100252,0.196371 0.129191,0.1788 0.156063,0.155546 0.178284,0.129708 0.19637,0.100252 0.0124,0.0036 0.197404,0.06408 0.185519,0.02945 0.02532,0.0041 0.0067,10e-4 h 0.220659 l 0.01395,-0.0021 0.02997,-0.0047 0.173632,-0.0279 0.209807,-0.0677 0.19637,-0.100252 0.178284,-0.129708 0.156063,-0.155546 0.129191,-0.1788 0.100252,-0.196371 0.06821,-0.209289 0.03462,-0.218075 z m -0.100769,5.007963 -0.03204,-0.202055 -0.06305,-0.19482 -0.0072,-0.01395 -0.08578,-0.168465 -0.03256,-0.04444 -0.365353,0.365353 a 0.80000001,0.80000001 0 0 1 0.0863,0.360701 0.80000001,0.80000001 0 0 1 -0.0863,0.360185 l 0.365353,0.365352 0.03256,-0.04444 0.09302,-0.182417 0.06305,-0.194304 0.03204,-0.202055 z M 10.19576,36.274788 A 0.80000001,0.80000001 0 0 1 9.395292,37.07474 0.80000001,0.80000001 0 0 1 8.595341,36.274788 0.80000001,0.80000001 0 0 1 9.395292,35.474837 0.80000001,0.80000001 0 0 1 10.19576,36.274788 Z m -0.07441,3.920691 -0.04444,-0.03256 -0.182418,-0.09302 -0.07441,-0.02429 -0.119889,-0.03876 -0.194303,-0.03101 -0.0083,-10e-4 H 9.292952 l -0.202055,0.03204 -0.194304,0.06305 -0.182417,0.09302 -0.04444,0.03256 0.365352,0.365353 a 0.80000001,0.80000001 0 0 1 0.360185,-0.08578 0.80000001,0.80000001 0 0 1 0.360701,0.08578 z m 0,2.159042 -0.365353,-0.365353 a 0.80000001,0.80000001 0 0 1 -0.360701,0.08578 0.80000001,0.80000001 0 0 1 -0.360185,-0.08578 l -0.365352,0.365353 0.0078,0.01809 0.03152,0.01085 0.0052,0.0031 0.182417,0.09302 0.194304,0.06305 0.202055,0.03204 h 0.204638 l 0.202572,-0.03204 0.194303,-0.06305 0.182418,-0.09302 z M 8.995316,23.214604 v 1.800407 H 7.195426 V 23.214604 Z M 8.795329,8.215003 v 1.79989 H 6.995438 v -1.79989 z m 0,46.999715 v 1.79989 H 6.995438 v -1.79989 z m 0,15.000119 v 1.799889 H 6.995438 V 70.214837 Z M 8.68164,40.914299 8.315771,40.548946 l -0.03204,0.04444 -0.09302,0.182418 -0.06304,0.19482 -0.03204,0.202055 v 0.204638 l 0.03204,0.202055 0.0124,0.03824 0.05064,0.156063 0.09302,0.182417 0.03204,0.04444 0.365869,-0.365352 a 0.80000001,0.80000001 0 0 1 -0.0863,-0.360185 0.80000001,0.80000001 0 0 1 0.0863,-0.360701 z M 6.196005,38.730452 6.158275,38.444682 6.083865,38.166146 5.973278,37.899495 5.8291,37.649898 5.653401,37.420972 5.449795,37.21685 5.220869,37.04115 5.06584,36.95175 4.97127,36.89697 4.704619,36.786382 4.426083,36.711972 4.139796,36.674252 H 3.851444 l -0.28577,0.03772 -0.279053,0.07441 -0.266134,0.110588 -0.07545,0.04341 -0.174667,0.100769 -0.101802,0.07803 -0.120406,0.0925 -0.0047,0.0041 h -5.18e-4 l -0.0016,0.001 -0.120923,0.120923 -0.08268,0.0832 -0.175701,0.22841 -0.144177,0.250113 -0.110588,0.266651 -0.07441,0.278536 -0.03772,0.28577 v 0.288355 l 0.03772,0.286287 0.07441,0.278536 0.110588,0.266651 0.05478,0.09457 0.0894,0.155029 0.0083,0.01137 0.07441,0.09663 0.09198,0.119889 10e-4,10e-4 0.203604,0.204121 0.181901,0.13901 0.04703,0.03669 0.250114,0.144178 0.0031,0.0015 0.0031,0.001 0.162781,0.06718 0.09715,0.04031 0.279053,0.07493 0.28577,0.03772 h 0.238229 0.05013 l 0.286287,-0.03772 0.278536,-0.07493 0.254248,-0.10542 0.0083,-0.0026 0.253731,-0.146245 0.228926,-0.1757 0.203606,-0.204121 0.175699,-0.228927 0.144178,-0.249597 0.0016,-0.0036 0.0015,-0.0031 0.107487,-0.259933 0.01137,-0.04186 0.05684,-0.211873 0.0062,-0.02481 0.0031,-0.02015 0.01809,-0.140044 0.01654,-0.12609 z m -2.545065,-14.98048 -0.01137,-0.08733 -0.0093,-0.06976 -0.06046,-0.145727 -5.18e-4,-5.17e-4 -0.0016,-0.0021 -0.09405,-0.12299 -0.125574,-0.09612 -0.0615,-0.02532 -0.08423,-0.03514 -0.0031,-5.16e-4 -0.01034,-0.0026 -0.05684,-0.02429 -0.02687,-0.01705 -0.03204,-0.0248 -0.01085,-0.01654 -0.0016,-0.0026 -0.02532,-0.03824 -0.0031,0.0015 -0.0052,-0.01033 -0.0072,-0.02119 -0.0031,-0.0052 -0.0036,-0.01085 -5.17e-4,-0.0026 -0.0031,-0.0093 h -5.17e-4 l -0.0016,-0.0057 -0.0021,-0.0062 v -5.17e-4 l -0.0041,-0.0098 -0.01809,-0.04444 -0.03772,-0.08992 -5.16e-4,-0.0021 -0.09612,-0.125057 -0.07855,-0.05994 -0.04703,-0.03669 -0.09974,-0.04082 -0.04651,-0.01964 -0.15658,-0.02015 H 2.170274 l -0.15658,0.02015 -0.0015,0.001 -0.0052,0.0021 -0.09973,0.04134 -0.03979,0.01602 -0.125057,0.09663 -0.07648,0.09922 -0.01499,0.01395 -0.0026,0.0067 -0.0047,0.01033 -0.0015,0.0026 -0.0016,0.0062 -0.02481,0.05943 -0.0078,0.0186 -0.02274,0.05426 -0.0031,0.0124 -0.0031,-5.16e-4 -0.02119,0.05839 -0.01654,0.02635 -0.01034,0.01292 -0.0016,0.0047 -0.0041,0.0026 -0.0093,0.0124 -0.02894,0.01912 -0.02636,0.02119 H 1.46011 l -0.0088,0.0046 -0.0016,0.001 -0.02842,0.0098 -0.01085,0.0041 -0.0078,0.0031 -0.0124,0.0036 -0.0016,0.001 -0.146244,0.06046 -0.125574,0.09612 -0.07596,0.09922 -0.01499,0.01447 -0.0031,0.0067 -0.0047,0.01033 -0.001,0.0021 -0.0021,0.0062 -0.02429,0.05943 -0.03049,0.07286 -0.02067,0.157097 v 0.0026 0.247014 0.001 l 5.17e-4,0.0026 0.0186,0.14056 v 0.0021 5.17e-4 l 0.0016,0.01033 0.06046,0.145728 0.09612,0.125573 0.12299,0.09405 0.0021,0.0016 5.17e-4,5.16e-4 0.146244,0.06046 0.0041,0.001 0.06563,0.02635 0.02687,0.01705 0.03255,0.02532 0.01034,0.01602 0.0021,0.0031 0.0248,0.03772 0.0031,-0.0016 0.0052,0.01034 0.0077,0.02119 0.0031,0.0052 0.0031,0.01137 5.17e-4,0.0021 0.0036,0.0093 0.0016,0.0057 0.0016,0.0057 5.18e-4,0.001 0.06046,0.146244 0.09663,0.125574 0.122473,0.09405 0.0021,0.0016 5.17e-4,5.16e-4 0.03979,0.01602 0.106453,0.04444 0.148312,0.01912 0.0083,0.0015 h 0.250114 l 0.120923,-0.01602 0.03566,-0.0046 0.146244,-0.06046 0.125574,-0.09612 0.09612,-0.125574 0.06046,-0.146244 5.17e-4,-0.0031 0.0015,-0.0031 5.17e-4,-0.0031 h 5.17e-4 l 0.02377,-0.06046 0.01705,-0.02687 0.01033,-0.01292 0.0021,-0.0046 0.0036,-0.0026 0.0093,-0.01188 0.02894,-0.01912 0.02687,-0.02171 0.0088,-0.0047 h 5.17e-4 l 0.0016,-0.001 0.02791,-0.0098 0.0186,-0.0072 0.01137,-0.0036 0.0031,-0.001 0.0098,-0.0041 0.04393,-0.01809 0.09198,-0.03824 0.125574,-0.09612 0.09612,-0.125573 0.06046,-0.145728 0.01189,-0.08888 0.0088,-0.06821 z m -0.605648,0 v 0.249597 H 2.420524 v 0.625285 H 2.17041 V 23.999569 H 1.545642 V 23.749972 H 2.17041 v -0.625285 h 0.250114 v 0.625285 z"/>
</svg>