<?xml version='1.0' encoding='UTF-8'?>
<svg xmlns="http://www.w3.org/2000/svg" xmlns:svg="http://www.w3.org/2000/svg" version="1.1" width="39.395525mm" height="77.774580mm" viewBox="0 0 39.395525 77.77458" id="svg6">
  <defs id="defs6"/>
  <title id="title1">SVG Image created as play_cue_btn-F_Cu.svg date 2026-06-09T17:37:01 </title>
  <desc id="desc1">Image generated by PCBNEW </desc>
  <path id="bambu_00005" style="fill:#046307;fill-opacity:1;stroke:none" d="M 39.395528,0 H 0 v 77.774581 h 39.395528 z m -0.500744,0.711068 v 7.643461 l -0.0047,0.04444 -0.0036,0.01654 -0.0186,0.03772 -0.01705,0.03824 -0.0021,0.0015 -10e-4,0.0021 -0.03307,0.02636 -0.03204,0.02687 -0.0021,5.17e-4 -0.0021,0.0015 -0.04082,0.0093 -0.04082,0.01033 -0.0026,-5.17e-4 -0.0021,5.17e-4 -0.08216,-0.01757 -0.0124,-0.0062 -0.03514,-0.02015 -0.03307,-0.02377 -0.19637,-0.100252 -0.20929,-0.06821 h -5.16e-4 L 37.90558,8.299684 h -0.220142 l -0.218074,0.03411 -0.180351,0.05891 -0.02946,0.0093 -0.19637,0.100252 -0.178284,0.129708 -0.155546,0.155546 -0.129708,0.178283 -0.100252,0.196371 -0.0021,0.0078 -10e-4,10e-4 -5.17e-4,0.0026 -0.04392,0.135392 -0.02015,0.062529 -5.17e-4,5.168e-4 -0.03411,0.2175577 v 0.2206584 l 0.03411,0.2175581 0.06821,0.209806 0.100252,0.19637 0.129708,0.178284 0.155546,0.156063 0.178284,0.129708 0.19637,0.09974 0.105937,0.03462 0.06666,0.02119 0.0124,0.0077 0.01499,0.0036 0.01292,0.0072 0.01344,0.0077 0.01602,0.0155 0.0062,0.0036 0.01344,0.01499 0.02842,0.02739 0.03101,0.0832 -0.0078,0.08785 -0.03927,0.06563 -10e-4,0.0026 h -5.17e-4 l -0.0047,0.0077 -0.0016,0.0015 -0.05736,0.04186 -0.0036,0.0015 -0.0021,0.001 h -5.17e-4 l -10e-4,5.17e-4 -0.02119,0.0083 -0.151412,0.04961 -0.02946,0.0093 -0.19637,0.100253 -0.178284,0.129191 -0.155546,0.156062 -0.129708,0.178284 -0.100252,0.196371 -0.0021,0.0077 -10e-4,0.001 -5.17e-4,0.0026 -0.04392,0.135393 -0.02015,0.06253 -5.17e-4,5.17e-4 -0.03411,0.217558 v 0.220658 l 0.03411,0.217558 0.06821,0.209806 0.100252,0.196371 0.129708,0.178283 0.155546,0.156063 0.178284,0.129191 0.19637,0.100252 0.105937,0.03462 0.06666,0.02119 0.0124,0.0077 0.01499,0.0036 0.01292,0.0072 0.01344,0.0077 0.01602,0.0155 0.0062,0.0036 0.01344,0.01499 0.02842,0.02739 0.03101,0.08268 -0.0078,0.08837 -0.03927,0.06563 -0.001,0.0021 -5.17e-4,5.17e-4 -0.0047,0.0077 -0.0016,0.0015 -0.05736,0.04186 -0.0036,0.0015 -0.0021,0.001 h -5.17e-4 l -10e-4,5.17e-4 -0.02119,0.0083 -0.151412,0.04909 -0.02946,0.0098 -0.19637,0.09974 -0.178284,0.129708 -0.155546,0.156063 -0.129708,0.178283 -0.100252,0.196371 -0.0021,0.0077 -10e-4,0.001 -5.17e-4,0.0026 -0.04392,0.135392 -0.02015,0.06201 -5.17e-4,0.001 -0.03411,0.217558 v 0.220658 l 0.03411,0.217558 0.06821,0.209806 0.100252,0.196371 0.129708,0.178283 0.155546,0.155547 0.178284,0.129707 0.19637,0.100253 0.105937,0.03462 0.06666,0.02119 0.0124,0.0077 0.01499,0.0036 0.01292,0.0072 0.01344,0.0078 0.01602,0.0155 0.0062,0.0036 0.01344,0.01499 0.02842,0.02739 0.03101,0.08268 -0.0078,0.08837 -0.03927,0.06563 -10e-4,0.0021 -5.17e-4,5.17e-4 -0.0047,0.0077 -0.0016,0.0016 -0.05736,0.04186 -0.0036,0.0016 -0.0021,5.17e-4 -5.17e-4,5.17e-4 -10e-4,5.16e-4 -0.02119,0.0083 -0.151412,0.04909 -0.02946,0.0098 -0.19637,0.09973 -0.178284,0.129708 -0.155546,0.156063 -0.129708,0.178284 -0.100252,0.19637 -0.0021,0.0072 -10e-4,0.0015 -5.17e-4,0.0021 -0.04392,0.135909 -0.02015,0.06201 -5.17e-4,0.001 -0.03411,0.217558 v 0.220142 l 0.03411,0.218074 0.06821,0.209807 0.100252,0.19637 0.129708,0.178284 0.155546,0.155546 0.178284,0.129708 0.19637,0.100252 0.209807,0.06821 0.218074,0.03411 h 0.220142 l 0.218074,-0.03411 0.20929,-0.06821 0.19637,-0.100252 0.03152,-0.02274 0.03876,-0.02222 0.01034,-0.0041 0.0052,-0.0021 0.08682,-0.01602 0.08527,0.02377 0.06718,0.0584 0.03359,0.077 0.0031,0.01343 0.0036,0.03979 v 36.877392 l -0.0047,0.04392 -0.0036,0.01654 -0.0186,0.03773 -0.01705,0.03876 -0.0021,0.001 -10e-4,0.0021 -0.03256,0.02636 -0.03256,0.02687 -0.0021,5.17e-4 -0.0021,0.0015 -0.04082,0.0093 -0.04082,0.01033 -0.0026,-5.17e-4 -0.0021,5.17e-4 -0.08216,-0.01757 -0.0124,-0.0057 -0.03514,-0.02015 -0.0015,-0.0016 -0.03152,-0.02274 -0.01447,-0.01034 -0.07545,-0.05478 -0.19637,-0.100252 -0.209806,-0.06821 -0.127641,-0.02015 -0.08992,-0.01447 h -0.220658 l -0.03152,0.0052 -0.186035,0.02946 -0.173116,0.05633 -0.03669,0.01188 -0.19637,0.100252 -0.178284,0.129192 -0.155546,0.156062 -0.129708,0.178284 -0.100252,0.196371 -0.0026,0.0078 -5.16e-4,10e-4 -5.17e-4,0.0026 -0.04651,0.142627 -0.01757,0.0553 -5.17e-4,5.16e-4 -0.03411,0.217559 v 0.220658 l 0.03411,0.217557 0.06821,0.209806 0.100252,0.196371 0.129708,0.178283 0.155546,0.156063 0.178284,0.129192 0.19637,0.100251 0.209807,0.06821 0.217558,0.03462 h 0.220658 l 0.217558,-0.03462 0.05839,-0.01912 0.140043,-0.04547 0.0031,-10e-4 0.0062,-0.0021 0.0036,-0.001 0.0057,-0.0031 0.189135,-0.09663 0.12144,-0.08785 0.03876,-0.02222 0.01034,-0.0041 0.0052,-0.0026 0.08682,-0.0155 0.08527,0.02325 0.06718,0.05839 0.03359,0.077 0.0031,0.01395 0.0036,0.03979 v 0.642338 l -0.0047,0.04444 -0.0036,0.01602 -0.0186,0.03824 -0.01705,0.03824 -0.0021,0.0016 -10e-4,0.0021 -0.03256,0.02584 -0.03256,0.02739 -0.0021,5.16e-4 -0.0021,0.0016 -0.04082,0.0093 -0.04082,0.01034 -0.0026,-5.17e-4 -0.0021,5.17e-4 -0.08216,-0.01809 -0.0124,-0.0057 -0.03514,-0.02015 -0.0015,-10e-4 -0.03152,-0.02325 -0.01447,-0.01034 -0.07545,-0.05478 -0.19637,-0.100252 -0.209806,-0.06821 -0.127641,-0.02015 -0.08992,-0.01395 h -0.220658 l -0.03152,0.0046 -0.186035,0.02946 -0.173116,0.05633 -0.03669,0.01188 -0.19637,0.100252 -0.178284,0.129708 -0.155546,0.155546 -0.129708,0.178285 -0.100252,0.196369 -0.0026,0.0078 -5.16e-4,10e-4 -5.17e-4,0.0026 -0.04651,0.143144 -0.01757,0.05478 -5.17e-4,5.17e-4 -0.03411,0.218073 v 0.220142 l 0.03411,0.218075 0.06821,0.209289 0.100252,0.19637 0.129708,0.178284 0.155546,0.156063 0.178284,0.129709 0.19637,0.09973 0.209807,0.06821 0.217558,0.03462 h 0.220658 l 0.217558,-0.03462 0.05839,-0.0186 0.140043,-0.04599 0.0031,-5.17e-4 0.0062,-0.0021 0.0036,-0.0016 0.0057,-0.0026 0.189135,-0.09663 0.12144,-0.08837 0.03876,-0.02222 0.01034,-0.0041 0.0052,-0.0021 0.08682,-0.01602 0.08527,0.02377 0.06718,0.05839 0.03359,0.077 0.0031,0.01344 0.0036,0.03979 v 0.642338 l -0.0047,0.04444 -0.0036,0.01654 -0.0186,0.03772 -0.01705,0.03824 -0.0021,0.0015 -10e-4,0.0021 -0.03256,0.02635 -0.03256,0.02687 -0.0021,5.17e-4 -0.0021,0.0015 -0.04082,0.0093 -0.04082,0.01033 -0.0026,-5.17e-4 -0.0021,5.17e-4 -0.08216,-0.01757 -0.0124,-0.0057 -0.03514,-0.02067 -0.0015,-10e-4 -0.03152,-0.02274 -0.01447,-0.01085 -0.07545,-0.05478 -0.19637,-0.09974 -0.209806,-0.06821 -0.127641,-0.02015 -0.08992,-0.01447 h -0.220658 l -0.03152,0.0052 -0.186035,0.02946 -0.173116,0.05633 -0.03669,0.01188 -0.19637,0.09974 -0.178284,0.129707 -0.155546,0.156063 -0.129708,0.178284 -0.100252,0.196371 -0.0026,0.0072 -5.16e-4,0.0016 -5.17e-4,0.0021 -0.04651,0.143142 -0.01757,0.05478 -5.17e-4,5.17e-4 -0.03411,0.218075 v 0.22014 l 0.03411,0.218075 0.06821,0.209289 0.100252,0.196888 0.129708,0.178284 0.155546,0.155545 0.178284,0.129709 0.19637,0.100252 0.209807,0.06821 0.217558,0.03411 h 0.220658 l 0.217558,-0.03411 0.05839,-0.01912 0.140043,-0.04547 0.0031,-0.001 0.0062,-0.0021 0.0036,-0.001 0.0057,-0.0031 0.189135,-0.09663 0.12144,-0.08837 0.03876,-0.02171 0.01034,-0.0046 0.0052,-0.0021 0.08682,-0.0155 0.08527,0.02325 0.06718,0.05839 0.03359,0.077 0.0031,0.01344 0.0036,0.03979 v 0.642854 l -0.0047,0.04444 -0.0036,0.01602 -0.0186,0.03772 -0.01705,0.03876 -0.0021,0.001 -10e-4,0.0021 -0.03256,0.02636 -0.03256,0.02687 -0.0021,0.001 -0.0021,0.001 -0.04082,0.0093 -0.04082,0.01033 -0.0026,-5.17e-4 -0.0021,5.17e-4 -0.08216,-0.01757 -0.0124,-0.0057 -0.03514,-0.02015 -0.0015,-0.0016 -0.03152,-0.02274 -0.01447,-0.01034 -0.07545,-0.05478 -0.19637,-0.100252 -0.209806,-0.06821 -0.127641,-0.02015 -0.08992,-0.01447 h -0.220658 l -0.03152,0.0052 -0.186035,0.02946 -0.173116,0.05633 -0.03669,0.01189 -0.19637,0.100252 -0.178284,0.12919 -0.155546,0.156063 -0.129708,0.178285 -0.100252,0.19637 -0.0026,0.0078 -5.16e-4,10e-4 -5.17e-4,0.0026 -0.04651,0.143144 -0.01757,0.05478 -5.17e-4,5.17e-4 -0.03411,0.217557 v 0.220658 l 0.03411,0.217558 0.06821,0.209806 0.100252,0.19637 0.129708,0.178285 0.155546,0.156062 0.178284,0.129191 0.19637,0.100252 0.209807,0.06821 0.217558,0.03462 h 0.220658 l 0.217558,-0.03462 0.05839,-0.01912 0.140043,-0.04547 0.0031,-5.17e-4 0.0062,-0.0026 0.0036,-0.001 0.0057,-0.0031 0.189135,-0.09664 0.12144,-0.08785 0.03876,-0.02222 0.01034,-0.0041 0.0052,-0.0021 0.08682,-0.01602 0.08527,0.02325 0.06718,0.05839 0.03359,0.07751 0.0031,0.01344 0.0036,0.03979 v 7.700306 l -0.0047,0.04444 -0.0021,0.0078 -0.0026,0.01137 -0.01964,0.04134 -0.0186,0.03824 -0.06873,0.05478 -5.17e-4,5.18e-4 -0.0072,0.0036 -0.0863,0.01964 H 0.717785 l -0.04444,-0.0052 -0.01912,-0.0041 -0.07958,-0.03876 -0.05529,-0.06925 -0.0036,-0.0067 -0.01964,-0.08682 V 0.72204 l 0.0052,-0.04444 0.0041,-0.0186 0.03876,-0.0801 0.03049,-0.02429 0.03824,-0.03101 0.0072,-0.0031 0.0863,-0.01964 h 3.433381 19.694923 4.385778 2.06499 5.16816 3.219959 l 0.04444,0.0047 0.0186,0.0047 0.0801,0.03824 0.05529,0.06925 0.0031,0.0072 z M 38.595577,9.7001836 A 0.80000001,0.80000001 0 0 1 37.795626,10.500135 0.80000001,0.80000001 0 0 1 36.995675,9.7001836 0.80000001,0.80000001 0 0 1 37.795626,8.900232 0.80000001,0.80000001 0 0 1 38.595577,9.7001836 Z m 0,3.1000694 a 0.80000001,0.80000001 0 0 1 -0.799951,0.799951 0.80000001,0.80000001 0 0 1 -0.799951,-0.799951 0.80000001,0.80000001 0 0 1 0.799951,-0.800468 0.80000001,0.80000001 0 0 1 0.799951,0.800468 z m 0,3.099553 a 0.80000001,0.80000001 0 0 1 -0.799951,0.79995 0.80000001,0.80000001 0 0 1 -0.799951,-0.79995 0.80000001,0.80000001 0 0 1 0.799951,-0.799951 0.80000001,0.80000001 0 0 1 0.799951,0.799951 z m 0,3.100068 a 0.80000001,0.80000001 0 0 1 -0.799951,0.799951 0.80000001,0.80000001 0 0 1 -0.799951,-0.799951 0.80000001,0.80000001 0 0 1 0.799951,-0.799951 0.80000001,0.80000001 0 0 1 0.799951,0.799951 z m -0.08992,39.499914 a 0.80000001,0.80000001 0 0 1 -0.799951,0.800468 0.80000001,0.80000001 0 0 1 -0.799951,-0.800468 0.80000001,0.80000001 0 0 1 0.799951,-0.79995 0.80000001,0.80000001 0 0 1 0.799951,0.79995 z m 0,3.200322 a 0.80000001,0.80000001 0 0 1 -0.799951,0.799952 0.80000001,0.80000001 0 0 1 -0.799951,-0.799952 0.80000001,0.80000001 0 0 1 0.799951,-0.79995 0.80000001,0.80000001 0 0 1 0.799951,0.79995 z m 0,3.199805 a 0.80000001,0.80000001 0 0 1 -0.799951,0.799951 0.80000001,0.80000001 0 0 1 -0.799951,-0.799951 0.80000001,0.80000001 0 0 1 0.799951,-0.799951 0.80000001,0.80000001 0 0 1 0.799951,0.799951 z m 0,3.200321 a 0.80000001,0.80000001 0 0 1 -0.799951,0.799952 0.80000001,0.80000001 0 0 1 -0.799951,-0.799952 0.80000001,0.80000001 0 0 1 0.799951,-0.800468 0.80000001,0.80000001 0 0 1 0.799951,0.800468 z m -0.809766,-45.320231 -0.03411,-0.218075 -0.06821,-0.209289 -0.100252,-0.196887 -0.129708,-0.178284 -0.155546,-0.155546 -0.178284,-0.129708 -0.196887,-0.100252 -0.209289,-0.06821 -0.218075,-0.03411 h -0.220142 l -0.217557,0.03411 h -5.17e-4 l -0.197921,0.0646 -0.01137,0.0036 -0.19637,0.100252 -0.178284,0.129708 -0.156063,0.155546 -0.129707,0.178284 -0.03824,0.07545 -0.0036,0.0077 -0.02274,0.03617 -0.03049,0.06718 -0.0021,0.0046 -10e-4,0.001 -0.0016,0.0026 -0.0057,0.0155 -0.499195,1.105875 -0.04082,0.0584 -1.544609,1.545125 -0.03514,0.02739 -0.02119,0.01344 -0.08372,0.02946 -0.08785,-0.0098 -0.0047,-0.0015 -0.709,-0.268201 -0.0739,-0.04909 -0.04496,-0.07597 -0.0078,-0.08837 0.03152,-0.08268 0.03152,-0.03617 0.0041,-0.0041 5.17e-4,-0.001 0.001,-5.16e-4 0.0646,-0.06511 0.09095,-0.09095 0.129708,-0.178284 0.100252,-0.19637 0.0677,-0.20929 v -5.17e-4 l 0.03462,-0.217557 v -0.220142 l -0.03462,-0.218075 -0.0677,-0.209289 -0.100252,-0.196887 -0.129708,-0.178284 -0.155546,-0.155546 -0.1788,-0.129708 -0.196371,-0.100252 -0.209289,-0.06821 -0.170016,-0.02687 -0.04806,-0.0072 h -0.219916 l -0.0217,0.0036 -0.19637,0.03049 -0.0801,0.02635 -0.0078,0.0026 -0.04186,0.0098 -0.0708,0.02687 -0.0088,0.0026 -0.001,5.17e-4 -0.01137,0.0046 -1.107943,0.419096 -0.02842,0.01034 -0.07028,0.01292 h -0.926527 l -0.04393,-0.0052 -0.02584,-0.0057 -0.07131,-0.03152 -0.0083,-0.0062 -0.02532,-0.0217 -1.575097,-1.574581 -0.139527,-0.09353 -0.127123,-0.05271 -0.02739,-0.01137 -0.164331,-0.03256 h -1.141533 l -0.08682,-0.01964 -0.02997,-0.01809 -0.590661,-0.426848 -0.04496,-0.04444 -0.426847,-0.591179 -0.03462,-0.08113 -0.0031,-0.03514 v -4.841565 l -0.03256,-0.164331 -0.01137,-0.02739 -0.05219,-0.126607 -5.16e-4,-0.001 -0.06253,-0.09302 -0.0078,-0.0124 -0.02274,-0.03359 -2.036052,-2.036051 -0.02791,-0.03514 -0.01395,-0.02222 -0.0279,-0.07286 v -0.0026 l -0.0016,-0.0072 -0.0026,-0.03359 v -1.707906 l 0.0047,-0.04444 0.001,-0.0031 0.0026,-0.01189 0.03824,-0.0801 0.06925,-0.05478 0.07028,-0.01654 0.01602,-0.0036 0.0031,0.001 0.0832,0.01912 0.0072,0.0031 0.05478,0.03876 0.12144,0.121439 0.191203,0.139011 0.210324,0.10697 0.0015,0.001 0.0057,0.0015 0.217558,0.0708 0.233062,0.03669 h 0.23616 l 0.06408,-0.01033 0.169499,-0.02636 0.06718,-0.02222 0.157095,-0.05116 0.08475,-0.04289 0.125574,-0.06408 0.148311,-0.107487 0.04289,-0.03152 0.166915,-0.166915 0.122473,-0.1684653 0.01654,-0.022738 0.107487,-0.2103231 0.07286,-0.2247925 0.03669,-0.2330607 V 9.046988 l -0.03669,-0.23306 v -5.17e-4 l -0.07286,-0.224276 -0.107487,-0.210323 -0.05529,-0.07596 -0.0217,-0.03876 -0.0078,-0.01809 -0.01602,-0.08733 0.02377,-0.08527 0.0041,-0.0078 0.05426,-0.06356 0.06356,-0.04858 0.04806,-0.06304 0.04806,-0.06253 10e-4,-0.0021 0.0016,-0.0047 0.04444,-0.106453 0.01344,-0.03307 0.0155,-0.117305 V 5.685309 l -0.0083,-0.06408 -0.0098,-0.07441 -0.01447,-0.01964 -5.17e-4,-0.0021 -0.04031,-0.09663 -0.0016,-0.0047 -0.001,-0.0016 -0.05323,-0.06976 -0.04289,-0.05581 -0.125573,-0.09612 -0.0016,-0.001 -0.0047,-0.0021 -0.139526,-0.05736 -0.07803,-0.01033 -0.0016,-5.17e-4 -0.03824,-0.0047 h -0.0047 -1.873788 l -0.02791,0.0036 -0.01033,10e-4 -0.001,5.17e-4 h -0.0041 l -0.0026,5.17e-4 -0.01395,0.0021 -0.05736,0.0078 -0.06408,0.02636 -0.0093,0.0036 -0.0021,5.16e-4 -0.0026,0.001 -0.0026,0.0015 -0.0124,0.0052 -0.03566,0.01447 -0.01085,0.0047 -0.0052,0.0021 -0.0015,0.001 -0.05478,0.04186 -0.0088,0.0067 -0.0046,0.0026 -0.0072,0.0057 -0.0052,0.0047 -0.04496,0.03462 -0.0052,0.0067 -0.03669,0.04754 -0.05426,0.07131 -0.0036,0.0083 -0.0041,0.0057 -0.763261,1.346171 -0.03256,0.04237 -0.732773,0.732772 -0.03514,0.05323 -0.02015,0.02946 -0.0067,0.01033 -0.03101,0.04651 -0.04341,0.104386 -0.01809,0.04392 -0.0021,0.0052 -5.17e-4,0.001 -0.0078,0.04031 -0.0124,0.06201 -0.0124,0.06201 v 0.327628 l -0.0052,0.04444 -0.0031,0.0155 -0.03876,0.07958 -0.06925,0.05529 -0.0863,0.01964 -0.0863,-0.01964 -0.0072,-0.0036 -0.05426,-0.03876 L 16.897199,5.99943 16.841909,5.96222 16.758199,5.90589 16.668799,5.8692 16.603169,5.84181 16.438837,5.80925 H 9.962229 L 9.875929,5.78961 9.845439,5.77152 9.157626,5.27491 9.132306,5.25734 l -0.0036,-0.0021 -0.0047,-0.0026 -0.01188,-0.0067 -0.01447,-0.01085 -0.01757,-0.0072 -0.07183,-0.02997 -0.0093,-0.0041 -0.0093,-0.0041 -0.0021,-5.17e-4 -0.01447,-0.0057 -0.02119,-0.0088 -0.05064,-0.0067 -0.0052,-5.16e-4 -0.0036,-5.17e-4 -0.01705,-0.0036 H 8.863516 L 8.850596,5.16127 8.834576,5.15917 H 6.956164 l -0.06356,0.0083 -0.05374,0.0072 -0.120406,0.05013 -0.02584,0.01034 -0.08062,0.06201 -0.0041,0.0031 -0.02532,0.01964 -0.0155,0.01137 -0.04186,0.05478 -0.05426,0.0708 -0.06046,0.146244 -0.0155,0.117306 v 1.878955 l 0.0155,0.117305 0.05788,0.140043 0.0047,0.01189 0.0015,0.0047 0.01654,0.0155 0.01395,0.01809 0.06201,0.08113 0.05581,0.04289 0.03204,0.03101 0.0124,0.01499 0.03979,0.07906 0.0021,0.08837 -0.0021,0.0088 -0.03359,0.07597 -0.01292,0.01809 -0.02842,0.03876 -0.02015,0.02739 -0.10697,0.210323 -0.03411,0.104904 -0.03876,0.119889 -0.03721,0.233577 v 0.2361614 l 0.03721,0.2330607 0.0021,0.015503 0.0021,0.010852 0.0057,0.00827 0.0072,0.018603 0.05581,0.1715658 0.10697,0.2098063 v 5.167e-4 l 0.13901,0.1912021 0.166915,0.166915 0.15968,0.115755 0.03152,0.02274 0.210323,0.107487 0.224792,0.07286 0.233061,0.03721 H 8.01354 l 0.06046,-0.0098 0.01499,0.001 0.01499,-0.0031 h 0.01499 l 0.01499,0.001 0.0217,0.0067 0.0067,5.16e-4 0.01912,0.0072 0.03772,0.01137 0.06511,0.05943 0.03307,0.08216 -0.0052,0.07648 v 0.0026 5.17e-4 l -10e-4,0.0088 -5.16e-4,0.0021 -0.03204,0.06304 -0.0026,0.0031 -0.0016,0.0021 v 5.17e-4 l -10e-4,5.17e-4 -0.01499,0.01705 -1.02371,1.02371 -0.09302,0.139526 -0.03256,0.07906 -0.03152,0.07545 -0.01602,0.08216 -0.01654,0.08217 v 0.167948 6.909139 l -0.01964,0.0863 -0.01809,0.02997 -0.239779,0.33228 -0.216007,0.29869 -0.04082,0.05684 -0.0057,0.0083 -0.01188,0.01705 -0.0021,0.0041 -0.0026,0.0046 -0.0067,0.01189 -0.01085,0.01395 -0.03721,0.08992 -0.0041,0.0093 -0.0041,0.0093 -5.16e-4,0.0015 -0.0057,0.01499 -0.0088,0.02119 -0.0078,0.05891 -0.0041,0.01705 v 0.01188 l -0.0036,0.02946 v 1.878955 l 0.0155,0.117306 0.05788,0.140043 0.0047,0.01188 0.0015,0.0047 0.01654,0.0155 0.01395,0.01809 0.06201,0.08113 0.05581,0.04289 0.03204,0.03101 0.0124,0.01499 0.03979,0.07906 0.0021,0.08837 -0.0021,0.0083 -0.03359,0.07648 -0.01292,0.01757 -0.02842,0.03927 -0.02015,0.02739 -0.10697,0.210323 -0.03411,0.104386 -0.03876,0.120407 -0.03721,0.23306 v 0.236162 l 0.03721,0.233577 0.0021,0.0155 0.0021,0.01085 0.0057,0.0083 0.0072,0.0186 0.05581,0.171049 0.10697,0.210323 v 5.17e-4 l 0.13901,0.190686 0.166915,0.167431 0.15968,0.115755 0.03152,0.02274 0.210323,0.107487 0.224792,0.07286 0.233061,0.03721 h 0.236161 l 0.08423,-0.01344 0.149345,-0.02377 0.06873,-0.02222 0.155546,-0.05064 0.21084,-0.107487 0.132292,-0.09612 0.05839,-0.04237 0.167432,-0.167431 0.10852,-0.149345 0.02997,-0.04134 0.107487,-0.21084 0.03824,-0.117306 0.03462,-0.10697 0.03669,-0.233577 V 24.08161 l -0.03669,-0.23306 -0.07286,-0.224793 -0.107487,-0.210323 -0.05529,-0.07596 -0.0217,-0.03876 -0.0078,-0.01809 -0.01602,-0.08682 0.02377,-0.08527 0.0041,-0.0078 0.05426,-0.06356 0.06356,-0.04909 0.0615,-0.0801 0.03462,-0.04547 0.001,-0.0015 0.0021,-0.0047 0.04392,-0.106453 0.01344,-0.03307 0.0021,-0.01602 0.01344,-0.101286 v -1.815393 l 10e-4,-0.0062 -10e-4,-0.0093 v -0.04806 l -0.0155,-0.117305 -0.0026,-0.02222 -0.0124,-0.01705 -0.0041,-0.0098 -0.0057,-0.01757 -0.01085,-0.02015 -0.0031,-0.0083 -5.17e-4,-5.17e-4 -5.17e-4,-0.0015 -0.01757,-0.04238 -0.0021,-0.0052 -10e-4,-0.0015 -0.01447,-0.01912 -0.01757,-0.02687 -0.0072,-0.01395 -0.49661,-0.687814 -0.03462,-0.08165 -0.0031,-0.03462 v -6.536035 l 0.0047,-0.04444 0.0062,-0.02584 0.03152,-0.0708 0.0062,-0.0083 0.02119,-0.02584 0.689881,-0.689364 1.792138,-1.792138 1.915646,-1.915645 0.900203,-0.900204 0.03462,-0.02791 0.02274,-0.01395 0.07235,-0.02791 0.01033,-0.0015 0.03307,-0.0026 h 1.611271 l 0.04444,0.0047 0.02584,0.0062 0.0708,0.03152 0.0083,0.0062 0.02584,0.0217 3.597714,3.597196 0.02739,0.03462 0.01447,0.02274 0.02739,0.07235 0.0021,0.01033 0.0026,0.03307 v 1.232483 l 0.02481,0.124023 0.0078,0.04031 0.01912,0.04547 0.04496,0.109554 0.09302,0.13901 2.036052,2.036051 0.02791,0.03462 0.01395,0.02274 0.0279,0.07235 0.0016,0.01034 0.0031,0.03307 v 4.306714 l -0.01964,0.0863 -0.01809,0.02997 -0.186552,0.258382 -0.300757,0.416513 -0.0098,0.01344 -0.0052,0.0077 -0.01188,0.01757 -0.0021,0.0036 -0.0026,0.0047 -0.0067,0.01189 -0.01085,0.01395 -0.03721,0.08992 -0.0041,0.0093 -0.0047,0.0093 -5.17e-4,0.0015 -0.0052,0.01499 -0.0088,0.02119 -0.0078,0.05943 -0.0041,0.01654 v 0.0124 l -0.0036,0.02894 v 1.878955 l 0.0155,0.117306 0.05788,0.140043 0.0047,0.01189 0.0016,0.0046 0.01654,0.0155 0.01395,0.01809 0.06201,0.08113 0.03876,0.02997 0.01705,0.01292 0.03204,0.03101 0.0124,0.01499 0.03979,0.07906 0.0021,0.08837 -0.0021,0.0088 -0.03359,0.07596 -0.03669,0.05064 -0.02481,0.03359 -0.10697,0.21084 -0.03721,0.114205 -0.03617,0.110071 -0.03669,0.233577 v 0.236161 l 0.03669,0.233061 0.0026,0.0155 0.0021,0.01085 0.0057,0.0083 0.0072,0.0186 0.05581,0.171565 0.05839,0.114722 0.04857,0.0956 5.17e-4,5.16e-4 0.03256,0.06408 0.0062,0.0031 0.03876,0.03979 0.0047,0.0067 0.05116,0.07028 0.0052,0.0067 0.166915,0.166915 0.191203,0.138493 0.210324,0.107487 0.0015,5.17e-4 0.0057,0.0021 0.217558,0.07028 0.233062,0.03721 h 0.23616 l 0.06408,-0.01033 0.169499,-0.02687 0.06718,-0.0217 0.157095,-0.05116 0.08475,-0.04289 0.125574,-0.0646 0.148311,-0.10697 0.04289,-0.03152 0.166915,-0.166915 0.122473,-0.168465 0.01654,-0.02274 0.107487,-0.210324 0.07286,-0.224792 0.03669,-0.233061 V 24.04706 l -0.03669,-0.233577 -0.07286,-0.224276 -0.107487,-0.21084 -0.05529,-0.07596 -0.0217,-0.03876 -0.0072,-0.01654 -0.01602,-0.08682 0.02377,-0.08527 0.05839,-0.06666 5.17e-4,-5.17e-4 0.684712,-0.494544 0.08165,-0.03462 0.03514,-0.0031 h 0.60048 l 0.04444,0.0046 0.02584,0.0062 0.0708,0.03152 0.0083,0.0062 0.02584,0.0217 0.684713,0.684712 0.890385,0.889869 0.13901,0.09302 0.155029,0.06408 0.06046,0.0124 0.10387,0.02067 h 1.467094 l 0.07028,0.01292 0.583427,0.220142 0.0739,0.04909 0.04547,0.07596 0.0078,0.08837 -0.03152,0.08268 -0.06408,0.0615 -0.03152,0.01499 -0.64182,0.242362 -0.02119,0.0067 -0.0052,0.0016 -0.077,0.0155 -0.02739,0.01085 -0.01395,0.0036 h -0.0026 l -0.0072,0.0026 -0.0052,0.001 -0.01447,0.01034 -0.0072,0.0036 -0.077,0.03204 -0.03256,0.0217 -0.04341,0.02894 -0.06305,0.04237 -3.118673,3.118155 -0.0083,0.01292 -0.08475,0.126607 -0.04496,0.10852 -0.01654,0.03979 -0.0026,0.0052 v 0.001 l -0.0083,0.04031 -0.0062,0.03204 -0.01809,0.09198 v 0.167949 5.459099 l -0.0052,0.04392 -0.0057,0.02584 -0.03204,0.0708 -0.0057,0.0088 -0.0217,0.02532 -1.940967,1.940965 -0.07493,0.04703 -0.08785,0.0098 -0.05581,-0.01447 -0.219109,-0.09353 -0.07183,-0.05168 -0.04186,-0.07803 -0.0041,-0.08837 0.03462,-0.08165 0.02067,-0.02377 0.05633,-0.05684 0.13901,-0.190686 0.106971,-0.210323 0.07286,-0.224793 0.03721,-0.233577 V 35.13165 l -0.03721,-0.233061 -0.07286,-0.224792 -0.106971,-0.210324 -0.09974,-0.137459 -0.02222,-0.03876 -0.0078,-0.01757 -0.0155,-0.08733 0.02326,-0.08527 0.0046,-0.0083 0.05064,-0.06098 0.02015,-0.01602 0.01344,-0.01137 0.101286,-0.126091 0.01705,-0.02067 0.0279,-0.05685 0.0031,-0.0052 0.05219,-0.106454 0.04548,-0.182417 0.0031,-0.04237 v -1.11001 l 0.0052,-0.04392 0.0036,-0.0186 0.03876,-0.07958 0.06925,-0.05529 0.0832,-0.01964 h 0.0031 0.01344 l 0.04186,0.0036 0.0677,0.01344 h 0.196887 l 0.129192,-0.02584 0.06408,-0.0124 0.09715,-0.04031 0.08475,-0.03514 0.001,-0.001 h 5.17e-4 l 0.16278,-0.108521 0.13901,-0.139526 0.06821,-0.101803 0.04134,-0.06201 0.07545,-0.181902 0.01343,-0.06821 0.0124,-0.0615 0.0041,-0.02119 0.0083,-0.04237 v -0.197404 l -0.0093,-0.04806 -0.02894,-0.145211 -0.07545,-0.181901 -0.109554,-0.163815 -0.13901,-0.139526 -0.16433,-0.109554 -0.181902,-0.07545 -0.19327,-0.03824 h -0.196887 l -0.19327,0.03824 -0.182417,0.07545 -0.06046,0.04031 -0.103354,0.06925 -0.139008,0.139526 -0.04393,0.06563 -0.06563,0.09819 -0.03566,0.08527 -0.03979,0.09663 -0.03721,0.187585 -0.0015,0.0057 -0.0021,0.0098 -0.0072,0.03049 -0.03824,0.0801 -0.06925,0.05529 -0.0041,0.0021 -0.0708,0.01912 -0.01137,5.17e-4 -0.01602,5.16e-4 h -1.565796 l -0.0026,5.17e-4 h -0.0016 l -0.03824,0.0026 -0.182418,0.04547 -0.09302,0.04599 -0.07545,0.03772 -0.09354,0.07493 -0.05323,0.04289 -0.03256,0.04031 -0.08527,0.106453 -0.08372,0.168466 -0.04547,0.182417 -0.0031,0.04237 v 1.421102 l 0.0031,0.04237 0.01912,0.077 v 5.17e-4 5.18e-4 l 0.0057,0.04289 5.17e-4,0.01447 -0.0047,0.02222 v 0.0078 l -0.0031,0.0072 -0.01034,0.04961 -0.05374,0.07028 -0.07906,0.03979 -0.08888,0.0021 -0.04031,-0.01757 -0.01034,-0.0021 -0.0067,-0.0052 -0.0155,-0.0067 -0.0072,-0.0052 -0.02739,-0.02274 -1.93735,-1.937349 -0.04031,-0.05891 -0.225825,-0.499711 -0.01757,-0.08682 0.01757,-0.077 0.225825,-0.499711 0.04031,-0.05891 1.017509,-1.016992 0.06305,-0.09457 0.02997,-0.04496 0.06925,-0.167431 5.17e-4,-0.01602 0.01344,-0.06718 0.01344,-0.06821 v -8.78086 l 0.0021,-0.02584 0.0031,-0.02532 v -0.849561 l -0.0016,-0.01602 -0.0021,-0.01912 -0.0016,-0.0155 v -0.03566 l -0.03256,-0.164331 -0.01344,-0.03256 -0.01499,-0.0832 0.01034,-0.296106 5.16e-4,-0.0088 5.17e-4,-0.0052 v -0.252181 l -0.01188,-0.07493 -0.02481,-0.153996 -0.0031,-0.01964 -0.07751,-0.239779 -0.03772,-0.0739 -0.0047,-0.01188 -5.17e-4,-0.0041 -5.17e-4,-0.0026 h -5.15e-4 l -0.0021,-0.0062 -0.571542,-1.378211 -0.0155,-0.07596 v -2.165243 l 0.0155,-0.07596 0.176734,-0.426847 0.394808,-0.951364 0.0026,-0.0072 0.0041,-0.01189 0.0093,-0.0217 0.02997,-0.05788 0.07751,-0.239778 5.17e-4,-0.0015 0.01654,-0.104386 0.0057,-0.03514 0.01705,-0.107487 v -0.252181 l -0.01188,-0.07493 -0.02739,-0.172082 -5.17e-4,-0.0015 -0.07751,-0.239778 -0.114722,-0.224276 -0.147794,-0.204122 -0.178284,-0.177767 -0.03721,-0.02739 -0.155029,-0.112655 -0.01137,-0.0083 -0.224793,-0.114205 -0.239262,-0.07803 H 17.97 17.969 l -0.196371,-0.03152 -0.05116,-0.0077 h -0.251664 l -0.02015,0.0031 -0.227377,0.03617 h -10e-4 -5.17e-4 l -0.239779,0.07803 -0.223758,0.113688 -5.17e-4,5.17e-4 -10e-4,0.001 -0.0863,0.06253 -0.116272,0.08475 -0.178284,0.177767 -5.16e-4,0.001 -0.0016,0.0026 -0.146244,0.200504 v 5.17e-4 l -0.114205,0.223759 -0.07751,0.239778 -0.03979,0.248564 v 0.252181 l 0.03979,0.248564 0.07751,0.239778 0.03204,0.06253 0.01137,0.02997 h 5.17e-4 l 0.0021,0.0062 0.401527,0.967383 0.170014,0.410828 0.0155,0.07596 v 2.165243 l -0.0155,0.07596 -0.571541,1.378211 -0.0067,0.01912 -0.0093,0.0217 -0.02997,0.05788 -0.07751,0.239779 -0.03979,0.248564 v 0.252181 l 0.03979,0.248563 0.07751,0.239779 0.114205,0.224276 0.148311,0.204122 0.178284,0.178283 0.203605,0.147795 0.173116,0.08837 0.05116,0.02584 0.0016,0.001 0.0062,0.0016 0.232027,0.07545 0.134359,0.02119 0.04289,0.01188 0.01809,0.0072 0.07286,0.05064 0.04393,0.077 0.0021,0.0077 0.0016,0.0057 0.0088,0.05736 v 8.143173 l -0.0052,0.04392 -0.0057,0.02636 -0.03204,0.0708 -0.0057,0.0083 -0.0217,0.02584 -0.638721,0.638719 -0.05891,0.04031 -1.106909,0.499711 -0.0093,0.0041 -0.0031,10e-4 -0.0041,0.0021 -0.0083,0.0041 -0.06511,0.02946 -0.01705,0.0078 -5.17e-4,5.17e-4 -0.05064,0.02997 -0.01137,0.0062 -0.03927,0.02015 -0.178283,0.129708 -0.156063,0.155546 -0.129708,0.178284 -0.09974,0.19637 -0.0026,0.0078 -5.17e-4,10e-4 -5.16e-4,0.0026 -0.04651,0.143144 -0.01809,0.05478 v 5.16e-4 l -0.03462,0.217558 v 0.220659 l 0.03462,0.217557 0.06821,0.209807 0.09974,0.19637 0.129708,0.178284 0.156063,0.156063 0.178283,0.129707 0.08268,0.04186 0.03617,0.02274 0.06925,0.03101 0.0083,0.0041 0.0072,0.0031 0.0062,0.0026 0.634586,0.286288 0.471288,0.212907 0.05891,0.04082 1.134298,1.134298 1.481563,1.481563 0.02325,0.02997 0.163814,0.163815 0.03927,0.03256 0.02481,0.0248 0.139526,0.09302 0.154513,0.06408 0.02894,0.0057 0.04754,0.01602 0.59738,0.288871 0.06925,0.05529 0.03824,0.07958 v 0.08888 l -0.03824,0.07958 -0.01499,0.01654 -0.07441,0.07441 -0.04703,0.06511 -0.09147,0.12609 -0.08216,0.161231 -0.02532,0.04909 -0.07286,0.224793 -0.03721,0.233061 v 0.236161 l 0.03721,0.233577 0.0026,0.0155 0.0015,0.01085 0.0057,0.0083 0.0072,0.0186 0.05581,0.171049 0.107487,0.210323 0.09147,0.126091 0.04703,0.06511 0.11989,0.119889 0.0036,0.0041 0.0026,0.0047 0.01757,0.02222 0.01033,0.01654 0.01137,0.03204 0.001,0.0021 v 0.001 l 0.01705,0.04857 -0.0098,0.08785 -0.0026,0.0078 -0.04754,0.07493 -0.123506,0.123506 -0.04703,0.06511 -0.09147,0.12609 -0.08216,0.161231 -0.02532,0.04909 -0.07286,0.224793 -0.03721,0.23306 v 0.236162 l 0.03721,0.233577 0.0026,0.01499 0.0015,0.01137 0.0057,0.0078 0.0072,0.01912 0.05581,0.171049 0.107487,0.210323 0.09147,0.12609 0.04703,0.06511 0.11989,0.119889 0.0036,0.0041 0.0026,0.0047 0.01757,0.02222 0.01033,0.01654 0.01137,0.03204 10e-4,0.0021 v 10e-4 l 0.01705,0.04806 -0.0098,0.08837 -0.0026,0.0072 -0.04754,0.07493 -0.123506,0.124023 -0.04703,0.06511 -0.09147,0.126091 -0.08216,0.16123 -0.02532,0.04909 -0.07286,0.224276 -0.03721,0.233577 v 0.236161 l 0.03721,0.233061 0.0026,0.0155 0.0015,0.01137 0.0057,0.0078 0.0072,0.0186 0.05581,0.171566 0.107487,0.210323 0.09147,0.12609 0.04703,0.06511 0.166915,0.166915 0.01344,0.0098 0.01292,0.01395 10e-4,0.0016 0.0036,0.0031 0.01292,0.01499 0.04186,0.07803 0.0041,0.08837 -0.03101,0.07596 -0.0083,0.01189 -0.02429,0.02894 -0.116788,0.116789 -0.129192,0.178284 -0.08578,0.168982 -0.01447,0.02739 -0.0677,0.209807 -0.0124,0.07751 h 0.513147 a 0.89999998,0.89999998 0 0 1 0.865063,-0.650089 h 0.150379 a 0.89999998,0.89999998 0 0 1 0.862996,0.650089 h 0.514181 l -0.0124,-0.07648 v -0.001 l -0.06821,-0.209807 -0.100253,-0.19637 -0.129191,-0.178284 -0.114205,-0.114205 -0.02791,-0.03462 -0.01033,-0.01654 -0.02945,-0.08372 0.0098,-0.08785 0.04237,-0.07028 0.01034,-0.01034 0.02584,-0.02325 0.0021,-0.0016 5.17e-4,-5.17e-4 5.16e-4,-5.17e-4 0.166915,-0.166915 0.13901,-0.191202 0.106971,-0.210323 0.07286,-0.224793 0.03721,-0.233061 v -0.236161 l -0.03721,-0.233577 -0.07286,-0.224276 -0.106971,-0.210323 -0.13901,-0.191203 -0.115755,-0.116272 -0.0279,-0.03462 -0.01034,-0.01654 -0.02946,-0.08372 0.0098,-0.08785 0.0031,-0.0078 0.04703,-0.07493 0.123506,-0.123506 0.13901,-0.191203 0.106971,-0.210323 0.07286,-0.224276 v -5.17e-4 l 0.03721,-0.23306 v -0.236154 l -0.03721,-0.23306 -0.07286,-0.224793 -0.106971,-0.210323 -0.13901,-0.191203 -0.05633,-0.05633 -0.04702,-0.07493 -0.01034,-0.08837 0.02946,-0.0832 0.06253,-0.06305 0.0279,-0.01447 0.711069,-0.302824 0.01499,-0.0057 0.01189,-0.0041 h 0.0021 l 0.05736,-0.01188 0.08837,-0.03669 0.06666,-0.02739 0.02687,-0.01809 0.04599,-0.03049 0.04082,-0.02739 0.02532,-0.01705 0.0093,-0.0093 0.0098,-0.0072 0.0021,-0.0016 0.04393,-0.03979 0.05529,-0.05529 0.03256,-0.03979 2.715597,-2.715596 0.0067,-0.01034 0.0124,-0.01809 0.0041,-0.0067 0.06976,-0.10387 0.03462,-0.08372 0.0057,-0.01034 0.0124,-0.01395 0.0078,-0.03824 0.0036,-0.0088 0.03256,-0.164331 v -5.62653 l 0.0052,-0.04444 0.0057,-0.02584 0.03204,-0.0708 0.0057,-0.0083 0.0217,-0.02584 2.211235,-2.211235 0.07493,-0.04702 0.08785,-0.0098 0.04806,0.01189 0.04444,0.01654 0.0739,0.04909 0.04548,0.07596 0.0078,0.08837 -0.03152,0.08268 -0.0052,0.0072 -0.01757,0.02429 -0.01705,0.01292 -0.0863,0.115238 -0.01085,0.02842 -0.01499,0.04134 -0.02429,0.0646 -0.0067,0.05994 v 0.597379 h 0.500228 v -0.549837 h 1.599903 v 0.549837 h 0.500227 v -0.597379 l -0.0067,-0.05994 -0.03927,-0.105937 -0.01085,-0.02842 -0.0863,-0.115238 -0.01705,-0.01292 -0.01757,-0.02429 -0.0062,-0.01395 -0.0098,-0.01137 -0.0072,-0.02894 -0.01188,-0.02739 5.16e-4,-0.01499 -0.0036,-0.01447 0.0057,-0.02945 0.001,-0.02946 0.0072,-0.01344 0.0031,-0.01447 0.01757,-0.02377 0.01395,-0.02635 0.0124,-0.0088 0.0093,-0.01189 0.03927,-0.02325 0.01085,-0.0083 0.0036,-5.17e-4 0.0047,-0.0026 0.03049,-0.01137 0.169499,-0.06408 0.273368,-0.103352 0.07028,-0.01292 h 0.517281 l 0.0832,-0.01654 0.01085,-0.0021 0.07028,-0.01395 0.0925,-0.03876 0.06253,-0.02532 0.139009,-0.09353 1.927531,-1.927014 0.05839,-0.04082 h 5.16e-4 l 0.68368,-0.308509 0.329695,-0.148828 0.09198,-0.04186 0.0098,-0.0041 0.0036,-0.0015 0.0083,-0.0041 0.06925,-0.03101 0.01757,-0.0083 h 5.17e-4 l 0.02739,-0.01654 0.02274,-0.01344 0.01137,-0.0062 0.0026,-0.0015 0.03721,-0.0186 0.174667,-0.127124 0.0036,-0.0026 0.155546,-0.156063 0.129708,-0.178284 0.100252,-0.19637 0.06821,-0.20929 v -5.17e-4 l 0.03411,-0.217558 z m 0,29.719633 -0.03411,-0.217558 -0.0083,-0.02481 -0.01809,-0.05581 -0.0026,-0.0078 -0.0098,-0.04186 -0.02687,-0.0708 -0.0015,-0.0041 -10e-4,-0.0047 -5.16e-4,-0.001 -0.0047,-0.01085 -0.21084,-0.55759 -0.209807,-0.555004 -0.0088,-0.02377 -0.0098,-0.03514 -0.0031,-0.01757 v -0.05529 l -0.03256,-0.164331 -0.0041,-0.0093 -0.0021,-0.0047 -0.0062,-0.01499 -0.05168,-0.125574 -0.09353,-0.139526 -3.548104,-3.548104 -0.139526,-0.09302 -0.127641,-0.05323 -0.02687,-0.01085 -0.164331,-0.03307 h -0.657324 l -0.0708,-0.01292 -0.472839,-0.178801 -0.0739,-0.04909 -0.04548,-0.07596 -0.0078,-0.08837 0.03152,-0.08268 0.0047,-0.0072 0.01809,-0.02429 0.01705,-0.01292 0.0863,-0.115238 0.01085,-0.02842 0.03927,-0.105937 0.0067,-0.05994 v -0.59738 h -0.500228 v 0.549837 h -1.599902 v -0.549837 h -0.500228 v 0.59738 l 0.0067,0.05994 0.05013,0.134359 0.0863,0.115238 0.119373,0.08992 0.0057,0.0057 5.17e-4,5.17e-4 0.01757,0.01602 0.05168,0.07183 0.0155,0.08733 -0.02429,0.08527 -0.0062,0.01137 -0.03359,0.04547 -0.05736,0.05684 -0.129708,0.1788 -0.100251,0.196371 -0.0021,0.0072 -10e-4,0.0016 -5.18e-4,0.0021 -0.04651,0.143144 -0.01757,0.05478 -5.16e-4,5.16e-4 -0.03411,0.218075 v 0.220142 l 0.03411,0.218074 0.06821,0.20929 0.100251,0.19637 0.129708,0.1788 0.155546,0.155547 0.001,5.16e-4 v 5.17e-4 l 0.0047,0.0047 -5.17e-4,5.17e-4 0.04858,0.06563 0.01654,0.08682 -0.02222,0.08578 -0.05788,0.06718 -0.04806,0.02635 -0.70435,0.266134 -0.01137,0.0041 -0.07028,0.01292 h -2.052576 l -0.163814,0.03307 h -5.17e-4 l -0.0021,5.17e-4 -0.0041,0.0021 -0.106454,0.04392 -0.02636,0.01085 -0.0155,0.0067 -0.09354,0.06253 -0.04599,0.03049 -2.0283,2.0283 -0.05633,0.03979 -1.067635,0.500746 -0.289905,0.136426 -0.108521,0.05064 -0.08475,0.01912 h -0.376722 l -0.08785,0.01189 -0.02946,0.0036 -0.120406,0.05013 -0.02532,0.01033 -0.07493,0.05736 -0.0047,0.0036 -0.04599,0.03514 -0.02842,0.03721 -0.01499,0.01964 -0.05271,0.06873 -0.001,0.0016 -0.0021,0.0052 -0.0072,0.01809 -0.05064,0.12144 -0.0155,0.117305 v 0.376204 l -0.0186,0.08475 -0.310575,0.661975 -0.303858,0.646989 -0.0739,0.157613 -0.03927,0.05633 -0.713652,0.713135 -0.08992,0.134876 -0.0016,0.0026 -0.0016,0.0021 -0.001,0.0016 -0.0026,0.0072 -0.03721,0.08888 -0.0046,0.01188 -0.01602,0.03876 -0.0026,0.0052 v 0.001 l -0.0083,0.04031 -0.0124,0.06201 -0.0124,0.06201 v 10.501684 l -0.0047,0.04444 -0.0062,0.02584 -0.03152,0.0708 -0.0062,0.0083 -0.02119,0.02584 -1.217498,1.217495 -0.03514,0.02791 -0.02222,0.01395 -0.07286,0.02791 -0.0098,0.0015 -0.03359,0.0026 H 9.962578 l -0.0863,-0.01964 -0.03049,-0.01809 -0.590661,-0.426332 -0.04496,-0.04496 -0.42633,-0.590663 -0.03462,-0.08165 -0.0031,-0.03514 v -5.27668 l -0.02687,-0.133325 -0.0062,-0.03101 -0.01809,-0.04341 -0.01499,-0.03721 -0.02687,-0.06511 -0.0031,-0.0072 -0.09405,-0.141077 -2.335775,-2.335775 -0.02791,-0.03514 -0.01395,-0.02222 -0.02791,-0.07286 -5.17e-4,-0.0026 -0.001,-0.0072 -0.0031,-0.03359 v -2.491321 l 0.0052,-0.04393 0.0057,-0.02635 0.03204,-0.0708 0.0057,-0.0083 0.0217,-0.02584 0.09405,-0.09353 0.03514,-0.0279 0.01034,-0.0067 0.0832,-0.02946 0.08837,0.01034 0.07493,0.04703 0.04703,0.07493 0.01034,0.08578 -0.0016,0.01085 -0.0083,0.04134 -0.01757,0.05323 v 0.001 l -0.03721,0.23306 v 0.236162 l 0.03721,0.233577 0.0021,0.01499 0.0021,0.01137 0.0057,0.0083 0.0072,0.0186 0.05581,0.17105 0.01344,0.02635 0.09353,0.183968 0.08061,0.111105 0.0584,0.0801 0.166915,0.166914 0.191202,0.13901 0.01034,0.0052 0.199988,0.10232 0.224792,0.07286 0.233061,0.03669 h 0.236161 l 0.08682,-0.01344 0.146761,-0.02325 0.224276,-0.07286 0.21084,-0.107488 0.126607,-0.09198 0.06408,-0.04703 0.167432,-0.166914 0.102319,-0.141594 0.03617,-0.04961 0.107487,-0.210322 0.07286,-0.224277 v -5.17e-4 l 0.03669,-0.23306 v -0.236162 l -0.03669,-0.23306 -0.07286,-0.224793 -0.107487,-0.210323 -0.05478,-0.07596 -0.02222,-0.03876 -0.0078,-0.01809 -0.01602,-0.08682 0.02377,-0.08578 0.0041,-0.0072 0.05426,-0.06408 0.06356,-0.04858 0.05013,-0.06511 0.04599,-0.06046 0.001,-0.0016 0.0021,-0.0052 0.02687,-0.06511 0.02791,-0.0677 0.0021,-0.0047 5.17e-4,-0.0021 0.0021,-0.0124 0.01034,-0.07958 0.0031,-0.02532 v -1.878438 l -0.0078,-0.06305 -0.01033,-0.07596 -0.01395,-0.01964 -10e-4,-0.0016 -0.03979,-0.09715 -0.0021,-0.0047 -10e-4,-0.0016 -0.09612,-0.125574 -0.12454,-0.0956 -10e-4,-5.17e-4 -0.145727,-0.06046 -0.112138,-0.01499 -0.0052,-5.17e-4 H 7.156086 l -0.04702,0.0062 -0.07028,0.0093 -0.121956,0.05013 -0.02429,0.01034 -0.05374,0.04134 -0.07183,0.05478 -0.04186,0.05426 -0.05426,0.07131 -0.03876,0.09405 -0.0217,0.05168 -0.0036,0.02997 -0.0072,0.03256 -0.0047,0.01447 -0.03307,0.193269 -0.03359,0.08217 -0.03617,0.03876 -0.0031,0.0026 -0.556037,0.555522 -0.04599,0.05271 -0.0088,0.0098 -1.124996,1.12448 -0.118339,0.118338 -0.06201,0.09302 -0.03101,0.04651 -0.02739,0.06666 -0.03669,0.08785 -0.01654,0.08268 -0.01602,0.08165 v 3.567741 l 0.02429,0.124024 0.0083,0.04031 0.0186,0.04548 0.04547,0.109554 0.09302,0.139009 2.336292,2.336292 0.02739,0.03462 0.01447,0.02222 0.02739,0.07287 0.0021,0.01033 0.0026,0.03307 v 4.741311 l -0.01964,0.0863 -0.01809,0.03049 -0.239779,0.331764 -0.216007,0.298689 -0.04082,0.05736 -0.0057,0.0083 -0.01188,0.01705 -0.0021,0.0036 -0.0026,0.0047 -0.0067,0.01189 -0.01085,0.01447 -0.03721,0.0894 -0.0041,0.0093 -0.0041,0.0093 -5.16e-4,0.0021 -0.0057,0.01447 -0.0088,0.02119 -0.0078,0.05943 -0.0041,0.01705 v 0.01188 l -0.0036,0.02894 v 1.878954 l 0.0155,0.117306 0.05788,0.140044 0.0047,0.0124 0.0015,0.0047 0.01654,0.01499 0.01395,0.01809 0.06201,0.08165 0.05581,0.04237 0.03204,0.03101 0.0124,0.01499 0.03979,0.07906 0.0021,0.08837 -0.0021,0.0088 -0.03359,0.07648 -0.01292,0.01757 -0.02842,0.03927 -0.02015,0.02739 -0.10697,0.210322 -0.03411,0.104386 -0.03876,0.11989 -0.03721,0.233577 v 0.236162 l 0.03721,0.23306 0.0021,0.0155 0.0021,0.01137 0.0057,0.0078 0.0072,0.01912 0.05581,0.171049 0.10697,0.209806 v 5.17e-4 l 0.13901,0.191203 0.166915,0.166913 0.15968,0.116273 0.03152,0.02274 0.210323,0.10697 0.224792,0.07338 0.233061,0.03669 H 8.01351 l 0.08423,-0.01344 0.149345,-0.02325 0.06873,-0.02274 0.155546,-0.05064 0.21084,-0.10697 0.132292,-0.09612 0.05839,-0.04289 0.167432,-0.166913 0.10852,-0.149862 0.02997,-0.04134 0.107487,-0.210323 0.06304,-0.193787 0.0098,-0.03101 0.03669,-0.23306 v -0.236162 l -0.03669,-0.23306 v -5.17e-4 l -0.07286,-0.224276 -0.107487,-0.210322 -0.05529,-0.07596 -0.0217,-0.03876 -0.0072,-0.01654 -0.0155,-0.08733 0.02326,-0.08527 0.05839,-0.06666 5.17e-4,-5.17e-4 0.684712,-0.494544 0.08165,-0.03462 0.03514,-0.0031 h 9.156548 l 0.02997,-0.0062 0.09663,-0.01912 0.03772,-0.0072 0.111621,-0.04599 0.02946,-0.0124 0.0036,-0.0015 0.0078,-0.0031 0.0021,-0.001 0.139525,-0.09302 0.523482,-0.523998 0.526583,-0.526066 0.07493,-0.04703 0.08785,-0.0098 0.08372,0.02894 0.06253,0.06253 0.01189,0.0217 0.427365,0.911056 0.01912,0.08475 v 0.376722 l 0.0155,0.117305 0.05788,0.140042 0.0047,0.01189 0.0016,0.0046 0.01654,0.0155 0.01395,0.01809 0.06201,0.08113 0.03876,0.02997 0.01705,0.01292 0.03204,0.03101 0.0124,0.01499 0.03979,0.07855 0.0021,0.08888 -0.0021,0.0083 -0.03359,0.07648 -0.03669,0.05064 -0.02481,0.03359 -0.10697,0.210323 -0.03721,0.114722 -0.03617,0.11007 -0.03669,0.233062 v 0.23616 l 0.03669,0.233577 0.0026,0.0155 0.0021,0.01085 0.0057,0.0083 0.0072,0.0186 0.05581,0.171566 0.05839,0.114722 0.04857,0.0956 h 5.17e-4 l 0.03256,0.06459 0.0062,0.0031 0.03876,0.03979 0.0047,0.0062 0.05116,0.07028 0.0052,0.0067 0.166915,0.167432 0.191203,0.138493 0.210324,0.107485 0.0015,5.17e-4 0.0057,0.0021 0.217558,0.07028 0.233062,0.03721 h 0.23616 l 0.06408,-0.01034 0.169499,-0.02687 0.06718,-0.0217 0.157095,-0.05116 0.08475,-0.04341 0.125574,-0.06408 0.148311,-0.107488 0.04289,-0.03101 0.166915,-0.167432 0.122473,-0.167948 0.01654,-0.02274 0.107487,-0.210324 0.07286,-0.224793 0.03669,-0.233577 v -0.23616 l -0.03669,-0.233062 -0.07286,-0.224792 -0.107487,-0.210323 -0.05529,-0.07596 -0.0217,-0.03876 -0.0078,-0.01757 -0.01602,-0.08733 0.02377,-0.08527 0.0041,-0.0078 0.05426,-0.06356 0.06356,-0.04909 0.04806,-0.06253 0.04806,-0.06305 10e-4,-0.0016 0.0016,-0.0047 0.04444,-0.106453 0.01344,-0.03307 0.0155,-0.117305 v -1.879112 l -0.0083,-0.06408 -0.0098,-0.07493 -0.01447,-0.01964 -5.17e-4,-0.0015 -0.04031,-0.09664 -0.0016,-0.0052 -10e-4,-0.0015 -0.09612,-0.125574 -0.125057,-0.0956 -5.16e-4,-5.17e-4 -0.145728,-0.06046 -0.07958,-0.01033 -0.01602,-0.0021 -0.02222,-0.0031 h -0.376205 l -0.08475,-0.0186 -1.125512,-0.52865 -0.20619,-0.09664 -0.134875,-0.06305 -0.05581,-0.03979 -0.03101,-0.03101 -0.02791,-0.03462 -0.01447,-0.02274 -0.02739,-0.07235 -5.17e-4,-0.0026 -0.001,-0.0078 -0.0031,-0.03307 v -8.968445 l 0.0052,-0.04393 5.17e-4,-0.0036 0.0031,-0.01189 0.03824,-0.07958 0.06925,-0.0553 0.0863,-0.01964 h 0.001 l 0.08527,0.01964 0.0072,0.0036 0.05426,0.03824 0.121957,0.121955 0.190685,0.138493 0.210324,0.107488 0.0015,5.16e-4 0.0062,0.0021 0.217041,0.07028 0.233577,0.03721 h 0.236162 l 0.0098,-0.0016 0.0217,-0.0036 0.201538,-0.03204 0.03204,-0.01033 0.192754,-0.06253 0.06821,-0.03514 0.142111,-0.07235 0.191201,-0.138493 0.166915,-0.167431 0.138493,-0.190687 0.107487,-0.210323 0.07286,-0.224792 0.03721,-0.233578 v -0.236161 l -0.03721,-0.23306 -0.07286,-0.224793 -0.10697,-0.210323 -0.05529,-0.07596 -0.02222,-0.03876 -0.0078,-0.01757 -0.0155,-0.08733 0.02325,-0.08527 0.0041,-0.0078 0.05426,-0.06356 0.06408,-0.04909 0.04806,-0.06253 0.04806,-0.06305 5.17e-4,-0.0016 0.0021,-0.0046 0.05529,-0.133325 0.0021,-0.0047 5.17e-4,-0.0016 0.0155,-0.117306 v -0.376524 l 0.0186,-0.08475 0.68833,-1.466578 0.03927,-0.05581 1.646411,-1.646412 0.03462,-0.02739 0.02274,-0.01447 0.07235,-0.02739 0.01034,-0.0021 0.03307,-0.0026 h 1.51722 l 0.07028,0.01292 0.152962,0.05788 0.992188,0.374654 0.0036,0.0021 0.0083,0.0026 0.0057,0.0021 0.04186,0.01602 0.02377,0.0088 0.01757,0.0067 h 5.17e-4 l 0.06304,0.01602 0.03669,0.01188 0.01189,0.0041 0.218074,0.03411 h 0.220142 l 0.05943,-0.0093 0.15813,-0.0248 h 5.16e-4 l 0.0067,-0.0026 0.01499,-0.0046 0.08372,-0.02739 0.09302,-0.02997 0.0026,-10e-4 0.0062,-0.0021 0.0036,-0.001 0.0057,-0.0031 0.189135,-0.09663 0.178284,-0.129708 0.156063,-0.155546 0.129708,-0.178284 0.09974,-0.19637 0.06821,-0.209806 0.03462,-0.217558 v -0.220732 l -0.03462,-0.217558 -0.06821,-0.209807 -0.09974,-0.19637 -0.129708,-0.178284 -0.156063,-0.156063 -5.17e-4,-5.16e-4 v -5.17e-4 l -0.0046,-0.0047 5.16e-4,-5.17e-4 -0.04858,-0.06563 -0.01705,-0.08682 0.02274,-0.08527 0.05736,-0.0677 0.04858,-0.02636 0.715201,-0.270268 0.0708,-0.01292 h 0.116272 l 0.04444,0.0052 0.02584,0.0057 0.0708,0.03152 0.0083,0.0062 0.02584,0.0217 2.671155,2.671155 0.04702,0.07493 0.01034,0.08785 -0.01189,0.04858 -0.294555,0.779797 -0.001,0.0016 -0.0062,0.0155 -5.17e-4,0.0021 -0.0016,0.0036 -5.17e-4,0.0021 -0.0026,0.0067 -0.0015,0.0052 -0.02377,0.06201 -0.0062,0.01757 -5.17e-4,0.001 -0.01447,0.05684 -0.0036,0.0124 -0.01344,0.04186 v 5.17e-4 l -0.03462,0.217558 v 0.220658 l 0.03462,0.217559 0.06821,0.209806 0.09974,0.196371 0.129707,0.178282 0.156063,0.156063 0.15658,0.113688 0.0217,0.0155 0.0739,0.03772 10e-4,10e-4 0.102836,0.05219 0.0186,0.0093 0.20929,0.06821 0.218074,0.03462 h 0.220142 l 0.218075,-0.03462 0.209289,-0.06821 0.196887,-0.100252 0.178284,-0.129192 0.155546,-0.156063 0.129708,-0.178282 0.100252,-0.196371 0.06821,-0.209806 0.03411,-0.217559 z m -0.09974,-13.743864 -0.01654,-0.126091 -0.0186,-0.139526 -0.0026,-0.02015 -0.0067,-0.02532 -0.05219,-0.19482 -0.01602,-0.05891 -0.107487,-0.259933 -10e-4,-0.0026 -0.0016,-0.0036 -0.144177,-0.250114 -0.1757,-0.228927 -0.204122,-0.203605 -0.228927,-0.1757 -0.249597,-0.144177 -0.0036,-0.0015 -0.0031,-10e-4 -0.259933,-0.108003 -0.162264,-0.04341 -0.116271,-0.03101 -0.285771,-0.03772 h -0.05013 -0.238745 l -0.285771,0.03772 -0.278536,0.07442 -0.0863,0.03566 -0.173633,0.07235 -0.0031,10e-4 -0.0036,0.0015 -0.249598,0.144177 -0.228926,0.1757 -0.204122,0.203605 -0.1757,0.228927 -0.03566,0.06201 -0.10852,0.188102 -0.110071,0.266134 -0.07493,0.279052 -0.03772,0.285771 v 0.288354 l 0.03772,0.286288 0.07493,0.278536 0.110071,0.266133 0.129708,0.224793 0.01447,0.02532 0.1757,0.228927 0.204122,0.204122 0.228926,0.175183 0.249598,0.144177 0.26665,0.110588 0.278536,0.07441 0.285771,0.03772 h 0.288871 l 0.285771,-0.03772 0.258382,-0.06873 0.02015,-0.0057 0.0956,-0.03979 0.129708,-0.05374 0.0186,-0.0072 0.02274,-0.0098 0.02687,-0.0155 0.09974,-0.05736 0.12299,-0.07131 0.0031,-0.0021 0.01395,-0.01034 0.211357,-0.162264 5.17e-4,-5.17e-4 0.204122,-0.204122 0.08992,-0.117306 0.08578,-0.111621 0.144177,-0.250114 0.0615,-0.148311 0.04857,-0.117822 0.04858,-0.180351 0.02636,-0.09818 0.03772,-0.286288 z m 0,34.900195 -0.01654,-0.12609 -0.0186,-0.140042 -0.0026,-0.02016 -0.0067,-0.02481 -0.05219,-0.194819 -0.01602,-0.05891 -0.107487,-0.259932 -10e-4,-0.0031 -0.0016,-0.0036 -0.144177,-0.249596 -0.1757,-0.228926 -0.204122,-0.204122 -0.228927,-0.175701 -0.249597,-0.144177 -0.0036,-0.0016 -0.0031,-0.001 -0.259933,-0.107488 -0.162264,-0.04341 -0.116271,-0.03152 -0.285771,-0.03772 h -0.05013 -0.238745 l -0.285771,0.03772 -0.278536,0.07493 -0.0863,0.03566 -0.173633,0.07183 -0.0031,0.001 -0.0036,0.0016 -0.249598,0.144177 -0.228926,0.175701 -0.204122,0.204122 -0.1757,0.228926 -0.03566,0.06201 -0.10852,0.187585 -0.110071,0.266651 -0.07493,0.278536 -0.03772,0.286287 v 0.288355 l 0.03772,0.28577 0.07493,0.278536 0.110071,0.266652 0.129708,0.224274 0.01447,0.02584 0.1757,0.228409 0.204122,0.204121 0.228926,0.175701 0.249598,0.144178 0.26665,0.110586 0.278536,0.07442 0.285771,0.03772 h 0.288871 l 0.285771,-0.03772 0.278535,-0.07442 0.266651,-0.110586 0.126607,-0.07338 0.12299,-0.0708 0.0031,-0.0021 0.01395,-0.01085 0.211357,-0.162263 5.17e-4,-5.18e-4 0.204122,-0.204121 0.1757,-0.228926 0.144177,-0.249597 0.0615,-0.148829 0.04857,-0.117823 0.04858,-0.179834 0.02636,-0.0987 0.03772,-0.28577 z m -5.17e-4,-43.248523 -0.03204,-0.202055 -0.06304,-0.194303 -0.09302,-0.182418 -0.03256,-0.04444 -0.365352,0.365352 a 0.80000001,0.80000001 0 0 1 0.08578,0.360185 0.80000001,0.80000001 0 0 1 -0.08578,0.360701 l 0.365352,0.365352 10e-4,-0.0015 0.03152,-0.04289 0.05219,-0.102836 0.04083,-0.07958 0.06304,-0.194303 0.03204,-0.202572 z m 0,14.480253 -0.03204,-0.202054 -0.06304,-0.194304 v -5.17e-4 l -0.09302,-0.181901 v -5.16e-4 l -0.03256,-0.04444 -0.365352,0.365352 a 0.80000001,0.80000001 0 0 1 0.08578,0.360702 0.80000001,0.80000001 0 0 1 -0.08578,0.360701 l 0.365352,0.365353 10e-4,-0.0016 0.03152,-0.04341 0.05219,-0.102319 0.04083,-0.07958 v -5.17e-4 l 0.06304,-0.194303 0.03204,-0.202055 z m -0.08578,-41.115836 -0.01654,-0.12609 -0.0186,-0.140043 -0.0026,-0.02015 -0.0067,-0.02481 -0.05633,-0.211873 -0.01137,-0.04186 -0.108004,-0.259933 -10e-4,-0.0031 -0.0016,-0.0036 -0.144177,-0.249597 -0.1757,-0.228926 -0.203605,-0.204122 -0.228927,-0.175183 -0.250114,-0.144178 -0.0031,-0.0016 -0.0031,-0.0015 -0.259932,-0.107487 -0.248047,-0.06666 -0.0124,-0.0031 -0.0186,-0.0052 -0.285771,-0.03721 h -0.05013 -0.238228 l -0.222209,0.02894 -0.06408,0.0083 -0.278536,0.07493 -0.18035,0.07493 -0.07958,0.03256 -0.0031,0.0015 -0.0031,0.0016 -0.250114,0.144178 -0.228927,0.175183 -0.204122,0.204122 -0.175183,0.228926 -0.0894,0.15503 -0.05478,0.09457 -0.110588,0.266651 -0.07441,0.278536 -0.03772,0.286287 v 0.288355 l 0.03772,0.28577 0.07441,0.279053 0.110588,0.266134 0.144177,0.250114 0.175183,0.228926 0.204122,0.203605 0.228927,0.1757 0.250114,0.144178 0.266133,0.110587 0.278536,0.07441 0.286288,0.03772 h 0.288354 l 0.285771,-0.03772 0.279053,-0.07441 0.266133,-0.110587 0.113172,-0.06511 0.136942,-0.07906 0.17725,-0.135909 0.05168,-0.03979 0.203605,-0.203605 0.1757,-0.228926 0.144177,-0.250114 0.07648,-0.184485 0.03411,-0.08165 0.03721,-0.139526 0.0036,-0.01344 0.03049,-0.113171 0.0041,-0.0124 0.001,-0.01344 0.01912,-0.146761 0.01654,-0.12609 z M 37.09541,22.890076 a 0.80000001,0.80000001 0 0 1 -0.519348,0.749308 l -1.225248,0.552938 h -0.0041 l -1.984375,1.985408 a 0.25,0.25 0 0 1 -0.198438,0.07235 h -0.575675 l -0.0041,0.0026 -1.257288,0.475423 a 0.80000001,0.80000001 0 0 1 -0.331246,0.07183 0.80000001,0.80000001 0 0 1 -0.328145,-0.0708 l -1.194242,-0.451136 -2.827735,2.827217 v 5.863725 a 0.25,0.25 0 0 1 -0.07235,0.208773 l -2.749703,2.750219 a 0.25,0.25 0 0 1 -0.181901,0.0739 l -1.260388,0.536918 -0.0031,5.17e-4 a 0.89999998,0.89999998 0 0 1 -0.431498,0.111104 h -0.150379 a 0.89999998,0.89999998 0 0 1 -0.90072,-0.900203 0.89999998,0.89999998 0 0 1 0.90072,-0.900721 h 0.150379 a 0.89999998,0.89999998 0 0 1 0.429431,0.110588 h 5.18e-4 a 0.89999998,0.89999998 0 0 0 5.17e-4,0 l 0.0036,10e-4 1.183907,0.504362 0.0072,0.0031 2.574003,-2.574003 v -5.863689 a 0.25,0.25 0 0 1 0.07235,-0.208773 l 2.999817,-2.999817 a 0.25,0.25 0 0 1 0.187069,-0.0739 0.25,0.25 0 0 0 5.17e-4,0 l 0.0016,-0.001 1.260388,-0.476457 a 0.80000001,0.80000001 0 0 1 0.328145,-0.0708 0.80000001,0.80000001 0 0 1 0.311093,0.06408 l 1.277441,0.483175 0.0026,0.0026 h 0.494543 l 1.910995,-1.910477 0.001,-0.0047 0.552421,-1.223698 a 0.80000001,0.80000001 0 0 1 0.03411,-0.07545 l 0.0052,-0.01137 a 0.80000001,0.80000001 0 0 1 0.710551,-0.434082 0.80000001,0.80000001 0 0 1 0.799951,0.799951 z m 0,29.720149 a 0.80000001,0.80000001 0 0 1 -0.799951,0.799952 0.80000001,0.80000001 0 0 1 -0.799951,-0.799952 0.80000001,0.80000001 0 0 1 0.07235,-0.332796 l 0.474907,-1.256254 0.0031,-0.0031 v -0.01447 l -3.28352,-3.283004 h -0.635104 l -0.0031,0.0021 -1.257288,0.475424 a 0.80000001,0.80000001 0 0 1 -0.331246,0.07183 0.80000001,0.80000001 0 0 1 -0.799951,-0.799951 0.80000001,0.80000001 0 0 1 0.799951,-0.799951 0.80000001,0.80000001 0 0 1 0.332796,0.07235 l 1.255738,0.474906 0.0041,0.0036 h 0.715233 a 0.25,0.25 0 0 1 0.149344,0.03411 0.25,0.25 0 0 0 5.17e-4,5.17e-4 0.25,0.25 0 0 1 0.02532,0.01705 0.25,0.25 0 0 1 10e-4,5.16e-4 0.25,0.25 0 0 1 0.0093,0.0083 0.25,0.25 0 0 1 0.01292,0.01137 l 3.428215,3.428214 a 0.25,0.25 0 0 1 0.0016,0.0016 0.25,0.25 0 0 1 0.0041,0.0047 0.25,0.25 0 0 1 0.07028,0.173116 v 0.117823 l 0.0026,0.0031 0.474389,1.256771 a 0.80000001,0.80000001 0 0 1 0.07235,0.332279 z m -0.0739,-23.17998 -0.04444,-0.03204 -0.182417,-0.09302 -0.194821,-0.06304 -0.202054,-0.03204 h -0.204639 l -0.202055,0.03204 -0.194303,0.06304 -0.182418,0.09302 -0.0052,0.0031 -0.03204,0.01085 -0.0078,0.01809 0.365353,0.365869 a 0.80000001,0.80000001 0 0 1 0.360701,-0.0863 0.80000001,0.80000001 0 0 1 0.360702,0.0863 z m 0,2.159041 -0.365352,-0.365352 a 0.80000001,0.80000001 0 0 1 -0.360702,0.0863 0.80000001,0.80000001 0 0 1 -0.360184,-0.0863 0.80000001,0.80000001 0 0 1 -5.17e-4,0 l -0.365353,0.365352 0.04496,0.03256 0.02222,0.01137 0.02119,0.01085 0.13901,0.0708 0.194303,0.06305 0.202055,0.03204 h 0.204639 l 0.0062,-0.001 0.130741,-0.02067 0.06511,-0.01034 0.177767,-0.05736 0.01705,-0.0057 0.182417,-0.09302 0.0016,-0.0015 z m 0,12.321212 -0.04444,-0.03256 -0.182417,-0.0925 -0.194821,-0.06356 -0.202054,-0.03204 h -0.204639 l -0.202055,0.03204 -0.194303,0.06356 -0.182418,0.0925 -0.0052,0.0031 -0.03204,0.01085 -0.0078,0.0186 0.365353,0.365352 a 0.80000001,0.80000001 0 0 1 0.360701,-0.08578 0.80000001,0.80000001 0 0 1 0.360702,0.08578 z m 0,2.159041 -0.365352,-0.365352 a 0.80000001,0.80000001 0 0 1 -0.360702,0.08578 0.80000001,0.80000001 0 0 1 -0.360184,-0.08578 0.80000001,0.80000001 0 0 1 -5.17e-4,0 l -0.365353,0.365352 0.04496,0.03256 0.182418,0.0925 0.194303,0.06356 0.202055,0.03204 h 0.204639 l 0.0062,-10e-4 0.130741,-0.02067 0.06511,-0.01034 0.177767,-0.05788 0.01705,-0.0057 0.182417,-0.0925 0.0016,-0.0016 z m -1.440222,-15.920475 -0.365352,-0.364835 -0.03256,0.04444 -0.0925,0.182418 -0.03514,0.108004 -0.02842,0.0863 -0.03204,0.202055 v 0.204639 l 0.03204,0.202572 0.06356,0.194303 0.0925,0.182418 0.03256,0.04444 0.324011,-0.323494 0.04134,-0.04186 a 0.80000001,0.80000001 0 0 1 -0.08578,-0.360701 0.80000001,0.80000001 0 0 1 0.08578,-0.360185 0.80000001,0.80000001 0 0 1 0,-5.17e-4 z m 0,14.480253 -0.365352,-0.365352 -0.03256,0.04496 -0.0925,0.181901 v 5.17e-4 l -0.03514,0.108004 -0.02842,0.0863 -0.03204,0.202054 v 0.204639 l 0.03204,0.202055 0.06356,0.19482 0.0925,0.181901 0.03256,0.04496 0.365352,-0.365353 a 0.80000001,0.80000001 0 0 1 -0.08578,-0.360701 0.80000001,0.80000001 0 0 1 0.08578,-0.360702 z m -3.230294,-9.554454 -0.0088,-0.06821 -0.01188,-0.08837 -0.06046,-0.145727 -0.09612,-0.125574 -0.125574,-0.09664 -0.09198,-0.03772 -0.04393,-0.0186 -0.0098,-0.0041 -0.0031,-5.17e-4 -0.01137,-0.0041 -0.0186,-0.0067 -0.0279,-0.01034 -0.0021,-5.16e-4 v -5.17e-4 l -0.0088,-0.0041 h -5.17e-4 l -0.02635,-0.0217 -0.02946,-0.01912 -0.0093,-0.01188 -0.0031,-0.0031 -0.0021,-0.0041 -0.01033,-0.01292 -0.01705,-0.02687 -0.02377,-0.06098 -5.17e-4,5.17e-4 -5.16e-4,-0.0031 -0.0016,-0.0031 -5.16e-4,-0.0031 -0.06046,-0.146244 -0.09612,-0.125574 -0.125574,-0.09612 -0.146244,-0.06046 -0.03617,-0.0047 -0.120406,-0.01602 h -0.250114 l -0.06408,0.0083 -0.0925,0.0124 -0.146244,0.06046 -0.0052,0.0036 -0.0052,0.0047 -0.114721,0.08785 -0.09663,0.125574 -0.05994,0.145727 h -5.17e-4 v 5.17e-4 l -5.17e-4,0.0016 -0.0041,0.0124 -0.0021,0.0067 -0.0047,0.01188 h -5.16e-4 l -0.0098,0.02791 -5.17e-4,0.0021 h -5.16e-4 l -0.0041,0.0088 v 5.17e-4 l -0.0217,0.02636 -0.01912,0.02894 -0.01189,0.0098 -0.0031,0.0031 -0.0041,0.0026 -0.01292,0.0098 -0.02687,0.01705 -0.06563,0.02636 -0.0047,5.17e-4 -0.145728,0.06046 -5.16e-4,5.17e-4 -0.0021,0.0015 -0.12299,0.09457 -0.03462,0.04496 -0.04754,0.06201 -0.01395,0.0186 -0.06046,0.145727 -0.0016,0.01034 v 5.16e-4 0.0021 l -0.0186,0.14056 -5.16e-4,0.0026 v 5.18e-4 0.250113 5.16e-4 l 5.16e-4,0.0026 0.02015,0.153479 0.04134,0.09974 0.01344,0.03307 0.0021,0.0057 0.001,0.0026 0.0047,0.01033 0.0031,0.0067 0.01499,0.01395 0.07596,0.09974 0.125573,0.09612 0.0047,0.0016 0.135393,0.05633 0.0057,0.0026 0.0021,5.17e-4 0.0124,0.0041 0.0072,0.0026 0.01137,0.0047 0.0279,0.0098 0.0021,10e-4 0.0088,0.0041 v 5.16e-4 h 5.17e-4 l 0.02636,0.02119 0.02894,0.01912 0.0093,0.01189 0.0041,0.0031 0.0015,0.0041 0.01034,0.01292 0.01654,0.02636 0.02119,0.05891 0.0031,-10e-4 0.0031,0.01292 0.01395,0.03359 0.01654,0.03927 0.02481,0.05943 0.0016,0.0062 0.0016,0.0021 0.0046,0.01085 0.0026,0.0062 0.01499,0.01447 0.07648,0.09922 0.125057,0.09612 0.0279,0.01189 0.02739,0.01085 0.02274,0.0098 0.04548,0.0186 0.02274,0.0093 0.06718,0.0088 0.0894,0.01188 h 0.250114 l 0.15658,-0.02067 0.03514,-0.01447 0.05581,-0.02325 0.01499,-0.0062 0.04031,-0.01654 0.125574,-0.09612 0.09612,-0.125573 0.03979,-0.09612 0.0021,-0.0047 0.0021,-0.0026 0.0093,-0.02584 0.0031,-0.0067 0.0041,-0.0098 v -5.17e-4 l 0.0021,-0.0062 0.0016,-0.0057 0.0036,-0.0093 5.17e-4,-0.0026 0.0036,-0.01085 0.0031,-0.0052 0.0072,-0.02119 0.0052,-0.01033 0.0031,0.0015 0.02532,-0.03876 0.0016,-0.0021 v -5.17e-4 l 0.01085,-0.01602 0.03204,-0.02532 0.02687,-0.01654 0.05994,-0.02532 h 5.16e-4 l 0.0083,-0.0021 h 0.0016 l 0.131775,-0.05478 0.01395,-0.0057 0.0155,-0.01188 0.05426,-0.04134 0.05581,-0.04289 0.09405,-0.12299 0.0016,-0.0021 5.17e-4,-5.17e-4 0.06046,-0.146244 0.0093,-0.06925 0.01137,-0.08733 z m -0.05529,-6.284889 h -0.500227 v 0.549837 h -0.549838 v 0.500228 h 0.597897 l 0.01654,-0.0021 0.04289,-0.0041 0.12609,-0.04703 0.0052,-0.0021 0.0031,-10e-4 5.17e-4,-5.17e-4 0.114722,-0.08578 0.0863,-0.115238 5.17e-4,-5.17e-4 5.17e-4,-0.0031 0.04909,-0.131258 0.0067,-0.05943 z m -0.45992,15.29209 -0.0067,-0.05943 -0.04909,-0.131258 -10e-4,-0.0031 v -5.17e-4 l -0.0863,-0.114721 -0.115238,-0.0863 v -5.17e-4 l -0.0031,-0.001 -0.131258,-0.04858 -0.05994,-0.0067 h -0.59738 v 0.500228 h 0.549837 v 0.549837 h 0.500228 z m -0.04031,-20.621997 a 0.80000001,0.80000001 0 0 1 -0.799952,0.799951 0.80000001,0.80000001 0 0 1 -0.331246,-0.07183 l -1.257287,-0.475424 -0.0021,-0.0021 h -1.548227 a 0.25,0.25 0 0 1 -0.127123,-0.03462 0.25,0.25 0 0 1 -0.02636,-0.01757 0.25,0.25 0 0 1 -0.001,-0.001 0.25,0.25 0 0 1 -0.02325,-0.02067 0.25,0.25 0 0 1 -0.0016,-0.0016 l -1.762117,-1.760099 h -1.222148 l -0.001,0.0021 -0.0016,0.001 -0.886768,0.640788 -0.0083,0.0021 v 0.0041 h -1.799891 v -1.800407 h 0.0041 l -5.17e-4,-0.001 0.0021,-0.0067 0.640788,-0.887285 0.0036,-0.0021 V 14.904 l -2.225187,-2.224671 a 0.25,0.25 0 0 1 -0.02222,-0.0248 0.25,0.25 0 0 1 -0.001,-0.0015 0.25,0.25 0 0 1 -0.04341,-0.08733 0.25,0.25 0 0 1 -0.0067,-0.03256 0.25,0.25 0 0 1 -0.0026,-0.03307 v -1.4981 L 16.253238,6.910174 h -1.158585 -1.156519 l -5.792411,5.794995 v 7.157186 l 0.0021,0.001 10e-4,0.0015 0.640788,0.886768 0.0021,0.0083 h 0.0036 v 1.79989 H 6.99542 v -1.79989 h 0.0041 l -5.17e-4,-0.001 0.0021,-0.0072 0.640788,-0.886768 0.0036,-0.0021 v -7.240385 a 0.25,0.25 0 0 1 0.01964,-0.120406 0.25,0.25 0 0 1 5.17e-4,-0.0015 0.25,0.25 0 0 1 0.03359,-0.05529 0.25,0.25 0 0 1 0.0186,-0.02119 L 13.231197,6.910174 H 9.692911 l -0.001,0.0021 -10e-4,0.001 -0.887284,0.640787 -0.0083,0.0021 v 0.0036 H 6.995436 v -1.79989 h 1.799891 v 0.0041 l 0.0016,-5.17e-4 0.0067,0.0026 0.887284,0.640271 0.0021,0.0036 h 4.121196 a 0.25,0.25 0 0 1 0.04341,0 h 1.237134 1.239201 a 0.25,0.25 0 0 1 0.17725,0.05374 0.25,0.25 0 0 1 0.02119,0.0186 l 3.812169,3.812687 V 8.099737 a 0.25,0.25 0 0 1 0.09457,-0.195853 l 0.746725,-0.747758 10e-4,-0.0041 0.56224,-0.992188 0.240812,-0.42478 0.0057,-0.0047 v -0.0052 h 1.799891 v 1.799891 h -1.799891 v -0.0041 l -0.0031,0.0031 -0.0047,5.17e-4 -0.447001,-0.01137 -0.0031,-10e-4 -0.692981,0.692981 v 2.672706 a 0.25,0.25 0 0 1 0,0.04341 v 1.473295 l 2.228288,2.228288 a 0.25,0.25 0 0 1 0.07235,0.198438 v 5.005895 l 0.0026,0.001 10e-4,0.0016 0.640788,0.887284 0.0021,0.0078 h 0.0036 v 0.0041 l 10e-4,-5.17e-4 0.0072,0.0026 0.886768,0.64027 0.0026,0.0036 h 1.296562 a 0.25,0.25 0 0 1 0.208773,0.07235 l 1.761649,1.763716 h 1.44229 l 5.17e-4,-0.001 0.0041,-0.0031 1.257287,-0.474907 a 0.80000001,0.80000001 0 0 1 0.331246,-0.07183 0.80000001,0.80000001 0 0 1 0.799952,0.799951 z m -0.05013,11.614796 v 0.250113 h -0.624768 v 0.624768 h -0.250114 v -0.624768 h -0.624768 v -0.250113 h 0.624768 v -0.624769 h 0.250114 v 0.624769 z M 31.575848,9.589596 31.541738,9.3720383 31.473528,9.162232 31.373276,8.965861 31.243568,8.787578 31.088022,8.632032 30.909739,8.502324 30.713368,8.402072 l -0.209806,-0.06821 -0.122473,-0.01912 -0.0956,-0.01499 h -0.220141 l -0.04031,0.0062 -0.17725,0.02791 h -5.14e-4 l -0.207222,0.0677 -0.0021,5.17e-4 -0.196371,0.100252 -0.178284,0.129708 -0.156063,0.155546 -0.129708,0.178283 -0.09974,0.196371 -0.0026,0.0078 -5.16e-4,0.001 -5.18e-4,0.0026 -0.03772,0.1152382 -0.02687,0.082682 v 5.168e-4 l -0.03462,0.2175577 v 0.2206584 l 0.03462,0.2175579 0.06821,0.209806 0.09974,0.19637 0.129708,0.178284 0.156063,0.156063 0.178284,0.129708 0.196371,0.09974 0.102836,0.03359 0.06925,0.02222 0.04031,0.0186 0.001,5.17e-4 0.0124,0.0072 0.01654,0.0155 0.0057,0.0036 0.0036,0.0057 0.03824,0.03669 0.03101,0.0832 -0.0078,0.08785 -0.04548,0.07596 -10e-4,0.0015 -0.05788,0.04186 -0.0031,0.0015 -0.02481,0.0098 -0.1788,0.0584 -0.0021,5.16e-4 -0.196371,0.100253 -0.178284,0.129191 -0.156063,0.156062 -0.129708,0.178284 -0.09974,0.196371 -0.0026,0.0077 -5.16e-4,0.001 -5.18e-4,0.0026 -0.03772,0.115239 -0.02687,0.08268 v 5.17e-4 l -0.03462,0.217558 v 0.220658 l 0.03462,0.217558 0.06821,0.209806 0.09974,0.196371 0.129708,0.178283 0.156063,0.156063 0.178284,0.129191 0.196371,0.100252 0.102836,0.03359 0.06925,0.02222 0.04031,0.0186 0.001,5.16e-4 0.0124,0.0072 0.01654,0.0155 0.0057,0.0036 0.0036,0.0057 0.03824,0.03669 0.03101,0.08268 -0.0078,0.08837 -0.04548,0.07596 -0.001,0.0015 -0.05788,0.04186 -0.0031,0.0015 -0.02481,0.0098 -0.1788,0.05788 -0.0021,0.001 -0.196371,0.09974 -0.178284,0.129708 -0.156063,0.156063 -0.129708,0.178283 -0.09974,0.196371 -0.0026,0.0078 -5.16e-4,0.001 -5.18e-4,0.0026 -0.03772,0.115238 -0.02687,0.08217 v 0.001 l -0.03462,0.217558 v 0.220658 l 0.03462,0.217558 0.06821,0.209806 0.09974,0.196371 0.129708,0.178283 0.156063,0.155547 0.178284,0.129707 0.196371,0.100253 0.102836,0.03359 0.06925,0.02222 0.04031,0.0186 10e-4,5.16e-4 0.0124,0.0072 0.01654,0.0155 0.0057,0.0036 0.0036,0.0057 0.03824,0.03669 0.03101,0.08268 -0.0078,0.08837 -0.04548,0.07596 -0.001,0.0016 -0.05788,0.04186 -0.0031,0.0015 -0.02481,0.0098 -0.1788,0.05788 -0.0021,0.001 -0.196371,0.09974 -0.178284,0.129708 -0.156063,0.156063 -0.129708,0.178284 -0.09974,0.19637 -0.0026,0.0072 -5.16e-4,0.0016 -5.18e-4,0.0021 -0.03772,0.115755 -0.02687,0.08217 v 0.001 l -0.03462,0.217558 v 0.220142 l 0.03462,0.218074 0.06821,0.209807 0.09974,0.19637 0.129708,0.178284 0.156063,0.155546 0.178284,0.129708 0.196371,0.100252 0.209289,0.06821 0.218075,0.03411 h 0.220141 5.17e-4 l 0.217558,-0.03411 0.08475,-0.02791 0.113688,-0.03669 0.0031,-0.001 0.0062,-0.0021 0.0031,-0.001 0.0057,-0.0031 0.0047,-0.0021 0.185002,-0.09457 0.178283,-0.129708 0.155546,-0.155546 0.129708,-0.178284 0.100252,-0.19637 0.06821,-0.209807 0.03411,-0.218074 v -0.220142 l -0.03411,-0.217558 -0.06821,-0.209806 -0.100252,-0.19637 -0.129708,-0.178284 -0.155546,-0.156063 -0.178283,-0.129708 -0.196371,-0.09973 -0.172599,-0.05633 -0.0124,-0.0072 -0.01499,-0.0036 -0.01292,-0.0072 -0.01344,-0.0083 -0.01602,-0.0155 -0.0062,-0.0031 -0.01344,-0.0155 -0.02842,-0.02687 -0.03101,-0.0832 0.0078,-0.08785 0.03979,-0.06615 0.001,-0.0021 0.0047,-0.0078 0.0016,-0.0015 0.05736,-0.04186 0.0036,-0.0016 0.0021,-0.001 5.17e-4,-5.17e-4 h 10e-4 l 0.02119,-0.0083 0.169498,-0.05529 0.0031,-0.001 0.0062,-0.0021 0.0031,-0.001 0.0057,-0.0031 0.0047,-0.0021 0.185002,-0.09457 0.178283,-0.129707 0.155546,-0.155547 0.129708,-0.178283 0.100252,-0.196371 0.06821,-0.209806 0.03411,-0.217558 V 15.789755 L 31.54161,15.572197 31.4734,15.362391 31.373148,15.16602 31.24344,14.987737 31.087894,14.831674 30.909611,14.701966 30.71324,14.60223 l -0.172599,-0.05581 -0.0124,-0.0077 -0.01499,-0.0036 -0.01292,-0.0072 -0.01344,-0.0077 -0.01602,-0.0155 -0.0062,-0.0036 -0.01344,-0.01499 -0.02842,-0.02739 -0.03101,-0.0832 0.0078,-0.08785 0.03979,-0.06615 0.001,-0.0021 0.0047,-0.0077 0.0016,-0.0015 0.05736,-0.04186 0.0036,-0.0015 0.0021,-0.001 h 5.17e-4 l 0.001,-5.17e-4 0.02119,-0.0083 0.169498,-0.05529 0.0031,-5.17e-4 0.0062,-0.0026 0.0031,-0.001 0.0057,-0.0031 0.0047,-0.0021 0.185002,-0.09457 0.178283,-0.129191 0.155546,-0.156063 0.129708,-0.178283 0.100252,-0.196371 0.06821,-0.209806 0.03411,-0.217558 v -0.220658 l -0.03411,-0.217558 -0.06821,-0.209806 -0.100252,-0.196371 -0.129708,-0.178284 -0.155546,-0.156062 -0.178283,-0.129191 -0.196371,-0.100253 -0.172599,-0.05581 -0.0124,-0.0077 -0.01499,-0.0036 -0.01292,-0.0072 -0.01344,-0.0077 -0.01602,-0.0155 -0.0062,-0.0036 -0.01344,-0.01499 -0.02842,-0.02739 -0.03101,-0.08268 0.0078,-0.08837 0.03979,-0.06563 0.001,-0.0026 0.0047,-0.0078 0.0016,-0.0015 0.05736,-0.04186 0.0036,-0.0015 0.0021,-0.001 h 5.17e-4 l 0.001,-5.16e-4 0.02119,-0.0083 0.169498,-0.05529 0.0031,-5.17e-4 0.0062,-0.0021 0.0031,-0.0015 0.0057,-0.0031 0.0047,-0.0021 0.185002,-0.09405 0.178283,-0.129708 0.155546,-0.156063 0.129708,-0.178284 0.100252,-0.19637 0.06821,-0.209806 0.03411,-0.2175579 z m -0.08992,48.800123 -0.03462,-0.217559 -0.0677,-0.209806 -0.100252,-0.196371 -0.129708,-0.178284 -0.155546,-0.156062 -0.1788,-0.129192 -0.196371,-0.100252 -0.209289,-0.06821 -0.128158,-0.02015 -0.08992,-0.01447 h -0.220141 l -0.03307,0.0052 -0.184485,0.02946 h -5.17e-4 l -0.198954,0.0646 -0.01033,0.0036 -0.196371,0.100252 -0.178801,0.129192 -0.155546,0.156062 -0.129708,0.178284 -0.100251,0.196371 -0.0021,0.0078 -5.17e-4,10e-4 -0.001,0.0026 -0.03876,0.120406 -0.02532,0.07752 v 5.16e-4 l -0.03462,0.217559 v 0.220658 l 0.03462,0.217557 0.0677,0.209806 0.100251,0.196371 0.129708,0.178283 0.155546,0.156063 0.178801,0.129192 0.196371,0.100251 0.209289,0.06821 0.218075,0.03462 h 0.220141 l 0.218075,-0.03462 0.05788,-0.01912 0.14056,-0.04547 0.0031,-10e-4 0.0062,-0.0021 0.0031,-10e-4 0.0057,-0.0031 5.17e-4,-5.17e-4 0.188619,-0.09612 0.1788,-0.129192 0.155546,-0.156063 0.129708,-0.178283 0.100252,-0.196371 0.0677,-0.209806 0.03462,-0.217557 z m 0,3.20032 -0.03462,-0.218073 -0.0677,-0.209808 -0.100252,-0.196369 -0.129708,-0.178285 -0.155546,-0.155546 -0.1788,-0.129708 -0.196371,-0.100252 -0.209289,-0.06821 -0.128158,-0.02015 -0.08992,-0.01395 h -0.220141 l -0.03307,0.0052 -0.184485,0.02894 h -5.17e-4 l -0.198954,0.06511 -0.01033,0.0031 -0.196371,0.100252 -0.178801,0.129708 -0.155546,0.155546 -0.129708,0.178285 -0.100251,0.196369 -0.0021,0.0078 -5.17e-4,10e-4 -0.001,0.0026 -0.03876,0.120406 -0.02532,0.07752 v 5.17e-4 l -0.03462,0.218073 v 0.220142 l 0.03462,0.218075 0.0677,0.209289 0.100251,0.19637 0.129708,0.178284 0.155546,0.156063 0.178801,0.129709 0.196371,0.09973 0.209289,0.06821 0.218075,0.03462 h 0.220141 l 0.218075,-0.03462 0.05788,-0.0186 0.14056,-0.04599 0.0031,-5.17e-4 0.0062,-0.0021 0.0031,-0.0016 0.0057,-0.0026 5.17e-4,-5.16e-4 0.188619,-0.09612 0.1788,-0.129709 0.155546,-0.156063 0.129708,-0.178284 0.100252,-0.19637 0.0677,-0.209289 v -5.18e-4 l 0.03462,-0.217557 z m 0,3.199806 -0.03462,-0.217558 v -5.17e-4 l -0.0677,-0.209289 -0.100252,-0.196371 -0.129708,-0.178284 -0.155546,-0.156063 -0.1788,-0.129707 -0.196371,-0.09974 -0.209289,-0.06821 -0.128158,-0.02015 -0.08992,-0.01447 h -0.220141 l -0.03307,0.0052 -0.184485,0.02946 h -5.17e-4 l -0.198954,0.0646 -0.01033,0.0036 -0.196371,0.09974 -0.178801,0.129707 -0.155546,0.156063 -0.129708,0.178284 -0.100251,0.196371 -0.0021,0.0072 -5.17e-4,0.0016 -0.001,0.0021 -0.03876,0.120405 -0.02532,0.07751 v 5.17e-4 l -0.03462,0.218075 v 0.22014 l 0.03462,0.218075 0.0677,0.209289 0.100251,0.196888 0.129708,0.178284 0.155546,0.155545 0.178801,0.129709 0.196371,0.100252 0.209289,0.06821 0.218075,0.03411 h 0.220141 l 0.218075,-0.03411 0.05788,-0.01912 0.14056,-0.04547 0.0031,-10e-4 0.0062,-0.0021 0.0031,-0.001 0.0057,-0.0031 5.17e-4,-5.16e-4 0.188619,-0.09612 0.1788,-0.129709 0.155546,-0.155545 0.129708,-0.178284 0.100252,-0.196888 0.0677,-0.209289 0.03462,-0.218075 z m 0,3.199804 -0.03462,-0.217557 -0.0677,-0.209807 -0.100252,-0.19637 -0.129708,-0.178285 -0.155546,-0.156063 -0.1788,-0.12919 -0.196371,-0.100252 -0.209289,-0.06821 -0.128158,-0.02015 -0.08992,-0.01447 h -0.220141 l -0.03307,0.0052 -0.184485,0.02946 h -5.17e-4 l -0.198954,0.0646 -0.01033,0.0036 -0.196371,0.100252 -0.178801,0.12919 -0.155546,0.156063 -0.129708,0.178285 -0.100251,0.19637 -0.0021,0.0078 -5.17e-4,0.001 -0.001,0.0026 -0.03876,0.120406 -0.02532,0.07752 v 5.17e-4 l -0.03462,0.217557 v 0.220658 l 0.03462,0.217558 0.0677,0.209806 0.100251,0.19637 0.129708,0.178285 0.155546,0.156062 0.178801,0.129191 0.196371,0.100252 0.209289,0.06821 0.218075,0.03462 h 0.220141 l 0.218075,-0.03462 0.05788,-0.01912 0.14056,-0.04547 0.0031,-5.17e-4 0.0062,-0.0026 0.0031,-10e-4 0.0057,-0.0031 h 5.17e-4 l 0.188619,-0.09664 0.1788,-0.129191 0.155546,-0.156062 0.129708,-0.178285 0.100252,-0.19637 0.0677,-0.209806 0.03462,-0.217558 z M 31.335555,50.009867 a 0.80000001,0.80000001 0 0 1 -0.799951,0.799952 0.80000001,0.80000001 0 0 1 -0.243396,-0.03824 0.80000001,0.80000001 0 0 1 -0.08837,-0.03359 l -5.16e-4,-5.16e-4 -1.256255,-0.47439 -0.0036,-0.0031 h -2.0283 l -2.008663,2.008663 -0.001,0.0041 -0.805118,1.71514 -0.0047,0.0041 v 0.532784 h -0.532784 l -0.0047,0.0047 -1.715141,0.805119 h -0.0031 l -0.694531,0.694532 v 10.627276 l 0.392741,0.392741 0.0052,0.001 0.447518,0.210322 1.267106,0.594796 0.0041,0.0047 h 0.533301 v 1.799889 h -1.799891 v -0.532783 l -0.0046,-0.0041 -0.805119,-1.715141 v -0.0026 l -0.270785,-0.270268 -1.684651,1.682585 a 0.25,0.25 0 0 1 -0.194304,0.0925 H 9.692947 l -10e-4,0.0021 -0.001,0.0016 -0.887284,0.640788 -0.0083,0.0015 v 0.0041 H 6.995472 v -1.799891 h 0.0041 l -5.17e-4,-0.0015 0.0021,-0.0067 0.640788,-0.887283 0.0036,-0.0021 V 61.503739 L 5.118034,58.976762 a 0.25,0.25 0 0 1 -0.01499,-0.01705 0.25,0.25 0 0 1 -0.0036,-0.0041 0.25,0.25 0 0 1 -0.05374,-0.177251 v -3.357454 a 0.25,0.25 0 0 1 0.07235,-0.198438 l 1.243335,-1.241785 0.542602,-0.542602 a 0.25,0.25 0 0 1 0.190686,-0.08837 h 0.001 l 0.09612,-0.568442 0.0036,-0.0057 v -0.0155 h 1.79989 v 1.799891 h -1.79989 v -0.07648 l -0.0036,-0.0062 -0.08217,-0.536918 -1.563728,1.561145 v 3.196188 l 2.527494,2.52491 a 0.25,0.25 0 0 1 0.07235,0.198437 v 5.441528 l 0.0021,10e-4 10e-4,0.001 0.640788,0.887283 0.0021,0.0083 h 0.0036 v 0.0041 l 0.0016,-5.17e-4 0.0067,0.0021 0.887284,0.640788 0.0021,0.0036 h 9.237679 l 1.715142,-1.715141 V 55.946456 a 0.25,0.25 0 0 1 0.07183,-0.198437 l 0.767396,-0.766879 0.001,-0.0041 0.804602,-1.714624 0.0047,-0.0041 v -0.533369 h 0.533301 l 0.0041,-0.0047 1.71514,-0.805119 h 0.0041 l 2.061889,-2.060856 a 0.25,0.25 0 0 1 0.195854,-0.09457 h 2.133204 l 0.0041,-0.0026 1.255738,-0.474907 a 0.80000001,0.80000001 0 0 1 0.001,-5.17e-4 0.80000001,0.80000001 0 0 1 0.08785,-0.03307 0.80000001,0.80000001 0 0 1 0.243913,-0.03876 0.80000001,0.80000001 0 0 1 0.799951,0.799951 z M 30.975371,9.7001836 A 0.80000001,0.80000001 0 0 1 30.175419,10.500135 0.80000001,0.80000001 0 0 1 29.375468,9.7001836 0.80000001,0.80000001 0 0 1 30.175419,8.900232 0.80000001,0.80000001 0 0 1 30.975371,9.7001836 Z m 0,3.1000684 a 0.80000001,0.80000001 0 0 1 -0.799952,0.799951 0.80000001,0.80000001 0 0 1 -0.799951,-0.799951 0.80000001,0.80000001 0 0 1 0.799951,-0.800468 0.80000001,0.80000001 0 0 1 0.799952,0.800468 z m 0,3.099553 a 0.80000001,0.80000001 0 0 1 -0.799952,0.799951 0.80000001,0.80000001 0 0 1 -0.799951,-0.799951 0.80000001,0.80000001 0 0 1 0.799951,-0.799951 0.80000001,0.80000001 0 0 1 0.799952,0.799951 z m 0,3.100069 a 0.80000001,0.80000001 0 0 1 -0.799952,0.799951 0.80000001,0.80000001 0 0 1 -0.799951,-0.799951 0.80000001,0.80000001 0 0 1 0.799951,-0.799951 0.80000001,0.80000001 0 0 1 0.799952,0.799951 z m -0.08992,39.499914 a 0.80000001,0.80000001 0 0 1 -0.799952,0.800468 0.80000001,0.80000001 0 0 1 -0.799951,-0.800468 0.80000001,0.80000001 0 0 1 0.799951,-0.79995 0.80000001,0.80000001 0 0 1 0.799952,0.79995 z m 0,3.200322 a 0.80000001,0.80000001 0 0 1 -0.799952,0.799952 0.80000001,0.80000001 0 0 1 -0.799951,-0.799952 0.80000001,0.80000001 0 0 1 0.799951,-0.79995 0.80000001,0.80000001 0 0 1 0.799952,0.79995 z m 0,3.199805 a 0.80000001,0.80000001 0 0 1 -0.799952,0.799951 0.80000001,0.80000001 0 0 1 -0.799951,-0.799951 0.80000001,0.80000001 0 0 1 0.799951,-0.799951 0.80000001,0.80000001 0 0 1 0.799952,0.799951 z m 0,3.200321 a 0.80000001,0.80000001 0 0 1 -0.799952,0.799952 0.80000001,0.80000001 0 0 1 -0.799951,-0.799952 0.80000001,0.80000001 0 0 1 0.799951,-0.800468 0.80000001,0.80000001 0 0 1 0.799952,0.800468 z M 30.74541,29.339811 h -0.549837 v -0.549837 h -0.500228 v 0.597896 l 0.0067,0.05943 0.04909,0.131258 5.17e-4,0.0031 5.16e-4,5.17e-4 0.0863,0.115238 0.114722,0.08578 5.17e-4,5.17e-4 0.0031,0.001 0.0186,0.0067 0.112654,0.04237 0.05943,0.0062 h 0.597896 z m -0.45992,14.290084 h -0.597896 l -0.05943,0.0067 -0.131258,0.04858 -0.0031,10e-4 -5.16e-4,5.17e-4 -0.114723,0.0863 -0.0863,0.114721 -5.16e-4,5.17e-4 -0.001,0.0031 -0.01705,0.04599 -0.03152,0.08527 -0.0067,0.05943 v 0.597896 h 0.500228 v -0.549837 h 0.549837 z m -0.834574,-41.355098 -0.0088,-0.06821 -0.01189,-0.08837 -0.06046,-0.145727 -0.09612,-0.125574 -0.125574,-0.09612 -0.09198,-0.03824 -0.04392,-0.0186 -0.0098,-0.0036 -0.0031,-10e-4 -0.01137,-0.0041 -0.0186,-0.0067 -0.0279,-0.01034 -0.0016,-5.17e-4 h -5.17e-4 l -0.0088,-0.0047 -0.02687,-0.0217 -0.02894,-0.01912 -0.0093,-0.01189 -0.0036,-0.0026 -0.0021,-0.0047 -0.01034,-0.01292 -0.01654,-0.02687 -0.02429,-0.06046 h -5.16e-4 l -5.17e-4,-0.0031 -0.0016,-0.0031 -5.16e-4,-0.0031 -0.06046,-0.146244 -0.09612,-0.125574 -0.125574,-0.09612 -0.146244,-0.06046 -0.156579,-0.02067 h -0.250114 l -0.15658,0.02067 -0.145728,0.06046 -0.001,5.17e-4 -0.0021,0.0016 -0.122473,0.09405 -0.09663,0.125574 -0.06046,0.146244 -5.16e-4,10e-4 -0.0016,0.0057 -0.0016,0.0057 -0.0036,0.0093 v 0.0021 l -0.0036,0.01085 -0.0031,0.0057 -0.0078,0.02119 -0.0052,0.01034 -0.0031,-0.0016 -0.02481,0.03772 -0.0015,0.0031 h -5.18e-4 l -0.01033,0.01602 -0.03256,0.02532 -0.02687,0.01705 -0.06563,0.02636 -0.0041,0.001 -0.146244,0.06046 h -5.17e-4 l -0.0021,0.0015 -0.122991,0.09457 -0.09612,0.125057 v 5.17e-4 l -0.06046,0.145727 -0.0016,0.01034 v 5.16e-4 0.0021 l -0.0186,0.140559 -5.16e-4,0.0026 v 5.17e-4 0.24753 0.0026 l 0.02067,0.15658 0.03049,0.07338 0.02429,0.05943 0.0021,0.0057 0.001,0.0026 0.0047,0.01033 0.0031,0.0067 0.01499,0.01395 0.07596,0.09974 0.125574,0.09612 0.146244,0.06046 0.0016,5.17e-4 0.0124,0.0041 0.0078,0.0026 0.01085,0.0047 0.02842,0.0098 0.0015,0.001 0.0088,0.0041 5.18e-4,5.17e-4 0.02635,0.02119 0.02894,0.01912 0.0098,0.01189 0.0036,0.0031 0.0021,0.0047 0.0098,0.0124 0.01654,0.02687 0.02119,0.0584 0.0031,-10e-4 0.0031,0.01292 0.02274,0.05426 0.0078,0.0186 0.02481,0.05943 0.0021,0.0062 0.001,0.0026 0.0046,0.01034 0.0026,0.0067 0.01499,0.01395 0.07648,0.09922 0.125057,0.09612 h 5.16e-4 l 0.118857,0.04961 0.02687,0.01085 0.15658,0.02067 h 0.250114 l 0.156579,-0.02067 0.146244,-0.06046 0.125574,-0.09612 0.09612,-0.125574 0.03979,-0.09612 0.0021,-0.0047 0.0021,-0.0026 0.0098,-0.02532 0.0026,-0.0072 0.0041,-0.0098 v -5.16e-4 l 0.0021,-0.0062 0.0016,-0.0057 h 5.17e-4 l 0.0031,-0.0093 5.17e-4,-0.0026 0.0036,-0.01085 0.0031,-0.0052 0.0072,-0.02119 0.0057,-0.01033 0.0031,0.0015 0.02481,-0.03824 0.0016,-0.0026 v -5.17e-4 l 0.01085,-0.01602 0.03204,-0.02481 0.02687,-0.01705 0.05891,-0.02481 0.0083,-0.0021 0.0031,-5.17e-4 0.104903,-0.04341 0.04082,-0.01705 0.125574,-0.09612 0.09405,-0.12299 0.0021,-0.0021 v -5.17e-4 l 0.06046,-0.146244 0.01137,-0.08423 0.0093,-0.07235 z m -0.605132,0 V 2.524911 H 28.2205 V 3.150196 H 27.970386 V 2.524911 H 27.345618 V 2.274797 h 0.624768 V 1.650029 H 28.2205 v 0.624768 z m -4.750097,53.890251 a 0.89999998,0.89999998 0 0 1 -0.900204,0.900204 0.89999998,0.89999998 0 0 1 -0.900203,-0.900204 0.89999998,0.89999998 0 0 1 0.900203,-0.900204 0.89999998,0.89999998 0 0 1 0.900204,0.900204 z M 23.795447,9.164816 A 0.89999998,0.89999998 0 0 1 22.89576,10.06502 0.89999998,0.89999998 0 0 1 21.995556,9.164816 0.89999998,0.89999998 0 0 1 22.89576,8.265129 0.89999998,0.89999998 0 0 1 23.795447,9.164816 Z m 0,15.000118 a 0.89999998,0.89999998 0 0 1 -0.899687,0.900204 0.89999998,0.89999998 0 0 1 -0.900204,-0.900204 0.89999998,0.89999998 0 0 1 0.900204,-0.899687 0.89999998,0.89999998 0 0 1 0.899687,0.899687 z m 0,47.135107 a 0.89999998,0.89999998 0 0 1 -0.899687,0.900203 0.89999998,0.89999998 0 0 1 -0.900204,-0.900203 0.89999998,0.89999998 0 0 1 0.900204,-0.900203 0.89999998,0.89999998 0 0 1 0.899687,0.900203 z M 23.323641,45.500065 H 22.80946 a 0.89999998,0.89999998 0 0 1 -0.688847,0.633036 v 0.506429 l 0.151412,-0.02377 h 0.001 l 5.16e-4,-5.16e-4 0.20929,-0.0677 0.06149,-0.03152 0.134877,-0.06873 0.178282,-0.129191 0.156063,-0.156063 0.129191,-0.178283 0.100253,-0.196371 0.06821,-0.209806 v -10e-4 z M 22.845635,32.114836 v 1.270206 l -0.02016,0.101803 -0.05736,0.08578 -0.08578,0.05736 -0.101286,0.02015 h -1.420584 l -0.101286,-0.02015 -0.0863,-0.05736 -0.05736,-0.08578 -0.02016,-0.101803 v -1.270206 l 0.02016,-0.101286 0.05736,-0.0863 0.0863,-0.05736 0.101286,-0.01964 h 1.420584 l 0.101286,0.01964 0.08578,0.05736 0.05736,0.0863 z m -0.001,3.135209 a 0.89999998,0.89999998 0 0 1 -0.898136,0.900203 H 21.79612 a 0.89999998,0.89999998 0 0 1 -0.433564,-0.111104 0.89999998,0.89999998 0 0 0 -5.18e-4,0 l -1.11466,-0.537952 a 0.25,0.25 0 0 1 -0.177767,-0.07338 0.25,0.25 0 0 1 -0.0098,-0.01034 l -2.915067,-2.91455 -0.0047,-10e-4 -1.224215,-0.552421 a 0.80000001,0.80000001 0 0 1 -5.17e-4,0 l -0.08578,-0.03876 a 0.80000001,0.80000001 0 0 1 -0.434083,-0.710551 0.80000001,0.80000001 0 0 1 0.433048,-0.710034 l 5.17e-4,-5.17e-4 5.18e-4,-5.17e-4 1.310513,-0.591178 h 0.0031 l 1.002523,-1.003557 v -9.315193 l -0.441316,0.0155 -0.0016,-5.17e-4 a 1,1 0 0 1 -0.107486,0.0057 1,1 0 0 1 -0.99994,-0.999939 1,1 0 0 1 0.121957,-0.478523 1,1 0 0 1 5.16e-4,-5.17e-4 v -0.0021 l 0.624769,-1.506885 0.0021,-0.0021 v -2.518709 l -0.0021,-0.0031 -0.624769,-1.506885 v -0.0021 a 1,1 0 0 1 -0.122473,-0.47904 1,1 0 0 1 0.99994,-0.999939 1,1 0 0 1 1.000456,0.999939 1,1 0 0 1 -0.121957,0.478523 1,1 0 0 1 -5.16e-4,5.17e-4 v 0.0021 l -0.624769,1.506885 -0.0036,0.0036 v 2.516126 l 0.001,5.17e-4 0.0026,0.0036 0.624769,1.506885 v 0.0026 a 1,1 0 0 1 0.122473,0.478523 1,1 0 0 1 -0.0062,0.107487 l 5.17e-4,0.0016 -0.01757,0.513147 5.16e-4,5.16e-4 a 0.25,0.25 0 0 1 0.07235,0.198438 v 0.830957 8.717297 a 0.25,0.25 0 0 1 -0.07235,0.208256 l -1.074353,1.07332 -0.001,0.0047 -0.426332,0.945162 0.426332,0.943612 v 0.0046 l 2.818948,2.816882 1.045414,-0.504878 a 0.89999998,0.89999998 0 0 1 0.434082,-0.111105 h 0.150379 a 0.89999998,0.89999998 0 0 1 0.898136,0.900204 z m 0,5.000211 A 0.89999998,0.89999998 0 0 1 21.946499,41.15046 H 21.79612 a 0.89999998,0.89999998 0 0 1 -0.90072,-0.900204 0.89999998,0.89999998 0 0 1 0.90072,-0.90072 h 0.150379 a 0.89999998,0.89999998 0 0 1 0.898136,0.90072 z m 0,2.499589 a 0.89999998,0.89999998 0 0 1 -0.898136,0.900721 H 21.79612 a 0.89999998,0.89999998 0 0 1 -0.90072,-0.900721 0.89999998,0.89999998 0 0 1 0.90072,-0.900203 h 0.150379 a 0.89999998,0.89999998 0 0 1 0.898136,0.900203 z m -1.224214,3.383256 A 0.89999998,0.89999998 0 0 1 20.931057,45.500065 H 20.41791 l 0.0124,0.07751 0.0677,0.209806 0.09974,0.195337 5.17e-4,0.001 0.129192,0.178283 0.156062,0.156063 0.178283,0.129191 0.01912,0.0098 0.112655,0.05736 0.06459,0.03307 0.209806,0.0677 v 5.16e-4 h 0.001 l 0.151411,0.02377 z m -2.374532,2.783293 -0.03101,-0.156063 -0.0016,-0.0083 -0.001,-0.0026 v -5.17e-4 l -0.06304,-0.151928 -0.09302,-0.13901 -1.017509,-1.017509 -0.04031,-0.05891 -0.499711,-1.106909 -0.0041,-0.0088 -0.001,-0.0036 -0.0041,-0.0078 -0.0021,-0.0047 -0.02946,-0.06459 -0.0083,-0.01809 v -5.17e-4 l -0.02997,-0.05013 -0.0062,-0.01137 -0.02015,-0.03927 -0.129707,-0.178284 -0.155545,-0.156062 -0.178285,-0.129192 -0.196371,-0.100252 -0.209806,-0.06821 -0.217557,-0.03462 h -0.220714 l -0.217559,0.03462 -0.206706,0.06718 -0.0031,0.001 -0.196371,0.100252 -0.178283,0.129192 -0.156063,0.156062 -0.129708,0.178284 -0.09974,0.19637 -0.0026,0.0078 -5.17e-4,0.001 -5.16e-4,0.0026 -0.04651,0.143144 -0.01809,0.05478 v 5.17e-4 l -0.03462,0.217558 v 0.220658 l 0.03462,0.217558 0.06821,0.209806 0.09974,0.19637 0.129708,0.178284 0.156063,0.156063 0.178283,0.129191 0.08268,0.04237 0.03617,0.02274 0.06925,0.03101 0.0083,0.0041 0.0072,0.0031 0.0062,0.0026 1.105874,0.499194 0.05891,0.04082 0.634587,0.634587 0.0279,0.03462 0.01395,0.02274 0.02791,0.07235 0.0016,0.01034 0.0031,0.03307 v 5.091679 l -0.0052,0.04393 -0.0057,0.02635 -0.03204,0.0708 -0.0057,0.0083 -0.0217,0.02584 -0.540019,0.539502 -0.03721,0.05581 -0.05581,0.08371 -0.04547,0.109554 -0.01602,0.03876 -0.0026,0.0052 v 0.001 l -0.0083,0.04031 -0.01085,0.05684 -0.01344,0.06718 v 0.167948 1.048515 l -0.0155,0.07648 -0.571541,1.378212 -0.0067,0.01912 -0.0093,0.02119 -0.02997,0.05839 -0.07751,0.239263 -0.03979,0.249079 v 0.251664 l 0.03979,0.249081 0.07751,0.239262 0.03204,0.06253 0.01137,0.03049 5.17e-4,-5.16e-4 0.0021,0.0062 0.401527,0.967898 0.170014,0.410311 0.0155,0.07648 v 2.165243 l -0.0155,0.07597 -0.571541,1.378209 -0.0067,0.01912 -0.0093,0.02119 -0.02997,0.0584 -0.07751,0.239261 -0.03979,0.249082 v 0.25218 l 0.03979,0.248563 0.07751,0.239779 0.114205,0.224277 0.148311,0.203604 0.178284,0.178285 0.203605,0.14831 0.173116,0.08785 0.05116,0.02636 0.0016,5.17e-4 0.0062,0.0021 0.232027,0.07545 0.249081,0.03927 h 0.251664 l 0.24908,-0.03927 0.06821,-0.02222 0.171049,-0.05581 0.221175,-0.112654 0.0036,-0.0016 5.17e-4,-5.17e-4 0.165881,-0.120405 0.03721,-0.02739 0.178284,-0.178285 0.147794,-0.203604 0.114722,-0.224277 0.07751,-0.239779 5.17e-4,-0.0015 0.01654,-0.104904 0.0057,-0.03462 0.01705,-0.107488 v -0.25218 l -0.01188,-0.07493 -0.02481,-0.153995 -0.0031,-0.02016 -0.07751,-0.239261 -0.03772,-0.0739 -0.0047,-0.0124 -5.17e-4,-0.0041 -5.17e-4,-0.0026 -5.15e-4,5.17e-4 -0.0021,-0.0062 -0.571542,-1.378209 -0.0155,-0.07597 v -2.165243 l 0.0155,-0.07648 0.176734,-0.426847 0.394808,-0.951362 0.0026,-0.0067 0.0036,-0.01085 0.0047,-0.0124 0.03514,-0.06873 0.07751,-0.239262 0.0031,-0.01964 0.01654,-0.104388 0.0031,-0.01757 0.01705,-0.107487 v -0.251664 l -0.01188,-0.07545 -0.02481,-0.153995 -0.0031,-0.01964 -0.07751,-0.239263 -0.03772,-0.07441 -0.0047,-0.01189 -5.17e-4,-0.0041 -5.17e-4,-0.0026 -5.15e-4,5.17e-4 -0.0021,-0.0062 -0.571542,-1.378212 -0.0155,-0.07648 v -0.675411 l 0.0052,-0.04393 0.0057,-0.02635 0.03204,-0.0708 0.0057,-0.0083 0.0217,-0.02584 0.540019,-0.539502 0.06305,-0.09457 0.02997,-0.04496 0.06925,-0.167432 5.17e-4,-0.01602 0.01344,-0.06718 0.01344,-0.06821 z m -0.598413,0.08217 a 0.25,0.25 0 0 1 -0.0021,0.03256 v 5.938139 a 0.25,0.25 0 0 1 -0.07235,0.208256 l -0.728121,0.72657 v 1.203544 l 10e-4,5.18e-4 0.0026,0.0036 0.624769,1.506886 v 0.0026 a 1,1 0 0 1 0.122473,0.478523 1,1 0 0 1 -0.121957,0.47904 1,1 0 0 1 -5.16e-4,5.17e-4 v 0.0016 l -0.624769,1.506885 -0.0036,0.0041 v 2.515609 l 10e-4,5.17e-4 0.0026,0.0041 0.624769,1.506884 v 0.0021 a 1,1 0 0 1 0.122473,0.47904 1,1 0 0 1 -1.000456,0.99994 1,1 0 0 1 -0.99994,-0.99994 1,1 0 0 1 0.121957,-0.478524 1,1 0 0 1 5.16e-4,-5.16e-4 v -0.0021 l 0.624769,-1.506884 0.0021,-0.0021 v -2.519225 l -0.0021,-0.0031 -0.624769,-1.506885 v -0.0021 a 1,1 0 0 1 -0.122473,-0.47904 1,1 0 0 1 0.121957,-0.478523 1,1 0 0 1 5.16e-4,-5.18e-4 v -0.0021 l 0.624769,-1.506886 0.0021,-0.0021 v -1.308964 a 0.25,0.25 0 0 1 0.05271,-0.152962 0.25,0.25 0 0 1 10e-4,-0.0016 0.25,0.25 0 0 1 0.01395,-0.0155 0.25,0.25 0 0 1 0.0067,-0.0078 l 0.72657,-0.72812 v -5.789311 l -1.001489,-1.002523 -0.0041,-10e-4 -1.310513,-0.591178 -10e-4,-10e-4 a 0.80000001,0.80000001 0 0 1 -0.433048,-0.709518 0.80000001,0.80000001 0 0 1 0.799951,-0.800468 0.80000001,0.80000001 0 0 1 0.710552,0.434082 0.80000001,0.80000001 0 0 1 0.03979,0.08888 l 0.551905,1.221631 v 0.0036 l 1.075385,1.074353 a 0.25,0.25 0 0 1 0.07442,0.176217 z m -4.05195,-37.016861 -0.03669,-0.233061 -0.07338,-0.224276 -0.106972,-0.210323 -0.06046,-0.0832 -0.361217,0.361218 a 1,1 0 0 1 0.139008,0.50798 1,1 0 0 1 -0.139008,0.507979 l 0.361217,0.361218 0.04393,-0.06046 0.01654,-0.02274 0.106972,-0.210323 0.07338,-0.224276 0.03669,-0.233577 z m 0,6.500378 -0.03669,-0.233061 v -5.16e-4 l -0.07338,-0.224276 -0.106972,-0.210323 -0.06046,-0.0832 -0.361217,0.361218 a 1,1 0 0 1 0.139008,0.507979 1,1 0 0 1 -0.139008,0.50798 l 0.361217,0.361218 0.06046,-0.08268 0.106972,-0.21084 0.07338,-0.224276 0.03669,-0.233061 z m 0,40.499853 -0.03669,-0.233061 -0.07338,-0.224793 -0.106972,-0.210323 -0.06046,-0.08268 -0.361217,0.361218 a 1,1 0 0 1 0.139008,0.507463 1,1 0 0 1 -0.139008,0.50798 l 0.361217,0.361217 0.04393,-0.05994 0.01654,-0.02274 0.106972,-0.210322 0.07338,-0.224793 0.03669,-0.23306 z m 0,6.499862 -0.03669,-0.233062 -0.07338,-0.224274 -0.106972,-0.210841 -0.06046,-0.08268 -0.361217,0.361219 a 1,1 0 0 1 0.139008,0.507978 1,1 0 0 1 -0.139008,0.507463 l 0.361217,0.361736 0.06046,-0.0832 0.106972,-0.210323 0.07338,-0.224275 v -5.17e-4 l 0.03669,-0.233062 z m -0.630968,-54.604419 -0.08268,-0.06046 -0.210323,-0.10697 h -5.17e-4 l -0.224275,-0.07286 -0.233061,-0.03721 H 12.97754 l -0.23306,0.03721 -0.224793,0.07286 -0.210323,0.10697 -0.08268,0.06046 0.361218,0.361218 a 1,1 0 0 1 0.507464,-0.138492 1,1 0 0 1 0.507978,0.138492 z m 0,2.445329 -0.361219,-0.361218 a 1,1 0 0 1 -0.507978,0.138493 1,1 0 0 1 -0.507464,-0.138493 l -0.361218,0.361218 0.08268,0.05994 0.210323,0.107487 0.0031,0.001 0.0036,0.001 0.218075,0.0708 0.23306,0.03721 h 0.236162 l 0.233061,-0.03721 0.218075,-0.0708 0.0036,-0.001 0.0031,-0.001 0.104903,-0.05374 0.10542,-0.05374 z m 0,4.054533 -0.08268,-0.05994 -0.210323,-0.107487 h -5.17e-4 l -0.224275,-0.07286 -0.233061,-0.03669 H 12.97754 l -0.23306,0.03669 -0.224793,0.07286 -0.210323,0.107487 -0.08268,0.05994 0.361218,0.361218 a 1,1 0 0 1 0.507464,-0.138493 1,1 0 0 1 0.507978,0.138493 z m 0,2.445329 -0.361219,-0.361219 a 1,1 0 0 1 -0.507978,0.138493 1,1 0 0 1 -0.507464,-0.138493 l -0.361218,0.361219 0.08268,0.06046 0.01085,0.0052 v 5.16e-4 l 10e-4,5.17e-4 0.198437,0.100769 0.224793,0.07286 0.23306,0.03721 h 0.236162 l 0.233061,-0.03721 0.218075,-0.0708 0.0036,-0.001 0.0031,-0.001 0.104903,-0.05374 0.10542,-0.05323 z m 0,38.054524 -0.08268,-0.05994 -0.210323,-0.107488 h -5.17e-4 l -0.224275,-0.07286 -0.233061,-0.03669 H 12.97754 l -0.23306,0.03669 -0.224793,0.07286 -0.210323,0.107488 -0.08268,0.05994 0.361218,0.361218 a 1,1 0 0 1 0.507464,-0.138493 1,1 0 0 1 0.507978,0.138493 z m 0,2.445845 -0.361219,-0.361735 a 1,1 0 0 1 -0.507978,0.13901 1,1 0 0 1 -0.507464,-0.13901 l -0.361218,0.361735 0.08268,0.05994 0.210323,0.10697 0.0031,0.0016 0.0036,10e-4 0.218075,0.0708 0.23306,0.03669 h 0.236162 l 0.233061,-0.03669 0.218075,-0.0708 0.0036,-10e-4 0.0031,-0.0016 0.104903,-0.05323 0.10542,-0.05374 z m 0,4.054533 -0.08268,-0.06046 -0.210323,-0.10697 h -5.17e-4 L 13.446763,64.13666 13.213702,64.09997 H 12.97754 l -0.23306,0.03669 -0.224793,0.07338 -0.210323,0.10697 -0.08268,0.06046 0.361218,0.361219 a 1,1 0 0 1 0.507464,-0.138494 1,1 0 0 1 0.507978,0.138494 z m 0,2.445329 -0.361219,-0.361219 a 1,1 0 0 1 -0.507978,0.138494 1,1 0 0 1 -0.507464,-0.138494 l -0.361218,0.361219 0.08268,0.05994 0.210323,0.107487 0.0031,10e-4 0.0036,0.001 0.218075,0.0708 0.23306,0.03669 h 0.236162 l 0.233061,-0.03669 0.218075,-0.0708 0.0036,-0.001 0.0031,-10e-4 0.104903,-0.05374 0.10542,-0.05374 z m -1.469162,-35.724952 -0.03204,-0.202054 -0.06304,-0.194821 -0.09302,-0.182417 -0.03204,-0.04444 -0.365353,0.365352 a 0.80000001,0.80000001 0 0 1 0.08578,0.360702 0.80000001,0.80000001 0 0 1 -0.08578,0.360184 l 0.365353,0.365353 0.03204,-0.04444 0.04547,-0.0894 0.04754,-0.09302 0.06304,-0.194303 0.03204,-0.202055 z m 0,15.600082 -0.03204,-0.202572 -0.06304,-0.194303 -0.09302,-0.182418 -0.03204,-0.04444 -0.365353,0.365353 a 0.80000001,0.80000001 0 0 1 0.08578,0.360701 0.80000001,0.80000001 0 0 1 -0.08578,0.360185 l 0.365353,0.365352 0.03204,-0.04444 0.04547,-0.0894 0.04754,-0.09302 0.06304,-0.194304 0.03204,-0.202571 z m -0.261483,-35.105867 -0.361218,-0.361219 -0.05994,0.0832 -0.01705,0.03256 -0.09043,0.177767 -10e-4,0.0026 -0.001,0.0036 -0.0708,0.218075 -0.03669,0.233062 v 0.23616 l 0.03669,0.233577 0.0708,0.218075 0.001,0.0036 10e-4,0.0026 0.107487,0.210323 0.05994,0.0832 0.361218,-0.361218 a 1,1 0 0 1 -0.138492,-0.507979 1,1 0 0 1 0.138492,-0.50798 z m 0,6.499861 -0.361218,-0.361218 -0.05994,0.0832 -0.01705,0.03256 -0.09043,0.177767 -10e-4,0.0026 -0.001,0.0041 -0.0708,0.217558 v 5.17e-4 l -0.03669,0.23306 v 0.236161 l 0.03669,0.233061 0.0708,0.218075 0.001,0.0036 10e-4,0.0026 0.107487,0.21084 0.05994,0.08268 0.361218,-0.361218 a 1,1 0 0 1 -0.138492,-0.507979 1,1 0 0 1 0.138492,-0.50798 z m 0,40.50037 -0.361218,-0.361218 -0.05994,0.08268 -0.01705,0.03307 -0.09043,0.17725 -10e-4,0.0031 -0.001,0.0036 -0.0708,0.218075 -0.03669,0.233061 v 0.236162 l 0.03669,0.23306 0.0708,0.218074 0.001,0.0036 10e-4,0.0031 0.107487,0.210322 0.05994,0.08268 0.361218,-0.361217 a 1,1 0 0 1 -0.138492,-0.50798 1,1 0 0 1 0.138492,-0.507463 z m 0,6.499863 -0.361218,-0.361219 -0.05994,0.08268 -0.01705,0.03307 -0.09043,0.177768 -10e-4,0.0026 -0.001,0.0036 -0.0708,0.218074 -0.03669,0.233062 v 0.23616 l 0.03669,0.233062 v 5.17e-4 l 0.0708,0.217558 0.001,0.0041 10e-4,0.0026 0.107487,0.210323 0.05994,0.0832 0.361218,-0.361736 a 1,1 0 0 1 -0.138492,-0.507463 1,1 0 0 1 0.138492,-0.507978 z m -0.312642,-34.97151 -0.04444,-0.03256 -0.182418,-0.09302 -0.194303,-0.06305 -0.202055,-0.03204 h -0.204638 l -0.202055,0.03204 -0.19482,0.06305 -0.182418,0.09302 -0.0047,0.0031 -0.03204,0.01085 -0.0078,0.0186 0.365352,0.365352 a 0.80000001,0.80000001 0 0 1 0.360702,-0.08578 0.80000001,0.80000001 0 0 1 0.360185,0.08578 z m 0,2.159041 -0.365352,-0.365352 a 0.80000001,0.80000001 0 0 1 -0.360185,0.08578 0.80000001,0.80000001 0 0 1 -0.360702,-0.08578 l -0.365352,0.365352 0.04444,0.03204 0.182418,0.09302 0.19482,0.06305 0.202055,0.03204 h 0.204638 l 0.202055,-0.03204 0.17725,-0.05736 0.01705,-0.0057 0.182418,-0.09302 z m 0,13.44104 -0.04444,-0.03256 -0.182418,-0.09302 -0.194303,-0.06305 -0.202055,-0.03204 h -0.204638 l -0.202055,0.03204 -0.19482,0.06305 -0.182418,0.09302 -0.0047,0.0031 -0.03204,0.01085 -0.0078,0.0186 0.365352,0.365353 a 0.80000001,0.80000001 0 0 1 0.360702,-0.0863 0.80000001,0.80000001 0 0 1 0.360185,0.0863 z m 0,2.158525 -0.365352,-0.365352 a 0.80000001,0.80000001 0 0 1 -0.360185,0.0863 0.80000001,0.80000001 0 0 1 -0.360702,-0.0863 l -0.365352,0.365352 0.04444,0.03256 0.182418,0.09302 0.19482,0.06305 0.202055,0.03204 h 0.204638 l 0.202055,-0.03204 0.17725,-0.05736 0.01705,-0.0057 0.163815,-0.08372 0.0186,-0.0093 z M 10.79624,36.390027 10.76162,36.171952 10.69341,35.962146 10.593158,35.765776 10.463967,35.587492 10.307904,35.431946 10.12962,35.302238 9.93325,35.201986 9.723443,35.133776 9.559112,35.107936 9.505882,35.099636 H 9.285223 l -0.0047,5.17e-4 -0.212907,0.03359 -0.185518,0.06046 -0.02429,0.0078 -0.19637,0.100252 -0.178284,0.129708 -0.156063,0.155546 -0.129191,0.178284 -0.100252,0.19637 -0.0026,0.0078 -5.17e-4,0.0016 -5.17e-4,0.0021 -0.04651,0.143144 -0.01809,0.05478 v 5.16e-4 l -0.03462,0.218075 v 0.220141 l 0.03462,0.218075 0.06821,0.20929 0.100252,0.19637 0.129191,0.178284 0.156063,0.156063 0.178284,0.129707 0.19637,0.09974 0.209806,0.06821 0.217558,0.03462 h 0.21239 0.0083 l 0.217557,-0.03462 0.209807,-0.06821 0.19637,-0.09974 0.178284,-0.129707 0.156063,-0.156063 0.129191,-0.178284 0.100252,-0.19637 0.06821,-0.20929 v -5.17e-4 l 0.03462,-0.217558 z m -0.100769,5.007446 -0.03204,-0.202055 -0.06305,-0.194303 -0.09302,-0.182418 -0.03256,-0.04444 -0.365353,0.365353 a 0.80000001,0.80000001 0 0 1 0.0863,0.360184 0.80000001,0.80000001 0 0 1 -0.0863,0.360702 l 0.365353,0.365352 0.0026,-0.0031 0.02997,-0.04134 0.08578,-0.168466 0.0072,-0.01395 0.06305,-0.19482 0.03204,-0.202055 z m -0.21394,-10.558012 -0.365353,-0.365352 -0.03256,0.04444 -0.09302,0.182417 -0.02945,0.09147 -0.03359,0.103353 -0.03204,0.202054 v 0.204639 l 0.03204,0.202055 0.06304,0.194303 0.09302,0.182418 0.03256,0.04444 0.365353,-0.365353 a 0.80000001,0.80000001 0 0 1 -0.08578,-0.360184 0.80000001,0.80000001 0 0 1 0.08578,-0.360702 z m 0,15.600082 -0.365353,-0.365353 -0.03256,0.04444 -0.09302,0.182418 -0.02945,0.09147 -0.03359,0.102836 -0.03204,0.202572 v 0.204122 l 0.03204,0.202571 0.06304,0.194304 0.09302,0.182418 0.03256,0.04444 0.365353,-0.365352 a 0.80000001,0.80000001 0 0 1 -0.08578,-0.360185 0.80000001,0.80000001 0 0 1 0.08578,-0.360701 z M 10.19576,36.500098 a 0.80000001,0.80000001 0 0 1 -0.800468,0.799951 0.80000001,0.80000001 0 0 1 -0.799951,-0.799951 0.80000001,0.80000001 0 0 1 0.799951,-0.799952 0.80000001,0.80000001 0 0 1 0.800468,0.799952 z m -0.07441,3.920174 -0.04444,-0.03204 -0.182418,-0.09302 -0.194303,-0.06304 -0.202572,-0.03204 H 9.292979 l -0.202055,0.03204 -0.194304,0.06304 -0.182417,0.09302 -0.0052,0.0031 -0.03152,0.01085 -0.0078,0.01809 0.365352,0.365352 a 0.80000001,0.80000001 0 0 1 0.360185,-0.08578 0.80000001,0.80000001 0 0 1 0.360701,0.08578 z m 0,2.159041 -0.365353,-0.365352 a 0.80000001,0.80000001 0 0 1 -0.360701,0.08578 0.80000001,0.80000001 0 0 1 -0.360185,-0.08578 l -0.365352,0.365352 0.04444,0.03256 0.182417,0.09302 0.194304,0.06304 0.202055,0.03204 h 0.204638 l 0.202572,-0.03204 0.155029,-0.05013 0.03927,-0.01292 0.182418,-0.09302 z M 8.99532,56.200187 A 0.89999998,0.89999998 0 0 1 8.095634,57.099874 0.89999998,0.89999998 0 0 1 7.19543,56.200187 0.89999998,0.89999998 0 0 1 8.095634,55.299984 0.89999998,0.89999998 0 0 1 8.99532,56.200187 Z M 8.795329,9.1999557 A 0.89999998,0.89999998 0 0 1 7.895642,10.100159 0.89999998,0.89999998 0 0 1 6.995438,9.1999557 0.89999998,0.89999998 0 0 1 7.895642,8.299752 0.89999998,0.89999998 0 0 1 8.795329,9.1999557 Z m 0,15.0001173 A 0.89999998,0.89999998 0 0 1 7.895642,25.09976 0.89999998,0.89999998 0 0 1 6.995438,24.200073 0.89999998,0.89999998 0 0 1 7.895642,23.29987 0.89999998,0.89999998 0 0 1 8.795329,24.200073 Z m 0,46.999715 A 0.89999998,0.89999998 0 0 1 7.895642,72.099992 0.89999998,0.89999998 0 0 1 6.995438,71.199788 0.89999998,0.89999998 0 0 1 7.895642,70.300102 0.89999998,0.89999998 0 0 1 8.795329,71.199788 Z M 8.68164,41.139608 8.315771,40.774255 l -0.03204,0.04444 -0.09302,0.182418 -0.0093,0.02894 -0.05374,0.165364 -0.03204,0.202055 v 0.204639 l 0.03204,0.202055 0.06304,0.19482 0.09302,0.182418 0.03204,0.04444 0.365869,-0.365352 a 0.80000001,0.80000001 0 0 1 -0.0863,-0.360702 0.80000001,0.80000001 0 0 1 0.0863,-0.360184 z m -2.485635,-2.383834 -0.01654,-0.126091 -0.01809,-0.139526 -0.0031,-0.02015 -0.0062,-0.02532 -0.05684,-0.211874 -0.01137,-0.04186 -0.107487,-0.259933 -0.0015,-0.0026 -0.0016,-0.0036 L 5.8291,37.674706 5.653401,37.445779 5.449795,37.242174 l -0.228926,-0.1757 -0.249597,-0.144177 -0.0036,-0.0015 -0.0031,-10e-4 -0.259933,-0.108003 -0.259415,-0.06925 -0.01912,-0.0052 -0.286287,-0.03772 H 4.089687 3.851458 l -0.28577,0.03772 -0.279053,0.07442 -0.09715,0.04031 -0.162781,0.0677 -0.0031,0.001 -0.0031,0.0015 -0.250114,0.144177 -0.04703,0.03617 -0.181901,0.139526 -0.203604,0.203605 v 5.17e-4 l -10e-4,5.17e-4 -0.09198,0.119889 -0.07441,0.09715 -0.0083,0.01085 -0.0894,0.155029 -0.05478,0.09508 -0.110588,0.266134 -0.07441,0.279052 -0.03772,0.285771 v 0.288354 l 0.03772,0.286288 0.07441,0.278536 0.110588,0.266133 0.144177,0.250114 0.175701,0.228927 0.08268,0.08268 0.120923,0.12144 0.0016,10e-4 h 5.18e-4 l 0.0047,0.0036 0.120406,0.0925 0.101802,0.07803 0.174667,0.100769 0.07545,0.04341 0.266134,0.110588 0.279053,0.07441 0.28577,0.03772 h 0.288355 l 0.286287,-0.03772 0.278536,-0.07441 0.266651,-0.110588 0.09457,-0.05478 0.155029,-0.0894 L 5.44992,40.558159 5.653526,40.354037 5.829225,40.12511 5.973403,39.874996 6.08399,39.608863 6.146,39.376836 l 0.0093,-0.03411 0.0041,-0.0124 0.001,-0.01292 0.01809,-0.13746 0.01757,-0.135909 z M 3.65094,53.775012 3.64214,53.706802 3.63025,53.618432 3.56979,53.472188 3.47367,53.346614 l -0.125574,-0.09612 -0.09198,-0.03824 -0.04393,-0.01809 -0.0098,-0.0041 -0.0031,-5.17e-4 -0.01137,-0.0041 -0.0186,-0.0072 -0.02791,-0.0098 -0.0016,-10e-4 h -5.17e-4 l -0.0088,-0.0041 v -5.17e-4 l -0.02687,-0.0217 -0.02894,-0.0186 -0.0093,-0.01189 -0.0036,-0.0031 -0.0021,-0.0041 -0.01033,-0.01292 -0.01705,-0.02687 -0.02377,-0.06098 h -5.17e-4 l -5.17e-4,-0.0026 -0.0015,-0.0036 -5.17e-4,-0.0031 -0.06046,-0.145728 -0.09612,-0.125573 -0.125574,-0.09612 -0.146244,-0.06046 -0.03566,-0.0047 -0.120923,-0.01602 H 2.170383 l -0.0083,10e-4 -0.148312,0.01964 -0.106453,0.04393 -0.03979,0.01654 -5.17e-4,5.17e-4 -0.0021,0.0016 -0.122473,0.09405 -0.09663,0.125573 -0.06046,0.145728 -5.18e-4,0.0016 -0.0016,0.0057 -0.0016,0.0052 -0.0036,0.0093 -5.17e-4,0.0026 -0.0031,0.01085 -0.0031,0.0052 -0.0077,0.02119 -0.0052,0.01033 -0.0031,-0.0015 -0.0248,0.03824 -0.0021,0.0026 -0.01034,0.01654 -0.03255,0.02532 -0.02687,0.01654 -0.06563,0.02636 -0.0041,10e-4 -0.146244,0.06046 -5.17e-4,5.17e-4 -0.0021,0.0015 -0.12299,0.09405 -0.09612,0.125574 -0.06046,0.146244 -0.0016,0.0098 v 10e-4 0.0021 l -0.0186,0.14056 -5.17e-4,0.0021 v 0.001 0.247014 0.0031 l 0.02067,0.15658 0.03049,0.07286 0.02429,0.05943 0.0021,0.0062 10e-4,0.0026 0.0047,0.01034 0.0031,0.0067 0.01499,0.01395 0.07596,0.09922 0.125574,0.09663 0.146244,0.06046 0.0016,5.17e-4 0.0124,0.0041 0.0078,0.0026 0.01085,0.0041 0.02842,0.01033 0.0016,5.17e-4 v 5.17e-4 l 0.0088,0.0041 h 5.17e-4 l 0.02636,0.0217 0.02894,0.01861 0.0093,0.0124 0.0041,0.0031 0.0016,0.0041 0.01034,0.01292 0.01654,0.02635 0.02119,0.05891 0.0031,-10e-4 0.0031,0.0124 0.02274,0.05426 0.0078,0.01912 0.02481,0.05943 0.0016,0.0057 0.0015,0.0026 0.0047,0.01034 0.0026,0.0067 0.01499,0.01395 0.07648,0.09974 0.125057,0.09612 0.03979,0.01654 0.09973,0.04134 0.0052,0.0021 0.0015,5.16e-4 0.15658,0.02067 h 0.250114 l 0.15658,-0.02067 0.04651,-0.01912 0.09974,-0.04134 0.04703,-0.03617 0.07855,-0.05994 0.09612,-0.125574 5.16e-4,-0.0021 0.03772,-0.08992 0.01809,-0.04393 0.0041,-0.01033 0.0021,-0.0062 0.0016,-0.0062 h 5.17e-4 l 0.0031,-0.0093 5.17e-4,-0.0021 0.0036,-0.01137 0.0031,-0.0052 0.0072,-0.02067 0.0052,-0.01085 0.0031,0.0015 0.02532,-0.03824 0.0016,-0.0026 0.01085,-0.01602 0.03204,-0.02532 0.02687,-0.01705 0.05684,-0.02429 0.01034,-0.0021 0.0031,-5.17e-4 0.08423,-0.03514 0.0615,-0.02532 0.125574,-0.09663 0.09405,-0.122473 0.0016,-0.0021 5.18e-4,-5.17e-4 0.06046,-0.146245 0.0093,-0.06976 0.01137,-0.08682 z m -0.605648,0 v 0.250114 H 2.420524 v 0.624769 H 2.17041 V 54.025126 H 1.545642 V 53.775012 H 2.17041 v -0.624768 h 0.250114 v 0.624768 z"/>
</svg>