<?xml version='1.0' encoding='UTF-8'?>
<svg xmlns="http://www.w3.org/2000/svg" xmlns:svg="http://www.w3.org/2000/svg" version="1.1" width="108.9660mm" height="38.1254mm" viewBox="0.0000 0.0000 108.9660 38.1254" id="svg6">
  <defs id="defs6"/>
  <title id="title1">SVG Image created as loop_btn-F_Cu.svg date 2026-06-09T21:07:34 </title>
  <desc id="desc1">Image generated by PCBNEW </desc>
  <path id="bambu_00005" style="fill:#046307;fill-opacity:1;stroke:none" d="M 0 0 L 0 38.125321 L 108.96596 38.125321 L 108.96596 0 L 0 0 z M 0.63768717 0.50074463 L 108.32569 0.50074463 L 108.36083 0.50539551 L 108.37581 0.51004639 L 108.3908 0.51934814 L 108.40785 0.52451579 L 108.43472 0.54777018 L 108.43576 0.54880371 L 108.46315 0.60409749 L 108.46521 0.61133219 L 108.46831 0.63768717 L 108.46831 33.485295 L 108.46315 33.519918 L 108.45901 33.534904 L 108.44919 33.54989 L 108.44403 33.566943 L 108.42077 33.593815 L 108.42026 33.594849 L 108.36496 33.622754 L 108.35824 33.624304 L 108.33189 33.626888 L 26.003581 33.626888 L 25.971541 33.622754 L 25.941052 33.614486 L 25.91108 33.602083 L 23.483838 32.202686 L 22.685437 31.742249 L 19.606038 29.966646 L 17.219621 28.589986 L 16.942635 28.430823 L 0.57774251 18.994189 L 0.550354 18.972485 L 0.5374349 18.959049 L 0.50642904 18.902205 L 0.50384521 18.892387 L 0.50074463 18.862931 L 0.50074463 15.701367 L 0.50074463 9.2015055 L 0.50074463 3.8664307 L 0.50074463 0.64233805 L 0.50539551 0.60719808 L 0.51004639 0.59221191 L 0.54777018 0.53381755 L 0.54880371 0.53226725 L 0.60409749 0.50487874 L 0.61133219 0.50332845 L 0.63768717 0.50074463 z M 3.8669474 1.9967773 L 3.6359538 2.0272664 L 3.607015 2.0314006 L 3.3538005 2.0990967 L 3.111438 2.199349 L 2.8845785 2.3306071 L 2.6763224 2.4902873 L 2.490804 2.6758057 L 2.3311239 2.8835449 L 2.2003825 3.1109212 L 2.0996134 3.3532837 L 2.0319173 3.6064982 L 2.0308838 3.6152832 L 2.030367 3.6163167 L 1.9978109 3.8664307 L 1.9978109 4.1284302 L 1.9988444 4.1387655 L 2.0319173 4.3883626 L 2.0815267 4.5728475 L 2.0996134 4.6420939 L 2.1667928 4.8033244 L 2.2003825 4.8844564 L 2.3311239 5.1113159 L 2.490804 5.3195719 L 2.6763224 5.5045736 L 2.6949259 5.519043 L 2.7088786 5.529895 L 2.8845785 5.6642537 L 3.111438 5.7955119 L 3.3538005 5.8957642 L 3.607015 5.9639771 L 3.8669474 5.9980835 L 4.1294637 5.9980835 L 4.3893962 5.9639771 L 4.6426107 5.8957642 L 4.8193441 5.8223836 L 4.8849731 5.7955119 L 5.1118327 5.6642537 L 5.3200887 5.5045736 L 5.3976034 5.4275757 L 5.5009562 5.3242228 L 5.501473 5.3237061 L 5.5050903 5.3200887 L 5.5056071 5.3195719 L 5.5056071 5.3190552 L 5.5061239 5.3190552 L 5.5092244 5.3144043 L 5.5097412 5.3138875 L 5.6652873 5.1113159 L 5.7965454 4.8844564 L 5.8967977 4.6420939 L 5.9644938 4.3883626 L 5.9986003 4.1284302 L 5.9986003 3.8664307 L 5.9644938 3.6064982 L 5.9541585 3.5687744 L 5.8967977 3.3532837 L 5.7965454 3.1109212 L 5.7577881 3.0442586 L 5.6652873 2.8835449 L 5.5138753 2.686141 L 5.5133586 2.6856242 L 5.5056071 2.6758057 L 5.5045736 2.6747721 L 5.3200887 2.4902873 L 5.1118327 2.3306071 L 4.8849731 2.199349 L 4.6467448 2.100647 L 4.6426107 2.0990967 L 4.4266032 2.0412191 L 4.3893962 2.0314006 L 4.3315186 2.0236491 L 4.2054281 2.0071126 L 4.1294637 1.9967773 L 3.8669474 1.9967773 z M 104.85717 2.0071126 L 104.62617 2.0376017 L 104.59723 2.0412191 L 104.34402 2.1089152 L 104.10166 2.2096842 L 103.87428 2.3404256 L 103.66654 2.5001058 L 103.48102 2.6856242 L 103.32134 2.8938802 L 103.19008 3.1207397 L 103.08983 3.3631022 L 103.02472 3.6064982 L 103.02162 3.6163167 L 102.98855 3.8664307 L 102.98751 3.8762492 L 102.98751 4.1387655 L 103.01438 4.3408203 L 103.02265 4.3986979 L 103.02834 4.420402 L 103.07691 4.6007528 L 103.08776 4.6420939 L 103.09087 4.6519124 L 103.13272 4.7531982 L 103.19112 4.8942749 L 103.32238 5.1211344 L 103.48206 5.3293905 L 103.66757 5.5149089 L 103.71563 5.5521159 L 103.79056 5.6094767 L 103.87531 5.674589 L 104.00657 5.7500366 L 104.10269 5.8053304 L 104.10269 5.8058472 L 104.34505 5.9060994 L 104.59827 5.9737956 L 104.8582 6.007902 L 105.1202 6.007902 L 105.38013 5.9737956 L 105.63386 5.9060994 L 105.8106 5.8327189 L 105.87209 5.8073975 L 105.87416 5.8063639 L 105.87622 5.8053304 L 105.87933 5.8032633 L 106.10308 5.674589 L 106.17957 5.6156779 L 106.31134 5.5149089 L 106.39816 5.4275757 L 106.49169 5.3340413 L 106.49221 5.3335246 L 106.49634 5.3299072 L 106.49686 5.3293905 L 106.49738 5.3288737 L 106.50048 5.3247396 L 106.50099 5.3237061 L 106.65602 5.1211344 L 106.78728 4.8942749 L 106.88753 4.6519124 L 106.95575 4.3986979 L 106.98985 4.1387655 L 106.98985 3.8762492 L 106.95575 3.6163167 L 106.88753 3.3631022 L 106.8834 3.3532837 L 106.78728 3.1207397 L 106.65654 2.8938802 L 106.55112 2.7564209 L 106.49634 2.6856242 L 106.31134 2.5001058 L 106.10205 2.3404256 L 105.87467 2.2096842 L 105.63645 2.1109823 L 105.63283 2.1089152 L 105.44111 2.0577555 L 105.3791 2.0412191 L 105.32174 2.0334676 L 105.30365 2.0314006 L 105.11917 2.0071126 L 104.85717 2.0071126 z M 25.539526 2.3383586 L 25.429456 2.352828 L 25.402584 2.3564453 L 25.390698 2.3579956 L 25.387081 2.3579956 L 25.382947 2.3590291 L 25.236702 2.4194906 L 25.111646 2.5156087 L 25.015011 2.6411825 L 24.954549 2.7874268 L 24.953516 2.7972453 L 24.946798 2.8236003 L 24.945247 2.8277344 L 24.94163 2.8354858 L 24.941113 2.8401367 L 24.938013 2.8478882 L 24.921993 2.8695923 L 24.909074 2.8928467 L 24.8698 2.9326375 L 24.841378 2.9538249 L 24.815023 2.9682943 L 24.771615 2.9822469 L 24.757662 2.9837972 L 24.611934 3.0442586 L 24.486361 3.1408936 L 24.390243 3.2659505 L 24.329781 3.4121948 L 24.328748 3.4163289 L 24.328748 3.4194295 L 24.328748 3.4199463 L 24.309111 3.5687744 L 24.309111 3.5729085 L 24.309111 3.8188883 L 24.315312 3.8664307 L 24.329781 3.9754679 L 24.390243 4.1217122 L 24.486361 4.2467692 L 24.611934 4.3434041 L 24.757662 4.4038656 L 24.767997 4.4048991 L 24.794352 4.411617 L 24.79797 4.4131673 L 24.806238 4.4167847 L 24.810372 4.4173014 L 24.81864 4.420402 L 24.840344 4.4364217 L 24.863599 4.4493408 L 24.903389 4.4891317 L 24.924577 4.5170369 L 24.939046 4.5433919 L 24.952999 4.5868001 L 24.954549 4.6007528 L 25.015011 4.7464803 L 25.018628 4.7511312 L 25.020178 4.7531982 L 25.111646 4.872054 L 25.236702 4.9681722 L 25.382947 5.0286336 L 25.539526 5.0493042 L 25.78964 5.0493042 L 25.94622 5.0286336 L 26.092464 4.9681722 L 26.218038 4.872054 L 26.314156 4.7464803 L 26.374618 4.6007528 L 26.375651 4.5904175 L 26.382369 4.5640625 L 26.383919 4.5604451 L 26.387537 4.5521769 L 26.388053 4.5480428 L 26.391154 4.5397746 L 26.407174 4.5185872 L 26.420093 4.4948161 L 26.459367 4.455542 L 26.487789 4.4343547 L 26.514144 4.4198853 L 26.557552 4.4054159 L 26.571505 4.4038656 L 26.717232 4.3434041 L 26.842806 4.2467692 L 26.938924 4.1217122 L 26.999386 3.9754679 L 27.012305 3.8762492 L 27.020056 3.8188883 L 27.020056 3.5687744 L 26.999386 3.4121948 L 26.938924 3.2659505 L 26.842806 3.1408936 L 26.717232 3.0442586 L 26.622664 3.0055013 L 26.599927 2.9956828 L 26.571505 2.9837972 L 26.561169 2.9827637 L 26.534814 2.9760457 L 26.531197 2.9750122 L 26.522929 2.9708781 L 26.518795 2.9703613 L 26.510527 2.9672607 L 26.489339 2.951241 L 26.465568 2.9383219 L 26.425777 2.8990479 L 26.40459 2.8706258 L 26.390637 2.8442708 L 26.376168 2.8008626 L 26.374618 2.7874268 L 26.314156 2.6411825 L 26.218038 2.5156087 L 26.092464 2.4194906 L 25.997896 2.3802165 L 25.975159 2.3709147 L 25.94622 2.3590291 L 25.936401 2.3574788 L 25.926583 2.3564453 L 25.78964 2.3383586 L 25.539526 2.3383586 z M 25.539526 2.9440063 L 25.78964 2.9440063 L 25.78964 3.5687744 L 26.414408 3.5687744 L 26.414408 3.8188883 L 25.78964 3.8188883 L 25.78964 4.4436564 L 25.539526 4.4436564 L 25.539526 3.8188883 L 24.914758 3.8188883 L 24.914758 3.5687744 L 25.539526 3.5687744 L 25.539526 2.9440063 z M 56.047742 5.3268066 L 56.033272 5.3293905 L 55.830184 5.3614299 L 55.620894 5.4296427 L 55.620378 5.4296427 L 55.424007 5.529895 L 55.245723 5.6590861 L 55.090177 5.8151489 L 54.96047 5.9934326 L 54.860217 6.1898031 L 54.792004 6.3996094 L 54.757898 6.6171672 L 54.757898 6.8378255 L 54.792004 7.0553833 L 54.860217 7.2651896 L 54.956335 7.4532918 L 54.96047 7.4615601 L 54.984757 7.4951497 L 55.001294 7.5261556 L 55.004395 7.5354574 L 55.006462 7.5411418 L 55.010596 7.6109049 L 55.009045 7.6171061 L 54.975972 7.6770508 L 53.284603 9.3684204 L 53.250496 9.3921916 L 51.892957 10.042798 L 51.891406 10.043315 L 51.889856 10.044348 L 51.816475 10.086206 L 51.810791 10.089307 L 51.781852 10.104293 L 51.672815 10.183358 L 51.602535 10.234517 L 51.5953 10.238652 L 51.419084 10.414351 L 51.41495 10.422103 L 51.37981 10.470162 L 51.284725 10.600903 L 51.245968 10.677384 L 51.177755 10.811743 L 51.104891 11.036019 L 51.067684 11.269596 L 51.067684 11.505758 L 51.083704 11.605493 L 51.104891 11.738818 L 51.177755 11.963611 L 51.284725 12.173934 L 51.385494 12.312944 L 51.392212 12.325346 L 51.40203 12.343949 L 51.407198 12.358419 L 51.411332 12.428182 L 51.410815 12.430766 L 51.383944 12.483993 L 51.37981 12.488643 L 51.361206 12.506213 L 51.239766 12.599231 L 51.152433 12.713436 L 51.143648 12.724805 L 51.090422 12.853479 L 51.083187 12.870532 L 51.067684 12.988354 L 51.067684 12.989905 L 51.067684 14.866793 L 51.083187 14.984098 L 51.124528 15.084351 L 51.143648 15.130343 L 51.239766 15.255916 L 51.36534 15.352035 L 51.511584 15.412496 L 51.62889 15.427999 L 53.507845 15.427999 L 53.617399 15.413529 L 53.617916 15.413529 L 53.618433 15.413529 L 53.621016 15.413529 L 53.624634 15.413013 L 53.625151 15.412496 L 53.770878 15.352035 L 53.896452 15.255916 L 53.99257 15.130343 L 54.053548 14.984098 L 54.068534 14.866793 L 54.068534 12.988354 L 54.054065 12.878284 L 54.054065 12.877767 L 54.054065 12.87725 L 54.054065 12.874666 L 54.054065 12.87415 L 54.053548 12.871049 L 54.033911 12.82454 L 53.99257 12.724805 L 53.896452 12.599231 L 53.889734 12.594063 L 53.8887 12.59303 L 53.88715 12.591996 L 53.840641 12.55634 L 53.779146 12.509314 L 53.754342 12.483993 L 53.745557 12.47159 L 53.721785 12.405444 L 53.721785 12.402861 L 53.732638 12.343949 L 53.735221 12.338265 L 53.747624 12.317078 L 53.851493 12.173934 L 53.95898 11.963611 L 53.983785 11.88713 L 53.99257 11.866459 L 53.999288 11.854057 L 54.479362 10.594702 L 54.507267 10.550777 L 55.756803 9.3017578 L 56.292688 8.7658732 L 56.304574 8.7555379 L 56.328861 8.7369344 L 56.761393 8.3038859 L 56.789815 8.2692627 L 56.798083 8.2604777 L 56.818754 8.2398071 L 56.911772 8.1002808 L 56.959831 7.9845256 L 56.977401 7.9545532 L 57.243018 7.6212402 L 57.285392 7.5612956 L 57.287459 7.5571615 L 57.295211 7.5452759 L 57.321049 7.5096191 L 57.356189 7.4615601 L 57.455924 7.2651896 L 57.524137 7.0553833 L 57.558761 6.8378255 L 57.558761 6.6254354 L 57.558761 6.6171672 L 57.524137 6.3996094 L 57.455924 6.1898031 L 57.421301 6.1221069 L 57.356189 5.9934326 L 57.292627 5.9060994 L 57.226481 5.8151489 L 57.070418 5.6590861 L 57.054915 5.648234 L 56.902987 5.5376465 L 56.892135 5.529895 L 56.885933 5.5267944 L 56.829089 5.4978556 L 56.695764 5.4296427 L 56.485958 5.3614299 L 56.283386 5.3293905 L 56.2684 5.3268066 L 56.047742 5.3268066 z M 88.247843 5.3268066 L 88.232857 5.3293905 L 88.030286 5.3614299 L 87.820479 5.4296427 L 87.624109 5.529895 L 87.445825 5.6590861 L 87.289762 5.8151489 L 87.160571 5.9934326 L 87.060319 6.1898031 L 86.992106 6.3996094 L 86.957483 6.6171672 L 86.957483 6.8378255 L 86.992106 7.0553833 L 87.060319 7.2651896 L 87.10011 7.343221 L 87.121814 7.3861125 L 87.133183 7.4191854 L 87.136283 7.4346883 L 87.131632 7.4796468 L 87.129049 7.5044515 L 87.125431 7.5137533 L 87.098043 7.5550944 L 85.184981 9.4681559 L 85.150875 9.4924438 L 83.793335 10.142533 L 83.791268 10.143567 L 83.790234 10.144084 L 83.789718 10.144084 L 83.716337 10.186458 L 83.710653 10.189042 L 83.681714 10.204028 L 83.572677 10.28361 L 83.502397 10.334253 L 83.495162 10.338387 L 83.318945 10.514604 L 83.315328 10.521838 L 83.297758 10.546126 L 83.295691 10.548193 L 83.185103 10.701156 L 83.145829 10.777637 L 83.077616 10.911479 L 83.004753 11.136271 L 82.967546 11.369332 L 82.967546 11.605493 L 83.004753 11.839071 L 83.077616 12.063346 L 83.133944 12.173934 L 83.185103 12.273669 L 83.285872 12.412679 L 83.302409 12.443685 L 83.307576 12.458671 L 83.311194 12.528434 L 83.310677 12.531018 L 83.283805 12.584245 L 83.279671 12.588896 L 83.261584 12.605949 L 83.140145 12.698966 L 83.120508 12.724805 L 83.04351 12.82454 L 82.985116 12.96665 L 82.983565 12.969751 L 82.983049 12.970785 L 82.980981 12.988354 L 82.967546 13.08809 L 82.967546 14.967045 L 82.983049 15.084351 L 83.039893 15.221293 L 83.04351 15.230595 L 83.140145 15.355652 L 83.265202 15.45177 L 83.411446 15.512748 L 83.528752 15.528251 L 85.407707 15.528251 L 85.517261 15.513265 L 85.517778 15.513265 L 85.518294 15.513265 L 85.520878 15.513265 L 85.524495 15.512748 L 85.525012 15.512748 L 85.671257 15.45177 L 85.796313 15.355652 L 85.892948 15.230595 L 85.95341 15.084351 L 85.968913 14.967045 L 85.968913 13.08809 L 85.954443 12.978536 L 85.954443 12.978019 L 85.954443 12.977502 L 85.953927 12.974919 L 85.953927 12.973885 L 85.95341 12.971301 L 85.95341 12.970785 L 85.914653 12.87725 L 85.892948 12.82454 L 85.796313 12.698966 L 85.789596 12.693799 L 85.788562 12.693282 L 85.787012 12.692249 L 85.740503 12.656075 L 85.679008 12.609049 L 85.65472 12.584245 L 85.645418 12.571326 L 85.621647 12.505697 L 85.621647 12.503113 L 85.632499 12.444202 L 85.635083 12.438517 L 85.647485 12.416813 L 85.751355 12.273669 L 85.858842 12.063346 L 85.883647 11.987382 L 85.892432 11.966711 L 85.89915 11.953792 L 86.379224 10.694438 L 86.407646 10.651029 L 89.018856 8.0398193 L 89.079834 7.9483521 L 89.09327 7.9318156 L 89.108256 7.9157959 L 89.124792 7.9018433 L 89.195072 7.8506836 L 89.27052 7.7959066 L 89.308761 7.757666 L 89.324264 7.7447469 L 89.341317 7.7251099 L 89.426583 7.6398437 L 89.555774 7.4615601 L 89.656026 7.2651896 L 89.724239 7.0553833 L 89.758862 6.8378255 L 89.758862 6.6254354 L 89.758862 6.6171672 L 89.724239 6.3996094 L 89.656026 6.1898031 L 89.621403 6.1221069 L 89.555774 5.9934326 L 89.492212 5.9060994 L 89.426583 5.8151489 L 89.27052 5.6590861 L 89.255017 5.648234 L 89.103088 5.5376465 L 89.102572 5.5376465 L 89.092236 5.529895 L 89.086035 5.5267944 L 89.029191 5.4978556 L 88.895866 5.4296427 L 88.68606 5.3614299 L 88.483488 5.3293905 L 88.468502 5.3268066 L 88.247843 5.3268066 z M 63.6757 5.4275757 L 63.473645 5.4596151 L 63.376493 5.4911377 L 63.279342 5.5226603 L 63.096924 5.6156779 L 63.052482 5.648234 L 63.378044 5.9737956 L 63.417834 6.0135864 A 0.80000001 0.80000001 0 0 1 63.778019 5.9272868 A 0.80000001 0.80000001 0 0 1 64.138721 6.0135864 L 64.504073 5.648234 L 64.459631 5.6156779 L 64.394519 5.582605 L 64.277214 5.5226603 L 64.082393 5.4596151 L 63.880855 5.4275757 L 63.880339 5.4275757 L 63.6757 5.4275757 z M 95.875802 5.4275757 L 95.673747 5.4596151 L 95.576595 5.4911377 L 95.479443 5.5226603 L 95.297026 5.6156779 L 95.252067 5.648234 L 95.578145 5.9737956 L 95.617419 6.0135864 L 95.617936 6.0135864 A 0.80000001 0.80000001 0 0 1 95.978121 5.9272868 A 0.80000001 0.80000001 0 0 1 96.338822 6.0135864 L 96.704175 5.648234 L 96.659733 5.6156779 L 96.594621 5.582605 L 96.477315 5.5226603 L 96.282495 5.4596151 L 96.08044 5.4275757 L 95.875802 5.4275757 z M 56.158329 5.9272868 A 0.80000001 0.80000001 0 0 1 56.95828 6.7277547 A 0.80000001 0.80000001 0 0 1 56.770178 7.2429687 A 0.80000001 0.80000001 0 0 1 56.769661 7.2434855 A 0.80000001 0.80000001 0 0 1 56.769661 7.2440023 L 56.40896 7.6972046 A 0.25 0.25 0 0 1 56.336096 7.8749715 L 53.962598 10.247437 L 53.962081 10.251571 L 53.433431 11.638049 L 53.431881 11.6396 A 0.89999998 0.89999998 0 0 1 52.568368 12.287622 A 0.89999998 0.89999998 0 0 1 51.668164 11.387419 A 0.89999998 0.89999998 0 0 1 52.151855 10.591602 L 52.154439 10.588501 L 52.154956 10.588501 L 53.603446 9.8944865 L 53.607581 9.8944865 L 55.862223 7.6398437 L 55.546997 7.2440023 L 55.546997 7.2434855 A 0.80000001 0.80000001 0 0 1 55.358378 6.7277547 A 0.80000001 0.80000001 0 0 1 56.158329 5.9272868 z M 88.358431 5.9272868 A 0.80000001 0.80000001 0 0 1 89.158382 6.7277547 A 0.80000001 0.80000001 0 0 1 88.607511 7.487915 A 0.25 0.25 0 0 1 88.573405 7.6248576 A 0.25 0.25 0 0 0 88.572888 7.6253743 A 0.25 0.25 0 0 1 88.553768 7.6527629 A 0.25 0.25 0 0 1 88.531547 7.6775675 L 85.862459 10.346655 L 85.862976 10.347689 L 85.861943 10.351823 L 85.333293 11.738302 L 85.332259 11.739335 A 0.89999998 0.89999998 0 0 1 84.468229 12.387358 A 0.89999998 0.89999998 0 0 1 83.568026 11.487671 A 0.89999998 0.89999998 0 0 1 84.051717 10.691854 L 84.054301 10.688753 L 84.054818 10.688753 L 84.116313 10.659298 A 0.89999998 0.89999998 0 0 1 84.117346 10.658781 L 85.503825 9.9947388 L 85.507442 9.9947388 L 88.033903 7.4677612 L 88.03442 7.4651774 L 88.037004 7.4600098 A 0.80000001 0.80000001 0 0 1 87.557963 6.7277547 A 0.80000001 0.80000001 0 0 1 88.358431 5.9272868 z M 62.699015 6.0017008 L 62.666459 6.0461426 L 62.573442 6.2285604 L 62.542952 6.3220947 L 62.510396 6.4228638 L 62.478357 6.6254354 L 62.478357 6.8295573 L 62.510396 7.0321289 L 62.573442 7.2264323 L 62.593079 7.2651896 L 62.666459 7.4088501 L 62.698499 7.4532918 L 62.699015 7.4532918 L 63.063851 7.0884562 A 0.80000001 0.80000001 0 0 1 62.978068 6.7277547 A 0.80000001 0.80000001 0 0 1 63.063851 6.3670532 L 62.699015 6.0017008 z M 64.85754 6.0017008 L 64.492187 6.3670532 A 0.80000001 0.80000001 0 0 1 64.57797 6.7277547 A 0.80000001 0.80000001 0 0 1 64.492187 7.0879395 L 64.85754 7.4532918 L 64.890096 7.4088501 L 64.983114 7.2264323 L 65.046159 7.0321289 L 65.078198 6.8295573 L 65.078198 6.6254354 L 65.046159 6.4228638 L 64.983114 6.2285604 L 64.890096 6.0461426 L 64.881311 6.034257 L 64.872009 6.0073853 L 64.85754 6.0017008 z M 94.8986 6.0017008 L 94.866561 6.0461426 L 94.773543 6.2285604 L 94.743054 6.3220947 L 94.709981 6.4228638 L 94.677942 6.6254354 L 94.677942 6.8295573 L 94.709981 7.0321289 L 94.773543 7.2264323 L 94.79318 7.2651896 L 94.866561 7.4088501 L 94.8986 7.4532918 L 95.263953 7.0879395 A 0.80000001 0.80000001 0 0 1 95.17817 6.7277547 A 0.80000001 0.80000001 0 0 1 95.263953 6.3670532 L 94.8986 6.0017008 z M 97.057642 6.0017008 L 96.692289 6.3670532 A 0.80000001 0.80000001 0 0 1 96.778072 6.7277547 A 0.80000001 0.80000001 0 0 1 96.692289 7.0879395 L 97.057642 7.4532918 L 97.090198 7.4088501 L 97.183215 7.2264323 L 97.246261 7.0321289 L 97.2783 6.8295573 L 97.2783 6.6254354 L 97.246261 6.4228638 L 97.183215 6.2285604 L 97.090198 6.0461426 L 97.081413 6.034257 L 97.071594 6.0073853 L 97.057642 6.0017008 z M 63.417834 7.4414062 L 63.052482 7.8067586 L 63.096924 7.8393148 L 63.183223 7.8832397 L 63.279342 7.9323324 L 63.473645 7.9953776 L 63.6757 8.027417 L 63.880339 8.027417 L 64.082393 7.9953776 L 64.277214 7.9323324 L 64.459631 7.8393148 L 64.504073 7.8067586 L 64.138721 7.4414062 A 0.80000001 0.80000001 0 0 1 63.778019 7.5277059 A 0.80000001 0.80000001 0 0 1 63.417834 7.4414062 z M 95.617419 7.4414062 L 95.252067 7.8067586 L 95.297026 7.8393148 L 95.382808 7.8832397 L 95.479443 7.9323324 L 95.673747 7.9953776 L 95.875802 8.027417 L 96.08044 8.027417 L 96.282495 7.9953776 L 96.477315 7.9323324 L 96.659733 7.8393148 L 96.704175 7.8067586 L 96.338822 7.4414062 A 0.80000001 0.80000001 0 0 1 95.978121 7.5277059 A 0.80000001 0.80000001 0 0 1 95.617419 7.4414062 z M 8.1421387 7.7271769 L 8.0594564 7.740096 L 7.893575 7.766451 L 7.6537964 7.8444824 L 7.5287394 7.9080444 L 7.4295207 7.9586873 L 7.2253988 8.1064819 L 7.0476318 8.2847656 L 6.8993205 8.4888875 L 6.7851156 8.7131632 L 6.7070841 8.9529419 L 6.6915812 9.0521606 L 6.6910645 9.0526774 L 6.6678101 9.2015055 L 6.6678101 9.2061564 L 6.6678101 9.4536865 L 6.6838298 9.553422 L 6.7070841 9.7022502 L 6.7396403 9.8025024 L 6.7851156 9.9420288 L 6.8993205 10.166305 L 6.9721842 10.266557 L 7.0476318 10.370426 L 7.2253988 10.548193 L 7.4031657 10.677384 L 7.4295207 10.696505 L 7.5721476 10.769368 L 7.5886841 10.777637 L 7.6512126 10.809159 L 7.6548299 10.811226 L 7.6584473 10.81226 L 7.8687703 10.880473 L 7.893575 10.888741 L 8.1421387 10.928015 L 8.3943197 10.928015 L 8.6428833 10.888741 L 8.8826619 10.81071 L 9.1069377 10.696505 L 9.3110596 10.548193 L 9.4888265 10.370426 L 9.6371379 10.166305 L 9.7513428 9.9420288 L 9.8293742 9.7022502 L 9.8686483 9.4536865 L 9.8686483 9.2015055 L 9.8293742 8.9529419 L 9.7539266 8.7214315 L 9.7513428 8.7131632 L 9.7492757 8.7085124 L 9.748759 8.7079956 L 9.7482422 8.7064453 L 9.6882975 8.588623 L 9.6371379 8.4888875 L 9.6180176 8.4625326 L 9.4888265 8.2847656 L 9.3110596 8.1064819 L 9.1069377 7.9586873 L 9.0077189 7.9080444 L 8.8826619 7.8444824 L 8.8072144 7.8196777 L 8.6428833 7.766451 L 8.477002 7.740096 L 8.3943197 7.7271769 L 8.1421387 7.7271769 z M 12.642122 7.7271769 L 12.55944 7.740096 L 12.393559 7.766451 L 12.15378 7.8444824 L 12.028723 7.9080444 L 11.929504 7.9586873 L 11.725382 8.1064819 L 11.547616 8.2847656 L 11.399304 8.4888875 L 11.285099 8.7131632 L 11.207068 8.9529419 L 11.191565 9.0521606 L 11.191048 9.0526774 L 11.167794 9.2015055 L 11.167794 9.2061564 L 11.167794 9.4536865 L 11.183813 9.553422 L 11.207068 9.7022502 L 11.285099 9.9420288 L 11.320239 10.011275 L 11.329541 10.035563 L 11.331091 10.040731 L 11.881962 11.369332 L 11.908317 11.432377 L 11.917619 11.479919 L 11.917619 13.675134 L 11.908317 13.722677 L 11.331091 15.114323 L 11.322306 15.137577 L 11.316622 15.151013 L 11.285099 15.213025 L 11.207068 15.452804 L 11.191048 15.552539 L 11.167794 15.701367 L 11.167794 15.953548 L 11.183813 16.053284 L 11.207068 16.202112 L 11.27063 16.396932 L 11.285099 16.44189 L 11.399304 16.666166 L 11.472168 16.766418 L 11.547616 16.870288 L 11.725382 17.048055 L 11.863359 17.148307 L 11.929504 17.196366 L 12.072648 17.26923 L 12.108822 17.287834 L 12.15378 17.310571 L 12.154814 17.311088 L 12.158431 17.312122 L 12.198222 17.325041 L 12.228194 17.334859 L 12.251449 17.345194 L 12.256099 17.347778 L 13.648779 17.923971 L 13.689087 17.950842 L 15.607833 19.869588 L 15.726172 19.987927 L 15.865181 20.080945 L 16.020211 20.14554 L 16.101343 20.16156 L 16.181441 20.17758 L 16.183508 20.178097 L 16.184542 20.178097 L 16.625342 20.178097 L 16.669267 20.185848 L 17.820618 20.620964 L 17.824235 20.622514 L 17.828886 20.624581 L 17.830436 20.625614 L 17.832503 20.626131 L 17.836637 20.627681 L 17.837154 20.628198 L 17.840255 20.629232 L 18.647441 20.993551 L 18.96215 21.135661 L 18.999357 21.160982 L 22.626009 24.788151 L 22.765535 24.881169 L 22.867855 24.923543 L 22.874573 24.926644 L 22.920048 24.945247 L 23.00118 24.961267 L 23.081278 24.977287 L 23.083862 24.977804 L 23.084379 24.977804 L 31.146936 24.977804 L 31.181559 24.982971 L 31.206881 24.990206 L 31.259591 25.021729 L 33.825842 27.58798 L 33.965369 27.680998 L 33.995341 27.6934 L 33.995341 27.693917 L 33.995858 27.693917 L 34.074923 27.726473 L 34.119881 27.745076 L 34.221167 27.765747 L 34.281628 27.777633 L 34.283695 27.778149 L 34.284729 27.778149 L 62.346582 27.778149 L 62.381722 27.7828 L 62.407043 27.790552 L 62.459753 27.821558 L 63.619889 28.981694 L 63.64056 29.010116 L 63.643144 29.013733 L 63.647278 29.022001 L 63.651412 29.040088 L 63.653996 29.043705 L 63.653996 29.053007 L 63.662264 29.090731 L 63.65658 29.1052 L 63.657096 29.113468 L 63.647795 29.130005 L 63.637976 29.155843 L 63.635909 29.158427 L 63.626607 29.166178 L 63.622473 29.17393 L 63.593534 29.1946 L 63.591984 29.195117 L 63.573381 29.202869 L 63.391996 29.26178 L 63.181673 29.369267 L 63.075736 29.446265 L 63.002356 29.499491 L 62.995121 29.503625 L 62.819421 29.679325 L 62.815287 29.687077 L 62.764128 29.757357 L 62.685063 29.865877 L 62.577576 30.076717 L 62.504712 30.300993 L 62.467505 30.53457 L 62.467505 30.920593 L 62.501095 31.131433 L 62.504712 31.153654 L 62.577576 31.378446 L 62.654057 31.527791 L 62.685063 31.58877 L 62.823556 31.779972 L 62.99047 31.946887 L 63.181673 32.085897 L 63.264355 32.127755 L 63.391996 32.192867 L 63.39303 32.193384 L 63.396647 32.194417 L 63.421452 32.202686 L 63.616789 32.266248 L 63.849849 32.302938 L 64.086528 32.302938 L 64.319588 32.266248 L 64.544381 32.192867 L 64.754704 32.085897 L 64.945907 31.946887 L 65.112821 31.779972 L 65.116439 31.776872 L 65.130908 31.762919 L 65.135559 31.759302 L 65.142794 31.753617 L 65.207906 31.728296 L 65.276636 31.742249 L 65.282837 31.745349 L 65.319527 31.777389 L 65.320561 31.776355 L 65.323661 31.779972 L 65.490576 31.946887 L 65.681779 32.085897 L 65.764461 32.127755 L 65.892102 32.192867 L 65.893136 32.193384 L 65.896753 32.194417 L 65.921558 32.202686 L 66.116895 32.266248 L 66.349955 32.302938 L 66.586117 32.302938 L 66.819694 32.266248 L 67.04397 32.192867 L 67.25481 32.085897 L 67.445496 31.946887 L 67.612927 31.779972 L 67.616028 31.776355 L 67.616545 31.776872 L 67.631014 31.762919 L 67.635665 31.759302 L 67.6429 31.753617 L 67.708012 31.728296 L 67.776742 31.742249 L 67.782943 31.745349 L 67.819633 31.777389 L 67.820667 31.776355 L 67.823767 31.779972 L 67.990682 31.946887 L 68.181885 32.085897 L 68.264567 32.127755 L 68.392208 32.192867 L 68.393241 32.193384 L 68.396859 32.194417 L 68.421147 32.202686 L 68.617 32.266248 L 68.850061 32.302938 L 69.086222 32.302938 L 69.3198 32.266248 L 69.544076 32.192867 L 69.754915 32.085897 L 69.945601 31.946887 L 70.112516 31.779972 L 70.116134 31.776872 L 70.130603 31.762919 L 70.135771 31.759302 L 70.143005 31.753617 L 70.208118 31.728296 L 70.276847 31.742249 L 70.283049 31.745349 L 70.319739 31.777389 L 70.320772 31.776355 L 70.323873 31.779972 L 70.490788 31.946887 L 70.681991 32.085897 L 70.764673 32.127755 L 70.892314 32.192867 L 70.893347 32.193384 L 70.896965 32.194417 L 70.921252 32.202686 L 71.117106 32.266248 L 71.350167 32.302938 L 71.586328 32.302938 L 71.819389 32.266248 L 72.044181 32.192867 L 72.254504 32.085897 L 72.445707 31.946887 L 72.612622 31.779972 L 72.616239 31.776872 L 72.630709 31.762919 L 72.63536 31.759302 L 72.643111 31.753617 L 72.708223 31.728296 L 72.776436 31.742249 L 72.782638 31.745349 L 72.819328 31.777389 L 72.820361 31.776355 L 72.823462 31.779972 L 72.990894 31.946887 L 73.18158 32.085897 L 73.264262 32.127755 L 73.392419 32.192867 L 73.392936 32.193384 L 73.396554 32.194417 L 73.421358 32.202686 L 73.616695 32.266248 L 73.850273 32.302938 L 74.086434 32.302938 L 74.319495 32.266248 L 74.544287 32.192867 L 74.75461 32.085897 L 74.945813 31.946887 L 75.112728 31.779972 L 75.116345 31.776872 L 75.130815 31.762919 L 75.135465 31.759302 L 75.143217 31.753617 L 75.208329 31.728296 L 75.276542 31.742249 L 75.282743 31.745349 L 75.319434 31.777389 L 75.320467 31.776355 L 75.323568 31.779972 L 75.490483 31.946887 L 75.681685 32.085897 L 75.764368 32.127755 L 75.892008 32.192867 L 75.893042 32.193384 L 75.896659 32.194417 L 75.921464 32.202686 L 76.116801 32.266248 L 76.349862 32.302938 L 76.58654 32.302938 L 76.8196 32.266248 L 76.894531 32.24196 L 77.044393 32.192867 L 77.254716 32.085897 L 77.445919 31.946887 L 77.509481 31.883325 L 77.537903 31.862138 L 77.549788 31.85542 L 77.618001 31.840434 L 77.68363 31.865238 L 77.691382 31.870923 L 77.722388 31.905029 L 77.729106 31.915365 L 77.855196 32.041455 L 78.007642 32.135506 L 78.08774 32.161861 L 78.122363 32.186149 L 78.17714 32.191833 L 78.266024 32.201135 L 78.282043 32.202686 L 78.718193 32.202686 L 78.718193 31.702458 L 78.332686 31.702458 L 78.231401 31.682304 L 78.145618 31.624943 L 78.088257 31.53916 L 78.068103 31.437874 L 78.068103 30.017289 L 78.088257 29.916003 L 78.145618 29.830221 L 78.231401 29.77286 L 78.332686 29.752706 L 78.718193 29.752706 L 78.718193 29.252478 L 78.282043 29.252478 L 78.17714 29.26333 L 78.007642 29.319657 L 77.979736 29.336711 L 77.855196 29.413192 L 77.799902 29.468486 L 77.738924 29.502075 L 77.669161 29.497424 L 77.612834 29.45505 L 77.597331 29.427144 L 77.337915 28.775505 L 77.32758 28.750183 L 77.318795 28.704191 L 77.318795 26.217521 L 77.318795 25.64908 L 77.323962 25.61394 L 77.331197 25.588619 L 77.36272 25.535909 L 79.537264 23.360848 L 79.573954 23.336043 L 80.69585 22.829614 L 80.701534 22.827547 L 80.705668 22.82548 L 80.711353 22.82238 L 80.71652 22.820312 L 80.783183 22.789823 L 80.800236 22.782072 L 80.800753 22.781555 L 80.853463 22.750549 L 80.860697 22.746415 L 80.902555 22.725228 L 81.080839 22.596037 L 81.236385 22.439974 L 81.366093 22.26169 L 81.466345 22.06532 L 81.534041 21.855514 L 81.568665 21.637956 L 81.568665 21.417297 L 81.534041 21.19974 L 81.466345 20.989933 L 81.431722 20.92172 L 81.366093 20.793563 L 81.293229 20.693311 L 81.236385 20.615279 L 81.080839 20.459216 L 81.067403 20.449398 L 80.912891 20.33726 L 80.902555 20.329508 L 80.896354 20.326408 L 80.83951 20.297469 L 80.705668 20.229773 L 80.496379 20.16156 L 80.387341 20.144507 L 80.278304 20.126937 L 80.058162 20.126937 L 79.999768 20.136239 L 79.985299 20.138306 L 79.840088 20.16156 L 79.630798 20.229773 L 79.434428 20.329508 L 79.256144 20.459216 L 79.100081 20.615279 L 78.970374 20.793563 L 78.930583 20.871594 L 78.928516 20.876245 L 78.905778 20.912419 L 78.874255 20.981665 L 78.873222 20.984249 L 78.870121 20.989933 L 78.868571 20.994067 L 78.866504 20.999752 L 78.360075 22.121647 L 78.334753 22.158337 L 75.807776 24.685315 L 75.714758 24.824841 L 75.671867 24.927161 L 75.650163 24.979354 L 75.643445 25.014494 L 75.619157 25.137484 L 75.617607 25.143685 L 75.617607 28.704191 L 75.608822 28.750183 L 75.273958 29.591475 L 75.23055 29.646252 L 75.164921 29.669507 L 75.096708 29.65297 L 75.07087 29.633333 L 74.945813 29.50776 L 74.75461 29.369267 L 74.722054 29.35273 L 74.544287 29.26178 L 74.319495 29.188916 L 74.086434 29.152226 L 73.850273 29.152226 L 73.616695 29.188916 L 73.392419 29.26178 L 73.279248 29.319657 L 73.18158 29.369267 L 73.075643 29.446265 L 73.002779 29.499491 L 72.995028 29.503625 L 72.86532 29.633333 L 72.804342 29.666923 L 72.734578 29.661755 L 72.678768 29.619897 L 72.662748 29.591475 L 72.65603 29.574422 L 72.349589 28.805477 L 72.327368 28.750183 L 72.318583 28.704191 L 72.318583 27.643791 L 72.318583 27.642757 L 72.318066 27.64069 L 72.286544 27.48256 L 72.286544 27.480493 L 72.286027 27.47946 L 72.251404 27.395744 L 72.224532 27.330115 L 72.222465 27.325464 L 72.221948 27.32443 L 72.128931 27.185421 L 67.31062 22.36711 L 67.171094 22.273576 L 67.169543 22.273059 L 67.16696 22.272026 L 67.063607 22.229134 L 67.06154 22.228617 L 67.037769 22.218799 L 67.016064 22.209497 L 66.85225 22.176941 L 50.410876 22.176941 L 50.366951 22.169189 L 50.018136 22.036898 L 49.215601 21.733557 L 49.209399 21.73149 L 49.205782 21.729423 L 49.196997 21.726839 L 49.194413 21.725806 L 49.1262 21.699967 L 49.121033 21.6979 L 49.10863 21.693766 L 49.108114 21.69325 L 49.048686 21.678263 L 49.040934 21.676196 L 48.995976 21.661727 L 48.846114 21.637956 L 48.778418 21.627104 L 48.55776 21.627104 L 48.490063 21.637956 L 48.340202 21.661727 L 48.130912 21.729423 L 48.130396 21.729423 L 47.934025 21.829675 L 47.755741 21.959383 L 47.600195 22.114929 L 47.600195 22.115446 L 47.470487 22.29373 L 47.370235 22.4901 L 47.302022 22.69939 L 47.267916 22.917464 L 47.267916 23.137606 L 47.302022 23.35568 L 47.370235 23.56497 L 47.470487 23.76134 L 47.564022 23.890531 L 47.600195 23.940141 L 47.755741 24.095687 L 47.905086 24.204207 L 47.911287 24.208858 L 47.934025 24.225395 L 48.062699 24.290507 L 48.130396 24.325647 L 48.130912 24.325647 L 48.235299 24.359753 L 48.340202 24.393343 L 48.55776 24.427966 L 48.778418 24.427966 L 48.995976 24.393343 L 49.084342 24.364921 L 49.1262 24.355103 L 49.196997 24.328231 L 49.200098 24.327197 L 49.205782 24.325647 L 49.210433 24.32358 L 49.215601 24.320996 L 50.366951 23.885881 L 50.410876 23.878129 L 66.346855 23.878129 L 66.381478 23.88278 L 66.406799 23.890531 L 66.459509 23.921537 L 70.568819 28.030847 L 70.590007 28.059269 L 70.602409 28.082007 L 70.617912 28.141435 L 70.617912 28.704191 L 70.609127 28.750183 L 70.273747 29.591475 L 70.230855 29.646252 L 70.164709 29.669507 L 70.097013 29.65297 L 70.071175 29.633333 L 69.945601 29.50776 L 69.754915 29.369267 L 69.721842 29.35273 L 69.544076 29.26178 L 69.3198 29.188916 L 69.086222 29.152226 L 68.850061 29.152226 L 68.617 29.188916 L 68.392208 29.26178 L 68.279553 29.319657 L 68.181885 29.369267 L 68.075431 29.446265 L 68.002568 29.499491 L 67.995333 29.503625 L 67.82015 29.678292 L 67.80568 29.692244 L 67.793278 29.701546 L 67.728166 29.726868 L 67.659953 29.712915 L 67.653752 29.709814 L 67.617061 29.677775 L 67.616028 29.678809 L 67.612927 29.675191 L 67.445496 29.50776 L 67.25481 29.369267 L 67.222253 29.35273 L 67.167476 29.324825 L 67.159208 29.320174 L 67.126652 29.30002 L 67.075492 29.277799 L 67.072392 29.276249 L 67.04397 29.26178 L 67.02795 29.256612 L 67.022266 29.254028 L 65.744307 28.689205 L 65.7071 28.663367 L 63.310347 26.267131 L 63.171338 26.173596 L 63.169788 26.173079 L 63.167204 26.172046 L 63.063851 26.129154 L 63.061784 26.128638 L 63.037496 26.118819 L 63.016309 26.109517 L 62.851978 26.076961 L 34.789608 26.076961 L 34.754985 26.071794 L 34.729663 26.064559 L 34.676953 26.033553 L 32.110185 23.466785 L 31.971175 23.373767 L 31.969625 23.37325 L 31.967041 23.372217 L 31.8394 23.319507 L 31.831132 23.315889 L 31.816146 23.309688 L 31.651815 23.277132 L 23.589775 23.277132 L 23.554635 23.271965 L 23.529313 23.26473 L 23.476603 23.233207 L 23.16086 22.917464 L 21.660693 21.417297 L 21.443136 21.19974 L 20.201868 19.958472 L 20.176546 19.921781 L 19.879407 19.263424 L 19.858736 19.217432 L 19.667533 18.793685 L 19.665983 18.790068 L 19.661849 18.781799 L 19.63446 18.720821 L 19.630843 18.712553 L 19.629293 18.709452 L 19.622575 18.6955 L 19.622058 18.694466 L 19.607589 18.669661 L 19.591052 18.642273 L 19.591052 18.641756 L 19.588985 18.638656 L 19.566248 18.593697 L 19.549711 18.570443 L 19.546094 18.565792 L 19.43654 18.415413 L 19.43654 18.414897 L 19.280477 18.259351 L 19.267041 18.249532 L 19.113045 18.137394 L 19.102193 18.129643 L 19.095992 18.126542 L 19.039148 18.097603 L 18.905823 18.02939 L 18.696016 17.961694 L 18.587496 17.944124 L 18.478459 17.927071 L 18.2578 17.927071 L 18.199923 17.936373 L 18.185453 17.93844 L 18.040243 17.961694 L 17.957043 17.988566 L 17.951876 17.990116 L 17.910535 17.999935 L 17.839221 18.026807 L 17.836637 18.02784 L 17.830953 18.02939 L 17.830436 18.02939 L 17.826302 18.031458 L 17.820618 18.034041 L 16.702856 18.456238 L 16.63361 18.461405 L 16.572115 18.428333 L 16.571598 18.427816 L 14.891597 16.748332 L 14.864726 16.708024 L 14.448214 15.701367 L 14.288534 15.315344 L 14.278198 15.293123 L 14.273031 15.279171 L 14.252877 15.217676 L 14.251843 15.214058 L 14.25081 15.211991 L 14.249259 15.208374 L 14.248226 15.206824 L 14.216187 15.143778 L 14.206885 15.119491 L 14.205334 15.114323 L 13.628109 13.722677 L 13.618807 13.675134 L 13.618807 11.479919 L 13.628109 11.432377 L 13.654464 11.369332 L 14.205334 10.040731 L 14.214119 10.017476 L 14.219804 10.004041 L 14.251326 9.9420288 L 14.329358 9.7022502 L 14.368632 9.4536865 L 14.368632 9.2015055 L 14.329358 8.9529419 L 14.25391 8.7214315 L 14.251326 8.7131632 L 14.249259 8.7085124 L 14.248743 8.7079956 L 14.248226 8.7064453 L 14.188281 8.588623 L 14.137122 8.4888875 L 14.118001 8.4625326 L 13.98881 8.2847656 L 13.811043 8.1064819 L 13.606921 7.9586873 L 13.507703 7.9080444 L 13.382646 7.8444824 L 13.307198 7.8196777 L 13.142867 7.766451 L 12.976986 7.740096 L 12.894303 7.7271769 L 12.642122 7.7271769 z M 43.142069 7.7271769 L 43.059387 7.740096 L 42.893506 7.766451 L 42.653727 7.8444824 L 42.52867 7.9080444 L 42.429451 7.9586873 L 42.225846 8.1064819 L 42.047563 8.2847656 L 41.899251 8.4888875 L 41.785046 8.7131632 L 41.707015 8.9529419 L 41.691512 9.0521606 L 41.691512 9.0526774 L 41.667741 9.2015055 L 41.667741 9.2061564 L 41.667741 9.4536865 L 41.683761 9.553422 L 41.707015 9.7022502 L 41.739571 9.8025024 L 41.785046 9.9420288 L 41.899251 10.166305 L 41.972115 10.266557 L 42.047563 10.370426 L 42.225846 10.548193 L 42.403097 10.677384 L 42.429451 10.696505 L 42.572595 10.769368 L 42.588615 10.777637 L 42.651143 10.809159 L 42.654761 10.811226 L 42.658378 10.81226 L 42.869218 10.880473 L 42.893506 10.888741 L 43.142069 10.928015 L 43.39425 10.928015 L 43.642814 10.888741 L 43.882593 10.81071 L 44.106868 10.696505 L 44.31099 10.548193 L 44.488757 10.370426 L 44.637069 10.166305 L 44.751274 9.9420288 L 44.829305 9.7022502 L 44.868579 9.4536865 L 44.868579 9.2015055 L 44.829305 8.9529419 L 44.753857 8.7214315 L 44.751274 8.7131632 L 44.749207 8.7085124 L 44.74869 8.7079956 L 44.748173 8.7064453 L 44.688228 8.588623 L 44.637069 8.4888875 L 44.617948 8.4625326 L 44.488757 8.2847656 L 44.31099 8.1064819 L 44.106868 7.9586873 L 44.00765 7.9080444 L 43.882593 7.8444824 L 43.807145 7.8196777 L 43.642814 7.766451 L 43.476933 7.740096 L 43.39425 7.7271769 L 43.142069 7.7271769 z M 47.642053 7.7271769 L 47.559371 7.740096 L 47.39349 7.766451 L 47.153711 7.8444824 L 47.028654 7.9080444 L 46.929435 7.9586873 L 46.72583 8.1064819 L 46.547546 8.2847656 L 46.399235 8.4888875 L 46.28503 8.7131632 L 46.206999 8.9529419 L 46.191496 9.0521606 L 46.191496 9.0526774 L 46.167725 9.2015055 L 46.167725 9.2061564 L 46.167725 9.4536865 L 46.183744 9.553422 L 46.206999 9.7022502 L 46.28503 9.9420288 L 46.32017 10.011275 L 46.329472 10.035563 L 46.331022 10.040731 L 46.881893 11.369332 L 46.908248 11.432377 L 46.91755 11.479919 L 46.91755 13.675134 L 46.908248 13.722677 L 46.331022 15.114323 L 46.322237 15.137577 L 46.316553 15.151013 L 46.28503 15.213025 L 46.206999 15.452804 L 46.191496 15.552539 L 46.167725 15.701367 L 46.167725 15.953548 L 46.183744 16.053284 L 46.206999 16.202112 L 46.270561 16.396932 L 46.28503 16.44189 L 46.399235 16.666166 L 46.472099 16.766418 L 46.547546 16.870288 L 46.72583 17.048055 L 46.863289 17.148307 L 46.929435 17.196366 L 47.072579 17.26923 L 47.108752 17.287834 L 47.151127 17.309538 L 47.154744 17.311088 L 47.158362 17.312122 L 47.369202 17.380851 L 47.39349 17.388603 L 47.642053 17.427877 L 47.894234 17.427877 L 48.142798 17.388603 L 48.382576 17.310571 L 48.606852 17.196366 L 48.810974 17.048055 L 48.989258 16.870288 L 49.137052 16.666166 L 49.251257 16.44189 L 49.329289 16.202112 L 49.368563 15.953548 L 49.368563 15.801619 L 49.368563 15.701367 L 49.329289 15.452804 L 49.254358 15.221293 L 49.251257 15.213025 L 49.24919 15.208891 L 49.248674 15.207857 L 49.248157 15.206824 L 49.216117 15.143778 L 49.206816 15.119491 L 49.205265 15.114323 L 48.62804 13.722677 L 48.618738 13.675134 L 48.618738 11.479919 L 48.620288 11.471651 L 48.619255 11.466484 L 48.62804 11.432377 L 48.654395 11.369332 L 48.695736 11.269596 L 49.205265 10.040731 L 49.21405 10.017476 L 49.219735 10.004041 L 49.251257 9.9420288 L 49.329289 9.7022502 L 49.368563 9.4536865 L 49.368563 9.2015055 L 49.329289 8.9529419 L 49.254358 8.7214315 L 49.251257 8.7131632 L 49.24919 8.7085124 L 49.248674 8.7079956 L 49.248157 8.7064453 L 49.188212 8.588623 L 49.137052 8.4888875 L 49.118449 8.4625326 L 48.989258 8.2847656 L 48.810974 8.1064819 L 48.606852 7.9586873 L 48.507633 7.9080444 L 48.382576 7.8444824 L 48.307129 7.8196777 L 48.142798 7.766451 L 47.976917 7.740096 L 47.894234 7.7271769 L 47.642053 7.7271769 z M 75.042448 7.8269124 L 74.964417 7.8393148 L 74.793368 7.8661865 L 74.554106 7.9442179 L 74.553589 7.9442179 L 74.344299 8.0511882 L 74.329313 8.0584229 L 74.125708 8.2067342 L 73.947424 8.3850179 L 73.79963 8.588623 L 73.684908 8.8128988 L 73.606877 9.0526774 L 73.567603 9.3017578 L 73.567603 9.553422 L 73.606877 9.8025024 L 73.652352 9.9420288 L 73.684908 10.041764 L 73.74847 10.166305 L 73.787744 10.242786 L 73.79963 10.266557 L 73.947424 10.470162 L 74.125708 10.648446 L 74.303475 10.777637 L 74.329313 10.79624 L 74.472457 10.869104 L 74.509147 10.887708 L 74.551005 10.909412 L 74.554622 10.910962 L 74.558757 10.912512 L 74.76908 10.980725 L 74.793368 10.988477 L 75.042448 11.027751 L 75.294112 11.027751 L 75.543193 10.988477 L 75.782454 10.910962 L 76.007247 10.79624 L 76.210852 10.648446 L 76.389136 10.470162 L 76.524528 10.28361 L 76.53693 10.266557 L 76.651652 10.041764 L 76.729167 9.8025024 L 76.768958 9.553422 L 76.768958 9.3017578 L 76.729167 9.0526774 L 76.654236 8.821167 L 76.651652 8.8128988 L 76.649068 8.8087646 L 76.649068 8.8077311 L 76.648035 8.8066976 L 76.622196 8.7555379 L 76.609794 8.7317668 L 76.53693 8.588623 L 76.522461 8.568986 L 76.464583 8.4888875 L 76.389136 8.3850179 L 76.210852 8.2067342 L 76.007247 8.0584229 L 75.883223 7.9953776 L 75.782454 7.9442179 L 75.695638 7.9157959 L 75.543193 7.8661865 L 75.443974 7.8506836 L 75.372144 7.8393148 L 75.294112 7.8269124 L 75.042448 7.8269124 z M 79.542432 7.8269124 L 79.4644 7.8393148 L 79.293351 7.8661865 L 79.054089 7.9442179 L 79.053573 7.9442179 L 78.844283 8.0511882 L 78.829297 8.0584229 L 78.625692 8.2067342 L 78.447408 8.3850179 L 78.299613 8.588623 L 78.184892 8.8128988 L 78.10686 9.0526774 L 78.067586 9.3017578 L 78.067586 9.553422 L 78.10686 9.8025024 L 78.184892 10.041764 L 78.220549 10.111528 L 78.22985 10.135299 L 78.230884 10.140466 L 78.797257 11.505758 L 78.80811 11.532629 L 78.817928 11.580172 L 78.817928 13.77487 L 78.80811 13.822412 L 78.230884 15.214575 L 78.222616 15.23783 L 78.216414 15.251265 L 78.184892 15.313277 L 78.132182 15.475541 L 78.115129 15.528251 L 78.10686 15.552539 L 78.067586 15.801619 L 78.067586 16.053284 L 78.102726 16.275492 L 78.10686 16.302364 L 78.152336 16.44189 L 78.184892 16.542143 L 78.299613 16.766418 L 78.447408 16.970024 L 78.625692 17.148307 L 78.691838 17.196366 L 78.829297 17.296619 L 78.972441 17.369482 L 79.009131 17.388086 L 79.050989 17.409273 L 79.054606 17.41134 L 79.05874 17.412374 L 79.18173 17.452165 L 79.293351 17.488855 L 79.542432 17.528129 L 79.794096 17.528129 L 80.043176 17.488855 L 80.282438 17.410824 L 80.507231 17.296619 L 80.710836 17.148307 L 80.889119 16.970024 L 81.036914 16.766418 L 81.133032 16.578316 L 81.151636 16.542143 L 81.22915 16.302364 L 81.268941 16.053284 L 81.268941 15.801619 L 81.22915 15.552539 L 81.15422 15.321029 L 81.151636 15.313277 L 81.149052 15.308626 L 81.149052 15.30811 L 81.148018 15.306559 L 81.115979 15.243514 L 81.106677 15.219743 L 81.105644 15.214575 L 80.528418 13.822412 L 80.518599 13.77487 L 80.518599 11.580172 L 80.52015 11.571903 L 80.519633 11.566736 L 80.528418 11.532629 L 80.595597 11.369332 L 81.105644 10.140466 L 81.113912 10.117212 L 81.120113 10.103776 L 81.151636 10.041764 L 81.22915 9.8025024 L 81.268941 9.553422 L 81.268941 9.3017578 L 81.22915 9.0526774 L 81.15422 8.821167 L 81.151636 8.8128988 L 81.149052 8.8087646 L 81.149052 8.8077311 L 81.148018 8.8066976 L 81.12218 8.7555379 L 81.109778 8.7317668 L 81.036914 8.588623 L 81.022445 8.568986 L 80.964567 8.4888875 L 80.889119 8.3850179 L 80.710836 8.2067342 L 80.507231 8.0584229 L 80.383207 7.9953776 L 80.282438 7.9442179 L 80.195622 7.9157959 L 80.043176 7.8661865 L 79.943958 7.8506836 L 79.872127 7.8393148 L 79.794096 7.8269124 L 79.542432 7.8269124 z M 8.2682292 8.3276571 A 1 1 0 0 1 9.2681681 9.327596 A 1 1 0 0 1 8.2682292 10.327535 A 1 1 0 0 1 7.2682902 9.327596 A 1 1 0 0 1 8.2682292 8.3276571 z M 12.768213 8.3276571 A 1 1 0 0 1 13.768152 9.327596 A 1 1 0 0 1 13.646195 9.805603 A 1 1 0 0 1 13.646195 9.8061198 L 13.646195 9.8087036 L 13.021427 11.315588 L 13.01781 11.318689 L 13.01781 13.835331 L 13.018844 13.835848 L 13.021427 13.839465 L 13.646195 15.34635 L 13.646195 15.348417 A 1 1 0 0 1 13.726811 15.544271 L 13.729395 15.546855 L 14.352612 17.054256 L 14.352612 17.057874 L 16.373161 19.077905 L 16.77572 19.077905 L 16.77572 19.077389 L 16.779854 19.074805 L 18.035075 18.600415 A 0.80000001 0.80000001 0 0 1 18.368388 18.527551 A 0.80000001 0.80000001 0 0 1 19.078422 18.961117 L 19.078939 18.961633 A 0.80000001 0.80000001 0 0 1 19.117696 19.047416 L 19.670117 20.272148 L 19.670117 20.275248 L 23.271965 23.877096 L 31.568616 23.877096 A 0.25 0.25 0 0 1 31.762919 23.969596 L 34.473348 26.677958 L 62.747074 26.677958 A 0.25 0.25 0 0 1 62.945512 26.749788 L 65.389807 29.195634 L 65.390324 29.195634 L 65.394975 29.196667 L 66.759233 29.799731 A 0.89999998 0.89999998 0 0 1 67.369014 30.652393 L 67.369014 30.802771 A 0.89999998 0.89999998 0 0 1 66.468811 31.702974 A 0.89999998 0.89999998 0 0 1 65.592896 31.012577 A 0.89999998 0.89999998 0 0 0 65.592896 31.012061 L 65.036857 29.554268 L 65.036857 29.550134 L 62.665942 27.177669 L 34.368962 27.177669 A 0.25 0.25 0 0 1 34.195329 27.106873 A 0.25 0.25 0 0 1 34.191195 27.103772 L 31.463196 24.376807 L 23.190833 24.376807 A 0.25 0.25 0 0 1 23.041488 24.3427 A 0.25 0.25 0 0 0 23.040971 24.342183 A 0.25 0.25 0 0 1 23.015649 24.32513 A 0.25 0.25 0 0 0 23.015133 24.324613 A 0.25 0.25 0 0 1 22.992395 24.30446 L 22.988778 24.301359 A 0.25 0.25 0 0 1 22.985677 24.297742 L 19.318201 20.630265 L 19.317684 20.630782 L 19.312516 20.629749 L 18.089335 20.077327 A 0.80000001 0.80000001 0 0 1 18.034041 20.05459 L 16.779854 19.5802 L 16.777787 19.578133 L 16.267741 19.578133 A 0.25 0.25 0 0 1 16.071887 19.483565 L 14.000696 17.412374 L 13.999662 17.412891 L 13.995011 17.411857 L 12.48761 16.788639 L 12.48606 16.787089 A 1 1 0 0 1 11.768274 15.827458 A 1 1 0 0 1 11.89023 15.349451 L 11.89023 15.34635 L 12.514998 13.839465 L 12.517582 13.836882 L 12.517582 11.319206 L 12.514998 11.315588 L 12.27522 10.736812 L 11.89023 9.8087036 L 11.89023 9.8066366 A 1 1 0 0 1 11.768274 9.327596 A 1 1 0 0 1 12.768213 8.3276571 z M 43.26816 8.3276571 A 1 1 0 0 1 44.268099 9.327596 A 1 1 0 0 1 43.26816 10.327535 A 1 1 0 0 1 42.268221 9.327596 A 1 1 0 0 1 43.26816 8.3276571 z M 47.768144 8.3276571 A 1 1 0 0 1 48.768083 9.327596 A 1 1 0 0 1 48.646126 9.805603 A 1 1 0 0 1 48.646126 9.8061198 L 48.646126 9.8087036 L 48.021358 11.315588 L 48.017741 11.319206 L 48.017741 13.835331 L 48.018774 13.835848 L 48.021358 13.839465 L 48.646126 15.34635 L 48.646126 15.348417 A 1 1 0 0 1 48.768083 15.827458 A 1 1 0 0 1 47.768144 16.827397 A 1 1 0 0 1 46.768205 15.827458 A 1 1 0 0 1 46.890161 15.349451 L 46.890161 15.34635 L 47.515446 13.839465 L 47.517513 13.837398 L 47.517513 11.318689 L 47.515446 11.315588 L 47.275151 10.736812 L 46.890161 9.8087036 L 46.890161 9.8066366 A 1 1 0 0 1 46.768205 9.327596 A 1 1 0 0 1 47.768144 8.3276571 z M 75.168022 8.4273926 A 1 1 0 0 1 76.167961 9.4273315 A 1 1 0 0 1 75.168022 10.427271 A 1 1 0 0 1 74.168083 9.4273315 A 1 1 0 0 1 75.168022 8.4273926 z M 79.668005 8.4273926 A 1 1 0 0 1 80.667944 9.4273315 A 1 1 0 0 1 80.545988 9.9053385 A 1 1 0 0 1 80.545988 9.9058553 L 80.545988 9.9089559 L 79.92122 11.415324 L 79.918119 11.418424 L 79.918119 13.935583 L 79.918636 13.935583 L 79.92122 13.939718 L 80.545988 15.446602 L 80.545988 15.448669 A 1 1 0 0 1 80.667944 15.92771 A 1 1 0 0 1 79.668005 16.927649 A 1 1 0 0 1 78.668066 15.92771 A 1 1 0 0 1 78.790023 15.448669 A 1 1 0 0 1 78.79054 15.448153 L 78.79054 15.446602 L 79.415308 13.939718 L 79.417891 13.937134 L 79.417891 11.419458 L 79.415308 11.415324 L 79.175012 10.836548 L 78.79054 9.9089559 L 78.79054 9.9063721 A 1 1 0 0 1 78.668066 9.4273315 A 1 1 0 0 1 79.668005 8.4273926 z M 51.668164 13.027629 L 53.468054 13.027629 L 53.468054 14.827519 L 51.668164 14.827519 L 51.668164 13.027629 z M 83.568026 13.127364 L 85.368433 13.127364 L 85.368433 14.927254 L 83.568026 14.927254 L 83.568026 13.127364 z M 8.1421387 14.227039 L 8.0594564 14.239958 L 7.893575 14.266313 L 7.6537964 14.344344 L 7.5370076 14.403772 L 7.4295207 14.458549 L 7.2253988 14.60686 L 7.0476318 14.784627 L 7.0476318 14.785144 L 6.8993205 14.988749 L 6.7851156 15.213025 L 6.7070841 15.452804 L 6.6915812 15.552539 L 6.6910645 15.552539 L 6.6678101 15.701367 L 6.6678101 15.706018 L 6.6678101 15.953548 L 6.6838298 16.053284 L 6.7070841 16.202112 L 6.7706462 16.396932 L 6.7851156 16.44189 L 6.8993205 16.666166 L 6.9721842 16.766418 L 7.0476318 16.870288 L 7.2253988 17.048055 L 7.3633748 17.148307 L 7.4295207 17.196366 L 7.5721476 17.26923 L 7.6088379 17.287834 L 7.6512126 17.309538 L 7.6548299 17.311088 L 7.6584473 17.312122 L 7.8687703 17.380851 L 7.893575 17.388603 L 8.1421387 17.427877 L 8.3943197 17.427877 L 8.6428833 17.388603 L 8.8826619 17.310571 L 9.1069377 17.196366 L 9.3110596 17.048055 L 9.4888265 16.870288 L 9.6371379 16.666166 L 9.7513428 16.44189 L 9.8293742 16.202112 L 9.8686483 15.953548 L 9.8686483 15.701367 L 9.8293742 15.452804 L 9.7539266 15.221293 L 9.7513428 15.213025 L 9.7492757 15.208891 L 9.748759 15.207857 L 9.7482422 15.206824 L 9.6857137 15.084351 L 9.6371379 14.988749 L 9.6211182 14.967045 L 9.6180176 14.962394 L 9.5616903 14.88488 L 9.4888265 14.785144 L 9.4888265 14.784627 L 9.3110596 14.60686 L 9.1069377 14.458549 L 8.9994507 14.403772 L 8.8826619 14.344344 L 8.6428833 14.266313 L 8.477002 14.239958 L 8.3943197 14.227039 L 8.1421387 14.227039 z M 43.142069 14.227039 L 43.059387 14.239958 L 42.893506 14.266313 L 42.653727 14.344344 L 42.536938 14.403772 L 42.429451 14.458549 L 42.225846 14.60686 L 42.047563 14.784627 L 42.047563 14.785144 L 41.899251 14.988749 L 41.785046 15.213025 L 41.707015 15.452804 L 41.691512 15.552539 L 41.667741 15.701367 L 41.667741 15.706018 L 41.667741 15.953548 L 41.683761 16.053284 L 41.707015 16.202112 L 41.770577 16.396932 L 41.785046 16.44189 L 41.899251 16.666166 L 41.972115 16.766418 L 42.047563 16.870288 L 42.225846 17.048055 L 42.363306 17.148307 L 42.429451 17.196366 L 42.572595 17.26923 L 42.608769 17.287834 L 42.651143 17.309538 L 42.654761 17.311088 L 42.658378 17.312122 L 42.869218 17.380851 L 42.893506 17.388603 L 43.142069 17.427877 L 43.39425 17.427877 L 43.642814 17.388603 L 43.882593 17.310571 L 44.106868 17.196366 L 44.31099 17.048055 L 44.488757 16.870288 L 44.637069 16.666166 L 44.751274 16.44189 L 44.829305 16.202112 L 44.868579 15.953548 L 44.868579 15.701367 L 44.829305 15.452804 L 44.753857 15.221293 L 44.751274 15.213025 L 44.749207 15.208891 L 44.74869 15.207857 L 44.748173 15.206824 L 44.685645 15.084351 L 44.637069 14.988749 L 44.621049 14.967045 L 44.617948 14.962394 L 44.561621 14.88488 L 44.488757 14.785144 L 44.488757 14.784627 L 44.31099 14.60686 L 44.106868 14.458549 L 43.999898 14.403772 L 43.882593 14.344344 L 43.642814 14.266313 L 43.476933 14.239958 L 43.39425 14.227039 L 43.142069 14.227039 z M 75.042448 14.326774 L 74.933411 14.344344 L 74.793368 14.366565 L 74.554106 14.44408 L 74.553589 14.44408 L 74.4368 14.504024 L 74.329313 14.558801 L 74.125708 14.706596 L 73.947424 14.88488 L 73.79963 15.088485 L 73.684908 15.313277 L 73.653385 15.410946 L 73.615145 15.528251 L 73.606877 15.552539 L 73.567603 15.801619 L 73.567603 16.053284 L 73.602743 16.275492 L 73.606877 16.302364 L 73.652352 16.44189 L 73.684908 16.542143 L 73.79963 16.766418 L 73.947424 16.970024 L 74.125708 17.148307 L 74.191854 17.196366 L 74.329313 17.296619 L 74.472457 17.369482 L 74.509147 17.388086 L 74.551005 17.409273 L 74.554622 17.41134 L 74.558757 17.412374 L 74.681746 17.452165 L 74.793368 17.488855 L 75.042448 17.528129 L 75.294112 17.528129 L 75.543193 17.488855 L 75.782454 17.410824 L 76.007247 17.296619 L 76.210852 17.148307 L 76.389136 16.970024 L 76.53693 16.766418 L 76.651652 16.542143 L 76.729167 16.302364 L 76.768958 16.053284 L 76.768958 15.801619 L 76.729167 15.552539 L 76.654236 15.321029 L 76.651652 15.313277 L 76.649068 15.308626 L 76.649068 15.30811 L 76.648035 15.306559 L 76.609277 15.230078 L 76.604626 15.221293 L 76.53693 15.088485 L 76.464583 14.988749 L 76.389136 14.88488 L 76.210852 14.706596 L 76.007247 14.558801 L 75.89976 14.504024 L 75.782454 14.44408 L 75.543193 14.366565 L 75.403149 14.344344 L 75.294112 14.326774 L 75.042448 14.326774 z M 8.2682292 14.827519 A 1 1 0 0 1 9.2681681 15.827458 A 1 1 0 0 1 8.2682292 16.827397 A 1 1 0 0 1 7.2682902 15.827458 A 1 1 0 0 1 8.2682292 14.827519 z M 43.26816 14.827519 A 1 1 0 0 1 44.268099 15.827458 A 1 1 0 0 1 43.26816 16.827397 A 1 1 0 0 1 42.268221 15.827458 A 1 1 0 0 1 43.26816 14.827519 z M 75.168022 14.927254 A 1 1 0 0 1 76.167961 15.92771 A 1 1 0 0 1 75.168022 16.927649 A 1 1 0 0 1 74.168083 15.92771 A 1 1 0 0 1 75.168022 14.927254 z M 105.26644 15.3479 L 105.15586 15.36237 L 105.12898 15.365987 L 105.11761 15.367537 L 105.11348 15.368054 L 105.10935 15.368571 L 104.96362 15.429032 L 104.83805 15.525151 L 104.74193 15.650724 L 104.68147 15.796452 L 104.68043 15.806787 L 104.6732 15.833142 L 104.67216 15.836759 L 104.66855 15.845544 L 104.66751 15.849679 L 104.66441 15.85743 L 104.64839 15.879134 L 104.63599 15.902389 L 104.5962 15.942179 L 104.56778 15.963367 L 104.54142 15.977836 L 104.49801 15.991789 L 104.48458 15.993856 L 104.33833 16.054317 L 104.21276 16.150435 L 104.11664 16.275492 L 104.05618 16.421737 L 104.05515 16.425871 L 104.05515 16.428971 L 104.05515 16.429488 L 104.03551 16.578316 L 104.03603 16.578316 L 104.03603 16.82843 L 104.05411 16.965373 L 104.05463 16.970024 L 104.05566 16.977258 L 104.05566 16.981392 L 104.0567 16.98501 L 104.11716 17.131254 L 104.12026 17.135905 L 104.12233 17.137455 L 104.21328 17.256828 L 104.33885 17.352946 L 104.48458 17.413407 L 104.49491 17.414441 L 104.52127 17.421159 L 104.5254 17.422709 L 104.53315 17.426326 L 104.53729 17.426843 L 104.54556 17.429944 L 104.56674 17.445964 L 104.59052 17.458883 L 104.62979 17.498157 L 104.65098 17.526579 L 104.66545 17.552934 L 104.6794 17.596342 L 104.68147 17.610295 L 104.74193 17.756022 L 104.74503 17.760673 L 104.74709 17.76274 L 104.83805 17.881596 L 104.96362 17.977714 L 105.10986 18.038175 L 105.26644 18.058846 L 105.51656 18.058846 L 105.67314 18.038175 L 105.81938 17.977714 L 105.94495 17.881596 L 106.04107 17.756022 L 106.10153 17.610295 L 106.10257 17.599959 L 106.10929 17.573604 L 106.11032 17.569987 L 106.11445 17.561719 L 106.11549 17.557585 L 106.11807 17.549316 L 106.13409 17.528129 L 106.14701 17.504358 L 106.1868 17.464567 L 106.21471 17.443896 L 106.24106 17.429427 L 106.28447 17.414958 L 106.29842 17.413407 L 106.44415 17.352946 L 106.56972 17.256828 L 106.66636 17.131254 L 106.72682 16.98501 L 106.74697 16.82843 L 106.74697 16.578316 L 106.72682 16.421737 L 106.66636 16.275492 L 106.56972 16.150435 L 106.44415 16.054317 L 106.3501 16.015043 L 106.32684 16.005741 L 106.29842 15.993856 L 106.2886 15.992306 L 106.26173 15.985588 L 106.25811 15.984554 L 106.24985 15.980937 L 106.24571 15.979903 L 106.23796 15.976803 L 106.21626 15.960783 L 106.193 15.947864 L 106.15321 15.90859 L 106.13202 15.880168 L 106.11755 15.853813 L 106.1036 15.810404 L 106.10153 15.796452 L 106.04107 15.650724 L 105.94495 15.525151 L 105.81938 15.429032 L 105.72481 15.389758 L 105.70208 15.380457 L 105.67365 15.368571 L 105.66332 15.367537 L 105.6535 15.365987 L 105.51656 15.3479 L 105.26644 15.3479 z M 105.26644 15.953548 L 105.51656 15.953548 L 105.51656 16.578316 L 106.14132 16.578316 L 106.14132 16.82843 L 105.51656 16.82843 L 105.51656 17.453715 L 105.26644 17.453715 L 105.26644 16.82843 L 104.64167 16.82843 L 104.64167 16.578316 L 105.26644 16.578316 L 105.26644 15.953548 z M 23.258012 17.927071 L 23.200134 17.936373 L 23.185148 17.93844 L 23.040454 17.961694 L 22.830648 18.02939 L 22.634277 18.129643 L 22.455994 18.259351 L 22.299931 18.414897 L 22.299931 18.415413 L 22.170223 18.593697 L 22.070487 18.790068 L 22.002275 18.999357 L 21.967651 19.217432 L 21.967651 19.437573 L 22.002275 19.655648 L 22.070487 19.864937 L 22.170223 20.061308 L 22.287528 20.222538 L 22.299931 20.240108 L 22.455994 20.395654 L 22.605339 20.504175 L 22.61154 20.508826 L 22.634277 20.525362 L 22.762435 20.590474 L 22.830648 20.625614 L 22.935551 20.659721 L 23.040454 20.693311 L 23.258012 20.727934 L 23.47867 20.727934 L 23.696228 20.693311 L 23.898283 20.627681 L 23.906034 20.625614 L 23.926188 20.615279 L 24.102405 20.525362 L 24.280688 20.395654 L 24.436751 20.240108 L 24.565942 20.061308 L 24.666195 19.864937 L 24.734408 19.655648 L 24.768514 19.437573 L 24.768514 19.217432 L 24.734408 18.999357 L 24.666195 18.790068 L 24.631571 18.721855 L 24.565942 18.593697 L 24.549406 18.570443 L 24.436751 18.415413 L 24.436751 18.414897 L 24.280688 18.259351 L 24.267253 18.249532 L 24.11274 18.137394 L 24.102405 18.129643 L 24.096204 18.126542 L 24.03936 18.097603 L 23.906034 18.02939 L 23.696228 17.961694 L 23.587191 17.944124 L 23.47867 17.927071 L 23.258012 17.927071 z M 23.368083 18.527551 A 0.80000001 0.80000001 0 0 1 24.168034 19.327502 A 0.80000001 0.80000001 0 0 1 23.368083 20.127454 A 0.80000001 0.80000001 0 0 1 22.568132 19.327502 A 0.80000001 0.80000001 0 0 1 23.368083 18.527551 z M 75.057951 20.126937 L 75.000073 20.136239 L 74.985604 20.138306 L 74.840393 20.16156 L 74.630587 20.229773 L 74.434216 20.329508 L 74.255933 20.459216 L 74.09987 20.615279 L 73.970162 20.793563 L 73.870426 20.989933 L 73.802214 21.19974 L 73.76759 21.417297 L 73.76759 21.421948 L 73.76759 21.637956 L 73.771724 21.661727 L 73.802214 21.855514 L 73.870426 22.06532 L 73.917452 22.157304 L 73.953625 22.228617 L 73.970162 22.26169 L 74.04716 22.36711 L 74.09987 22.439974 L 74.255933 22.59552 L 74.255933 22.596037 L 74.39856 22.69939 L 74.434216 22.725228 L 74.562374 22.790857 L 74.630587 22.82548 L 74.73549 22.859587 L 74.840393 22.893693 L 75.057951 22.927799 L 75.278609 22.927799 L 75.496167 22.893693 L 75.700289 22.827547 L 75.705973 22.82548 L 75.902344 22.725228 L 76.080627 22.596037 L 76.23669 22.439974 L 76.365881 22.26169 L 76.466134 22.06532 L 76.534347 21.855514 L 76.568453 21.637956 L 76.568453 21.417297 L 76.534347 21.19974 L 76.466134 20.989933 L 76.43151 20.92172 L 76.365881 20.793563 L 76.293534 20.693311 L 76.23669 20.615279 L 76.080627 20.459216 L 76.067192 20.449398 L 75.912679 20.33726 L 75.902344 20.329508 L 75.896143 20.326408 L 75.839299 20.297469 L 75.705973 20.229773 L 75.496167 20.16156 L 75.38713 20.144507 L 75.278609 20.126937 L 75.057951 20.126937 z M 75.168022 20.727417 A 0.80000001 0.80000001 0 0 1 75.967973 21.527368 A 0.80000001 0.80000001 0 0 1 75.168022 22.327319 A 0.80000001 0.80000001 0 0 1 74.36807 21.527368 A 0.80000001 0.80000001 0 0 1 75.168022 20.727417 z M 80.168233 20.727417 A 0.80000001 0.80000001 0 0 1 80.968184 21.527368 A 0.80000001 0.80000001 0 0 1 80.535136 22.237402 L 80.534619 22.237919 L 80.534102 22.238436 L 79.223588 22.829614 L 79.220487 22.829614 L 76.718831 25.32972 L 76.718831 28.860254 L 76.721415 28.864388 L 77.268669 30.238981 A 0.89999998 0.89999998 0 0 1 77.368921 30.652393 L 77.368921 30.802771 A 0.89999998 0.89999998 0 0 1 76.468717 31.702974 A 0.89999998 0.89999998 0 0 1 75.568514 30.802771 L 75.568514 30.652393 A 0.89999998 0.89999998 0 0 1 75.611405 30.381091 L 75.611405 30.380575 L 75.611405 30.380058 L 75.612956 30.37644 A 0.89999998 0.89999998 0 0 1 75.663599 30.2488 A 0.89999998 0.89999998 0 0 0 75.664115 30.248283 L 76.215503 28.864388 L 76.218604 28.861287 L 76.218604 25.249105 A 0.25 0.25 0 0 1 76.272347 25.071855 A 0.25 0.25 0 0 1 76.290951 25.050667 L 78.86547 22.477698 L 78.864954 22.476664 L 78.865987 22.472013 L 79.418408 21.248832 A 0.80000001 0.80000001 0 0 1 79.448897 21.180619 L 79.457682 21.161499 A 0.80000001 0.80000001 0 0 1 80.168233 20.727417 z M 43.558065 21.627104 L 43.490369 21.637956 L 43.340507 21.661727 L 43.130701 21.729423 L 42.93433 21.829675 L 42.756047 21.959383 L 42.599984 22.114929 L 42.599984 22.115446 L 42.470276 22.29373 L 42.37054 22.4901 L 42.302327 22.69939 L 42.267704 22.917464 L 42.267704 23.137606 L 42.302327 23.35568 L 42.37054 23.56497 L 42.470276 23.76134 L 42.564327 23.890531 L 42.599984 23.940141 L 42.756047 24.095687 L 42.904875 24.204207 L 42.911593 24.208858 L 42.93433 24.225395 L 43.062488 24.290507 L 43.130701 24.325647 L 43.235604 24.359753 L 43.340507 24.393343 L 43.558065 24.427966 L 43.778723 24.427966 L 43.996281 24.393343 L 44.20557 24.325647 L 44.402458 24.225395 L 44.580741 24.095687 L 44.736287 23.940141 L 44.865995 23.76134 L 44.966248 23.56497 L 45.033944 23.35568 L 45.068567 23.137606 L 45.068567 22.917464 L 45.033944 22.69939 L 44.966248 22.4901 L 44.903202 22.36711 L 44.865995 22.29373 L 44.842741 22.26169 L 44.736287 22.115446 L 44.736287 22.114929 L 44.580741 21.959383 L 44.567306 21.949565 L 44.412793 21.837427 L 44.402458 21.829675 L 44.396257 21.826575 L 44.339412 21.797636 L 44.20557 21.729423 L 43.996281 21.661727 L 43.846419 21.637956 L 43.845903 21.637956 L 43.778723 21.627104 L 43.558065 21.627104 z M 43.668136 22.227584 A 0.80000001 0.80000001 0 0 1 44.468087 23.027535 A 0.80000001 0.80000001 0 0 1 43.668136 23.827486 A 0.80000001 0.80000001 0 0 1 42.868184 23.027535 A 0.80000001 0.80000001 0 0 1 43.668136 22.227584 z M 48.668347 22.227584 A 0.80000001 0.80000001 0 0 1 49.001143 22.299931 L 50.256881 22.774837 L 50.259465 22.777421 L 66.767501 22.777421 A 0.25 0.25 0 0 1 66.922013 22.830648 A 0.25 0.25 0 0 1 66.945268 22.851318 L 71.625602 27.53217 A 0.25 0.25 0 0 1 71.71862 27.726473 L 71.71862 28.860254 L 71.721204 28.864388 L 72.268974 30.238981 A 0.89999998 0.89999998 0 0 1 72.369226 30.652393 L 72.369226 30.802771 A 0.89999998 0.89999998 0 0 1 71.468506 31.702974 A 0.89999998 0.89999998 0 0 1 70.568302 30.802771 L 70.568302 30.652393 A 0.89999998 0.89999998 0 0 1 70.611194 30.382642 L 70.611194 30.380575 L 70.611194 30.380058 L 70.614811 30.371273 A 0.89999998 0.89999998 0 0 1 70.663387 30.2488 A 0.89999998 0.89999998 0 0 0 70.663904 30.248283 L 71.215291 28.864388 L 71.218909 28.860254 L 71.218909 27.831893 L 66.663631 23.277132 L 50.261015 23.277132 L 50.261015 23.277649 L 50.256881 23.280233 L 48.999593 23.755656 A 0.80000001 0.80000001 0 0 1 48.995459 23.757206 A 0.80000001 0.80000001 0 0 1 48.91226 23.788729 A 0.80000001 0.80000001 0 0 1 48.668347 23.827486 A 0.80000001 0.80000001 0 0 1 47.868396 23.027535 A 0.80000001 0.80000001 0 0 1 48.668347 22.227584 z M 84.457894 24.927161 L 84.400016 24.935946 L 84.385547 24.938529 L 84.240336 24.961267 L 84.03053 25.02948 L 83.834159 25.129732 L 83.655876 25.25944 L 83.499813 25.414986 L 83.370622 25.59327 L 83.270369 25.790157 L 83.202157 25.999447 L 83.167533 26.217521 L 83.167533 26.437663 L 83.202157 26.655737 L 83.270369 26.865027 L 83.370622 27.061397 L 83.460539 27.185421 L 83.499813 27.239681 L 83.655876 27.395744 L 83.771114 27.47946 L 83.834159 27.525452 L 83.953532 27.58643 L 83.957666 27.58798 L 84.03053 27.625187 L 84.086857 27.643791 L 84.240336 27.6934 L 84.457894 27.728023 L 84.678552 27.728023 L 84.89611 27.6934 L 85.105916 27.625187 L 85.302287 27.525452 L 85.48057 27.395744 L 85.636633 27.239681 L 85.765824 27.061397 L 85.866077 26.865027 L 85.93429 26.655737 L 85.968913 26.437663 L 85.968913 26.217521 L 85.93429 25.999447 L 85.866077 25.790157 L 85.831453 25.721944 L 85.765824 25.59327 L 85.729651 25.54366 L 85.636633 25.414986 L 85.48057 25.25944 L 85.467135 25.249622 L 85.313139 25.137484 L 85.312622 25.137484 L 85.302287 25.129732 L 85.296086 25.126632 L 85.239242 25.097693 L 85.105916 25.02948 L 84.89611 24.961267 L 84.787073 24.944214 L 84.678552 24.927161 L 84.457894 24.927161 z M 84.567965 25.527641 A 0.80000001 0.80000001 0 0 1 85.368433 26.327592 A 0.80000001 0.80000001 0 0 1 84.567965 27.127543 A 0.80000001 0.80000001 0 0 1 83.768014 26.327592 A 0.80000001 0.80000001 0 0 1 84.567965 25.527641 z M 80.469507 27.72699 L 80.276237 27.765747 L 80.094336 27.840678 L 79.930522 27.950232 L 79.790995 28.089758 L 79.681441 28.253573 L 79.605994 28.435474 L 79.567753 28.628743 L 79.567753 28.781706 L 79.562585 28.799792 L 79.605994 29.019417 L 79.614779 29.040088 L 79.625114 29.064376 L 79.633382 29.098999 L 79.634416 29.1052 L 79.634932 29.112435 L 79.62253 29.181165 L 79.574988 29.232324 L 79.570854 29.235425 L 79.507292 29.252478 L 79.21842 29.252478 L 79.21842 29.752706 L 79.60341 29.752706 L 79.704696 29.77286 L 79.790479 29.830221 L 79.848356 29.916003 L 79.867993 30.017289 L 79.867993 30.477726 L 80.368221 30.477726 L 80.368221 29.996619 L 80.368221 29.96613 L 80.359953 29.882414 L 80.36047 29.860193 L 80.360986 29.847274 L 80.36357 29.832804 L 80.39561 29.770276 L 80.45297 29.735653 L 80.465373 29.732552 L 80.497929 29.727901 L 80.666911 29.727901 L 80.742358 29.712915 L 80.816772 29.697929 L 80.860181 29.689661 L 81.000741 29.631266 L 81.035364 29.616797 L 81.038464 29.615763 L 81.040015 29.615247 L 81.044666 29.61318 L 81.053967 29.609045 L 81.062752 29.60026 L 81.205896 29.504659 L 81.345422 29.365133 L 81.454976 29.201318 L 81.530424 29.019417 L 81.568665 28.826147 L 81.568665 28.628743 L 81.529907 28.43444 L 81.52784 28.430306 L 81.474097 28.299565 L 81.454976 28.253573 L 81.345422 28.089758 L 81.205896 27.950232 L 81.042082 27.840678 L 80.860181 27.765747 L 80.666911 27.72699 L 80.469507 27.72699 z M 27.816907 28.096993 L 27.614852 28.123348 L 27.589014 28.126965 L 27.556974 28.131099 L 27.473258 28.153837 L 27.445353 28.161072 L 27.30376 28.199312 L 27.061397 28.299565 L 26.834538 28.430823 L 26.626282 28.589986 L 26.440763 28.775505 L 26.281083 28.983761 L 26.150342 29.21062 L 26.049573 29.452983 L 25.999963 29.639535 L 25.989111 29.679325 L 25.986528 29.689661 L 25.981877 29.706197 L 25.94777 29.966646 L 25.94777 30.228646 L 25.963273 30.347502 L 25.971541 30.410547 L 25.981877 30.488578 L 26.004097 30.570744 L 26.029419 30.664795 L 26.049573 30.741793 L 26.117269 30.90509 L 26.150342 30.984155 L 26.281083 31.211532 L 26.440763 31.419271 L 26.626282 31.604789 L 26.665556 31.634762 L 26.834538 31.764469 L 27.061397 31.895728 L 27.232963 31.966524 L 27.30376 31.99598 L 27.556974 32.063676 L 27.816907 32.097782 L 28.079423 32.097782 L 28.339355 32.063676 L 28.59257 31.99598 L 28.78739 31.915365 L 28.834932 31.895728 L 29.061792 31.764469 L 29.270048 31.604789 L 29.359448 31.515389 L 29.450916 31.424438 L 29.451432 31.423405 L 29.45505 31.419788 L 29.455566 31.419271 L 29.456083 31.418754 L 29.459184 31.41462 L 29.459701 31.413586 L 29.615247 31.211532 L 29.746505 30.984155 L 29.760457 30.949532 L 29.810583 30.828609 L 29.846757 30.741793 L 29.893266 30.567126 L 29.914453 30.488578 L 29.94856 30.228646 L 29.94856 29.966646 L 29.94856 29.96613 L 29.936157 29.872595 L 29.914453 29.706197 L 29.846757 29.452983 L 29.843656 29.446265 L 29.746505 29.21062 L 29.615247 28.983761 L 29.455566 28.775505 L 29.270048 28.589986 L 29.061792 28.430823 L 28.834932 28.299565 L 28.596704 28.200863 L 28.59257 28.199312 L 28.378113 28.141435 L 28.339355 28.131099 L 28.281478 28.123348 L 28.079423 28.096993 L 27.816907 28.096993 z M 104.83701 28.126965 L 104.60602 28.157454 L 104.57708 28.161072 L 104.436 28.199312 L 104.32386 28.229285 L 104.0815 28.329537 L 103.85464 28.460795 L 103.64639 28.619958 L 103.46087 28.805477 L 103.30119 29.013733 L 103.17045 29.240592 L 103.06968 29.482955 L 103.00405 29.727901 L 103.00198 29.736169 L 102.96788 29.996619 L 102.96788 30.258618 L 102.96839 30.264303 L 102.97924 30.347502 L 103.00198 30.518551 L 103.06193 30.741793 L 103.06968 30.771765 L 103.09345 30.828609 L 103.17045 31.014128 L 103.30119 31.241504 L 103.46087 31.449243 L 103.64639 31.634762 L 103.85464 31.794442 L 104.0815 31.9257 L 104.28252 32.008899 L 104.32386 32.025952 L 104.57708 32.093648 L 104.83701 32.127755 L 105.09953 32.127755 L 105.35946 32.093648 L 105.61267 32.025952 L 105.85504 31.9257 L 106.0819 31.794442 L 106.29015 31.634762 L 106.37439 31.550529 L 106.4705 31.454411 L 106.47154 31.453377 L 106.47515 31.44976 L 106.47567 31.449243 L 106.47619 31.449243 L 106.47619 31.448726 L 106.47929 31.444592 L 106.47981 31.443559 L 106.63535 31.241504 L 106.76609 31.014128 L 106.86635 30.771765 L 106.93456 30.518551 L 106.96866 30.258618 L 106.96866 29.996619 L 106.93456 29.736169 L 106.86635 29.482955 L 106.85394 29.452983 L 106.76609 29.240592 L 106.63535 29.013733 L 106.47567 28.805477 L 106.29015 28.619958 L 106.0819 28.460795 L 105.85504 28.329537 L 105.61681 28.230835 L 105.61267 28.229285 L 105.42096 28.177608 L 105.35946 28.161072 L 105.30158 28.153837 L 105.21063 28.141435 L 105.09953 28.126965 L 104.83701 28.126965 z M 48.800639 29.336711 L 48.690051 29.35118 L 48.66318 29.354797 L 48.651811 29.356348 L 48.647677 29.356348 L 48.643542 29.357381 L 48.497815 29.417843 L 48.372241 29.513961 L 48.276123 29.639535 L 48.215662 29.785262 L 48.214111 29.795597 L 48.20791 29.821952 L 48.20636 29.82557 L 48.202743 29.833838 L 48.201709 29.837972 L 48.198608 29.84624 L 48.183105 29.867428 L 48.170186 29.891199 L 48.130396 29.93099 L 48.101973 29.95166 L 48.075618 29.96613 L 48.032727 29.980599 L 48.018774 29.982149 L 47.87253 30.042611 L 47.747473 30.139246 L 47.651355 30.264303 L 47.590377 30.410547 L 47.58986 30.414164 L 47.589343 30.417782 L 47.589343 30.418298 L 47.569706 30.567126 L 47.569706 30.570744 L 47.569706 30.81724 L 47.585726 30.935579 L 47.590377 30.97382 L 47.651355 31.120064 L 47.747473 31.245121 L 47.87253 31.341756 L 48.018774 31.402218 L 48.028593 31.403251 L 48.054948 31.409969 L 48.059082 31.411003 L 48.06735 31.415137 L 48.071484 31.415653 L 48.079753 31.418754 L 48.10094 31.434774 L 48.124194 31.447693 L 48.163985 31.486967 L 48.185173 31.515389 L 48.199642 31.541744 L 48.213595 31.585152 L 48.215662 31.599105 L 48.218245 31.604789 L 48.2446 31.668868 L 48.276123 31.744832 L 48.279224 31.749483 L 48.280774 31.75155 L 48.372241 31.870406 L 48.497815 31.966524 L 48.643542 32.026986 L 48.800639 32.047656 L 49.050236 32.047656 L 49.207332 32.026986 L 49.35306 31.966524 L 49.478634 31.870406 L 49.574752 31.744832 L 49.635213 31.599105 L 49.636764 31.58877 L 49.642965 31.562415 L 49.644515 31.558797 L 49.648132 31.550529 L 49.649166 31.545878 L 49.65175 31.538127 L 49.667769 31.516423 L 49.680688 31.493168 L 49.720479 31.453377 L 49.748901 31.43219 L 49.775256 31.417721 L 49.818148 31.403768 L 49.8321 31.402218 L 49.978345 31.341756 L 50.103402 31.245121 L 50.200037 31.120064 L 50.260498 30.97382 L 50.280652 30.81724 L 50.280652 30.567126 L 50.260498 30.410547 L 50.200037 30.264303 L 50.103402 30.139246 L 49.978345 30.042611 L 49.883777 30.003853 L 49.861039 29.994035 L 49.8321 29.982149 L 49.822282 29.981116 L 49.795927 29.974398 L 49.791793 29.972847 L 49.783525 29.96923 L 49.77939 29.968713 L 49.771639 29.965613 L 49.749935 29.949593 L 49.726164 29.936674 L 49.68689 29.8974 L 49.665702 29.868978 L 49.651233 29.842623 L 49.63728 29.799215 L 49.635213 29.785262 L 49.574752 29.639535 L 49.478634 29.513961 L 49.35306 29.417843 L 49.226453 29.365133 L 49.224386 29.364616 L 49.207332 29.357381 L 49.187695 29.354797 L 49.050236 29.336711 L 48.800639 29.336711 z M 63.968705 29.752189 A 0.89999998 0.89999998 0 0 1 64.868909 30.652393 L 64.868909 30.802771 A 0.89999998 0.89999998 0 0 1 63.968705 31.702974 A 0.89999998 0.89999998 0 0 1 63.068502 30.802771 L 63.068502 30.652393 A 0.89999998 0.89999998 0 0 1 63.968705 29.752189 z M 68.968917 29.752189 A 0.89999998 0.89999998 0 0 1 69.86912 30.652393 L 69.86912 30.802771 A 0.89999998 0.89999998 0 0 1 68.968917 31.702974 A 0.89999998 0.89999998 0 0 1 68.068197 30.802771 L 68.068197 30.652393 A 0.89999998 0.89999998 0 0 1 68.968917 29.752189 z M 73.968612 29.752189 A 0.89999998 0.89999998 0 0 1 74.869332 30.652393 L 74.869332 30.802771 A 0.89999998 0.89999998 0 0 1 73.968612 31.702974 A 0.89999998 0.89999998 0 0 1 73.068408 30.802771 L 73.068408 30.652393 A 0.89999998 0.89999998 0 0 1 73.968612 29.752189 z M 48.800639 29.941842 L 49.050236 29.941842 L 49.050236 30.567126 L 49.675521 30.567126 L 49.675521 30.81724 L 49.050236 30.81724 L 49.050236 31.442008 L 48.800639 31.442008 L 48.800639 30.81724 L 48.175354 30.81724 L 48.175354 30.567126 L 48.800639 30.567126 L 48.800639 29.941842 z M 84.465645 30.027625 L 84.26359 30.059664 L 84.166439 30.091187 L 84.069287 30.122709 L 83.886869 30.215727 L 83.842428 30.247766 L 84.165405 30.570744 L 84.20778 30.613118 A 0.80000001 0.80000001 0 0 1 84.567965 30.527336 A 0.80000001 0.80000001 0 0 1 84.928666 30.613635 L 85.294019 30.247766 L 85.249577 30.215727 L 85.067159 30.122709 L 85.048556 30.116508 L 85.028918 30.110307 L 84.976208 30.093254 L 84.872856 30.059664 L 84.670801 30.027625 L 84.670284 30.027625 L 84.465645 30.027625 z M 83.488961 30.60175 L 83.456405 30.646191 L 83.363387 30.828609 L 83.338582 30.90509 L 83.300342 31.022913 L 83.268302 31.224967 L 83.268302 31.429606 L 83.296724 31.608923 L 83.300342 31.631661 L 83.363387 31.826481 L 83.41403 31.9257 L 83.456405 32.008899 L 83.488444 32.053341 L 83.488961 32.053341 L 83.854313 31.687988 A 0.80000001 0.80000001 0 0 1 83.768014 31.327287 A 0.80000001 0.80000001 0 0 1 83.854313 30.967102 L 83.488961 30.60175 z M 85.647485 30.60175 L 85.282133 30.967102 A 0.80000001 0.80000001 0 0 1 85.368433 31.327287 A 0.80000001 0.80000001 0 0 1 85.282133 31.687988 L 85.647485 32.053341 L 85.680042 32.008899 L 85.750321 31.870923 L 85.773059 31.826481 L 85.836104 31.631661 L 85.868144 31.429606 L 85.868144 31.224967 L 85.836104 31.022913 L 85.773059 30.828609 L 85.680042 30.646191 L 85.671257 30.634306 L 85.661955 30.607434 L 85.647485 30.60175 z M 79.867993 30.977437 L 79.867993 31.437874 L 79.848356 31.53916 L 79.790479 31.624943 L 79.704696 31.682304 L 79.60341 31.702458 L 79.21842 31.702458 L 79.21842 32.202686 L 79.654569 32.202686 L 79.758956 32.191833 L 79.928971 32.135506 L 80.0809 32.041455 L 80.207507 31.915365 L 80.301042 31.763436 L 80.357369 31.59342 L 80.368221 31.489034 L 80.368221 31.224967 L 80.368221 30.977437 L 79.867993 30.977437 z M 84.20778 32.041455 L 83.842428 32.406807 L 83.886869 32.439364 L 83.973169 32.483289 L 84.069287 32.532381 L 84.26359 32.595426 L 84.465645 32.627466 L 84.670284 32.627466 L 84.872856 32.595426 L 85.067159 32.532381 L 85.249577 32.439364 L 85.294019 32.406807 L 84.928666 32.041455 A 0.80000001 0.80000001 0 0 1 84.567965 32.127755 A 0.80000001 0.80000001 0 0 1 84.20778 32.041455 z "/>
</svg>