<?xml version="1.0" standalone="no"?>
 <!DOCTYPE svg PUBLIC "-//W3C//DTD SVG 1.1//EN" 
 "http://www.w3.org/Graphics/SVG/1.1/DTD/svg11.dtd"> 
<svg
  xmlns:svg="http://www.w3.org/2000/svg"
  xmlns="http://www.w3.org/2000/svg"
  xmlns:xlink="http://www.w3.org/1999/xlink"
  xmlns:inkscape="http://www.inkscape.org/namespaces/inkscape"
  version="1.1"
  width="108.9660mm" height="38.1254mm" viewBox="0.0000 0.0000 108.9660 38.1254">
<title>SVG Image created as loop_btn-F_Cu.svg date 2026-06-09T21:07:34 </title>
  <desc>Image generated by PCBNEW </desc>
<g style="fill:#000000; fill-opacity:1.0000;stroke:#000000; stroke-opacity:1.0000;
stroke-linecap:round; stroke-linejoin:round;"
 transform="translate(0 0) scale(1 1)">
</g>
<g style="fill:#000000; fill-opacity:1.0000; stroke:none;">
<rect x="-6.150578" y="-6.000739" width="121.287620" height="49.138300" rx="0.000000" />
</g>
<g style="fill:#FFFFFF; fill-opacity:1.0000; stroke:none;">
<circle cx="105.3915" cy="16.7035" r="0.1250" /> 
<path style="fill:#FFFFFF; fill-opacity:1.0000; stroke:none;fill-rule:evenodd;"
d="M 105.5165,16.5785
106.1415,16.5785
106.1415,16.8285
105.5165,16.8285
105.5165,17.4535
105.2665,17.4535
105.2665,16.8285
104.6415,16.8285
104.6415,16.5785
105.2665,16.5785
105.2665,15.9535
105.5165,15.9535
Z" /> 
<circle cx="84.5682" cy="31.3275" r="0.8000" /> 
<circle cx="84.5682" cy="26.3275" r="0.8000" /> 
<circle cx="25.6646" cy="3.6939" r="0.1250" /> 
<path style="fill:#FFFFFF; fill-opacity:1.0000; stroke:none;fill-rule:evenodd;"
d="M 25.7896,3.5689
26.4146,3.5689
26.4146,3.8189
25.7896,3.8189
25.7896,4.4439
25.5396,4.4439
25.5396,3.8189
24.9146,3.8189
24.9146,3.5689
25.5396,3.5689
25.5396,2.9439
25.7896,2.9439
Z" /> 
<circle cx="63.7782" cy="6.7275" r="0.8000" /> 
<circle cx="56.1582" cy="6.7275" r="0.8000" /> 
<circle cx="95.9782" cy="6.7275" r="0.8000" /> 
<circle cx="88.3582" cy="6.7275" r="0.8000" /> 
<circle cx="80.1682" cy="21.5275" r="0.8000" /> 
<circle cx="75.1682" cy="21.5275" r="0.8000" /> 
<circle cx="18.3682" cy="19.3275" r="0.8000" /> 
<circle cx="23.3682" cy="19.3275" r="0.8000" /> 
<circle cx="48.9254" cy="30.6921" r="0.1250" /> 
<path style="fill:#FFFFFF; fill-opacity:1.0000; stroke:none;fill-rule:evenodd;"
d="M 49.0504,30.5671
49.6754,30.5671
49.6754,30.8171
49.0504,30.8171
49.0504,31.4421
48.8004,31.4421
48.8004,30.8171
48.1754,30.8171
48.1754,30.5671
48.8004,30.5671
48.8004,29.9421
49.0504,29.9421
Z" /> 
<circle cx="48.6682" cy="23.0275" r="0.8000" /> 
<circle cx="43.6682" cy="23.0275" r="0.8000" /> 
<path style="fill:#FFFFFF; fill-opacity:1.0000; stroke:none;fill-rule:evenodd;"
d="M 79.8682,31.4378
79.8481,31.5391
79.7907,31.6250
79.7048,31.6824
79.6035,31.7025
78.3329,31.7025
78.2316,31.6824
78.1458,31.6250
78.0884,31.5391
78.0682,31.4378
78.0682,30.0172
78.0884,29.9159
78.1458,29.8300
78.2316,29.7727
78.3329,29.7525
79.6035,29.7525
79.7048,29.7727
79.7907,29.8300
79.8481,29.9159
79.8682,30.0172
Z" /> 
</g>
<g style="fill:none; 
stroke:#FFFFFF; stroke-width:1.8000; stroke-opacity:1; 
stroke-linecap:round; stroke-linejoin:round;">
<path d="M76.4682 30.8025
L76.4682 30.6525
" />
<path d="M73.9682 30.8025
L73.9682 30.6525
" />
<path d="M71.4682 30.8025
L71.4682 30.6525
" />
<path d="M68.9682 30.8025
L68.9682 30.6525
" />
<path d="M66.4682 30.8025
L66.4682 30.6525
" />
<path d="M63.9682 30.8025
L63.9682 30.6525
" />
</g>
<g style="fill:#FFFFFF; fill-opacity:1.0000; stroke:none;">
<circle cx="79.6682" cy="15.9275" r="1.0000" /> 
<circle cx="79.6682" cy="9.4275" r="1.0000" /> 
<circle cx="75.1682" cy="15.9275" r="1.0000" /> 
<circle cx="75.1682" cy="9.4275" r="1.0000" /> 
<path style="fill:#FFFFFF; fill-opacity:1.0000; stroke:none;fill-rule:evenodd;"
d="M 85.3682,14.9275
83.5682,14.9275
83.5682,13.1275
85.3682,13.1275
Z" /> 
<circle cx="84.4682" cy="11.4875" r="0.9000" /> 
<circle cx="47.7682" cy="15.8275" r="1.0000" /> 
<circle cx="47.7682" cy="9.3275" r="1.0000" /> 
<circle cx="43.2682" cy="15.8275" r="1.0000" /> 
<circle cx="43.2682" cy="9.3275" r="1.0000" /> 
<path style="fill:#FFFFFF; fill-opacity:1.0000; stroke:none;fill-rule:evenodd;"
d="M 53.4682,14.8275
51.6682,14.8275
51.6682,13.0275
53.4682,13.0275
Z" /> 
<circle cx="52.5682" cy="11.3875" r="0.9000" /> 
<circle cx="12.7682" cy="15.8275" r="1.0000" /> 
<circle cx="12.7682" cy="9.3275" r="1.0000" /> 
<circle cx="8.2682" cy="15.8275" r="1.0000" /> 
<circle cx="8.2682" cy="9.3275" r="1.0000" /> 
</g>
<g style="fill:none; 
stroke:#FFFFFF; stroke-width:0.5000; stroke-opacity:1; 
stroke-linecap:round; stroke-linejoin:round;">
<path d="M43.3682 15.9775
L43.2182 15.8275
" />
<path d="M75.2182 21.3775
L75.3682 21.5275
" />
<path d="M52.4682 11.3875
L56.1582 7.6975
" />
<path d="M56.1582 7.6975
L56.1582 6.7275
" />
<path d="M84.4682 11.3875
L88.3582 7.4975
" />
<path d="M88.3582 7.4975
L88.3582 6.7275
" />
<path d="M79.6682 15.8275
L79.6682 9.3275
" />
<path d="M80.1682 16.3275
L79.6682 15.8275
" />
<path d="M76.4682 30.7275
L76.4682 25.2275
" />
<path d="M76.4682 25.2275
L80.1682 21.5275
" />
<path d="M16.2682 19.3275
L12.7682 15.8275
" />
<path d="M34.3682 26.9275
L31.5682 24.1275
" />
<path d="M66.4682 30.6275
L62.7682 26.9275
" />
<path d="M23.1682 24.1275
L18.3682 19.3275
" />
<path d="M18.3682 19.3275
L16.2682 19.3275
" />
<path d="M62.7682 26.9275
L34.3682 26.9275
" />
<path d="M31.5682 24.1275
L23.1682 24.1275
" />
<path d="M12.7682 15.8275
L12.7682 9.3275
" />
<path d="M66.4682 30.7275
L66.4682 30.6275
" />
<path d="M71.4682 27.7275
L66.7682 23.0275
" />
<path d="M71.4682 30.7275
L71.4682 27.7275
" />
<path d="M47.7682 9.3275
L47.7682 15.8275
" />
<path d="M66.7682 23.0275
L48.6682 23.0275
" />
<path style="fill:#FFFFFF; fill-opacity:1.0000; stroke:none;fill-rule:evenodd;"
d="M 65.3951,29.1967
66.8817,29.8540
66.8878,29.8605
66.8876,29.8694
66.8876,29.8696
66.5209,30.6739
66.5145,30.6799
65.6118,31.0287
65.6029,31.0285
65.5967,31.0220
65.0369,29.5541
65.0372,29.5452
65.0396,29.5417
65.3821,29.1992
65.3904,29.1958
Z" /> 
<path style="fill:#FFFFFF; fill-opacity:1.0000; stroke:none;fill-rule:evenodd;"
d="M 13.0187,13.8358
13.0212,13.8395
13.6461,15.3464
13.6461,15.3553
13.6409,15.3611
12.7738,15.8303
12.7649,15.8312
12.7627,15.8303
12.5763,15.7295
11.8956,15.3611
11.8899,15.3542
11.8904,15.3464
12.5152,13.8395
12.5216,13.8332
12.5260,13.8323
13.0104,13.8323
Z" /> 
<path style="fill:#FFFFFF; fill-opacity:1.0000; stroke:none;fill-rule:evenodd;"
d="M 56.1657,6.7288
56.5565,7.0526
56.7678,7.2277
56.7720,7.2356
56.7695,7.2440
56.4082,7.6975
56.4082,7.6975
56.3359,7.8721
56.3334,7.8759
55.9005,8.3088
55.8923,8.3122
55.8840,8.3088
55.5484,7.9732
55.5450,7.9649
55.5484,7.9567
55.5499,7.9555
55.9082,7.6975
55.9082,7.6975
55.5470,7.2440
55.5445,7.2354
55.5487,7.2277
56.1508,6.7288
56.1593,6.7262
Z" /> 
<path style="fill:#FFFFFF; fill-opacity:1.0000; stroke:none;fill-rule:evenodd;"
d="M 108.3608,0.5055
108.3758,0.5099
108.3908,0.5196
108.4079,0.5246
108.4346,0.5477
108.4358,0.5490
108.4633,0.6039
108.4649,0.6115
108.4677,0.6378
108.4677,33.4852
108.4627,33.5201
108.4583,33.5351
108.4487,33.5501
108.4437,33.5672
108.4206,33.5939
108.4192,33.5951
108.3643,33.6225
108.3568,33.6242
108.3304,33.6270
26.0036,33.6270
25.9716,33.6228
25.9411,33.6146
25.9113,33.6023
23.4838,32.2025
22.6853,31.7421
19.6059,29.9664
25.9477,29.9664
25.9477,30.2286
25.9634,30.3474
25.9717,30.4104
25.9820,30.4886
26.0040,30.5710
26.0292,30.6650
26.0498,30.7419
26.0498,30.7419
26.1174,30.9050
26.1502,30.9842
26.1502,30.9842
26.2813,31.2113
26.4409,31.4194
26.4410,31.4194
26.6264,31.6048
26.6264,31.6048
26.6264,31.6048
26.6264,31.6048
26.6264,31.6048
26.6655,31.6348
26.6655,31.6348
26.6655,31.6348
26.8344,31.7644
27.0615,31.8955
27.0615,31.8955
27.0615,31.8956
27.0615,31.8956
27.2329,31.9665
27.3038,31.9959
27.5571,32.0638
27.8171,32.0980
27.8171,32.0980
28.0793,32.0980
28.0794,32.0980
28.3393,32.0638
28.5927,31.9959
28.7872,31.9153
28.8349,31.8956
28.8349,31.8956
28.8349,31.8956
29.0620,31.7644
29.2701,31.6048
29.2701,31.6048
29.2701,31.6048
29.3595,31.5154
29.4507,31.4242
29.4514,31.4235
29.4550,31.4199
29.4555,31.4194
29.4555,31.4194
29.4555,31.4194
29.4555,31.4194
29.4555,31.4194
29.4556,31.4192
29.4559,31.4189
29.4559,31.4189
29.4593,31.4145
29.4598,31.4138
29.6152,31.2113
29.7463,30.9842
29.7606,30.9496
29.8108,30.8285
29.8466,30.7419
29.8935,30.5671
47.5699,30.5671
47.5699,30.5710
47.5699,30.8172
47.5855,30.9355
47.5906,30.9739
47.5906,30.9739
47.6511,31.1199
47.6511,31.1199
47.6511,31.1199
47.7473,31.2453
47.8727,31.3415
48.0187,31.4020
48.0287,31.4033
48.0552,31.4099
48.0590,31.4112
48.0673,31.4149
48.0715,31.4158
48.0795,31.4187
48.1010,31.4347
48.1244,31.4475
48.1641,31.4871
48.1852,31.5154
48.1996,31.5418
48.2137,31.5850
48.2156,31.5989
48.2156,31.5989
48.2180,31.6048
48.2446,31.6689
48.2761,31.7449
48.2761,31.7449
48.2761,31.7449
48.2793,31.7494
48.2810,31.7513
48.3723,31.8703
48.4977,31.9665
48.6437,32.0270
48.8004,32.0476
48.8004,32.0476
49.0504,32.0476
49.0504,32.0476
49.2072,32.0270
49.3532,31.9665
49.4786,31.8703
49.5748,31.7449
49.6353,31.5989
49.6366,31.5889
49.6431,31.5624
49.6445,31.5586
49.6482,31.5503
49.6491,31.5461
49.6520,31.5381
49.6679,31.5166
49.6808,31.4932
49.7204,31.4535
49.7487,31.4324
49.7751,31.4179
49.8183,31.4038
49.8322,31.4020
49.9782,31.3415
50.1036,31.2453
50.1998,31.1199
50.2603,30.9739
50.2809,30.8171
50.2809,30.5671
50.2603,30.4104
50.1998,30.2644
50.1036,30.1390
49.9782,30.0428
49.9782,30.0428
49.9782,30.0428
49.8838,30.0037
49.8608,29.9942
49.8322,29.9823
49.8222,29.9810
49.7957,29.9744
49.7919,29.9730
49.7836,29.9694
49.7794,29.9685
49.7714,29.9655
49.7499,29.9496
49.7264,29.9368
49.6868,29.8972
49.6657,29.8689
49.6512,29.8425
49.6371,29.7993
49.6353,29.7854
49.5748,29.6394
49.4786,29.5140
49.3532,29.4178
49.3532,29.4178
49.3532,29.4178
49.2265,29.3653
49.2244,29.3644
49.2244,29.3644
49.2072,29.3573
49.2072,29.3573
49.2072,29.3573
49.1876,29.3547
49.1876,29.3547
49.0504,29.3366
49.0504,29.3366
48.8004,29.3366
48.8004,29.3366
48.8004,29.3366
48.6901,29.3512
48.6633,29.3547
48.6518,29.3562
48.6477,29.3565
48.6437,29.3573
48.4977,29.4178
48.3723,29.5140
48.2761,29.6394
48.2156,29.7854
48.2156,29.7854
48.2143,29.7954
48.2077,29.8219
48.2063,29.8257
48.2027,29.8340
48.2018,29.8382
48.1988,29.8462
48.1829,29.8676
48.1701,29.8911
48.1305,29.9308
48.1022,29.9519
48.0758,29.9663
48.0326,29.9805
48.0187,29.9823
47.8727,30.0428
47.7473,30.1390
47.6511,30.2644
47.5906,30.4104
47.5898,30.4144
47.5896,30.4178
47.5896,30.4181
47.5895,30.4184
47.5699,30.5671
29.8935,30.5671
29.9145,30.4886
29.9487,30.2286
29.9487,29.9664
29.9487,29.9663
29.9364,29.8727
29.9145,29.7064
29.8466,29.4531
29.8439,29.4464
29.7463,29.2108
29.7463,29.2108
29.7463,29.2108
29.6152,28.9837
29.4555,28.7757
29.4555,28.7757
29.4555,28.7756
29.2701,28.5902
29.2701,28.5902
29.0620,28.4306
28.8349,28.2995
28.8349,28.2995
28.5967,28.2008
28.5967,28.2008
28.5927,28.1991
28.3782,28.1416
28.3393,28.1312
28.2816,28.1236
28.0794,28.0970
28.0794,28.0970
28.0794,28.0970
27.8171,28.0970
27.8171,28.0970
27.8171,28.0970
27.6149,28.1236
27.5892,28.1270
27.5571,28.1312
27.4735,28.1536
27.4452,28.1612
27.3038,28.1991
27.0615,28.2995
27.0615,28.2995
26.8344,28.4306
26.6264,28.5902
26.6264,28.5902
26.4410,28.7757
26.4409,28.7757
26.2813,28.9837
26.1502,29.2108
26.1502,29.2108
26.0498,29.4531
25.9999,29.6394
25.9892,29.6795
25.9865,29.6896
25.9865,29.6896
25.9820,29.7064
25.9820,29.7064
25.9477,29.9664
19.6059,29.9664
17.2194,28.5902
16.9425,28.4306
0.5780,18.9942
0.5780,18.9942
0.5780,18.9942
0.5503,18.9724
0.5373,18.9588
0.5065,18.9024
0.5040,18.8923
0.5005,18.8630
0.5005,15.7015
6.6677,15.7015
6.6677,15.7061
6.6677,15.9535
6.6836,16.0535
6.7071,16.2023
6.7071,16.2023
6.7704,16.3970
6.7850,16.4419
6.8994,16.6664
6.8994,16.6664
6.9720,16.7664
7.0474,16.8702
7.0474,16.8702
7.0474,16.8702
7.2256,17.0483
7.2256,17.0483
7.2256,17.0483
7.2256,17.0483
7.3632,17.1483
7.4294,17.1964
7.5724,17.2693
7.5724,17.2693
7.6090,17.2879
7.6510,17.3093
7.6547,17.3112
7.6585,17.3123
7.8690,17.3807
7.8934,17.3886
8.1423,17.4280
8.1423,17.4280
8.3942,17.4280
8.3942,17.4280
8.6430,17.3886
8.8826,17.3108
9.1071,17.1964
9.3109,17.0483
9.4890,16.8702
9.6371,16.6664
9.7515,16.4419
9.8293,16.2023
9.8687,15.9535
9.8687,15.7015
9.8293,15.4527
9.8293,15.4527
9.8293,15.4527
9.7541,15.2212
9.7541,15.2212
9.7515,15.2131
9.7515,15.2131
9.7515,15.2131
9.7492,15.2087
9.7489,15.2079
9.7482,15.2067
9.6858,15.0843
9.6371,14.9887
9.6213,14.9669
9.6182,14.9626
9.6182,14.9626
9.5617,14.8849
9.4890,14.7849
9.4890,14.7849
9.4890,14.7849
9.4890,14.7848
9.3109,14.6067
9.3109,14.6067
9.3109,14.6067
9.3109,14.6067
9.1071,14.4586
9.1071,14.4586
9.1071,14.4586
8.9997,14.4039
8.8826,14.3443
8.8826,14.3443
8.6430,14.2664
8.4771,14.2401
8.3942,14.2270
8.3942,14.2270
8.1423,14.2270
8.1423,14.2270
8.0593,14.2401
7.8934,14.2664
7.8934,14.2664
7.6539,14.3443
7.6538,14.3443
7.5368,14.4039
7.4294,14.4586
7.2256,14.6067
7.2256,14.6067
7.0474,14.7848
7.0474,14.7849
6.8994,14.9887
6.8994,14.9887
6.7850,15.2131
6.7850,15.2131
6.7850,15.2131
6.7071,15.4527
6.7071,15.4527
6.6914,15.5523
6.6913,15.5525
6.6913,15.5527
6.6677,15.7015
0.5005,15.7015
0.5005,9.2015
6.6677,9.2015
6.6677,9.2061
6.6677,9.4535
6.6836,9.5535
6.7071,9.7023
6.7071,9.7023
6.7396,9.8023
6.7850,9.9419
6.8994,10.1664
6.8994,10.1664
6.9720,10.2664
7.0474,10.3702
7.0474,10.3702
7.0474,10.3702
7.2256,10.5483
7.2256,10.5483
7.2256,10.5483
7.2256,10.5483
7.4033,10.6775
7.4294,10.6964
7.5724,10.7693
7.5724,10.7693
7.5885,10.7775
7.6510,10.8093
7.6547,10.8112
7.6585,10.8123
7.8690,10.8807
7.8934,10.8886
8.1423,10.9280
8.1423,10.9280
8.3942,10.9280
8.3942,10.9280
8.6430,10.8886
8.8826,10.8108
9.1071,10.6964
9.3109,10.5483
9.4890,10.3702
9.6371,10.1664
9.7515,9.9419
9.8293,9.7023
9.8687,9.4535
9.8687,9.2015
11.1677,9.2015
11.1677,9.2061
11.1677,9.4535
11.1836,9.5535
11.2071,9.7023
11.2071,9.7023
11.2850,9.9419
11.2850,9.9419
11.3204,10.0114
11.3297,10.0355
11.3310,10.0406
11.8821,11.3694
11.9083,11.4325
11.9177,11.4800
11.9177,13.6750
11.9083,13.7225
11.3310,15.1144
11.3224,15.1377
11.3166,15.1511
11.2850,15.2131
11.2850,15.2131
11.2071,15.4527
11.2071,15.4527
11.1913,15.5527
11.1677,15.7015
11.1677,15.9535
11.1836,16.0535
11.2071,16.2023
11.2071,16.2023
11.2704,16.3970
11.2850,16.4419
11.3994,16.6664
11.3994,16.6664
11.4720,16.7664
11.5474,16.8702
11.5474,16.8702
11.5474,16.8702
11.7256,17.0483
11.7256,17.0483
11.7256,17.0483
11.7256,17.0483
11.8632,17.1483
11.9294,17.1964
12.0724,17.2693
12.0724,17.2693
12.1090,17.2879
12.1538,17.3107
12.1547,17.3112
12.1585,17.3123
12.1980,17.3251
12.2281,17.3349
12.2517,17.3454
12.2562,17.3480
13.6486,17.9241
13.6889,17.9510
15.6076,19.8697
15.7261,19.9881
15.8654,20.0812
16.0202,20.1453
16.1014,20.1615
16.1815,20.1774
16.1837,20.1779
16.1845,20.1780
16.1845,20.1780
16.1845,20.1780
16.6256,20.1780
16.6694,20.1860
17.8207,20.6212
17.8243,20.6226
17.8288,20.6245
17.8306,20.6254
17.8306,20.6254
17.8326,20.6260
17.8368,20.6278
17.8372,20.6281
17.8404,20.6293
18.6475,20.9936
18.9624,21.1358
18.9991,21.1611
22.6261,24.7881
22.6261,24.7881
22.6261,24.7881
22.6261,24.7881
22.6261,24.7881
22.7654,24.8812
22.7654,24.8812
22.8680,24.9237
22.8680,24.9237
22.8748,24.9265
22.9201,24.9453
23.0014,24.9615
23.0815,24.9774
23.0837,24.9779
23.0845,24.9780
23.0845,24.9780
23.0845,24.9780
31.1468,24.9780
31.1817,24.9830
31.2069,24.9904
31.2597,25.0217
33.8261,27.5881
33.8261,27.5881
33.8261,27.5881
33.8261,27.5881
33.8261,27.5881
33.9654,27.6812
33.9654,27.6812
33.9654,27.6812
33.9951,27.6935
33.9955,27.6937
33.9956,27.6937
34.0748,27.7265
34.0748,27.7265
34.1201,27.7453
34.2214,27.7655
34.2815,27.7774
34.2837,27.7779
34.2845,27.7780
34.2845,27.7780
34.2845,27.7780
62.3468,27.7780
62.3817,27.7830
62.4069,27.7904
62.4597,27.8217
63.6197,28.9818
63.6408,29.0100
63.6429,29.0137
63.6475,29.0222
63.6514,29.0402
63.6538,29.0435
63.6542,29.0532
63.6623,29.0905
63.6568,29.1053
63.6572,29.1133
63.6476,29.1301
63.6379,29.1559
63.6379,29.1559
63.6359,29.1586
63.6267,29.1664
63.6224,29.1739
63.5937,29.1944
63.5920,29.1953
63.5732,29.2031
63.3922,29.2619
63.1818,29.3692
63.1818,29.3692
63.0755,29.4464
63.0026,29.4994
62.9952,29.5035
62.8192,29.6795
62.8151,29.6869
62.7641,29.7571
62.7641,29.7571
62.6849,29.8661
62.6849,29.8661
62.5777,30.0765
62.5047,30.3011
62.5047,30.3011
62.5047,30.3011
62.4677,30.5344
62.4677,30.9206
62.5011,31.1312
62.5047,31.1539
62.5777,31.3785
62.6538,31.5280
62.6849,31.5889
62.8237,31.7800
62.9907,31.9470
63.1818,32.0859
63.2645,32.1280
63.3922,32.1931
63.3922,32.1931
63.3931,32.1935
63.3968,32.1946
63.4213,32.2025
63.6169,32.2661
63.8501,32.3030
63.8501,32.3030
64.0863,32.3030
64.0863,32.3030
64.3196,32.2661
64.5442,32.1931
64.7547,32.0859
64.9457,31.9470
65.1127,31.7800
65.1127,31.7800
65.1162,31.7766
65.1163,31.7767
65.1308,31.7630
65.1356,31.7593
65.1430,31.7536
65.2081,31.7282
65.2766,31.7421
65.2766,31.7421
65.2828,31.7453
65.3195,31.7772
65.3206,31.7763
65.3237,31.7800
65.3237,31.7800
65.4907,31.9470
65.6818,32.0859
65.7645,32.1280
65.8922,32.1931
65.8922,32.1931
65.8931,32.1935
65.8968,32.1946
65.9213,32.2025
66.1169,32.2661
66.3501,32.3030
66.3501,32.3030
66.5863,32.3030
66.5863,32.3030
66.8196,32.2661
67.0442,32.1931
67.2547,32.0859
67.4457,31.9470
67.6127,31.7800
67.6127,31.7800
67.6162,31.7766
67.6163,31.7767
67.6308,31.7630
67.6356,31.7593
67.6430,31.7536
67.7081,31.7282
67.7766,31.7421
67.7766,31.7421
67.7828,31.7453
67.8195,31.7772
67.8206,31.7763
67.8237,31.7800
67.8237,31.7800
67.9907,31.9470
68.1818,32.0859
68.2645,32.1280
68.3922,32.1931
68.3922,32.1931
68.3931,32.1935
68.3968,32.1946
68.4213,32.2025
68.6169,32.2661
68.8501,32.3030
68.8501,32.3030
69.0863,32.3030
69.0863,32.3030
69.3196,32.2661
69.5442,32.1931
69.7547,32.0859
69.9457,31.9470
70.1127,31.7800
70.1127,31.7800
70.1162,31.7766
70.1163,31.7767
70.1308,31.7630
70.1356,31.7593
70.1430,31.7536
70.2081,31.7282
70.2766,31.7421
70.2766,31.7421
70.2828,31.7453
70.3195,31.7772
70.3206,31.7763
70.3237,31.7800
70.3237,31.7800
70.4907,31.9470
70.6818,32.0859
70.7645,32.1280
70.8922,32.1931
70.8922,32.1931
70.8931,32.1935
70.8968,32.1946
70.9213,32.2025
71.1169,32.2661
71.3501,32.3030
71.3501,32.3030
71.5863,32.3030
71.5863,32.3030
71.8196,32.2661
72.0442,32.1931
72.2547,32.0859
72.4457,31.9470
72.6127,31.7800
72.6127,31.7800
72.6162,31.7766
72.6163,31.7767
72.6308,31.7630
72.6356,31.7593
72.6430,31.7536
72.7081,31.7282
72.7766,31.7421
72.7766,31.7421
72.7828,31.7453
72.8195,31.7772
72.8206,31.7763
72.8237,31.7800
72.8237,31.7800
72.9907,31.9470
73.1818,32.0859
73.2645,32.1280
73.3922,32.1931
73.3922,32.1931
73.3931,32.1935
73.3968,32.1946
73.4213,32.2025
73.6169,32.2661
73.8501,32.3030
73.8501,32.3030
74.0863,32.3030
74.0863,32.3030
74.3196,32.2661
74.5442,32.1931
74.7547,32.0859
74.9457,31.9470
75.1127,31.7800
75.1127,31.7800
75.1162,31.7766
75.1163,31.7767
75.1308,31.7630
75.1356,31.7593
75.1430,31.7536
75.2081,31.7282
75.2766,31.7421
75.2766,31.7421
75.2828,31.7453
75.3195,31.7772
75.3206,31.7763
75.3237,31.7800
75.3237,31.7800
75.4907,31.9470
75.6818,32.0859
75.7645,32.1280
75.8922,32.1931
75.8922,32.1931
75.8931,32.1935
75.8968,32.1946
75.9213,32.2025
76.1169,32.2661
76.3501,32.3030
76.3501,32.3030
76.5863,32.3030
76.5863,32.3030
76.8196,32.2661
76.8943,32.2418
77.0442,32.1931
77.2547,32.0859
77.4457,31.9470
77.5095,31.8832
77.5378,31.8621
77.5500,31.8554
77.6182,31.8406
77.6837,31.8650
77.6837,31.8650
77.6913,31.8707
77.7226,31.9049
77.7290,31.9153
77.7290,31.9153
77.7290,31.9153
77.7290,31.9153
77.8554,32.0417
78.0076,32.1356
78.0076,32.1356
78.0876,32.1621
78.1224,32.1862
78.1773,32.1918
78.1772,32.1918
78.2658,32.2009
78.2819,32.2025
78.2820,32.2025
78.7182,32.2025
78.7182,32.2025
78.7182,31.3139
78.7379,31.2468
78.7907,31.2011
78.8599,31.1911
78.8743,31.1941
78.9057,31.2025
79.0308,31.2025
79.0308,31.2025
79.0621,31.1941
79.1320,31.1958
79.1898,31.2349
79.2174,31.2992
79.2182,31.3139
79.2182,32.2025
79.6545,32.2025
79.6545,32.2025
79.6545,32.2025
79.7592,32.1918
79.9289,32.1356
79.9289,32.1356
80.0811,32.0417
80.2075,31.9153
80.3013,31.7632
80.3013,31.7632
80.3575,31.5935
80.3682,31.4888
80.3682,31.4888
80.3682,31.2252
83.2682,31.2252
83.2682,31.4298
83.2966,31.6091
83.3002,31.6319
83.3635,31.8265
83.4139,31.9256
83.4564,32.0089
83.4564,32.0089
83.4887,32.0534
83.4888,32.0534
83.4888,32.0534
83.4888,32.0534
84.0317,31.5105
84.0931,31.4770
84.1627,31.4820
84.2187,31.5238
84.2268,31.5361
84.2482,31.5731
84.3226,31.6476
84.3226,31.6476
84.3226,31.6476
84.3596,31.6689
84.4078,31.7195
84.4210,31.7881
84.3951,31.8530
84.3853,31.8640
83.8423,32.4070
83.8423,32.4070
83.8423,32.4070
83.8869,32.4394
83.9730,32.4833
84.0692,32.5323
84.0692,32.5323
84.0692,32.5323
84.2638,32.5955
84.4659,32.6275
84.6705,32.6275
84.6705,32.6275
84.8726,32.5955
85.0673,32.5323
85.2496,32.4394
85.2942,32.4070
84.7512,31.8640
84.7177,31.8027
84.7227,31.7330
84.7645,31.6771
84.7768,31.6689
84.8138,31.6476
84.8883,31.5731
84.9097,31.5361
84.9602,31.4879
85.0288,31.4747
85.0937,31.5007
85.1047,31.5105
85.6477,32.0534
85.6477,32.0534
85.6801,32.0089
85.7505,31.8707
85.7730,31.8265
85.7730,31.8265
85.7730,31.8265
85.8362,31.6319
85.8682,31.4298
85.8682,31.2252
85.8362,31.0231
85.7730,30.8285
85.7730,30.8285
85.7730,30.8285
85.6801,30.6462
85.6714,30.6342
85.6618,30.6074
85.6477,30.6016
85.1047,31.1446
85.0434,31.1780
84.9737,31.1731
84.9178,31.1312
84.9097,31.1189
84.8883,31.0819
84.8138,31.0074
84.7769,30.9861
84.7286,30.9355
84.7154,30.8669
84.7414,30.8020
84.7512,30.7910
85.2942,30.2480
85.2942,30.2480
85.2942,30.2480
85.2942,30.2480
85.2941,30.2480
85.2496,30.2157
85.2496,30.2157
85.0673,30.1228
85.0488,30.1167
85.0288,30.1103
85.0288,30.1103
85.0288,30.1102
84.9764,30.0932
84.8726,30.0595
84.8726,30.0595
84.6706,30.0275
84.6705,30.0275
84.4659,30.0275
84.4659,30.0275
84.2638,30.0595
84.2638,30.0595
84.2638,30.0595
84.1665,30.0911
84.0692,30.1228
83.8869,30.2157
83.8423,30.2480
83.8423,30.2480
83.8423,30.2480
84.1653,30.5710
84.3853,30.7910
84.4188,30.8523
84.4138,30.9220
84.3719,30.9780
84.3596,30.9861
84.3226,31.0074
84.3226,31.0074
84.2482,31.0819
84.2481,31.0819
84.2268,31.1189
84.1762,31.1671
84.1076,31.1803
84.0428,31.1544
84.0317,31.1446
83.4888,30.6016
83.4888,30.6016
83.4888,30.6016
83.4564,30.6462
83.3635,30.8285
83.3386,30.9050
83.3002,31.0231
83.3002,31.0231
83.3002,31.0231
83.2682,31.2252
80.3682,31.2252
80.3682,30.9775
79.5546,30.9775
79.4876,30.9578
79.4418,30.9050
79.4319,30.8359
79.4348,30.8214
79.4371,30.8131
79.4432,30.7900
79.4432,30.6650
79.4348,30.6336
79.4365,30.5638
79.4757,30.5059
79.5399,30.4784
79.5546,30.4775
80.3682,30.4775
80.3682,29.9964
102.9677,29.9964
102.9677,30.2586
102.9685,30.2644
102.9794,30.3474
103.0020,30.5186
103.0618,30.7419
103.0698,30.7719
103.0698,30.7719
103.0933,30.8285
103.1702,31.0142
103.1702,31.0142
103.3013,31.2413
103.4609,31.4494
103.4610,31.4494
103.6464,31.6348
103.6464,31.6348
103.6464,31.6348
103.8544,31.7944
104.0815,31.9255
104.0815,31.9255
104.0815,31.9256
104.0815,31.9256
104.2827,32.0089
104.3238,32.0259
104.5771,32.0938
104.8371,32.1280
104.8371,32.1280
105.0993,32.1280
105.0994,32.1280
105.3593,32.0938
105.6127,32.0259
105.8549,31.9256
106.0820,31.7944
106.2901,31.6348
106.2901,31.6348
106.2901,31.6348
106.3746,31.5503
106.4707,31.4542
106.4714,31.4535
106.4750,31.4499
106.4755,31.4494
106.4755,31.4494
106.4755,31.4494
106.4755,31.4494
106.4755,31.4494
106.4756,31.4492
106.4759,31.4489
106.4759,31.4489
106.4793,31.4445
106.4798,31.4438
106.6352,31.2413
106.7663,31.0142
106.8666,30.7719
106.9345,30.5186
106.9687,30.2586
106.9687,29.9964
106.9345,29.7364
106.8666,29.4831
106.8542,29.4531
106.7663,29.2408
106.7663,29.2408
106.7663,29.2408
106.6352,29.0137
106.4755,28.8057
106.4755,28.8057
106.4755,28.8056
106.2901,28.6202
106.2901,28.6202
106.0820,28.4606
105.8549,28.3295
105.8549,28.3295
105.6167,28.2308
105.6167,28.2308
105.6127,28.2291
105.4212,28.1778
105.3593,28.1612
105.3016,28.1536
105.2105,28.1416
105.0994,28.1270
105.0994,28.1270
105.0994,28.1270
104.8371,28.1270
104.8371,28.1270
104.8371,28.1270
104.6060,28.1574
104.6060,28.1574
104.5771,28.1612
104.5771,28.1612
104.4358,28.1991
104.3238,28.2291
104.0815,28.3295
104.0815,28.3295
103.8544,28.4606
103.6464,28.6202
103.6464,28.6202
103.4610,28.8057
103.4609,28.8057
103.3013,29.0137
103.1702,29.2408
103.1702,29.2408
103.0698,29.4831
103.0042,29.7280
103.0042,29.7280
103.0020,29.7364
103.0020,29.7364
102.9677,29.9964
80.3682,29.9964
80.3682,29.9663
80.3682,29.9663
80.3682,29.9663
80.3597,29.8823
80.3606,29.8604
80.3611,29.8471
80.3638,29.8326
80.3954,29.7703
80.4532,29.7356
80.4653,29.7323
80.4977,29.7280
80.6668,29.7280
80.7425,29.7129
80.8169,29.6981
80.8601,29.6896
81.0009,29.6312
81.0356,29.6168
81.0384,29.6159
81.0398,29.6152
81.0445,29.6132
81.0538,29.6093
81.0626,29.6004
81.2060,29.5046
81.3454,29.3653
81.4549,29.2014
81.5303,29.0193
81.5687,28.8261
81.5687,28.6290
81.5687,28.6290
81.5687,28.6290
81.5300,28.4345
81.5280,28.4301
81.4739,28.2995
81.4549,28.2536
81.4549,28.2536
81.3454,28.0897
81.3454,28.0897
81.3454,28.0897
81.2060,27.9504
81.2060,27.9504
81.2060,27.9504
81.0422,27.8409
81.0422,27.8409
81.0422,27.8409
81.0421,27.8409
81.0421,27.8409
80.8601,27.7655
80.8601,27.7655
80.8601,27.7655
80.8601,27.7655
80.8601,27.7655
80.8601,27.7655
80.6668,27.7270
80.6668,27.7270
80.6668,27.7270
80.4697,27.7270
80.4697,27.7270
80.4697,27.7270
80.2764,27.7655
80.2764,27.7655
80.2764,27.7655
80.2764,27.7655
80.2764,27.7655
80.0943,27.8409
80.0943,27.8409
80.0943,27.8409
79.9304,27.9504
79.9304,27.9504
79.9304,27.9504
79.7911,28.0897
79.7911,28.0897
79.7911,28.0897
79.6816,28.2536
79.6816,28.2536
79.6816,28.2536
79.6062,28.4356
79.6062,28.4357
79.5677,28.6290
79.5677,28.7817
79.5625,28.7996
79.6062,29.0193
79.6062,29.0193
79.6062,29.0193
79.6148,29.0402
79.6249,29.0646
79.6249,29.0646
79.6336,29.0988
79.6343,29.1053
79.6351,29.1126
79.6227,29.1813
79.5751,29.2325
79.5706,29.2352
79.5073,29.2525
79.2182,29.2525
79.2182,30.1411
79.1985,30.2082
79.1457,30.2539
79.0766,30.2639
79.0621,30.2609
79.0308,30.2525
79.0308,30.2525
78.9057,30.2525
78.9057,30.2525
78.8743,30.2609
78.8045,30.2593
78.7466,30.2201
78.7191,30.1559
78.7182,30.1411
78.7182,29.2525
78.2820,29.2525
78.2820,29.2525
78.2820,29.2525
78.2820,29.2525
78.1773,29.2632
78.1772,29.2632
78.1772,29.2632
78.1772,29.2632
78.1772,29.2632
78.0076,29.3194
78.0076,29.3194
78.0076,29.3194
78.0076,29.3194
77.9797,29.3366
77.8554,29.4133
77.8000,29.4687
77.7387,29.5022
77.6690,29.4972
77.6130,29.4553
77.5971,29.4269
77.3377,28.7757
77.3275,28.7502
77.3187,28.7043
77.3187,26.2173
83.1677,26.2173
83.1677,26.4377
83.2022,26.6555
83.2703,26.8651
83.2703,26.8651
83.2703,26.8651
83.3704,27.0615
83.4604,27.1853
83.5000,27.2399
83.5000,27.2399
83.6559,27.3958
83.6559,27.3958
83.6559,27.3958
83.7710,27.4794
83.8342,27.5253
83.9537,27.5862
83.9575,27.5881
84.0306,27.6254
84.0306,27.6254
84.0870,27.6437
84.2403,27.6935
84.4580,27.7280
84.4580,27.7280
84.6785,27.7280
84.6785,27.7280
84.8962,27.6935
85.1058,27.6254
85.3023,27.5253
85.4806,27.3958
85.6365,27.2399
85.7660,27.0615
85.8661,26.8651
85.9342,26.6555
85.9687,26.4377
85.9687,26.2173
85.9342,25.9996
85.8661,25.7899
85.8661,25.7899
85.8315,25.7219
85.7660,25.5935
85.7297,25.5435
85.6365,25.4152
85.6365,25.4151
85.6365,25.4151
85.6365,25.4151
85.4806,25.2593
85.4806,25.2593
85.4806,25.2593
85.4806,25.2593
85.4672,25.2495
85.3129,25.1374
85.3128,25.1374
85.3023,25.1297
85.3023,25.1297
85.3023,25.1297
85.2961,25.1266
85.2961,25.1266
85.2393,25.0976
85.2393,25.0976
85.1058,25.0296
85.1058,25.0296
85.1058,25.0296
84.8962,24.9615
84.7873,24.9443
84.6785,24.9270
84.6785,24.9270
84.4580,24.9270
84.4580,24.9270
84.3999,24.9362
84.3854,24.9385
84.2403,24.9615
84.0307,25.0296
84.0306,25.0296
84.0306,25.0296
83.8342,25.1297
83.6559,25.2592
83.6559,25.2593
83.5000,25.4151
83.5000,25.4152
83.3704,25.5935
83.2703,25.7899
83.2703,25.7899
83.2703,25.7899
83.2022,25.9996
83.1677,26.2173
77.3187,26.2173
77.3187,25.6490
77.3238,25.6141
77.3312,25.5888
77.3625,25.5361
79.5374,23.3611
79.5740,23.3358
80.6959,22.8294
80.7013,22.8273
80.7013,22.8273
80.7058,22.8254
80.7058,22.8254
80.7058,22.8254
80.7114,22.8226
80.7166,22.8201
80.7831,22.7900
80.8004,22.7819
80.8010,22.7816
80.8536,22.7504
80.8605,22.7466
80.9023,22.7253
81.0806,22.5958
81.2365,22.4399
81.3660,22.2615
81.4661,22.0651
81.5342,21.8555
81.5687,21.6377
81.5687,21.4173
81.5342,21.1996
81.4661,20.9899
81.4661,20.9899
81.4315,20.9219
81.3660,20.7935
81.2934,20.6935
81.2365,20.6152
81.2365,20.6151
81.2365,20.6151
81.0806,20.4593
81.0806,20.4593
81.0806,20.4593
81.0806,20.4593
81.0672,20.4495
80.9129,20.3374
80.9128,20.3374
80.9023,20.3297
80.9023,20.3297
80.9023,20.3297
80.8961,20.3266
80.8961,20.3266
80.8393,20.2976
80.8393,20.2976
80.7058,20.2296
80.7058,20.2296
80.7058,20.2296
80.4962,20.1615
80.4962,20.1615
80.3873,20.1443
80.2785,20.1270
80.2785,20.1270
80.0580,20.1270
80.0580,20.1270
79.9999,20.1362
79.9854,20.1385
79.8403,20.1615
79.6307,20.2296
79.6306,20.2296
79.6306,20.2296
79.4342,20.3297
79.2559,20.4593
79.2559,20.4593
79.1000,20.6151
79.1000,20.6152
78.9704,20.7935
78.9306,20.8716
78.9283,20.8762
78.9057,20.9126
78.8745,20.9818
78.8732,20.9844
78.8703,20.9899
78.8686,20.9941
78.8664,20.9997
78.3599,22.1217
78.3346,22.1584
75.8076,24.6853
75.8076,24.6853
75.8076,24.6853
75.7145,24.8246
75.7145,24.8246
75.7145,24.8247
75.6721,24.9270
75.6721,24.9270
75.6504,24.9794
75.6504,24.9794
75.6435,25.0143
75.6190,25.1374
75.6177,25.1437
75.6177,28.7043
75.6089,28.7502
75.2738,29.5914
75.2307,29.6464
75.1647,29.6694
75.0968,29.6530
75.0710,29.6332
74.9457,29.5080
74.9457,29.5080
74.7547,29.3692
74.7220,29.3525
74.5442,29.2619
74.3196,29.1890
74.3196,29.1890
74.0863,29.1520
74.0863,29.1520
74.0863,29.1520
73.8501,29.1520
73.8501,29.1520
73.8501,29.1520
73.6169,29.1890
73.6169,29.1890
73.6169,29.1890
73.3922,29.2619
73.2794,29.3194
73.1818,29.3692
73.1818,29.3692
73.0755,29.4464
73.0026,29.4994
72.9952,29.5035
72.8655,29.6332
72.8042,29.6667
72.7345,29.6617
72.6786,29.6198
72.6626,29.5914
72.6559,29.5744
72.3496,28.8057
72.3275,28.7502
72.3187,28.7043
72.3187,27.6437
72.3186,27.6430
72.3181,27.6408
72.2867,27.4828
72.2863,27.4803
72.2860,27.4794
72.2860,27.4794
72.2514,27.3958
72.2243,27.3303
72.2226,27.3257
72.2219,27.3246
72.1289,27.1853
72.1289,27.1853
72.1289,27.1853
67.3104,22.3669
67.3104,22.3669
67.3104,22.3669
67.1711,22.2738
67.1697,22.2731
67.1670,22.2721
67.0637,22.2293
67.0637,22.2293
67.0637,22.2293
67.0616,22.2285
67.0616,22.2285
67.0377,22.2186
67.0163,22.2097
67.0163,22.2097
67.0163,22.2097
66.8520,22.1770
66.8520,22.1770
66.8520,22.1770
50.4109,22.1770
50.3670,22.1690
50.0179,22.0370
49.2157,21.7338
49.2157,21.7338
49.2093,21.7314
49.2058,21.7296
49.2058,21.7296
49.1971,21.7268
49.1944,21.7257
49.1944,21.7257
49.1262,21.7000
49.1262,21.7000
49.1262,21.7000
49.1209,21.6981
49.1087,21.6937
49.1080,21.6934
49.1080,21.6934
49.0485,21.6782
49.0409,21.6760
48.9962,21.6615
48.9962,21.6615
48.8462,21.6377
48.8461,21.6377
48.7785,21.6270
48.7785,21.6270
48.5580,21.6270
48.5580,21.6270
48.4903,21.6377
48.4903,21.6377
48.3403,21.6615
48.1307,21.7296
48.1306,21.7296
48.1306,21.7296
47.9342,21.8297
47.7559,21.9592
47.7559,21.9593
47.6000,22.1151
47.6000,22.1152
47.4704,22.2935
47.3703,22.4899
47.3703,22.4899
47.3703,22.4899
47.3022,22.6996
47.2677,22.9173
47.2677,23.1377
47.3022,23.3555
47.3703,23.5651
47.3703,23.5651
47.3703,23.5651
47.4704,23.7615
47.5641,23.8904
47.6000,23.9399
47.6000,23.9399
47.6000,23.9399
47.7559,24.0957
47.7559,24.0958
47.7559,24.0958
47.9051,24.2042
47.9051,24.2042
47.9114,24.2088
47.9342,24.2253
48.0626,24.2907
48.1306,24.3254
48.1306,24.3254
48.1307,24.3254
48.1307,24.3254
48.2355,24.3595
48.3403,24.3935
48.5580,24.4280
48.5580,24.4280
48.7785,24.4280
48.7785,24.4280
48.9962,24.3935
49.0845,24.3648
49.1262,24.3551
49.1971,24.3282
49.1999,24.3273
49.2058,24.3254
49.2059,24.3254
49.2103,24.3235
49.2104,24.3236
49.2157,24.3212
50.3670,23.8860
50.4109,23.8780
66.3468,23.8780
66.3817,23.8830
66.4069,23.8904
66.4597,23.9217
70.5688,28.0309
70.5900,28.0591
70.6026,28.0822
70.6177,28.1416
70.6177,28.7043
70.6089,28.7502
70.2738,29.5914
70.2307,29.6464
70.1647,29.6694
70.0968,29.6530
70.0710,29.6332
69.9457,29.5080
69.9457,29.5080
69.7547,29.3692
69.7220,29.3525
69.5442,29.2619
69.3196,29.1890
69.3196,29.1890
69.0863,29.1520
69.0863,29.1520
69.0863,29.1520
68.8501,29.1520
68.8501,29.1520
68.8501,29.1520
68.6169,29.1890
68.6169,29.1890
68.6169,29.1890
68.3922,29.2619
68.2794,29.3194
68.1818,29.3692
68.1818,29.3692
68.0755,29.4464
68.0026,29.4994
67.9952,29.5035
67.8203,29.6784
67.8201,29.6783
67.8057,29.6920
67.7934,29.7015
67.7283,29.7268
67.6599,29.7129
67.6599,29.7129
67.6537,29.7097
67.6169,29.6778
67.6159,29.6787
67.6127,29.6750
67.4457,29.5080
67.4457,29.5080
67.2547,29.3692
67.2220,29.3525
67.1674,29.3247
67.1592,29.3201
67.1265,29.3002
67.1265,29.3002
67.0753,29.2776
67.0753,29.2776
67.0722,29.2762
67.0442,29.2619
67.0282,29.2567
67.0224,29.2542
67.0224,29.2542
65.7445,28.6892
65.7070,28.6635
63.3104,26.2669
63.3104,26.2669
63.3104,26.2669
63.1711,26.1738
63.1697,26.1731
63.1670,26.1721
63.0637,26.1293
63.0637,26.1293
63.0637,26.1293
63.0616,26.1285
63.0616,26.1285
63.0377,26.1186
63.0163,26.1097
63.0163,26.1097
63.0163,26.1097
62.8520,26.0770
62.8520,26.0770
62.8520,26.0770
34.7897,26.0770
34.7897,26.0770
34.7897,26.0770
34.7548,26.0720
34.7295,26.0646
34.6768,26.0333
32.1104,23.4669
32.1104,23.4669
32.1104,23.4669
31.9711,23.3738
31.9697,23.3731
31.9670,23.3721
31.8396,23.3193
31.8310,23.3158
31.8310,23.3158
31.8163,23.3097
31.8163,23.3097
31.8163,23.3097
31.8163,23.3097
31.8163,23.3097
31.6520,23.2770
31.6520,23.2770
31.6520,23.2770
23.5897,23.2770
23.5897,23.2770
23.5897,23.2770
23.5548,23.2720
23.5295,23.2646
23.4768,23.2333
23.1608,22.9173
42.2677,22.9173
42.2677,23.1377
42.3022,23.3555
42.3703,23.5651
42.3703,23.5651
42.3703,23.5651
42.4704,23.7615
42.5641,23.8904
42.6000,23.9399
42.6000,23.9399
42.6000,23.9399
42.7559,24.0957
42.7559,24.0958
42.7559,24.0958
42.9051,24.2042
42.9051,24.2042
42.9114,24.2088
42.9342,24.2253
43.0626,24.2907
43.1306,24.3254
43.1306,24.3254
43.1307,24.3254
43.1307,24.3254
43.2355,24.3595
43.3403,24.3935
43.5580,24.4280
43.5580,24.4280
43.7785,24.4280
43.7785,24.4280
43.9962,24.3935
44.2058,24.3254
44.4023,24.2253
44.5806,24.0958
44.7365,23.9399
44.8660,23.7615
44.9661,23.5651
45.0342,23.3555
45.0687,23.1377
45.0687,22.9173
45.0342,22.6996
44.9661,22.4899
44.9661,22.4899
44.9034,22.3669
44.8660,22.2935
44.8428,22.2615
44.8428,22.2615
44.8428,22.2615
44.7365,22.1152
44.7365,22.1152
44.7365,22.1151
44.7365,22.1151
44.7365,22.1151
44.5806,21.9593
44.5806,21.9593
44.5806,21.9593
44.5806,21.9593
44.5672,21.9495
44.4129,21.8374
44.4128,21.8374
44.4023,21.8297
44.4023,21.8297
44.4023,21.8297
44.3961,21.8266
44.3961,21.8266
44.3393,21.7976
44.3393,21.7976
44.2058,21.7296
44.2058,21.7296
44.2058,21.7296
43.9962,21.6615
43.8462,21.6377
43.8461,21.6377
43.7785,21.6270
43.7785,21.6270
43.5580,21.6270
43.5580,21.6270
43.4903,21.6377
43.4903,21.6377
43.3403,21.6615
43.1307,21.7296
43.1306,21.7296
43.1306,21.7296
42.9342,21.8297
42.7559,21.9592
42.7559,21.9593
42.6000,22.1151
42.6000,22.1152
42.4704,22.2935
42.3703,22.4899
42.3703,22.4899
42.3703,22.4899
42.3022,22.6996
42.2677,22.9173
23.1608,22.9173
21.6608,21.4173
73.7677,21.4173
73.7677,21.4220
73.7677,21.6377
73.7715,21.6615
73.7715,21.6615
73.8022,21.8555
73.8022,21.8555
73.8703,22.0651
73.8703,22.0651
73.8703,22.0651
73.9173,22.1573
73.9173,22.1573
73.9536,22.2285
73.9704,22.2615
73.9704,22.2615
74.0470,22.3669
74.1000,22.4399
74.1000,22.4399
74.1000,22.4399
74.2559,22.5957
74.2559,22.5958
74.2559,22.5958
74.2559,22.5958
74.3987,22.6996
74.4342,22.7253
74.5626,22.7907
74.6306,22.8254
74.6306,22.8254
74.6307,22.8254
74.6307,22.8254
74.7355,22.8595
74.8403,22.8935
75.0580,22.9280
75.0580,22.9280
75.2785,22.9280
75.2785,22.9280
75.4962,22.8935
75.7001,22.8273
75.7058,22.8254
75.7058,22.8254
75.9023,22.7253
76.0806,22.5958
76.2365,22.4399
76.3660,22.2615
76.4661,22.0651
76.5342,21.8555
76.5687,21.6377
76.5687,21.4173
76.5342,21.1996
76.4661,20.9899
76.4661,20.9899
76.4315,20.9219
76.3660,20.7935
76.2934,20.6935
76.2365,20.6152
76.2365,20.6151
76.2365,20.6151
76.0806,20.4593
76.0806,20.4593
76.0806,20.4593
76.0806,20.4593
76.0672,20.4495
75.9129,20.3374
75.9128,20.3374
75.9023,20.3297
75.9023,20.3297
75.9023,20.3297
75.8961,20.3266
75.8961,20.3266
75.8393,20.2976
75.8393,20.2976
75.7058,20.2296
75.7058,20.2296
75.7058,20.2296
75.4962,20.1615
75.4962,20.1615
75.3873,20.1443
75.2785,20.1270
75.2785,20.1270
75.0580,20.1270
75.0580,20.1270
74.9999,20.1362
74.9854,20.1385
74.8403,20.1615
74.6307,20.2296
74.6306,20.2296
74.6306,20.2296
74.4342,20.3297
74.2559,20.4593
74.2559,20.4593
74.1000,20.6151
74.1000,20.6152
73.9704,20.7935
73.8703,20.9899
73.8703,20.9899
73.8703,20.9899
73.8022,21.1996
73.8022,21.1996
73.8022,21.1996
73.8022,21.1996
73.7677,21.4173
21.6608,21.4173
21.4431,21.1996
20.2019,19.9584
20.1765,19.9217
19.8795,19.2636
19.8795,19.2636
19.8586,19.2173
21.9677,19.2173
21.9677,19.4377
22.0022,19.6555
22.0703,19.8651
22.0703,19.8651
22.0703,19.8651
22.1704,20.0615
22.2875,20.2226
22.3000,20.2399
22.3000,20.2399
22.3000,20.2399
22.4559,20.3957
22.4559,20.3958
22.4559,20.3958
22.6051,20.5042
22.6051,20.5042
22.6114,20.5088
22.6342,20.5253
22.7626,20.5907
22.8306,20.6254
22.8306,20.6254
22.8307,20.6254
22.8307,20.6254
22.9355,20.6595
23.0403,20.6935
23.2580,20.7280
23.2580,20.7280
23.4785,20.7280
23.4785,20.7280
23.6962,20.6935
23.8985,20.6278
23.9058,20.6254
23.9058,20.6254
23.9260,20.6151
24.1023,20.5253
24.2806,20.3958
24.4365,20.2399
24.5660,20.0615
24.6661,19.8651
24.7342,19.6555
24.7687,19.4377
24.7687,19.2173
24.7342,18.9996
24.6661,18.7899
24.6661,18.7899
24.6315,18.7219
24.5660,18.5935
24.5660,18.5935
24.5495,18.5707
24.5495,18.5707
24.4365,18.4152
24.4365,18.4151
24.4365,18.4151
24.2806,18.2593
24.2806,18.2593
24.2806,18.2593
24.2806,18.2593
24.2672,18.2495
24.1129,18.1374
24.1128,18.1374
24.1023,18.1297
24.1023,18.1297
24.1023,18.1297
24.0961,18.1266
24.0961,18.1266
24.0393,18.0976
24.0393,18.0976
23.9058,18.0296
23.9058,18.0296
23.9058,18.0296
23.6962,17.9615
23.6962,17.9615
23.5873,17.9443
23.4785,17.9270
23.4785,17.9270
23.2580,17.9270
23.2580,17.9270
23.1999,17.9362
23.1854,17.9385
23.0403,17.9615
22.8307,18.0296
22.8306,18.0296
22.8306,18.0296
22.6342,18.1297
22.4559,18.2592
22.4559,18.2593
22.3000,18.4151
22.3000,18.4152
22.1704,18.5935
22.0703,18.7899
22.0703,18.7899
22.0703,18.7899
22.0022,18.9996
21.9677,19.2173
19.8586,19.2173
19.6673,18.7936
19.6661,18.7899
19.6661,18.7899
19.6620,18.7818
19.6344,18.7206
19.6308,18.7126
19.6291,18.7092
19.6226,18.6954
19.6223,18.6947
19.6075,18.6696
19.5912,18.6422
19.5911,18.6420
19.5891,18.6387
19.5660,18.5935
19.5495,18.5707
19.5461,18.5660
19.5461,18.5660
19.4365,18.4152
19.4365,18.4151
19.4365,18.4151
19.2806,18.2593
19.2806,18.2593
19.2806,18.2593
19.2806,18.2593
19.2672,18.2495
19.1129,18.1374
19.1128,18.1374
19.1023,18.1297
19.1023,18.1297
19.1023,18.1297
19.0961,18.1266
19.0961,18.1266
19.0393,18.0976
19.0393,18.0976
18.9058,18.0296
18.9058,18.0296
18.9058,18.0296
18.6962,17.9615
18.6962,17.9615
18.5873,17.9443
18.4785,17.9270
18.4785,17.9270
18.2580,17.9270
18.2580,17.9270
18.1999,17.9362
18.1854,17.9385
18.0403,17.9615
17.9569,17.9886
17.9520,17.9902
17.9103,18.0000
17.8393,18.0268
17.8365,18.0277
17.8365,18.0277
17.8307,18.0296
17.8306,18.0296
17.8264,18.0314
17.8263,18.0313
17.8207,18.0338
16.7030,18.4563
16.6334,18.4616
16.5719,18.4284
16.5715,18.4280
14.8917,16.7482
14.8648,16.7079
14.4484,15.7015
41.6677,15.7015
41.6677,15.7061
41.6677,15.9535
41.6836,16.0535
41.7071,16.2023
41.7071,16.2023
41.7704,16.3970
41.7850,16.4419
41.8994,16.6664
41.8994,16.6664
41.9720,16.7664
42.0474,16.8702
42.0474,16.8702
42.0474,16.8702
42.2256,17.0483
42.2256,17.0483
42.2256,17.0483
42.2256,17.0483
42.3632,17.1483
42.4294,17.1964
42.5724,17.2693
42.5724,17.2693
42.6090,17.2879
42.6510,17.3093
42.6547,17.3112
42.6585,17.3123
42.8690,17.3807
42.8934,17.3886
43.1423,17.4280
43.1423,17.4280
43.3942,17.4280
43.3942,17.4280
43.6430,17.3886
43.8826,17.3108
44.1071,17.1964
44.3109,17.0483
44.4890,16.8702
44.6371,16.6664
44.7515,16.4419
44.8293,16.2023
44.8687,15.9535
44.8687,15.7015
44.8293,15.4527
44.8293,15.4527
44.8293,15.4527
44.7541,15.2212
44.7541,15.2212
44.7515,15.2131
44.7515,15.2131
44.7515,15.2131
44.7492,15.2087
44.7489,15.2079
44.7482,15.2067
44.6858,15.0843
44.6371,14.9887
44.6213,14.9669
44.6182,14.9626
44.6182,14.9626
44.5617,14.8849
44.4890,14.7849
44.4890,14.7849
44.4890,14.7849
44.4890,14.7848
44.3109,14.6067
44.3109,14.6067
44.3109,14.6067
44.3109,14.6067
44.1071,14.4586
44.1071,14.4586
44.1071,14.4586
43.9997,14.4039
43.8826,14.3443
43.8826,14.3443
43.6430,14.2664
43.4771,14.2401
43.3942,14.2270
43.3942,14.2270
43.1423,14.2270
43.1423,14.2270
43.0593,14.2401
42.8934,14.2664
42.8934,14.2664
42.6539,14.3443
42.6538,14.3443
42.5368,14.4039
42.4294,14.4586
42.2256,14.6067
42.2256,14.6067
42.0474,14.7848
42.0474,14.7849
41.8994,14.9887
41.8994,14.9887
41.7850,15.2131
41.7850,15.2131
41.7850,15.2131
41.7071,15.4527
41.7071,15.4527
41.6914,15.5523
41.6913,15.5525
41.6913,15.5527
41.6677,15.7015
14.4484,15.7015
14.2887,15.3155
14.2783,15.2929
14.2730,15.2793
14.2530,15.2178
14.2530,15.2178
14.2519,15.2140
14.2509,15.2120
14.2491,15.2083
14.2482,15.2067
14.2482,15.2067
14.2161,15.1436
14.2068,15.1195
14.2054,15.1144
14.2054,15.1144
13.6282,13.7225
13.6187,13.6750
13.6187,11.4800
13.6282,11.4325
13.6544,11.3694
14.2054,10.0406
14.2140,10.0173
14.2199,10.0039
14.2515,9.9419
14.3293,9.7023
14.3687,9.4535
14.3687,9.2015
41.6677,9.2015
41.6677,9.2061
41.6677,9.4535
41.6836,9.5535
41.7071,9.7023
41.7071,9.7023
41.7396,9.8023
41.7850,9.9419
41.8994,10.1664
41.8994,10.1664
41.9720,10.2664
42.0474,10.3702
42.0474,10.3702
42.0474,10.3702
42.2256,10.5483
42.2256,10.5483
42.2256,10.5483
42.2256,10.5483
42.4033,10.6775
42.4294,10.6964
42.5724,10.7693
42.5724,10.7693
42.5885,10.7775
42.6510,10.8093
42.6547,10.8112
42.6585,10.8123
42.8690,10.8807
42.8934,10.8886
43.1423,10.9280
43.1423,10.9280
43.3942,10.9280
43.3942,10.9280
43.6430,10.8886
43.8826,10.8108
44.1071,10.6964
44.3109,10.5483
44.4890,10.3702
44.6371,10.1664
44.7515,9.9419
44.8293,9.7023
44.8687,9.4535
44.8687,9.2015
46.1677,9.2015
46.1677,9.2061
46.1677,9.4535
46.1836,9.5535
46.2071,9.7023
46.2071,9.7023
46.2850,9.9419
46.2850,9.9419
46.3204,10.0114
46.3297,10.0355
46.3310,10.0406
46.8821,11.3694
46.9083,11.4325
46.9177,11.4800
46.9177,13.6750
46.9083,13.7225
46.3310,15.1144
46.3224,15.1377
46.3166,15.1511
46.2850,15.2131
46.2850,15.2131
46.2071,15.4527
46.2071,15.4527
46.1913,15.5527
46.1677,15.7015
46.1677,15.9535
46.1836,16.0535
46.2071,16.2023
46.2071,16.2023
46.2704,16.3970
46.2850,16.4419
46.3994,16.6664
46.3994,16.6664
46.4720,16.7664
46.5474,16.8702
46.5474,16.8702
46.5474,16.8702
46.7256,17.0483
46.7256,17.0483
46.7256,17.0483
46.7256,17.0483
46.8632,17.1483
46.9294,17.1964
47.0724,17.2693
47.0724,17.2693
47.1090,17.2879
47.1510,17.3093
47.1547,17.3112
47.1585,17.3123
47.3690,17.3807
47.3934,17.3886
47.6423,17.4280
47.6423,17.4280
47.8942,17.4280
47.8942,17.4280
48.1430,17.3886
48.3826,17.3108
48.6071,17.1964
48.8109,17.0483
48.9890,16.8702
49.1371,16.6664
49.2515,16.4419
49.3293,16.2023
49.3687,15.9535
49.3687,15.8015
73.5677,15.8015
73.5677,16.0535
73.6029,16.2757
73.6029,16.2757
73.6071,16.3023
73.6071,16.3023
73.6525,16.4419
73.6850,16.5419
73.7994,16.7664
73.9474,16.9702
73.9474,16.9702
73.9474,16.9702
74.1256,17.1483
74.1256,17.1483
74.1256,17.1483
74.1256,17.1483
74.1917,17.1964
74.3294,17.2964
74.4724,17.3693
74.4724,17.3693
74.5090,17.3879
74.5510,17.4093
74.5547,17.4112
74.5585,17.4123
74.6815,17.4522
74.7934,17.4886
75.0423,17.5280
75.0423,17.5280
75.2942,17.5280
75.2942,17.5280
75.5430,17.4886
75.7826,17.4108
76.0071,17.2964
76.2109,17.1483
76.3890,16.9702
76.5371,16.7664
76.6515,16.5419
76.7293,16.3023
76.7687,16.0535
76.7687,15.8015
76.7293,15.5527
76.7293,15.5527
76.7293,15.5527
76.6541,15.3212
76.6515,15.3131
76.6515,15.3131
76.6515,15.3131
76.6492,15.3087
76.6489,15.3079
76.6482,15.3067
76.6093,15.2303
76.6046,15.2212
76.5371,15.0887
76.4644,14.9887
76.3890,14.8849
76.3890,14.8849
76.3890,14.8849
76.3890,14.8848
76.2109,14.7067
76.2109,14.7067
76.2109,14.7067
76.2109,14.7067
76.0071,14.5586
76.0071,14.5586
76.0071,14.5586
75.8997,14.5039
75.7826,14.4443
75.7826,14.4443
75.5430,14.3664
75.4032,14.3443
75.2942,14.3270
75.2942,14.3270
75.0423,14.3270
75.0423,14.3270
74.9333,14.3443
74.7934,14.3664
74.7934,14.3664
74.5539,14.4443
74.5538,14.4443
74.4368,14.5039
74.3294,14.5586
74.1256,14.7067
74.1256,14.7067
73.9474,14.8848
73.9474,14.8849
73.7994,15.0887
73.6850,15.3131
73.6532,15.4109
73.6152,15.5280
73.6152,15.5280
73.6071,15.5527
73.6071,15.5527
73.5677,15.8015
49.3687,15.8015
49.3687,15.7015
49.3293,15.4527
49.3293,15.4527
49.3293,15.4527
49.2541,15.2212
49.2515,15.2131
49.2515,15.2131
49.2515,15.2131
49.2492,15.2087
49.2489,15.2079
49.2482,15.2067
49.2482,15.2067
49.2161,15.1436
49.2068,15.1195
49.2054,15.1144
49.2054,15.1144
48.6282,13.7225
48.6187,13.6750
48.6187,11.4800
48.6204,11.4718
48.6194,11.4667
48.6282,11.4325
48.6544,11.3694
48.6958,11.2694
51.0677,11.2694
51.0677,11.5056
51.0836,11.6056
51.1047,11.7389
51.1777,11.9635
51.2849,12.1739
51.3857,12.3127
51.3923,12.3251
51.4022,12.3439
51.4074,12.3586
51.4114,12.4284
51.4114,12.4284
51.4108,12.4310
51.3837,12.4842
51.3796,12.4889
51.3614,12.5060
51.2400,12.5992
51.2400,12.5992
51.1525,12.7132
51.1437,12.7247
51.0903,12.8535
51.0903,12.8535
51.0832,12.8707
51.0832,12.8707
51.0677,12.9881
51.0677,12.9881
51.0677,12.9882
51.0677,12.9901
51.0677,14.8669
51.0832,14.9843
51.0832,14.9843
51.0832,14.9843
51.0832,14.9843
51.0832,14.9843
51.0832,14.9843
51.1246,15.0843
51.1437,15.1304
51.2399,15.2558
51.2400,15.2558
51.3654,15.3520
51.5115,15.4126
51.6289,15.4280
53.5076,15.4280
53.5076,15.4280
53.6175,15.4135
53.6180,15.4135
53.6183,15.4135
53.6210,15.4133
53.6245,15.4128
53.6250,15.4126
53.6250,15.4126
53.7711,15.3520
53.8965,15.2558
53.9928,15.1304
54.0533,14.9843
54.0687,14.8669
54.0687,12.9882
54.0687,12.9881
54.0687,12.9881
54.0543,12.8783
54.0542,12.8778
54.0543,12.8775
54.0541,12.8748
54.0539,12.8739
54.0534,12.8712
54.0533,12.8708
54.0341,12.8244
53.9928,12.7247
53.8965,12.5992
53.8965,12.5992
53.8965,12.5992
53.8896,12.5939
53.8888,12.5931
53.8871,12.5920
53.8406,12.5563
53.8406,12.5563
53.7792,12.5092
53.7546,12.4840
53.7454,12.4714
53.7217,12.4056
53.7216,12.4029
53.7325,12.3442
53.7351,12.3385
53.7476,12.3170
53.8516,12.1739
53.9588,11.9635
53.9836,11.8873
53.9924,11.8667
53.9993,11.8539
54.4793,10.5945
54.5075,10.5510
55.7570,9.3015
73.5677,9.3015
73.5677,9.5535
73.6071,9.8023
73.6071,9.8023
73.6525,9.9419
73.6850,10.0419
73.7484,10.1664
73.7875,10.2430
73.7994,10.2664
73.9474,10.4702
73.9474,10.4702
73.9474,10.4702
74.1256,10.6483
74.1256,10.6483
74.1256,10.6483
74.1256,10.6483
74.3033,10.7775
74.3294,10.7964
74.4724,10.8693
74.4724,10.8693
74.5090,10.8879
74.5510,10.9093
74.5547,10.9112
74.5585,10.9123
74.7690,10.9807
74.7934,10.9886
75.0423,11.0280
75.0423,11.0280
75.2942,11.0280
75.2942,11.0280
75.5430,10.9886
75.7826,10.9108
76.0071,10.7964
76.2109,10.6483
76.3890,10.4702
76.3890,10.4702
76.3890,10.4702
76.5247,10.2834
76.5371,10.2664
76.6515,10.0419
76.7293,9.8023
76.7687,9.5535
76.7687,9.3015
78.0677,9.3015
78.0677,9.5535
78.1071,9.8023
78.1071,9.8023
78.1850,10.0419
78.1850,10.0419
78.2204,10.1114
78.2297,10.1355
78.2310,10.1406
78.7971,11.5056
78.8083,11.5325
78.8177,11.5800
78.8177,13.7750
78.8083,13.8225
78.2310,15.2144
78.2224,15.2377
78.2166,15.2511
78.1850,15.3131
78.1323,15.4753
78.1152,15.5280
78.1152,15.5280
78.1071,15.5527
78.1071,15.5527
78.0677,15.8015
78.0677,16.0535
78.1029,16.2757
78.1029,16.2757
78.1071,16.3023
78.1071,16.3023
78.1525,16.4419
78.1850,16.5419
78.2994,16.7664
78.4474,16.9702
78.4474,16.9702
78.4474,16.9702
78.6256,17.1483
78.6256,17.1483
78.6256,17.1483
78.6256,17.1483
78.6917,17.1964
78.8294,17.2964
78.9724,17.3693
78.9724,17.3693
79.0090,17.3879
79.0510,17.4093
79.0547,17.4112
79.0585,17.4123
79.1815,17.4522
79.2934,17.4886
79.5423,17.5280
79.5423,17.5280
79.7942,17.5280
79.7942,17.5280
80.0430,17.4886
80.2826,17.4108
80.5071,17.2964
80.7109,17.1483
80.8890,16.9702
81.0371,16.7664
81.1328,16.5785
104.0360,16.5785
104.0360,16.8285
104.0541,16.9656
104.0547,16.9702
104.0556,16.9771
104.0558,16.9812
104.0566,16.9852
104.0566,16.9852
104.1171,17.1312
104.1171,17.1312
104.1171,17.1312
104.1204,17.1357
104.1221,17.1376
104.2133,17.2566
104.3387,17.3528
104.4848,17.4133
104.4948,17.4146
104.5213,17.4212
104.5250,17.4225
104.5333,17.4262
104.5375,17.4271
104.5455,17.4301
104.5670,17.4460
104.5905,17.4588
104.6301,17.4984
104.6513,17.5267
104.6657,17.5531
104.6798,17.5963
104.6816,17.6102
104.6816,17.6102
104.7421,17.7562
104.7421,17.7562
104.7454,17.7607
104.7471,17.7626
104.8383,17.8816
104.9637,17.9778
105.1098,18.0383
105.2665,18.0590
105.2665,18.0590
105.5165,18.0590
105.5165,18.0590
105.6732,18.0383
105.8192,17.9778
105.9447,17.8816
106.0409,17.7562
106.1014,17.6102
106.1027,17.6002
106.1092,17.5737
106.1106,17.5699
106.1143,17.5616
106.1152,17.5574
106.1181,17.5494
106.1340,17.5279
106.1468,17.5045
106.1865,17.4648
106.2147,17.4437
106.2411,17.4293
106.2844,17.4151
106.2982,17.4133
106.4442,17.3528
106.5697,17.2566
106.6659,17.1312
106.7264,16.9852
106.7470,16.8285
106.7470,16.5785
106.7264,16.4217
106.6659,16.2757
106.5697,16.1503
106.4442,16.0541
106.4442,16.0541
106.4442,16.0541
106.3498,16.0150
106.3269,16.0055
106.2982,15.9936
106.2882,15.9923
106.2617,15.9857
106.2579,15.9844
106.2497,15.9807
106.2455,15.9798
106.2375,15.9768
106.2160,15.9610
106.1925,15.9481
106.1529,15.9085
106.1317,15.8802
106.1173,15.8538
106.1032,15.8106
106.1014,15.7967
106.0409,15.6507
105.9447,15.5253
105.8192,15.4291
105.8192,15.4291
105.8192,15.4291
105.7248,15.3900
105.7019,15.3805
105.6732,15.3686
105.6634,15.3673
105.6536,15.3660
105.6536,15.3660
105.5165,15.3480
105.5165,15.3480
105.2665,15.3480
105.2665,15.3480
105.2665,15.3480
105.1561,15.3625
105.1294,15.3660
105.1178,15.3675
105.1138,15.3678
105.1098,15.3686
104.9638,15.4291
104.8383,15.5253
104.7421,15.6507
104.6816,15.7967
104.6816,15.7967
104.6803,15.8067
104.6738,15.8332
104.6724,15.8370
104.6687,15.8453
104.6678,15.8495
104.6649,15.8575
104.6490,15.8790
104.6362,15.9024
104.5965,15.9421
104.5683,15.9632
104.5419,15.9777
104.4986,15.9918
104.4848,15.9936
104.3388,16.0541
104.2133,16.1503
104.1171,16.2757
104.0566,16.4217
104.0558,16.4257
104.0556,16.4291
104.0556,16.4294
104.0556,16.4297
104.0360,16.5785
81.1328,16.5785
81.1515,16.5419
81.2293,16.3023
81.2687,16.0535
81.2687,15.8015
81.2293,15.5527
81.2293,15.5527
81.2293,15.5527
81.1541,15.3212
81.1515,15.3131
81.1515,15.3131
81.1515,15.3131
81.1492,15.3087
81.1489,15.3079
81.1482,15.3067
81.1161,15.2436
81.1068,15.2195
81.1054,15.2144
81.1054,15.2144
81.1054,15.2144
80.5282,13.8225
80.5187,13.7750
80.5187,11.5800
80.5204,11.5718
80.5194,11.5667
80.5282,11.5325
80.5958,11.3694
82.9677,11.3694
82.9677,11.6056
83.0047,11.8389
83.0047,11.8389
83.0777,12.0635
83.1339,12.1739
83.1849,12.2739
83.2857,12.4127
83.3022,12.4439
83.3074,12.4586
83.3114,12.5284
83.3114,12.5284
83.3108,12.5310
83.2837,12.5842
83.2796,12.5889
83.2614,12.6060
83.1400,12.6992
83.1399,12.6992
83.1204,12.7247
83.1204,12.7247
83.0437,12.8247
82.9849,12.9667
82.9835,12.9696
82.9832,12.9708
82.9809,12.9882
82.9677,13.0881
82.9677,13.0882
82.9677,14.9669
82.9832,15.0843
82.9832,15.0843
82.9832,15.0843
83.0399,15.2212
83.0437,15.2304
83.1399,15.3558
83.2654,15.4520
83.4115,15.5126
83.5289,15.5280
85.4076,15.5280
85.4076,15.5280
85.5175,15.5135
85.5180,15.5135
85.5183,15.5135
85.5210,15.5133
85.5245,15.5128
85.5250,15.5126
85.5250,15.5126
85.6711,15.4520
85.7965,15.3558
85.8928,15.2304
85.9533,15.0843
85.9687,14.9669
85.9687,13.0882
85.9687,13.0881
85.9687,13.0881
85.9543,12.9783
85.9542,12.9778
85.9543,12.9775
85.9541,12.9748
85.9539,12.9739
85.9534,12.9712
85.9533,12.9708
85.9146,12.8775
85.8928,12.8247
85.7965,12.6992
85.7965,12.6992
85.7965,12.6992
85.7896,12.6939
85.7888,12.6931
85.7871,12.6920
85.7406,12.6563
85.7406,12.6563
85.6792,12.6092
85.6546,12.5840
85.6454,12.5714
85.6217,12.5056
85.6216,12.5029
85.6325,12.4442
85.6351,12.4385
85.6476,12.4170
85.7516,12.2739
85.8588,12.0635
85.8836,11.9873
85.8924,11.9667
85.8993,11.9539
86.3793,10.6945
86.4075,10.6510
89.0189,8.0397
89.0797,7.9486
89.0934,7.9316
89.1084,7.9160
89.1249,7.9016
89.1949,7.8507
89.2706,7.7958
89.3086,7.7578
89.3243,7.7448
89.3413,7.7251
89.4265,7.6399
89.5560,7.4615
89.6561,7.2651
89.7242,7.0555
89.7587,6.8377
89.7587,6.6252
94.6782,6.6252
94.6782,6.8298
94.7102,7.0319
94.7102,7.0319
94.7735,7.2265
94.7931,7.2651
94.8664,7.4089
94.8664,7.4089
94.8987,7.4534
94.8988,7.4534
94.8988,7.4534
94.8988,7.4534
95.4417,6.9105
95.5031,6.8770
95.5727,6.8820
95.6287,6.9238
95.6368,6.9361
95.6582,6.9731
95.7326,7.0476
95.7326,7.0476
95.7326,7.0476
95.7696,7.0689
95.8178,7.1195
95.8310,7.1881
95.8051,7.2530
95.7953,7.2640
95.2523,7.8070
95.2523,7.8070
95.2523,7.8070
95.2969,7.8394
95.3830,7.8833
95.4792,7.9323
95.4792,7.9323
95.4792,7.9323
95.6738,7.9955
95.8759,8.0275
96.0805,8.0275
96.0805,8.0275
96.2826,7.9955
96.4773,7.9323
96.6596,7.8394
96.7042,7.8070
96.1612,7.2640
96.1277,7.2027
96.1327,7.1330
96.1745,7.0771
96.1868,7.0689
96.2238,7.0476
96.2983,6.9731
96.3197,6.9361
96.3702,6.8879
96.4388,6.8747
96.5037,6.9007
96.5147,6.9105
97.0577,7.4534
97.0577,7.4534
97.0901,7.4089
97.1830,7.2265
97.2462,7.0319
97.2782,6.8298
97.2782,6.6252
97.2462,6.4231
97.1830,6.2285
97.1830,6.2285
97.1830,6.2285
97.0901,6.0462
97.0814,6.0342
97.0718,6.0074
97.0577,6.0016
96.5147,6.5446
96.4534,6.5780
96.3837,6.5731
96.3278,6.5312
96.3197,6.5189
96.2983,6.4819
96.2238,6.4074
96.1869,6.3861
96.1386,6.3355
96.1254,6.2669
96.1514,6.2020
96.1612,6.1910
96.7042,5.6480
96.7042,5.6480
96.7042,5.6480
96.7042,5.6480
96.7041,5.6480
96.6596,5.6157
96.6596,5.6157
96.5944,5.5825
96.4773,5.5228
96.2826,5.4595
96.2826,5.4595
96.0806,5.4275
96.0805,5.4275
95.8759,5.4275
95.8759,5.4275
95.6738,5.4595
95.6738,5.4595
95.6738,5.4595
95.5765,5.4911
95.4792,5.5228
95.2969,5.6157
95.2523,5.6480
95.2523,5.6480
95.2523,5.6480
95.5781,5.9738
95.7953,6.1910
95.8288,6.2523
95.8238,6.3220
95.7819,6.3780
95.7696,6.3861
95.7326,6.4074
95.7326,6.4074
95.6582,6.4819
95.6581,6.4819
95.6368,6.5189
95.5862,6.5671
95.5176,6.5803
95.4528,6.5544
95.4417,6.5446
94.8988,6.0016
94.8988,6.0016
94.8988,6.0016
94.8664,6.0462
94.7735,6.2285
94.7431,6.3220
94.7102,6.4231
94.7102,6.4231
94.7102,6.4231
94.6782,6.6252
89.7587,6.6252
89.7587,6.6173
89.7242,6.3996
89.6561,6.1899
89.6561,6.1899
89.6215,6.1219
89.5560,5.9935
89.4924,5.9059
89.4924,5.9059
89.4924,5.9059
89.4265,5.8152
89.4265,5.8151
89.4265,5.8151
89.2706,5.6593
89.2706,5.6593
89.2706,5.6593
89.2706,5.6593
89.2551,5.6480
89.1029,5.5374
89.1028,5.5374
89.0923,5.5297
89.0923,5.5297
89.0923,5.5297
89.0861,5.5266
89.0861,5.5266
89.0293,5.4976
89.0293,5.4976
88.8958,5.4296
88.8958,5.4296
88.8958,5.4296
88.6862,5.3615
88.6862,5.3615
88.4834,5.3294
88.4834,5.3294
88.4685,5.3270
88.2480,5.3270
88.2331,5.3294
88.2331,5.3294
88.0303,5.3615
87.8207,5.4296
87.8206,5.4296
87.8206,5.4296
87.6242,5.5297
87.4459,5.6593
87.4459,5.6593
87.2900,5.8151
87.2900,5.8152
87.1604,5.9935
87.0603,6.1899
87.0603,6.1899
87.0603,6.1899
86.9922,6.3996
86.9577,6.6173
86.9577,6.8377
86.9922,7.0555
87.0603,7.2651
87.0603,7.2651
87.1002,7.3433
87.1219,7.3859
87.1333,7.4193
87.1362,7.4347
87.1316,7.4797
87.1292,7.5042
87.1253,7.5138
87.0981,7.5549
85.1848,9.4682
85.1507,9.4923
83.7931,10.1426
83.7914,10.1434
83.7900,10.1441
83.7899,10.1441
83.7899,10.1441
83.7164,10.1864
83.7109,10.1893
83.6818,10.2042
83.6818,10.2042
83.5728,10.2834
83.5728,10.2834
83.5026,10.3344
83.4952,10.3385
83.3192,10.5145
83.3151,10.5219
83.2976,10.5460
83.2959,10.5483
83.1849,10.7011
83.1849,10.7011
83.1849,10.7011
83.1460,10.7775
83.0777,10.9115
83.0047,11.1361
83.0047,11.1361
83.0047,11.1361
82.9677,11.3694
80.5958,11.3694
81.1054,10.1406
81.1140,10.1173
81.1199,10.1039
81.1515,10.0419
81.2293,9.8023
81.2687,9.5535
81.2687,9.3015
81.2293,9.0527
81.2293,9.0527
81.2293,9.0527
81.1541,8.8212
81.1541,8.8212
81.1515,8.8131
81.1515,8.8131
81.1515,8.8131
81.1492,8.8087
81.1489,8.8079
81.1482,8.8067
81.1220,8.7553
81.1100,8.7317
81.1100,8.7317
81.0371,8.5887
81.0371,8.5887
81.0227,8.5688
80.9644,8.4887
80.8890,8.3849
80.8890,8.3849
80.8890,8.3849
80.8890,8.3848
80.7109,8.2067
80.7109,8.2067
80.7109,8.2067
80.7109,8.2067
80.5071,8.0586
80.5071,8.0586
80.5071,8.0586
80.3832,7.9955
80.2826,7.9443
80.1956,7.9160
80.0430,7.8664
79.9440,7.8507
79.8722,7.8394
79.7942,7.8270
79.7942,7.8270
79.5423,7.8270
79.5423,7.8270
79.4642,7.8394
79.4642,7.8394
79.2934,7.8664
79.2934,7.8664
79.0539,7.9443
79.0538,7.9443
78.8445,8.0510
78.8294,8.0586
78.6256,8.2067
78.6256,8.2067
78.4474,8.3848
78.4474,8.3849
78.2994,8.5887
78.2994,8.5887
78.1850,8.8131
78.1850,8.8131
78.1850,8.8131
78.1071,9.0527
78.1071,9.0527
78.0677,9.3015
76.7687,9.3015
76.7293,9.0527
76.7293,9.0527
76.7293,9.0527
76.6541,8.8212
76.6541,8.8212
76.6515,8.8131
76.6515,8.8131
76.6515,8.8131
76.6492,8.8087
76.6489,8.8079
76.6482,8.8067
76.6220,8.7553
76.6100,8.7317
76.6100,8.7317
76.5371,8.5887
76.5371,8.5887
76.5227,8.5688
76.4644,8.4887
76.3890,8.3849
76.3890,8.3849
76.3890,8.3849
76.3890,8.3848
76.2109,8.2067
76.2109,8.2067
76.2109,8.2067
76.2109,8.2067
76.0071,8.0586
76.0071,8.0586
76.0071,8.0586
75.8832,7.9955
75.7826,7.9443
75.6956,7.9160
75.5430,7.8664
75.4440,7.8507
75.3722,7.8394
75.2942,7.8270
75.2942,7.8270
75.0423,7.8270
75.0423,7.8270
74.9642,7.8394
74.9642,7.8394
74.7934,7.8664
74.7934,7.8664
74.5539,7.9443
74.5538,7.9443
74.3445,8.0510
74.3294,8.0586
74.1256,8.2067
74.1256,8.2067
73.9474,8.3848
73.9474,8.3849
73.7994,8.5887
73.7994,8.5887
73.6850,8.8131
73.6850,8.8131
73.6850,8.8131
73.6071,9.0527
73.6071,9.0527
73.5677,9.3015
55.7570,9.3015
56.2925,8.7660
56.3047,8.7553
56.3287,8.7369
56.7615,8.3041
56.7900,8.2694
56.7982,8.2604
56.8189,8.2397
56.9119,8.1004
56.9599,7.9845
56.9775,7.9547
57.2431,7.6213
57.2852,7.5612
57.2852,7.5612
57.2876,7.5571
57.2951,7.5454
57.3211,7.5096
57.3560,7.4615
57.4561,7.2651
57.5242,7.0555
57.5587,6.8377
57.5587,6.6252
62.4782,6.6252
62.4782,6.8298
62.5102,7.0319
62.5102,7.0319
62.5735,7.2265
62.5931,7.2651
62.6664,7.4089
62.6664,7.4089
62.6987,7.4534
62.6988,7.4534
62.6988,7.4534
62.6988,7.4534
63.2417,6.9105
63.3031,6.8770
63.3727,6.8820
63.4287,6.9238
63.4368,6.9361
63.4582,6.9731
63.5326,7.0476
63.5326,7.0476
63.5326,7.0476
63.5696,7.0689
63.6178,7.1195
63.6310,7.1881
63.6051,7.2530
63.5953,7.2640
63.0523,7.8070
63.0523,7.8070
63.0523,7.8070
63.0969,7.8394
63.1830,7.8833
63.2792,7.9323
63.2792,7.9323
63.2792,7.9323
63.4738,7.9955
63.6759,8.0275
63.8805,8.0275
63.8805,8.0275
64.0826,7.9955
64.2773,7.9323
64.4596,7.8394
64.5042,7.8070
63.9612,7.2640
63.9277,7.2027
63.9327,7.1330
63.9745,7.0771
63.9868,7.0689
64.0238,7.0476
64.0983,6.9731
64.1197,6.9361
64.1702,6.8879
64.2388,6.8747
64.3037,6.9007
64.3147,6.9105
64.8577,7.4534
64.8577,7.4534
64.8901,7.4089
64.9830,7.2265
65.0462,7.0319
65.0782,6.8298
65.0782,6.6252
65.0462,6.4231
64.9830,6.2285
64.9830,6.2285
64.9830,6.2285
64.8901,6.0462
64.8814,6.0342
64.8718,6.0074
64.8577,6.0016
64.3147,6.5446
64.2534,6.5780
64.1837,6.5731
64.1278,6.5312
64.1197,6.5189
64.0983,6.4819
64.0238,6.4074
63.9869,6.3861
63.9386,6.3355
63.9254,6.2669
63.9514,6.2020
63.9612,6.1910
64.5042,5.6480
64.5042,5.6480
64.5042,5.6480
64.5042,5.6480
64.5041,5.6480
64.4596,5.6157
64.4596,5.6157
64.3944,5.5825
64.2773,5.5228
64.0826,5.4595
64.0826,5.4595
63.8806,5.4275
63.8805,5.4275
63.6759,5.4275
63.6759,5.4275
63.4738,5.4595
63.4738,5.4595
63.4738,5.4595
63.3765,5.4911
63.2792,5.5228
63.0969,5.6157
63.0523,5.6480
63.0523,5.6480
63.0523,5.6480
63.3781,5.9738
63.5953,6.1910
63.6288,6.2523
63.6238,6.3220
63.5819,6.3780
63.5696,6.3861
63.5326,6.4074
63.5326,6.4074
63.4582,6.4819
63.4581,6.4819
63.4368,6.5189
63.3862,6.5671
63.3176,6.5803
63.2528,6.5544
63.2417,6.5446
62.6988,6.0016
62.6988,6.0016
62.6988,6.0016
62.6664,6.0462
62.5735,6.2285
62.5431,6.3220
62.5102,6.4231
62.5102,6.4231
62.5102,6.4231
62.4782,6.6252
57.5587,6.6252
57.5587,6.6173
57.5242,6.3996
57.4561,6.1899
57.4561,6.1899
57.4215,6.1219
57.3560,5.9935
57.2924,5.9059
57.2924,5.9059
57.2924,5.9059
57.2265,5.8152
57.2265,5.8151
57.2265,5.8151
57.0706,5.6593
57.0706,5.6593
57.0706,5.6593
57.0706,5.6593
57.0551,5.6480
56.9029,5.5374
56.9029,5.5374
56.8923,5.5297
56.8923,5.5297
56.8923,5.5297
56.8861,5.5266
56.8861,5.5266
56.8293,5.4976
56.8293,5.4976
56.6958,5.4296
56.6958,5.4296
56.6958,5.4296
56.4862,5.3615
56.4862,5.3615
56.2834,5.3294
56.2834,5.3294
56.2685,5.3270
56.0480,5.3270
56.0331,5.3294
56.0331,5.3294
55.8303,5.3615
55.6207,5.4296
55.6206,5.4296
55.6206,5.4296
55.4242,5.5297
55.2459,5.6593
55.2459,5.6593
55.0900,5.8151
55.0900,5.8152
54.9604,5.9935
54.8603,6.1899
54.8603,6.1899
54.8603,6.1899
54.7922,6.3996
54.7577,6.6173
54.7577,6.8377
54.7922,7.0555
54.8603,7.2651
54.8603,7.2651
54.8603,7.2651
54.8603,7.2651
54.8603,7.2651
54.8603,7.2651
54.8603,7.2651
54.9563,7.4534
54.9604,7.4615
54.9604,7.4615
54.9604,7.4615
54.9849,7.4952
55.0014,7.5264
55.0045,7.5352
55.0066,7.5412
55.0106,7.6109
55.0091,7.6173
54.9760,7.6769
53.2848,9.3682
53.2507,9.3923
51.8931,10.0426
51.8914,10.0434
51.8900,10.0441
51.8899,10.0441
51.8899,10.0441
51.8164,10.0864
51.8109,10.0893
51.7818,10.1042
51.7818,10.1042
51.6728,10.1834
51.6728,10.1834
51.6026,10.2344
51.5952,10.2385
51.4192,10.4145
51.4151,10.4219
51.3800,10.4702
51.3800,10.4702
51.2849,10.6011
51.2849,10.6011
51.2460,10.6775
51.1777,10.8115
51.1047,11.0361
51.1047,11.0361
51.1047,11.0361
51.0677,11.2694
48.6958,11.2694
49.2054,10.0406
49.2140,10.0173
49.2199,10.0039
49.2515,9.9419
49.3293,9.7023
49.3687,9.4535
49.3687,9.2015
49.3293,8.9527
49.3293,8.9527
49.3293,8.9527
49.2541,8.7212
49.2541,8.7212
49.2515,8.7131
49.2515,8.7131
49.2515,8.7131
49.2492,8.7087
49.2489,8.7079
49.2482,8.7067
49.1881,8.5887
49.1881,8.5887
49.1371,8.4887
49.1182,8.4626
48.9890,8.2849
48.9890,8.2849
48.9890,8.2849
48.9890,8.2848
48.8109,8.1067
48.8109,8.1067
48.8109,8.1067
48.8109,8.1067
48.6071,7.9586
48.6071,7.9586
48.6071,7.9586
48.5078,7.9081
48.3826,7.8443
48.3070,7.8197
48.1430,7.7664
47.9771,7.7401
47.8942,7.7270
47.8942,7.7270
47.6423,7.7270
47.6423,7.7270
47.5593,7.7401
47.3934,7.7664
47.3934,7.7664
47.1539,7.8443
47.1538,7.8443
47.0287,7.9081
46.9294,7.9586
46.7256,8.1067
46.7256,8.1067
46.5474,8.2848
46.5474,8.2849
46.3994,8.4887
46.3994,8.4887
46.2850,8.7131
46.2850,8.7131
46.2850,8.7131
46.2071,8.9527
46.2071,8.9527
46.1914,9.0523
46.1913,9.0525
46.1913,9.0527
46.1677,9.2015
44.8687,9.2015
44.8293,8.9527
44.8293,8.9527
44.8293,8.9527
44.7541,8.7212
44.7541,8.7212
44.7515,8.7131
44.7515,8.7131
44.7515,8.7131
44.7492,8.7087
44.7489,8.7079
44.7482,8.7067
44.6881,8.5887
44.6881,8.5887
44.6371,8.4887
44.6182,8.4626
44.4890,8.2849
44.4890,8.2849
44.4890,8.2849
44.4890,8.2848
44.3109,8.1067
44.3109,8.1067
44.3109,8.1067
44.3109,8.1067
44.1071,7.9586
44.1071,7.9586
44.1071,7.9586
44.0078,7.9081
43.8826,7.8443
43.8070,7.8197
43.6430,7.7664
43.4771,7.7401
43.3942,7.7270
43.3942,7.7270
43.1423,7.7270
43.1423,7.7270
43.0593,7.7401
42.8934,7.7664
42.8934,7.7664
42.6539,7.8443
42.6538,7.8443
42.5287,7.9081
42.4294,7.9586
42.2256,8.1067
42.2256,8.1067
42.0474,8.2848
42.0474,8.2849
41.8994,8.4887
41.8994,8.4887
41.7850,8.7131
41.7850,8.7131
41.7850,8.7131
41.7071,8.9527
41.7071,8.9527
41.6914,9.0523
41.6913,9.0525
41.6913,9.0527
41.6677,9.2015
14.3687,9.2015
14.3293,8.9527
14.3293,8.9527
14.3293,8.9527
14.2541,8.7212
14.2541,8.7212
14.2515,8.7131
14.2515,8.7131
14.2515,8.7131
14.2492,8.7087
14.2489,8.7079
14.2482,8.7067
14.1881,8.5887
14.1881,8.5887
14.1371,8.4887
14.1182,8.4626
13.9890,8.2849
13.9890,8.2849
13.9890,8.2849
13.9890,8.2848
13.8109,8.1067
13.8109,8.1067
13.8109,8.1067
13.8109,8.1067
13.6071,7.9586
13.6071,7.9586
13.6071,7.9586
13.5078,7.9081
13.3826,7.8443
13.3070,7.8197
13.1430,7.7664
12.9771,7.7401
12.8942,7.7270
12.8942,7.7270
12.6423,7.7270
12.6423,7.7270
12.5593,7.7401
12.3934,7.7664
12.3934,7.7664
12.1539,7.8443
12.1538,7.8443
12.0287,7.9081
11.9294,7.9586
11.7256,8.1067
11.7256,8.1067
11.5474,8.2848
11.5474,8.2849
11.3994,8.4887
11.3994,8.4887
11.2850,8.7131
11.2850,8.7131
11.2850,8.7131
11.2071,8.9527
11.2071,8.9527
11.1914,9.0523
11.1913,9.0525
11.1913,9.0527
11.1677,9.2015
9.8687,9.2015
9.8293,8.9527
9.8293,8.9527
9.8293,8.9527
9.7541,8.7212
9.7541,8.7212
9.7515,8.7131
9.7515,8.7131
9.7515,8.7131
9.7492,8.7087
9.7489,8.7079
9.7482,8.7067
9.6881,8.5887
9.6881,8.5887
9.6371,8.4887
9.6182,8.4626
9.4890,8.2849
9.4890,8.2849
9.4890,8.2849
9.4890,8.2848
9.3109,8.1067
9.3109,8.1067
9.3109,8.1067
9.3109,8.1067
9.1071,7.9586
9.1071,7.9586
9.1071,7.9586
9.0078,7.9081
8.8826,7.8443
8.8070,7.8197
8.6430,7.7664
8.4771,7.7401
8.3942,7.7270
8.3942,7.7270
8.1423,7.7270
8.1423,7.7270
8.0593,7.7401
7.8934,7.7664
7.8934,7.7664
7.6539,7.8443
7.6538,7.8443
7.5287,7.9081
7.4294,7.9586
7.2256,8.1067
7.2256,8.1067
7.0474,8.2848
7.0474,8.2849
6.8994,8.4887
6.8994,8.4887
6.7850,8.7131
6.7850,8.7131
6.7850,8.7131
6.7071,8.9527
6.7071,8.9527
6.6914,9.0523
6.6913,9.0525
6.6913,9.0527
6.6677,9.2015
0.5005,9.2015
0.5005,3.8664
1.9977,3.8664
1.9977,4.1286
1.9990,4.1386
2.0320,4.3886
2.0814,4.5730
2.0998,4.6419
2.0998,4.6419
2.1667,4.8034
2.2002,4.8842
2.2002,4.8842
2.3313,5.1113
2.4909,5.3194
2.4910,5.3194
2.6764,5.5048
2.6764,5.5048
2.6764,5.5048
2.6764,5.5048
2.6950,5.5191
2.7088,5.5297
2.7088,5.5297
2.8844,5.6644
3.1115,5.7955
3.1115,5.7955
3.1115,5.7956
3.1115,5.7956
3.3538,5.8959
3.3538,5.8959
3.6071,5.9638
3.8671,5.9980
3.8671,5.9980
4.1293,5.9980
4.1294,5.9980
4.3893,5.9638
4.6427,5.8959
4.8196,5.8226
4.8849,5.7956
4.8849,5.7956
4.8849,5.7956
5.1120,5.6644
5.3201,5.5048
5.3201,5.5048
5.3201,5.5048
5.3974,5.4275
5.5007,5.3242
5.5014,5.3235
5.5050,5.3199
5.5055,5.3194
5.5055,5.3194
5.5055,5.3194
5.5055,5.3194
5.5055,5.3194
5.5056,5.3192
5.5059,5.3189
5.5059,5.3189
5.5093,5.3145
5.5098,5.3138
5.6652,5.1113
5.7963,4.8842
5.8966,4.6419
5.9645,4.3886
5.9987,4.1286
5.9987,3.8664
5.9645,3.6064
5.9544,3.5689
24.3091,3.5689
24.3091,3.5727
24.3091,3.8189
24.3154,3.8664
24.3297,3.9756
24.3297,3.9756
24.3902,4.1216
24.3902,4.1216
24.3902,4.1216
24.4864,4.2470
24.6118,4.3433
24.7579,4.4038
24.7679,4.4051
24.7944,4.4116
24.7981,4.4130
24.8064,4.4166
24.8106,4.4175
24.8186,4.4205
24.8401,4.4364
24.8636,4.4492
24.9032,4.4889
24.9244,4.5171
24.9388,4.5435
24.9529,4.5868
24.9547,4.6006
24.9547,4.6006
25.0152,4.7466
25.0152,4.7466
25.0185,4.7512
25.0202,4.7531
25.1114,4.8720
25.2368,4.9683
25.3829,5.0288
25.5396,5.0494
25.5396,5.0494
25.7896,5.0494
25.7896,5.0494
25.9463,5.0288
26.0923,4.9683
26.2178,4.8720
26.3140,4.7466
26.3745,4.6006
26.3758,4.5906
26.3823,4.5641
26.3837,4.5603
26.3874,4.5521
26.3883,4.5479
26.3912,4.5399
26.4071,4.5184
26.4199,4.4949
26.4596,4.4553
26.4878,4.4341
26.5142,4.4197
26.5575,4.4056
26.5713,4.4038
26.7173,4.3433
26.8428,4.2470
26.9390,4.1216
26.9995,3.9756
27.0125,3.8764
102.9877,3.8764
102.9877,4.1386
103.0144,4.3408
103.0220,4.3986
103.0278,4.4205
103.0761,4.6006
103.0872,4.6419
103.0898,4.6519
103.0898,4.6519
103.1317,4.7531
103.1902,4.8942
103.1902,4.8942
103.3213,5.1213
103.4809,5.3294
103.4810,5.3294
103.6664,5.5148
103.6664,5.5148
103.6664,5.5148
103.6664,5.5148
103.7148,5.5519
103.7897,5.6095
103.8744,5.6744
103.8744,5.6744
103.8744,5.6744
104.0055,5.7501
104.1015,5.8055
104.1015,5.8055
104.1015,5.8056
104.1015,5.8056
104.3438,5.9059
104.3438,5.9059
104.5971,5.9738
104.8571,6.0080
104.8571,6.0080
105.1193,6.0080
105.1194,6.0080
105.3793,5.9738
105.6327,5.9059
105.8096,5.8326
105.8096,5.8326
105.8709,5.8072
105.8727,5.8065
105.8732,5.8063
105.8756,5.8053
105.8784,5.8035
106.1020,5.6744
106.1020,5.6744
106.1786,5.6157
106.3101,5.5148
106.3101,5.5148
106.3101,5.5148
106.3974,5.4275
106.4907,5.3342
106.4914,5.3335
106.4950,5.3299
106.4955,5.3294
106.4955,5.3294
106.4955,5.3294
106.4955,5.3294
106.4955,5.3294
106.4956,5.3292
106.4959,5.3289
106.4959,5.3289
106.4993,5.3245
106.4998,5.3238
106.6552,5.1213
106.7863,4.8942
106.8866,4.6519
106.9545,4.3986
106.9887,4.1386
106.9887,3.8764
106.9545,3.6164
106.8866,3.3631
106.8825,3.3531
106.7863,3.1208
106.7863,3.1208
106.7863,3.1208
106.6552,2.8937
106.5498,2.7565
106.4955,2.6857
106.4955,2.6857
106.4955,2.6856
106.3101,2.5002
106.3101,2.5002
106.1020,2.3406
105.8749,2.2095
105.8749,2.2095
105.6367,2.1108
105.6367,2.1108
105.6327,2.1091
105.4412,2.0578
105.3793,2.0412
105.3216,2.0336
105.3034,2.0312
105.1194,2.0070
105.1194,2.0070
105.1194,2.0070
104.8571,2.0070
104.8571,2.0070
104.8571,2.0070
104.6260,2.0374
104.6260,2.0374
104.5971,2.0412
104.5971,2.0412
104.3438,2.1091
104.1015,2.2095
104.1015,2.2095
103.8744,2.3406
103.6664,2.5002
103.6664,2.5002
103.4810,2.6857
103.4809,2.6857
103.3213,2.8937
103.1902,3.1208
103.1902,3.1208
103.0898,3.3631
103.0246,3.6064
103.0246,3.6064
103.0220,3.6164
103.0220,3.6164
102.9890,3.8664
102.9877,3.8764
27.0125,3.8764
27.0201,3.8189
27.0201,3.5689
26.9995,3.4122
26.9390,3.2661
26.8428,3.1407
26.7173,3.0445
26.7173,3.0445
26.7173,3.0445
26.6229,3.0054
26.6000,2.9959
26.5713,2.9840
26.5613,2.9827
26.5348,2.9762
26.5310,2.9748
26.5228,2.9711
26.5186,2.9702
26.5106,2.9673
26.4891,2.9514
26.4656,2.9385
26.4260,2.8989
26.4048,2.8707
26.3904,2.8442
26.3763,2.8010
26.3745,2.7872
26.3140,2.6411
26.2178,2.5157
26.0923,2.4195
26.0923,2.4195
26.0923,2.4195
25.9979,2.3804
25.9750,2.3709
25.9463,2.3590
25.9365,2.3577
25.9267,2.3564
25.9267,2.3564
25.7896,2.3384
25.7896,2.3384
25.5396,2.3384
25.5396,2.3384
25.5396,2.3384
25.4292,2.3529
25.4025,2.3564
25.3909,2.3580
25.3869,2.3582
25.3829,2.3590
25.2369,2.4195
25.1114,2.5157
25.0152,2.6411
24.9547,2.7872
24.9547,2.7872
24.9534,2.7971
24.9469,2.8237
24.9455,2.8275
24.9418,2.8357
24.9409,2.8399
24.9380,2.8479
24.9221,2.8694
24.9093,2.8929
24.8696,2.9325
24.8414,2.9537
24.8150,2.9681
24.7717,2.9822
24.7579,2.9840
24.6119,3.0445
24.4864,3.1407
24.3902,3.2661
24.3297,3.4122
24.3289,3.4162
24.3287,3.4195
24.3287,3.4198
24.3287,3.4202
24.3091,3.5689
5.9544,3.5689
5.8966,3.3531
5.8966,3.3531
5.7963,3.1108
5.7963,3.1108
5.7580,3.0445
5.6652,2.8837
5.5137,2.6863
5.5137,2.6863
5.5132,2.6857
5.5055,2.6757
5.5055,2.6757
5.5055,2.6757
5.5045,2.6747
5.5045,2.6746
5.3201,2.4902
5.3201,2.4902
5.1120,2.3306
4.8849,2.1995
4.8849,2.1995
4.6467,2.1008
4.6467,2.1008
4.6427,2.0991
4.4267,2.0412
4.3893,2.0312
4.3316,2.0236
4.2053,2.0070
4.1294,1.9970
4.1294,1.9970
4.1294,1.9970
3.8671,1.9970
3.8671,1.9970
3.8671,1.9970
3.6360,2.0274
3.6360,2.0274
3.6071,2.0312
3.6071,2.0312
3.3538,2.0991
3.1115,2.1995
3.1115,2.1995
2.8844,2.3306
2.6764,2.4902
2.6764,2.4902
2.4910,2.6757
2.4909,2.6757
2.3313,2.8837
2.2002,3.1108
2.2002,3.1108
2.0998,3.3531
2.0320,3.6064
2.0308,3.6151
2.0306,3.6164
1.9977,3.8664
0.5005,3.8664
0.5005,0.6423
0.5055,0.6074
0.5099,0.5924
0.5477,0.5336
0.5477,0.5336
0.5477,0.5336
0.5490,0.5325
0.6039,0.5050
0.6115,0.5033
0.6378,0.5005
108.3259,0.5005
Z" /> 
<path style="fill:#FFFFFF; fill-opacity:1.0000; stroke:none;fill-rule:evenodd;"
d="M 13.7240,15.5412
13.7292,15.5470
14.3528,17.0543
14.3528,17.0633
14.3503,17.0671
14.0078,17.4096
13.9995,17.4130
13.9950,17.4121
12.4877,16.7885
12.4814,16.7822
12.4810,16.7743
12.7623,15.8295
12.7680,15.8225
12.7702,15.8216
13.7151,15.5402
Z" /> 
<path style="fill:#FFFFFF; fill-opacity:1.0000; stroke:none;fill-rule:evenodd;"
d="M 12.7738,9.3247
13.6409,9.7939
13.6465,9.8008
13.6461,9.8087
13.0212,11.3155
13.0149,11.3218
13.0104,11.3227
12.5260,11.3227
12.5178,11.3193
12.5152,11.3155
12.2752,10.7366
11.8904,9.8087
11.8903,9.7997
11.8956,9.7939
12.7627,9.3247
12.7716,9.3238
Z" /> 
<path style="fill:#FFFFFF; fill-opacity:1.0000; stroke:none;fill-rule:evenodd;"
d="M 88.8983,6.9709
88.8999,6.9759
88.9233,7.2851
88.9205,7.2936
88.9166,7.2966
88.3602,7.5549
88.0243,7.7108
88.0154,7.7112
88.0088,7.7051
88.0078,7.6988
88.0344,7.4652
88.0387,7.4573
88.0401,7.4564
88.8823,6.9666
88.8912,6.9655
Z" /> 
<path style="fill:#FFFFFF; fill-opacity:1.0000; stroke:none;fill-rule:evenodd;"
d="M 79.6738,9.4247
80.5409,9.8939
80.5465,9.9008
80.5461,9.9087
79.9212,11.4155
79.9149,11.4218
79.9104,11.4227
79.4260,11.4227
79.4178,11.4193
79.4152,11.4155
79.1752,10.8366
78.7904,9.9087
78.7903,9.8997
78.7956,9.8939
79.6627,9.4247
79.6716,9.4238
Z" /> 
<path style="fill:#FFFFFF; fill-opacity:1.0000; stroke:none;fill-rule:evenodd;"
d="M 53.6170,9.8969
53.9594,10.2392
53.9628,10.2475
53.9620,10.2516
53.4335,11.6383
53.4273,11.6448
53.4188,11.6452
52.5191,11.3428
52.5123,11.3369
52.5123,11.3369
52.1492,10.6044
52.1486,10.5955
52.1545,10.5887
52.1547,10.5887
53.6037,9.8946
53.6127,9.8941
Z" /> 
<path style="fill:#FFFFFF; fill-opacity:1.0000; stroke:none;fill-rule:evenodd;"
d="M 71.7186,28.8603
71.7212,28.8642
72.3251,30.3803
72.3250,30.3893
72.3186,30.3955
72.3185,30.3955
71.4725,30.7268
71.4640,30.7268
70.6179,30.3955
70.6115,30.3893
70.6113,30.3804
70.6113,30.3803
71.2153,28.8642
71.2215,28.8578
71.2262,28.8568
71.7103,28.8568
Z" /> 
<path style="fill:#FFFFFF; fill-opacity:1.0000; stroke:none;fill-rule:evenodd;"
d="M 85.5170,9.9969
85.8594,10.3392
85.8628,10.3475
85.8620,10.3516
85.3335,11.7383
85.3273,11.7448
85.3188,11.7452
84.4191,11.4428
84.4123,11.4369
84.4123,11.4369
84.0492,10.7044
84.0486,10.6955
84.0545,10.6887
84.0547,10.6887
85.5037,9.9946
85.5127,9.9941
Z" /> 
<path style="fill:#FFFFFF; fill-opacity:1.0000; stroke:none;fill-rule:evenodd;"
d="M 48.0187,13.8358
48.0212,13.8395
48.6461,15.3464
48.6461,15.3553
48.6409,15.3611
47.7738,15.8303
47.7649,15.8312
47.7627,15.8303
47.5763,15.7295
46.8956,15.3611
46.8899,15.3542
46.8904,15.3464
47.5152,13.8395
47.5216,13.8332
47.5260,13.8323
48.0104,13.8323
Z" /> 
<path style="fill:#FFFFFF; fill-opacity:1.0000; stroke:none;fill-rule:evenodd;"
d="M 47.7738,9.3247
48.6409,9.7939
48.6465,9.8008
48.6461,9.8087
48.0212,11.3155
48.0149,11.3218
48.0104,11.3227
47.5260,11.3227
47.5178,11.3193
47.5152,11.3155
47.2752,10.7366
46.8904,9.8087
46.8903,9.7997
46.8956,9.7939
47.7627,9.3247
47.7716,9.3238
Z" /> 
<path style="fill:#FFFFFF; fill-opacity:1.0000; stroke:none;fill-rule:evenodd;"
d="M 19.0786,18.9611
19.0789,18.9617
19.6703,20.2720
19.6706,20.2810
19.6679,20.2851
19.3258,20.6272
19.3175,20.6306
19.3127,20.6296
18.0024,20.0382
17.9963,20.0316
17.9966,20.0227
17.9969,20.0221
18.3631,19.3273
18.3680,19.3224
19.0628,18.9562
19.0717,18.9554
Z" /> 
<path style="fill:#FFFFFF; fill-opacity:1.0000; stroke:none;fill-rule:evenodd;"
d="M 76.7186,28.8603
76.7212,28.8642
77.3251,30.3803
77.3250,30.3893
77.3186,30.3955
77.3185,30.3955
76.4725,30.7268
76.4640,30.7268
75.6179,30.3955
75.6115,30.3893
75.6113,30.3804
75.6113,30.3803
76.2153,28.8642
76.2215,28.8578
76.2262,28.8568
76.7103,28.8568
Z" /> 
<path style="fill:#FFFFFF; fill-opacity:1.0000; stroke:none;fill-rule:evenodd;"
d="M 79.9187,13.9358
79.9212,13.9395
80.5461,15.4464
80.5461,15.4553
80.5409,15.4611
79.6738,15.9303
79.6649,15.9312
79.6627,15.9303
79.4763,15.8295
78.7956,15.4611
78.7899,15.4542
78.7904,15.4464
79.4152,13.9395
79.4216,13.9332
79.4260,13.9323
79.9104,13.9323
Z" /> 
<path style="fill:#FFFFFF; fill-opacity:1.0000; stroke:none;fill-rule:evenodd;"
d="M 18.1333,18.5666
18.1395,18.5732
18.1397,18.5738
18.3720,19.3240
18.3720,19.3310
18.1397,20.0812
18.1340,20.0881
18.1250,20.0889
18.1244,20.0887
16.7796,19.5804
16.7731,19.5742
16.7721,19.5694
16.7721,19.0856
16.7755,19.0773
16.7796,19.0747
18.1244,18.5664
Z" /> 
<path style="fill:#FFFFFF; fill-opacity:1.0000; stroke:none;fill-rule:evenodd;"
d="M 79.4731,21.1559
79.4737,21.1562
80.1685,21.5224
80.1734,21.5273
80.5395,22.2220
80.5404,22.2310
80.5347,22.2378
80.5340,22.2382
79.2237,22.8296
79.2148,22.8299
79.2106,22.8272
78.8685,22.4851
78.8651,22.4768
78.8661,22.4720
79.4576,21.1617
79.4641,21.1556
Z" /> 
<path style="fill:#FFFFFF; fill-opacity:1.0000; stroke:none;fill-rule:evenodd;"
d="M 48.9121,22.2664
50.2568,22.7747
50.2633,22.7808
50.2644,22.7856
50.2644,23.2694
50.2610,23.2777
50.2568,23.2804
48.9121,23.7887
48.9031,23.7884
48.8970,23.7819
48.8968,23.7812
48.6645,23.0310
48.6645,23.0241
48.8968,22.2738
48.9025,22.2669
48.9114,22.2661
Z" /> 
</g> 
</svg>
