<?xml version="1.0" standalone="no"?>
 <!DOCTYPE svg PUBLIC "-//W3C//DTD SVG 1.1//EN" 
 "http://www.w3.org/Graphics/SVG/1.1/DTD/svg11.dtd"> 
<svg
  xmlns:svg="http://www.w3.org/2000/svg"
  xmlns="http://www.w3.org/2000/svg"
  xmlns:xlink="http://www.w3.org/1999/xlink"
  xmlns:inkscape="http://www.inkscape.org/namespaces/inkscape"
  version="1.1"
  width="108.9660mm" height="38.1254mm" viewBox="0.0000 0.0000 108.9660 38.1254">
<title>SVG Image created as loop_btn-B_Cu.svg date 2026-06-09T21:07:38 </title>
  <desc>Image generated by PCBNEW </desc>
<g style="fill:#000000; fill-opacity:1.0000;stroke:#000000; stroke-opacity:1.0000;
stroke-linecap:round; stroke-linejoin:round;"
 transform="translate(0 0) scale(1 1)">
</g>
<g style="fill:#000000; fill-opacity:1.0000; stroke:none;">
<rect x="-6.171042" y="-6.000739" width="121.287620" height="49.138300" rx="0.000000" />
</g>
<g style="fill:#FFFFFF; fill-opacity:1.0000; stroke:none;">
<circle cx="24.3978" cy="31.3275" r="0.8000" /> 
<circle cx="24.3978" cy="26.3275" r="0.8000" /> 
<circle cx="45.1878" cy="6.7275" r="0.8000" /> 
<circle cx="52.8078" cy="6.7275" r="0.8000" /> 
<circle cx="12.9878" cy="6.7275" r="0.8000" /> 
<circle cx="20.6078" cy="6.7275" r="0.8000" /> 
<circle cx="28.7978" cy="21.5275" r="0.8000" /> 
<circle cx="33.7978" cy="21.5275" r="0.8000" /> 
<circle cx="90.5978" cy="19.3275" r="0.8000" /> 
<circle cx="85.5978" cy="19.3275" r="0.8000" /> 
<circle cx="60.2978" cy="23.0275" r="0.8000" /> 
<circle cx="65.2978" cy="23.0275" r="0.8000" /> 
<path style="fill:#FFFFFF; fill-opacity:1.0000; stroke:none;fill-rule:evenodd;"
d="M 29.0978,31.4378
29.1179,31.5391
29.1753,31.6250
29.2612,31.6824
29.3625,31.7025
30.6331,31.7025
30.7344,31.6824
30.8202,31.6250
30.8776,31.5391
30.8978,31.4378
30.8978,30.0172
30.8776,29.9159
30.8202,29.8300
30.7344,29.7727
30.6331,29.7525
29.3625,29.7525
29.2612,29.7727
29.1753,29.8300
29.1179,29.9159
29.0978,30.0172
Z" /> 
</g>
<g style="fill:none; 
stroke:#FFFFFF; stroke-width:1.8000; stroke-opacity:1; 
stroke-linecap:round; stroke-linejoin:round;">
<path d="M32.4978 30.8025
L32.4978 30.6525
" />
<path d="M34.9978 30.8025
L34.9978 30.6525
" />
<path d="M37.4978 30.8025
L37.4978 30.6525
" />
<path d="M39.9978 30.8025
L39.9978 30.6525
" />
<path d="M42.4978 30.8025
L42.4978 30.6525
" />
<path d="M44.9978 30.8025
L44.9978 30.6525
" />
</g>
<g style="fill:#FFFFFF; fill-opacity:1.0000; stroke:none;">
<circle cx="83.3014" cy="3.7189" r="0.1250" /> 
<path style="fill:#FFFFFF; fill-opacity:1.0000; stroke:none;fill-rule:evenodd;"
d="M 83.4264,3.8439
84.0514,3.8439
84.0514,3.5939
83.4264,3.5939
83.4264,2.9689
83.1764,2.9689
83.1764,3.5939
82.5514,3.5939
82.5514,3.8439
83.1764,3.8439
83.1764,4.4689
83.4264,4.4689
Z" /> 
<circle cx="29.2978" cy="15.9275" r="1.0000" /> 
<circle cx="29.2978" cy="9.4275" r="1.0000" /> 
<circle cx="33.7978" cy="15.9275" r="1.0000" /> 
<circle cx="33.7978" cy="9.4275" r="1.0000" /> 
<path style="fill:#FFFFFF; fill-opacity:1.0000; stroke:none;fill-rule:evenodd;"
d="M 23.5978,14.9275
25.3978,14.9275
25.3978,13.1275
23.5978,13.1275
Z" /> 
<circle cx="24.4978" cy="11.4875" r="0.9000" /> 
<circle cx="61.1978" cy="15.8275" r="1.0000" /> 
<circle cx="61.1978" cy="9.3275" r="1.0000" /> 
<circle cx="65.6978" cy="15.8275" r="1.0000" /> 
<circle cx="65.6978" cy="9.3275" r="1.0000" /> 
<path style="fill:#FFFFFF; fill-opacity:1.0000; stroke:none;fill-rule:evenodd;"
d="M 55.4978,14.8275
57.2978,14.8275
57.2978,13.0275
55.4978,13.0275
Z" /> 
<circle cx="56.3978" cy="11.3875" r="0.9000" /> 
<circle cx="3.5745" cy="16.7285" r="0.1250" /> 
<path style="fill:#FFFFFF; fill-opacity:1.0000; stroke:none;fill-rule:evenodd;"
d="M 3.6995,16.8535
4.3245,16.8535
4.3245,16.6035
3.6995,16.6035
3.6995,15.9785
3.4495,15.9785
3.4495,16.6035
2.8245,16.6035
2.8245,16.8535
3.4495,16.8535
3.4495,17.4785
3.6995,17.4785
Z" /> 
<circle cx="96.1978" cy="15.8275" r="1.0000" /> 
<circle cx="96.1978" cy="9.3275" r="1.0000" /> 
<circle cx="100.6978" cy="15.8275" r="1.0000" /> 
<circle cx="100.6978" cy="9.3275" r="1.0000" /> 
<circle cx="60.0406" cy="30.7171" r="0.1250" /> 
<path style="fill:#FFFFFF; fill-opacity:1.0000; stroke:none;fill-rule:evenodd;"
d="M 60.1656,30.8421
60.7906,30.8421
60.7906,30.5921
60.1656,30.5921
60.1656,29.9671
59.9156,29.9671
59.9156,30.5921
59.2906,30.5921
59.2906,30.8421
59.9156,30.8421
59.9156,31.4671
60.1656,31.4671
Z" /> 
</g>
<g style="fill:none; 
stroke:#FFFFFF; stroke-width:0.5000; stroke-opacity:1; 
stroke-linecap:round; stroke-linejoin:round;">
<path d="M28.7978 21.5275
L28.7978 16.3275
" />
<path d="M60.2978 23.0275
L60.2978 16.7275
" />
<path d="M60.2978 16.7275
L61.1978 15.8275
" />
<path d="M31.7978 25.8275
L34.9978 29.0275
" />
<path d="M24.4978 13.9275
L24.4978 21.8275
" />
<path d="M28.4978 25.8275
L31.7978 25.8275
" />
<path d="M24.4978 21.8275
L28.4978 25.8275
" />
<path d="M34.9978 29.0275
L34.9978 30.7275
" />
<path d="M39.9978 30.7275
L39.9978 21.4275
" />
<path d="M47.4978 13.9275
L56.4978 13.9275
" />
<path d="M39.9978 21.4275
L47.4978 13.9275
" />
<path style="fill:#FFFFFF; fill-opacity:1.0000; stroke:none;fill-rule:evenodd;"
d="M 28.5476,19.9348
28.5449,19.9389
28.0366,21.2836
28.0369,21.2926
28.0434,21.2987
28.0441,21.2990
28.7943,21.5313
28.8012,21.5313
29.5514,21.2990
29.5583,21.2932
29.5592,21.2843
29.5589,21.2837
29.0506,19.9389
29.0445,19.9324
29.0397,19.9314
28.5559,19.9314
Z" /> 
<path style="fill:#FFFFFF; fill-opacity:1.0000; stroke:none;fill-rule:evenodd;"
d="M 39.7474,28.8603
39.7448,28.8642
39.1409,30.3803
39.1410,30.3893
39.1474,30.3955
39.1475,30.3955
39.9935,30.7268
40.0020,30.7268
40.8481,30.3955
40.8545,30.3893
40.8547,30.3804
40.8547,30.3803
40.2507,28.8642
40.2445,28.8578
40.2398,28.8568
39.7557,28.8568
Z" /> 
<path style="fill:#FFFFFF; fill-opacity:1.0000; stroke:none;fill-rule:evenodd;"
d="M 60.0476,21.4348
60.0449,21.4389
59.5366,22.7836
59.5369,22.7926
59.5434,22.7987
59.5441,22.7990
60.2943,23.0313
60.3012,23.0313
61.0514,22.7990
61.0583,22.7932
61.0592,22.7843
61.0589,22.7837
60.5506,21.4389
60.5445,21.4324
60.5397,21.4314
60.0559,21.4314
Z" /> 
<path style="fill:#FFFFFF; fill-opacity:1.0000; stroke:none;fill-rule:evenodd;"
d="M 24.4895,14.0348
24.4895,14.0348
23.6048,14.9205
23.6014,14.9287
23.6036,14.9356
24.2443,15.8227
24.2519,15.8274
24.2538,15.8275
24.7418,15.8275
24.7501,15.8241
24.7513,15.8227
25.3919,14.9356
25.3940,14.9269
25.3907,14.9205
24.5060,14.0348
24.4978,14.0314
Z" /> 
<path style="fill:#FFFFFF; fill-opacity:1.0000; stroke:none;fill-rule:evenodd;"
d="M 0.6052,0.5055
0.5902,0.5099
0.5752,0.5196
0.5581,0.5246
0.5314,0.5477
0.5302,0.5490
0.5028,0.6039
0.5011,0.6115
0.4983,0.6378
0.4983,33.4852
0.5033,33.5201
0.5077,33.5351
0.5173,33.5501
0.5223,33.5672
0.5454,33.5939
0.5468,33.5951
0.6017,33.6225
0.6092,33.6242
0.6356,33.6270
82.9624,33.6270
82.9944,33.6228
83.0249,33.6146
83.0547,33.6023
85.6601,32.0999
86.2419,31.7644
89.3601,29.9664
83.0183,29.9664
83.0183,30.2286
82.9937,30.4151
82.9840,30.4886
82.9660,30.5560
82.9219,30.7206
82.9162,30.7419
82.9162,30.7419
82.8462,30.9109
82.8158,30.9842
82.8158,30.9842
82.6847,31.2113
82.5250,31.4194
82.5250,31.4194
82.3396,31.6048
82.3396,31.6048
82.3396,31.6048
82.3396,31.6048
82.3396,31.6048
82.3005,31.6348
82.3005,31.6348
82.3005,31.6348
82.1316,31.7644
81.9045,31.8955
81.9045,31.8955
81.9045,31.8956
81.9045,31.8956
81.6622,31.9959
81.6622,31.9959
81.4089,32.0638
81.1489,32.0980
81.1489,32.0980
80.8867,32.0980
80.8866,32.0980
80.6267,32.0638
80.3733,31.9959
80.1311,31.8956
79.9040,31.7644
79.6959,31.6048
79.6959,31.6048
79.6959,31.6048
79.6032,31.5121
79.5153,31.4242
79.5146,31.4235
79.5110,31.4199
79.5105,31.4194
79.5105,31.4194
79.5105,31.4194
79.5105,31.4194
79.5105,31.4194
79.5104,31.4192
79.5101,31.4189
79.5101,31.4189
79.5067,31.4145
79.5062,31.4138
79.3508,31.2113
79.2197,30.9842
79.1194,30.7419
79.0792,30.5921
61.3961,30.5921
61.3961,30.8422
61.3754,30.9989
61.3754,30.9989
61.3149,31.1449
61.3149,31.1449
61.3149,31.1449
61.2187,31.2703
61.0933,31.3665
60.9473,31.4270
60.9373,31.4283
60.9108,31.4349
60.9070,31.4362
60.8987,31.4399
60.8945,31.4408
60.8865,31.4437
60.8650,31.4597
60.8416,31.4725
60.8019,31.5121
60.7808,31.5404
60.7664,31.5668
60.7523,31.6100
60.7504,31.6239
60.7307,31.6714
60.7307,31.6714
60.7307,31.6714
60.6928,31.7630
60.6899,31.7699
60.6867,31.7744
60.6850,31.7763
60.6128,31.8704
60.5937,31.8953
60.4748,31.9866
60.4748,31.9866
60.4680,31.9918
60.4646,31.9931
60.4469,32.0004
60.3223,32.0520
60.1656,32.0726
60.1656,32.0726
59.9156,32.0726
59.9156,32.0726
59.7588,32.0520
59.6128,31.9915
59.4874,31.8953
59.3912,31.7699
59.3307,31.6239
59.3294,31.6139
59.3229,31.5874
59.3215,31.5836
59.3178,31.5753
59.3169,31.5711
59.3140,31.5631
59.2981,31.5416
59.2852,31.5182
59.2456,31.4785
59.2173,31.4574
59.1909,31.4429
59.1477,31.4288
59.1338,31.4270
58.9878,31.3665
58.8624,31.2703
58.7662,31.1449
58.7057,30.9989
58.6851,30.8421
58.6851,30.5921
58.7057,30.4354
58.7662,30.2894
58.8624,30.1640
58.9878,30.0678
58.9878,30.0678
58.9878,30.0678
59.0822,30.0287
59.1052,30.0192
59.1338,30.0073
59.1438,30.0060
59.1703,29.9994
59.1741,29.9980
59.1824,29.9944
59.1866,29.9935
59.1946,29.9905
59.2161,29.9746
59.2396,29.9618
59.2792,29.9222
59.3003,29.8939
59.3148,29.8675
59.3289,29.8243
59.3307,29.8104
59.3597,29.7405
59.3808,29.6896
59.3808,29.6896
59.3808,29.6896
59.3912,29.6644
59.3912,29.6644
59.3912,29.6644
59.3949,29.6595
59.3952,29.6590
59.3961,29.6580
59.4874,29.5390
59.6128,29.4428
59.6128,29.4428
59.6128,29.4428
59.7220,29.3975
59.7243,29.3966
59.7244,29.3966
59.7588,29.3823
59.7588,29.3823
59.7588,29.3823
59.7784,29.3797
59.7784,29.3797
59.9156,29.3616
59.9156,29.3616
60.1656,29.3616
60.1656,29.3616
60.1656,29.3616
60.2227,29.3692
60.3027,29.3797
60.3142,29.3812
60.3183,29.3815
60.3223,29.3823
60.4683,29.4428
60.5937,29.5390
60.6899,29.6644
60.7504,29.8104
60.7504,29.8104
60.7517,29.8204
60.7583,29.8469
60.7597,29.8507
60.7633,29.8590
60.7642,29.8632
60.7672,29.8712
60.7831,29.8926
60.7959,29.9161
60.8355,29.9558
60.8638,29.9769
60.8902,29.9913
60.9334,30.0055
60.9473,30.0073
61.0933,30.0678
61.2187,30.1640
61.3149,30.2894
61.3754,30.4354
61.3762,30.4394
61.3764,30.4428
61.3764,30.4431
61.3765,30.4434
61.3961,30.5921
79.0792,30.5921
79.0515,30.4886
79.0173,30.2286
79.0173,29.9664
79.0515,29.7064
79.1194,29.4531
79.1236,29.4428
79.2197,29.2108
79.2197,29.2108
79.2197,29.2108
79.3508,28.9837
79.5105,28.7757
79.5105,28.7757
79.5105,28.7756
79.6959,28.5902
79.6959,28.5902
79.9040,28.4306
80.1311,28.2995
80.1311,28.2995
80.3693,28.2008
80.3693,28.2008
80.3733,28.1991
80.5648,28.1478
80.6267,28.1312
80.6844,28.1236
80.8866,28.0970
80.8866,28.0970
80.8866,28.0970
81.1489,28.0970
81.1489,28.0970
81.1489,28.0970
81.3511,28.1236
81.3768,28.1270
81.4089,28.1312
81.4925,28.1536
81.5208,28.1612
81.6622,28.1991
81.9045,28.2995
81.9045,28.2995
82.1316,28.4306
82.3396,28.5902
82.3396,28.5902
82.5250,28.7757
82.5251,28.7757
82.6847,28.9837
82.8158,29.2108
82.8158,29.2108
82.9162,29.4531
82.9653,29.6365
82.9753,29.6738
82.9795,29.6896
82.9795,29.6896
82.9840,29.7064
82.9840,29.7064
83.0169,29.9558
83.0183,29.9664
89.3601,29.9664
91.3730,28.8057
99.4171,24.1671
101.3931,23.0277
101.5709,22.9252
66.5978,22.9252
66.5978,23.1298
66.5658,23.3319
66.5658,23.3319
66.5025,23.5265
66.4428,23.6437
66.4096,23.7089
66.4096,23.7089
66.3773,23.7534
66.3772,23.7534
66.3772,23.7534
66.3772,23.7534
65.8343,23.2105
65.7729,23.1770
65.7033,23.1820
65.6473,23.2238
65.6392,23.2361
65.6178,23.2731
65.5434,23.3476
65.5434,23.3476
65.5434,23.3476
65.5064,23.3689
65.4582,23.4195
65.4450,23.4881
65.4709,23.5530
65.4807,23.5640
66.0237,24.1070
66.0237,24.1070
66.0237,24.1070
65.9791,24.1394
65.8930,24.1833
65.7968,24.2323
65.7968,24.2323
65.7968,24.2323
65.6022,24.2955
65.4001,24.3275
65.1955,24.3275
65.1955,24.3275
64.9934,24.2955
64.7987,24.2323
64.7851,24.2253
64.6164,24.1394
64.6164,24.1394
64.6164,24.1394
64.5718,24.1070
65.1148,23.5640
65.1483,23.5027
65.1433,23.4330
65.1015,23.3771
65.0892,23.3689
65.0522,23.3476
64.9777,23.2731
64.9563,23.2361
64.9058,23.1879
64.8372,23.1747
64.7723,23.2007
64.7613,23.2105
64.2183,23.7534
64.2183,23.7534
64.1859,23.7089
64.0930,23.5265
64.0298,23.3319
63.9978,23.1298
63.9978,22.9252
64.0298,22.7231
64.0930,22.5285
64.0930,22.5285
64.0930,22.5285
64.1859,22.3462
64.1946,22.3342
64.2042,22.3074
64.2183,22.3016
64.7613,22.8446
64.8226,22.8780
64.8923,22.8731
64.9482,22.8312
64.9563,22.8189
64.9777,22.7819
65.0522,22.7074
65.0891,22.6861
65.1374,22.6355
65.1506,22.5669
65.1246,22.5020
65.1148,22.4910
64.5718,21.9480
64.5718,21.9480
64.5718,21.9480
64.5718,21.9480
64.5719,21.9480
64.6164,21.9157
64.6164,21.9157
64.6816,21.8825
64.7987,21.8228
64.9934,21.7595
64.9958,21.7591
65.1954,21.7275
65.1955,21.7275
65.4001,21.7275
65.4001,21.7275
65.6022,21.7595
65.6022,21.7595
65.6022,21.7595
65.6995,21.7911
65.7968,21.8228
65.9791,21.9157
66.0237,21.9480
66.0237,21.9480
66.0237,21.9480
65.7102,22.2615
65.4807,22.4910
65.4472,22.5523
65.4522,22.6220
65.4941,22.6780
65.5064,22.6861
65.5434,22.7074
65.5434,22.7074
65.6178,22.7819
65.6179,22.7819
65.6392,22.8189
65.6898,22.8671
65.7584,22.8803
65.8232,22.8544
65.8343,22.8446
66.3772,22.3016
66.3772,22.3016
66.3772,22.3016
66.4096,22.3462
66.5025,22.5285
66.5244,22.5958
66.5658,22.7231
66.5658,22.7231
66.5658,22.7231
66.5978,22.9252
101.5709,22.9252
102.9972,22.1027
107.8233,19.3198
108.0011,19.2173
91.9983,19.2173
91.9983,19.4377
91.9638,19.6555
91.8957,19.8651
91.8957,19.8651
91.8957,19.8651
91.8276,19.9986
91.7997,20.0534
91.7997,20.0534
91.7956,20.0615
91.7956,20.0615
91.6802,20.2204
91.6660,20.2399
91.6660,20.2399
91.6660,20.2399
91.5101,20.3957
91.5101,20.3958
91.5101,20.3958
91.3609,20.5042
91.3609,20.5042
91.3546,20.5088
91.3318,20.5253
91.2034,20.5907
91.1354,20.6254
91.1354,20.6254
91.1353,20.6254
91.1353,20.6254
91.0305,20.6595
90.9257,20.6935
90.7080,20.7280
90.7080,20.7280
90.4875,20.7280
90.4875,20.7280
90.2698,20.6935
90.0602,20.6254
89.8637,20.5253
89.6854,20.3958
89.5295,20.2399
89.4000,20.0615
89.2999,19.8651
89.2318,19.6555
89.1973,19.4377
89.1973,19.2252
86.8978,19.2252
86.8978,19.4298
86.8658,19.6319
86.8658,19.6319
86.8025,19.8265
86.7428,19.9437
86.7096,20.0089
86.7096,20.0089
86.6773,20.0534
86.6772,20.0534
86.6772,20.0534
86.6772,20.0534
86.1343,19.5105
86.0729,19.4770
86.0033,19.4820
85.9473,19.5238
85.9392,19.5361
85.9178,19.5731
85.8434,19.6476
85.8434,19.6476
85.8434,19.6476
85.8064,19.6689
85.7582,19.7195
85.7450,19.7881
85.7709,19.8530
85.7807,19.8640
86.3237,20.4070
86.3237,20.4070
86.3237,20.4070
86.2791,20.4394
86.1930,20.4833
86.0968,20.5323
86.0968,20.5323
86.0968,20.5323
85.9022,20.5955
85.7001,20.6275
85.4955,20.6275
85.4955,20.6275
85.2934,20.5955
85.0987,20.5323
85.0851,20.5253
84.9164,20.4394
84.9164,20.4394
84.9164,20.4394
84.8718,20.4070
85.4148,19.8640
85.4483,19.8027
85.4433,19.7330
85.4015,19.6771
85.3892,19.6689
85.3522,19.6476
85.2777,19.5731
85.2563,19.5361
85.2058,19.4879
85.1372,19.4747
85.0723,19.5007
85.0613,19.5105
84.5183,20.0534
84.5183,20.0534
84.4859,20.0089
84.3930,19.8265
84.3298,19.6319
84.2978,19.4298
84.2978,19.2252
84.3298,19.0231
84.3930,18.8285
84.3930,18.8285
84.3930,18.8285
84.4859,18.6462
84.4946,18.6342
84.5042,18.6074
84.5183,18.6016
85.0613,19.1446
85.1226,19.1780
85.1923,19.1731
85.2482,19.1312
85.2563,19.1189
85.2777,19.0819
85.3522,19.0074
85.3891,18.9861
85.4374,18.9355
85.4506,18.8669
85.4246,18.8020
85.4148,18.7910
84.8718,18.2480
84.8718,18.2480
84.8718,18.2480
84.8718,18.2480
84.8719,18.2480
84.9164,18.2157
84.9164,18.2157
84.9816,18.1825
85.0987,18.1228
85.2934,18.0595
85.2934,18.0595
85.4954,18.0275
85.4955,18.0275
85.7001,18.0275
85.7001,18.0275
85.9022,18.0595
85.9022,18.0595
85.9022,18.0595
85.9774,18.0840
86.0968,18.1228
86.2791,18.2157
86.3237,18.2480
86.3237,18.2480
86.3237,18.2480
86.0010,18.5707
85.7807,18.7910
85.7472,18.8523
85.7522,18.9220
85.7941,18.9780
85.8064,18.9861
85.8434,19.0074
85.8434,19.0074
85.9178,19.0819
85.9179,19.0819
85.9392,19.1189
85.9898,19.1671
86.0584,19.1803
86.1232,19.1544
86.1343,19.1446
86.6772,18.6016
86.6772,18.6016
86.6772,18.6016
86.7096,18.6462
86.8025,18.8285
86.8186,18.8779
86.8658,19.0231
86.8658,19.0231
86.8658,19.0231
86.8978,19.2252
89.1973,19.2252
89.1973,19.2173
89.2318,18.9996
89.2999,18.7899
89.2999,18.7899
89.3345,18.7219
89.4000,18.5935
89.4000,18.5935
89.4165,18.5707
89.4165,18.5707
89.5295,18.4152
89.5295,18.4151
89.5295,18.4151
89.6854,18.2593
89.6854,18.2593
89.6854,18.2593
89.6854,18.2593
89.7009,18.2480
89.8531,18.1374
89.8532,18.1374
89.8637,18.1297
89.8637,18.1297
89.8637,18.1297
89.8698,18.1266
89.8698,18.1266
89.9535,18.0840
89.9535,18.0840
89.9535,18.0840
90.0602,18.0296
90.0602,18.0296
90.2698,17.9615
90.2698,17.9615
90.3787,17.9443
90.4875,17.9270
90.4875,17.9270
90.7080,17.9270
90.7080,17.9270
90.7661,17.9362
90.7806,17.9385
90.9257,17.9615
91.1353,18.0296
91.1354,18.0296
91.1354,18.0296
91.3318,18.1297
91.5101,18.2592
91.5101,18.2593
91.6660,18.4151
91.6660,18.4152
91.7956,18.5935
91.8957,18.7899
91.8957,18.7899
91.8957,18.7899
91.9638,18.9996
91.9983,19.2173
108.0011,19.2173
108.3651,19.0074
108.3880,18.9942
108.3880,18.9942
108.3880,18.9942
108.3880,18.9942
108.4157,18.9724
108.4287,18.9588
108.4595,18.9024
108.4620,18.8923
108.4655,18.8630
108.4655,15.7095
102.1978,15.7095
102.1978,15.9456
102.1614,16.1753
102.1608,16.1788
102.0995,16.3676
102.0879,16.4033
101.9807,16.6137
101.9807,16.6137
101.9245,16.6910
101.9204,16.6966
101.9204,16.6966
101.3441,16.1203
101.2828,16.0868
101.2131,16.0918
101.1571,16.1336
101.1490,16.1459
101.1379,16.1652
101.1379,16.1652
101.0355,16.2676
101.0355,16.2676
101.0355,16.2676
101.0162,16.2787
100.9680,16.3293
100.9548,16.3979
100.9807,16.4628
100.9905,16.4738
101.5669,17.0502
101.5669,17.0502
101.5669,17.0502
101.4839,17.1104
101.2736,17.2176
101.1420,17.2604
101.1125,17.2805
101.0490,17.2906
101.0490,17.2906
101.0490,17.2906
100.8158,17.3275
100.5797,17.3275
100.5797,17.3275
100.3465,17.2906
100.1220,17.2176
99.9116,17.1104
99.9116,17.1104
99.8613,17.0739
99.8345,17.0643
99.8287,17.0502
100.4050,16.4738
100.4385,16.4125
100.4335,16.3428
100.3916,16.2869
100.3793,16.2788
100.3601,16.2676
100.2577,16.1652
100.2465,16.1459
100.1960,16.0977
100.1274,16.0845
100.0625,16.1105
100.0515,16.1203
99.4751,16.6966
99.4751,16.6966
99.4751,16.6966
99.4751,16.6966
99.4616,16.6910
99.4554,16.6699
99.4514,16.6640
99.4282,16.6320
99.4149,16.6137
99.4149,16.6137
99.3077,16.4033
99.2347,16.1788
99.1978,15.9456
99.1978,15.7095
99.1978,15.7095
99.1978,15.7094
99.1978,15.7090
99.1990,15.7015
97.7983,15.7015
97.7983,15.9535
97.7824,16.0535
97.7589,16.2023
97.7589,16.2023
97.7051,16.3676
97.6810,16.4419
97.5666,16.6664
97.5666,16.6664
97.4940,16.7664
97.4186,16.8702
97.4186,16.8702
97.4186,16.8702
97.2404,17.0483
97.2404,17.0483
97.2404,17.0483
97.2404,17.0483
97.1028,17.1483
97.0366,17.1964
96.8936,17.2693
96.8936,17.2693
96.8693,17.2816
96.8150,17.3093
96.8113,17.3112
96.8075,17.3123
96.6594,17.3604
96.5726,17.3886
96.3237,17.4280
96.3237,17.4280
96.0718,17.4280
96.0718,17.4280
95.8230,17.3886
95.5834,17.3108
95.3589,17.1964
95.1551,17.0483
94.9770,16.8702
94.8289,16.6664
94.7145,16.4419
94.6367,16.2023
94.5973,15.9535
94.5973,15.7095
67.1978,15.7095
67.1978,15.9456
67.1614,16.1753
67.1608,16.1788
67.0995,16.3676
67.0879,16.4033
66.9807,16.6137
66.9807,16.6137
66.9245,16.6910
66.9204,16.6966
66.9204,16.6966
66.3441,16.1203
66.2828,16.0868
66.2131,16.0918
66.1571,16.1336
66.1490,16.1459
66.1379,16.1652
66.1379,16.1652
66.0355,16.2676
66.0355,16.2676
66.0355,16.2676
66.0162,16.2787
65.9680,16.3293
65.9548,16.3979
65.9807,16.4628
65.9905,16.4738
66.5669,17.0502
66.5669,17.0502
66.5669,17.0502
66.4839,17.1104
66.2736,17.2176
66.1420,17.2604
66.1125,17.2805
66.0490,17.2906
66.0490,17.2906
66.0490,17.2906
65.8158,17.3275
65.5797,17.3275
65.5797,17.3275
65.3465,17.2906
65.1220,17.2176
64.9116,17.1104
64.9116,17.1104
64.8613,17.0739
64.8345,17.0643
64.8287,17.0502
65.4050,16.4738
65.4385,16.4125
65.4335,16.3428
65.3916,16.2869
65.3793,16.2788
65.3601,16.2676
65.2577,16.1652
65.2465,16.1459
65.1960,16.0977
65.1274,16.0845
65.0625,16.1105
65.0515,16.1203
64.4751,16.6966
64.4751,16.6966
64.4751,16.6966
64.4751,16.6966
64.4616,16.6910
64.4554,16.6699
64.4514,16.6640
64.4282,16.6320
64.4149,16.6137
64.4149,16.6137
64.3077,16.4033
64.2347,16.1788
64.1978,15.9456
64.1978,15.7095
64.1978,15.7095
64.1978,15.7094
64.1978,15.7090
64.1990,15.7015
62.7983,15.7015
62.7983,15.9535
62.7824,16.0535
62.7589,16.2023
62.7589,16.2023
62.7051,16.3676
62.6810,16.4419
62.5666,16.6664
62.5666,16.6664
62.4940,16.7664
62.4186,16.8702
62.4186,16.8702
62.4186,16.8702
62.2404,17.0483
62.2404,17.0483
62.2404,17.0483
62.2404,17.0483
62.1028,17.1483
62.0366,17.1964
61.8936,17.2693
61.8936,17.2693
61.8693,17.2816
61.8150,17.3093
61.8113,17.3112
61.8075,17.3123
61.5726,17.3886
61.5726,17.3886
61.3651,17.4215
61.3441,17.4264
61.2599,17.4347
61.2581,17.4350
61.2277,17.4483
61.1969,17.4608
61.1958,17.4623
61.1941,17.4630
61.1757,17.4907
61.1565,17.5179
61.1557,17.5208
61.1554,17.5212
61.1554,17.5218
61.1527,17.5316
61.1511,17.5390
61.1483,17.5653
61.1483,21.2849
61.1563,21.3287
61.5915,22.4800
61.5915,22.4800
61.5939,22.4864
61.5957,22.4899
61.5957,22.4899
61.5985,22.4986
61.5995,22.5013
61.6098,22.5285
61.6253,22.5696
61.6285,22.5785
61.6318,22.5875
61.6320,22.5882
61.6320,22.5882
61.6471,22.6474
61.6493,22.6550
61.6638,22.6995
61.6638,22.6996
61.6983,22.9173
61.6983,23.1377
61.6638,23.3555
61.5957,23.5651
61.5957,23.5651
61.5957,23.5651
61.5276,23.6986
61.4997,23.7534
61.4997,23.7534
61.4956,23.7615
61.4956,23.7615
61.3802,23.9204
61.3660,23.9399
61.3660,23.9399
61.3660,23.9399
61.2101,24.0957
61.2101,24.0958
61.2101,24.0958
61.0609,24.2042
61.0609,24.2042
61.0546,24.2088
61.0318,24.2253
60.9034,24.2907
60.8354,24.3254
60.8354,24.3254
60.8353,24.3254
60.8353,24.3254
60.7305,24.3595
60.6257,24.3935
60.4080,24.4280
60.4080,24.4280
60.1875,24.4280
60.1875,24.4280
59.9698,24.3935
59.7602,24.3254
59.5637,24.2253
59.3854,24.0958
59.2295,23.9399
59.1000,23.7615
58.9999,23.5651
58.9318,23.3555
58.8973,23.1377
58.8973,22.9173
58.9318,22.6996
58.9604,22.6113
58.9702,22.5696
58.9970,22.4986
58.9984,22.4945
58.9996,22.4901
59.0041,22.4800
59.0192,22.4399
59.2490,21.8319
59.4393,21.3287
59.4473,21.2849
59.4473,17.4843
59.4462,17.4681
59.4423,17.4382
59.4423,17.4382
59.4423,16.7298
59.4467,16.6852
59.4471,16.6795
59.4473,16.6763
59.4473,16.6437
59.4473,16.6437
59.4675,16.5419
59.4800,16.4794
59.4935,16.4467
59.5002,16.4305
59.5251,16.3705
59.5251,16.3705
59.5339,16.3353
59.5989,15.6812
59.6115,15.6046
59.6115,15.6046
59.6126,15.6006
59.6153,15.5880
59.6171,15.5763
59.6367,15.4527
59.7002,15.2571
59.7119,15.2212
59.7119,15.2212
59.7145,15.2131
59.7145,15.2131
59.7145,15.2131
59.7168,15.2087
59.7171,15.2079
59.7178,15.2067
59.7802,15.0843
59.8289,14.9887
59.9036,14.8858
59.9770,14.7849
59.9770,14.7849
59.9770,14.7849
59.9770,14.7848
60.1551,14.6067
60.1551,14.6067
60.1551,14.6067
60.1551,14.6067
60.3589,14.4586
60.3589,14.4586
60.3589,14.4586
60.3871,14.4443
60.4290,14.4229
60.5834,14.3443
60.5834,14.3443
60.5834,14.3443
60.6673,14.3170
60.8230,14.2664
60.9889,14.2401
61.0718,14.2270
61.0718,14.2270
61.3237,14.2270
61.3237,14.2270
61.4067,14.2401
61.5726,14.2664
61.5726,14.2664
61.8121,14.3443
61.8122,14.3443
61.9110,14.3947
62.0366,14.4586
62.2404,14.6067
62.2404,14.6067
62.4186,14.7848
62.4186,14.7849
62.5666,14.9887
62.6810,15.2131
62.7589,15.4527
62.7772,15.5682
62.7792,15.5814
62.7934,15.6705
62.7983,15.7015
64.1990,15.7015
64.2347,15.4763
64.3077,15.2517
64.4149,15.0413
64.4514,14.9910
64.4610,14.9643
64.4751,14.9584
65.0515,15.5348
65.1128,15.5682
65.1825,15.5633
65.2384,15.5214
65.2465,15.5091
65.2577,15.4898
65.2577,15.4898
65.3601,15.3874
65.3793,15.3763
65.4276,15.3257
65.4408,15.2571
65.4148,15.1922
65.4050,15.1812
64.8287,14.6049
64.8287,14.6048
64.8923,14.5586
64.9116,14.5446
64.9116,14.5446
65.1220,14.4374
65.1914,14.4149
65.2536,14.3947
65.2830,14.3745
65.5797,14.3275
65.5797,14.3275
65.8158,14.3275
65.8158,14.3275
66.0490,14.3644
66.2736,14.4374
66.4839,14.5446
66.5669,14.6048
66.5669,14.6049
65.9905,15.1812
65.9570,15.2425
65.9620,15.3122
66.0039,15.3682
66.0162,15.3763
66.0355,15.3874
66.0355,15.3874
66.1379,15.4898
66.1379,15.4898
66.1490,15.5091
66.1996,15.5573
66.2682,15.5705
66.3330,15.5445
66.3441,15.5348
66.9204,14.9584
66.9204,14.9584
66.9807,15.0413
67.0879,15.2517
67.1608,15.4763
67.1978,15.7095
94.5973,15.7095
94.5973,15.7015
94.6367,15.4527
94.6367,15.4527
94.6367,15.4527
94.7119,15.2212
94.7119,15.2212
94.7145,15.2131
94.7145,15.2131
94.7145,15.2131
94.7168,15.2087
94.7171,15.2079
94.7178,15.2067
94.7802,15.0843
94.8289,14.9887
94.9036,14.8858
94.9770,14.7849
94.9770,14.7849
94.9770,14.7849
94.9770,14.7848
95.1551,14.6067
95.1551,14.6067
95.1551,14.6067
95.1551,14.6067
95.3589,14.4586
95.3589,14.4586
95.3589,14.4586
95.3871,14.4443
95.4290,14.4229
95.5834,14.3443
95.5834,14.3443
95.5834,14.3443
95.6673,14.3170
95.8230,14.2664
95.9889,14.2401
96.0718,14.2270
96.0718,14.2270
96.3237,14.2270
96.3237,14.2270
96.4067,14.2401
96.5726,14.2664
96.5726,14.2664
96.8121,14.3443
96.8122,14.3443
96.9110,14.3947
97.0366,14.4586
97.2404,14.6067
97.2404,14.6067
97.4186,14.7848
97.4186,14.7849
97.5666,14.9887
97.6810,15.2131
97.7589,15.4527
97.7772,15.5682
97.7792,15.5814
97.7934,15.6705
97.7983,15.7015
99.1990,15.7015
99.2347,15.4763
99.3077,15.2517
99.4149,15.0413
99.4514,14.9910
99.4610,14.9643
99.4751,14.9584
100.0515,15.5348
100.1128,15.5682
100.1825,15.5633
100.2384,15.5214
100.2465,15.5091
100.2577,15.4898
100.2577,15.4898
100.3601,15.3874
100.3793,15.3763
100.4276,15.3257
100.4408,15.2571
100.4148,15.1922
100.4050,15.1812
99.8287,14.6049
99.8287,14.6048
99.8923,14.5586
99.9116,14.5446
99.9116,14.5446
100.1220,14.4374
100.1914,14.4149
100.2536,14.3947
100.2830,14.3745
100.5797,14.3275
100.5797,14.3275
100.8158,14.3275
100.8158,14.3275
101.0490,14.3644
101.2736,14.4374
101.4839,14.5446
101.5669,14.6048
101.5669,14.6049
100.9905,15.1812
100.9570,15.2425
100.9620,15.3122
101.0039,15.3682
101.0162,15.3763
101.0355,15.3874
101.0355,15.3874
101.1379,15.4898
101.1379,15.4898
101.1490,15.5091
101.1996,15.5573
101.2682,15.5705
101.3330,15.5445
101.3441,15.5348
101.9204,14.9584
101.9204,14.9584
101.9807,15.0413
102.0879,15.2517
102.1608,15.4763
102.1978,15.7095
108.4655,15.7095
108.4655,11.2694
57.8983,11.2694
57.8983,11.5056
57.8824,11.6056
57.8613,11.7389
57.7883,11.9635
57.6811,12.1739
57.5803,12.3127
57.5753,12.3221
57.5638,12.3439
57.5586,12.3586
57.5546,12.4284
57.5546,12.4284
57.5552,12.4310
57.5823,12.4842
57.5864,12.4889
57.6046,12.5060
57.7260,12.5992
57.7260,12.5992
57.8135,12.7132
57.8223,12.7247
57.8811,12.8667
57.8825,12.8696
57.8828,12.8707
57.8983,12.9881
57.8983,12.9881
57.8983,14.8669
57.8828,14.9843
57.8828,14.9843
57.8828,14.9843
57.8828,14.9843
57.8414,15.0843
57.8223,15.1304
57.7261,15.2558
57.7261,15.2558
57.6006,15.3520
57.4545,15.4126
57.3371,15.4280
55.5220,15.4280
55.5160,15.4290
55.5064,15.4280
55.4584,15.4280
55.4584,15.4280
55.4584,15.4280
55.3491,15.4136
55.3478,15.4134
55.3410,15.4126
55.3410,15.4126
55.3410,15.4126
55.3410,15.4126
55.3370,15.4109
55.3370,15.4109
55.3045,15.3974
55.2935,15.3935
55.2743,15.3876
55.2587,15.3791
55.2473,15.3737
55.1949,15.3520
55.1709,15.3336
55.1543,15.3228
55.1352,15.3125
54.4276,14.8015
54.3617,14.7782
54.3550,14.7780
47.9192,14.7780
47.8903,14.7822
47.8843,14.7830
47.8591,14.7904
47.8063,14.8217
40.8972,21.7309
40.8760,21.7591
40.8634,21.7822
40.8483,21.8416
40.8483,28.7043
40.8571,28.7502
41.1922,29.5914
41.2353,29.6464
41.3013,29.6694
41.3692,29.6530
41.3950,29.6332
41.5203,29.5080
41.5203,29.5080
41.7113,29.3692
41.7440,29.3525
41.9218,29.2619
42.1464,29.1890
42.1464,29.1890
42.3797,29.1520
42.3797,29.1520
42.3797,29.1520
42.6159,29.1520
42.6159,29.1520
42.6159,29.1520
42.8491,29.1890
42.8491,29.1890
42.8491,29.1890
43.0738,29.2619
43.1169,29.2839
43.2842,29.3692
43.3688,29.4306
43.3688,29.4306
43.4634,29.4994
43.4708,29.5035
43.6423,29.6750
43.6423,29.6750
43.6991,29.7532
43.6991,29.7532
43.6991,29.7532
43.7237,29.7785
43.7347,29.7870
43.7998,29.8123
43.8683,29.7984
43.8744,29.7952
43.9169,29.7584
43.9299,29.7405
44.0060,29.6644
44.0857,29.5847
44.2640,29.4551
44.2883,29.4428
44.4604,29.3551
44.4604,29.3551
44.6699,29.2870
44.7478,29.2747
44.7478,30.1411
44.7675,30.2082
44.8203,30.2539
44.8894,30.2639
44.9039,30.2609
44.9352,30.2525
44.9352,30.2525
45.0603,30.2525
45.0603,30.2525
45.0917,30.2609
45.1615,30.2593
45.2194,30.2201
45.2469,30.1559
45.2478,30.1411
45.2478,29.2747
45.2478,29.2747
45.3160,29.2855
45.3160,29.2855
45.3160,29.2855
45.3256,29.2870
45.5352,29.3551
45.7315,29.4551
45.8238,29.5221
45.9098,29.5847
45.9098,29.5847
45.9098,29.5847
46.0656,29.7405
46.0656,29.7405
46.0656,29.7405
46.0853,29.7676
46.1952,29.9187
46.2952,30.1151
46.3633,30.3247
46.3648,30.3343
46.3648,30.3343
46.3648,30.3343
46.3776,30.4152
46.3875,30.4775
45.5841,30.4775
45.5171,30.4972
45.4713,30.5500
45.4614,30.6192
45.4644,30.6336
45.4728,30.6650
45.4728,30.7900
45.4644,30.8214
45.4660,30.8913
45.5052,30.9491
45.5694,30.9766
45.5841,30.9775
46.3875,30.9775
46.3648,31.1207
46.3648,31.1207
46.3633,31.1304
46.3254,31.2468
46.2952,31.3399
46.1952,31.5363
46.0656,31.7146
45.9098,31.8704
45.7315,31.9999
45.6352,32.0490
45.5352,32.0999
45.5352,32.0999
45.4488,32.1280
45.3256,32.1680
45.2852,32.1744
45.2478,32.1804
45.2478,32.1804
45.2478,32.1804
45.2478,31.3139
45.2281,31.2468
45.1753,31.2011
45.1061,31.1911
45.0917,31.1941
45.0603,31.2025
44.9352,31.2025
44.9352,31.2025
44.9039,31.1941
44.8340,31.1958
44.7762,31.2349
44.7486,31.2992
44.7478,31.3139
44.7478,32.1804
44.7478,32.1804
44.6796,32.1696
44.6796,32.1696
44.6699,32.1680
44.6699,32.1680
44.4604,32.0999
44.2640,31.9999
44.0857,31.8704
43.9299,31.7145
43.9207,31.7018
43.8961,31.6765
43.8851,31.6681
43.8200,31.6427
43.7515,31.6566
43.7453,31.6598
43.7029,31.6966
43.6423,31.7800
43.4753,31.9470
43.2842,32.0859
43.2015,32.1280
43.0738,32.1931
43.0729,32.1935
43.0691,32.1946
43.0214,32.2101
42.9534,32.2322
42.9534,32.2322
42.9534,32.2322
42.8491,32.2661
42.6159,32.3030
42.6159,32.3030
42.3797,32.3030
42.3797,32.3030
42.1464,32.2661
41.9218,32.1931
41.7113,32.0859
41.5203,31.9470
41.3533,31.7800
41.3533,31.7800
41.3498,31.7766
41.3497,31.7767
41.3352,31.7630
41.3304,31.7593
41.3230,31.7536
41.2579,31.7282
41.1894,31.7421
41.1894,31.7421
41.1832,31.7453
41.1465,31.7772
41.1454,31.7763
41.1423,31.7800
41.1423,31.7800
40.9753,31.9470
40.7842,32.0859
40.7015,32.1280
40.5738,32.1931
40.5729,32.1935
40.5691,32.1946
40.5214,32.2101
40.4534,32.2322
40.4534,32.2322
40.4534,32.2322
40.3491,32.2661
40.1159,32.3030
40.1159,32.3030
39.8797,32.3030
39.8797,32.3030
39.6464,32.2661
39.4218,32.1931
39.2113,32.0859
39.0203,31.9470
38.8533,31.7800
38.8533,31.7800
38.8498,31.7766
38.8497,31.7767
38.8352,31.7630
38.8304,31.7593
38.8230,31.7536
38.7579,31.7282
38.6894,31.7421
38.6894,31.7421
38.6832,31.7453
38.6465,31.7772
38.6454,31.7763
38.6423,31.7800
38.6423,31.7800
38.4753,31.9470
38.2842,32.0859
38.2015,32.1280
38.0738,32.1931
38.0729,32.1935
38.0691,32.1946
38.0214,32.2101
37.9534,32.2322
37.9534,32.2322
37.9534,32.2322
37.8491,32.2661
37.6159,32.3030
37.6159,32.3030
37.3797,32.3030
37.3797,32.3030
37.1464,32.2661
36.9218,32.1931
36.7113,32.0859
36.5203,31.9470
36.3533,31.7800
36.3533,31.7800
36.3498,31.7766
36.3497,31.7767
36.3352,31.7630
36.3304,31.7593
36.3230,31.7536
36.2579,31.7282
36.1894,31.7421
36.1894,31.7421
36.1832,31.7453
36.1465,31.7772
36.1454,31.7763
36.1423,31.7800
36.1423,31.7800
35.9753,31.9470
35.7842,32.0859
35.7015,32.1280
35.5738,32.1931
35.5729,32.1935
35.5691,32.1946
35.5214,32.2101
35.4534,32.2322
35.4534,32.2322
35.4534,32.2322
35.3491,32.2661
35.1159,32.3030
35.1159,32.3030
34.8797,32.3030
34.8797,32.3030
34.6464,32.2661
34.4218,32.1931
34.2113,32.0859
34.0203,31.9470
33.8533,31.7800
33.8533,31.7800
33.8498,31.7766
33.8497,31.7767
33.8352,31.7630
33.8304,31.7593
33.8230,31.7536
33.7579,31.7282
33.6894,31.7421
33.6894,31.7421
33.6832,31.7453
33.6465,31.7772
33.6454,31.7763
33.6423,31.7800
33.6423,31.7800
33.4753,31.9470
33.2842,32.0859
33.2015,32.1280
33.0738,32.1931
33.0729,32.1935
33.0691,32.1946
33.0214,32.2101
32.9534,32.2322
32.9534,32.2322
32.9534,32.2322
32.8491,32.2661
32.6159,32.3030
32.6159,32.3030
32.3797,32.3030
32.3797,32.3030
32.1464,32.2661
31.9218,32.1931
31.7113,32.0859
31.5203,31.9470
31.5203,31.9470
31.5163,31.9442
31.5161,31.9444
31.5007,31.9338
31.4862,31.9259
31.4179,31.9110
31.3542,31.9342
31.3439,31.9416
31.3198,31.9644
31.2913,31.9999
31.2485,32.0532
31.1018,32.1711
30.9332,32.2547
30.8102,32.2853
30.8102,32.2853
30.7945,32.2892
30.7506,32.3001
30.7506,32.3001
30.7506,32.3001
30.7506,32.3001
30.7502,32.3002
30.7496,32.3003
30.7464,32.3004
30.7083,32.3030
29.2872,32.3030
29.2450,32.3001
29.0624,32.2547
28.8938,32.1711
28.7471,32.0532
28.6292,31.9065
28.5456,31.7379
28.5001,31.5553
28.4973,31.5130
28.4973,31.2173
25.7983,31.2173
25.7983,31.4377
25.7638,31.6555
25.6957,31.8651
25.6957,31.8651
25.6957,31.8651
25.6305,31.9931
25.6290,31.9959
25.6290,31.9959
25.5998,32.0532
25.5956,32.0615
25.5956,32.0615
25.5092,32.1804
25.4660,32.2399
25.4660,32.2399
25.4660,32.2399
25.3101,32.3957
25.3101,32.3958
25.3101,32.3958
25.1609,32.5042
25.1609,32.5042
25.1546,32.5088
25.1318,32.5253
25.0034,32.5907
24.9354,32.6254
24.9354,32.6254
24.9353,32.6254
24.9353,32.6254
24.8305,32.6595
24.7257,32.6935
24.5080,32.7280
24.5080,32.7280
24.2875,32.7280
24.2875,32.7280
24.0698,32.6935
23.8602,32.6254
23.6637,32.5253
23.4854,32.3958
23.3295,32.2399
23.2000,32.0615
23.0999,31.8651
23.0318,31.6555
22.9973,31.4377
22.9973,31.2173
23.0318,30.9996
23.0999,30.7899
23.0999,30.7899
23.1345,30.7219
23.2000,30.5935
23.2000,30.5935
23.2000,30.5935
23.2272,30.5560
23.2272,30.5560
23.3295,30.4152
23.3295,30.4151
23.3295,30.4151
23.4854,30.2593
23.4854,30.2593
23.4854,30.2593
23.4854,30.2593
23.5276,30.2286
23.6531,30.1374
23.6532,30.1374
23.6637,30.1297
23.6637,30.1297
23.6637,30.1297
23.6699,30.1266
23.6699,30.1266
23.7077,30.1073
23.7078,30.1072
23.7165,30.1028
23.7165,30.1028
23.8602,30.0296
23.8602,30.0296
23.9624,29.9964
5.9983,29.9964
5.9983,30.2586
5.9942,30.2894
5.9866,30.3474
5.9640,30.5186
5.9042,30.7419
5.8962,30.7719
5.8962,30.7719
5.8467,30.8913
5.7958,31.0142
5.7958,31.0142
5.6647,31.2413
5.5050,31.4494
5.5050,31.4494
5.3196,31.6348
5.3196,31.6348
5.2719,31.6714
5.1116,31.7944
4.8845,31.9255
4.8845,31.9255
4.8845,31.9256
4.8845,31.9256
4.6422,32.0259
4.6422,32.0259
4.3889,32.0938
4.1289,32.1280
4.1289,32.1280
3.8667,32.1280
3.8666,32.1280
3.6067,32.0938
3.3533,32.0259
3.1493,31.9414
3.1111,31.9256
3.1111,31.9256
3.1111,31.9256
2.8840,31.7944
2.6759,31.6348
2.6759,31.6348
2.6759,31.6348
2.5941,31.5530
2.4953,31.4542
2.4946,31.4535
2.4910,31.4499
2.4905,31.4494
2.4905,31.4494
2.4905,31.4494
2.4905,31.4494
2.4905,31.4494
2.4904,31.4492
2.4901,31.4489
2.4901,31.4489
2.4867,31.4445
2.4862,31.4438
2.3308,31.2413
2.1997,31.0142
2.0994,30.7719
2.0315,30.5186
1.9973,30.2586
1.9973,29.9964
2.0315,29.7364
2.0994,29.4831
2.1118,29.4531
2.1997,29.2408
2.1997,29.2408
2.2170,29.2108
2.2645,29.1286
2.3308,29.0137
2.3308,29.0137
2.3308,29.0137
2.3904,28.9361
2.4533,28.8541
2.4905,28.8057
2.4905,28.8057
2.4905,28.8057
2.4918,28.8044
2.4918,28.8044
2.6759,28.6202
2.6759,28.6202
2.8840,28.4606
3.1111,28.3295
3.1111,28.3295
3.3493,28.2308
3.3493,28.2308
3.3533,28.2291
3.5448,28.1778
3.6067,28.1612
3.6644,28.1536
3.8666,28.1270
3.8666,28.1270
3.8666,28.1270
4.1289,28.1270
4.1289,28.1270
4.1289,28.1270
4.3600,28.1574
4.3600,28.1574
4.3889,28.1612
4.3889,28.1612
4.5302,28.1991
4.6422,28.2291
4.8845,28.3295
4.8845,28.3295
5.1116,28.4606
5.3196,28.6202
5.3196,28.6202
5.5050,28.8057
5.5051,28.8057
5.6647,29.0137
5.7958,29.2408
5.7958,29.2408
5.8962,29.4831
5.9620,29.7286
5.9620,29.7286
5.9640,29.7364
5.9640,29.7364
5.9983,29.9964
23.9624,29.9964
24.0698,29.9615
24.0698,29.9615
24.1787,29.9443
24.2875,29.9270
24.2875,29.9270
24.5080,29.9270
24.5080,29.9270
24.5661,29.9362
24.5806,29.9385
24.7257,29.9615
24.9353,30.0296
24.9354,30.0296
24.9354,30.0296
25.1318,30.1297
25.3101,30.2592
25.3101,30.2593
25.4660,30.4151
25.4660,30.4151
25.4660,30.4151
25.4660,30.4152
25.4837,30.4394
25.5956,30.5935
25.6957,30.7899
25.6957,30.7899
25.6957,30.7899
25.7638,30.9996
25.7983,31.2173
28.4973,31.2173
28.4973,31.0142
28.4973,30.6650
28.4973,29.9420
28.4973,29.9420
28.5001,29.8997
28.5001,29.8997
28.5001,29.8997
28.5001,29.8997
28.5002,29.8992
28.5007,29.8967
28.5015,29.8926
28.5038,29.8634
28.5036,29.8590
28.5032,29.8503
28.4957,29.8280
28.4952,29.8230
28.4930,29.8202
28.4808,29.7841
28.4261,29.7406
28.4176,29.7372
28.3709,29.7280
28.2992,29.7280
28.1491,29.6981
28.1491,29.6981
28.1382,29.6960
28.1059,29.6896
27.9651,29.6312
27.9239,29.6141
27.9239,29.6141
27.9239,29.6141
27.7600,29.5046
27.6206,29.3653
27.5111,29.2014
27.5107,29.2003
27.4907,29.1520
27.4357,29.0193
27.4207,28.9437
27.4009,28.8444
27.3973,28.8261
27.3973,28.6290
27.4360,28.4345
27.4380,28.4301
27.4877,28.3102
27.4921,28.2995
27.5111,28.2536
27.5111,28.2536
27.6206,28.0897
27.6206,28.0897
27.6206,28.0897
27.7600,27.9504
27.7600,27.9504
27.7600,27.9504
27.9238,27.8409
27.9238,27.8409
27.9238,27.8409
27.9239,27.8409
27.9239,27.8409
28.1059,27.7655
28.1059,27.7655
28.1059,27.7655
28.1059,27.7655
28.1059,27.7655
28.1059,27.7655
28.2992,27.7270
28.2992,27.7270
28.2992,27.7270
28.4963,27.7270
28.4963,27.7270
28.4963,27.7270
28.6896,27.7655
28.6896,27.7655
28.6896,27.7655
28.6896,27.7655
28.6896,27.7655
28.8717,27.8409
28.8717,27.8409
28.8717,27.8409
29.0356,27.9504
29.0356,27.9504
29.0356,27.9504
29.1749,28.0897
29.1749,28.0897
29.1749,28.0897
29.2844,28.2536
29.2844,28.2536
29.2844,28.2536
29.3598,28.4356
29.3598,28.4357
29.3983,28.6290
29.3983,28.6290
29.3983,28.8261
29.3983,28.8261
29.3983,28.8261
29.3664,28.9863
29.3645,29.0216
29.3657,29.0354
29.3913,29.1004
29.4480,29.1413
29.4584,29.1449
29.4996,29.1520
30.7083,29.1520
30.7087,29.1520
30.7464,29.1546
30.7489,29.1547
30.7506,29.1549
30.9332,29.2003
31.1018,29.2839
31.1018,29.2839
31.1018,29.2839
31.2419,29.3966
31.2485,29.4018
31.3191,29.4897
31.3449,29.5138
31.3569,29.5221
31.4232,29.5443
31.4890,29.5282
31.5015,29.5211
31.5162,29.5107
31.5163,29.5109
31.5203,29.5080
31.5203,29.5080
31.7113,29.3692
31.7440,29.3525
31.9218,29.2619
32.1464,29.1890
32.1464,29.1890
32.3797,29.1520
32.3797,29.1520
32.3797,29.1520
32.6159,29.1520
32.6159,29.1520
32.6159,29.1520
32.8491,29.1890
32.8491,29.1890
32.8491,29.1890
33.0738,29.2619
33.1169,29.2839
33.2842,29.3692
33.3688,29.4306
33.3688,29.4306
33.4634,29.4994
33.4708,29.5035
33.6172,29.6499
33.6785,29.6834
33.7482,29.6784
33.8041,29.6365
33.8178,29.6133
33.8277,29.5914
33.9579,29.3040
33.9676,29.2348
33.9384,29.1713
33.9326,29.1652
31.4944,26.7269
31.4662,26.7058
31.4431,26.6932
31.3836,26.6780
28.4099,26.6780
28.4020,26.6756
28.3592,26.6671
28.2497,26.6453
28.2497,26.6453
28.2497,26.6453
28.2497,26.6453
28.2482,26.6448
28.2456,26.6437
28.2044,26.6266
28.2044,26.6265
28.2044,26.6265
28.0949,26.5812
27.9556,26.4881
27.7950,26.3275
27.6927,26.2252
25.6978,26.2252
25.6978,26.4298
25.6738,26.5812
25.6658,26.6319
25.6025,26.8265
25.5834,26.8640
25.5096,27.0089
25.5096,27.0089
25.4773,27.0534
25.4772,27.0534
25.4772,27.0534
25.4772,27.0534
24.9343,26.5105
24.8729,26.4770
24.8033,26.4820
24.7473,26.5238
24.7392,26.5361
24.7178,26.5731
24.6434,26.6476
24.6434,26.6476
24.6434,26.6476
24.6064,26.6689
24.5582,26.7195
24.5450,26.7881
24.5709,26.8530
24.5807,26.8640
25.1237,27.4070
25.1237,27.4070
25.1237,27.4070
25.0791,27.4394
24.9930,27.4833
24.8968,27.5323
24.8968,27.5323
24.8968,27.5323
24.7022,27.5955
24.5001,27.6275
24.2955,27.6275
24.2955,27.6275
24.0934,27.5955
23.8987,27.5323
23.7164,27.4394
23.6718,27.4070
24.2148,26.8640
24.2483,26.8027
24.2433,26.7330
24.2015,26.6771
24.1891,26.6689
24.1522,26.6476
24.0777,26.5731
24.0563,26.5361
24.0058,26.4879
23.9372,26.4747
23.8723,26.5007
23.8613,26.5105
23.3183,27.0534
23.3183,27.0534
23.2859,27.0089
23.1930,26.8265
23.1298,26.6319
23.0978,26.4298
23.0978,26.2252
23.1298,26.0231
23.1930,25.8285
23.1930,25.8285
23.1930,25.8285
23.2859,25.6462
23.2946,25.6342
23.3042,25.6074
23.3183,25.6016
23.8613,26.1446
23.9226,26.1780
23.9923,26.1731
24.0482,26.1312
24.0563,26.1189
24.0777,26.0819
24.1522,26.0074
24.1891,25.9861
24.2374,25.9355
24.2506,25.8669
24.2246,25.8020
24.2148,25.7910
23.6718,25.2480
23.6718,25.2480
23.6718,25.2480
23.6718,25.2480
23.6719,25.2480
23.7164,25.2157
23.7164,25.2157
23.8121,25.1669
23.8987,25.1228
24.0934,25.0595
24.0934,25.0595
24.2954,25.0275
24.2955,25.0275
24.5001,25.0275
24.5001,25.0275
24.7022,25.0595
24.7022,25.0595
24.7022,25.0595
24.7995,25.0911
24.8968,25.1228
25.0791,25.2157
25.1237,25.2480
25.1237,25.2480
24.5807,25.7910
24.5472,25.8523
24.5522,25.9220
24.5941,25.9780
24.6064,25.9861
24.6434,26.0074
24.6434,26.0074
24.7178,26.0819
24.7179,26.0819
24.7392,26.1189
24.7898,26.1671
24.8584,26.1803
24.9232,26.1544
24.9343,26.1446
25.4772,25.6016
25.4772,25.6016
25.4772,25.6016
25.5096,25.6462
25.6025,25.8285
25.6329,25.9220
25.6658,26.0231
25.6658,26.0231
25.6658,26.0231
25.6978,26.2252
27.6927,26.2252
27.6001,26.1326
26.6751,25.2076
23.8371,22.3697
23.8371,22.3697
23.8371,22.3697
23.8371,22.3697
23.8371,22.3697
23.8345,22.3671
23.8127,22.3452
23.8003,22.3146
23.7441,22.2304
23.6963,22.1151
23.6800,22.0756
23.6473,21.9113
23.6473,16.6034
4.9300,16.6034
4.9300,16.6073
4.9300,16.8535
4.9278,16.8702
4.9094,17.0102
4.9094,17.0102
4.8489,17.1562
4.8489,17.1562
4.8489,17.1562
4.7527,17.2816
4.6273,17.3778
4.4812,17.4383
4.4712,17.4396
4.4447,17.4462
4.4410,17.4475
4.4327,17.4512
4.4285,17.4521
4.4205,17.4551
4.3990,17.4710
4.3755,17.4838
4.3359,17.5234
4.3147,17.5517
4.3003,17.5781
4.2862,17.6213
4.2844,17.6352
4.2844,17.6352
4.2239,17.7812
4.2239,17.7812
4.2206,17.7857
4.2189,17.7876
4.1277,17.9066
4.0023,18.0028
3.8562,18.0633
3.7074,18.0829
3.6995,18.0840
3.6995,18.0840
3.6995,18.0840
3.4495,18.0840
3.4495,18.0840
3.2928,18.0633
3.1468,18.0028
3.0213,17.9066
2.9251,17.7812
2.8646,17.6352
2.8633,17.6252
2.8568,17.5987
2.8554,17.5949
2.8517,17.5866
2.8508,17.5824
2.8479,17.5744
2.8320,17.5529
2.8192,17.5295
2.7795,17.4898
2.7513,17.4687
2.7249,17.4543
2.6816,17.4401
2.6678,17.4383
2.5218,17.3778
2.3963,17.2816
2.3001,17.1562
2.2396,17.0102
2.2190,16.8535
2.2190,16.6035
2.2396,16.4467
2.2913,16.3221
2.3001,16.3007
2.3001,16.3007
2.3001,16.3007
2.3963,16.1753
2.5218,16.0791
2.5218,16.0791
2.5218,16.0791
2.6166,16.0398
2.6678,16.0186
2.6778,16.0173
2.7043,16.0107
2.7081,16.0094
2.7163,16.0057
2.7205,16.0048
2.7285,16.0018
2.7500,15.9860
2.7735,15.9731
2.8131,15.9335
2.8343,15.9052
2.8487,15.8788
2.8628,15.8356
2.8646,15.8217
2.9144,15.7015
2.9251,15.6757
2.9251,15.6757
2.9251,15.6757
3.0213,15.5503
3.1468,15.4541
3.1468,15.4541
3.1468,15.4541
3.2470,15.4126
3.2494,15.4115
3.2494,15.4115
3.2928,15.3936
3.2928,15.3936
3.2928,15.3936
3.3124,15.3910
3.3124,15.3910
3.4495,15.3730
3.4495,15.3730
3.6995,15.3730
3.6995,15.3730
3.6995,15.3730
3.8092,15.3874
3.8366,15.3910
3.8482,15.3925
3.8522,15.3928
3.8562,15.3936
4.0022,15.4541
4.1277,15.5503
4.2239,15.6757
4.2844,15.8217
4.2844,15.8217
4.2857,15.8317
4.2922,15.8582
4.2936,15.8620
4.2973,15.8703
4.2982,15.8745
4.3011,15.8825
4.3170,15.9040
4.3298,15.9274
4.3695,15.9671
4.3977,15.9882
4.4241,16.0027
4.4674,16.0168
4.4812,16.0186
4.6272,16.0791
4.7527,16.1753
4.8489,16.3007
4.9094,16.4467
4.9102,16.4507
4.9104,16.4541
4.9104,16.4544
4.9104,16.4547
4.9300,16.6034
23.6473,16.6034
23.6473,16.0703
23.6276,16.0033
23.6238,15.9977
23.1127,15.2901
23.0954,15.2648
23.0885,15.2502
23.0732,15.2304
23.0341,15.1358
23.0275,15.1220
23.0260,15.1174
23.0226,15.1081
23.0127,15.0843
23.0049,15.0250
23.0011,15.0081
23.0011,14.9960
22.9973,14.9669
22.9973,13.0882
22.9973,13.0881
22.9973,13.0881
23.0117,12.9783
23.0118,12.9778
23.0117,12.9775
23.0119,12.9748
23.0121,12.9739
23.0126,12.9712
23.0127,12.9708
23.0541,12.8707
23.0732,12.8247
23.1695,12.6992
23.1695,12.6992
23.1695,12.6992
23.1764,12.6939
23.1772,12.6931
23.1789,12.6920
23.2254,12.6563
23.2254,12.6563
23.2868,12.6092
23.3114,12.5840
23.3206,12.5714
23.3443,12.5056
23.3444,12.5029
23.3335,12.4442
23.3309,12.4385
23.3184,12.4170
23.2144,12.2739
23.1072,12.0635
23.0342,11.8389
22.9973,11.6056
22.9973,11.3694
23.0342,11.1361
23.0693,11.0280
23.1072,10.9115
23.1072,10.9115
23.1072,10.9115
23.1095,10.9071
23.1098,10.9063
23.1105,10.9051
23.2060,10.7176
23.2060,10.7176
23.2144,10.7011
23.2448,10.6592
23.3533,10.5100
23.5203,10.3430
23.7113,10.2042
23.9218,10.0969
24.1464,10.0240
24.1464,10.0240
24.3797,9.9870
24.3797,9.9870
24.3797,9.9870
24.6159,9.9870
24.6159,9.9870
24.6159,9.9870
24.8491,10.0240
24.8491,10.0240
24.8491,10.0240
25.0738,10.0969
25.2054,10.1640
25.2842,10.2042
25.3932,10.2834
25.3932,10.2834
25.4634,10.3344
25.4708,10.3385
25.6468,10.5145
25.6509,10.5219
25.6684,10.5460
25.6701,10.5483
25.7811,10.7011
25.7811,10.7011
25.7811,10.7011
25.8200,10.7775
25.8883,10.9115
25.9613,11.1361
25.9613,11.1361
25.9613,11.1361
25.9983,11.3694
25.9983,11.6056
25.9613,11.8389
25.9613,11.8389
25.8883,12.0635
25.8321,12.1739
25.7811,12.2739
25.6803,12.4127
25.6638,12.4439
25.6607,12.4528
25.6586,12.4586
25.6546,12.5284
25.6546,12.5284
25.6552,12.5310
25.6823,12.5842
25.6864,12.5889
25.7046,12.6060
25.8260,12.6992
25.8261,12.6992
25.8456,12.7247
25.8456,12.7247
25.9223,12.8247
25.9759,12.9541
25.9759,12.9541
25.9828,12.9707
25.9828,12.9707
25.9942,13.0573
25.9946,13.0600
25.9946,13.0600
25.9983,13.0881
25.9983,13.0882
25.9983,13.0882
25.9983,14.9032
25.9992,14.9093
25.9983,14.9189
25.9983,14.9669
25.9828,15.0843
25.9828,15.0843
25.9828,15.0843
25.9828,15.0843
25.9810,15.0887
25.9677,15.1208
25.9677,15.1208
25.9655,15.1262
25.9578,15.1510
25.9464,15.1721
25.9294,15.2131
25.9223,15.2304
25.9039,15.2544
25.8931,15.2710
25.8828,15.2901
25.6931,15.5527
25.3717,15.9977
25.3485,16.0636
25.3483,16.0703
25.3483,21.4060
25.3483,21.4060
25.3483,21.4060
25.3533,21.4410
25.3607,21.4662
25.3920,21.5190
28.8011,24.9281
28.8294,24.9492
28.8525,24.9618
28.9119,24.9770
31.8815,24.9770
32.0458,25.0097
32.0459,25.0097
32.2006,25.0738
32.3399,25.1669
32.3399,25.1669
35.4542,28.2811
35.4664,28.2918
35.4903,28.3102
35.4903,28.3102
35.6010,28.4209
35.6011,28.4210
35.6295,28.4556
35.6377,28.4646
35.6584,28.4853
35.6584,28.4854
35.7515,28.6246
35.7515,28.6246
35.7515,28.6247
35.7945,28.7285
35.7945,28.7285
35.7968,28.7341
35.8156,28.7794
35.8156,28.7794
35.8261,28.8324
35.8279,28.8383
35.8296,28.8408
35.8336,28.8533
36.1777,29.6133
36.2233,29.6663
36.2903,29.6862
36.3574,29.6667
36.3784,29.6499
36.5203,29.5080
36.5203,29.5080
36.7113,29.3692
36.7440,29.3525
36.9218,29.2619
37.1464,29.1890
37.1464,29.1890
37.3797,29.1520
37.3797,29.1520
37.3797,29.1520
37.6159,29.1520
37.6159,29.1520
37.6159,29.1520
37.8491,29.1890
37.8491,29.1890
37.8491,29.1890
38.0738,29.2619
38.1169,29.2839
38.2842,29.3692
38.3688,29.4306
38.3688,29.4306
38.4634,29.4994
38.4708,29.5035
38.6005,29.6332
38.6618,29.6667
38.7315,29.6617
38.7874,29.6198
38.8034,29.5914
38.8243,29.5390
39.0335,29.0137
39.1385,28.7502
39.1473,28.7043
39.1473,21.4252
35.0978,21.4252
35.0978,21.6298
35.0736,21.7822
35.0658,21.8319
35.0025,22.0265
34.9573,22.1152
34.9096,22.2089
34.9096,22.2089
34.8773,22.2534
34.8772,22.2534
34.8772,22.2534
34.8772,22.2534
34.3343,21.7105
34.2729,21.6770
34.2033,21.6820
34.1473,21.7238
34.1392,21.7361
34.1178,21.7731
34.0434,21.8476
34.0434,21.8476
34.0434,21.8476
34.0064,21.8689
33.9582,21.9195
33.9450,21.9881
33.9709,22.0530
33.9807,22.0640
34.5237,22.6070
34.5237,22.6070
34.5237,22.6070
34.4791,22.6394
34.4034,22.6780
34.2968,22.7323
34.2968,22.7323
34.2968,22.7323
34.1022,22.7955
33.9001,22.8275
33.6955,22.8275
33.6955,22.8275
33.4934,22.7955
33.2987,22.7323
33.2851,22.7253
33.1164,22.6394
33.1164,22.6394
33.1164,22.6394
33.0718,22.6070
33.6148,22.0640
33.6483,22.0027
33.6433,21.9330
33.6015,21.8771
33.5891,21.8689
33.5522,21.8476
33.4777,21.7731
33.4563,21.7361
33.4058,21.6879
33.3372,21.6747
33.2723,21.7007
33.2613,21.7105
32.7183,22.2534
32.7183,22.2534
32.6859,22.2089
32.5930,22.0265
32.5298,21.8319
32.4978,21.6298
32.4978,21.4252
32.5298,21.2231
32.5930,21.0285
32.5930,21.0285
32.5930,21.0285
32.6859,20.8462
32.6946,20.8342
32.7042,20.8074
32.7183,20.8016
33.2613,21.3446
33.3226,21.3780
33.3923,21.3731
33.4482,21.3312
33.4563,21.3189
33.4777,21.2819
33.5522,21.2074
33.5891,21.1861
33.6374,21.1355
33.6506,21.0669
33.6246,21.0020
33.6148,20.9910
33.0718,20.4480
33.0718,20.4480
33.0718,20.4480
33.0718,20.4480
33.0719,20.4480
33.1164,20.4157
33.1164,20.4157
33.1816,20.3825
33.2987,20.3228
33.4934,20.2595
33.4934,20.2595
33.6954,20.2275
33.6955,20.2275
33.9001,20.2275
33.9001,20.2275
34.1022,20.2595
34.1022,20.2595
34.1022,20.2595
34.1995,20.2911
34.2968,20.3228
34.4791,20.4157
34.5237,20.4480
34.5237,20.4480
34.5237,20.4480
34.2437,20.7280
33.9807,20.9910
33.9472,21.0523
33.9522,21.1220
33.9941,21.1780
34.0064,21.1861
34.0434,21.2074
34.0434,21.2074
34.1178,21.2819
34.1179,21.2819
34.1392,21.3189
34.1898,21.3671
34.2584,21.3803
34.3232,21.3544
34.3343,21.3446
34.8772,20.8016
34.8772,20.8016
34.8772,20.8016
34.9096,20.8462
35.0025,21.0285
35.0294,21.1113
35.0658,21.2231
35.0658,21.2231
35.0658,21.2231
35.0978,21.4252
39.1473,21.4252
39.1473,21.4221
39.1473,21.3437
39.1473,21.3437
39.1800,21.1794
39.2237,21.0738
39.2441,21.0246
39.2441,21.0246
39.2441,21.0246
39.3371,20.8853
39.3371,20.8853
39.3371,20.8853
44.4130,15.8095
35.2978,15.8095
35.2978,16.0456
35.2626,16.2676
35.2608,16.2788
35.2038,16.4544
35.1879,16.5033
35.0807,16.7137
35.0807,16.7137
35.0204,16.7966
35.0204,16.7966
35.0204,16.7966
35.0204,16.7966
34.4441,16.2203
34.3828,16.1868
34.3131,16.1918
34.2571,16.2336
34.2490,16.2459
34.2379,16.2652
34.2379,16.2652
34.1355,16.3676
34.1355,16.3676
34.1355,16.3676
34.1162,16.3787
34.0680,16.4293
34.0548,16.4979
34.0807,16.5628
34.0905,16.5738
34.6669,17.1502
34.6669,17.1502
34.6669,17.1502
34.5839,17.2104
34.3736,17.3176
34.2420,17.3604
34.2125,17.3805
34.1490,17.3906
34.1490,17.3906
34.1490,17.3906
33.9158,17.4275
33.6797,17.4275
33.6797,17.4275
33.4465,17.3906
33.2220,17.3176
33.0116,17.2104
33.0116,17.2104
32.9613,17.1739
32.9345,17.1643
32.9287,17.1502
33.5050,16.5738
33.5385,16.5125
33.5335,16.4428
33.4916,16.3869
33.4793,16.3788
33.4601,16.3676
33.3577,16.2652
33.3465,16.2459
33.2960,16.1977
33.2274,16.1845
33.1625,16.2105
33.1515,16.2203
32.5751,16.7966
32.5751,16.7966
32.5751,16.7966
32.5751,16.7966
32.5616,16.7910
32.5554,16.7699
32.5514,16.7640
32.5437,16.7533
32.5149,16.7137
32.5148,16.7137
32.4077,16.5033
32.3347,16.2788
32.2990,16.0535
30.8983,16.0535
30.8784,16.1788
30.8589,16.3023
30.8589,16.3023
30.8095,16.4541
30.7810,16.5419
30.6666,16.7664
30.5186,16.9702
30.5186,16.9702
30.5186,16.9702
30.3404,17.1483
30.3404,17.1483
30.3404,17.1483
30.3404,17.1483
30.1627,17.2775
30.1366,17.2964
30.0184,17.3566
29.9121,17.4108
29.9121,17.4108
29.8032,17.4462
29.7558,17.4615
29.7509,17.4631
29.7509,17.4631
29.7509,17.4631
29.7509,17.4632
29.7192,17.4787
29.7063,17.4875
29.6950,17.5014
29.6932,17.5026
29.6924,17.5046
29.6621,17.5416
29.6581,17.5512
29.6483,17.5995
29.6483,19.7849
29.6563,19.8287
30.0915,20.9800
30.0915,20.9800
30.0939,20.9864
30.0957,20.9899
30.0957,20.9899
30.0985,20.9986
30.0995,21.0013
30.1083,21.0246
30.1253,21.0696
30.1268,21.0738
30.1318,21.0875
30.1320,21.0882
30.1320,21.0882
30.1471,21.1474
30.1493,21.1550
30.1638,21.1995
30.1638,21.1996
30.1866,21.3437
30.1983,21.4173
30.1983,21.6377
30.1815,21.7435
30.1638,21.8555
30.1638,21.8555
30.0957,22.0651
30.0957,22.0651
30.0957,22.0651
30.0276,22.1986
29.9997,22.2534
29.9997,22.2534
29.9956,22.2615
29.9956,22.2615
29.9170,22.3697
29.8660,22.4399
29.8660,22.4399
29.8660,22.4399
29.7101,22.5957
29.7101,22.5958
29.7101,22.5958
29.6289,22.6548
29.6289,22.6548
29.5318,22.7253
29.4328,22.7758
29.4207,22.7819
29.4034,22.7907
29.3354,22.8254
29.3354,22.8254
29.2305,22.8595
29.1257,22.8935
28.9080,22.9280
28.9080,22.9280
28.6875,22.9280
28.6875,22.9280
28.4698,22.8935
28.2602,22.8254
28.0637,22.7253
27.8854,22.5958
27.7295,22.4399
27.6000,22.2615
27.4999,22.0651
27.4318,21.8555
27.3973,21.6377
27.3973,21.4173
27.4318,21.1996
27.4604,21.1113
27.4702,21.0696
27.4970,20.9986
27.4984,20.9945
27.4996,20.9901
27.5041,20.9800
27.5399,20.8853
27.7838,20.2399
27.9393,19.8287
27.9473,19.7849
27.9473,16.8485
27.9426,16.8148
27.9323,16.7783
27.9235,16.7557
27.8145,16.5419
27.7367,16.3023
27.6973,16.0535
27.6973,15.8015
27.7367,15.5527
27.7367,15.5527
27.7367,15.5527
27.8119,15.3212
27.8145,15.3131
27.8145,15.3131
27.8145,15.3131
27.8168,15.3087
27.8171,15.3079
27.8178,15.3067
27.8567,15.2303
27.8817,15.1812
27.9289,15.0887
27.9321,15.0843
27.9509,15.0584
27.9509,15.0584
27.9633,15.0413
28.0235,14.9584
28.0770,14.8849
28.0770,14.8849
28.0770,14.8849
28.0770,14.8849
28.0770,14.8849
28.0770,14.8848
28.2551,14.7067
28.2551,14.7067
28.2551,14.7067
28.2551,14.7067
28.4589,14.5586
28.4589,14.5586
28.4589,14.5586
28.5290,14.5229
28.6552,14.4586
28.6834,14.4443
28.6834,14.4443
28.6834,14.4443
28.7673,14.4170
28.9230,14.3664
29.0628,14.3443
29.1718,14.3270
29.1718,14.3270
29.4237,14.3270
29.4237,14.3270
29.5327,14.3443
29.6726,14.3664
29.6726,14.3664
29.8910,14.4374
29.9122,14.4443
30.1091,14.5446
30.1366,14.5586
30.3404,14.7067
30.3404,14.7067
30.5186,14.8848
30.5186,14.8849
30.6666,15.0887
30.6666,15.0887
30.7810,15.3131
30.7810,15.3131
30.7810,15.3131
30.8589,15.5527
30.8589,15.5527
30.8683,15.6121
30.8983,15.8015
30.8983,16.0535
30.8983,16.0535
32.2990,16.0535
32.2978,16.0456
32.2978,15.8095
32.2978,15.8095
32.2978,15.8094
32.2978,15.8090
32.3347,15.5763
32.4077,15.3517
32.5149,15.1413
32.5514,15.0910
32.5610,15.0643
32.5751,15.0584
33.1515,15.6348
33.2128,15.6682
33.2825,15.6633
33.3384,15.6214
33.3465,15.6091
33.3577,15.5898
33.3577,15.5898
33.4601,15.4874
33.4793,15.4763
33.5276,15.4257
33.5408,15.3571
33.5148,15.2922
33.5050,15.2812
32.9287,14.7049
32.9287,14.7048
33.0116,14.6446
33.0154,14.6427
33.2220,14.5374
33.2914,14.5149
33.3536,14.4947
33.3830,14.4745
33.6797,14.4275
33.6797,14.4275
33.9158,14.4275
33.9158,14.4275
34.1490,14.4644
34.3736,14.5374
34.5839,14.6446
34.6669,14.7048
34.6669,14.7049
34.0905,15.2812
34.0570,15.3425
34.0620,15.4122
34.1039,15.4682
34.1162,15.4763
34.1355,15.4874
34.1355,15.4874
34.2379,15.5898
34.2379,15.5898
34.2490,15.6091
34.2996,15.6573
34.3682,15.6705
34.4330,15.6445
34.4441,15.6348
35.0204,15.0584
35.0204,15.0584
35.0807,15.1413
35.1879,15.3517
35.2608,15.5763
35.2978,15.8095
44.4130,15.8095
46.9556,13.2669
46.9556,13.2669
46.9556,13.2669
47.0949,13.1738
47.0963,13.1731
47.0990,13.1721
47.2023,13.1293
47.2023,13.1293
47.2023,13.1293
47.2044,13.1285
47.2044,13.1285
47.2283,13.1186
47.2497,13.1097
47.2497,13.1097
47.2497,13.1097
47.4140,13.0770
47.4140,13.0770
47.4140,13.0770
54.3550,13.0770
54.4220,13.0573
54.4276,13.0535
55.1352,12.5425
55.1605,12.5251
55.1605,12.5251
55.1632,12.5238
55.1855,12.5102
55.1868,12.5092
55.2114,12.4840
55.2206,12.4714
55.2267,12.4546
55.2280,12.4528
55.2281,12.4506
55.2443,12.4056
55.2443,12.4056
55.2444,12.4029
55.2335,12.3442
55.2309,12.3385
55.2184,12.3170
55.1144,12.1739
55.0072,11.9635
54.9342,11.7389
54.9131,11.6056
54.8973,11.5056
54.8973,11.2694
54.9342,11.0361
54.9764,10.9063
54.9815,10.8906
55.0046,10.8195
55.0072,10.8115
55.0072,10.8115
55.0072,10.8115
55.0094,10.8071
55.0097,10.8063
55.0105,10.8051
55.0848,10.6592
55.0848,10.6592
55.0848,10.6592
55.0904,10.6483
55.1144,10.6011
55.1514,10.5502
55.2533,10.4100
55.4203,10.2430
55.6113,10.1042
55.6255,10.0969
55.8218,9.9969
56.0464,9.9240
56.0464,9.9240
56.2797,9.8870
56.2797,9.8870
56.2797,9.8870
56.5159,9.8870
56.5159,9.8870
56.5159,9.8870
56.7491,9.9240
56.7491,9.9240
56.7491,9.9240
56.9738,9.9969
57.1030,10.0628
57.1842,10.1042
57.2932,10.1834
57.2932,10.1834
57.3634,10.2344
57.3708,10.2385
57.5468,10.4145
57.5509,10.4219
57.6811,10.6011
57.6811,10.6011
57.6811,10.6011
57.6811,10.6011
57.7200,10.6775
57.7883,10.8115
57.8613,11.0361
57.8613,11.0361
57.8613,11.0361
57.8983,11.2694
108.4655,11.2694
108.4655,9.2095
102.1978,9.2095
102.1978,9.4456
102.1608,9.6788
102.1608,9.6788
102.0995,9.8676
102.0879,9.9033
101.9807,10.1137
101.9807,10.1137
101.9245,10.1910
101.9204,10.1966
101.9204,10.1966
101.3441,9.6203
101.2828,9.5868
101.2131,9.5918
101.1571,9.6336
101.1490,9.6459
101.1379,9.6652
101.1379,9.6652
101.0355,9.7676
101.0355,9.7676
101.0355,9.7676
101.0162,9.7787
100.9680,9.8293
100.9548,9.8979
100.9807,9.9628
100.9905,9.9738
101.5669,10.5502
101.5669,10.5502
101.5669,10.5502
101.4839,10.6104
101.2736,10.7176
101.1420,10.7604
101.1125,10.7805
101.0490,10.7906
101.0490,10.7906
101.0490,10.7906
100.8158,10.8275
100.5797,10.8275
100.5797,10.8275
100.3465,10.7906
100.1220,10.7176
99.9116,10.6104
99.9116,10.6104
99.8613,10.5739
99.8345,10.5643
99.8287,10.5502
100.4050,9.9738
100.4385,9.9125
100.4335,9.8428
100.3916,9.7869
100.3793,9.7788
100.3601,9.7676
100.2577,9.6652
100.2465,9.6459
100.1960,9.5977
100.1274,9.5845
100.0625,9.6105
100.0515,9.6203
99.4751,10.1966
99.4751,10.1966
99.4751,10.1966
99.4751,10.1966
99.4616,10.1910
99.4554,10.1699
99.4514,10.1640
99.4437,10.1533
99.4149,10.1137
99.4149,10.1137
99.3077,9.9033
99.2347,9.6788
99.1978,9.4456
99.1978,9.2095
99.1978,9.2095
99.1978,9.2094
99.1978,9.2090
99.1990,9.2015
97.7983,9.2015
97.7983,9.4535
97.7824,9.5535
97.7589,9.7023
97.7589,9.7023
97.7051,9.8676
97.6810,9.9419
97.5666,10.1664
97.5666,10.1664
97.4940,10.2664
97.4186,10.3702
97.4186,10.3702
97.4186,10.3702
97.2404,10.5483
97.2404,10.5483
97.2404,10.5483
97.2404,10.5483
97.0627,10.6775
97.0366,10.6964
96.8936,10.7693
96.8936,10.7693
96.8570,10.7879
96.8150,10.8093
96.8113,10.8112
96.8075,10.8123
96.5974,10.8805
96.5726,10.8886
96.3237,10.9280
96.3237,10.9280
96.0718,10.9280
96.0718,10.9280
95.8230,10.8886
95.5834,10.8108
95.3589,10.6964
95.1551,10.5483
94.9770,10.3702
94.8289,10.1664
94.7145,9.9419
94.6367,9.7023
94.5973,9.4535
94.5973,9.2095
67.1978,9.2095
67.1978,9.4456
67.1608,9.6788
67.1608,9.6788
67.0995,9.8676
67.0879,9.9033
66.9807,10.1137
66.9807,10.1137
66.9204,10.1966
66.9204,10.1966
66.9204,10.1966
66.9204,10.1966
66.3441,9.6203
66.2828,9.5868
66.2131,9.5918
66.1571,9.6336
66.1490,9.6459
66.1379,9.6652
66.1379,9.6652
66.0355,9.7676
66.0355,9.7676
66.0355,9.7676
66.0162,9.7787
65.9680,9.8293
65.9548,9.8979
65.9807,9.9628
65.9905,9.9738
66.5669,10.5502
66.5669,10.5502
66.5669,10.5502
66.4839,10.6104
66.2736,10.7176
66.1420,10.7604
66.1125,10.7805
66.0490,10.7906
66.0490,10.7906
66.0490,10.7906
65.8158,10.8275
65.5797,10.8275
65.5797,10.8275
65.3465,10.7906
65.1220,10.7176
64.9116,10.6104
64.9116,10.6104
64.8613,10.5739
64.8345,10.5643
64.8287,10.5502
65.4050,9.9738
65.4385,9.9125
65.4335,9.8428
65.3916,9.7869
65.3793,9.7788
65.3601,9.7676
65.2577,9.6652
65.2465,9.6459
65.1960,9.5977
65.1274,9.5845
65.0625,9.6105
65.0515,9.6203
64.4751,10.1966
64.4751,10.1966
64.4751,10.1966
64.4751,10.1966
64.4616,10.1910
64.4554,10.1699
64.4514,10.1640
64.4437,10.1533
64.4149,10.1137
64.4149,10.1137
64.3077,9.9033
64.2347,9.6788
64.1978,9.4456
64.1978,9.2095
64.1978,9.2095
64.1978,9.2094
64.1978,9.2090
64.1990,9.2015
62.7983,9.2015
62.7983,9.4535
62.7824,9.5535
62.7589,9.7023
62.7589,9.7023
62.7051,9.8676
62.6810,9.9419
62.5666,10.1664
62.5666,10.1664
62.4940,10.2664
62.4186,10.3702
62.4186,10.3702
62.4186,10.3702
62.2404,10.5483
62.2404,10.5483
62.2404,10.5483
62.2404,10.5483
62.0627,10.6775
62.0366,10.6964
61.8936,10.7693
61.8936,10.7693
61.8570,10.7879
61.8150,10.8093
61.8113,10.8112
61.8075,10.8123
61.5974,10.8805
61.5726,10.8886
61.3237,10.9280
61.3237,10.9280
61.0718,10.9280
61.0718,10.9280
60.8230,10.8886
60.5834,10.8108
60.3589,10.6964
60.1551,10.5483
59.9770,10.3702
59.8289,10.1664
59.7145,9.9419
59.6367,9.7023
59.5973,9.4535
59.5973,9.3095
35.2978,9.3095
35.2978,9.5456
35.2626,9.7676
35.2608,9.7788
35.2078,9.9419
35.1879,10.0033
35.0807,10.2137
35.0807,10.2137
35.0204,10.2966
35.0204,10.2966
35.0204,10.2966
35.0204,10.2966
34.4441,9.7203
34.3828,9.6868
34.3131,9.6918
34.2571,9.7336
34.2490,9.7459
34.2379,9.7652
34.2379,9.7652
34.1355,9.8676
34.1355,9.8676
34.1355,9.8676
34.1162,9.8787
34.0680,9.9293
34.0548,9.9979
34.0807,10.0628
34.0905,10.0738
34.6669,10.6502
34.6669,10.6502
34.6669,10.6502
34.5839,10.7104
34.3736,10.8176
34.2420,10.8604
34.2125,10.8805
34.1490,10.8906
34.1490,10.8906
34.1490,10.8906
33.9158,10.9275
33.6797,10.9275
33.6797,10.9275
33.4465,10.8906
33.2220,10.8176
33.0116,10.7104
33.0116,10.7104
32.9613,10.6739
32.9345,10.6643
32.9287,10.6502
33.5050,10.0738
33.5385,10.0125
33.5335,9.9428
33.4916,9.8869
33.4793,9.8788
33.4601,9.8676
33.3577,9.7652
33.3465,9.7459
33.2960,9.6977
33.2274,9.6845
33.1625,9.7105
33.1515,9.7203
32.5751,10.2966
32.5751,10.2966
32.5751,10.2966
32.5751,10.2966
32.5616,10.2910
32.5554,10.2699
32.5514,10.2640
32.5437,10.2533
32.5149,10.2137
32.5148,10.2137
32.4077,10.0033
32.3347,9.7788
32.2978,9.5456
32.2978,9.3095
32.2978,9.3095
32.2978,9.3094
32.2978,9.3090
32.2990,9.3015
30.8983,9.3015
30.8983,9.5535
30.8877,9.6203
30.8806,9.6652
30.8589,9.8023
30.8589,9.8023
30.8067,9.9628
30.7810,10.0419
30.7176,10.1664
30.6935,10.2137
30.6785,10.2430
30.6666,10.2664
30.5186,10.4702
30.5186,10.4702
30.5186,10.4702
30.3404,10.6483
30.3404,10.6483
30.3404,10.6483
30.3404,10.6483
30.1627,10.7775
30.1366,10.7964
29.9936,10.8693
29.9936,10.8693
29.9570,10.8879
29.9150,10.9093
29.9113,10.9112
29.9075,10.9123
29.6970,10.9807
29.6726,10.9886
29.4237,11.0280
29.4237,11.0280
29.1718,11.0280
29.1718,11.0280
28.9230,10.9886
28.6834,10.9108
28.4589,10.7964
28.2551,10.6483
28.0770,10.4702
27.9289,10.2664
27.8145,10.0419
27.7367,9.8023
27.6973,9.5535
27.6973,9.3015
27.7367,9.0527
27.7367,9.0527
27.7367,9.0527
27.8119,8.8212
27.8119,8.8212
27.8145,8.8131
27.8145,8.8131
27.8145,8.8131
27.8168,8.8087
27.8171,8.8079
27.8178,8.8067
27.8458,8.7517
27.8560,8.7317
27.8560,8.7317
27.9289,8.5887
27.9415,8.5713
27.9509,8.5584
27.9509,8.5584
27.9633,8.5413
28.0235,8.4584
28.0770,8.3849
28.0770,8.3849
28.0770,8.3849
28.0770,8.3849
28.0770,8.3849
28.0770,8.3848
28.2551,8.2067
28.2551,8.2067
28.2551,8.2067
28.2551,8.2067
28.4589,8.0586
28.4589,8.0586
28.4589,8.0586
28.5290,8.0229
28.6552,7.9586
28.6834,7.9443
28.6834,7.9443
28.6834,7.9443
28.8053,7.9047
28.9230,7.8664
29.0628,7.8443
29.1718,7.8270
29.1718,7.8270
29.4237,7.8270
29.4237,7.8270
29.5327,7.8443
29.6726,7.8664
29.6726,7.8664
29.8910,7.9374
29.9122,7.9443
30.1091,8.0446
30.1366,8.0586
30.3404,8.2067
30.3404,8.2067
30.5186,8.3848
30.5186,8.3849
30.6666,8.5887
30.6666,8.5887
30.7810,8.8131
30.7810,8.8131
30.7810,8.8131
30.8589,9.0527
30.8589,9.0527
30.8647,9.0898
30.8688,9.1152
30.8983,9.3015
32.2990,9.3015
32.3347,9.0763
32.4077,8.8517
32.5149,8.6413
32.5514,8.5910
32.5610,8.5643
32.5751,8.5584
33.1515,9.1348
33.2128,9.1682
33.2825,9.1633
33.3384,9.1214
33.3465,9.1091
33.3577,9.0898
33.4601,8.9874
33.4793,8.9763
33.5276,8.9257
33.5408,8.8571
33.5148,8.7922
33.5050,8.7812
32.9287,8.2049
32.9287,8.2048
33.0116,8.1446
33.0441,8.1280
33.2220,8.0374
33.2914,8.0149
33.3536,7.9947
33.3830,7.9745
33.6797,7.9275
33.6797,7.9275
33.9158,7.9275
33.9158,7.9275
34.1490,7.9644
34.3736,8.0374
34.5839,8.1446
34.6669,8.2049
34.6669,8.2049
34.0905,8.7812
34.0570,8.8425
34.0620,8.9122
34.1039,8.9682
34.1162,8.9763
34.1355,8.9874
34.1355,8.9874
34.2379,9.0898
34.2379,9.0898
34.2490,9.1091
34.2996,9.1573
34.3682,9.1705
34.4330,9.1445
34.4441,9.1348
35.0204,8.5584
35.0204,8.5584
35.0807,8.6413
35.1879,8.8517
35.2608,9.0763
35.2978,9.3095
59.5973,9.3095
59.5973,9.2015
59.6367,8.9527
59.6367,8.9527
59.6367,8.9527
59.7119,8.7212
59.7119,8.7212
59.7145,8.7131
59.7145,8.7131
59.7145,8.7131
59.7168,8.7087
59.7171,8.7079
59.7178,8.7067
59.7511,8.6413
59.7779,8.5887
59.8289,8.4887
59.8444,8.4673
59.8509,8.4584
59.8509,8.4584
59.9507,8.3211
59.9507,8.3211
59.9683,8.2967
59.9725,8.2893
60.1551,8.1067
60.1551,8.1067
60.1551,8.1067
60.3589,7.9586
60.3589,7.9586
60.3589,7.9586
60.3871,7.9443
60.4290,7.9229
60.5834,7.8443
60.5834,7.8443
60.5834,7.8443
60.6673,7.8170
60.8230,7.7664
60.9889,7.7401
61.0718,7.7270
61.0718,7.7270
61.3237,7.7270
61.3237,7.7270
61.4067,7.7401
61.5726,7.7664
61.5726,7.7664
61.8121,7.8443
61.8122,7.8443
61.9712,7.9253
62.0366,7.9586
62.2404,8.1067
62.2404,8.1067
62.2404,8.1067
62.2404,8.1067
62.2404,8.1067
62.2404,8.1067
62.4186,8.2848
62.4186,8.2849
62.5666,8.4887
62.5666,8.4887
62.6810,8.7131
62.6810,8.7131
62.6810,8.7131
62.7589,8.9527
62.7589,8.9527
62.7806,9.0898
62.7983,9.2015
64.1990,9.2015
64.2347,8.9763
64.3077,8.7517
64.4149,8.5413
64.4514,8.4910
64.4610,8.4643
64.4751,8.4584
65.0515,9.0348
65.1128,9.0682
65.1825,9.0633
65.2384,9.0214
65.2465,9.0091
65.2577,8.9898
65.2577,8.9898
65.3601,8.8874
65.3793,8.8763
65.4276,8.8257
65.4408,8.7571
65.4148,8.6922
65.4050,8.6812
64.8287,8.1049
64.8287,8.1048
64.8923,8.0586
64.9116,8.0446
64.9116,8.0446
65.1220,7.9374
65.2101,7.9088
65.2536,7.8947
65.2830,7.8745
65.5797,7.8275
65.5797,7.8275
65.8158,7.8275
65.8158,7.8275
66.0490,7.8644
66.0800,7.8745
66.2364,7.9253
66.2736,7.9374
66.4839,8.0446
66.5669,8.1048
66.5669,8.1049
65.9905,8.6812
65.9570,8.7425
65.9620,8.8122
66.0039,8.8682
66.0162,8.8763
66.0355,8.8874
66.0355,8.8874
66.1379,8.9898
66.1379,8.9898
66.1490,9.0091
66.1996,9.0573
66.2682,9.0705
66.3330,9.0445
66.3441,9.0348
66.9204,8.4584
66.9204,8.4584
66.9807,8.5413
67.0879,8.7517
67.1608,8.9763
67.1978,9.2095
94.5973,9.2095
94.5973,9.2015
94.6367,8.9527
94.6367,8.9527
94.6367,8.9527
94.7119,8.7212
94.7119,8.7212
94.7145,8.7131
94.7145,8.7131
94.7145,8.7131
94.7168,8.7087
94.7171,8.7079
94.7178,8.7067
94.7511,8.6413
94.7779,8.5887
94.8289,8.4887
94.8509,8.4584
94.9737,8.2893
94.9770,8.2849
94.9770,8.2849
94.9770,8.2849
94.9770,8.2849
94.9770,8.2849
94.9770,8.2848
95.1551,8.1067
95.1551,8.1067
95.1551,8.1067
95.1551,8.1067
95.3589,7.9586
95.3589,7.9586
95.3589,7.9586
95.3871,7.9443
95.4290,7.9229
95.5834,7.8443
95.5834,7.8443
95.5834,7.8443
95.6673,7.8170
95.8230,7.7664
95.9889,7.7401
96.0718,7.7270
96.0718,7.7270
96.3237,7.7270
96.3237,7.7270
96.4067,7.7401
96.5726,7.7664
96.5726,7.7664
96.8121,7.8443
96.8122,7.8443
96.9712,7.9253
97.0366,7.9586
97.2404,8.1067
97.2404,8.1067
97.2404,8.1067
97.2404,8.1067
97.2404,8.1067
97.2404,8.1067
97.4186,8.2848
97.4186,8.2849
97.5666,8.4887
97.5666,8.4887
97.6810,8.7131
97.6810,8.7131
97.6810,8.7131
97.7589,8.9527
97.7589,8.9527
97.7806,9.0898
97.7983,9.2015
99.1990,9.2015
99.2347,8.9763
99.3077,8.7517
99.4149,8.5413
99.4514,8.4910
99.4610,8.4643
99.4751,8.4584
100.0515,9.0348
100.1128,9.0682
100.1825,9.0633
100.2384,9.0214
100.2465,9.0091
100.2577,8.9898
100.2577,8.9898
100.3601,8.8874
100.3793,8.8763
100.4276,8.8257
100.4408,8.7571
100.4148,8.6922
100.4050,8.6812
99.8287,8.1049
99.8287,8.1048
99.8923,8.0586
99.9116,8.0446
99.9116,8.0446
100.1220,7.9374
100.2101,7.9088
100.2536,7.8947
100.2830,7.8745
100.5797,7.8275
100.5797,7.8275
100.8158,7.8275
100.8158,7.8275
101.0490,7.8644
101.0800,7.8745
101.2364,7.9253
101.2736,7.9374
101.4839,8.0446
101.5669,8.1048
101.5669,8.1049
100.9905,8.6812
100.9570,8.7425
100.9620,8.8122
101.0039,8.8682
101.0162,8.8763
101.0355,8.8874
101.0355,8.8874
101.1379,8.9898
101.1379,8.9898
101.1490,9.0091
101.1996,9.0573
101.2682,9.0705
101.3330,9.0445
101.3441,9.0348
101.9204,8.4584
101.9204,8.4584
101.9807,8.5413
102.0879,8.7517
102.1608,8.9763
102.1978,9.2095
108.4655,9.2095
108.4655,6.6173
54.2083,6.6173
54.2083,6.8377
54.1738,7.0555
54.1057,7.2651
54.1057,7.2651
54.1057,7.2651
54.0056,7.4615
53.8885,7.6226
53.8760,7.6399
53.8760,7.6399
53.8760,7.6399
53.7201,7.7957
53.7201,7.7958
53.7201,7.7958
53.5702,7.9047
53.5702,7.9047
53.5646,7.9088
53.5418,7.9253
53.4650,7.9644
53.3772,8.0092
53.3454,8.0254
53.3454,8.0254
53.3453,8.0254
53.2431,8.0586
53.1357,8.0935
52.9180,8.1280
52.9180,8.1280
52.6975,8.1280
52.6975,8.1280
52.4798,8.0935
52.2702,8.0254
52.0737,7.9253
51.8954,7.7958
51.7395,7.6399
51.6100,7.4615
51.5099,7.2651
51.4418,7.0555
51.4073,6.8377
51.4073,6.6173
51.4073,6.6173
46.5883,6.6173
46.5883,6.8377
46.5538,7.0555
46.4857,7.2651
46.4857,7.2651
46.4857,7.2651
46.3856,7.4615
46.2685,7.6226
46.2560,7.6399
46.2560,7.6399
46.2560,7.6399
46.1001,7.7957
46.1001,7.7958
46.1001,7.7958
45.9502,7.9047
45.9502,7.9047
45.9446,7.9088
45.9218,7.9253
45.8450,7.9644
45.7572,8.0092
45.7254,8.0254
45.7254,8.0254
45.7253,8.0254
45.6231,8.0586
45.5157,8.0935
45.2980,8.1280
45.2980,8.1280
45.0775,8.1280
45.0775,8.1280
44.8598,8.0935
44.6502,8.0254
44.4537,7.9253
44.2754,7.7958
44.1195,7.6399
43.9900,7.4615
43.8899,7.2651
43.8218,7.0555
43.7873,6.8377
43.7873,6.6173
43.7873,6.6173
22.0083,6.6173
22.0083,6.8377
21.9738,7.0555
21.9057,7.2651
21.9057,7.2651
21.9057,7.2651
21.8056,7.4615
21.6885,7.6226
21.6760,7.6399
21.6760,7.6399
21.6760,7.6399
21.5201,7.7957
21.5201,7.7958
21.5201,7.7958
21.3702,7.9047
21.3702,7.9047
21.3646,7.9088
21.3418,7.9253
21.2650,7.9644
21.1772,8.0092
21.1454,8.0254
21.1454,8.0254
21.1453,8.0254
21.0431,8.0586
20.9357,8.0935
20.7180,8.1280
20.7180,8.1280
20.4975,8.1280
20.4975,8.1280
20.2798,8.0935
20.0702,8.0254
19.8737,7.9253
19.6954,7.7958
19.5395,7.6399
19.4100,7.4615
19.3099,7.2651
19.2418,7.0555
19.2073,6.8377
19.2073,6.6173
19.2073,6.6173
14.3883,6.6173
14.3883,6.8377
14.3538,7.0555
14.2857,7.2651
14.2857,7.2651
14.2857,7.2651
14.1856,7.4615
14.0685,7.6226
14.0560,7.6399
14.0560,7.6399
14.0560,7.6399
13.9001,7.7957
13.9001,7.7958
13.9001,7.7958
13.7502,7.9047
13.7502,7.9047
13.7446,7.9088
13.7218,7.9253
13.6450,7.9644
13.5572,8.0092
13.5254,8.0254
13.5254,8.0254
13.5253,8.0254
13.4231,8.0586
13.3157,8.0935
13.0980,8.1280
13.0980,8.1280
12.8775,8.1280
12.8775,8.1280
12.6598,8.0935
12.4502,8.0254
12.2537,7.9253
12.0754,7.7958
11.9195,7.6399
11.7900,7.4615
11.6899,7.2651
11.6218,7.0555
11.5873,6.8377
11.5873,6.6173
11.6218,6.3996
11.6899,6.1899
11.6899,6.1899
11.7826,6.0080
11.7900,5.9935
11.7900,5.9935
11.8536,5.9059
11.8536,5.9059
11.9195,5.8152
11.9195,5.8151
11.9195,5.8151
12.0754,5.6593
12.0754,5.6593
12.0754,5.6593
12.0754,5.6593
12.0888,5.6495
12.2431,5.5374
12.2431,5.5374
12.2537,5.5297
12.2537,5.5297
12.2537,5.5297
12.2599,5.5266
12.2599,5.5266
12.3167,5.4976
12.3167,5.4976
12.4502,5.4296
12.4502,5.4296
12.4502,5.4296
12.6598,5.3615
12.6598,5.3615
12.8626,5.3294
12.8626,5.3294
12.8775,5.3270
13.0980,5.3270
13.1129,5.3294
13.1129,5.3294
13.3157,5.3615
13.5253,5.4296
13.5254,5.4296
13.5254,5.4296
13.7218,5.5297
13.9001,5.6593
13.9001,5.6593
14.0560,5.8151
14.0560,5.8152
14.1856,5.9935
14.2857,6.1899
14.2857,6.1899
14.2857,6.1899
14.3538,6.3996
14.3883,6.6173
19.2073,6.6173
19.2418,6.3996
19.3099,6.1899
19.3099,6.1899
19.4026,6.0080
19.4100,5.9935
19.4100,5.9935
19.4736,5.9059
19.4736,5.9059
19.5395,5.8152
19.5395,5.8151
19.5395,5.8151
19.6954,5.6593
19.6954,5.6593
19.6954,5.6593
19.6954,5.6593
19.7088,5.6495
19.8631,5.5374
19.8631,5.5374
19.8737,5.5297
19.8737,5.5297
19.8737,5.5297
19.8799,5.5266
19.8799,5.5266
19.9367,5.4976
19.9367,5.4976
20.0702,5.4296
20.0702,5.4296
20.0702,5.4296
20.2798,5.3615
20.2798,5.3615
20.4826,5.3294
20.4826,5.3294
20.4975,5.3270
20.7180,5.3270
20.7329,5.3294
20.7329,5.3294
20.9357,5.3615
21.1453,5.4296
21.1454,5.4296
21.1454,5.4296
21.3418,5.5297
21.5201,5.6593
21.5201,5.6593
21.6760,5.8151
21.6760,5.8152
21.8056,5.9935
21.9057,6.1899
21.9057,6.1899
21.9057,6.1899
21.9738,6.3996
22.0083,6.6173
43.7873,6.6173
43.8218,6.3996
43.8899,6.1899
43.8899,6.1899
43.9826,6.0080
43.9900,5.9935
43.9900,5.9935
44.0536,5.9059
44.0536,5.9059
44.1195,5.8152
44.1195,5.8151
44.1195,5.8151
44.2754,5.6593
44.2754,5.6593
44.2754,5.6593
44.2754,5.6593
44.2888,5.6495
44.4431,5.5374
44.4431,5.5374
44.4537,5.5297
44.4537,5.5297
44.4537,5.5297
44.4599,5.5266
44.4599,5.5266
44.5167,5.4976
44.5167,5.4976
44.6502,5.4296
44.6502,5.4296
44.6502,5.4296
44.8598,5.3615
44.8598,5.3615
45.0626,5.3294
45.0626,5.3294
45.0775,5.3270
45.2980,5.3270
45.3129,5.3294
45.3129,5.3294
45.5157,5.3615
45.7253,5.4296
45.7254,5.4296
45.7254,5.4296
45.9218,5.5297
46.1001,5.6593
46.1001,5.6593
46.2560,5.8151
46.2560,5.8152
46.3856,5.9935
46.4857,6.1899
46.4857,6.1899
46.4857,6.1899
46.5538,6.3996
46.5883,6.6173
51.4073,6.6173
51.4418,6.3996
51.5099,6.1899
51.5099,6.1899
51.6026,6.0080
51.6100,5.9935
51.6100,5.9935
51.6736,5.9059
51.6736,5.9059
51.7395,5.8152
51.7395,5.8151
51.7395,5.8151
51.8954,5.6593
51.8954,5.6593
51.8954,5.6593
51.8954,5.6593
51.9088,5.6495
52.0631,5.5374
52.0632,5.5374
52.0737,5.5297
52.0737,5.5297
52.0737,5.5297
52.0799,5.5266
52.0799,5.5266
52.1367,5.4976
52.1367,5.4976
52.2702,5.4296
52.2702,5.4296
52.2702,5.4296
52.4798,5.3615
52.4798,5.3615
52.6826,5.3294
52.6826,5.3294
52.6975,5.3270
52.9180,5.3270
52.9329,5.3294
52.9329,5.3294
53.1357,5.3615
53.3453,5.4296
53.3454,5.4296
53.3454,5.4296
53.5418,5.5297
53.7201,5.6593
53.7201,5.6593
53.8760,5.8151
53.8760,5.8152
54.0056,5.9935
54.1057,6.1899
54.1057,6.1899
54.1057,6.1899
54.1738,6.3996
54.2083,6.6173
108.4655,6.6173
108.4655,3.8664
106.9683,3.8664
106.9683,4.1286
106.9416,4.3308
106.9340,4.3886
106.8705,4.6256
106.8662,4.6419
106.8662,4.6419
106.8124,4.7716
106.7658,4.8842
106.7658,4.8842
106.6347,5.1113
106.4750,5.3194
106.4750,5.3194
106.2896,5.5048
106.2896,5.5048
106.2896,5.5048
106.0816,5.6644
105.8545,5.7955
105.8545,5.7955
105.8545,5.7956
105.8545,5.7956
105.6122,5.8959
105.6122,5.8959
105.3589,5.9638
105.0989,5.9980
105.0989,5.9980
104.8367,5.9980
104.8366,5.9980
104.5767,5.9638
104.3233,5.8959
104.1464,5.8226
104.0811,5.7956
104.0811,5.7956
104.0811,5.7956
103.8540,5.6644
103.6459,5.5048
103.6459,5.5048
103.6459,5.5048
103.5707,5.4296
103.4653,5.3242
103.4646,5.3235
103.4610,5.3199
103.4605,5.3194
103.4605,5.3194
103.4605,5.3194
103.4605,5.3194
103.4605,5.3194
103.4604,5.3192
103.4601,5.3189
103.4601,5.3189
103.4567,5.3145
103.4562,5.3138
103.3008,5.1113
103.1697,4.8842
103.0694,4.6419
103.0015,4.3886
102.9673,4.1286
102.9673,3.8664
103.0015,3.6064
103.0049,3.5939
84.6569,3.5939
84.6569,3.8439
84.6363,4.0006
84.6363,4.0006
84.5758,4.1466
84.5758,4.1466
84.5758,4.1466
84.4796,4.2720
84.3542,4.3683
84.2081,4.4288
84.1981,4.4301
84.1716,4.4366
84.1679,4.4380
84.1596,4.4416
84.1554,4.4425
84.1474,4.4455
84.1259,4.4614
84.1024,4.4742
84.0628,4.5139
84.0416,4.5421
84.0272,4.5685
84.0131,4.6118
84.0113,4.6256
84.0113,4.6256
84.0004,4.6519
83.9508,4.7716
83.9508,4.7716
83.9508,4.7716
83.9475,4.7762
83.9458,4.7781
83.8546,4.8970
83.7292,4.9933
83.5831,5.0538
83.4264,5.0744
83.4264,5.0744
83.1764,5.0744
83.1764,5.0744
83.0197,5.0538
82.8737,4.9933
82.7482,4.8970
82.6520,4.7716
82.5915,4.6256
82.5902,4.6156
82.5837,4.5891
82.5823,4.5853
82.5786,4.5771
82.5777,4.5729
82.5748,4.5649
82.5589,4.5434
82.5461,4.5199
82.5064,4.4803
82.4782,4.4591
82.4518,4.4447
82.4085,4.4306
82.3947,4.4288
82.2487,4.3683
82.1232,4.2720
82.0270,4.1466
81.9665,4.0006
81.9502,3.8764
5.9783,3.8764
5.9783,4.1386
5.9607,4.2720
5.9440,4.3986
5.9255,4.4676
5.8832,4.6256
5.8788,4.6419
5.8762,4.6519
5.8762,4.6519
5.8266,4.7716
5.7758,4.8942
5.7758,4.8942
5.6447,5.1213
5.4850,5.3294
5.4850,5.3294
5.2996,5.5148
5.2996,5.5148
5.2996,5.5148
5.2996,5.5148
5.2512,5.5519
5.1763,5.6095
5.0916,5.6744
5.0916,5.6744
5.0916,5.6744
4.9605,5.7501
4.8645,5.8055
4.8645,5.8055
4.8645,5.8056
4.8645,5.8056
4.6222,5.9059
4.6222,5.9059
4.3689,5.9738
4.1089,6.0080
4.1089,6.0080
3.8467,6.0080
3.8466,6.0080
3.5867,5.9738
3.3333,5.9059
3.1564,5.8326
3.1564,5.8326
3.0951,5.8072
3.0933,5.8065
3.0928,5.8063
3.0904,5.8053
3.0876,5.8035
2.8640,5.6744
2.8640,5.6744
2.8223,5.6425
2.6559,5.5148
2.6559,5.5148
2.6559,5.5148
2.5707,5.4296
2.4753,5.3342
2.4746,5.3335
2.4710,5.3299
2.4705,5.3294
2.4705,5.3294
2.4705,5.3294
2.4705,5.3294
2.4705,5.3294
2.4704,5.3292
2.4701,5.3289
2.4701,5.3289
2.4667,5.3245
2.4662,5.3238
2.3108,5.1213
2.1797,4.8942
2.1316,4.7781
2.0794,4.6519
2.0115,4.3986
1.9773,4.1386
1.9773,3.8764
2.0115,3.6164
2.0794,3.3631
2.1092,3.2911
2.1797,3.1208
2.1797,3.1208
2.1797,3.1208
2.3108,2.8937
2.4162,2.7565
2.4705,2.6857
2.4705,2.6857
2.4705,2.6856
2.6559,2.5002
2.6559,2.5002
2.8640,2.3406
3.0911,2.2095
3.0911,2.2095
3.3293,2.1108
3.3293,2.1108
3.3333,2.1091
3.5248,2.0578
3.5867,2.0412
3.6444,2.0336
3.6626,2.0312
3.8466,2.0070
3.8466,2.0070
3.8466,2.0070
4.1089,2.0070
4.1089,2.0070
4.1089,2.0070
4.3400,2.0374
4.3400,2.0374
4.3689,2.0412
4.3689,2.0412
4.6222,2.1091
4.8645,2.2095
4.8645,2.2095
5.0916,2.3406
5.2996,2.5002
5.2996,2.5002
5.4850,2.6857
5.4851,2.6857
5.6447,2.8937
5.7758,3.1208
5.7758,3.1208
5.8762,3.3631
5.9414,3.6064
5.9414,3.6064
5.9440,3.6164
5.9440,3.6164
5.9783,3.8764
81.9502,3.8764
81.9459,3.8439
81.9459,3.5939
81.9665,3.4372
82.0270,3.2911
82.1232,3.1657
82.2487,3.0695
82.2487,3.0695
82.2487,3.0695
82.3431,3.0304
82.3660,3.0209
82.3947,3.0090
82.4047,3.0077
82.4312,3.0012
82.4350,2.9998
82.4432,2.9961
82.4474,2.9952
82.4554,2.9923
82.4769,2.9764
82.5004,2.9635
82.5400,2.9239
82.5612,2.8957
82.5756,2.8692
82.5897,2.8260
82.5915,2.8122
82.6520,2.6661
82.7482,2.5407
82.8737,2.4445
82.8737,2.4445
82.8737,2.4445
82.9681,2.4054
82.9910,2.3959
83.0197,2.3840
83.0295,2.3827
83.0393,2.3814
83.0393,2.3814
83.1764,2.3634
83.1764,2.3634
83.4264,2.3634
83.4264,2.3634
83.4264,2.3634
83.5368,2.3779
83.5635,2.3814
83.5751,2.3830
83.5791,2.3832
83.5831,2.3840
83.7291,2.4445
83.8546,2.5407
83.9508,2.6661
84.0113,2.8122
84.0113,2.8122
84.0126,2.8221
84.0191,2.8487
84.0205,2.8525
84.0242,2.8607
84.0251,2.8649
84.0280,2.8729
84.0439,2.8944
84.0567,2.9179
84.0964,2.9575
84.1246,2.9787
84.1510,2.9931
84.1943,3.0072
84.2081,3.0090
84.3541,3.0695
84.4796,3.1657
84.5758,3.2911
84.6363,3.4372
84.6371,3.4412
84.6373,3.4445
84.6373,3.4448
84.6373,3.4452
84.6569,3.5939
103.0049,3.5939
103.0694,3.3531
103.0950,3.2911
103.1697,3.1108
103.1697,3.1108
103.1697,3.1108
103.3008,2.8837
103.4523,2.6863
103.4523,2.6863
103.4528,2.6857
103.4605,2.6757
103.4605,2.6757
103.4605,2.6757
103.4615,2.6747
103.4615,2.6746
103.6459,2.4902
103.6459,2.4902
103.8540,2.3306
104.0811,2.1995
104.0811,2.1995
104.3193,2.1008
104.3193,2.1008
104.3233,2.0991
104.5393,2.0412
104.5767,2.0312
104.6344,2.0236
104.7607,2.0070
104.8366,1.9970
104.8366,1.9970
104.8366,1.9970
105.0989,1.9970
105.0989,1.9970
105.0989,1.9970
105.3300,2.0274
105.3300,2.0274
105.3589,2.0312
105.3589,2.0312
105.6122,2.0991
105.8545,2.1995
105.8545,2.1995
106.0816,2.3306
106.2896,2.4902
106.2896,2.4902
106.4750,2.6757
106.4751,2.6757
106.6347,2.8837
106.7658,3.1108
106.7658,3.1108
106.8662,3.3531
106.9340,3.6064
106.9352,3.6151
106.9354,3.6164
106.9683,3.8664
108.4655,3.8664
108.4655,0.6423
108.4605,0.6074
108.4561,0.5924
108.4183,0.5336
108.4183,0.5336
108.4183,0.5336
108.4170,0.5325
108.3621,0.5050
108.3545,0.5033
108.3282,0.5005
0.6401,0.5005
Z" /> 
<path style="fill:#FFFFFF; fill-opacity:1.0000; stroke:none;fill-rule:evenodd;"
d="M 35.0456,28.7383
34.7482,29.0357
34.7458,29.0362
34.7416,29.0411
34.7406,29.0433
34.7086,29.0753
34.7052,29.0836
34.7086,29.0919
34.7155,29.0988
34.2082,30.2190
34.2080,30.2279
34.2127,30.2337
34.9915,30.7246
35.0004,30.7261
35.0040,30.7246
35.7829,30.2337
35.7880,30.2264
35.7873,30.2190
35.2478,29.0275
35.1754,28.8529
35.1729,28.8491
35.0621,28.7383
35.0539,28.7349
Z" /> 
<path style="fill:#FFFFFF; fill-opacity:1.0000; stroke:none;fill-rule:evenodd;"
d="M 28.3104,15.9240
28.3033,15.9295
28.3022,15.9384
28.3027,15.9397
28.8824,17.3795
28.8886,17.3859
28.8976,17.3859
28.9020,17.3828
29.2929,16.9331
29.2957,16.9246
29.2948,16.9207
28.8018,15.7986
28.7954,15.7924
28.7880,15.7920
Z" /> 
<path style="fill:#FFFFFF; fill-opacity:1.0000; stroke:none;fill-rule:evenodd;"
d="M 60.2056,15.7332
60.2014,15.7411
60.1210,16.5507
60.1210,16.5507
60.0487,16.7254
60.0478,16.7298
60.0478,17.4382
60.0512,17.4465
60.0595,17.4499
60.5344,17.4499
60.5427,17.4465
60.5461,17.4382
60.5460,17.4366
60.5451,17.4301
60.4745,16.9043
60.6091,16.8909
61.2842,16.8238
61.2921,16.8196
61.2947,16.8111
61.2028,15.8330
61.1986,15.8251
61.1922,15.8225
60.2142,15.7306
Z" /> 
<path style="fill:#FFFFFF; fill-opacity:1.0000; stroke:none;fill-rule:evenodd;"
d="M 55.4897,13.0333
55.4880,13.0345
54.6026,13.6740
54.5979,13.6816
54.5978,13.6835
54.5978,14.1715
54.6012,14.1798
54.6026,14.1810
55.4897,14.8217
55.4984,14.8237
55.5048,14.8205
56.3905,13.9358
56.3939,13.9275
56.3905,13.9192
56.3905,13.9192
56.1526,13.6816
55.5048,13.0345
55.4965,13.0311
Z" /> 
</g> 
</svg>
