<?xml version='1.0' encoding='UTF-8'?>
<svg xmlns="http://www.w3.org/2000/svg" xmlns:svg="http://www.w3.org/2000/svg" version="1.1" width="108.9660mm" height="38.1254mm" viewBox="0.0000 0.0000 108.9660 38.1254" id="svg6">
  <defs id="defs6"/>
  <title id="title1">SVG Image created as loop_btn-B_Cu.svg date 2026-06-09T21:07:38 </title>
  <desc id="desc1">Image generated by PCBNEW </desc>
  <path id="bambu_00005" style="fill:#046307;fill-opacity:1;stroke:none" d="M 0 0 L 0 38.125321 L 108.96596 38.125321 L 108.96596 0 L 0 0 z M 0.640271 0.50074463 L 108.32827 0.50074463 L 108.35463 0.50332845 L 108.36186 0.50487874 L 108.41715 0.53226725 L 108.41871 0.53381755 L 108.45643 0.59221191 L 108.46056 0.60719808 L 108.46573 0.64233805 L 108.46573 3.8664307 L 108.46573 6.6171672 L 108.46521 6.6171672 L 108.46521 9.209257 L 108.46573 9.209257 L 108.46573 11.269596 L 108.46521 11.269596 L 108.46521 15.709635 L 108.46573 15.709635 L 108.46573 18.862931 L 108.4616 18.892387 L 108.45953 18.902205 L 108.42852 18.959049 L 108.4156 18.972485 L 108.38822 18.994189 L 108.36496 19.007625 L 108.00116 19.217432 L 107.82339 19.319751 L 102.99733 22.102527 L 101.57106 22.925216 L 101.39329 23.027535 L 99.417187 24.167 L 91.373234 28.805477 L 89.35992 29.966646 L 86.241764 31.764469 L 85.659888 32.099849 L 83.054879 33.602083 L 83.024906 33.614486 L 82.994417 33.622754 L 82.962378 33.626888 L 0.63562012 33.626888 L 0.60926514 33.624304 L 0.60151367 33.622754 L 0.54673665 33.594849 L 0.54518636 33.593815 L 0.52244873 33.566943 L 0.51728109 33.54989 L 0.50746257 33.534904 L 0.50332845 33.519918 L 0.49816081 33.485295 L 0.49816081 0.63768717 L 0.50126139 0.61133219 L 0.50281169 0.60409749 L 0.5302002 0.54880371 L 0.53123372 0.54777018 L 0.55810547 0.52451579 L 0.57515869 0.51934814 L 0.59014486 0.51004639 L 0.60513102 0.50539551 L 0.640271 0.50074463 z M 104.83701 1.9967773 L 104.76105 2.0071126 L 104.63496 2.0236491 L 104.57708 2.0314006 L 104.53936 2.0412191 L 104.32335 2.0990967 L 104.31973 2.100647 L 104.0815 2.199349 L 103.85413 2.3306071 L 103.64639 2.4902873 L 103.4619 2.6747721 L 103.46087 2.6758057 L 103.4526 2.6856242 L 103.45208 2.686141 L 103.30067 2.8835449 L 103.16993 3.1109212 L 103.095 3.291272 L 103.06916 3.3532837 L 103.00508 3.5940959 L 103.00457 3.5940959 L 103.00146 3.6064982 L 102.96736 3.8664307 L 102.96736 4.1284302 L 103.00146 4.3883626 L 103.06916 4.6420939 L 103.16993 4.8844564 L 103.30067 5.1113159 L 103.45622 5.3138875 L 103.45673 5.3144043 L 103.45983 5.3190552 L 103.46035 5.3195719 L 103.46035 5.3200887 L 103.46449 5.3237061 L 103.46552 5.3242228 L 103.57094 5.4296427 L 103.64587 5.5045736 L 103.85413 5.6642537 L 104.08099 5.7955119 L 104.1461 5.8223836 L 104.32335 5.8957642 L 104.57656 5.9639771 L 104.83649 5.9980835 L 105.09901 5.9980835 L 105.35894 5.9639771 L 105.61216 5.8957642 L 105.85452 5.7955119 L 106.08138 5.6642537 L 106.28964 5.5045736 L 106.47515 5.3195719 L 106.63483 5.1113159 L 106.76558 4.8844564 L 106.81208 4.7718018 L 106.86635 4.6420939 L 106.86996 4.6255575 L 106.93352 4.3883626 L 106.94179 4.3310018 L 106.96815 4.1284302 L 106.96815 3.8664307 L 106.93559 3.6163167 L 106.93507 3.6152832 L 106.93456 3.6064982 L 106.86635 3.3532837 L 106.76609 3.1109212 L 106.63483 2.8835449 L 106.47515 2.6758057 L 106.29015 2.4902873 L 106.0819 2.3306071 L 105.85504 2.199349 L 105.61267 2.0990967 L 105.35894 2.0314006 L 105.33052 2.0272664 L 105.09901 1.9967773 L 104.83701 1.9967773 z M 3.8467936 2.0071126 L 3.6628255 2.0314006 L 3.644222 2.0334676 L 3.5868612 2.0412191 L 3.5248494 2.0577555 L 3.3331299 2.1089152 L 3.3295125 2.1109823 L 3.0912842 2.2096842 L 2.8639079 2.3404256 L 2.6556519 2.5001058 L 2.4706502 2.6856242 L 2.41639 2.7564209 L 2.3109701 2.8938802 L 2.1797119 3.1207397 L 2.109432 3.291272 L 2.0794596 3.3631022 L 2.0112467 3.6163167 L 1.9771403 3.8762492 L 1.9771403 4.1387655 L 2.0112467 4.3986979 L 2.0794596 4.6519124 L 2.1316528 4.7780029 L 2.1797119 4.8942749 L 2.3109701 5.1211344 L 2.4659993 5.3237061 L 2.4665161 5.3247396 L 2.4701335 5.3288737 L 2.4706502 5.3293905 L 2.471167 5.3299072 L 2.4747843 5.3335246 L 2.4753011 5.3340413 L 2.5709025 5.4296427 L 2.6556519 5.5149089 L 2.82205 5.6425496 L 2.8639079 5.674589 L 3.0876668 5.8032633 L 3.0902507 5.8053304 L 3.0928345 5.8063639 L 3.0933512 5.8063639 L 3.0949015 5.8073975 L 3.1563965 5.8327189 L 3.3331299 5.9060994 L 3.5868612 5.9737956 L 3.8467936 6.007902 L 4.1087931 6.007902 L 4.3687256 5.9737956 L 4.6224569 5.9060994 L 4.8643026 5.8058472 L 4.8643026 5.8053304 L 4.9604207 5.7500366 L 5.0916789 5.674589 L 5.1764282 5.6094767 L 5.251359 5.5521159 L 5.2994181 5.5149089 L 5.4849365 5.3293905 L 5.6446167 5.1211344 L 5.7758748 4.8942749 L 5.8265177 4.7718018 L 5.8761271 4.6519124 L 5.8787109 4.6420939 L 5.8833618 4.6255575 L 5.9257365 4.4674276 L 5.9438232 4.3986979 L 5.9608765 4.2720907 L 5.9784465 4.1387655 L 5.9784465 3.8762492 L 5.9438232 3.6163167 L 5.9412394 3.6064982 L 5.8761271 3.3631022 L 5.7758748 3.1207397 L 5.6446167 2.8938802 L 5.4849365 2.6856242 L 5.2994181 2.5001058 L 5.0916789 2.3404256 L 4.8643026 2.2096842 L 4.6224569 2.1089152 L 4.3687256 2.0412191 L 4.3397868 2.0376017 L 4.1087931 2.0071126 L 3.8467936 2.0071126 z M 83.176318 2.3631632 L 83.039376 2.38125 L 83.029557 2.3828003 L 83.019739 2.3838338 L 82.9908 2.3957194 L 82.968062 2.4055379 L 82.873494 2.4442952 L 82.748437 2.5409302 L 82.651803 2.6659871 L 82.591341 2.8122314 L 82.589791 2.8261841 L 82.575838 2.8690755 L 82.561369 2.8959473 L 82.540181 2.9238525 L 82.500391 2.9636434 L 82.477136 2.9765625 L 82.455432 2.9920654 L 82.447164 2.995166 L 82.44303 2.9961995 L 82.434762 2.9998169 L 82.431144 3.0013672 L 82.404789 3.0075684 L 82.394454 3.0091187 L 82.366032 3.0210042 L 82.343294 3.030306 L 82.248726 3.0695801 L 82.123153 3.1656982 L 82.027035 3.291272 L 81.966573 3.4369995 L 81.945903 3.5940959 L 81.945903 3.843693 L 81.950037 3.8762492 L 81.966573 4.0007894 L 82.027035 4.1465169 L 82.123153 4.2720907 L 82.248726 4.3682088 L 82.394454 4.4286702 L 82.408407 4.4307373 L 82.451815 4.4446899 L 82.47817 4.4591593 L 82.506592 4.4803467 L 82.545866 4.5201375 L 82.558785 4.5433919 L 82.574805 4.565096 L 82.577905 4.5728475 L 82.578422 4.5769816 L 82.582556 4.5852498 L 82.58359 4.5888672 L 82.590308 4.6157389 L 82.591341 4.6255575 L 82.651803 4.7718018 L 82.748437 4.8968587 L 82.873494 4.9934937 L 83.019739 5.0539551 L 83.176318 5.0746257 L 83.426432 5.0746257 L 83.583012 5.0539551 L 83.729256 4.9934937 L 83.85483 4.8968587 L 83.94578 4.7780029 L 83.947331 4.7764526 L 83.950431 4.7718018 L 84.000041 4.6519124 L 84.010893 4.6255575 L 84.012443 4.6116048 L 84.026912 4.5687134 L 84.041382 4.5418416 L 84.062569 4.5139364 L 84.101843 4.4741455 L 84.125614 4.4612264 L 84.146802 4.4457235 L 84.15507 4.4426229 L 84.159204 4.4415894 L 84.167472 4.437972 L 84.17109 4.4364217 L 84.197445 4.4302205 L 84.20778 4.4286702 L 84.354024 4.3682088 L 84.479081 4.2720907 L 84.575199 4.1465169 L 84.635661 4.0007894 L 84.656331 3.843693 L 84.656331 3.5940959 L 84.656848 3.5940959 L 84.637211 3.4452677 L 84.637211 3.444751 L 84.637211 3.4411336 L 84.636178 3.4369995 L 84.575716 3.291272 L 84.479598 3.1656982 L 84.354024 3.0695801 L 84.208297 3.0091187 L 84.194344 3.0070516 L 84.150936 2.993099 L 84.124581 2.9786296 L 84.096159 2.9574422 L 84.056885 2.9176514 L 84.043966 2.894397 L 84.027946 2.8726929 L 84.024845 2.8649414 L 84.024329 2.8608073 L 84.020711 2.8525391 L 84.019161 2.8489217 L 84.012443 2.82205 L 84.01141 2.8122314 L 83.950948 2.6659871 L 83.85483 2.5409302 L 83.729256 2.4442952 L 83.583012 2.3838338 L 83.578878 2.3833171 L 83.57526 2.3828003 L 83.563375 2.38125 L 83.53702 2.3781494 L 83.426432 2.3631632 L 83.176318 2.3631632 z M 83.176318 2.968811 L 83.426432 2.968811 L 83.426432 3.5940959 L 84.0512 3.5940959 L 84.0512 3.843693 L 83.426432 3.843693 L 83.426432 4.4689779 L 83.176318 4.4689779 L 83.176318 3.843693 L 82.55155 3.843693 L 82.55155 3.5940959 L 83.176318 3.5940959 L 83.176318 2.968811 z M 12.87725 5.3268066 L 12.862781 5.3293905 L 12.659692 5.3614299 L 12.450403 5.4296427 L 12.316561 5.4978556 L 12.259717 5.5267944 L 12.253516 5.529895 L 12.24318 5.5376465 L 12.088668 5.6492676 L 12.075232 5.6590861 L 11.919686 5.8151489 L 11.85354 5.9060994 L 11.789978 5.9934326 L 11.782743 6.007902 L 11.689726 6.1898031 L 11.62203 6.3996094 L 11.587406 6.6171672 L 11.587406 6.8378255 L 11.62203 7.0553833 L 11.689726 7.2651896 L 11.789978 7.4615601 L 11.919686 7.6398437 L 12.075232 7.7959066 L 12.253516 7.9250977 L 12.450403 8.0253499 L 12.659692 8.0935628 L 12.87725 8.128186 L 13.097909 8.128186 L 13.315466 8.0935628 L 13.422953 8.0584229 L 13.525273 8.0253499 L 13.557312 8.0093302 L 13.645162 7.9643717 L 13.721643 7.9250977 L 13.744381 7.9085612 L 13.750065 7.9049438 L 13.899927 7.7959066 L 14.05599 7.6398437 L 14.068392 7.6227905 L 14.185697 7.4615601 L 14.28595 7.2651896 L 14.353646 7.0553833 L 14.388269 6.8378255 L 14.388269 6.6171672 L 14.353646 6.3996094 L 14.28595 6.1898031 L 14.185697 5.9934326 L 14.05599 5.8151489 L 13.899927 5.6590861 L 13.721643 5.529895 L 13.525273 5.4296427 L 13.315466 5.3614299 L 13.112895 5.3293905 L 13.097909 5.3268066 L 12.87725 5.3268066 z M 20.497457 5.3268066 L 20.482471 5.3293905 L 20.279899 5.3614299 L 20.070093 5.4296427 L 19.936768 5.4978556 L 19.879924 5.5267944 L 19.873722 5.529895 L 19.86287 5.5376465 L 19.708875 5.6492676 L 19.695439 5.6590861 L 19.539376 5.8151489 L 19.473747 5.9060994 L 19.410185 5.9934326 L 19.402433 6.007902 L 19.309932 6.1898031 L 19.24172 6.3996094 L 19.207096 6.6171672 L 19.207096 6.8378255 L 19.24172 7.0553833 L 19.309932 7.2651896 L 19.410185 7.4615601 L 19.539376 7.6398437 L 19.695439 7.7959066 L 19.873722 7.9250977 L 20.070093 8.0253499 L 20.279899 8.0935628 L 20.497457 8.128186 L 20.718115 8.128186 L 20.935673 8.0935628 L 21.04316 8.0584229 L 21.145479 8.0253499 L 21.177002 8.0093302 L 21.264852 7.9643717 L 21.34185 7.9250977 L 21.364587 7.9085612 L 21.370272 7.9049438 L 21.520133 7.7959066 L 21.676196 7.6398437 L 21.688599 7.6227905 L 21.805387 7.4615601 L 21.90564 7.2651896 L 21.973853 7.0553833 L 22.008476 6.8378255 L 22.008476 6.6171672 L 21.973853 6.3996094 L 21.90564 6.1898031 L 21.805387 5.9934326 L 21.676196 5.8151489 L 21.520133 5.6590861 L 21.34185 5.529895 L 21.145479 5.4296427 L 20.935673 5.3614299 L 20.733101 5.3293905 L 20.718115 5.3268066 L 20.497457 5.3268066 z M 45.077352 5.3268066 L 45.062366 5.3293905 L 44.859794 5.3614299 L 44.649988 5.4296427 L 44.516663 5.4978556 L 44.459819 5.5267944 L 44.453617 5.529895 L 44.443282 5.5376465 L 44.28877 5.6492676 L 44.275334 5.6590861 L 44.119271 5.8151489 L 44.053642 5.9060994 L 43.99008 5.9934326 L 43.982845 6.007902 L 43.889827 6.1898031 L 43.821615 6.3996094 L 43.787508 6.6171672 L 43.787508 6.8378255 L 43.821615 7.0553833 L 43.889827 7.2651896 L 43.99008 7.4615601 L 44.119271 7.6398437 L 44.275334 7.7959066 L 44.453617 7.9250977 L 44.649988 8.0253499 L 44.859794 8.0935628 L 45.077352 8.128186 L 45.29801 8.128186 L 45.515568 8.0935628 L 45.623055 8.0584229 L 45.725374 8.0253499 L 45.757414 8.0093302 L 45.844747 7.9643717 L 45.921745 7.9250977 L 45.944482 7.9085612 L 45.950167 7.9049438 L 46.100028 7.7959066 L 46.256091 7.6398437 L 46.268494 7.6227905 L 46.385799 7.4615601 L 46.485535 7.2651896 L 46.553748 7.0553833 L 46.588371 6.8378255 L 46.588371 6.6171672 L 46.553748 6.3996094 L 46.485535 6.1898031 L 46.385799 5.9934326 L 46.256091 5.8151489 L 46.100028 5.6590861 L 45.921745 5.529895 L 45.725374 5.4296427 L 45.515568 5.3614299 L 45.312996 5.3293905 L 45.29801 5.3268066 L 45.077352 5.3268066 z M 52.697559 5.3268066 L 52.682572 5.3293905 L 52.480001 5.3614299 L 52.270194 5.4296427 L 52.136869 5.4978556 L 52.080025 5.5267944 L 52.073824 5.529895 L 52.062972 5.5376465 L 51.908976 5.6492676 L 51.89554 5.6590861 L 51.739478 5.8151489 L 51.673848 5.9060994 L 51.60977 5.9934326 L 51.602535 6.007902 L 51.510034 6.1898031 L 51.441821 6.3996094 L 51.407198 6.6171672 L 51.407198 6.8378255 L 51.441821 7.0553833 L 51.510034 7.2651896 L 51.60977 7.4615601 L 51.739478 7.6398437 L 51.89554 7.7959066 L 52.073824 7.9250977 L 52.270194 8.0253499 L 52.480001 8.0935628 L 52.697559 8.128186 L 52.918217 8.128186 L 53.135775 8.0935628 L 53.243262 8.0584229 L 53.345064 8.0253499 L 53.345581 8.0253499 L 53.377104 8.0093302 L 53.464954 7.9643717 L 53.541951 7.9250977 L 53.564689 7.9085612 L 53.570374 7.9049438 L 53.720235 7.7959066 L 53.875781 7.6398437 L 53.8887 7.6227905 L 54.005489 7.4615601 L 54.105741 7.2651896 L 54.173954 7.0553833 L 54.208061 6.8378255 L 54.208061 6.6171672 L 54.173954 6.3996094 L 54.105741 6.1898031 L 54.005489 5.9934326 L 53.875781 5.8151489 L 53.720235 5.6590861 L 53.541951 5.529895 L 53.345581 5.4296427 L 53.345064 5.4296427 L 53.135775 5.3614299 L 52.932686 5.3293905 L 52.918217 5.3268066 L 52.697559 5.3268066 z M 12.987838 5.9272868 A 0.80000001 0.80000001 0 0 1 13.787789 6.7277547 A 0.80000001 0.80000001 0 0 1 12.987838 7.5277059 A 0.80000001 0.80000001 0 0 1 12.187887 6.7277547 A 0.80000001 0.80000001 0 0 1 12.987838 5.9272868 z M 20.608044 5.9272868 A 0.80000001 0.80000001 0 0 1 21.407996 6.7277547 A 0.80000001 0.80000001 0 0 1 20.608044 7.5277059 A 0.80000001 0.80000001 0 0 1 19.807576 6.7277547 A 0.80000001 0.80000001 0 0 1 20.608044 5.9272868 z M 45.187939 5.9272868 A 0.80000001 0.80000001 0 0 1 45.987891 6.7277547 A 0.80000001 0.80000001 0 0 1 45.187939 7.5277059 A 0.80000001 0.80000001 0 0 1 44.387988 6.7277547 A 0.80000001 0.80000001 0 0 1 45.187939 5.9272868 z M 52.807629 5.9272868 A 0.80000001 0.80000001 0 0 1 53.607581 6.7277547 A 0.80000001 0.80000001 0 0 1 52.807629 7.5277059 A 0.80000001 0.80000001 0 0 1 52.007678 6.7277547 A 0.80000001 0.80000001 0 0 1 52.807629 5.9272868 z M 61.071724 7.7271769 L 60.989042 7.740096 L 60.823161 7.766451 L 60.667098 7.8170939 L 60.583382 7.8444824 L 60.42887 7.9230306 L 60.387012 7.9442179 L 60.359106 7.9586873 L 60.154985 8.1064819 L 59.972567 8.2894165 L 59.968433 8.2966512 L 59.950863 8.3209391 L 59.851127 8.4583984 L 59.844409 8.4671834 L 59.828906 8.4888875 L 59.777747 8.588623 L 59.750875 8.641333 L 59.717802 8.7064453 L 59.717285 8.7079956 L 59.716768 8.7085124 L 59.714701 8.7131632 L 59.712118 8.7214315 L 59.63667 8.9529419 L 59.597396 9.2015055 L 59.597396 9.3095093 L 59.597396 9.4536865 L 59.63667 9.7022502 L 59.714701 9.9420288 L 59.828906 10.166305 L 59.977218 10.370426 L 60.154985 10.548193 L 60.359106 10.696505 L 60.583382 10.81071 L 60.823161 10.888741 L 61.071724 10.928015 L 61.323905 10.928015 L 61.572469 10.888741 L 61.597274 10.880473 L 61.807597 10.81226 L 61.811214 10.811226 L 61.814832 10.809159 L 61.857206 10.787972 L 61.89338 10.769368 L 62.036523 10.696505 L 62.062878 10.677384 L 62.240645 10.548193 L 62.418412 10.370426 L 62.49386 10.266557 L 62.566724 10.166305 L 62.680929 9.9420288 L 62.705216 9.8676147 L 62.75896 9.7022502 L 62.782214 9.553422 L 62.798234 9.4536865 L 62.798234 9.2015055 L 62.780664 9.0898844 L 62.75896 8.9529419 L 62.680929 8.7131632 L 62.566724 8.4888875 L 62.418412 8.2847656 L 62.240645 8.1064819 L 62.036523 7.9586873 L 61.971411 7.9250977 L 61.812248 7.8444824 L 61.572469 7.766451 L 61.406588 7.740096 L 61.323905 7.7271769 L 61.071724 7.7271769 z M 96.071655 7.7271769 L 95.988973 7.740096 L 95.823092 7.766451 L 95.667546 7.8170939 L 95.583313 7.8444824 L 95.4288 7.9230306 L 95.386943 7.9442179 L 95.359037 7.9586873 L 95.154915 8.1064819 L 94.977148 8.2847656 L 94.973531 8.2894165 L 94.851058 8.4583984 L 94.828837 8.4888875 L 94.777677 8.588623 L 94.751322 8.641333 L 94.717733 8.7064453 L 94.717216 8.7079956 L 94.716699 8.7085124 L 94.714632 8.7131632 L 94.712048 8.7214315 L 94.636601 8.9529419 L 94.597327 9.2015055 L 94.597327 9.209257 L 94.597327 9.4536865 L 94.636601 9.7022502 L 94.714632 9.9420288 L 94.828837 10.166305 L 94.977148 10.370426 L 95.154915 10.548193 L 95.359037 10.696505 L 95.583313 10.81071 L 95.823092 10.888741 L 96.071655 10.928015 L 96.323836 10.928015 L 96.5724 10.888741 L 96.597205 10.880473 L 96.807528 10.81226 L 96.811145 10.811226 L 96.814762 10.809159 L 96.857137 10.787972 L 96.893827 10.769368 L 97.036454 10.696505 L 97.062809 10.677384 L 97.240576 10.548193 L 97.418343 10.370426 L 97.493791 10.266557 L 97.566654 10.166305 L 97.680859 9.9420288 L 97.705147 9.8676147 L 97.758891 9.7022502 L 97.782145 9.553422 L 97.798165 9.4536865 L 97.798165 9.2015055 L 97.780595 9.0898844 L 97.758891 8.9529419 L 97.680859 8.7131632 L 97.566654 8.4888875 L 97.418343 8.2847656 L 97.240576 8.1064819 L 97.036454 7.9586873 L 96.971342 7.9250977 L 96.812179 7.8444824 L 96.5724 7.766451 L 96.406519 7.740096 L 96.323836 7.7271769 L 96.071655 7.7271769 z M 29.171863 7.8269124 L 29.062826 7.8444824 L 28.922782 7.8661865 L 28.805477 7.9049438 L 28.683521 7.9442179 L 28.655098 7.9586873 L 28.529008 8.0227661 L 28.458728 8.0584229 L 28.255123 8.2067342 L 28.076839 8.3850179 L 28.023612 8.4583984 L 27.963151 8.5410807 L 27.950749 8.5586507 L 27.941447 8.5710531 L 27.929045 8.588623 L 27.856181 8.7317668 L 27.845846 8.7519206 L 27.81794 8.8066976 L 27.816907 8.8077311 L 27.816907 8.8087646 L 27.814323 8.8128988 L 27.811739 8.821167 L 27.736808 9.0526774 L 27.697534 9.3017578 L 27.697534 9.553422 L 27.736808 9.8025024 L 27.814323 10.041764 L 27.929045 10.266557 L 28.076839 10.470162 L 28.255123 10.648446 L 28.458728 10.79624 L 28.683521 10.910962 L 28.922782 10.988477 L 29.171863 11.027751 L 29.423527 11.027751 L 29.672607 10.988477 L 29.696895 10.980725 L 29.907735 10.912512 L 29.911353 10.910962 L 29.91497 10.909412 L 29.956828 10.887708 L 29.993518 10.869104 L 30.136662 10.79624 L 30.1625 10.777637 L 30.340267 10.648446 L 30.518551 10.470162 L 30.666345 10.266557 L 30.678748 10.242786 L 30.693734 10.213847 L 30.717505 10.166305 L 30.781067 10.041764 L 30.806905 9.9626994 L 30.859098 9.8025024 L 30.880802 9.6650431 L 30.88752 9.6200846 L 30.898372 9.553422 L 30.898372 9.3017578 L 30.868917 9.1152059 L 30.864783 9.0898844 L 30.859098 9.0526774 L 30.781067 8.8128988 L 30.666345 8.588623 L 30.518551 8.3850179 L 30.340267 8.2067342 L 30.136662 8.0584229 L 30.109273 8.0444702 L 29.912386 7.9442179 L 29.891199 7.9375 L 29.672607 7.8661865 L 29.532564 7.8444824 L 29.423527 7.8269124 L 29.171863 7.8269124 z M 65.57946 7.8274292 L 65.282837 7.8744548 L 65.253381 7.8946086 L 65.209973 7.9085612 L 65.122123 7.9375 L 64.9118 8.0444702 L 64.892163 8.0584229 L 64.828601 8.1049316 L 65.189819 8.4661499 A 1 1 0 0 1 65.697799 8.3276571 A 1 1 0 0 1 66.205778 8.4661499 L 66.566996 8.1049316 L 66.483797 8.0444702 L 66.273474 7.9375 L 66.236267 7.9250977 L 66.080204 7.8744548 L 66.049198 7.8646362 L 65.815621 7.8274292 L 65.57946 7.8274292 z M 100.57939 7.8274292 L 100.28277 7.8744548 L 100.25331 7.8946086 L 100.2099 7.9085612 L 100.12154 7.9375 L 99.911214 8.0444702 L 99.892094 8.0584229 L 99.828532 8.1049316 L 100.18975 8.4661499 A 1 1 0 0 1 100.69773 8.3276571 A 1 1 0 0 1 101.20519 8.4661499 A 1 1 0 0 1 101.20571 8.4661499 L 101.56641 8.1049316 L 101.48373 8.0444702 L 101.2734 7.9375 L 101.2362 7.9250977 L 101.07962 7.8744548 L 101.04861 7.8646362 L 100.81555 7.8274292 L 100.57939 7.8274292 z M 33.679598 7.9276815 L 33.382975 7.974707 L 33.35352 7.9948608 L 33.291508 8.0150146 L 33.221745 8.0372355 L 33.043978 8.128186 L 33.011422 8.1447225 L 32.928739 8.2046672 L 33.289958 8.5658854 A 1 1 0 0 1 33.797937 8.4273926 A 1 1 0 0 1 34.305916 8.5658854 L 34.667135 8.2046672 L 34.583936 8.1447225 L 34.373612 8.0372355 L 34.14882 7.9643717 L 33.915759 7.9276815 L 33.679598 7.9276815 z M 61.197815 8.3276571 A 1 1 0 0 1 62.197754 9.327596 A 1 1 0 0 1 61.197815 10.327535 A 1 1 0 0 1 60.197876 9.327596 A 1 1 0 0 1 61.197815 8.3276571 z M 96.197746 8.3276571 A 1 1 0 0 1 97.197685 9.327596 A 1 1 0 0 1 96.197746 10.327535 A 1 1 0 0 1 95.197807 9.327596 A 1 1 0 0 1 96.197746 8.3276571 z M 29.297953 8.4273926 A 1 1 0 0 1 30.297892 9.4273315 A 1 1 0 0 1 29.297953 10.427271 A 1 1 0 0 1 28.298014 9.4273315 A 1 1 0 0 1 29.297953 8.4273926 z M 64.475134 8.4583984 L 64.461182 8.4640828 L 64.451363 8.4909546 L 64.414673 8.5410807 L 64.307703 8.7519206 L 64.234839 8.9761963 L 64.199182 9.2015055 L 64.197632 9.209257 L 64.197632 9.4454183 L 64.234839 9.6789958 L 64.307703 9.9032715 L 64.414673 10.113595 L 64.443612 10.153385 L 64.451363 10.164237 L 64.455497 10.169922 L 64.461698 10.191109 L 64.475134 10.196794 L 64.836353 9.8355754 A 1 1 0 0 1 64.69786 9.327596 A 1 1 0 0 1 64.836353 8.8196167 L 64.475134 8.4583984 z M 66.920463 8.4583984 L 66.559245 8.8196167 A 1 1 0 0 1 66.697738 9.327596 A 1 1 0 0 1 66.559245 9.8355754 L 66.920463 10.196794 L 66.980924 10.113595 L 67.087895 9.9032715 L 67.099264 9.8676147 L 67.160758 9.6789958 L 67.197965 9.4454183 L 67.197965 9.209257 L 67.160758 8.9761963 L 67.087895 8.7519206 L 66.980924 8.5410807 L 66.920463 8.4583984 z M 99.475065 8.4583984 L 99.461112 8.4640828 L 99.451294 8.4909546 L 99.41512 8.5410807 L 99.307633 8.7519206 L 99.23477 8.9761963 L 99.199113 9.2015055 L 99.197563 9.209257 L 99.197563 9.4454183 L 99.23477 9.6789958 L 99.307633 9.9032715 L 99.41512 10.113595 L 99.443542 10.153385 L 99.451294 10.164237 L 99.455428 10.169922 L 99.461629 10.191109 L 99.475582 10.196794 L 99.836283 9.8355754 A 1 1 0 0 1 99.697791 9.327596 A 1 1 0 0 1 99.836283 8.8196167 L 99.475065 8.4583984 z M 101.91988 8.4583984 L 101.55918 8.8190999 A 1 1 0 0 1 101.69767 9.327596 A 1 1 0 0 1 101.55918 9.8355754 L 101.92039 10.196794 L 101.92453 10.191109 L 101.98086 10.113595 L 102.08783 9.9032715 L 102.09971 9.8676147 L 102.16069 9.6789958 L 102.1979 9.4454183 L 102.1979 9.209257 L 102.19738 9.209257 L 102.16069 8.9761963 L 102.08783 8.7519206 L 101.98034 8.5410807 L 101.91988 8.4583984 z M 32.575273 8.5586507 L 32.560803 8.5643351 L 32.551501 8.5912069 L 32.514811 8.641333 L 32.407841 8.8516561 L 32.33446 9.0764486 L 32.298804 9.3017578 L 32.29777 9.3089925 L 32.29777 9.3095093 L 32.29777 9.5456706 L 32.33446 9.7787313 L 32.407841 10.003524 L 32.514811 10.213847 L 32.54375 10.253121 L 32.551501 10.263973 L 32.555636 10.269657 L 32.561837 10.290845 L 32.575273 10.296529 L 32.936491 9.9353109 A 1 1 0 0 1 32.797998 9.4273315 A 1 1 0 0 1 32.936491 8.919869 L 32.575273 8.5586507 z M 35.020601 8.5586507 L 34.659383 8.919869 A 1 1 0 0 1 34.797876 9.4273315 A 1 1 0 0 1 34.659383 9.9353109 L 35.020601 10.296529 L 35.080546 10.213847 L 35.188033 10.003524 L 35.20767 9.9420288 L 35.260897 9.7787313 L 35.262447 9.7673625 L 35.297587 9.5456706 L 35.297587 9.3095093 L 35.260897 9.0764486 L 35.188033 8.8516561 L 35.080546 8.641333 L 35.020601 8.5586507 z M 56.279769 9.8872518 L 56.046191 9.9239421 L 55.821916 9.9968058 L 55.625545 10.097058 L 55.611076 10.104293 L 55.42039 10.242786 L 55.253475 10.410217 L 55.151156 10.55026 L 55.114465 10.600903 L 55.090177 10.648446 L 55.08501 10.659298 L 55.010596 10.805025 L 55.009562 10.806059 L 55.009562 10.807092 L 55.006978 10.811743 L 55.004395 10.819495 L 54.981657 10.890808 L 54.976489 10.906311 L 54.934115 11.036019 L 54.897424 11.269596 L 54.897424 11.505758 L 54.912927 11.605493 L 54.934115 11.738818 L 55.006978 11.963611 L 55.114465 12.173934 L 55.218335 12.317078 L 55.230737 12.338265 L 55.233321 12.343949 L 55.244173 12.402861 L 55.244173 12.405444 L 55.228153 12.450403 L 55.228153 12.452987 L 55.226603 12.454537 L 55.220402 12.47159 L 55.211617 12.483993 L 55.186812 12.509314 L 55.185262 12.510347 L 55.163041 12.523783 L 55.160457 12.525334 L 55.135136 12.542387 L 54.427686 13.053467 L 54.422001 13.057084 L 54.354822 13.077238 L 47.41416 13.077238 L 47.249829 13.109794 L 47.228125 13.118579 L 47.204354 13.128398 L 47.202287 13.129431 L 47.098934 13.172323 L 47.09635 13.173356 L 47.0948 13.173873 L 46.95579 13.26689 L 44.412793 15.809371 L 39.337134 20.885547 L 39.244116 21.024556 L 39.223446 21.073649 L 39.180037 21.179586 L 39.147481 21.343917 L 39.147481 21.421948 L 39.147481 21.425049 L 39.147481 28.704191 L 39.138696 28.750183 L 39.033276 29.013733 L 38.824504 29.538765 L 38.803316 29.591475 L 38.787297 29.619897 L 38.731486 29.661755 L 38.661723 29.666923 L 38.600745 29.633333 L 38.471037 29.503625 L 38.463285 29.499491 L 38.368717 29.430762 L 38.283968 29.369267 L 38.117053 29.284001 L 38.073645 29.26178 L 37.848853 29.188916 L 37.615792 29.152226 L 37.379631 29.152226 L 37.14657 29.188916 L 36.921777 29.26178 L 36.74401 29.35273 L 36.711454 29.369267 L 36.520251 29.50776 L 36.378658 29.64987 L 36.357471 29.666923 L 36.290291 29.686043 L 36.223112 29.666406 L 36.177637 29.61318 L 35.833472 28.853536 L 35.829854 28.840617 L 35.827787 28.83855 L 35.826237 28.832349 L 35.815385 28.779639 L 35.796781 28.734163 L 35.794714 28.728479 L 35.751306 28.624609 L 35.658289 28.4856 L 35.658289 28.485083 L 35.637618 28.464412 L 35.62935 28.455627 L 35.600928 28.421004 L 35.49034 28.310417 L 35.466569 28.291813 L 35.454167 28.280961 L 32.340145 25.166939 L 32.200618 25.073922 L 32.046106 25.009843 L 32.045589 25.009843 L 31.881258 24.97677 L 28.91193 24.97677 L 28.852502 24.961784 L 28.829248 24.949382 L 28.801343 24.928194 L 25.392249 21.5191 L 25.360726 21.46639 L 25.353491 21.441069 L 25.348324 21.405929 L 25.348324 16.070337 L 25.348324 16.063619 L 25.371578 15.997473 L 25.693005 15.552539 L 25.882658 15.290023 L 25.892993 15.270903 L 25.903845 15.254366 L 25.922449 15.230595 L 25.929167 15.213025 L 25.94622 15.172201 L 25.957589 15.151013 L 25.96534 15.126208 L 25.967924 15.121041 L 25.980843 15.088485 L 25.98291 15.084351 L 25.998413 14.967045 L 25.998413 14.918986 L 25.999447 14.909167 L 25.998413 14.902966 L 25.998413 13.08809 L 25.994796 13.060185 L 25.994279 13.057084 L 25.98291 12.970785 L 25.975675 12.954248 L 25.922449 12.82454 L 25.845451 12.724805 L 25.826331 12.698966 L 25.825814 12.698966 L 25.704374 12.605949 L 25.686287 12.588896 L 25.682153 12.584245 L 25.655282 12.531018 L 25.654765 12.528434 L 25.658382 12.458671 L 25.660449 12.452987 L 25.66355 12.443685 L 25.680086 12.412679 L 25.780855 12.273669 L 25.832015 12.173934 L 25.888342 12.063346 L 25.961206 11.839071 L 25.998413 11.605493 L 25.998413 11.369332 L 25.961206 11.136271 L 25.888342 10.911479 L 25.820129 10.777637 L 25.780855 10.701156 L 25.670268 10.548193 L 25.668201 10.546126 L 25.651147 10.521838 L 25.647013 10.514604 L 25.470797 10.338387 L 25.463562 10.334253 L 25.393282 10.28361 L 25.284245 10.204028 L 25.20518 10.164237 L 25.073922 10.097058 L 24.849129 10.024194 L 24.616069 9.9869873 L 24.379907 9.9869873 L 24.14633 10.024194 L 23.922054 10.097058 L 23.711214 10.204028 L 23.520528 10.343038 L 23.353097 10.509953 L 23.244576 10.659298 L 23.214604 10.701156 L 23.205819 10.717692 L 23.110734 10.905278 L 23.109701 10.906311 L 23.109701 10.907345 L 23.107117 10.911479 L 23.069393 11.027751 L 23.034253 11.136271 L 22.997046 11.369332 L 22.997046 11.605493 L 23.034253 11.839071 L 23.107117 12.063346 L 23.214604 12.273669 L 23.318473 12.416813 L 23.330876 12.438517 L 23.333459 12.444202 L 23.344312 12.503113 L 23.344312 12.505697 L 23.32054 12.571326 L 23.311239 12.584245 L 23.286951 12.609049 L 23.225456 12.656075 L 23.178947 12.692249 L 23.177397 12.693282 L 23.176363 12.693799 L 23.169645 12.698966 L 23.07301 12.82454 L 23.05389 12.870532 L 23.012549 12.970785 L 23.012549 12.971301 L 23.012032 12.973885 L 23.012032 12.974919 L 23.011515 12.977502 L 23.012032 12.978019 L 23.011515 12.978536 L 22.997046 13.08809 L 22.997046 14.967045 L 23.00118 14.995984 L 23.00118 15.007869 L 23.004797 15.024923 L 23.012549 15.084351 L 23.022367 15.108122 L 23.025985 15.117424 L 23.027535 15.122074 L 23.034253 15.136027 L 23.07301 15.230595 L 23.088513 15.250232 L 23.095231 15.264701 L 23.112801 15.290023 L 23.623881 15.997473 L 23.627498 16.003158 L 23.647135 16.070337 L 23.647135 16.603638 L 23.647135 21.911324 L 23.680208 22.075655 L 23.696228 22.114929 L 23.744287 22.230168 L 23.800098 22.3144 L 23.8125 22.345406 L 23.834721 22.36711 L 23.837305 22.369694 L 26.674858 25.207764 L 27.599866 26.132772 L 27.692883 26.225273 L 27.795203 26.327592 L 27.9554 26.488306 L 28.094926 26.581323 L 28.20448 26.626282 L 28.20448 26.626799 L 28.245821 26.643852 L 28.248405 26.644885 L 28.249955 26.645402 L 28.358993 26.667106 L 28.401884 26.675374 L 28.410152 26.677958 L 31.383614 26.677958 L 31.443042 26.692944 L 31.466296 26.705863 L 31.494202 26.727051 L 33.932812 29.165145 L 33.938497 29.171346 L 33.967436 29.234908 L 33.958134 29.304154 L 33.827909 29.591475 L 33.817574 29.61318 L 33.804138 29.636434 L 33.748328 29.678292 L 33.678564 29.683459 L 33.617069 29.64987 L 33.470825 29.503625 L 33.46359 29.499491 L 33.369023 29.430762 L 33.284273 29.369267 L 33.116842 29.284001 L 33.07395 29.26178 L 32.849158 29.188916 L 32.616097 29.152226 L 32.379936 29.152226 L 32.146358 29.188916 L 31.921566 29.26178 L 31.743799 29.35273 L 31.711243 29.369267 L 31.520557 29.50776 L 31.516423 29.51086 L 31.501436 29.521195 L 31.489034 29.52843 L 31.423405 29.54445 L 31.356742 29.522229 L 31.344857 29.513961 L 31.319019 29.489673 L 31.248739 29.401823 L 31.242021 29.396655 L 31.101978 29.284001 L 30.932996 29.200285 L 30.750578 29.15481 L 30.749028 29.15481 L 30.746444 29.15481 L 30.70872 29.152226 L 30.708203 29.152226 L 29.499491 29.152226 L 29.45815 29.144991 L 29.447815 29.141374 L 29.391488 29.100549 L 29.365649 29.035437 L 29.364616 29.021484 L 29.366166 28.986344 L 29.398206 28.826147 L 29.398206 28.628743 L 29.359965 28.435474 L 29.284517 28.253573 L 29.174963 28.089758 L 29.035437 27.950232 L 28.871623 27.840678 L 28.689722 27.765747 L 28.496452 27.72699 L 28.299048 27.72699 L 28.105778 27.765747 L 27.923877 27.840678 L 27.760063 27.950232 L 27.620536 28.089758 L 27.510982 28.253573 L 27.491862 28.299565 L 27.487728 28.310417 L 27.438118 28.430306 L 27.436051 28.43444 L 27.397294 28.628743 L 27.397294 28.826147 L 27.400911 28.844234 L 27.420549 28.943453 L 27.435535 29.019417 L 27.490828 29.152226 L 27.510465 29.200285 L 27.510982 29.201318 L 27.620536 29.365133 L 27.760063 29.504659 L 27.923877 29.614213 L 27.965218 29.631266 L 28.105778 29.689661 L 28.138334 29.695862 L 28.149186 29.697929 L 28.299048 29.727901 L 28.370878 29.727901 L 28.417387 29.737203 L 28.426172 29.74082 L 28.480949 29.784229 L 28.492834 29.820402 L 28.495418 29.822986 L 28.495935 29.828153 L 28.50317 29.850374 L 28.503687 29.859159 L 28.503687 29.863293 L 28.501619 29.892749 L 28.500586 29.896883 L 28.500069 29.89895 L 28.500069 29.899467 L 28.497485 29.941842 L 28.497485 30.664795 L 28.497485 31.014128 L 28.497485 31.217216 L 28.497485 31.512805 L 28.500069 31.55518 L 28.545544 31.738114 L 28.62926 31.90658 L 28.747083 32.053341 L 28.893844 32.171163 L 29.062309 32.254879 L 29.245243 32.300354 L 29.287101 32.302938 L 30.708203 32.302938 L 30.746444 32.300354 L 30.749544 32.300354 L 30.750061 32.300354 L 30.750578 32.300354 L 30.794503 32.288985 L 30.810006 32.285368 L 30.932996 32.254879 L 31.101978 32.171163 L 31.248739 32.053341 L 31.291113 32.000114 L 31.320052 31.964457 L 31.343823 31.94172 L 31.354159 31.933968 L 31.417721 31.91123 L 31.48645 31.9257 L 31.50092 31.933968 L 31.515906 31.944303 L 31.516423 31.944303 L 31.520557 31.946887 L 31.711243 32.085897 L 31.921566 32.192867 L 32.146358 32.266248 L 32.379936 32.302938 L 32.616097 32.302938 L 32.849158 32.266248 L 32.953544 32.232141 L 33.02124 32.20992 L 33.069299 32.194417 L 33.072917 32.193384 L 33.07395 32.192867 L 33.201591 32.127755 L 33.284273 32.085897 L 33.475476 31.946887 L 33.642391 31.779972 L 33.645492 31.776355 L 33.646525 31.777389 L 33.683215 31.745349 L 33.689417 31.742249 L 33.758146 31.728296 L 33.822742 31.753617 L 33.830493 31.759302 L 33.835144 31.762919 L 33.849613 31.776872 L 33.853231 31.779972 L 34.020146 31.946887 L 34.211348 32.085897 L 34.421672 32.192867 L 34.646464 32.266248 L 34.879525 32.302938 L 35.115686 32.302938 L 35.349264 32.266248 L 35.45365 32.232141 L 35.521346 32.20992 L 35.568888 32.194417 L 35.573022 32.193384 L 35.574056 32.192867 L 35.701697 32.127755 L 35.784379 32.085897 L 35.975065 31.946887 L 36.142497 31.779972 L 36.145597 31.776355 L 36.146631 31.777389 L 36.183321 31.745349 L 36.189522 31.742249 L 36.257735 31.728296 L 36.322847 31.753617 L 36.330599 31.759302 L 36.33525 31.762919 L 36.349719 31.776872 L 36.353337 31.779972 L 36.520251 31.946887 L 36.711454 32.085897 L 36.921777 32.192867 L 37.14657 32.266248 L 37.379631 32.302938 L 37.615792 32.302938 L 37.848853 32.266248 L 37.953239 32.232141 L 38.021452 32.20992 L 38.068994 32.194417 L 38.073128 32.193384 L 38.073645 32.192867 L 38.201286 32.127755 L 38.283968 32.085897 L 38.475171 31.946887 L 38.642086 31.779972 L 38.645186 31.776355 L 38.646737 31.777389 L 38.683427 31.745349 L 38.689628 31.742249 L 38.757841 31.728296 L 38.822953 31.753617 L 38.830188 31.759302 L 38.835356 31.762919 L 38.849825 31.776872 L 38.853442 31.779972 L 39.020357 31.946887 L 39.211043 32.085897 L 39.421883 32.192867 L 39.646159 32.266248 L 39.879736 32.302938 L 40.115898 32.302938 L 40.348958 32.266248 L 40.453345 32.232141 L 40.521558 32.20992 L 40.5691 32.194417 L 40.572717 32.193384 L 40.573751 32.192867 L 40.701392 32.127755 L 40.784074 32.085897 L 40.975277 31.946887 L 41.142192 31.779972 L 41.145292 31.776355 L 41.146326 31.777389 L 41.183016 31.745349 L 41.189217 31.742249 L 41.257947 31.728296 L 41.323059 31.753617 L 41.330294 31.759302 L 41.334945 31.762919 L 41.349931 31.776872 L 41.353548 31.779972 L 41.520463 31.946887 L 41.711149 32.085897 L 41.921989 32.192867 L 42.146265 32.266248 L 42.379842 32.302938 L 42.616003 32.302938 L 42.849064 32.266248 L 42.953451 32.232141 L 43.021147 32.20992 L 43.069206 32.194417 L 43.072823 32.193384 L 43.073857 32.192867 L 43.201497 32.127755 L 43.28418 32.085897 L 43.475382 31.946887 L 43.642297 31.779972 L 43.702759 31.696773 L 43.745133 31.659566 L 43.751335 31.656466 L 43.820064 31.642513 L 43.885177 31.668351 L 43.896029 31.676619 L 43.920833 31.701941 L 43.930135 31.714343 L 44.085681 31.870406 L 44.263965 32.000114 L 44.460335 32.099849 L 44.670142 32.168062 L 44.679443 32.169613 L 44.747656 32.180465 L 44.747656 31.667834 A 0.89999998 0.89999998 0 0 1 44.097567 30.802771 L 44.097567 30.652393 A 0.89999998 0.89999998 0 0 1 44.747656 29.787329 L 44.747656 29.274699 L 44.670142 29.287101 L 44.460335 29.355314 L 44.288253 29.442647 L 44.263965 29.45505 L 44.085681 29.584757 L 44.006099 29.664339 L 43.930135 29.740304 L 43.916699 29.75839 L 43.874325 29.795081 L 43.868123 29.798181 L 43.79991 29.812134 L 43.734798 29.786812 L 43.723946 29.778544 L 43.699141 29.753223 L 43.642297 29.675191 L 43.470732 29.503625 L 43.463497 29.499491 L 43.368929 29.430762 L 43.28418 29.369267 L 43.116748 29.284001 L 43.073857 29.26178 L 42.849064 29.188916 L 42.616003 29.152226 L 42.379842 29.152226 L 42.146265 29.188916 L 41.921989 29.26178 L 41.744222 29.35273 L 41.711149 29.369267 L 41.520463 29.50776 L 41.394889 29.633333 L 41.369051 29.65297 L 41.301355 29.669507 L 41.235209 29.646252 L 41.192318 29.591475 L 40.856938 28.750183 L 40.848153 28.704191 L 40.848153 21.841561 L 40.863656 21.782133 L 40.876058 21.758879 L 40.897245 21.730973 L 47.806384 14.821834 L 47.859094 14.790312 L 47.884416 14.783077 L 47.8901 14.782043 L 47.919039 14.777909 L 54.354822 14.777909 L 54.36154 14.778426 L 54.427686 14.801681 L 55.135136 15.312244 L 55.154256 15.322579 L 55.170793 15.333431 L 55.195081 15.352035 L 55.247274 15.373739 L 55.258643 15.378906 L 55.274146 15.387691 L 55.293266 15.393376 L 55.304635 15.39751 L 55.337191 15.410946 L 55.340808 15.412496 L 55.348043 15.413529 L 55.349076 15.413529 L 55.45863 15.427999 L 55.506173 15.427999 L 55.515991 15.429032 L 55.522192 15.427999 L 57.337069 15.427999 L 57.454374 15.412496 L 57.600618 15.352035 L 57.726192 15.255916 L 57.82231 15.130343 L 57.841431 15.084351 L 57.882772 14.984098 L 57.898275 14.866793 L 57.898275 12.988354 L 57.882772 12.870532 L 57.882255 12.869499 L 57.881222 12.866915 L 57.82231 12.724805 L 57.813525 12.713436 L 57.726192 12.599231 L 57.604753 12.506213 L 57.586149 12.488643 L 57.582532 12.483993 L 57.555143 12.430766 L 57.554626 12.428182 L 57.558761 12.358419 L 57.563928 12.343949 L 57.575297 12.322245 L 57.580465 12.312944 L 57.681234 12.173934 L 57.788204 11.963611 L 57.861068 11.738818 L 57.882255 11.605493 L 57.898275 11.505758 L 57.898275 11.269596 L 57.861068 11.036019 L 57.788204 10.811743 L 57.719991 10.677384 L 57.681234 10.600903 L 57.551009 10.422103 L 57.546875 10.414351 L 57.370658 10.238652 L 57.363424 10.234517 L 57.293144 10.183358 L 57.184106 10.104293 L 57.102974 10.062952 L 56.973783 9.9968058 L 56.748991 9.9239421 L 56.51593 9.8872518 L 56.279769 9.8872518 z M 65.189819 10.189042 L 64.828601 10.55026 L 64.834285 10.564213 L 64.861157 10.574032 L 64.9118 10.610205 L 65.122123 10.717692 L 65.346399 10.790556 L 65.57946 10.827246 L 65.815621 10.827246 L 66.049198 10.790556 L 66.112244 10.780737 L 66.142216 10.760583 L 66.273474 10.717692 L 66.483797 10.610205 L 66.566996 10.55026 L 66.205778 10.189042 A 1 1 0 0 1 65.697799 10.327535 A 1 1 0 0 1 65.189819 10.189042 z M 100.19027 10.189042 L 99.829049 10.55026 L 99.834733 10.564213 L 99.861605 10.574032 L 99.912248 10.610205 L 100.12257 10.717692 L 100.34685 10.790556 L 100.57991 10.827246 L 100.81607 10.827246 L 101.04965 10.790556 L 101.11269 10.780737 L 101.14215 10.760583 L 101.27392 10.717692 L 101.48424 10.610205 L 101.56744 10.55026 L 101.20623 10.189042 L 101.20571 10.189042 A 1 1 0 0 1 100.69773 10.327535 A 1 1 0 0 1 100.19027 10.189042 z M 33.289958 10.288778 L 32.928739 10.649996 L 32.934424 10.664465 L 32.961296 10.673767 L 33.011422 10.710457 L 33.221745 10.817428 L 33.446537 10.890808 L 33.679598 10.927498 L 33.915759 10.927498 L 34.14882 10.890808 L 34.212382 10.880473 L 34.241838 10.860319 L 34.373612 10.817428 L 34.583936 10.710457 L 34.667135 10.649996 L 34.3054 10.288778 A 1 1 0 0 1 33.797937 10.427271 A 1 1 0 0 1 33.289958 10.288778 z M 56.397591 10.487732 A 0.89999998 0.89999998 0 0 1 57.297795 11.387419 A 0.89999998 0.89999998 0 0 1 56.397591 12.287622 A 0.89999998 0.89999998 0 0 1 55.497904 11.387419 A 0.89999998 0.89999998 0 0 1 56.397591 10.487732 z M 24.497729 10.587467 A 0.89999998 0.89999998 0 0 1 25.397933 11.487671 A 0.89999998 0.89999998 0 0 1 24.497729 12.387358 A 0.89999998 0.89999998 0 0 1 23.598043 11.487671 A 0.89999998 0.89999998 0 0 1 24.497729 10.587467 z M 55.497904 13.027629 L 57.297795 13.027629 L 57.297795 14.827519 L 55.497904 14.827519 L 55.497904 14.823901 L 55.489636 14.821834 L 54.602352 14.181047 L 54.601318 14.180013 L 54.600285 14.177946 L 47.599162 14.177946 L 40.248189 21.528918 L 40.248189 28.861804 L 40.250773 28.864388 L 40.799577 30.241565 A 0.89999998 0.89999998 0 0 1 40.854871 30.380058 L 40.854871 30.380575 A 0.89999998 0.89999998 0 0 1 40.898279 30.652393 L 40.898279 30.802771 A 0.89999998 0.89999998 0 0 1 39.998075 31.702974 A 0.89999998 0.89999998 0 0 1 39.097872 30.802771 L 39.097872 30.652393 A 0.89999998 0.89999998 0 0 1 39.140763 30.382125 L 39.140763 30.380058 L 39.143347 30.37334 A 0.89999998 0.89999998 0 0 1 39.189339 30.257585 L 39.744861 28.864388 L 39.747445 28.860254 L 39.747961 28.860254 L 39.747961 21.448303 A 0.25 0.25 0 0 1 39.820308 21.249866 L 47.320109 13.750065 A 0.25 0.25 0 0 1 47.518547 13.677718 L 54.600285 13.677718 L 54.602352 13.674101 L 55.488086 13.034347 L 55.489636 13.033313 L 55.496354 13.031246 L 55.497904 13.031763 L 55.497904 13.027629 z M 23.598043 13.127364 L 25.397933 13.127364 L 25.397933 14.927254 L 25.393799 14.927254 L 25.391732 14.935522 L 24.751461 15.822807 L 24.74991 15.824357 L 24.747843 15.825391 L 24.747843 21.724255 L 28.601355 25.578284 L 31.776355 25.578284 A 0.25 0.25 0 0 1 31.974792 25.650631 L 35.060392 28.737781 L 35.061943 28.738298 L 35.165812 28.84165 L 35.173047 28.848885 A 0.25 0.25 0 0 1 35.247978 29.027169 L 35.247978 29.027686 L 35.78748 30.218827 A 0.89999998 0.89999998 0 0 1 35.898584 30.652393 L 35.898584 30.802771 A 0.89999998 0.89999998 0 0 1 34.997864 31.702974 A 0.89999998 0.89999998 0 0 1 34.09766 30.802771 L 34.09766 30.652393 A 0.89999998 0.89999998 0 0 1 34.208248 30.219861 L 34.208248 30.218827 L 34.715194 29.100033 L 31.695223 26.077995 L 28.498002 26.077995 A 0.25 0.25 0 0 1 28.323853 26.007198 A 0.25 0.25 0 0 1 28.320235 26.004097 L 24.324097 22.007442 A 0.25 0.25 0 0 1 24.320479 22.003825 A 0.25 0.25 0 0 1 24.310661 21.992973 A 0.25 0.25 0 0 1 24.300326 21.981087 A 0.25 0.25 0 0 1 24.282756 21.955249 A 0.25 0.25 0 0 0 24.282239 21.954732 A 0.25 0.25 0 0 1 24.248132 21.805387 L 24.248132 15.825391 L 24.244515 15.822807 L 23.603727 14.935522 L 23.601143 14.928805 L 23.60166 14.927254 L 23.598043 14.927254 L 23.598043 13.127364 z M 61.071724 14.227039 L 60.989042 14.239958 L 60.823161 14.266313 L 60.667098 14.316956 L 60.583382 14.344344 L 60.42887 14.422892 L 60.387012 14.44408 L 60.359106 14.458549 L 60.154985 14.60686 L 59.977218 14.784627 L 59.977218 14.785144 L 59.903837 14.885913 L 59.828906 14.988749 L 59.78033 15.084351 L 59.717802 15.206824 L 59.717285 15.207857 L 59.716768 15.208891 L 59.714701 15.213025 L 59.712118 15.221293 L 59.700232 15.25695 L 59.63667 15.452804 L 59.617033 15.57631 L 59.615483 15.588196 L 59.612382 15.600598 L 59.611348 15.604732 L 59.598946 15.681213 L 59.533834 16.335437 L 59.525049 16.370577 L 59.500244 16.430522 L 59.493526 16.446541 L 59.48009 16.479614 L 59.467688 16.542143 L 59.447534 16.643945 L 59.447534 16.676501 L 59.447017 16.679602 L 59.446501 16.685286 L 59.442367 16.729728 L 59.442367 17.438212 L 59.445984 17.468184 L 59.447534 17.484204 L 59.447534 21.285006 L 59.439266 21.328931 L 59.249097 21.831742 L 59.019137 22.439974 L 59.00415 22.479765 L 58.9995 22.4901 L 58.998466 22.494751 L 58.996916 22.498368 L 58.970044 22.569682 L 58.960225 22.61154 L 58.931803 22.69939 L 58.89718 22.917464 L 58.89718 23.137606 L 58.931803 23.35568 L 59.000016 23.56497 L 59.099752 23.76134 L 59.22946 23.940141 L 59.385522 24.095687 L 59.563806 24.225395 L 59.760177 24.325647 L 59.969983 24.393343 L 60.187541 24.427966 L 60.408199 24.427966 L 60.625757 24.393343 L 60.73066 24.359753 L 60.835046 24.325647 L 60.835563 24.325647 L 60.903259 24.290507 L 61.031934 24.225395 L 61.054671 24.208858 L 61.060872 24.204207 L 61.210217 24.095687 L 61.365763 23.940141 L 61.380233 23.920504 L 61.495471 23.76134 L 61.499605 23.753589 L 61.527511 23.698812 L 61.595723 23.56497 L 61.663936 23.35568 L 61.698043 23.137606 L 61.698043 22.917464 L 61.663936 22.69939 L 61.649467 22.654948 L 61.646883 22.647196 L 61.631897 22.588285 L 61.631897 22.587252 L 61.62828 22.578467 L 61.625179 22.569682 L 61.609676 22.528341 L 61.599341 22.501469 L 61.598307 22.498368 L 61.595723 22.4901 L 61.593656 22.486483 L 61.591589 22.479765 L 61.156474 21.328931 L 61.148206 21.285006 L 61.148206 17.565336 L 61.151306 17.538981 L 61.152856 17.531746 L 61.15544 17.521928 L 61.15544 17.521411 L 61.155957 17.520894 L 61.156474 17.517794 L 61.175594 17.490922 L 61.194198 17.463017 L 61.195748 17.4625 L 61.196781 17.46095 L 61.227787 17.448547 L 61.258276 17.435111 L 61.259827 17.434595 L 61.344059 17.426326 L 61.365247 17.421676 L 61.572469 17.388603 L 61.807597 17.312122 L 61.811214 17.311088 L 61.814832 17.309538 L 61.869092 17.281632 L 61.89338 17.26923 L 62.036523 17.196366 L 62.102669 17.148307 L 62.240645 17.048055 L 62.418412 16.870288 L 62.49386 16.766418 L 62.566724 16.666166 L 62.680929 16.44189 L 62.705216 16.367476 L 62.75896 16.202112 L 62.782214 16.053284 L 62.798234 15.953548 L 62.798234 15.701367 L 62.793583 15.670361 L 62.779114 15.581478 L 62.777047 15.568042 L 62.75896 15.452804 L 62.680929 15.213025 L 62.566724 14.988749 L 62.418412 14.785144 L 62.418412 14.784627 L 62.240645 14.60686 L 62.036523 14.458549 L 61.91095 14.39447 L 61.812248 14.344344 L 61.572469 14.266313 L 61.406588 14.239958 L 61.323905 14.227039 L 61.071724 14.227039 z M 96.071655 14.227039 L 95.988973 14.239958 L 95.823092 14.266313 L 95.667546 14.316956 L 95.583313 14.344344 L 95.4288 14.422892 L 95.386943 14.44408 L 95.359037 14.458549 L 95.154915 14.60686 L 94.977148 14.784627 L 94.977148 14.785144 L 94.903768 14.885913 L 94.828837 14.988749 L 94.780261 15.084351 L 94.717733 15.206824 L 94.717216 15.207857 L 94.716699 15.208891 L 94.714632 15.213025 L 94.712048 15.221293 L 94.636601 15.452804 L 94.597327 15.701367 L 94.597327 15.709635 L 94.597327 15.953548 L 94.636601 16.202112 L 94.714632 16.44189 L 94.828837 16.666166 L 94.977148 16.870288 L 95.154915 17.048055 L 95.359037 17.196366 L 95.583313 17.310571 L 95.823092 17.388603 L 96.071655 17.427877 L 96.323836 17.427877 L 96.5724 17.388603 L 96.659216 17.360181 L 96.807528 17.312122 L 96.811145 17.311088 L 96.814762 17.309538 L 96.869539 17.281632 L 96.893827 17.26923 L 97.036454 17.196366 L 97.1026 17.148307 L 97.240576 17.048055 L 97.418343 16.870288 L 97.493791 16.766418 L 97.566654 16.666166 L 97.680859 16.44189 L 97.705147 16.367476 L 97.758891 16.202112 L 97.782145 16.053284 L 97.798165 15.953548 L 97.798165 15.701367 L 97.793514 15.670361 L 97.779045 15.581478 L 97.776978 15.568042 L 97.758891 15.452804 L 97.680859 15.213025 L 97.566654 14.988749 L 97.418343 14.785144 L 97.418343 14.784627 L 97.240576 14.60686 L 97.036454 14.458549 L 96.910881 14.39447 L 96.812179 14.344344 L 96.5724 14.266313 L 96.406519 14.239958 L 96.323836 14.227039 L 96.071655 14.227039 z M 29.171863 14.326774 L 29.062826 14.344344 L 28.922782 14.366565 L 28.767236 14.417208 L 28.683521 14.44408 L 28.655098 14.458549 L 28.529008 14.523145 L 28.458728 14.558801 L 28.255123 14.706596 L 28.076839 14.88488 L 28.023612 14.95826 L 27.963151 15.041459 L 27.950749 15.058512 L 27.932145 15.084351 L 27.929045 15.088485 L 27.881502 15.180986 L 27.856698 15.230078 L 27.81794 15.306559 L 27.816907 15.30811 L 27.816907 15.308626 L 27.814323 15.313277 L 27.811739 15.321029 L 27.736808 15.552539 L 27.697534 15.801619 L 27.697534 16.053284 L 27.736808 16.302364 L 27.814323 16.542143 L 27.92336 16.755566 L 27.932145 16.778304 L 27.94248 16.814994 L 27.947131 16.848584 L 27.947131 19.784839 L 27.93938 19.828764 L 27.783834 20.240108 L 27.539921 20.885547 L 27.504264 20.980115 L 27.499613 20.989933 L 27.49858 20.994584 L 27.49703 20.998718 L 27.470158 21.069515 L 27.460339 21.111373 L 27.431917 21.19974 L 27.397294 21.417297 L 27.397294 21.637956 L 27.431917 21.855514 L 27.50013 22.06532 L 27.599866 22.26169 L 27.729574 22.439974 L 27.885636 22.596037 L 28.06392 22.725228 L 28.260291 22.82548 L 28.46958 22.893693 L 28.687655 22.927799 L 28.907796 22.927799 L 29.125871 22.893693 L 29.230257 22.859587 L 29.33516 22.82548 L 29.403373 22.790857 L 29.420943 22.782072 L 29.432829 22.775871 L 29.532048 22.725228 L 29.628682 22.654948 L 29.710331 22.596037 L 29.710331 22.59552 L 29.865877 22.439974 L 29.917037 22.369694 L 29.995585 22.26169 L 29.999719 22.253422 L 30.027625 22.198645 L 30.095837 22.06532 L 30.16405 21.855514 L 30.18162 21.743376 L 30.198157 21.637956 L 30.198157 21.417297 L 30.186788 21.343917 L 30.16405 21.19974 L 30.149064 21.154781 L 30.146997 21.147546 L 30.132011 21.088118 L 30.132011 21.087602 L 30.126843 21.073649 L 30.125293 21.069515 L 30.10824 21.024556 L 30.099455 21.001302 L 30.098421 20.998718 L 30.095837 20.989933 L 30.09377 20.986316 L 30.091703 20.980115 L 29.656071 19.828764 L 29.648319 19.784839 L 29.648319 17.599443 L 29.658138 17.551383 L 29.662272 17.541565 L 29.692244 17.504358 L 29.693278 17.502808 L 29.694828 17.501257 L 29.706197 17.487305 L 29.719116 17.47852 L 29.751156 17.463017 L 29.755806 17.461466 L 29.803349 17.445964 L 29.911869 17.410824 L 30.018323 17.356563 L 30.136662 17.296619 L 30.1625 17.277498 L 30.340267 17.148307 L 30.518551 16.970024 L 30.666345 16.766418 L 30.781067 16.542143 L 30.809489 16.454293 L 30.859098 16.302364 L 30.878219 16.178857 L 30.898372 16.053284 L 30.898372 15.801619 L 30.8684 15.611967 L 30.859098 15.552539 L 30.781067 15.313277 L 30.666345 15.088485 L 30.518551 14.88488 L 30.340267 14.706596 L 30.136662 14.558801 L 30.109273 14.544849 L 29.912386 14.44408 L 29.891199 14.437362 L 29.672607 14.366565 L 29.532564 14.344344 L 29.423527 14.326774 L 29.171863 14.326774 z M 65.57946 14.327291 L 65.282837 14.374316 L 65.253381 14.39447 L 65.19137 14.415141 L 65.122123 14.437362 L 64.9118 14.544849 L 64.892163 14.558801 L 64.828601 14.604793 L 65.189819 14.966012 A 1 1 0 0 1 65.697799 14.827519 A 1 1 0 0 1 66.205778 14.966012 L 66.566996 14.604793 L 66.483797 14.544849 L 66.273474 14.437362 L 66.049198 14.364498 L 65.815621 14.327291 L 65.57946 14.327291 z M 100.57939 14.327291 L 100.28277 14.374316 L 100.25331 14.39447 L 100.1913 14.415141 L 100.12154 14.437362 L 99.911214 14.544849 L 99.892094 14.558801 L 99.828532 14.604793 L 100.18975 14.966012 A 1 1 0 0 1 100.69773 14.827519 A 1 1 0 0 1 101.20519 14.966012 A 1 1 0 0 1 101.20571 14.966012 L 101.56641 14.604793 L 101.48373 14.544849 L 101.2734 14.437362 L 101.04861 14.364498 L 100.81555 14.327291 L 100.57939 14.327291 z M 33.679598 14.427543 L 33.382975 14.474569 L 33.35352 14.494722 L 33.291508 14.514876 L 33.221745 14.537614 L 33.015556 14.642517 L 33.011422 14.644584 L 32.928739 14.705046 L 33.289958 15.066264 A 1 1 0 0 1 33.797937 14.927254 A 1 1 0 0 1 34.305916 15.066264 L 34.667135 14.705046 L 34.583936 14.644584 L 34.373612 14.537614 L 34.14882 14.464233 L 33.915759 14.427543 L 33.679598 14.427543 z M 61.197815 14.827519 A 1 1 0 0 1 62.197754 15.827458 A 1 1 0 0 1 61.284115 16.823779 L 60.60922 16.890959 L 60.546692 16.89716 L 60.546692 21.434351 L 60.550826 21.439001 L 61.024699 22.693188 A 0.80000001 0.80000001 0 0 1 61.097563 23.027535 A 0.80000001 0.80000001 0 0 1 60.297611 23.827486 A 0.80000001 0.80000001 0 0 1 59.49766 23.027535 A 0.80000001 0.80000001 0 0 1 59.570007 22.694739 L 60.044914 21.439001 L 60.046981 21.435901 L 60.046981 16.726628 A 0.25 0.25 0 0 1 60.120878 16.549377 L 60.201493 15.741675 A 1 1 0 0 1 60.201493 15.741158 L 60.201493 15.740641 A 1 1 0 0 1 61.197815 14.827519 z M 96.197746 14.827519 A 1 1 0 0 1 97.197685 15.827458 A 1 1 0 0 1 96.197746 16.827397 A 1 1 0 0 1 95.197807 15.827458 A 1 1 0 0 1 96.197746 14.827519 z M 29.297953 14.927254 A 1 1 0 0 1 30.297892 15.92771 A 1 1 0 0 1 29.297953 16.927649 A 1 1 0 0 1 29.294853 16.927649 L 29.292786 16.933333 L 29.046806 17.21652 L 29.046806 19.934701 L 29.050423 19.938835 L 29.524813 21.193022 A 0.80000001 0.80000001 0 0 1 29.597677 21.527368 A 0.80000001 0.80000001 0 0 1 28.797725 22.327319 A 0.80000001 0.80000001 0 0 1 27.997774 21.527368 A 0.80000001 0.80000001 0 0 1 28.068054 21.200256 L 28.545028 19.938835 L 28.547095 19.935734 L 28.547095 16.588135 A 1 1 0 0 1 28.298014 15.92771 A 1 1 0 0 1 29.297953 14.927254 z M 64.475134 14.95826 L 64.461182 14.964461 L 64.451363 14.990816 L 64.414673 15.041459 L 64.307703 15.251782 L 64.234839 15.476058 L 64.199182 15.701367 L 64.197632 15.709119 L 64.197632 15.709635 L 64.197632 15.945797 L 64.234839 16.178857 L 64.307703 16.403133 L 64.414673 16.613456 L 64.428109 16.63206 L 64.451363 16.664099 L 64.455497 16.669784 L 64.461698 16.690971 L 64.475134 16.696655 L 64.836353 16.335437 A 1 1 0 0 1 64.69786 15.827458 A 1 1 0 0 1 64.836353 15.319478 L 64.475134 14.95826 z M 66.920463 14.95826 L 66.559245 15.319478 A 1 1 0 0 1 66.697738 15.827458 A 1 1 0 0 1 66.559245 16.335437 L 66.920463 16.696655 L 66.924597 16.690971 L 66.980924 16.613456 L 67.087895 16.403133 L 67.099264 16.367476 L 67.160758 16.178857 L 67.161275 16.17524 L 67.197965 15.945797 L 67.197965 15.709635 L 67.160758 15.476058 L 67.087895 15.251782 L 66.980924 15.041459 L 66.920463 14.95826 z M 99.475065 14.95826 L 99.461112 14.964461 L 99.451294 14.990816 L 99.41512 15.041459 L 99.307633 15.251782 L 99.23477 15.476058 L 99.199113 15.701367 L 99.197563 15.709119 L 99.197563 15.709635 L 99.197563 15.945797 L 99.23477 16.178857 L 99.307633 16.403133 L 99.41512 16.613456 L 99.42804 16.63206 L 99.451294 16.664099 L 99.455428 16.669784 L 99.461629 16.690971 L 99.475582 16.696655 L 99.836283 16.335954 A 1 1 0 0 1 99.697791 15.827458 A 1 1 0 0 1 99.836283 15.319478 L 99.475065 14.95826 z M 101.91988 14.95826 L 101.55918 15.319478 A 1 1 0 0 1 101.69767 15.827458 A 1 1 0 0 1 101.55918 16.335437 L 101.92039 16.696655 L 101.92453 16.690971 L 101.98086 16.613456 L 102.08783 16.403133 L 102.09971 16.367476 L 102.16069 16.178857 L 102.16121 16.17524 L 102.1979 15.945797 L 102.1979 15.709635 L 102.19738 15.709635 L 102.16069 15.476058 L 102.08783 15.251782 L 101.98034 15.041459 L 101.91988 14.95826 z M 32.575273 15.058512 L 32.560803 15.064197 L 32.551501 15.091069 L 32.514811 15.141195 L 32.407841 15.351518 L 32.33446 15.57631 L 32.29777 15.808854 L 32.29777 15.809371 L 32.29777 16.045532 L 32.298804 16.053284 L 32.33446 16.278593 L 32.407841 16.503385 L 32.514811 16.713708 L 32.54375 16.753499 L 32.551501 16.763835 L 32.555636 16.770036 L 32.561837 16.791223 L 32.575273 16.796391 L 32.936491 16.435173 A 1 1 0 0 1 32.797998 15.92771 A 1 1 0 0 1 32.936491 15.419731 L 32.575273 15.058512 z M 35.020601 15.058512 L 34.659383 15.419731 A 1 1 0 0 1 34.797876 15.92771 A 1 1 0 0 1 34.659383 16.435173 L 35.020601 16.796391 L 35.080546 16.713708 L 35.188033 16.503385 L 35.204053 16.454293 L 35.260897 16.278593 L 35.262447 16.267741 L 35.297587 16.045532 L 35.297587 15.809371 L 35.260897 15.57631 L 35.188033 15.351518 L 35.080546 15.141195 L 35.020601 15.058512 z M 3.4494019 15.373222 L 3.3124593 15.390792 L 3.2928223 15.393376 L 3.2494141 15.411462 L 3.2468302 15.412496 L 3.146578 15.454354 L 3.021521 15.550472 L 2.9248861 15.675529 L 2.9145508 15.701367 L 2.8644246 15.821773 L 2.8628743 15.835726 L 2.8489217 15.878617 L 2.8344523 15.904972 L 2.813265 15.933394 L 2.7734741 15.973185 L 2.7502197 15.986104 L 2.7285156 16.001607 L 2.7202474 16.004708 L 2.7161133 16.005741 L 2.7078451 16.009359 L 2.7042277 16.010909 L 2.6778727 16.01711 L 2.6680542 16.01866 L 2.6163778 16.039848 L 2.5218099 16.079122 L 2.3962362 16.17524 L 2.300118 16.300814 L 2.291333 16.322001 L 2.2396566 16.446541 L 2.218986 16.603638 L 2.218986 16.853752 L 2.2396566 17.010331 L 2.300118 17.156059 L 2.3962362 17.281632 L 2.5218099 17.377751 L 2.6680542 17.438212 L 2.6814901 17.440279 L 2.7248983 17.454232 L 2.7512533 17.468701 L 2.7796753 17.489889 L 2.8189494 17.529679 L 2.8318685 17.552934 L 2.8478882 17.574638 L 2.8509888 17.582389 L 2.8515055 17.586523 L 2.8556396 17.594792 L 2.8566732 17.598926 L 2.8633911 17.625281 L 2.8644246 17.635099 L 2.9248861 17.781344 L 3.021521 17.906401 L 3.146578 18.003035 L 3.2928223 18.063497 L 3.4494019 18.084167 L 3.6995158 18.084167 L 3.7072673 18.083134 L 3.8560954 18.063497 L 4.0023397 18.003035 L 4.1279134 17.906401 L 4.2188639 17.787545 L 4.2204142 17.785478 L 4.2240316 17.781344 L 4.284493 17.635099 L 4.2860433 17.621147 L 4.3005127 17.578255 L 4.3144653 17.5519 L 4.3356527 17.523478 L 4.3754435 17.483687 L 4.3992147 17.470768 L 4.420402 17.455265 L 4.4286702 17.452165 L 4.4328044 17.451131 L 4.4410726 17.447514 L 4.4446899 17.445964 L 4.4710449 17.439762 L 4.4813802 17.438212 L 4.6271077 17.377751 L 4.7526815 17.281632 L 4.8487996 17.156059 L 4.9092611 17.010331 L 4.9278646 16.870288 L 4.9299316 16.853752 L 4.9299316 16.607255 L 4.9299316 16.603638 L 4.9102946 16.45481 L 4.9102946 16.454293 L 4.9102946 16.450675 L 4.9092611 16.446541 L 4.8487996 16.300814 L 4.7526815 16.17524 L 4.6271077 16.079122 L 4.4813802 16.01866 L 4.4674276 16.016593 L 4.4240194 16.002641 L 4.3976644 15.988171 L 4.3692424 15.966984 L 4.3299683 15.927193 L 4.3170492 15.903939 L 4.3010295 15.882751 L 4.2984456 15.874483 L 4.2974121 15.870349 L 4.2937948 15.862081 L 4.2922445 15.857947 L 4.2855265 15.831592 L 4.284493 15.821773 L 4.2240316 15.675529 L 4.1279134 15.550472 L 4.0023397 15.454354 L 3.8560954 15.393376 L 3.8519613 15.392859 L 3.8483439 15.392342 L 3.8364583 15.390792 L 3.8090698 15.387174 L 3.6995158 15.373222 L 3.4494019 15.373222 z M 3.4494019 15.978353 L 3.6995158 15.978353 L 3.6995158 16.603638 L 4.3242839 16.603638 L 4.3242839 16.853752 L 3.6995158 16.853752 L 3.6995158 17.47852 L 3.4494019 17.47852 L 3.4494019 16.853752 L 2.8246338 16.853752 L 2.8246338 16.603638 L 3.4494019 16.603638 L 3.4494019 15.978353 z M 65.189819 16.688904 L 64.828601 17.050122 L 64.834285 17.064075 L 64.861157 17.073893 L 64.9118 17.110583 L 65.122123 17.217554 L 65.346399 17.290417 L 65.57946 17.327625 L 65.815621 17.327625 L 66.049198 17.290417 L 66.112244 17.280599 L 66.142216 17.260445 L 66.273474 17.217554 L 66.483797 17.110583 L 66.566996 17.050122 L 66.205778 16.688904 A 1 1 0 0 1 65.697799 16.827397 A 1 1 0 0 1 65.189819 16.688904 z M 100.19027 16.688904 L 99.829049 17.050122 L 99.834733 17.064075 L 99.861605 17.073893 L 99.912248 17.110583 L 100.12257 17.217554 L 100.34685 17.290417 L 100.57991 17.327625 L 100.81607 17.327625 L 101.04965 17.290417 L 101.11269 17.280599 L 101.14215 17.260445 L 101.27392 17.217554 L 101.48424 17.110583 L 101.56744 17.050122 L 101.20571 16.688904 A 1 1 0 0 1 100.69773 16.827397 A 1 1 0 0 1 100.19027 16.688904 z M 33.289958 16.789156 L 32.928739 17.150374 L 32.934424 17.164327 L 32.961296 17.174146 L 33.011422 17.210319 L 33.221745 17.317806 L 33.446537 17.39067 L 33.679598 17.42736 L 33.915759 17.42736 L 34.14882 17.39067 L 34.212382 17.380334 L 34.241838 17.360181 L 34.373612 17.317806 L 34.583936 17.210319 L 34.667135 17.150374 L 34.305916 16.789156 L 34.3054 16.789156 A 1 1 0 0 1 33.797937 16.927649 A 1 1 0 0 1 33.289958 16.789156 z M 90.4875 17.927071 L 90.378463 17.944124 L 90.269942 17.961694 L 90.060136 18.02939 L 89.953682 18.084167 L 89.869967 18.126542 L 89.863765 18.129643 L 89.85343 18.137394 L 89.852913 18.137394 L 89.700985 18.247982 L 89.685482 18.259351 L 89.529419 18.414897 L 89.529419 18.415413 L 89.416248 18.570443 L 89.400228 18.593697 L 89.334599 18.721855 L 89.299976 18.790068 L 89.231763 18.999357 L 89.197139 19.217432 L 89.197139 19.225183 L 89.197139 19.437573 L 89.231763 19.655648 L 89.299976 19.864937 L 89.400228 20.061308 L 89.529419 20.240108 L 89.685482 20.395654 L 89.863765 20.525362 L 90.060136 20.625614 L 90.269942 20.693311 L 90.4875 20.727934 L 90.708158 20.727934 L 90.925716 20.693311 L 91.030619 20.659721 L 91.135522 20.625614 L 91.203219 20.590474 L 91.331893 20.525362 L 91.354631 20.508826 L 91.360832 20.504175 L 91.510177 20.395654 L 91.666239 20.240108 L 91.680192 20.220471 L 91.795431 20.061308 L 91.799565 20.053556 L 91.82747 19.998779 L 91.895683 19.864937 L 91.963896 19.655648 L 91.998519 19.437573 L 91.998519 19.217432 L 91.963896 18.999357 L 91.895683 18.790068 L 91.795431 18.593697 L 91.666239 18.415413 L 91.666239 18.414897 L 91.510177 18.259351 L 91.331893 18.129643 L 91.135522 18.02939 L 90.925716 17.961694 L 90.780505 17.93844 L 90.766036 17.936373 L 90.708158 17.927071 L 90.4875 17.927071 z M 85.495557 18.027323 L 85.293502 18.059363 L 85.098682 18.122925 L 84.981376 18.182353 L 84.916264 18.215942 L 84.871822 18.247982 L 85.237174 18.613334 A 0.80000001 0.80000001 0 0 1 85.597876 18.527551 A 0.80000001 0.80000001 0 0 1 85.958061 18.613334 A 0.80000001 0.80000001 0 0 1 85.958577 18.613334 L 86.000952 18.570443 L 86.32393 18.247982 L 86.278971 18.215942 L 86.096554 18.122925 L 85.977181 18.084167 L 85.90225 18.059363 L 85.700195 18.027323 L 85.495557 18.027323 z M 90.597571 18.527551 A 0.80000001 0.80000001 0 0 1 91.398039 19.327502 A 0.80000001 0.80000001 0 0 1 90.597571 20.127454 A 0.80000001 0.80000001 0 0 1 89.79762 19.327502 A 0.80000001 0.80000001 0 0 1 90.597571 18.527551 z M 84.518355 18.601449 L 84.504403 18.60765 L 84.494584 18.634005 L 84.485799 18.646407 L 84.392782 18.828308 L 84.329736 19.023128 L 84.297697 19.225183 L 84.297697 19.429822 L 84.329736 19.631877 L 84.392782 19.826697 L 84.485799 20.009115 L 84.518355 20.053556 L 84.883708 19.688204 A 0.80000001 0.80000001 0 0 1 84.797925 19.327502 A 0.80000001 0.80000001 0 0 1 84.883708 18.966801 L 84.518355 18.601449 z M 86.677397 18.601449 L 86.312044 18.966801 A 0.80000001 0.80000001 0 0 1 86.397827 19.327502 A 0.80000001 0.80000001 0 0 1 86.312044 19.688204 L 86.677397 20.053556 L 86.709436 20.009115 L 86.743026 19.943486 L 86.802454 19.826697 L 86.866016 19.631877 L 86.898055 19.429822 L 86.898055 19.225183 L 86.866016 19.023128 L 86.818473 18.877917 L 86.802454 18.828308 L 86.709436 18.646407 L 86.677397 18.601449 z M 85.237174 20.041671 L 84.871822 20.407023 L 84.916264 20.439579 L 85.085246 20.525362 L 85.098682 20.53208 L 85.293502 20.595642 L 85.495557 20.627681 L 85.700195 20.627681 L 85.90225 20.595642 L 86.096554 20.53208 L 86.193188 20.483504 L 86.278971 20.439579 L 86.32393 20.407023 L 85.958577 20.041671 A 0.80000001 0.80000001 0 0 1 85.597876 20.127454 A 0.80000001 0.80000001 0 0 1 85.237174 20.041671 z M 33.695618 20.227706 L 33.493563 20.259745 L 33.298743 20.322791 L 33.181437 20.382735 L 33.116325 20.415808 L 33.071883 20.447847 L 33.437236 20.8132 A 0.80000001 0.80000001 0 0 1 33.797937 20.727417 A 0.80000001 0.80000001 0 0 1 34.158122 20.8132 L 34.243905 20.727934 L 34.523474 20.447847 L 34.479032 20.415808 L 34.296615 20.322791 L 34.199463 20.291268 L 34.102311 20.259745 L 33.900256 20.227706 L 33.695618 20.227706 z M 32.718416 20.801831 L 32.703947 20.807515 L 32.694645 20.834387 L 32.68586 20.846273 L 32.592843 21.028691 L 32.529797 21.222994 L 32.497758 21.425049 L 32.497758 21.629687 L 32.529797 21.831742 L 32.592843 22.026562 L 32.68586 22.20898 L 32.718416 22.253422 L 33.083769 21.88807 A 0.80000001 0.80000001 0 0 1 32.997986 21.527368 A 0.80000001 0.80000001 0 0 1 33.083769 21.167183 L 32.718416 20.801831 z M 34.877458 20.801831 L 34.512105 21.167183 A 0.80000001 0.80000001 0 0 1 34.597888 21.527368 A 0.80000001 0.80000001 0 0 1 34.512105 21.88807 L 34.877458 22.253422 L 34.909497 22.20898 L 34.957556 22.115446 L 35.002515 22.026562 L 35.06556 21.831742 L 35.073828 21.782133 L 35.097599 21.629687 L 35.097599 21.425049 L 35.06556 21.222994 L 35.029386 21.111373 L 35.002515 21.028691 L 34.909497 20.846273 L 34.877458 20.801831 z M 65.195504 21.727356 L 64.996033 21.758879 L 64.993449 21.759395 L 64.798629 21.822957 L 64.68184 21.882385 L 64.616211 21.915458 L 64.571769 21.948014 L 64.937122 22.313367 A 0.80000001 0.80000001 0 0 1 65.297823 22.227584 A 0.80000001 0.80000001 0 0 1 65.658525 22.313367 L 65.710201 22.26169 L 66.023877 21.948014 L 65.978918 21.915458 L 65.797017 21.822957 L 65.699349 21.790918 L 65.602197 21.759395 L 65.400142 21.727356 L 65.195504 21.727356 z M 33.437236 22.241536 L 33.071883 22.606889 L 33.116325 22.639445 L 33.285307 22.725228 L 33.298743 22.732463 L 33.493563 22.795508 L 33.695618 22.827547 L 33.900256 22.827547 L 34.102311 22.795508 L 34.296615 22.732463 L 34.403585 22.678202 L 34.479032 22.639445 L 34.523474 22.606889 L 34.158122 22.241536 A 0.80000001 0.80000001 0 0 1 33.797937 22.327319 A 0.80000001 0.80000001 0 0 1 33.437236 22.241536 z M 64.218302 22.301481 L 64.20435 22.307166 L 64.194531 22.334037 L 64.185746 22.34644 L 64.093245 22.528341 L 64.029683 22.723161 L 63.997644 22.925216 L 63.997644 23.129854 L 64.029683 23.331909 L 64.093245 23.526729 L 64.185746 23.709147 L 64.218302 23.753589 L 64.583655 23.388236 A 0.80000001 0.80000001 0 0 1 64.497872 23.027535 A 0.80000001 0.80000001 0 0 1 64.583655 22.666833 L 64.218302 22.301481 z M 66.377344 22.301481 L 66.011991 22.666833 A 0.80000001 0.80000001 0 0 1 66.097774 23.027535 A 0.80000001 0.80000001 0 0 1 66.011991 23.388236 L 66.377344 23.753589 L 66.409383 23.709147 L 66.442973 23.643518 L 66.502401 23.526729 L 66.565963 23.331909 L 66.598002 23.129854 L 66.598002 22.925216 L 66.565963 22.723161 L 66.524622 22.596037 L 66.502401 22.528341 L 66.409383 22.34644 L 66.377344 22.301481 z M 64.937122 23.741703 L 64.571769 24.107056 L 64.616211 24.139612 L 64.785193 24.225395 L 64.798629 24.232113 L 64.993449 24.295675 L 65.195504 24.327714 L 65.400142 24.327714 L 65.602197 24.295675 L 65.797017 24.232113 L 65.893136 24.183537 L 65.978918 24.139612 L 66.023877 24.107056 L 65.658525 23.741703 A 0.80000001 0.80000001 0 0 1 65.297823 23.827486 A 0.80000001 0.80000001 0 0 1 64.937122 23.741703 z M 24.295158 25.027413 L 24.09362 25.059452 L 23.8988 25.123014 L 23.811983 25.166939 L 23.716382 25.215515 L 23.67194 25.248071 L 24.037292 25.613424 A 0.80000001 0.80000001 0 0 1 24.397994 25.527641 A 0.80000001 0.80000001 0 0 1 24.758179 25.613424 L 25.123531 25.248071 L 25.079089 25.215515 L 24.896672 25.123014 L 24.79952 25.090975 L 24.702368 25.059452 L 24.500313 25.027413 L 24.295675 25.027413 L 24.295158 25.027413 z M 23.318473 25.601538 L 23.304004 25.607222 L 23.294702 25.634094 L 23.285917 25.64598 L 23.1929 25.828398 L 23.129854 26.023218 L 23.097815 26.225273 L 23.097815 26.429911 L 23.129854 26.631966 L 23.1929 26.82627 L 23.285917 27.008687 L 23.318473 27.053646 L 23.683826 26.688293 A 0.80000001 0.80000001 0 0 1 23.598043 26.327592 A 0.80000001 0.80000001 0 0 1 23.683826 25.96689 L 23.318473 25.601538 z M 25.476998 25.601538 L 25.112162 25.96689 A 0.80000001 0.80000001 0 0 1 25.197945 26.327592 A 0.80000001 0.80000001 0 0 1 25.112162 26.688293 L 25.476998 27.053646 L 25.477515 27.053646 L 25.509554 27.008687 L 25.583451 26.863993 L 25.602572 26.82627 L 25.665617 26.631966 L 25.673885 26.581323 L 25.697656 26.429911 L 25.697656 26.225273 L 25.665617 26.023218 L 25.633061 25.921932 L 25.602572 25.828398 L 25.509554 25.64598 L 25.476998 25.601538 z M 24.037292 27.04176 L 23.67194 27.407113 L 23.716382 27.439152 L 23.8988 27.53217 L 24.09362 27.595732 L 24.295675 27.627254 L 24.500313 27.627254 L 24.702368 27.595732 L 24.896672 27.53217 L 24.99279 27.483077 L 25.079089 27.439152 L 25.123531 27.407113 L 24.758179 27.04176 A 0.80000001 0.80000001 0 0 1 24.397994 27.127543 A 0.80000001 0.80000001 0 0 1 24.037292 27.04176 z M 80.886536 28.096993 L 80.684481 28.123348 L 80.626603 28.131099 L 80.564591 28.147636 L 80.373389 28.199312 L 80.369255 28.200863 L 80.131026 28.299565 L 79.904167 28.430823 L 79.695911 28.589986 L 79.510392 28.775505 L 79.350712 28.983761 L 79.219454 29.21062 L 79.123853 29.442647 L 79.119202 29.452983 L 79.051506 29.706197 L 79.017399 29.966646 L 79.017399 30.228646 L 79.051506 30.488578 L 79.079411 30.591931 L 79.119202 30.741793 L 79.219454 30.984155 L 79.350712 31.211532 L 79.506258 31.413586 L 79.506775 31.41462 L 79.509875 31.418754 L 79.510392 31.419271 L 79.510909 31.419788 L 79.514526 31.423405 L 79.515043 31.424438 L 79.60341 31.512288 L 79.695911 31.604789 L 79.904167 31.764469 L 80.131026 31.895728 L 80.373389 31.99598 L 80.626603 32.063676 L 80.886536 32.097782 L 81.149052 32.097782 L 81.408984 32.063676 L 81.662199 31.99598 L 81.904561 31.895728 L 82.131421 31.764469 L 82.300403 31.634762 L 82.339677 31.604789 L 82.525195 31.419271 L 82.684875 31.211532 L 82.815617 30.984155 L 82.846106 30.910775 L 82.916386 30.741793 L 82.92207 30.720605 L 82.965995 30.555758 L 82.984082 30.488578 L 82.993901 30.415198 L 83.018188 30.228646 L 83.018188 29.966646 L 83.017155 29.955794 L 82.984082 29.706197 L 82.979431 29.689661 L 82.975297 29.673641 L 82.965479 29.636434 L 82.916386 29.452983 L 82.815617 29.21062 L 82.684875 28.983761 L 82.525195 28.775505 L 82.339677 28.589986 L 82.131421 28.430823 L 81.904561 28.299565 L 81.662199 28.199312 L 81.520605 28.161072 L 81.4927 28.153837 L 81.408984 28.131099 L 81.376945 28.126965 L 81.351107 28.123348 L 81.149052 28.096993 L 80.886536 28.096993 z M 3.8664307 28.126965 L 3.6643758 28.153837 L 3.6064982 28.161072 L 3.5450033 28.177608 L 3.3532837 28.229285 L 3.3491496 28.230835 L 3.1109212 28.329537 L 2.8840617 28.460795 L 2.6758057 28.619958 L 2.4918376 28.804443 L 2.4902873 28.805477 L 2.4530802 28.854053 L 2.3905518 28.936218 L 2.3306071 29.013733 L 2.2644613 29.128455 L 2.2169189 29.21062 L 2.1998657 29.240592 L 2.1120158 29.452983 L 2.0996134 29.482955 L 2.0314006 29.736169 L 1.9972941 29.996619 L 1.9972941 30.258618 L 2.0314006 30.518551 L 2.0996134 30.771765 L 2.1998657 31.014128 L 2.3306071 31.241504 L 2.4861532 31.443559 L 2.4866699 31.444592 L 2.4902873 31.448726 L 2.4902873 31.449243 L 2.490804 31.44976 L 2.4944214 31.453377 L 2.4954549 31.454411 L 2.5941569 31.553113 L 2.6758057 31.634762 L 2.8840617 31.794442 L 3.1109212 31.9257 L 3.1491618 31.941203 L 3.3532837 32.025952 L 3.6064982 32.093648 L 3.8664307 32.127755 L 3.8669474 32.127755 L 4.1289469 32.127755 L 4.3888794 32.093648 L 4.6420939 32.025952 L 4.8844564 31.9257 L 5.1118327 31.794442 L 5.2720296 31.671452 L 5.3195719 31.634762 L 5.5050903 31.449243 L 5.6647705 31.241504 L 5.7960286 31.014128 L 5.8466715 30.891138 L 5.8962809 30.771765 L 5.9040324 30.741793 L 5.9639771 30.518551 L 5.9867147 30.347502 L 5.9939494 30.289624 L 5.9980835 30.258618 L 5.9980835 29.996619 L 5.9639771 29.736169 L 5.96191 29.728418 L 5.8962809 29.482955 L 5.7960286 29.240592 L 5.6647705 29.013733 L 5.5050903 28.805477 L 5.3195719 28.619958 L 5.1118327 28.460795 L 4.8844564 28.329537 L 4.6420939 28.229285 L 4.5299561 28.199312 L 4.3888794 28.161072 L 4.3599406 28.157454 L 4.1289469 28.126965 L 3.8664307 28.126965 z M 45.247884 29.274699 L 45.247884 29.787329 A 0.89999998 0.89999998 0 0 1 45.881437 30.477726 L 46.387349 30.477726 L 46.377531 30.415198 L 46.364612 30.334066 L 46.363062 30.324764 L 46.295365 30.114958 L 46.195113 29.918587 L 46.085042 29.767692 L 46.065405 29.740304 L 45.909859 29.584757 L 45.82356 29.522229 L 45.731576 29.45505 L 45.535205 29.355314 L 45.325399 29.287101 L 45.316097 29.285551 L 45.247884 29.274699 z M 59.915723 29.361515 L 59.778263 29.379602 L 59.758626 29.382186 L 59.72452 29.396655 L 59.721936 29.397689 L 59.612899 29.442647 L 59.487325 29.538765 L 59.395858 29.658138 L 59.395341 29.659172 L 59.394824 29.659688 L 59.391207 29.664339 L 59.380872 29.689661 L 59.359684 29.740304 L 59.330745 29.810583 L 59.328678 29.824536 L 59.314726 29.867428 L 59.300256 29.893783 L 59.279069 29.922205 L 59.239795 29.961995 L 59.216024 29.974398 L 59.194836 29.990417 L 59.186568 29.993518 L 59.182434 29.994552 L 59.174166 29.998169 L 59.170549 29.999202 L 59.143677 30.00592 L 59.133858 30.007471 L 59.105436 30.019356 L 59.082182 30.028658 L 58.987614 30.067932 L 58.862557 30.16405 L 58.766439 30.289624 L 58.705461 30.435352 L 58.685307 30.591931 L 58.685307 30.842045 L 58.705461 30.999141 L 58.766439 31.144869 L 58.862557 31.270443 L 58.987614 31.366561 L 59.133858 31.427022 L 59.147811 31.428573 L 59.190702 31.443042 L 59.217057 31.457511 L 59.245479 31.478699 L 59.28527 31.517973 L 59.298189 31.541744 L 59.314209 31.562931 L 59.316793 31.5712 L 59.317826 31.575334 L 59.321444 31.583602 L 59.322994 31.587219 L 59.329195 31.614091 L 59.330745 31.62391 L 59.391207 31.770154 L 59.487325 31.895211 L 59.612899 31.991329 L 59.758626 32.05179 L 59.915723 32.072461 L 60.165837 32.072461 L 60.322416 32.05179 L 60.446956 32.000631 L 60.464526 31.992879 L 60.468144 31.991846 L 60.474862 31.986678 L 60.593717 31.895211 L 60.612838 31.870406 L 60.685185 31.776355 L 60.686735 31.774288 L 60.689836 31.770154 L 60.692936 31.762919 L 60.73066 31.671452 L 60.750297 31.62391 L 60.752364 31.609957 L 60.766317 31.566549 L 60.780786 31.540194 L 60.801973 31.512288 L 60.841764 31.472498 L 60.865019 31.459578 L 60.886723 31.443559 L 60.894474 31.440975 L 60.898608 31.439941 L 60.906877 31.436324 L 60.911011 31.434774 L 60.937366 31.428056 L 60.947184 31.427022 L 61.093429 31.366561 L 61.218486 31.270443 L 61.31512 31.144869 L 61.375582 30.999141 L 61.396252 30.842045 L 61.396252 30.591931 L 61.376615 30.44362 L 61.376615 30.443103 L 61.376615 30.442586 L 61.376099 30.439486 L 61.375582 30.435352 L 61.31512 30.289624 L 61.218486 30.16405 L 61.093429 30.067932 L 60.947184 30.007471 L 60.933232 30.005404 L 60.89034 29.991451 L 60.863985 29.976982 L 60.835563 29.955794 L 60.795772 29.916003 L 60.782853 29.892749 L 60.76735 29.871045 L 60.76425 29.863293 L 60.763216 29.859159 L 60.759599 29.850891 L 60.758049 29.846757 L 60.751847 29.820402 L 60.750297 29.810583 L 60.689836 29.664339 L 60.593717 29.538765 L 60.468144 29.442647 L 60.322416 29.382186 L 60.318282 29.381669 L 60.314148 29.381152 L 60.302779 29.379602 L 60.222681 29.369267 L 60.165837 29.361515 L 59.915723 29.361515 z M 32.498275 29.752189 A 0.89999998 0.89999998 0 0 1 33.398478 30.652393 L 33.398478 30.802771 A 0.89999998 0.89999998 0 0 1 32.498275 31.702974 A 0.89999998 0.89999998 0 0 1 31.597555 30.802771 L 31.597555 30.652393 A 0.89999998 0.89999998 0 0 1 32.498275 29.752189 z M 37.49797 29.752189 A 0.89999998 0.89999998 0 0 1 38.39869 30.652393 L 38.39869 30.802771 A 0.89999998 0.89999998 0 0 1 37.49797 31.702974 A 0.89999998 0.89999998 0 0 1 36.597766 30.802771 L 36.597766 30.652393 A 0.89999998 0.89999998 0 0 1 37.49797 29.752189 z M 42.498181 29.752189 A 0.89999998 0.89999998 0 0 1 43.398385 30.652393 L 43.398385 30.802771 A 0.89999998 0.89999998 0 0 1 42.498181 31.702974 A 0.89999998 0.89999998 0 0 1 41.597461 30.802771 L 41.597461 30.652393 A 0.89999998 0.89999998 0 0 1 42.498181 29.752189 z M 29.362549 29.752706 L 30.633272 29.752706 L 30.734558 29.77286 L 30.820341 29.830221 L 30.877702 29.916003 L 30.897856 30.017289 L 30.897856 31.437874 L 30.877702 31.53916 L 30.820341 31.624943 L 30.734558 31.682304 L 30.633272 31.702458 L 29.362549 31.702458 L 29.261263 31.682304 L 29.17548 31.624943 L 29.118119 31.53916 L 29.097965 31.437874 L 29.097965 30.017289 L 29.118119 29.916003 L 29.17548 29.830221 L 29.261263 29.77286 L 29.362549 29.752706 z M 24.287406 29.926855 L 24.178886 29.944425 L 24.069849 29.961479 L 23.962362 29.996619 L 23.860042 30.029692 L 23.716382 30.102555 L 23.707597 30.107206 L 23.669873 30.126843 L 23.663672 30.129944 L 23.653337 30.137179 L 23.527763 30.228646 L 23.485388 30.259135 L 23.329325 30.415198 L 23.227006 30.555758 L 23.200134 30.593481 L 23.134505 30.722156 L 23.099882 30.789852 L 23.031669 30.999658 L 22.997046 31.217216 L 22.997046 31.437874 L 23.031669 31.655432 L 23.099882 31.865238 L 23.200134 32.061609 L 23.329325 32.239893 L 23.485388 32.395955 L 23.663672 32.525146 L 23.860042 32.625399 L 24.069849 32.693612 L 24.287406 32.728235 L 24.508065 32.728235 L 24.725623 32.693612 L 24.830526 32.659505 L 24.935429 32.625399 L 25.003642 32.590776 L 25.131799 32.525146 L 25.154537 32.50861 L 25.160738 32.503959 L 25.310083 32.395955 L 25.466146 32.239893 L 25.509037 32.180465 L 25.595854 32.061609 L 25.599988 32.053341 L 25.628927 31.99598 L 25.630477 31.992879 L 25.695589 31.865238 L 25.763802 31.655432 L 25.798425 31.437874 L 25.798425 31.217216 L 25.763802 30.999658 L 25.695589 30.789852 L 25.595854 30.593481 L 25.483716 30.439486 L 25.466146 30.415198 L 25.310083 30.259135 L 25.131799 30.129944 L 24.935429 30.029692 L 24.725623 29.961479 L 24.580412 29.938741 L 24.565942 29.936157 L 24.508065 29.926855 L 24.287406 29.926855 z M 59.915723 29.967163 L 60.165837 29.967163 L 60.165837 30.591931 L 60.790605 30.591931 L 60.790605 30.842045 L 60.165837 30.842045 L 60.165837 31.46733 L 59.915723 31.46733 L 59.915723 30.842045 L 59.290438 30.842045 L 59.290438 30.591931 L 59.915723 30.591931 L 59.915723 29.967163 z M 24.397994 30.527336 A 0.80000001 0.80000001 0 0 1 25.197945 31.327287 A 0.80000001 0.80000001 0 0 1 24.397994 32.127755 A 0.80000001 0.80000001 0 0 1 23.598043 31.327287 A 0.80000001 0.80000001 0 0 1 24.397994 30.527336 z M 45.881437 30.977437 A 0.89999998 0.89999998 0 0 1 45.247884 31.667834 L 45.247884 32.180465 L 45.285091 32.174264 L 45.325399 32.168062 L 45.448905 32.127755 L 45.535205 32.099849 L 45.635457 32.049207 L 45.731576 32.000114 L 45.909859 31.870406 L 46.065405 31.714343 L 46.195113 31.53606 L 46.295365 31.339689 L 46.325338 31.246672 L 46.363062 31.1304 L 46.364612 31.120581 L 46.387349 30.977437 L 45.881437 30.977437 z "/>
</svg>