<?xml version='1.0' encoding='UTF-8'?>
<svg xmlns="http://www.w3.org/2000/svg" xmlns:svg="http://www.w3.org/2000/svg" version="1.1" width="297.0022mm" height="210.0072mm" viewBox="0.0000 0.0000 297.0022 210.0072" id="svg138">
  <defs id="defs138"/>
  <title id="title1">SVG Image created as midi-laser-pcb-B_Cu.svg date 2026-05-28T21:13:03 </title>
  <desc id="desc1">Image generated by PCBNEW </desc>
  <path id="bambu_00005" style="fill:#00FF00;fill-opacity:1;stroke:none" d="M 178.18034 12.524817 L 178.18034 92.510116 L 286.47709 92.510116 L 286.47709 12.524817 L 178.18034 12.524817 z M 185.87703 18.250049 L 186.12714 18.250049 L 186.12714 18.874817 L 186.75243 18.874817 L 186.75243 19.124931 L 186.12714 19.124931 L 186.12714 19.750216 L 185.87703 19.750216 L 185.87703 19.124931 L 185.25226 19.124931 L 185.25226 18.874817 L 185.87703 18.874817 L 185.87703 18.250049 z M 277.8771 18.250049 L 278.12721 18.250049 L 278.12721 18.874817 L 278.75198 18.874817 L 278.75198 19.124931 L 278.12721 19.124931 L 278.12721 19.750216 L 277.8771 19.750216 L 277.8771 19.124931 L 277.25233 19.124931 L 277.25233 18.874817 L 277.8771 18.874817 L 277.8771 18.250049 z M 194.00211 20.825085 A 0.175 0.175 0 0 1 194.17729 20.999752 A 0.175 0.175 0 0 1 194.00211 21.174935 A 0.175 0.175 0 0 1 193.82745 20.999752 A 0.175 0.175 0 0 1 194.00211 20.825085 z M 230.15339 22.676652 A 0.25 0.25 0 0 1 230.1751 22.677686 L 250.27826 22.677686 A 0.25 0.25 0 0 1 250.4767 22.750033 L 250.98055 23.254395 L 250.98261 23.254395 L 251.78928 23.574788 L 251.79342 23.576855 L 251.79342 23.577372 L 252.17375 23.577372 L 252.26936 23.596493 L 252.35049 23.650753 L 252.40475 23.731885 L 252.42387 23.827486 L 252.42387 25.077539 L 252.4218 25.087358 L 252.42232 25.088391 L 252.42335 25.570015 L 252.42232 25.573116 L 252.5758 25.726595 L 255.97094 25.726595 A 0.25 0.25 0 0 1 256.16524 25.819613 L 265.42979 35.082096 A 0.25 0.25 0 0 1 265.50214 35.280534 L 265.50214 40.636796 L 265.50421 40.638863 L 266.03441 41.985551 A 0.87629998 0.87629998 0 0 1 266.12846 42.379842 A 0.87629998 0.87629998 0 0 1 266.08608 42.644942 L 266.08608 42.645976 A 0.87629998 0.87629998 0 0 1 266.03906 42.764832 L 265.50524 44.120821 L 265.50214 44.124955 L 265.50214 44.345614 L 279.37985 58.225387 A 0.25 0.25 0 0 1 279.47286 58.41969 L 279.47286 83.820207 A 0.25 0.25 0 0 1 279.37985 84.015027 L 276.79344 86.600916 A 0.25 0.25 0 0 1 276.59759 86.695483 L 261.6972 86.695483 A 0.25 0.25 0 0 1 261.57111 86.66086 A 0.25 0.25 0 0 0 261.5706 86.66086 A 0.25 0.25 0 0 1 261.54424 86.642773 A 0.25 0.25 0 0 1 261.54269 86.64174 A 0.25 0.25 0 0 1 261.53442 86.634505 A 0.25 0.25 0 0 1 261.51944 86.621069 L 259.91643 85.018066 L 259.91333 85.018066 L 259.38417 84.807743 L 258.8333 85.288334 L 258.83226 85.288851 L 258.8302 85.289884 L 257.58376 86.537354 A 0.25 0.25 0 0 1 257.38584 86.609184 L 239.74351 86.609184 A 0.25 0.25 0 0 1 239.54507 86.537354 L 238.02681 85.018066 L 238.02371 85.018066 L 237.49455 84.807743 L 236.94316 85.288334 L 236.94264 85.288851 L 236.94109 85.289368 L 235.69672 86.533736 A 0.25 0.25 0 0 1 235.66985 86.557507 A 0.25 0.25 0 0 1 235.49519 86.609184 L 219.8548 86.609184 A 0.25 0.25 0 0 1 219.70545 86.575077 A 0.25 0.25 0 0 0 219.70494 86.574561 A 0.25 0.25 0 0 1 219.67961 86.557507 A 0.25 0.25 0 0 1 219.67858 86.556991 A 0.25 0.25 0 0 1 219.66928 86.548722 A 0.25 0.25 0 0 1 219.65636 86.537354 L 218.13759 85.018066 L 218.13346 85.018066 L 217.32679 84.697673 L 217.32265 84.695605 L 217.32265 84.695089 L 217.30508 84.695089 L 217.3025 84.698189 L 216.45604 85.057857 L 216.45087 85.058891 L 216.45035 85.058374 L 214.97241 86.537354 A 0.25 0.25 0 0 1 214.77449 86.609184 L 197.96414 86.609184 A 0.25 0.25 0 0 1 197.78793 86.556991 A 0.25 0.25 0 0 1 197.78173 86.551306 A 0.25 0.25 0 0 1 197.76571 86.537354 L 196.24694 85.018066 L 196.24332 85.018066 L 195.43665 84.697673 L 195.43303 84.695605 L 195.43303 84.695089 L 195.05218 84.695089 L 194.95658 84.675968 L 194.87544 84.621708 L 194.82118 84.540576 L 194.80206 84.444975 L 194.80206 83.194922 L 194.82118 83.09932 L 194.87544 83.018188 L 194.95658 82.963928 L 195.05218 82.944808 L 195.75239 82.944808 L 195.84799 82.963928 L 195.92913 83.018188 L 195.98339 83.09932 L 196.00199 83.194922 L 196.00199 83.575777 L 196.00871 83.580945 L 196.6004 84.659949 L 196.60247 84.665633 L 196.60195 84.66615 L 198.04528 86.109473 L 214.69284 86.109473 L 216.09844 84.70284 L 216.09895 84.69974 L 216.10309 84.691471 L 216.12944 84.643929 L 216.12944 84.642896 L 216.17905 84.568998 L 216.20696 84.501819 L 216.20747 84.500785 L 216.68755 83.623319 L 216.6922 83.618669 L 216.6922 83.194922 L 216.71132 83.09932 L 216.76558 83.018188 L 216.84671 82.963928 L 216.94231 82.944808 L 217.64201 82.944808 L 217.73813 82.963928 L 217.81875 83.018188 L 217.87301 83.09932 L 217.89213 83.194922 L 217.89213 83.57526 L 217.89264 83.57526 L 217.89936 83.580945 L 218.49157 84.659949 L 218.49261 84.665633 L 219.93593 86.109473 L 235.41354 86.109473 L 236.58194 84.941069 L 236.58091 84.937451 L 236.58194 84.455827 L 236.58349 84.451693 L 236.58194 84.444975 L 236.58194 83.194922 L 236.60106 83.09932 L 236.65532 83.018188 L 236.73645 82.963928 L 236.83206 82.944808 L 237.53227 82.944808 L 237.62787 82.963928 L 237.709 83.018188 L 237.76326 83.09932 L 237.78239 83.194922 L 237.78239 83.576294 L 237.78859 83.580945 L 238.38028 84.659949 L 238.38235 84.665633 L 238.38183 84.66615 L 239.82464 86.109473 L 257.30419 86.109473 L 258.47208 84.940035 L 258.47104 84.937451 L 258.47208 84.455827 L 258.47363 84.451693 L 258.47208 84.444975 L 258.47208 83.194922 L 258.4912 83.09932 L 258.54546 83.018188 L 258.62659 82.963928 L 258.72219 82.944808 L 259.42241 82.944808 L 259.51801 82.963928 L 259.59914 83.018188 L 259.6534 83.09932 L 259.67201 83.194922 L 259.67201 83.575777 L 259.67872 83.580945 L 260.27042 84.659949 L 260.27249 84.665633 L 260.27197 84.666667 L 261.80056 86.195256 L 276.49217 86.195256 L 278.97264 83.714787 L 278.97264 58.52511 L 265.08149 44.631901 A 0.25 0.25 0 0 1 265.07633 44.626733 A 0.25 0.25 0 0 1 265.05566 44.603996 A 0.25 0.25 0 0 1 265.00191 44.448966 L 265.00191 44.123922 L 264.99933 44.120821 L 264.46499 42.765348 A 0.87629998 0.87629998 0 0 1 264.42055 42.652694 L 264.41797 42.645976 L 264.41797 42.645459 L 264.41797 42.643909 A 0.87629998 0.87629998 0 0 1 264.37611 42.379842 A 0.87629998 0.87629998 0 0 1 264.41797 42.115776 L 264.41797 42.113708 L 264.42004 42.108024 A 0.87629998 0.87629998 0 0 1 264.46344 41.997953 A 0.87629998 0.87629998 0 0 1 264.46396 41.997437 L 264.99881 40.638863 L 265.00191 40.635246 L 265.00191 35.361149 L 255.865 26.226306 L 252.49518 26.226306 A 0.25 0.25 0 0 1 252.29674 26.154476 L 252.06472 25.922449 L 252.06213 25.921415 L 251.30146 25.258923 L 251.29939 25.25634 L 251.29939 25.255823 L 251.29732 25.254272 L 251.24306 25.17314 L 251.22394 25.077539 L 251.22394 24.696167 L 251.21826 24.692033 L 250.62656 23.612512 L 250.62553 23.607345 L 250.62553 23.606828 L 250.19765 23.177913 L 230.25571 23.177913 L 230.10172 23.331392 L 230.10275 23.33501 L 230.10172 23.816634 L 230.1012 23.818701 L 230.10275 23.827486 L 230.10275 25.077539 L 230.08415 25.17314 L 230.02989 25.254272 L 229.94875 25.308533 L 229.85315 25.327653 L 229.15294 25.327653 L 229.05734 25.308533 L 228.9762 25.254272 L 228.92194 25.17314 L 228.90282 25.077539 L 228.90282 23.827486 L 228.92194 23.731885 L 228.9762 23.650753 L 228.98034 23.648169 L 228.98137 23.646102 L 229.34827 23.326742 L 229.51932 23.177913 L 213.93526 23.177913 L 213.78075 23.332426 L 213.78178 23.33501 L 213.78075 23.816634 L 213.78023 23.817668 L 213.7823 23.827486 L 213.7823 25.077539 L 213.76318 25.17314 L 213.70892 25.254272 L 213.62779 25.308533 L 213.53219 25.327653 L 212.83197 25.327653 L 212.73637 25.308533 L 212.65524 25.254272 L 212.60098 25.17314 L 212.58237 25.077539 L 212.58237 23.827486 L 212.60098 23.731885 L 212.65524 23.650753 L 212.6604 23.647652 L 212.66092 23.646102 L 213.02782 23.326742 L 213.4216 22.98361 L 213.42315 22.983093 L 213.65259 22.75365 A 0.25 0.25 0 0 1 213.65621 22.750033 A 0.25 0.25 0 0 1 213.70479 22.712309 A 0.25 0.25 0 0 0 213.7053 22.711792 A 0.25 0.25 0 0 1 213.85465 22.677686 L 230.13169 22.677686 A 0.25 0.25 0 0 1 230.15339 22.676652 z M 268.49989 23.502441 A 1 1 0 0 1 269.49983 24.50238 A 1 1 0 0 1 268.49989 25.502319 A 1 1 0 0 1 267.49943 24.50238 A 1 1 0 0 1 268.49989 23.502441 z M 274.99975 23.502441 A 1 1 0 0 1 275.99969 24.50238 A 1 1 0 0 1 274.99975 25.502319 A 1 1 0 0 1 273.99981 24.50238 A 1 1 0 0 1 274.99975 23.502441 z M 231.5037 23.577889 A 0.60000002 0.60000002 0 0 1 232.10366 24.177852 L 232.10366 24.726656 A 0.60000002 0.60000002 0 0 1 231.5037 25.32817 A 0.60000002 0.60000002 0 0 1 230.90219 24.726656 L 230.90219 24.177852 A 0.60000002 0.60000002 0 0 1 231.5037 23.577889 z M 233.50409 23.577889 A 0.60000002 0.60000002 0 0 1 234.10354 24.177852 L 234.10354 24.726656 A 0.60000002 0.60000002 0 0 1 234.05341 24.967985 L 233.75524 25.914181 L 233.75369 25.916764 L 233.75369 27.837577 L 236.14683 30.230713 L 241.10053 30.230713 A 0.25 0.25 0 0 1 241.24987 30.264819 A 0.25 0.25 0 0 0 241.25039 30.265336 A 0.25 0.25 0 0 1 241.27571 30.282389 A 0.25 0.25 0 0 1 241.27778 30.28394 A 0.25 0.25 0 0 1 241.28605 30.291174 A 0.25 0.25 0 0 1 241.30258 30.30616 L 242.57279 31.576367 L 242.57641 31.576367 L 243.94583 32.165995 A 0.89999998 0.89999998 0 0 1 244.07451 32.221289 L 244.07554 32.221806 A 0.89999998 0.89999998 0 0 1 244.56233 33.020207 A 0.89999998 0.89999998 0 0 1 243.66213 33.919893 A 0.89999998 0.89999998 0 0 1 242.80792 33.302877 L 242.21932 31.934485 L 242.21829 31.929834 L 242.21829 31.929317 L 241.01991 30.730424 L 236.04296 30.730424 A 0.25 0.25 0 0 1 235.86519 30.65601 L 235.86364 30.654976 A 0.25 0.25 0 0 1 235.86106 30.651876 L 233.33304 28.123865 A 0.25 0.25 0 0 1 233.32633 28.117147 A 0.25 0.25 0 0 1 233.30721 28.095959 A 0.25 0.25 0 0 1 233.30617 28.094409 A 0.25 0.25 0 0 1 233.2886 28.068571 A 0.25 0.25 0 0 0 233.28809 28.068054 A 0.25 0.25 0 0 1 233.25398 27.918709 L 233.25398 25.918315 L 233.25036 25.914181 L 232.95064 24.964368 L 232.95064 24.962817 A 0.60000002 0.60000002 0 0 1 232.90258 24.726656 L 232.90258 24.177852 A 0.60000002 0.60000002 0 0 1 233.50409 23.577889 z M 235.50397 23.577889 A 0.60000002 0.60000002 0 0 1 236.10342 24.177852 L 236.10342 24.726656 A 0.60000002 0.60000002 0 0 1 235.50397 25.32817 A 0.60000002 0.60000002 0 0 1 234.90246 24.726656 L 234.90246 24.177852 A 0.60000002 0.60000002 0 0 1 235.50397 23.577889 z M 237.50385 23.577889 A 0.60000002 0.60000002 0 0 1 238.1033 24.177852 L 238.1033 24.726656 A 0.60000002 0.60000002 0 0 1 237.50385 25.32817 A 0.60000002 0.60000002 0 0 1 236.90234 24.726656 L 236.90234 24.177852 A 0.60000002 0.60000002 0 0 1 237.50385 23.577889 z M 239.50373 23.577889 A 0.60000002 0.60000002 0 0 1 240.10369 24.177852 L 240.10369 24.726656 A 0.60000002 0.60000002 0 0 1 239.50373 25.32817 A 0.60000002 0.60000002 0 0 1 238.90221 24.726656 L 238.90221 24.177852 A 0.60000002 0.60000002 0 0 1 239.50373 23.577889 z M 241.50412 23.577889 A 0.60000002 0.60000002 0 0 1 242.10357 24.177852 L 242.10357 24.726656 A 0.60000002 0.60000002 0 0 1 241.50412 25.32817 A 0.60000002 0.60000002 0 0 1 240.90209 24.726656 L 240.90209 24.177852 A 0.60000002 0.60000002 0 0 1 241.50412 23.577889 z M 253.8243 23.577889 A 0.60000002 0.60000002 0 0 1 254.42375 24.177852 L 254.42375 24.726656 A 0.60000002 0.60000002 0 0 1 253.8243 25.32817 A 0.60000002 0.60000002 0 0 1 253.22485 24.726656 L 253.22485 24.177852 A 0.60000002 0.60000002 0 0 1 253.8243 23.577889 z M 255.82418 23.577889 A 0.60000002 0.60000002 0 0 1 256.42362 24.177852 L 256.42362 24.726656 A 0.60000002 0.60000002 0 0 1 255.82418 25.32817 A 0.60000002 0.60000002 0 0 1 255.22473 24.726656 L 255.22473 24.177852 A 0.60000002 0.60000002 0 0 1 255.82418 23.577889 z M 257.82406 23.577889 A 0.60000002 0.60000002 0 0 1 258.42402 24.177852 L 258.42402 24.726656 A 0.60000002 0.60000002 0 0 1 257.82406 25.32817 A 0.60000002 0.60000002 0 0 1 257.22461 24.726656 L 257.22461 24.177852 A 0.60000002 0.60000002 0 0 1 257.82406 23.577889 z M 215.1817 24.203174 A 0.25 0.25 0 0 1 215.43181 24.453288 L 215.43181 24.678597 L 215.73102 24.951449 L 215.73515 24.958683 L 215.73515 24.961784 L 215.73464 24.966435 L 215.43646 25.91263 L 215.43595 25.914181 L 215.43491 25.915214 L 215.43491 25.915731 L 215.43181 25.918315 L 215.43181 38.115503 L 222.39469 45.077869 L 222.39883 45.078902 L 223.61581 45.628223 A 0.80000001 0.80000001 0 0 1 224.14239 46.380115 A 0.80000001 0.80000001 0 0 1 223.34244 47.180066 A 0.80000001 0.80000001 0 0 1 222.63086 46.743917 L 222.04123 45.436503 L 222.04071 45.436503 L 222.04071 45.435986 L 222.04019 45.434436 L 222.04019 45.430819 L 215.0246 38.415226 A 0.25 0.25 0 0 1 214.93158 38.220923 L 214.93158 25.916248 L 214.92952 25.912113 L 214.63134 24.965401 L 214.63186 24.957133 L 214.63289 24.954032 L 214.63599 24.950415 L 214.93158 24.680664 L 214.93158 24.453288 A 0.25 0.25 0 0 1 215.1817 24.203174 z M 217.18158 24.203174 A 0.25 0.25 0 0 1 217.43169 24.453288 L 217.43169 24.679114 L 217.7309 24.951965 L 217.73296 24.955066 L 217.73348 24.964368 L 217.43427 25.914181 L 217.43169 25.917798 L 217.43169 37.576001 L 224.93252 45.077352 L 224.93821 45.077869 L 226.16449 45.631323 A 0.80000001 0.80000001 0 0 1 226.16552 45.63184 L 226.24872 45.669564 L 226.24924 45.669564 L 226.24976 45.670081 A 0.80000001 0.80000001 0 0 1 226.68229 46.380115 A 0.80000001 0.80000001 0 0 1 225.88234 47.180066 A 0.80000001 0.80000001 0 0 1 225.17179 46.745984 L 224.58061 45.43547 L 224.57957 45.430819 L 217.00588 37.857638 A 0.25 0.25 0 0 1 216.99916 37.849886 A 0.25 0.25 0 0 1 216.96608 37.805444 A 0.25 0.25 0 0 1 216.95162 37.777022 A 0.25 0.25 0 0 1 216.93146 37.679871 L 216.93146 25.916248 L 216.92939 25.914181 L 216.62967 24.964368 L 216.62915 24.960234 L 216.63329 24.951965 L 216.93146 24.680147 L 216.93146 24.453288 A 0.25 0.25 0 0 1 217.18158 24.203174 z M 268.49989 28.002425 A 1 1 0 0 1 269.49983 29.002364 A 1 1 0 0 1 268.49989 30.002303 A 1 1 0 0 1 267.49943 29.002364 A 1 1 0 0 1 268.49989 28.002425 z M 274.99975 28.002425 A 1 1 0 0 1 275.99969 29.002364 A 1 1 0 0 1 274.99975 30.002303 A 1 1 0 0 1 273.99981 29.002364 A 1 1 0 0 1 274.99975 28.002425 z M 210.64244 29.679842 A 0.80000001 0.80000001 0 0 1 211.44239 30.479793 A 0.80000001 0.80000001 0 0 1 210.64244 31.279744 A 0.80000001 0.80000001 0 0 1 209.84197 30.479793 A 0.80000001 0.80000001 0 0 1 210.64244 29.679842 z M 253.42226 31.200163 A 0.80000001 0.80000001 0 0 1 254.22221 32.000114 A 0.80000001 0.80000001 0 0 1 253.42226 32.800065 A 0.80000001 0.80000001 0 0 1 252.62231 32.000114 A 0.80000001 0.80000001 0 0 1 253.42226 31.200163 z M 258.42195 31.200163 A 0.80000001 0.80000001 0 0 1 259.22242 32.000114 A 0.80000001 0.80000001 0 0 1 258.42195 32.800065 A 0.80000001 0.80000001 0 0 1 257.622 32.000114 A 0.80000001 0.80000001 0 0 1 258.42195 31.200163 z M 266.42198 33.280139 A 0.80000001 0.80000001 0 0 1 267.22245 34.08009 A 0.80000001 0.80000001 0 0 1 266.42198 34.880042 A 0.80000001 0.80000001 0 0 1 265.62203 34.08009 A 0.80000001 0.80000001 0 0 1 266.42198 33.280139 z M 271.42219 33.280139 A 0.80000001 0.80000001 0 0 1 272.22214 34.08009 A 0.80000001 0.80000001 0 0 1 271.42219 34.880042 A 0.80000001 0.80000001 0 0 1 270.62224 34.08009 A 0.80000001 0.80000001 0 0 1 271.42219 33.280139 z M 246.20203 34.6599 A 0.89999998 0.89999998 0 0 1 247.10223 35.560103 A 0.89999998 0.89999998 0 0 1 246.20203 36.45979 A 0.89999998 0.89999998 0 0 1 245.7943 36.362122 L 244.41506 35.812801 L 244.41195 35.810734 L 239.3456 35.810734 L 229.72448 45.431852 L 229.72448 45.43547 L 229.16947 46.665369 A 0.80000001 0.80000001 0 0 1 229.16947 46.665885 L 229.1333 46.745984 L 229.13278 46.746501 L 229.13175 46.747534 A 0.80000001 0.80000001 0 0 1 228.42223 47.180066 A 0.80000001 0.80000001 0 0 1 227.62228 46.380115 A 0.80000001 0.80000001 0 0 1 228.05533 45.670081 L 228.05636 45.669047 L 229.36688 45.077869 L 229.37205 45.076835 L 239.06448 35.382853 A 0.25 0.25 0 0 1 239.27325 35.310506 L 244.4104 35.310506 L 244.41402 35.306889 L 245.79998 34.754985 A 0.89999998 0.89999998 0 0 1 245.92504 34.704858 L 245.92917 34.703308 L 245.93073 34.703308 A 0.89999998 0.89999998 0 0 1 246.20203 34.6599 z M 256.44223 36.279956 A 0.80000001 0.80000001 0 0 1 257.24218 37.079907 A 0.80000001 0.80000001 0 0 1 256.44223 37.879858 A 0.80000001 0.80000001 0 0 1 255.64228 37.079907 A 0.80000001 0.80000001 0 0 1 256.44223 36.279956 z M 261.44244 36.279956 A 0.80000001 0.80000001 0 0 1 262.24239 37.079907 A 0.80000001 0.80000001 0 0 1 261.44244 37.879858 A 0.80000001 0.80000001 0 0 1 260.64197 37.079907 A 0.80000001 0.80000001 0 0 1 261.44244 36.279956 z M 278.00215 36.825142 A 0.175 0.175 0 0 1 278.17734 36.999809 A 0.175 0.175 0 0 1 278.00215 37.174992 A 0.175 0.175 0 0 1 277.82697 36.999809 A 0.175 0.175 0 0 1 278.00215 36.825142 z M 241.12223 37.199797 A 0.89999998 0.89999998 0 0 1 242.02244 38.1 A 0.89999998 0.89999998 0 0 1 241.12223 39.000203 A 0.89999998 0.89999998 0 0 1 240.85197 38.956795 L 240.85042 38.956795 L 240.84525 38.954728 A 0.89999998 0.89999998 0 0 1 240.72174 38.905636 L 239.34198 38.355282 L 232.26438 45.431335 L 232.26438 45.433403 L 232.26334 45.437537 L 231.71247 46.657617 A 0.80000001 0.80000001 0 0 1 231.71247 46.658134 L 231.67371 46.743917 A 0.80000001 0.80000001 0 0 1 230.96213 47.180066 A 0.80000001 0.80000001 0 0 1 230.16218 46.380115 A 0.80000001 0.80000001 0 0 1 230.59884 45.66853 L 230.68411 45.629773 A 0.80000001 0.80000001 0 0 1 230.68566 45.629256 L 231.84425 45.106291 L 231.90574 45.078385 L 231.90781 45.077352 L 231.91091 45.077869 L 239.06448 37.923783 A 0.25 0.25 0 0 1 239.08773 37.903113 A 0.25 0.25 0 0 0 239.08825 37.902596 A 0.25 0.25 0 0 1 239.09703 37.896912 A 0.25 0.25 0 0 1 239.12907 37.877275 A 0.25 0.25 0 0 1 239.17662 37.858671 A 0.25 0.25 0 0 1 239.20555 37.85247 A 0.25 0.25 0 0 1 239.22778 37.850403 A 0.25 0.25 0 0 1 239.23398 37.849886 A 0.25 0.25 0 0 1 239.24224 37.849369 L 239.33164 37.849369 L 239.33371 37.847302 L 240.71967 37.294881 A 0.89999998 0.89999998 0 0 1 240.84163 37.246305 L 240.84938 37.243205 L 240.85042 37.243205 L 240.85145 37.243205 A 0.89999998 0.89999998 0 0 1 241.12223 37.199797 z M 210.64244 39.839945 A 0.80000001 0.80000001 0 0 1 211.44239 40.639897 A 0.80000001 0.80000001 0 0 1 210.64244 41.439848 A 0.80000001 0.80000001 0 0 1 209.84197 40.639897 A 0.80000001 0.80000001 0 0 1 210.64244 39.839945 z M 244.93234 41.503927 A 0.87629998 0.87629998 0 0 1 245.80825 42.379842 A 0.87629998 0.87629998 0 0 1 244.93234 43.256274 A 0.87629998 0.87629998 0 0 1 244.0559 42.379842 A 0.87629998 0.87629998 0 0 1 244.93234 41.503927 z M 247.47223 41.503927 A 0.87629998 0.87629998 0 0 1 248.34867 42.379842 A 0.87629998 0.87629998 0 0 1 247.47223 43.256274 A 0.87629998 0.87629998 0 0 1 246.5958 42.379842 A 0.87629998 0.87629998 0 0 1 247.47223 41.503927 z M 250.01213 41.503927 A 0.87629998 0.87629998 0 0 1 250.88856 42.379842 A 0.87629998 0.87629998 0 0 1 250.01213 43.256274 A 0.87629998 0.87629998 0 0 1 249.1357 42.379842 A 0.87629998 0.87629998 0 0 1 250.01213 41.503927 z M 252.55203 41.503927 A 0.87629998 0.87629998 0 0 1 253.42846 42.379842 A 0.87629998 0.87629998 0 0 1 252.55203 43.256274 A 0.87629998 0.87629998 0 0 1 251.67611 42.379842 A 0.87629998 0.87629998 0 0 1 252.55203 41.503927 z M 255.09244 41.503927 A 0.87629998 0.87629998 0 0 1 255.96836 42.379842 A 0.87629998 0.87629998 0 0 1 255.09244 43.256274 A 0.87629998 0.87629998 0 0 1 254.21601 42.379842 A 0.87629998 0.87629998 0 0 1 255.09244 41.503927 z M 257.63234 41.503927 A 0.87629998 0.87629998 0 0 1 258.50825 42.379842 A 0.87629998 0.87629998 0 0 1 257.63234 43.256274 A 0.87629998 0.87629998 0 0 1 256.7559 42.379842 A 0.87629998 0.87629998 0 0 1 257.63234 41.503927 z M 260.17223 41.503927 A 0.87629998 0.87629998 0 0 1 261.04867 42.379842 A 0.87629998 0.87629998 0 0 1 260.17223 43.256274 A 0.87629998 0.87629998 0 0 1 259.2958 42.379842 A 0.87629998 0.87629998 0 0 1 260.17223 41.503927 z M 262.71213 41.503927 A 0.87629998 0.87629998 0 0 1 263.58856 42.379842 A 0.87629998 0.87629998 0 0 1 262.71213 43.256274 A 0.87629998 0.87629998 0 0 1 261.8357 42.379842 A 0.87629998 0.87629998 0 0 1 262.71213 41.503927 z M 267.79244 41.503927 A 0.87629998 0.87629998 0 0 1 268.66836 42.379842 A 0.87629998 0.87629998 0 0 1 267.79244 43.256274 A 0.87629998 0.87629998 0 0 1 266.91601 42.379842 A 0.87629998 0.87629998 0 0 1 267.79244 41.503927 z M 270.33234 41.503927 A 0.87629998 0.87629998 0 0 1 271.20825 42.379842 A 0.87629998 0.87629998 0 0 1 270.33234 43.256274 A 0.87629998 0.87629998 0 0 1 269.4559 42.379842 A 0.87629998 0.87629998 0 0 1 270.33234 41.503927 z M 272.87223 41.503927 A 0.87629998 0.87629998 0 0 1 273.74867 42.379842 A 0.87629998 0.87629998 0 0 1 272.87223 43.256274 A 0.87629998 0.87629998 0 0 1 271.9958 42.379842 A 0.87629998 0.87629998 0 0 1 272.87223 41.503927 z M 203.02223 45.580164 A 0.80000001 0.80000001 0 0 1 203.82218 46.380115 A 0.80000001 0.80000001 0 0 1 203.02223 47.180066 A 0.80000001 0.80000001 0 0 1 202.22228 46.380115 A 0.80000001 0.80000001 0 0 1 203.02223 45.580164 z M 205.56213 45.580164 A 0.80000001 0.80000001 0 0 1 206.36208 46.380115 A 0.80000001 0.80000001 0 0 1 205.56213 47.180066 A 0.80000001 0.80000001 0 0 1 204.76218 46.380115 A 0.80000001 0.80000001 0 0 1 205.56213 45.580164 z M 208.10203 45.580164 A 0.80000001 0.80000001 0 0 1 208.90198 46.380115 A 0.80000001 0.80000001 0 0 1 208.10203 47.180066 A 0.80000001 0.80000001 0 0 1 207.30208 46.380115 A 0.80000001 0.80000001 0 0 1 208.10203 45.580164 z M 210.64244 45.580164 A 0.80000001 0.80000001 0 0 1 211.44239 46.380115 A 0.80000001 0.80000001 0 0 1 210.64244 47.180066 A 0.80000001 0.80000001 0 0 1 209.84197 46.380115 A 0.80000001 0.80000001 0 0 1 210.64244 45.580164 z M 213.18234 45.580164 A 0.80000001 0.80000001 0 0 1 213.98229 46.380115 A 0.80000001 0.80000001 0 0 1 213.18234 47.180066 A 0.80000001 0.80000001 0 0 1 212.38239 46.380115 A 0.80000001 0.80000001 0 0 1 213.18234 45.580164 z M 215.72223 45.580164 A 0.80000001 0.80000001 0 0 1 216.52218 46.380115 A 0.80000001 0.80000001 0 0 1 215.72223 47.180066 A 0.80000001 0.80000001 0 0 1 214.92228 46.380115 A 0.80000001 0.80000001 0 0 1 215.72223 45.580164 z M 218.26213 45.580164 A 0.80000001 0.80000001 0 0 1 219.06208 46.380115 A 0.80000001 0.80000001 0 0 1 218.26213 47.180066 A 0.80000001 0.80000001 0 0 1 217.46218 46.380115 A 0.80000001 0.80000001 0 0 1 218.26213 45.580164 z M 220.80203 45.580164 A 0.80000001 0.80000001 0 0 1 221.60198 46.380115 A 0.80000001 0.80000001 0 0 1 220.80203 47.180066 A 0.80000001 0.80000001 0 0 1 220.00208 46.380115 A 0.80000001 0.80000001 0 0 1 220.80203 45.580164 z M 233.50203 45.580164 A 0.80000001 0.80000001 0 0 1 234.30198 46.380115 A 0.80000001 0.80000001 0 0 1 233.50203 47.180066 A 0.80000001 0.80000001 0 0 1 232.70208 46.380115 A 0.80000001 0.80000001 0 0 1 233.50203 45.580164 z M 236.04244 45.580164 A 0.80000001 0.80000001 0 0 1 236.84239 46.380115 A 0.80000001 0.80000001 0 0 1 236.04244 47.180066 A 0.80000001 0.80000001 0 0 1 235.24197 46.380115 A 0.80000001 0.80000001 0 0 1 236.04244 45.580164 z M 208.75315 50.549886 A 0.25 0.25 0 0 1 208.78416 50.55092 L 255.87017 50.55092 A 0.25 0.25 0 0 1 256.04484 50.602596 A 0.25 0.25 0 0 1 256.07222 50.626884 L 261.65535 56.210006 L 261.65741 56.210006 L 261.66155 56.211039 L 262.99015 56.788782 A 0.87629998 0.87629998 0 0 1 263.58856 57.620256 A 0.87629998 0.87629998 0 0 1 262.71213 58.496171 A 0.87629998 0.87629998 0 0 1 261.88427 57.905509 L 261.30343 56.569157 L 261.30343 56.56864 L 261.30343 56.565023 L 255.78852 51.050631 L 208.8658 51.050631 L 206.86438 53.051542 L 206.86438 53.053092 L 206.86334 53.057743 L 206.29438 54.318132 A 0.80000001 0.80000001 0 0 1 205.84428 54.748596 L 204.61903 55.301534 L 204.61697 55.302568 L 204.61387 55.302051 L 203.24186 56.67406 A 0.25 0.25 0 0 1 203.21705 56.696281 A 0.25 0.25 0 0 1 203.18966 56.715401 A 0.25 0.25 0 0 1 203.0398 56.750024 L 199.96661 56.750024 L 188.03142 68.683663 L 188.03142 72.40695 L 188.03555 72.411601 L 188.51097 73.669922 A 0.80000001 0.80000001 0 0 1 188.51149 73.670955 L 188.54353 73.756222 L 188.54405 73.756738 L 188.54353 73.759322 A 0.80000001 0.80000001 0 0 1 188.58229 74.000134 A 0.80000001 0.80000001 0 0 1 187.78234 74.800085 A 0.80000001 0.80000001 0 0 1 186.98239 74.000134 A 0.80000001 0.80000001 0 0 1 187.02063 73.757772 L 187.02063 73.756222 L 187.0475 73.685425 A 0.80000001 0.80000001 0 0 1 187.05267 73.671472 L 187.52912 72.411601 L 187.53119 72.409017 L 187.53119 68.58031 A 0.25 0.25 0 0 1 187.5839 68.426831 A 0.25 0.25 0 0 1 187.58493 68.425281 A 0.25 0.25 0 0 1 187.6056 68.402543 L 187.60715 68.400476 A 0.25 0.25 0 0 1 187.61077 68.397375 L 199.68549 56.322144 A 0.25 0.25 0 0 1 199.88392 56.249797 L 202.95712 56.249797 L 204.2604 54.947034 L 204.26143 54.942383 L 204.81127 53.724369 A 0.80000001 0.80000001 0 0 1 205.25569 53.262382 L 206.44425 52.725981 L 206.50574 52.698592 L 206.50781 52.697559 L 206.50988 52.697559 L 208.58262 50.626367 A 0.25 0.25 0 0 1 208.58572 50.623267 A 0.25 0.25 0 0 1 208.5914 50.618099 A 0.25 0.25 0 0 1 208.60949 50.602596 A 0.25 0.25 0 0 1 208.75315 50.549886 z M 210.40214 51.449056 L 254.25218 51.449056 A 0.25 0.25 0 0 1 254.40618 51.502799 A 0.25 0.25 0 0 1 254.42995 51.52347 L 259.11597 56.210006 L 259.12113 56.210006 L 260.45904 56.791882 A 0.87629998 0.87629998 0 0 1 260.57376 56.841492 L 260.57479 56.842008 A 0.87629998 0.87629998 0 0 1 261.04867 57.620256 A 0.87629998 0.87629998 0 0 1 260.17223 58.496171 A 0.87629998 0.87629998 0 0 1 259.34024 57.895691 L 258.76302 56.567607 L 258.76198 56.562956 L 254.14831 51.949284 L 210.50601 51.949284 L 209.40479 53.051542 L 209.40479 53.055676 L 208.81309 54.365674 L 208.81309 54.366191 L 208.81103 54.367741 A 0.80000001 0.80000001 0 0 1 208.47048 54.708805 L 208.46635 54.711389 L 208.3971 54.742395 A 0.80000001 0.80000001 0 0 1 208.38418 54.748596 L 207.15945 55.301534 L 207.15738 55.302568 L 207.15428 55.302051 L 203.27131 59.183468 L 203.27131 66.018193 A 0.25 0.25 0 0 1 203.19897 66.21663 L 193.11121 76.304386 L 193.11121 77.407161 L 193.11534 77.411296 L 193.62384 78.756433 L 193.62384 78.75695 L 193.62384 78.757983 A 0.80000001 0.80000001 0 0 1 193.66208 78.999829 A 0.80000001 0.80000001 0 0 1 192.86213 79.79978 A 0.80000001 0.80000001 0 0 1 192.06218 78.999829 A 0.80000001 0.80000001 0 0 1 192.10094 78.7585 L 192.10094 78.755916 L 192.60892 77.411296 L 192.6115 77.407678 L 192.6115 76.198966 A 0.25 0.25 0 0 1 192.69832 76.009831 L 202.7716 65.937061 L 202.7716 59.080115 A 0.25 0.25 0 0 1 202.83671 58.912683 A 0.25 0.25 0 0 1 202.8455 58.902348 L 206.8003 54.94755 L 206.8003 54.947034 L 206.80133 54.942383 L 207.35065 53.724886 A 0.80000001 0.80000001 0 0 1 207.73616 53.289254 L 207.82194 53.250496 L 209.04667 52.698075 L 209.05081 52.697559 L 210.22283 51.52502 A 0.25 0.25 0 0 1 210.22438 51.52347 A 0.25 0.25 0 0 1 210.23213 51.516752 A 0.25 0.25 0 0 1 210.27657 51.483679 A 0.25 0.25 0 0 1 210.30499 51.46921 A 0.25 0.25 0 0 1 210.40214 51.449056 z M 203.02223 53.199854 A 0.80000001 0.80000001 0 0 1 203.82218 53.999805 A 0.80000001 0.80000001 0 0 1 203.02223 54.799756 A 0.80000001 0.80000001 0 0 1 202.22228 53.999805 A 0.80000001 0.80000001 0 0 1 203.02223 53.199854 z M 210.64244 53.199854 A 0.80000001 0.80000001 0 0 1 211.44239 53.999805 A 0.80000001 0.80000001 0 0 1 210.64244 54.799756 A 0.80000001 0.80000001 0 0 1 209.84197 53.999805 A 0.80000001 0.80000001 0 0 1 210.64244 53.199854 z M 213.18234 53.199854 A 0.80000001 0.80000001 0 0 1 213.98229 53.999805 A 0.80000001 0.80000001 0 0 1 213.18234 54.799756 A 0.80000001 0.80000001 0 0 1 212.38239 53.999805 A 0.80000001 0.80000001 0 0 1 213.18234 53.199854 z M 215.72223 53.199854 A 0.80000001 0.80000001 0 0 1 216.52218 53.999805 A 0.80000001 0.80000001 0 0 1 216.44984 54.332601 L 215.97493 55.588855 L 215.97286 55.591439 L 215.97286 66.300863 A 0.25 0.25 0 0 1 215.87985 66.495166 L 204.32448 78.051567 L 204.32448 78.055701 L 203.7333 79.365698 L 203.73278 79.366215 L 203.73227 79.366732 A 0.80000001 0.80000001 0 0 1 203.02223 79.79978 A 0.80000001 0.80000001 0 0 1 202.22228 78.999829 A 0.80000001 0.80000001 0 0 1 202.65636 78.289278 L 202.6667 78.284627 A 0.80000001 0.80000001 0 0 1 202.7437 78.250004 L 203.96688 77.6981 L 203.97101 77.697583 L 215.47264 66.195443 L 215.47264 55.592472 L 215.46902 55.588855 L 214.9936 54.330017 A 0.80000001 0.80000001 0 0 1 214.92228 53.999805 A 0.80000001 0.80000001 0 0 1 215.72223 53.199854 z M 218.26213 53.199854 A 0.80000001 0.80000001 0 0 1 219.06208 53.999805 A 0.80000001 0.80000001 0 0 1 218.26213 54.799756 A 0.80000001 0.80000001 0 0 1 217.46218 53.999805 A 0.80000001 0.80000001 0 0 1 218.26213 53.199854 z M 220.80203 53.199854 A 0.80000001 0.80000001 0 0 1 221.60198 53.999805 A 0.80000001 0.80000001 0 0 1 220.80203 54.799756 A 0.80000001 0.80000001 0 0 1 220.00208 53.999805 A 0.80000001 0.80000001 0 0 1 220.80203 53.199854 z M 223.34244 53.199854 A 0.80000001 0.80000001 0 0 1 224.14239 53.999805 A 0.80000001 0.80000001 0 0 1 223.34244 54.799756 A 0.80000001 0.80000001 0 0 1 222.54197 53.999805 A 0.80000001 0.80000001 0 0 1 223.34244 53.199854 z M 225.88234 53.199854 A 0.80000001 0.80000001 0 0 1 226.68229 53.999805 A 0.80000001 0.80000001 0 0 1 225.88234 54.799756 A 0.80000001 0.80000001 0 0 1 225.08239 53.999805 A 0.80000001 0.80000001 0 0 1 225.88234 53.199854 z M 228.42223 53.199854 A 0.80000001 0.80000001 0 0 1 229.22218 53.999805 A 0.80000001 0.80000001 0 0 1 228.42223 54.799756 A 0.80000001 0.80000001 0 0 1 227.62228 53.999805 A 0.80000001 0.80000001 0 0 1 228.42223 53.199854 z M 230.96213 53.199854 A 0.80000001 0.80000001 0 0 1 231.76208 53.999805 A 0.80000001 0.80000001 0 0 1 230.96213 54.799756 A 0.80000001 0.80000001 0 0 1 230.16218 53.999805 A 0.80000001 0.80000001 0 0 1 230.96213 53.199854 z M 233.50203 53.199854 A 0.80000001 0.80000001 0 0 1 234.30198 53.999805 A 0.80000001 0.80000001 0 0 1 233.50203 54.799756 A 0.80000001 0.80000001 0 0 1 232.70208 53.999805 A 0.80000001 0.80000001 0 0 1 233.50203 53.199854 z M 235.49209 53.199854 L 236.59228 53.199854 L 236.68788 53.218974 L 236.76901 53.273234 L 236.82327 53.354366 L 236.84239 53.449967 L 236.84239 54.550159 L 236.82327 54.64576 L 236.76901 54.726892 L 236.68788 54.781152 L 236.59228 54.799756 L 235.49209 54.799756 L 235.39648 54.781152 L 235.31535 54.726892 L 235.26109 54.64576 L 235.24197 54.550159 L 235.24197 53.449967 L 235.26109 53.354366 L 235.31535 53.273234 L 235.39648 53.218974 L 235.49209 53.199854 z M 244.93234 56.743823 A 0.87629998 0.87629998 0 0 1 245.80825 57.620256 A 0.87629998 0.87629998 0 0 1 244.93234 58.496171 A 0.87629998 0.87629998 0 0 1 244.0559 57.620256 A 0.87629998 0.87629998 0 0 1 244.93234 56.743823 z M 247.47223 56.743823 A 0.87629998 0.87629998 0 0 1 248.34867 57.620256 A 0.87629998 0.87629998 0 0 1 247.47223 58.496171 A 0.87629998 0.87629998 0 0 1 246.5958 57.620256 A 0.87629998 0.87629998 0 0 1 247.47223 56.743823 z M 250.01213 56.743823 A 0.87629998 0.87629998 0 0 1 250.88856 57.620256 A 0.87629998 0.87629998 0 0 1 250.01213 58.496171 A 0.87629998 0.87629998 0 0 1 249.1357 57.620256 A 0.87629998 0.87629998 0 0 1 250.01213 56.743823 z M 252.55203 56.743823 A 0.87629998 0.87629998 0 0 1 253.42846 57.620256 A 0.87629998 0.87629998 0 0 1 252.55203 58.496171 A 0.87629998 0.87629998 0 0 1 251.67611 57.620256 A 0.87629998 0.87629998 0 0 1 252.55203 56.743823 z M 255.09244 56.743823 A 0.87629998 0.87629998 0 0 1 255.96836 57.620256 A 0.87629998 0.87629998 0 0 1 255.09244 58.496171 A 0.87629998 0.87629998 0 0 1 254.21601 57.620256 A 0.87629998 0.87629998 0 0 1 255.09244 56.743823 z M 257.63234 56.743823 A 0.87629998 0.87629998 0 0 1 258.50825 57.620256 A 0.87629998 0.87629998 0 0 1 257.63234 58.496171 A 0.87629998 0.87629998 0 0 1 256.7559 57.620256 A 0.87629998 0.87629998 0 0 1 257.63234 56.743823 z M 265.25203 56.743823 A 0.87629998 0.87629998 0 0 1 266.12846 57.620256 A 0.87629998 0.87629998 0 0 1 265.25203 58.496171 A 0.87629998 0.87629998 0 0 1 264.37611 57.620256 A 0.87629998 0.87629998 0 0 1 265.25203 56.743823 z M 267.79244 56.743823 A 0.87629998 0.87629998 0 0 1 268.66836 57.620256 A 0.87629998 0.87629998 0 0 1 267.79244 58.496171 A 0.87629998 0.87629998 0 0 1 266.91601 57.620256 A 0.87629998 0.87629998 0 0 1 267.79244 56.743823 z M 270.33234 56.743823 A 0.87629998 0.87629998 0 0 1 271.20825 57.620256 A 0.87629998 0.87629998 0 0 1 270.33234 58.496171 A 0.87629998 0.87629998 0 0 1 269.4559 57.620256 A 0.87629998 0.87629998 0 0 1 270.33234 56.743823 z M 271.9958 56.743823 L 273.74867 56.743823 L 273.74867 58.496171 L 271.9958 58.496171 L 271.9958 56.743823 z M 201.50243 57.620256 A 0.80000001 0.80000001 0 0 1 202.30238 58.420207 A 0.80000001 0.80000001 0 0 1 201.50243 59.220158 A 0.80000001 0.80000001 0 0 1 200.70196 58.420207 A 0.80000001 0.80000001 0 0 1 201.50243 57.620256 z M 206.50212 57.620256 A 0.80000001 0.80000001 0 0 1 207.30208 58.420207 A 0.80000001 0.80000001 0 0 1 206.50212 59.220158 A 0.80000001 0.80000001 0 0 1 205.70217 58.420207 A 0.80000001 0.80000001 0 0 1 206.50212 57.620256 z M 239.85203 58.79021 A 0.89999998 0.89999998 0 0 1 240.70624 59.40671 L 241.29535 60.775618 L 241.29638 60.780269 L 257.24786 76.732267 A 0.25 0.25 0 0 1 257.26853 76.755522 A 0.25 0.25 0 0 1 257.26957 76.757072 A 0.25 0.25 0 0 1 257.32228 76.910034 L 257.32228 82.35673 L 257.32383 82.35828 L 257.62303 83.308093 A 0.60000002 0.60000002 0 0 0 257.62303 83.30861 A 0.60000002 0.60000002 0 0 1 257.67213 83.544771 L 257.67213 84.095642 A 0.60000002 0.60000002 0 0 1 257.07216 84.695089 A 0.60000002 0.60000002 0 0 1 256.47272 84.095642 L 256.47272 83.544771 A 0.60000002 0.60000002 0 0 1 256.52026 83.311711 L 256.51974 83.308093 L 256.81947 82.35828 L 256.82205 82.354663 L 256.82205 77.013387 L 240.94188 61.133219 L 240.93826 61.133219 L 239.56884 60.544108 A 0.89999998 0.89999998 0 0 1 239.44068 60.489331 L 239.43965 60.488814 L 239.43913 60.488298 A 0.89999998 0.89999998 0 0 1 238.95234 59.689897 A 0.89999998 0.89999998 0 0 1 239.85203 58.79021 z M 260.00222 64.824984 A 0.175 0.175 0 0 1 260.1774 65.000167 A 0.175 0.175 0 0 1 260.00222 65.174833 A 0.175 0.175 0 0 1 259.82703 65.000167 A 0.175 0.175 0 0 1 260.00222 64.824984 z M 200.56243 65.239945 A 0.80000001 0.80000001 0 0 1 201.36239 66.039897 A 0.80000001 0.80000001 0 0 1 200.56243 66.839848 A 0.80000001 0.80000001 0 0 1 199.76197 66.039897 A 0.80000001 0.80000001 0 0 1 200.56243 65.239945 z M 205.56213 65.239945 A 0.80000001 0.80000001 0 0 1 206.36208 66.039897 A 0.80000001 0.80000001 0 0 1 205.56213 66.839848 A 0.80000001 0.80000001 0 0 1 204.76218 66.039897 A 0.80000001 0.80000001 0 0 1 205.56213 65.239945 z M 220.80203 67.680107 A 0.89999998 0.89999998 0 0 1 221.70223 68.579793 A 0.89999998 0.89999998 0 0 1 221.21595 69.378194 L 221.21544 69.378711 A 0.89999998 0.89999998 0 0 1 221.08883 69.432971 L 219.71682 70.023633 L 219.71217 70.02415 L 219.71114 70.023633 L 211.54316 78.19316 L 211.54316 82.357764 L 211.54368 82.35828 L 211.84082 83.301375 A 0.60000002 0.60000002 0 0 1 211.89249 83.544771 L 211.89249 84.095642 A 0.60000002 0.60000002 0 0 1 211.29305 84.695089 A 0.60000002 0.60000002 0 0 1 210.69153 84.095642 L 210.69153 83.544771 A 0.60000002 0.60000002 0 0 1 210.74011 83.30861 L 210.74011 83.308093 L 211.03931 82.35828 L 211.04242 82.35363 L 211.04293 82.35363 L 211.04293 78.112545 A 0.25 0.25 0 0 1 211.09513 77.936328 A 0.25 0.25 0 0 1 211.10649 77.924443 A 0.25 0.25 0 0 1 211.11528 77.914107 L 219.3587 69.668616 L 219.3587 69.665515 L 219.94833 68.296606 A 0.89999998 0.89999998 0 0 1 220.00363 68.167415 L 220.00414 68.166382 A 0.89999998 0.89999998 0 0 1 220.80203 67.680107 z M 266.52223 67.779842 A 0.80000001 0.80000001 0 0 1 267.32218 68.579793 A 0.80000001 0.80000001 0 0 1 266.52223 69.379744 A 0.80000001 0.80000001 0 0 1 265.72228 68.579793 A 0.80000001 0.80000001 0 0 1 266.52223 67.779842 z M 276.68234 67.779842 A 0.80000001 0.80000001 0 0 1 277.48229 68.579793 A 0.80000001 0.80000001 0 0 1 276.68234 69.379744 A 0.80000001 0.80000001 0 0 1 275.88239 68.579793 A 0.80000001 0.80000001 0 0 1 276.68234 67.779842 z M 197.94244 73.200183 A 0.80000001 0.80000001 0 0 1 198.74239 74.000134 A 0.80000001 0.80000001 0 0 1 197.94244 74.800085 A 0.80000001 0.80000001 0 0 1 197.14197 74.000134 A 0.80000001 0.80000001 0 0 1 197.94244 73.200183 z M 266.52223 74.660042 A 0.80000001 0.80000001 0 0 1 267.32218 75.459993 A 0.80000001 0.80000001 0 0 1 266.52223 76.259945 A 0.80000001 0.80000001 0 0 1 265.72228 75.459993 A 0.80000001 0.80000001 0 0 1 266.52223 74.660042 z M 276.68234 74.660042 A 0.80000001 0.80000001 0 0 1 277.48229 75.459993 A 0.80000001 0.80000001 0 0 1 276.68234 76.259945 A 0.80000001 0.80000001 0 0 1 275.88239 75.459993 A 0.80000001 0.80000001 0 0 1 276.68234 74.660042 z M 224.00235 76.824768 A 0.175 0.175 0 0 1 224.17701 76.999951 A 0.175 0.175 0 0 1 224.00235 77.175134 A 0.175 0.175 0 0 1 223.82716 76.999951 A 0.175 0.175 0 0 1 224.00235 76.824768 z M 238.58234 77.939945 A 0.80000001 0.80000001 0 0 1 239.38229 78.739897 A 0.80000001 0.80000001 0 0 1 238.58234 79.539848 A 0.80000001 0.80000001 0 0 1 237.78239 78.739897 A 0.80000001 0.80000001 0 0 1 238.58234 77.939945 z M 248.74244 77.939945 A 0.80000001 0.80000001 0 0 1 249.54239 78.739897 A 0.80000001 0.80000001 0 0 1 248.74244 79.539848 A 0.80000001 0.80000001 0 0 1 247.94197 78.739897 A 0.80000001 0.80000001 0 0 1 248.74244 77.939945 z M 184.87709 78.250004 L 185.1272 78.250004 L 185.1272 78.874772 L 185.75197 78.874772 L 185.75197 79.124886 L 185.1272 79.124886 L 185.1272 79.750171 L 184.87709 79.750171 L 184.87709 79.124886 L 184.25232 79.124886 L 184.25232 78.874772 L 184.87709 78.874772 L 184.87709 78.250004 z M 189.40239 82.945325 A 0.60000002 0.60000002 0 0 1 190.00184 83.544771 L 190.00184 84.095642 A 0.60000002 0.60000002 0 0 1 189.40239 84.695089 A 0.60000002 0.60000002 0 0 1 188.80295 84.095642 L 188.80295 83.544771 A 0.60000002 0.60000002 0 0 1 189.40239 82.945325 z M 191.40227 82.945325 A 0.60000002 0.60000002 0 0 1 192.00172 83.544771 L 192.00172 84.095642 A 0.60000002 0.60000002 0 0 1 191.40227 84.695089 A 0.60000002 0.60000002 0 0 1 190.80282 84.095642 L 190.80282 83.544771 A 0.60000002 0.60000002 0 0 1 191.40227 82.945325 z M 193.40215 82.945325 A 0.60000002 0.60000002 0 0 1 194.00211 83.544771 L 194.00211 84.095642 A 0.60000002 0.60000002 0 0 1 193.40215 84.695089 A 0.60000002 0.60000002 0 0 1 192.8027 84.095642 L 192.8027 83.544771 A 0.60000002 0.60000002 0 0 1 193.40215 82.945325 z M 207.29277 82.945325 A 0.60000002 0.60000002 0 0 1 207.89274 83.544771 L 207.89274 84.095642 A 0.60000002 0.60000002 0 0 1 207.29277 84.695089 A 0.60000002 0.60000002 0 0 1 206.69126 84.095642 L 206.69126 83.544771 A 0.60000002 0.60000002 0 0 1 207.29277 82.945325 z M 209.29317 82.945325 A 0.60000002 0.60000002 0 0 1 209.89261 83.544771 L 209.89261 84.095642 A 0.60000002 0.60000002 0 0 1 209.29317 84.695089 A 0.60000002 0.60000002 0 0 1 208.69165 84.095642 L 208.69165 83.544771 A 0.60000002 0.60000002 0 0 1 209.29317 82.945325 z M 213.29292 82.945325 A 0.60000002 0.60000002 0 0 1 213.89237 83.544771 L 213.89237 84.095642 A 0.60000002 0.60000002 0 0 1 213.29292 84.695089 A 0.60000002 0.60000002 0 0 1 212.69141 84.095642 L 212.69141 83.544771 A 0.60000002 0.60000002 0 0 1 213.29292 82.945325 z M 215.2928 82.945325 A 0.60000002 0.60000002 0 0 1 215.89277 83.544771 L 215.89277 84.095642 A 0.60000002 0.60000002 0 0 1 215.2928 84.695089 A 0.60000002 0.60000002 0 0 1 214.69129 84.095642 L 214.69129 83.544771 A 0.60000002 0.60000002 0 0 1 215.2928 82.945325 z M 229.18188 82.945325 A 0.60000002 0.60000002 0 0 1 229.78132 83.544771 L 229.78132 84.095642 A 0.60000002 0.60000002 0 0 1 229.18188 84.695089 A 0.60000002 0.60000002 0 0 1 228.58191 84.095642 L 228.58191 83.544771 A 0.60000002 0.60000002 0 0 1 229.18188 82.945325 z M 231.18175 82.945325 A 0.60000002 0.60000002 0 0 1 231.7812 83.544771 L 231.7812 84.095642 A 0.60000002 0.60000002 0 0 1 231.18175 84.695089 A 0.60000002 0.60000002 0 0 1 230.58179 84.095642 L 230.58179 83.544771 A 0.60000002 0.60000002 0 0 1 231.18175 82.945325 z M 233.18163 82.945325 A 0.60000002 0.60000002 0 0 1 233.78108 83.544771 L 233.78108 84.095642 A 0.60000002 0.60000002 0 0 1 233.18163 84.695089 A 0.60000002 0.60000002 0 0 1 232.58219 84.095642 L 232.58219 83.544771 A 0.60000002 0.60000002 0 0 1 233.18163 82.945325 z M 235.18151 82.945325 A 0.60000002 0.60000002 0 0 1 235.78147 83.544771 L 235.78147 84.095642 A 0.60000002 0.60000002 0 0 1 235.18151 84.695089 A 0.60000002 0.60000002 0 0 1 234.58206 84.095642 L 234.58206 83.544771 A 0.60000002 0.60000002 0 0 1 235.18151 82.945325 z M 249.07214 82.945325 A 0.60000002 0.60000002 0 0 1 249.6721 83.544771 L 249.6721 84.095642 A 0.60000002 0.60000002 0 0 1 249.07214 84.695089 A 0.60000002 0.60000002 0 0 1 248.47269 84.095642 L 248.47269 83.544771 A 0.60000002 0.60000002 0 0 1 249.07214 82.945325 z M 251.07201 82.945325 A 0.60000002 0.60000002 0 0 1 251.67198 83.544771 L 251.67198 84.095642 A 0.60000002 0.60000002 0 0 1 251.07201 84.695089 A 0.60000002 0.60000002 0 0 1 250.47257 84.095642 L 250.47257 83.544771 A 0.60000002 0.60000002 0 0 1 251.07201 82.945325 z M 253.07241 82.945325 A 0.60000002 0.60000002 0 0 1 253.67185 83.544771 L 253.67185 84.095642 A 0.60000002 0.60000002 0 0 1 253.07241 84.695089 A 0.60000002 0.60000002 0 0 1 252.47244 84.095642 L 252.47244 83.544771 A 0.60000002 0.60000002 0 0 1 253.07241 82.945325 z M 255.07229 82.945325 A 0.60000002 0.60000002 0 0 1 255.67173 83.544771 L 255.67173 84.095642 A 0.60000002 0.60000002 0 0 1 255.07229 84.695089 A 0.60000002 0.60000002 0 0 1 254.47284 84.095642 L 254.47284 83.544771 A 0.60000002 0.60000002 0 0 1 255.07229 82.945325 z M 270.61242 84.044999 L 271.31212 84.044999 L 271.40772 84.064119 L 271.48885 84.11838 L 271.54312 84.199512 L 271.56224 84.295113 L 271.56224 85.545166 L 271.54312 85.640767 L 271.48885 85.721899 L 271.40772 85.77616 L 271.31212 85.794763 L 270.61242 85.794763 L 270.5163 85.77616 L 270.43517 85.721899 L 270.38143 85.640767 L 270.36231 85.545166 L 270.36231 84.295113 L 270.38143 84.199512 L 270.43517 84.11838 L 270.5163 84.064119 L 270.61242 84.044999 z M 272.96267 84.044999 A 0.60000002 0.60000002 0 0 1 273.56263 84.644446 L 273.56263 85.195317 A 0.60000002 0.60000002 0 0 1 272.96267 85.794763 A 0.60000002 0.60000002 0 0 1 272.36115 85.195317 L 272.36115 84.644446 A 0.60000002 0.60000002 0 0 1 272.96267 84.044999 z M 274.96306 84.044999 A 0.60000002 0.60000002 0 0 1 275.56251 84.644446 L 275.56251 85.195317 A 0.60000002 0.60000002 0 0 1 274.96306 85.794763 A 0.60000002 0.60000002 0 0 1 274.36155 85.195317 L 274.36155 84.644446 A 0.60000002 0.60000002 0 0 1 274.96306 84.044999 z "/>
  <path id="bambu_00247" d="m 240.0272,59.689999 a 0.175,0.175 0 0 1 -0.175,0.175 0.175,0.175 0 0 1 -0.175,-0.175 0.175,0.175 0 0 1 0.175,-0.175 0.175,0.175 0 0 1 0.175,0.175 z" style="fill:#00FF00;fill-opacity:1;stroke:none"/>
  <path id="bambu_00248" d="m 246.37719,35.560001 a 0.175,0.175 0 0 1 -0.175,0.175 0.175,0.175 0 0 1 -0.175,-0.175 0.175,0.175 0 0 1 0.175,-0.175 0.175,0.175 0 0 1 0.175,0.175 z" style="fill:#00FF00;fill-opacity:1;stroke:none"/>
  <path id="bambu_00249" d="m 241.29719,38.099998 a 0.175,0.175 0 0 1 -0.175,0.175 0.175,0.175 0 0 1 -0.175,-0.175 0.175,0.175 0 0 1 0.175,-0.175 0.175,0.175 0 0 1 0.175,0.175 z" style="fill:#00FF00;fill-opacity:1;stroke:none"/>
  <path id="bambu_00250" d="m 220.9772,68.580002 a 0.175,0.175 0 0 1 -0.175,0.175 0.175,0.175 0 0 1 -0.175,-0.175 0.175,0.175 0 0 1 0.175,-0.175 0.175,0.175 0 0 1 0.175,0.175 z" style="fill:#00FF00;fill-opacity:1;stroke:none"/>
  <path id="bambu_00251" d="m 243.8372,33.02 a 0.175,0.175 0 0 1 -0.175,0.175 0.175,0.175 0 0 1 -0.175,-0.175 0.175,0.175 0 0 1 0.175,-0.175 0.175,0.175 0 0 1 0.175,0.175 z" style="fill:#00FF00;fill-opacity:1;stroke:none"/>
  <path id="bambu_00255" d="m 213.35721,24.452499 a 0.175,0.175 0 0 1 -0.175,0.175 0.175,0.175 0 0 1 -0.175,-0.175 0.175,0.175 0 0 1 0.175,-0.175 0.175,0.175 0 0 1 0.175,0.175 z" style="fill:#00FF00;fill-opacity:1;stroke:none"/>
  <path id="bambu_00257" d="m 215.35721,24.452499 a 0.175,0.175 0 0 1 -0.175,0.175 0.175,0.175 0 0 1 -0.175,-0.175 0.175,0.175 0 0 1 0.175,-0.175 0.175,0.175 0 0 1 0.175,0.175 z" style="fill:#00FF00;fill-opacity:1;stroke:none"/>
  <path id="bambu_00259" d="m 217.35721,24.452499 a 0.175,0.175 0 0 1 -0.175,0.175 0.175,0.175 0 0 1 -0.175,-0.175 0.175,0.175 0 0 1 0.175,-0.175 0.175,0.175 0 0 1 0.175,0.175 z" style="fill:#00FF00;fill-opacity:1;stroke:none"/>
  <path id="bambu_00261" d="m 219.35721,24.452499 a 0.175,0.175 0 0 1 -0.175,0.175 0.175,0.175 0 0 1 -0.175,-0.175 0.175,0.175 0 0 1 0.175,-0.175 0.175,0.175 0 0 1 0.175,0.175 z" style="fill:#00FF00;fill-opacity:1;stroke:none"/>
  <path id="bambu_00263" d="m 271.13719,84.919998 a 0.175,0.175 0 0 1 -0.175,0.175 0.175,0.175 0 0 1 -0.175,-0.175 0.175,0.175 0 0 1 0.175,-0.175 0.175,0.175 0 0 1 0.175,0.175 z" style="fill:#00FF00;fill-opacity:1;stroke:none"/>
  <path id="bambu_00265" d="m 273.13719,84.919998 a 0.175,0.175 0 0 1 -0.175,0.175 0.175,0.175 0 0 1 -0.175,-0.175 0.175,0.175 0 0 1 0.175,-0.175 0.175,0.175 0 0 1 0.175,0.175 z" style="fill:#00FF00;fill-opacity:1;stroke:none"/>
  <path id="bambu_00267" d="m 275.13719,84.919998 a 0.175,0.175 0 0 1 -0.175,0.175 0.175,0.175 0 0 1 -0.175,-0.175 0.175,0.175 0 0 1 0.175,-0.175 0.175,0.175 0 0 1 0.175,0.175 z" style="fill:#00FF00;fill-opacity:1;stroke:none"/>
  <path id="bambu_00271" d="m 236.21721,54 a 0.175,0.175 0 0 1 -0.175,0.175 0.175,0.175 0 0 1 -0.175,-0.175 0.175,0.175 0 0 1 0.175,-0.175 0.175,0.175 0 0 1 0.175,0.175 z" style="fill:#00FF00;fill-opacity:1;stroke:none"/>
  <path id="bambu_00273" d="m 233.6772,54 a 0.175,0.175 0 0 1 -0.175,0.175 0.175,0.175 0 0 1 -0.175,-0.175 0.175,0.175 0 0 1 0.175,-0.175 0.175,0.175 0 0 1 0.175,0.175 z" style="fill:#00FF00;fill-opacity:1;stroke:none"/>
  <path id="bambu_00275" d="m 231.1372,54 a 0.175,0.175 0 0 1 -0.175,0.175 0.175,0.175 0 0 1 -0.175,-0.175 0.175,0.175 0 0 1 0.175,-0.175 0.175,0.175 0 0 1 0.175,0.175 z" style="fill:#00FF00;fill-opacity:1;stroke:none"/>
  <path id="bambu_00277" d="m 228.5972,54 a 0.175,0.175 0 0 1 -0.175,0.175 0.175,0.175 0 0 1 -0.175,-0.175 0.175,0.175 0 0 1 0.175,-0.175 0.175,0.175 0 0 1 0.175,0.175 z" style="fill:#00FF00;fill-opacity:1;stroke:none"/>
  <path id="bambu_00279" d="m 226.0572,54 a 0.175,0.175 0 0 1 -0.175,0.175 0.175,0.175 0 0 1 -0.175,-0.175 0.175,0.175 0 0 1 0.175,-0.175 0.175,0.175 0 0 1 0.175,0.175 z" style="fill:#00FF00;fill-opacity:1;stroke:none"/>
  <path id="bambu_00281" d="m 223.51719,54 a 0.175,0.175 0 0 1 -0.175,0.175 0.175,0.175 0 0 1 -0.175,-0.175 0.175,0.175 0 0 1 0.175,-0.175 0.175,0.175 0 0 1 0.175,0.175 z" style="fill:#00FF00;fill-opacity:1;stroke:none"/>
  <path id="bambu_00283" d="m 220.9772,54 a 0.175,0.175 0 0 1 -0.175,0.175 0.175,0.175 0 0 1 -0.175,-0.175 0.175,0.175 0 0 1 0.175,-0.175 0.175,0.175 0 0 1 0.175,0.175 z" style="fill:#00FF00;fill-opacity:1;stroke:none"/>
  <path id="bambu_00285" d="m 218.43721,54 a 0.175,0.175 0 0 1 -0.175,0.175 0.175,0.175 0 0 1 -0.175,-0.175 0.175,0.175 0 0 1 0.175,-0.175 0.175,0.175 0 0 1 0.175,0.175 z" style="fill:#00FF00;fill-opacity:1;stroke:none"/>
  <path id="bambu_00287" d="m 215.8972,54 a 0.175,0.175 0 0 1 -0.175,0.175 0.175,0.175 0 0 1 -0.175,-0.175 0.175,0.175 0 0 1 0.175,-0.175 0.175,0.175 0 0 1 0.175,0.175 z" style="fill:#00FF00;fill-opacity:1;stroke:none"/>
  <path id="bambu_00289" d="m 213.35721,54 a 0.175,0.175 0 0 1 -0.175,0.175 0.175,0.175 0 0 1 -0.175,-0.175 0.175,0.175 0 0 1 0.175,-0.175 0.175,0.175 0 0 1 0.175,0.175 z" style="fill:#00FF00;fill-opacity:1;stroke:none"/>
  <path id="bambu_00291" d="m 210.8172,54 a 0.175,0.175 0 0 1 -0.175,0.175 0.175,0.175 0 0 1 -0.175,-0.175 0.175,0.175 0 0 1 0.175,-0.175 0.175,0.175 0 0 1 0.175,0.175 z" style="fill:#00FF00;fill-opacity:1;stroke:none"/>
  <path id="bambu_00293" d="m 208.2772,54 a 0.175,0.175 0 0 1 -0.175,0.175 0.175,0.175 0 0 1 -0.175,-0.175 0.175,0.175 0 0 1 0.175,-0.175 0.175,0.175 0 0 1 0.175,0.175 z" style="fill:#00FF00;fill-opacity:1;stroke:none"/>
  <path id="bambu_00295" d="m 205.73719,54 a 0.175,0.175 0 0 1 -0.175,0.175 0.175,0.175 0 0 1 -0.175,-0.175 0.175,0.175 0 0 1 0.175,-0.175 0.175,0.175 0 0 1 0.175,0.175 z" style="fill:#00FF00;fill-opacity:1;stroke:none"/>
  <path id="bambu_00297" d="m 203.1972,54 a 0.175,0.175 0 0 1 -0.175,0.175 0.175,0.175 0 0 1 -0.175,-0.175 0.175,0.175 0 0 1 0.175,-0.175 0.175,0.175 0 0 1 0.175,0.175 z" style="fill:#00FF00;fill-opacity:1;stroke:none"/>
  <path id="bambu_00299" d="m 203.1972,46.380001 a 0.175,0.175 0 0 1 -0.175,0.175 0.175,0.175 0 0 1 -0.175,-0.175 0.175,0.175 0 0 1 0.175,-0.175 0.175,0.175 0 0 1 0.175,0.175 z" style="fill:#00FF00;fill-opacity:1;stroke:none"/>
  <path id="bambu_00301" d="m 205.73719,46.380001 a 0.175,0.175 0 0 1 -0.175,0.175 0.175,0.175 0 0 1 -0.175,-0.175 0.175,0.175 0 0 1 0.175,-0.175 0.175,0.175 0 0 1 0.175,0.175 z" style="fill:#00FF00;fill-opacity:1;stroke:none"/>
  <path id="bambu_00303" d="m 208.2772,46.380001 a 0.175,0.175 0 0 1 -0.175,0.175 0.175,0.175 0 0 1 -0.175,-0.175 0.175,0.175 0 0 1 0.175,-0.175 0.175,0.175 0 0 1 0.175,0.175 z" style="fill:#00FF00;fill-opacity:1;stroke:none"/>
  <path id="bambu_00305" d="m 210.8172,46.380001 a 0.175,0.175 0 0 1 -0.175,0.175 0.175,0.175 0 0 1 -0.175,-0.175 0.175,0.175 0 0 1 0.175,-0.175 0.175,0.175 0 0 1 0.175,0.175 z" style="fill:#00FF00;fill-opacity:1;stroke:none"/>
  <path id="bambu_00307" d="m 213.35721,46.380001 a 0.175,0.175 0 0 1 -0.175,0.175 0.175,0.175 0 0 1 -0.175,-0.175 0.175,0.175 0 0 1 0.175,-0.175 0.175,0.175 0 0 1 0.175,0.175 z" style="fill:#00FF00;fill-opacity:1;stroke:none"/>
  <path id="bambu_00309" d="m 215.8972,46.380001 a 0.175,0.175 0 0 1 -0.175,0.175 0.175,0.175 0 0 1 -0.175,-0.175 0.175,0.175 0 0 1 0.175,-0.175 0.175,0.175 0 0 1 0.175,0.175 z" style="fill:#00FF00;fill-opacity:1;stroke:none"/>
  <path id="bambu_00311" d="m 218.43721,46.380001 a 0.175,0.175 0 0 1 -0.175,0.175 0.175,0.175 0 0 1 -0.175,-0.175 0.175,0.175 0 0 1 0.175,-0.175 0.175,0.175 0 0 1 0.175,0.175 z" style="fill:#00FF00;fill-opacity:1;stroke:none"/>
  <path id="bambu_00313" d="m 220.9772,46.380001 a 0.175,0.175 0 0 1 -0.175,0.175 0.175,0.175 0 0 1 -0.175,-0.175 0.175,0.175 0 0 1 0.175,-0.175 0.175,0.175 0 0 1 0.175,0.175 z" style="fill:#00FF00;fill-opacity:1;stroke:none"/>
  <path id="bambu_00315" d="m 223.51719,46.380001 a 0.175,0.175 0 0 1 -0.175,0.175 0.175,0.175 0 0 1 -0.175,-0.175 0.175,0.175 0 0 1 0.175,-0.175 0.175,0.175 0 0 1 0.175,0.175 z" style="fill:#00FF00;fill-opacity:1;stroke:none"/>
  <path id="bambu_00317" d="m 226.0572,46.380001 a 0.175,0.175 0 0 1 -0.175,0.175 0.175,0.175 0 0 1 -0.175,-0.175 0.175,0.175 0 0 1 0.175,-0.175 0.175,0.175 0 0 1 0.175,0.175 z" style="fill:#00FF00;fill-opacity:1;stroke:none"/>
  <path id="bambu_00319" d="m 228.5972,46.380001 a 0.175,0.175 0 0 1 -0.175,0.175 0.175,0.175 0 0 1 -0.175,-0.175 0.175,0.175 0 0 1 0.175,-0.175 0.175,0.175 0 0 1 0.175,0.175 z" style="fill:#00FF00;fill-opacity:1;stroke:none"/>
  <path id="bambu_00321" d="m 231.1372,46.380001 a 0.175,0.175 0 0 1 -0.175,0.175 0.175,0.175 0 0 1 -0.175,-0.175 0.175,0.175 0 0 1 0.175,-0.175 0.175,0.175 0 0 1 0.175,0.175 z" style="fill:#00FF00;fill-opacity:1;stroke:none"/>
  <path id="bambu_00323" d="m 233.6772,46.380001 a 0.175,0.175 0 0 1 -0.175,0.175 0.175,0.175 0 0 1 -0.175,-0.175 0.175,0.175 0 0 1 0.175,-0.175 0.175,0.175 0 0 1 0.175,0.175 z" style="fill:#00FF00;fill-opacity:1;stroke:none"/>
  <path id="bambu_00325" d="m 236.21721,46.380001 a 0.175,0.175 0 0 1 -0.175,0.175 0.175,0.175 0 0 1 -0.175,-0.175 0.175,0.175 0 0 1 0.175,-0.175 0.175,0.175 0 0 1 0.175,0.175 z" style="fill:#00FF00;fill-opacity:1;stroke:none"/>
  <path id="bambu_00327" d="m 273.04719,57.619999 a 0.175,0.175 0 0 1 -0.175,0.175 0.175,0.175 0 0 1 -0.175,-0.175 0.175,0.175 0 0 1 0.175,-0.175 0.175,0.175 0 0 1 0.175,0.175 z" style="fill:#00FF00;fill-opacity:1;stroke:none"/>
  <path id="bambu_00329" d="m 270.50721,57.619999 a 0.175,0.175 0 0 1 -0.175,0.175 0.175,0.175 0 0 1 -0.175,-0.175 0.175,0.175 0 0 1 0.175,-0.175 0.175,0.175 0 0 1 0.175,0.175 z" style="fill:#00FF00;fill-opacity:1;stroke:none"/>
  <path id="bambu_00331" d="m 267.96721,57.619999 a 0.175,0.175 0 0 1 -0.175,0.175 0.175,0.175 0 0 1 -0.175,-0.175 0.175,0.175 0 0 1 0.175,-0.175 0.175,0.175 0 0 1 0.175,0.175 z" style="fill:#00FF00;fill-opacity:1;stroke:none"/>
  <path id="bambu_00333" d="m 265.4272,57.619999 a 0.175,0.175 0 0 1 -0.175,0.175 0.175,0.175 0 0 1 -0.175,-0.175 0.175,0.175 0 0 1 0.175,-0.175 0.175,0.175 0 0 1 0.175,0.175 z" style="fill:#00FF00;fill-opacity:1;stroke:none"/>
  <path id="bambu_00335" d="m 262.88719,57.619999 a 0.175,0.175 0 0 1 -0.175,0.175 0.175,0.175 0 0 1 -0.175,-0.175 0.175,0.175 0 0 1 0.175,-0.175 0.175,0.175 0 0 1 0.175,0.175 z" style="fill:#00FF00;fill-opacity:1;stroke:none"/>
  <path id="bambu_00337" d="m 260.34721,57.619999 a 0.175,0.175 0 0 1 -0.175,0.175 0.175,0.175 0 0 1 -0.175,-0.175 0.175,0.175 0 0 1 0.175,-0.175 0.175,0.175 0 0 1 0.175,0.175 z" style="fill:#00FF00;fill-opacity:1;stroke:none"/>
  <path id="bambu_00339" d="m 257.8072,57.619999 a 0.175,0.175 0 0 1 -0.175,0.175 0.175,0.175 0 0 1 -0.175,-0.175 0.175,0.175 0 0 1 0.175,-0.175 0.175,0.175 0 0 1 0.175,0.175 z" style="fill:#00FF00;fill-opacity:1;stroke:none"/>
  <path id="bambu_00341" d="m 255.26719,57.619999 a 0.175,0.175 0 0 1 -0.175,0.175 0.175,0.175 0 0 1 -0.175,-0.175 0.175,0.175 0 0 1 0.175,-0.175 0.175,0.175 0 0 1 0.175,0.175 z" style="fill:#00FF00;fill-opacity:1;stroke:none"/>
  <path id="bambu_00343" d="m 252.7272,57.619999 a 0.175,0.175 0 0 1 -0.175,0.175 0.175,0.175 0 0 1 -0.175,-0.175 0.175,0.175 0 0 1 0.175,-0.175 0.175,0.175 0 0 1 0.175,0.175 z" style="fill:#00FF00;fill-opacity:1;stroke:none"/>
  <path id="bambu_00345" d="m 250.18721,57.619999 a 0.175,0.175 0 0 1 -0.175,0.175 0.175,0.175 0 0 1 -0.175,-0.175 0.175,0.175 0 0 1 0.175,-0.175 0.175,0.175 0 0 1 0.175,0.175 z" style="fill:#00FF00;fill-opacity:1;stroke:none"/>
  <path id="bambu_00347" d="m 247.6472,57.619999 a 0.175,0.175 0 0 1 -0.175,0.175 0.175,0.175 0 0 1 -0.175,-0.175 0.175,0.175 0 0 1 0.175,-0.175 0.175,0.175 0 0 1 0.175,0.175 z" style="fill:#00FF00;fill-opacity:1;stroke:none"/>
  <path id="bambu_00349" d="m 245.10721,57.619999 a 0.175,0.175 0 0 1 -0.175,0.175 0.175,0.175 0 0 1 -0.175,-0.175 0.175,0.175 0 0 1 0.175,-0.175 0.175,0.175 0 0 1 0.175,0.175 z" style="fill:#00FF00;fill-opacity:1;stroke:none"/>
  <path id="bambu_00351" d="m 245.10721,42.380001 a 0.175,0.175 0 0 1 -0.175,0.175 0.175,0.175 0 0 1 -0.175,-0.175 0.175,0.175 0 0 1 0.175,-0.175 0.175,0.175 0 0 1 0.175,0.175 z" style="fill:#00FF00;fill-opacity:1;stroke:none"/>
  <path id="bambu_00353" d="m 247.6472,42.380001 a 0.175,0.175 0 0 1 -0.175,0.175 0.175,0.175 0 0 1 -0.175,-0.175 0.175,0.175 0 0 1 0.175,-0.175 0.175,0.175 0 0 1 0.175,0.175 z" style="fill:#00FF00;fill-opacity:1;stroke:none"/>
  <path id="bambu_00355" d="m 250.18721,42.380001 a 0.175,0.175 0 0 1 -0.175,0.175 0.175,0.175 0 0 1 -0.175,-0.175 0.175,0.175 0 0 1 0.175,-0.175 0.175,0.175 0 0 1 0.175,0.175 z" style="fill:#00FF00;fill-opacity:1;stroke:none"/>
  <path id="bambu_00357" d="m 252.7272,42.380001 a 0.175,0.175 0 0 1 -0.175,0.175 0.175,0.175 0 0 1 -0.175,-0.175 0.175,0.175 0 0 1 0.175,-0.175 0.175,0.175 0 0 1 0.175,0.175 z" style="fill:#00FF00;fill-opacity:1;stroke:none"/>
  <path id="bambu_00359" d="m 255.26719,42.380001 a 0.175,0.175 0 0 1 -0.175,0.175 0.175,0.175 0 0 1 -0.175,-0.175 0.175,0.175 0 0 1 0.175,-0.175 0.175,0.175 0 0 1 0.175,0.175 z" style="fill:#00FF00;fill-opacity:1;stroke:none"/>
  <path id="bambu_00361" d="m 257.8072,42.380001 a 0.175,0.175 0 0 1 -0.175,0.175 0.175,0.175 0 0 1 -0.175,-0.175 0.175,0.175 0 0 1 0.175,-0.175 0.175,0.175 0 0 1 0.175,0.175 z" style="fill:#00FF00;fill-opacity:1;stroke:none"/>
  <path id="bambu_00363" d="m 260.34721,42.380001 a 0.175,0.175 0 0 1 -0.175,0.175 0.175,0.175 0 0 1 -0.175,-0.175 0.175,0.175 0 0 1 0.175,-0.175 0.175,0.175 0 0 1 0.175,0.175 z" style="fill:#00FF00;fill-opacity:1;stroke:none"/>
  <path id="bambu_00365" d="m 262.88719,42.380001 a 0.175,0.175 0 0 1 -0.175,0.175 0.175,0.175 0 0 1 -0.175,-0.175 0.175,0.175 0 0 1 0.175,-0.175 0.175,0.175 0 0 1 0.175,0.175 z" style="fill:#00FF00;fill-opacity:1;stroke:none"/>
  <path id="bambu_00367" d="m 265.4272,42.380001 a 0.175,0.175 0 0 1 -0.175,0.175 0.175,0.175 0 0 1 -0.175,-0.175 0.175,0.175 0 0 1 0.175,-0.175 0.175,0.175 0 0 1 0.175,0.175 z" style="fill:#00FF00;fill-opacity:1;stroke:none"/>
  <path id="bambu_00369" d="m 267.96721,42.380001 a 0.175,0.175 0 0 1 -0.175,0.175 0.175,0.175 0 0 1 -0.175,-0.175 0.175,0.175 0 0 1 0.175,-0.175 0.175,0.175 0 0 1 0.175,0.175 z" style="fill:#00FF00;fill-opacity:1;stroke:none"/>
  <path id="bambu_00371" d="m 270.50721,42.380001 a 0.175,0.175 0 0 1 -0.175,0.175 0.175,0.175 0 0 1 -0.175,-0.175 0.175,0.175 0 0 1 0.175,-0.175 0.175,0.175 0 0 1 0.175,0.175 z" style="fill:#00FF00;fill-opacity:1;stroke:none"/>
  <path id="bambu_00373" d="m 273.04719,42.380001 a 0.175,0.175 0 0 1 -0.175,0.175 0.175,0.175 0 0 1 -0.175,-0.175 0.175,0.175 0 0 1 0.175,-0.175 0.175,0.175 0 0 1 0.175,0.175 z" style="fill:#00FF00;fill-opacity:1;stroke:none"/>
  <path id="bambu_00375" d="m 251.9989,24.452499 a 0.175,0.175 0 0 1 -0.175,0.175 0.175,0.175 0 0 1 -0.175,-0.175 0.175,0.175 0 0 1 0.175,-0.175 0.175,0.175 0 0 1 0.175,0.175 z" style="fill:#00FF00;fill-opacity:1;stroke:none"/>
  <path id="bambu_00377" d="m 253.9989,24.452499 a 0.175,0.175 0 0 1 -0.175,0.175 0.175,0.175 0 0 1 -0.175,-0.175 0.175,0.175 0 0 1 0.175,-0.175 0.175,0.175 0 0 1 0.175,0.175 z" style="fill:#00FF00;fill-opacity:1;stroke:none"/>
  <path id="bambu_00379" d="m 255.9989,24.452499 a 0.175,0.175 0 0 1 -0.175,0.175 0.175,0.175 0 0 1 -0.175,-0.175 0.175,0.175 0 0 1 0.175,-0.175 0.175,0.175 0 0 1 0.175,0.175 z" style="fill:#00FF00;fill-opacity:1;stroke:none"/>
  <path id="bambu_00381" d="m 257.99891,24.452499 a 0.175,0.175 0 0 1 -0.175,0.175 0.175,0.175 0 0 1 -0.175,-0.175 0.175,0.175 0 0 1 0.175,-0.175 0.175,0.175 0 0 1 0.175,0.175 z" style="fill:#00FF00;fill-opacity:1;stroke:none"/>
  <path id="bambu_00383" d="m 271.59721,34.080002 a 0.175,0.175 0 0 1 -0.175,0.175 0.175,0.175 0 0 1 -0.175,-0.175 0.175,0.175 0 0 1 0.175,-0.175 0.175,0.175 0 0 1 0.175,0.175 z" style="fill:#00FF00;fill-opacity:1;stroke:none"/>
  <path id="bambu_00385" d="m 266.59721,34.080002 a 0.175,0.175 0 0 1 -0.175,0.175 0.175,0.175 0 0 1 -0.175,-0.175 0.175,0.175 0 0 1 0.175,-0.175 0.175,0.175 0 0 1 0.175,0.175 z" style="fill:#00FF00;fill-opacity:1;stroke:none"/>
  <path id="bambu_00387" d="m 276.85719,68.580002 a 0.175,0.175 0 0 1 -0.175,0.175 0.175,0.175 0 0 1 -0.175,-0.175 0.175,0.175 0 0 1 0.175,-0.175 0.175,0.175 0 0 1 0.175,0.175 z" style="fill:#00FF00;fill-opacity:1;stroke:none"/>
  <path id="bambu_00389" d="m 266.69719,68.580002 a 0.175,0.175 0 0 1 -0.175,0.175 0.175,0.175 0 0 1 -0.175,-0.175 0.175,0.175 0 0 1 0.175,-0.175 0.175,0.175 0 0 1 0.175,0.175 z" style="fill:#00FF00;fill-opacity:1;stroke:none"/>
  <path id="bambu_00391" d="m 261.6172,37.080002 a 0.175,0.175 0 0 1 -0.175,0.175 0.175,0.175 0 0 1 -0.175,-0.175 0.175,0.175 0 0 1 0.175,-0.175 0.175,0.175 0 0 1 0.175,0.175 z" style="fill:#00FF00;fill-opacity:1;stroke:none"/>
  <path id="bambu_00393" d="m 256.6172,37.080002 a 0.175,0.175 0 0 1 -0.175,0.175 0.175,0.175 0 0 1 -0.175,-0.175 0.175,0.175 0 0 1 0.175,-0.175 0.175,0.175 0 0 1 0.175,0.175 z" style="fill:#00FF00;fill-opacity:1;stroke:none"/>
  <path id="bambu_00395" d="m 258.59721,32 a 0.175,0.175 0 0 1 -0.175,0.175 0.175,0.175 0 0 1 -0.175,-0.175 0.175,0.175 0 0 1 0.175,-0.175 0.175,0.175 0 0 1 0.175,0.175 z" style="fill:#00FF00;fill-opacity:1;stroke:none"/>
  <path id="bambu_00397" d="m 253.5972,32 a 0.175,0.175 0 0 1 -0.175,0.175 0.175,0.175 0 0 1 -0.175,-0.175 0.175,0.175 0 0 1 0.175,-0.175 0.175,0.175 0 0 1 0.175,0.175 z" style="fill:#00FF00;fill-opacity:1;stroke:none"/>
  <path id="bambu_00401" d="m 268.67469,29.002501 a 0.175,0.175 0 0 1 -0.175,0.175 0.175,0.175 0 0 1 -0.175,-0.175 0.175,0.175 0 0 1 0.175,-0.175 0.175,0.175 0 0 1 0.175,0.175 z" style="fill:#00FF00;fill-opacity:1;stroke:none"/>
  <path id="bambu_00403" d="m 275.17469,29.002501 a 0.175,0.175 0 0 1 -0.175,0.175 0.175,0.175 0 0 1 -0.175,-0.175 0.175,0.175 0 0 1 0.175,-0.175 0.175,0.175 0 0 1 0.175,0.175 z" style="fill:#00FF00;fill-opacity:1;stroke:none"/>
  <path id="bambu_00405" d="m 268.67469,24.502501 a 0.175,0.175 0 0 1 -0.175,0.175 0.175,0.175 0 0 1 -0.175,-0.175 0.175,0.175 0 0 1 0.175,-0.175 0.175,0.175 0 0 1 0.175,0.175 z" style="fill:#00FF00;fill-opacity:1;stroke:none"/>
  <path id="bambu_00407" d="m 275.17469,24.502501 a 0.175,0.175 0 0 1 -0.175,0.175 0.175,0.175 0 0 1 -0.175,-0.175 0.175,0.175 0 0 1 0.175,-0.175 0.175,0.175 0 0 1 0.175,0.175 z" style="fill:#00FF00;fill-opacity:1;stroke:none"/>
  <path id="bambu_00409" d="m 238.7572,78.739998 a 0.175,0.175 0 0 1 -0.175,0.175 0.175,0.175 0 0 1 -0.175,-0.175 0.175,0.175 0 0 1 0.175,-0.175 0.175,0.175 0 0 1 0.175,0.175 z" style="fill:#00FF00;fill-opacity:1;stroke:none"/>
  <path id="bambu_00411" d="m 248.9172,78.739998 a 0.175,0.175 0 0 1 -0.175,0.175 0.175,0.175 0 0 1 -0.175,-0.175 0.175,0.175 0 0 1 0.175,-0.175 0.175,0.175 0 0 1 0.175,0.175 z" style="fill:#00FF00;fill-opacity:1;stroke:none"/>
  <path id="bambu_00415" d="m 237.35721,83.82 a 0.175,0.175 0 0 1 -0.175,0.175 0.175,0.175 0 0 1 -0.175,-0.175 0.175,0.175 0 0 1 0.175,-0.175 0.175,0.175 0 0 1 0.175,0.175 z" style="fill:#00FF00;fill-opacity:1;stroke:none"/>
  <path id="bambu_00417" d="m 235.35721,83.82 a 0.175,0.175 0 0 1 -0.175,0.175 0.175,0.175 0 0 1 -0.175,-0.175 0.175,0.175 0 0 1 0.175,-0.175 0.175,0.175 0 0 1 0.175,0.175 z" style="fill:#00FF00;fill-opacity:1;stroke:none"/>
  <path id="bambu_00419" d="m 233.35721,83.82 a 0.175,0.175 0 0 1 -0.175,0.175 0.175,0.175 0 0 1 -0.175,-0.175 0.175,0.175 0 0 1 0.175,-0.175 0.175,0.175 0 0 1 0.175,0.175 z" style="fill:#00FF00;fill-opacity:1;stroke:none"/>
  <path id="bambu_00421" d="m 231.35721,83.82 a 0.175,0.175 0 0 1 -0.175,0.175 0.175,0.175 0 0 1 -0.175,-0.175 0.175,0.175 0 0 1 0.175,-0.175 0.175,0.175 0 0 1 0.175,0.175 z" style="fill:#00FF00;fill-opacity:1;stroke:none"/>
  <path id="bambu_00423" d="m 229.35721,83.82 a 0.175,0.175 0 0 1 -0.175,0.175 0.175,0.175 0 0 1 -0.175,-0.175 0.175,0.175 0 0 1 0.175,-0.175 0.175,0.175 0 0 1 0.175,0.175 z" style="fill:#00FF00;fill-opacity:1;stroke:none"/>
  <path id="bambu_00425" d="m 217.46721,83.82 a 0.175,0.175 0 0 1 -0.175,0.175 0.175,0.175 0 0 1 -0.175,-0.175 0.175,0.175 0 0 1 0.175,-0.175 0.175,0.175 0 0 1 0.175,0.175 z" style="fill:#00FF00;fill-opacity:1;stroke:none"/>
  <path id="bambu_00427" d="m 215.46721,83.82 a 0.175,0.175 0 0 1 -0.175,0.175 0.175,0.175 0 0 1 -0.175,-0.175 0.175,0.175 0 0 1 0.175,-0.175 0.175,0.175 0 0 1 0.175,0.175 z" style="fill:#00FF00;fill-opacity:1;stroke:none"/>
  <path id="bambu_00429" d="m 213.46721,83.82 a 0.175,0.175 0 0 1 -0.175,0.175 0.175,0.175 0 0 1 -0.175,-0.175 0.175,0.175 0 0 1 0.175,-0.175 0.175,0.175 0 0 1 0.175,0.175 z" style="fill:#00FF00;fill-opacity:1;stroke:none"/>
  <path id="bambu_00431" d="m 211.46721,83.82 a 0.175,0.175 0 0 1 -0.175,0.175 0.175,0.175 0 0 1 -0.175,-0.175 0.175,0.175 0 0 1 0.175,-0.175 0.175,0.175 0 0 1 0.175,0.175 z" style="fill:#00FF00;fill-opacity:1;stroke:none"/>
  <path id="bambu_00433" d="m 209.46721,83.82 a 0.175,0.175 0 0 1 -0.175,0.175 0.175,0.175 0 0 1 -0.175,-0.175 0.175,0.175 0 0 1 0.175,-0.175 0.175,0.175 0 0 1 0.175,0.175 z" style="fill:#00FF00;fill-opacity:1;stroke:none"/>
  <path id="bambu_00435" d="m 207.46721,83.82 a 0.175,0.175 0 0 1 -0.175,0.175 0.175,0.175 0 0 1 -0.175,-0.175 0.175,0.175 0 0 1 0.175,-0.175 0.175,0.175 0 0 1 0.175,0.175 z" style="fill:#00FF00;fill-opacity:1;stroke:none"/>
  <path id="bambu_00437" d="m 259.2472,83.82 a 0.175,0.175 0 0 1 -0.175,0.175 0.175,0.175 0 0 1 -0.175,-0.175 0.175,0.175 0 0 1 0.175,-0.175 0.175,0.175 0 0 1 0.175,0.175 z" style="fill:#00FF00;fill-opacity:1;stroke:none"/>
  <path id="bambu_00439" d="m 257.2472,83.82 a 0.175,0.175 0 0 1 -0.175,0.175 0.175,0.175 0 0 1 -0.175,-0.175 0.175,0.175 0 0 1 0.175,-0.175 0.175,0.175 0 0 1 0.175,0.175 z" style="fill:#00FF00;fill-opacity:1;stroke:none"/>
  <path id="bambu_00441" d="m 255.2472,83.82 a 0.175,0.175 0 0 1 -0.175,0.175 0.175,0.175 0 0 1 -0.175,-0.175 0.175,0.175 0 0 1 0.175,-0.175 0.175,0.175 0 0 1 0.175,0.175 z" style="fill:#00FF00;fill-opacity:1;stroke:none"/>
  <path id="bambu_00443" d="m 253.2472,83.82 a 0.175,0.175 0 0 1 -0.175,0.175 0.175,0.175 0 0 1 -0.175,-0.175 0.175,0.175 0 0 1 0.175,-0.175 0.175,0.175 0 0 1 0.175,0.175 z" style="fill:#00FF00;fill-opacity:1;stroke:none"/>
  <path id="bambu_00445" d="m 251.2472,83.82 a 0.175,0.175 0 0 1 -0.175,0.175 0.175,0.175 0 0 1 -0.175,-0.175 0.175,0.175 0 0 1 0.175,-0.175 0.175,0.175 0 0 1 0.175,0.175 z" style="fill:#00FF00;fill-opacity:1;stroke:none"/>
  <path id="bambu_00447" d="m 249.2472,83.82 a 0.175,0.175 0 0 1 -0.175,0.175 0.175,0.175 0 0 1 -0.175,-0.175 0.175,0.175 0 0 1 0.175,-0.175 0.175,0.175 0 0 1 0.175,0.175 z" style="fill:#00FF00;fill-opacity:1;stroke:none"/>
  <path id="bambu_00449" d="m 198.1172,74 a 0.175,0.175 0 0 1 -0.175,0.175 0.175,0.175 0 0 1 -0.175,-0.175 0.175,0.175 0 0 1 0.175,-0.175 0.175,0.175 0 0 1 0.175,0.175 z" style="fill:#00FF00;fill-opacity:1;stroke:none"/>
  <path id="bambu_00451" d="m 187.9572,74 a 0.175,0.175 0 0 1 -0.175,0.175 0.175,0.175 0 0 1 -0.175,-0.175 0.175,0.175 0 0 1 0.175,-0.175 0.175,0.175 0 0 1 0.175,0.175 z" style="fill:#00FF00;fill-opacity:1;stroke:none"/>
  <path id="bambu_00453" d="m 229.67801,24.452499 a 0.175,0.175 0 0 1 -0.175,0.175 0.175,0.175 0 0 1 -0.175,-0.175 0.175,0.175 0 0 1 0.175,-0.175 0.175,0.175 0 0 1 0.175,0.175 z" style="fill:#00FF00;fill-opacity:1;stroke:none"/>
  <path id="bambu_00455" d="m 231.67801,24.452499 a 0.175,0.175 0 0 1 -0.175,0.175 0.175,0.175 0 0 1 -0.175,-0.175 0.175,0.175 0 0 1 0.175,-0.175 0.175,0.175 0 0 1 0.175,0.175 z" style="fill:#00FF00;fill-opacity:1;stroke:none"/>
  <path id="bambu_00457" d="m 233.67801,24.452499 a 0.175,0.175 0 0 1 -0.175,0.175 0.175,0.175 0 0 1 -0.175,-0.175 0.175,0.175 0 0 1 0.175,-0.175 0.175,0.175 0 0 1 0.175,0.175 z" style="fill:#00FF00;fill-opacity:1;stroke:none"/>
  <path id="bambu_00459" d="m 235.67801,24.452499 a 0.175,0.175 0 0 1 -0.175,0.175 0.175,0.175 0 0 1 -0.175,-0.175 0.175,0.175 0 0 1 0.175,-0.175 0.175,0.175 0 0 1 0.175,0.175 z" style="fill:#00FF00;fill-opacity:1;stroke:none"/>
  <path id="bambu_00461" d="m 237.67801,24.452499 a 0.175,0.175 0 0 1 -0.175,0.175 0.175,0.175 0 0 1 -0.175,-0.175 0.175,0.175 0 0 1 0.175,-0.175 0.175,0.175 0 0 1 0.175,0.175 z" style="fill:#00FF00;fill-opacity:1;stroke:none"/>
  <path id="bambu_00463" d="m 239.67801,24.452499 a 0.175,0.175 0 0 1 -0.175,0.175 0.175,0.175 0 0 1 -0.175,-0.175 0.175,0.175 0 0 1 0.175,-0.175 0.175,0.175 0 0 1 0.175,0.175 z" style="fill:#00FF00;fill-opacity:1;stroke:none"/>
  <path id="bambu_00465" d="m 241.67801,24.452499 a 0.175,0.175 0 0 1 -0.175,0.175 0.175,0.175 0 0 1 -0.175,-0.175 0.175,0.175 0 0 1 0.175,-0.175 0.175,0.175 0 0 1 0.175,0.175 z" style="fill:#00FF00;fill-opacity:1;stroke:none"/>
  <path id="bambu_00467" d="m 205.73719,66.040001 a 0.175,0.175 0 0 1 -0.175,0.175 0.175,0.175 0 0 1 -0.175,-0.175 0.175,0.175 0 0 1 0.175,-0.175 0.175,0.175 0 0 1 0.175,0.175 z" style="fill:#00FF00;fill-opacity:1;stroke:none"/>
  <path id="bambu_00469" d="m 200.73719,66.040001 a 0.175,0.175 0 0 1 -0.175,0.175 0.175,0.175 0 0 1 -0.175,-0.175 0.175,0.175 0 0 1 0.175,-0.175 0.175,0.175 0 0 1 0.175,0.175 z" style="fill:#00FF00;fill-opacity:1;stroke:none"/>
  <path id="bambu_00471" d="m 206.6772,58.419998 a 0.175,0.175 0 0 1 -0.175,0.175 0.175,0.175 0 0 1 -0.175,-0.175 0.175,0.175 0 0 1 0.175,-0.175 0.175,0.175 0 0 1 0.175,0.175 z" style="fill:#00FF00;fill-opacity:1;stroke:none"/>
  <path id="bambu_00473" d="m 201.6772,58.419998 a 0.175,0.175 0 0 1 -0.175,0.175 0.175,0.175 0 0 1 -0.175,-0.175 0.175,0.175 0 0 1 0.175,-0.175 0.175,0.175 0 0 1 0.175,0.175 z" style="fill:#00FF00;fill-opacity:1;stroke:none"/>
  <path id="bambu_00475" d="m 276.85719,75.459999 a 0.175,0.175 0 0 1 -0.175,0.175 0.175,0.175 0 0 1 -0.175,-0.175 0.175,0.175 0 0 1 0.175,-0.175 0.175,0.175 0 0 1 0.175,0.175 z" style="fill:#00FF00;fill-opacity:1;stroke:none"/>
  <path id="bambu_00477" d="m 266.69719,75.459999 a 0.175,0.175 0 0 1 -0.175,0.175 0.175,0.175 0 0 1 -0.175,-0.175 0.175,0.175 0 0 1 0.175,-0.175 0.175,0.175 0 0 1 0.175,0.175 z" style="fill:#00FF00;fill-opacity:1;stroke:none"/>
  <path id="bambu_00479" d="m 195.57721,83.82 a 0.175,0.175 0 0 1 -0.175,0.175 0.175,0.175 0 0 1 -0.175,-0.175 0.175,0.175 0 0 1 0.175,-0.175 0.175,0.175 0 0 1 0.175,0.175 z" style="fill:#00FF00;fill-opacity:1;stroke:none"/>
  <path id="bambu_00481" d="m 193.57721,83.82 a 0.175,0.175 0 0 1 -0.175,0.175 0.175,0.175 0 0 1 -0.175,-0.175 0.175,0.175 0 0 1 0.175,-0.175 0.175,0.175 0 0 1 0.175,0.175 z" style="fill:#00FF00;fill-opacity:1;stroke:none"/>
  <path id="bambu_00483" d="m 191.57721,83.82 a 0.175,0.175 0 0 1 -0.175,0.175 0.175,0.175 0 0 1 -0.175,-0.175 0.175,0.175 0 0 1 0.175,-0.175 0.175,0.175 0 0 1 0.175,0.175 z" style="fill:#00FF00;fill-opacity:1;stroke:none"/>
  <path id="bambu_00485" d="m 189.57721,83.82 a 0.175,0.175 0 0 1 -0.175,0.175 0.175,0.175 0 0 1 -0.175,-0.175 0.175,0.175 0 0 1 0.175,-0.175 0.175,0.175 0 0 1 0.175,0.175 z" style="fill:#00FF00;fill-opacity:1;stroke:none"/>
  <path id="bambu_00487" d="m 203.1972,79 a 0.175,0.175 0 0 1 -0.175,0.175 0.175,0.175 0 0 1 -0.175,-0.175 0.175,0.175 0 0 1 0.175,-0.175 0.175,0.175 0 0 1 0.175,0.175 z" style="fill:#00FF00;fill-opacity:1;stroke:none"/>
  <path id="bambu_00489" d="m 193.0372,79 a 0.175,0.175 0 0 1 -0.175,0.175 0.175,0.175 0 0 1 -0.175,-0.175 0.175,0.175 0 0 1 0.175,-0.175 0.175,0.175 0 0 1 0.175,0.175 z" style="fill:#00FF00;fill-opacity:1;stroke:none"/>
  <path id="bambu_00491" d="m 210.8172,30.48 a 0.175,0.175 0 0 1 -0.175,0.175 0.175,0.175 0 0 1 -0.175,-0.175 0.175,0.175 0 0 1 0.175,-0.175 0.175,0.175 0 0 1 0.175,0.175 z" style="fill:#00FF00;fill-opacity:1;stroke:none"/>
  <path id="bambu_00493" d="m 210.8172,40.639999 a 0.175,0.175 0 0 1 -0.175,0.175 0.175,0.175 0 0 1 -0.175,-0.175 0.175,0.175 0 0 1 0.175,-0.175 0.175,0.175 0 0 1 0.175,0.175 z" style="fill:#00FF00;fill-opacity:1;stroke:none"/>
</svg>