<?xml version="1.0" standalone="no"?>
 <!DOCTYPE svg PUBLIC "-//W3C//DTD SVG 1.1//EN" 
 "http://www.w3.org/Graphics/SVG/1.1/DTD/svg11.dtd"> 
<svg
  xmlns:svg="http://www.w3.org/2000/svg"
  xmlns="http://www.w3.org/2000/svg"
  xmlns:xlink="http://www.w3.org/1999/xlink"
  xmlns:inkscape="http://www.inkscape.org/namespaces/inkscape"
  version="1.1"
  width="297.0022mm" height="210.0072mm" viewBox="0.0000 0.0000 297.0022 210.0072">
<title>SVG Image created as midi-laser-pcb-Edge_Cuts.svg date 2026-05-28T21:13:03 </title>
  <desc>Image generated by PCBNEW </desc>
<g style="fill:#000000; fill-opacity:1.0000;stroke:#000000; stroke-opacity:1.0000;
stroke-linecap:round; stroke-linejoin:round;"
 transform="translate(0 0) scale(1 1)">
</g>
<g style="fill:#000000; fill-opacity:1.0000; stroke:none;">
<rect x="178.180372" y="12.525000" width="108.296828" height="79.985001" rx="0.000000" />
<path style="fill:none; 
stroke:#FFFFFF; stroke-width:0.0500; stroke-opacity:1; 
stroke-linecap:round; stroke-linejoin:round;fill:none"
d="M 282.0022,15.0000
182.0022,15.0000
182.0022,90.0000
282.0022,90.0000
Z" /> 
</g>
<g style="fill:#FFFFFF; fill-opacity:1.0000; stroke:none;">
<circle cx="224.0022" cy="77.0000" r="0.1750" /> 
<circle cx="213.1822" cy="24.4525" r="0.1750" /> 
<circle cx="215.1822" cy="24.4525" r="0.1750" /> 
<circle cx="217.1822" cy="24.4525" r="0.1750" /> 
<circle cx="219.1822" cy="24.4525" r="0.1750" /> 
<circle cx="270.9622" cy="84.9200" r="0.1750" /> 
<circle cx="272.9622" cy="84.9200" r="0.1750" /> 
<circle cx="274.9622" cy="84.9200" r="0.1750" /> 
<circle cx="260.0022" cy="65.0000" r="0.1750" /> 
<circle cx="236.0422" cy="54.0000" r="0.1750" /> 
<circle cx="233.5022" cy="54.0000" r="0.1750" /> 
<circle cx="230.9622" cy="54.0000" r="0.1750" /> 
<circle cx="228.4222" cy="54.0000" r="0.1750" /> 
<circle cx="225.8822" cy="54.0000" r="0.1750" /> 
<circle cx="223.3422" cy="54.0000" r="0.1750" /> 
<circle cx="220.8022" cy="54.0000" r="0.1750" /> 
<circle cx="218.2622" cy="54.0000" r="0.1750" /> 
<circle cx="215.7222" cy="54.0000" r="0.1750" /> 
<circle cx="213.1822" cy="54.0000" r="0.1750" /> 
<circle cx="210.6422" cy="54.0000" r="0.1750" /> 
<circle cx="208.1022" cy="54.0000" r="0.1750" /> 
<circle cx="205.5622" cy="54.0000" r="0.1750" /> 
<circle cx="203.0222" cy="54.0000" r="0.1750" /> 
<circle cx="203.0222" cy="46.3800" r="0.1750" /> 
<circle cx="205.5622" cy="46.3800" r="0.1750" /> 
<circle cx="208.1022" cy="46.3800" r="0.1750" /> 
<circle cx="210.6422" cy="46.3800" r="0.1750" /> 
<circle cx="213.1822" cy="46.3800" r="0.1750" /> 
<circle cx="215.7222" cy="46.3800" r="0.1750" /> 
<circle cx="218.2622" cy="46.3800" r="0.1750" /> 
<circle cx="220.8022" cy="46.3800" r="0.1750" /> 
<circle cx="223.3422" cy="46.3800" r="0.1750" /> 
<circle cx="225.8822" cy="46.3800" r="0.1750" /> 
<circle cx="228.4222" cy="46.3800" r="0.1750" /> 
<circle cx="230.9622" cy="46.3800" r="0.1750" /> 
<circle cx="233.5022" cy="46.3800" r="0.1750" /> 
<circle cx="236.0422" cy="46.3800" r="0.1750" /> 
<circle cx="272.8722" cy="57.6200" r="0.1750" /> 
<circle cx="270.3322" cy="57.6200" r="0.1750" /> 
<circle cx="267.7922" cy="57.6200" r="0.1750" /> 
<circle cx="265.2522" cy="57.6200" r="0.1750" /> 
<circle cx="262.7122" cy="57.6200" r="0.1750" /> 
<circle cx="260.1722" cy="57.6200" r="0.1750" /> 
<circle cx="257.6322" cy="57.6200" r="0.1750" /> 
<circle cx="255.0922" cy="57.6200" r="0.1750" /> 
<circle cx="252.5522" cy="57.6200" r="0.1750" /> 
<circle cx="250.0122" cy="57.6200" r="0.1750" /> 
<circle cx="247.4722" cy="57.6200" r="0.1750" /> 
<circle cx="244.9322" cy="57.6200" r="0.1750" /> 
<circle cx="244.9322" cy="42.3800" r="0.1750" /> 
<circle cx="247.4722" cy="42.3800" r="0.1750" /> 
<circle cx="250.0122" cy="42.3800" r="0.1750" /> 
<circle cx="252.5522" cy="42.3800" r="0.1750" /> 
<circle cx="255.0922" cy="42.3800" r="0.1750" /> 
<circle cx="257.6322" cy="42.3800" r="0.1750" /> 
<circle cx="260.1722" cy="42.3800" r="0.1750" /> 
<circle cx="262.7122" cy="42.3800" r="0.1750" /> 
<circle cx="265.2522" cy="42.3800" r="0.1750" /> 
<circle cx="267.7922" cy="42.3800" r="0.1750" /> 
<circle cx="270.3322" cy="42.3800" r="0.1750" /> 
<circle cx="272.8722" cy="42.3800" r="0.1750" /> 
<circle cx="251.8239" cy="24.4525" r="0.1750" /> 
<circle cx="253.8239" cy="24.4525" r="0.1750" /> 
<circle cx="255.8239" cy="24.4525" r="0.1750" /> 
<circle cx="257.8239" cy="24.4525" r="0.1750" /> 
<circle cx="271.4222" cy="34.0800" r="0.1750" /> 
<circle cx="266.4222" cy="34.0800" r="0.1750" /> 
<circle cx="276.6822" cy="68.5800" r="0.1750" /> 
<circle cx="266.5222" cy="68.5800" r="0.1750" /> 
<circle cx="261.4422" cy="37.0800" r="0.1750" /> 
<circle cx="256.4422" cy="37.0800" r="0.1750" /> 
<circle cx="258.4222" cy="32.0000" r="0.1750" /> 
<circle cx="253.4222" cy="32.0000" r="0.1750" /> 
<circle cx="278.0022" cy="37.0000" r="0.1750" /> 
<circle cx="268.4997" cy="29.0025" r="0.1750" /> 
<circle cx="274.9997" cy="29.0025" r="0.1750" /> 
<circle cx="268.4997" cy="24.5025" r="0.1750" /> 
<circle cx="274.9997" cy="24.5025" r="0.1750" /> 
<circle cx="238.5822" cy="78.7400" r="0.1750" /> 
<circle cx="248.7422" cy="78.7400" r="0.1750" /> 
<circle cx="194.0022" cy="21.0000" r="0.1750" /> 
<circle cx="237.1822" cy="83.8200" r="0.1750" /> 
<circle cx="235.1822" cy="83.8200" r="0.1750" /> 
<circle cx="233.1822" cy="83.8200" r="0.1750" /> 
<circle cx="231.1822" cy="83.8200" r="0.1750" /> 
<circle cx="229.1822" cy="83.8200" r="0.1750" /> 
<circle cx="217.2922" cy="83.8200" r="0.1750" /> 
<circle cx="215.2922" cy="83.8200" r="0.1750" /> 
<circle cx="213.2922" cy="83.8200" r="0.1750" /> 
<circle cx="211.2922" cy="83.8200" r="0.1750" /> 
<circle cx="209.2922" cy="83.8200" r="0.1750" /> 
<circle cx="207.2922" cy="83.8200" r="0.1750" /> 
<circle cx="259.0722" cy="83.8200" r="0.1750" /> 
<circle cx="257.0722" cy="83.8200" r="0.1750" /> 
<circle cx="255.0722" cy="83.8200" r="0.1750" /> 
<circle cx="253.0722" cy="83.8200" r="0.1750" /> 
<circle cx="251.0722" cy="83.8200" r="0.1750" /> 
<circle cx="249.0722" cy="83.8200" r="0.1750" /> 
<circle cx="197.9422" cy="74.0000" r="0.1750" /> 
<circle cx="187.7822" cy="74.0000" r="0.1750" /> 
<circle cx="229.5030" cy="24.4525" r="0.1750" /> 
<circle cx="231.5030" cy="24.4525" r="0.1750" /> 
<circle cx="233.5030" cy="24.4525" r="0.1750" /> 
<circle cx="235.5030" cy="24.4525" r="0.1750" /> 
<circle cx="237.5030" cy="24.4525" r="0.1750" /> 
<circle cx="239.5030" cy="24.4525" r="0.1750" /> 
<circle cx="241.5030" cy="24.4525" r="0.1750" /> 
<circle cx="205.5622" cy="66.0400" r="0.1750" /> 
<circle cx="200.5622" cy="66.0400" r="0.1750" /> 
<circle cx="206.5022" cy="58.4200" r="0.1750" /> 
<circle cx="201.5022" cy="58.4200" r="0.1750" /> 
<circle cx="276.6822" cy="75.4600" r="0.1750" /> 
<circle cx="266.5222" cy="75.4600" r="0.1750" /> 
<circle cx="195.4022" cy="83.8200" r="0.1750" /> 
<circle cx="193.4022" cy="83.8200" r="0.1750" /> 
<circle cx="191.4022" cy="83.8200" r="0.1750" /> 
<circle cx="189.4022" cy="83.8200" r="0.1750" /> 
<circle cx="203.0222" cy="79.0000" r="0.1750" /> 
<circle cx="192.8622" cy="79.0000" r="0.1750" /> 
<circle cx="210.6422" cy="30.4800" r="0.1750" /> 
<circle cx="210.6422" cy="40.6400" r="0.1750" /> 
</g> 
</svg>
