<?xml version="1.0" standalone="no"?>
 <!DOCTYPE svg PUBLIC "-//W3C//DTD SVG 1.1//EN" 
 "http://www.w3.org/Graphics/SVG/1.1/DTD/svg11.dtd"> 
<svg
  xmlns:svg="http://www.w3.org/2000/svg"
  xmlns="http://www.w3.org/2000/svg"
  xmlns:xlink="http://www.w3.org/1999/xlink"
  xmlns:inkscape="http://www.inkscape.org/namespaces/inkscape"
  version="1.1"
  width="297.0022mm" height="210.0072mm" viewBox="0.0000 0.0000 297.0022 210.0072">
<title>SVG Image created as midi-laser-pcb-B_Cu.svg date 2026-05-28T21:13:03 </title>
  <desc>Image generated by PCBNEW </desc>
<g style="fill:#000000; fill-opacity:1.0000;stroke:#000000; stroke-opacity:1.0000;
stroke-linecap:round; stroke-linejoin:round;"
 transform="translate(0 0) scale(1 1)">
</g>
<g style="fill:#000000; fill-opacity:1.0000; stroke:none;">
<rect x="178.180372" y="12.525000" width="108.296828" height="79.985001" rx="0.000000" />
<path style="fill:#FFFFFF; fill-opacity:1.0000; stroke:none;fill-rule:evenodd;"
d="M 277.8772,18.8750
277.2522,18.8750
277.2522,19.1250
277.8772,19.1250
277.8772,19.7500
278.1272,19.7500
278.1272,19.1250
278.7522,19.1250
278.7522,18.8750
278.1272,18.8750
278.1272,18.2500
277.8772,18.2500
Z" /> 
<path style="fill:#FFFFFF; fill-opacity:1.0000; stroke:none;fill-rule:evenodd;"
d="M 185.8772,18.8750
185.2522,18.8750
185.2522,19.1250
185.8772,19.1250
185.8772,19.7500
186.1272,19.7500
186.1272,19.1250
186.7522,19.1250
186.7522,18.8750
186.1272,18.8750
186.1272,18.2500
185.8772,18.2500
Z" /> 
<path style="fill:#FFFFFF; fill-opacity:1.0000; stroke:none;fill-rule:evenodd;"
d="M 184.8772,78.8750
184.2522,78.8750
184.2522,79.1250
184.8772,79.1250
184.8772,79.7500
185.1272,79.7500
185.1272,79.1250
185.7522,79.1250
185.7522,78.8750
185.1272,78.8750
185.1272,78.2500
184.8772,78.2500
Z" /> 
<path style="fill:#FFFFFF; fill-opacity:1.0000; stroke:none;fill-rule:evenodd;"
d="M 212.5822,25.0775
212.6012,25.1732
212.6554,25.2543
212.7365,25.3085
212.8322,25.3275
213.5322,25.3275
213.6279,25.3085
213.7090,25.2543
213.7632,25.1732
213.7822,25.0775
213.7822,23.8275
213.7632,23.7318
213.7090,23.6507
213.6279,23.5965
213.5322,23.5775
212.8322,23.5775
212.7365,23.5965
212.6554,23.6507
212.6012,23.7318
212.5822,23.8275
Z" /> 
</g>
<g style="fill:none; 
stroke:#FFFFFF; stroke-width:1.2000; stroke-opacity:1; 
stroke-linecap:round; stroke-linejoin:round;">
<path d="M215.1822 24.7275
L215.1822 24.1775
" />
<path d="M217.1822 24.7275
L217.1822 24.1775
" />
<path d="M219.1822 24.7275
L219.1822 24.1775
" />
<path style="fill:#FFFFFF; fill-opacity:1.0000; stroke:none;fill-rule:evenodd;"
d="M 270.3622,85.5450
270.3812,85.6407
270.4354,85.7218
270.5165,85.7760
270.6122,85.7950
271.3122,85.7950
271.4079,85.7760
271.4890,85.7218
271.5432,85.6407
271.5622,85.5450
271.5622,84.2950
271.5432,84.1993
271.4890,84.1182
271.4079,84.0640
271.3122,84.0450
270.6122,84.0450
270.5165,84.0640
270.4354,84.1182
270.3812,84.1993
270.3622,84.2950
Z" /> 
</g>
<g style="fill:none; 
stroke:#FFFFFF; stroke-width:1.2000; stroke-opacity:1; 
stroke-linecap:round; stroke-linejoin:round;">
<path d="M272.9622 85.1950
L272.9622 84.6450
" />
<path d="M274.9622 85.1950
L274.9622 84.6450
" />
<path style="fill:#FFFFFF; fill-opacity:1.0000; stroke:none;fill-rule:evenodd;"
d="M 236.5922,54.8000
236.6879,54.7810
236.7690,54.7268
236.8232,54.6457
236.8422,54.5500
236.8422,53.4500
236.8232,53.3543
236.7690,53.2732
236.6879,53.2190
236.5922,53.2000
235.4922,53.2000
235.3965,53.2190
235.3154,53.2732
235.2612,53.3543
235.2422,53.4500
235.2422,54.5500
235.2612,54.6457
235.3154,54.7268
235.3965,54.7810
235.4922,54.8000
Z" /> 
</g>
<g style="fill:#FFFFFF; fill-opacity:1.0000; stroke:none;">
<circle cx="233.5022" cy="54.0000" r="0.8000" /> 
<circle cx="230.9622" cy="54.0000" r="0.8000" /> 
<circle cx="228.4222" cy="54.0000" r="0.8000" /> 
<circle cx="225.8822" cy="54.0000" r="0.8000" /> 
<circle cx="223.3422" cy="54.0000" r="0.8000" /> 
<circle cx="220.8022" cy="54.0000" r="0.8000" /> 
<circle cx="218.2622" cy="54.0000" r="0.8000" /> 
<circle cx="215.7222" cy="54.0000" r="0.8000" /> 
<circle cx="213.1822" cy="54.0000" r="0.8000" /> 
<circle cx="210.6422" cy="54.0000" r="0.8000" /> 
<circle cx="208.1022" cy="54.0000" r="0.8000" /> 
<circle cx="205.5622" cy="54.0000" r="0.8000" /> 
<circle cx="203.0222" cy="54.0000" r="0.8000" /> 
<circle cx="203.0222" cy="46.3800" r="0.8000" /> 
<circle cx="205.5622" cy="46.3800" r="0.8000" /> 
<circle cx="208.1022" cy="46.3800" r="0.8000" /> 
<circle cx="210.6422" cy="46.3800" r="0.8000" /> 
<circle cx="213.1822" cy="46.3800" r="0.8000" /> 
<circle cx="215.7222" cy="46.3800" r="0.8000" /> 
<circle cx="218.2622" cy="46.3800" r="0.8000" /> 
<circle cx="220.8022" cy="46.3800" r="0.8000" /> 
<circle cx="223.3422" cy="46.3800" r="0.8000" /> 
<circle cx="225.8822" cy="46.3800" r="0.8000" /> 
<circle cx="228.4222" cy="46.3800" r="0.8000" /> 
<circle cx="230.9622" cy="46.3800" r="0.8000" /> 
<circle cx="233.5022" cy="46.3800" r="0.8000" /> 
<circle cx="236.0422" cy="46.3800" r="0.8000" /> 
<path style="fill:#FFFFFF; fill-opacity:1.0000; stroke:none;fill-rule:evenodd;"
d="M 273.7485,58.4963
273.7485,56.7437
271.9959,56.7437
271.9959,58.4963
Z" /> 
<circle cx="270.3322" cy="57.6200" r="0.8763" /> 
<circle cx="267.7922" cy="57.6200" r="0.8763" /> 
<circle cx="265.2522" cy="57.6200" r="0.8763" /> 
<circle cx="262.7122" cy="57.6200" r="0.8763" /> 
<circle cx="260.1722" cy="57.6200" r="0.8763" /> 
<circle cx="257.6322" cy="57.6200" r="0.8763" /> 
<circle cx="255.0922" cy="57.6200" r="0.8763" /> 
<circle cx="252.5522" cy="57.6200" r="0.8763" /> 
<circle cx="250.0122" cy="57.6200" r="0.8763" /> 
<circle cx="247.4722" cy="57.6200" r="0.8763" /> 
<circle cx="244.9322" cy="57.6200" r="0.8763" /> 
<circle cx="244.9322" cy="42.3800" r="0.8763" /> 
<circle cx="247.4722" cy="42.3800" r="0.8763" /> 
<circle cx="250.0122" cy="42.3800" r="0.8763" /> 
<circle cx="252.5522" cy="42.3800" r="0.8763" /> 
<circle cx="255.0922" cy="42.3800" r="0.8763" /> 
<circle cx="257.6322" cy="42.3800" r="0.8763" /> 
<circle cx="260.1722" cy="42.3800" r="0.8763" /> 
<circle cx="262.7122" cy="42.3800" r="0.8763" /> 
<circle cx="265.2522" cy="42.3800" r="0.8763" /> 
<circle cx="267.7922" cy="42.3800" r="0.8763" /> 
<circle cx="270.3322" cy="42.3800" r="0.8763" /> 
<circle cx="272.8722" cy="42.3800" r="0.8763" /> 
<path style="fill:#FFFFFF; fill-opacity:1.0000; stroke:none;fill-rule:evenodd;"
d="M 251.2239,25.0775
251.2429,25.1732
251.2971,25.2543
251.3782,25.3085
251.4739,25.3275
252.1739,25.3275
252.2695,25.3085
252.3506,25.2543
252.4048,25.1732
252.4239,25.0775
252.4239,23.8275
252.4048,23.7318
252.3506,23.6507
252.2695,23.5965
252.1739,23.5775
251.4739,23.5775
251.3782,23.5965
251.2971,23.6507
251.2429,23.7318
251.2239,23.8275
Z" /> 
</g>
<g style="fill:none; 
stroke:#FFFFFF; stroke-width:1.2000; stroke-opacity:1; 
stroke-linecap:round; stroke-linejoin:round;">
<path d="M253.8239 24.7275
L253.8239 24.1775
" />
<path d="M255.8239 24.7275
L255.8239 24.1775
" />
<path d="M257.8239 24.7275
L257.8239 24.1775
" />
</g>
<g style="fill:#FFFFFF; fill-opacity:1.0000; stroke:none;">
<circle cx="271.4222" cy="34.0800" r="0.8000" /> 
<circle cx="266.4222" cy="34.0800" r="0.8000" /> 
<circle cx="276.6822" cy="68.5800" r="0.8000" /> 
<circle cx="266.5222" cy="68.5800" r="0.8000" /> 
<circle cx="261.4422" cy="37.0800" r="0.8000" /> 
<circle cx="256.4422" cy="37.0800" r="0.8000" /> 
<circle cx="258.4222" cy="32.0000" r="0.8000" /> 
<circle cx="253.4222" cy="32.0000" r="0.8000" /> 
<circle cx="268.4997" cy="29.0025" r="1.0000" /> 
<circle cx="274.9997" cy="29.0025" r="1.0000" /> 
<circle cx="268.4997" cy="24.5025" r="1.0000" /> 
<circle cx="274.9997" cy="24.5025" r="1.0000" /> 
<circle cx="238.5822" cy="78.7400" r="0.8000" /> 
<circle cx="248.7422" cy="78.7400" r="0.8000" /> 
<path style="fill:#FFFFFF; fill-opacity:1.0000; stroke:none;fill-rule:evenodd;"
d="M 237.7822,83.1950
237.7632,83.0993
237.7090,83.0182
237.6279,82.9640
237.5322,82.9450
236.8322,82.9450
236.7365,82.9640
236.6554,83.0182
236.6012,83.0993
236.5822,83.1950
236.5822,84.4450
236.6012,84.5407
236.6554,84.6218
236.7365,84.6760
236.8322,84.6950
237.5322,84.6950
237.6279,84.6760
237.7090,84.6218
237.7632,84.5407
237.7822,84.4450
Z" /> 
</g>
<g style="fill:none; 
stroke:#FFFFFF; stroke-width:1.2000; stroke-opacity:1; 
stroke-linecap:round; stroke-linejoin:round;">
<path d="M235.1822 83.5450
L235.1822 84.0950
" />
<path d="M233.1822 83.5450
L233.1822 84.0950
" />
<path d="M231.1822 83.5450
L231.1822 84.0950
" />
<path d="M229.1822 83.5450
L229.1822 84.0950
" />
<path style="fill:#FFFFFF; fill-opacity:1.0000; stroke:none;fill-rule:evenodd;"
d="M 217.8922,83.1950
217.8732,83.0993
217.8190,83.0182
217.7379,82.9640
217.6422,82.9450
216.9422,82.9450
216.8465,82.9640
216.7654,83.0182
216.7112,83.0993
216.6922,83.1950
216.6922,84.4450
216.7112,84.5407
216.7654,84.6218
216.8465,84.6760
216.9422,84.6950
217.6422,84.6950
217.7379,84.6760
217.8190,84.6218
217.8732,84.5407
217.8922,84.4450
Z" /> 
</g>
<g style="fill:none; 
stroke:#FFFFFF; stroke-width:1.2000; stroke-opacity:1; 
stroke-linecap:round; stroke-linejoin:round;">
<path d="M215.2922 83.5450
L215.2922 84.0950
" />
<path d="M213.2922 83.5450
L213.2922 84.0950
" />
<path d="M211.2922 83.5450
L211.2922 84.0950
" />
<path d="M209.2922 83.5450
L209.2922 84.0950
" />
<path d="M207.2922 83.5450
L207.2922 84.0950
" />
<path style="fill:#FFFFFF; fill-opacity:1.0000; stroke:none;fill-rule:evenodd;"
d="M 259.6722,83.1950
259.6532,83.0993
259.5990,83.0182
259.5179,82.9640
259.4222,82.9450
258.7222,82.9450
258.6265,82.9640
258.5454,83.0182
258.4912,83.0993
258.4722,83.1950
258.4722,84.4450
258.4912,84.5407
258.5454,84.6218
258.6265,84.6760
258.7222,84.6950
259.4222,84.6950
259.5179,84.6760
259.5990,84.6218
259.6532,84.5407
259.6722,84.4450
Z" /> 
</g>
<g style="fill:none; 
stroke:#FFFFFF; stroke-width:1.2000; stroke-opacity:1; 
stroke-linecap:round; stroke-linejoin:round;">
<path d="M257.0722 83.5450
L257.0722 84.0950
" />
<path d="M255.0722 83.5450
L255.0722 84.0950
" />
<path d="M253.0722 83.5450
L253.0722 84.0950
" />
<path d="M251.0722 83.5450
L251.0722 84.0950
" />
<path d="M249.0722 83.5450
L249.0722 84.0950
" />
</g>
<g style="fill:#FFFFFF; fill-opacity:1.0000; stroke:none;">
<circle cx="197.9422" cy="74.0000" r="0.8000" /> 
<circle cx="187.7822" cy="74.0000" r="0.8000" /> 
<path style="fill:#FFFFFF; fill-opacity:1.0000; stroke:none;fill-rule:evenodd;"
d="M 228.9030,25.0775
228.9221,25.1732
228.9763,25.2543
229.0574,25.3085
229.1530,25.3275
229.8530,25.3275
229.9487,25.3085
230.0298,25.2543
230.0840,25.1732
230.1030,25.0775
230.1030,23.8275
230.0840,23.7318
230.0298,23.6507
229.9487,23.5965
229.8530,23.5775
229.1530,23.5775
229.0574,23.5965
228.9763,23.6507
228.9221,23.7318
228.9030,23.8275
Z" /> 
</g>
<g style="fill:none; 
stroke:#FFFFFF; stroke-width:1.2000; stroke-opacity:1; 
stroke-linecap:round; stroke-linejoin:round;">
<path d="M231.5030 24.7275
L231.5030 24.1775
" />
<path d="M233.5030 24.7275
L233.5030 24.1775
" />
<path d="M235.5030 24.7275
L235.5030 24.1775
" />
<path d="M237.5030 24.7275
L237.5030 24.1775
" />
<path d="M239.5030 24.7275
L239.5030 24.1775
" />
<path d="M241.5030 24.7275
L241.5030 24.1775
" />
</g>
<g style="fill:#FFFFFF; fill-opacity:1.0000; stroke:none;">
<circle cx="205.5622" cy="66.0400" r="0.8000" /> 
<circle cx="200.5622" cy="66.0400" r="0.8000" /> 
<circle cx="206.5022" cy="58.4200" r="0.8000" /> 
<circle cx="201.5022" cy="58.4200" r="0.8000" /> 
<circle cx="276.6822" cy="75.4600" r="0.8000" /> 
<circle cx="266.5222" cy="75.4600" r="0.8000" /> 
<path style="fill:#FFFFFF; fill-opacity:1.0000; stroke:none;fill-rule:evenodd;"
d="M 196.0022,83.1950
195.9832,83.0993
195.9290,83.0182
195.8479,82.9640
195.7522,82.9450
195.0522,82.9450
194.9565,82.9640
194.8754,83.0182
194.8212,83.0993
194.8022,83.1950
194.8022,84.4450
194.8212,84.5407
194.8754,84.6218
194.9565,84.6760
195.0522,84.6950
195.7522,84.6950
195.8479,84.6760
195.9290,84.6218
195.9832,84.5407
196.0022,84.4450
Z" /> 
</g>
<g style="fill:none; 
stroke:#FFFFFF; stroke-width:1.2000; stroke-opacity:1; 
stroke-linecap:round; stroke-linejoin:round;">
<path d="M193.4022 83.5450
L193.4022 84.0950
" />
<path d="M191.4022 83.5450
L191.4022 84.0950
" />
<path d="M189.4022 83.5450
L189.4022 84.0950
" />
</g>
<g style="fill:#FFFFFF; fill-opacity:1.0000; stroke:none;">
<circle cx="203.0222" cy="79.0000" r="0.8000" /> 
<circle cx="192.8622" cy="79.0000" r="0.8000" /> 
<circle cx="210.6422" cy="30.4800" r="0.8000" /> 
<circle cx="210.6422" cy="40.6400" r="0.8000" /> 
<circle cx="239.8522" cy="59.6900" r="0.9000" /> 
<circle cx="246.2022" cy="35.5600" r="0.9000" /> 
<circle cx="241.1222" cy="38.1000" r="0.9000" /> 
<circle cx="220.8022" cy="68.5800" r="0.9000" /> 
<circle cx="243.6622" cy="33.0200" r="0.9000" /> 
</g>
<g style="fill:none; 
stroke:#FFFFFF; stroke-width:0.5000; stroke-opacity:1; 
stroke-linecap:round; stroke-linejoin:round;">
<path d="M205.5622 54.0000
L203.0622 56.5000
" />
<path d="M262.7122 57.6200
L255.8922 50.8000
" />
<path d="M255.8922 50.8000
L208.7622 50.8000
" />
<path d="M199.8622 56.5000
L187.7822 68.5800
" />
<path d="M208.7622 50.8000
L205.5622 54.0000
" />
<path d="M187.7822 68.5800
L187.7822 74.0000
" />
<path d="M203.0622 56.5000
L199.8622 56.5000
" />
<path d="M203.0222 59.0800
L203.0222 66.0400
" />
<path d="M203.0222 66.0400
L192.8622 76.2000
" />
<path d="M254.2522 51.7000
L210.4022 51.7000
" />
<path d="M192.8622 76.2000
L192.8622 79.0000
" />
<path d="M210.4022 51.7000
L208.1022 54.0000
" />
<path d="M260.1722 57.6200
L254.2522 51.7000
" />
<path d="M208.1022 54.0000
L203.0222 59.0800
" />
<path d="M239.8522 59.6900
L257.0722 76.9100
" />
<path d="M257.0722 76.9100
L257.0722 83.8200
" />
<path d="M250.2989 22.9275
L230.1530 22.9275
" />
<path d="M265.2522 44.4500
L279.2222 58.4200
" />
<path d="M237.1822 84.6950
L235.5172 86.3600
" />
<path d="M237.1822 83.8200
L237.1822 84.6950
" />
<path d="M215.7222 66.3000
L203.0222 79.0000
" />
<path d="M276.5972 86.4450
L261.6972 86.4450
" />
<path d="M213.8322 22.9275
L213.1822 23.5775
" />
<path d="M219.8322 86.3600
L217.2922 83.8200
" />
<path d="M239.7222 86.3600
L237.1822 83.8200
" />
<path d="M217.2922 83.8628
L214.7950 86.3600
" />
<path d="M265.2522 42.3800
L265.2522 44.4500
" />
<path d="M214.7950 86.3600
L197.9422 86.3600
" />
<path d="M250.2989 22.9275
L213.8322 22.9275
" />
<path d="M259.0722 83.8200
L259.0722 84.6950
" />
<path d="M235.5172 86.3600
L219.8322 86.3600
" />
<path d="M217.2922 83.8200
L217.2922 83.8628
" />
<path d="M261.6972 86.4450
L259.0722 83.8200
" />
<path d="M259.0722 84.6950
L257.4072 86.3600
" />
<path d="M279.2222 83.8200
L276.5972 86.4450
" />
<path d="M252.4739 25.9775
L251.8239 25.3275
" />
<path d="M255.9703 25.9775
L252.4739 25.9775
" />
<path d="M215.7222 54.0000
L215.7222 66.3000
" />
<path d="M229.5030 23.5775
L229.5030 24.4525
" />
<path d="M257.4072 86.3600
L239.7222 86.3600
" />
<path d="M279.2222 58.4200
L279.2222 83.8200
" />
<path d="M251.8239 24.4525
L250.2989 22.9275
" />
<path d="M213.1822 23.5775
L213.1822 24.4525
" />
<path d="M251.8239 25.3275
L251.8239 24.4525
" />
<path d="M230.1530 22.9275
L229.5030 23.5775
" />
<path d="M197.9422 86.3600
L195.4022 83.8200
" />
<path d="M265.2522 35.2594
L255.9703 25.9775
" />
<path d="M265.2522 42.3800
L265.2522 35.2594
" />
<path d="M239.2422 35.5600
L228.4222 46.3800
" />
<path d="M246.2022 35.5600
L239.2422 35.5600
" />
<path d="M241.1222 38.1000
L239.2422 38.1000
" />
<path d="M220.8022 68.5800
L211.2922 78.0900
" />
<path d="M239.2422 38.1000
L230.9622 46.3800
" />
<path d="M211.2922 78.0900
L211.2922 83.8200
" />
<path d="M223.3422 46.3800
L215.1822 38.2200
" />
<path d="M215.1822 38.2200
L215.1822 24.4525
" />
<path d="M217.1822 37.6800
L225.8822 46.3800
" />
<path d="M217.1822 24.4525
L217.1822 37.6800
" />
<path d="M236.0422 30.4800
L233.5030 27.9408
" />
<path d="M233.5030 27.9408
L233.5030 24.4525
" />
<path d="M241.1222 30.4800
L236.0422 30.4800
" />
<path d="M243.6622 33.0200
L241.1222 30.4800
" />
<path style="fill:#FFFFFF; fill-opacity:1.0000; stroke:none;fill-rule:evenodd;"
d="M 187.5320,72.4073
187.5293,72.4114
187.0210,73.7561
187.0213,73.7651
187.0279,73.7712
187.0285,73.7715
187.7787,74.0038
187.7857,74.0038
188.5359,73.7715
188.5428,73.7657
188.5436,73.7568
188.5434,73.7562
188.0351,72.4114
188.0289,72.4049
188.0241,72.4039
187.5403,72.4039
Z" /> 
<path style="fill:#FFFFFF; fill-opacity:1.0000; stroke:none;fill-rule:evenodd;"
d="M 264.4257,42.6306
264.4188,42.6364
264.4180,42.6453
264.4183,42.6461
264.9993,44.1210
265.0055,44.1274
265.0102,44.1284
265.4942,44.1284
265.5025,44.1250
265.5051,44.1210
266.0861,42.6461
266.0860,42.6372
266.0795,42.6309
266.0787,42.6307
265.2557,42.3759
265.2487,42.3759
Z" /> 
<path style="fill:#FFFFFF; fill-opacity:1.0000; stroke:none;fill-rule:evenodd;"
d="M 229.7422,22.9847
229.3263,23.4007
228.9827,23.6461
228.9779,23.6537
228.9781,23.6584
229.0626,24.0066
229.0679,24.0138
229.0742,24.0156
229.8997,24.0022
229.9079,23.9986
229.9112,23.9903
229.9078,23.9822
229.6798,23.7543
230.0958,23.3383
230.0992,23.3300
230.0958,23.3217
229.7588,22.9847
229.7505,22.9813
Z" /> 
<path style="fill:#FFFFFF; fill-opacity:1.0000; stroke:none;fill-rule:evenodd;"
d="M 217.8825,83.5755
217.2990,83.8162
217.2926,83.8225
217.2917,83.8274
217.3184,84.6873
217.3221,84.6955
217.3258,84.6978
218.1325,85.0182
218.1415,85.0181
218.1451,85.0156
218.4870,84.6737
218.4905,84.6654
218.4890,84.6598
217.8972,83.5807
217.8903,83.5751
Z" /> 
<path style="fill:#FFFFFF; fill-opacity:1.0000; stroke:none;fill-rule:evenodd;"
d="M 258.4820,84.4445
258.4745,84.4493
258.4724,84.4560
258.4712,84.9376
258.4746,84.9459
258.4746,84.9459
258.8170,85.2883
258.8253,85.2917
258.8329,85.2889
258.8336,85.2883
259.5936,84.6264
259.5976,84.6184
259.5973,84.6149
259.5587,84.4560
259.5130,84.2675
259.5077,84.2603
259.4995,84.2588
Z" /> 
<path style="fill:#FFFFFF; fill-opacity:1.0000; stroke:none;fill-rule:evenodd;"
d="M 213.4215,22.9836
213.0276,23.3266
212.6608,23.6461
212.6568,23.6541
212.6571,23.6576
212.7414,24.0050
212.7467,24.0122
212.7549,24.0137
213.7724,23.8280
213.7799,23.8232
213.7820,23.8165
213.7832,23.3349
213.7798,23.3266
213.4374,22.9842
213.4291,22.9808
Z" /> 
<path style="fill:#FFFFFF; fill-opacity:1.0000; stroke:none;fill-rule:evenodd;"
d="M 259.6625,83.5755
259.0790,83.8162
259.0726,83.8225
259.0717,83.8274
259.0984,84.6873
259.1021,84.6955
259.1058,84.6978
259.9125,85.0182
259.9215,85.0181
259.9251,85.0156
260.2670,84.6737
260.2705,84.6654
260.2690,84.6598
259.6772,83.5807
259.6703,83.5751
Z" /> 
<path style="fill:#FFFFFF; fill-opacity:1.0000; stroke:none;fill-rule:evenodd;"
d="M 215.1775,24.4574
215.1762,24.4579
215.1728,24.4601
214.6351,24.9505
214.6324,24.9542
214.6311,24.9570
214.6305,24.9655
214.9289,25.9120
214.9311,25.9160
214.9329,25.9181
214.9391,25.9220
214.9394,25.9220
214.9422,25.9224
215.4213,25.9224
215.4258,25.9215
215.4284,25.9204
215.4339,25.9157
215.4340,25.9154
215.4346,25.9142
215.4347,25.9141
215.4347,25.9140
215.4352,25.9128
215.7336,24.9665
215.7341,24.9619
215.7338,24.9588
215.7300,24.9512
215.1918,24.4603
215.1879,24.4579
215.1859,24.4572
Z" /> 
<path style="fill:#FFFFFF; fill-opacity:1.0000; stroke:none;fill-rule:evenodd;"
d="M 216.6927,83.6181
216.6874,83.6231
216.2072,84.5007
216.2066,84.5018
216.1788,84.5689
216.1788,84.5689
216.1294,84.6429
216.1289,84.6437
216.1027,84.6916
216.0983,84.6996
216.0974,84.7085
216.1003,84.7135
216.4421,85.0553
216.4504,85.0587
216.4549,85.0578
217.3014,84.6980
217.3077,84.6916
217.3085,84.6873
217.3142,83.8489
217.3109,83.8406
217.3065,83.8379
216.7016,83.6177
Z" /> 
<path style="fill:#FFFFFF; fill-opacity:1.0000; stroke:none;fill-rule:evenodd;"
d="M 209.0467,52.6979
207.7364,53.2893
207.7303,53.2959
207.7306,53.3048
207.7309,53.3055
208.0971,54.0002
208.1020,54.0051
208.7967,54.3713
208.8057,54.3721
208.8125,54.3664
208.8129,54.3658
209.4043,53.0555
209.4046,53.0465
209.4019,53.0424
209.0598,52.7003
209.0515,52.6969
Z" /> 
<path style="fill:#FFFFFF; fill-opacity:1.0000; stroke:none;fill-rule:evenodd;"
d="M 195.9925,83.5755
195.4090,83.8162
195.4026,83.8225
195.4017,83.8274
195.4284,84.6873
195.4321,84.6955
195.4358,84.6978
196.2425,85.0182
196.2515,85.0181
196.2551,85.0156
196.5970,84.6737
196.6005,84.6654
196.5990,84.6598
196.0072,83.5807
196.0003,83.5751
Z" /> 
<path style="fill:#FFFFFF; fill-opacity:1.0000; stroke:none;fill-rule:evenodd;"
d="M 236.5920,84.4445
236.5845,84.4493
236.5824,84.4560
236.5812,84.9376
236.5846,84.9459
236.5846,84.9459
236.9270,85.2883
236.9353,85.2917
236.9429,85.2889
236.9436,85.2883
237.7036,84.6264
237.7076,84.6184
237.7073,84.6149
237.6687,84.4560
237.6230,84.2675
237.6177,84.2603
237.6095,84.2588
Z" /> 
<path style="fill:#FFFFFF; fill-opacity:1.0000; stroke:none;fill-rule:evenodd;"
d="M 229.7423,22.9836
229.3485,23.3266
228.9816,23.6461
228.9776,23.6541
228.9779,23.6576
229.0622,24.0050
229.0675,24.0122
229.0757,24.0137
230.0932,23.8280
230.1007,23.8232
230.1028,23.8165
230.1041,23.3349
230.1007,23.3266
229.7582,22.9842
229.7500,22.9808
Z" /> 
<path style="fill:#FFFFFF; fill-opacity:1.0000; stroke:none;fill-rule:evenodd;"
d="M 229.3667,45.0779
228.0564,45.6693
228.0503,45.6759
228.0506,45.6848
228.0509,45.6855
228.4171,46.3802
228.4220,46.3851
229.1167,46.7513
229.1257,46.7521
229.1325,46.7464
229.1329,46.7458
229.7243,45.4355
229.7246,45.4265
229.7219,45.4224
229.3798,45.0803
229.3715,45.0769
Z" /> 
<path style="fill:#FFFFFF; fill-opacity:1.0000; stroke:none;fill-rule:evenodd;"
d="M 256.8225,82.3536
256.8196,82.3583
256.5201,83.3083
256.5209,83.3172
256.5234,83.3204
257.0643,83.8138
257.0727,83.8169
257.0801,83.8138
257.6210,83.3204
257.6248,83.3123
257.6243,83.3083
257.3248,82.3583
257.3190,82.3515
257.3136,82.3501
256.8308,82.3501
Z" /> 
<path style="fill:#FFFFFF; fill-opacity:1.0000; stroke:none;fill-rule:evenodd;"
d="M 207.3950,53.6310
207.3950,53.6310
207.3939,53.6319
207.3907,53.6361
206.8011,54.9424
206.8000,54.9468
206.7999,54.9498
206.8017,54.9564
206.8017,54.9564
206.8031,54.9581
206.8031,54.9582
206.8032,54.9582
206.8034,54.9585
207.1430,55.2981
207.1468,55.3006
207.1495,55.3017
207.1564,55.3024
207.1564,55.3024
207.1588,55.3016
208.4659,54.7116
208.4696,54.7090
208.4708,54.7077
208.4740,54.6993
208.4739,54.6978
208.4726,54.6927
208.1081,54.0013
208.1061,53.9985
208.1037,53.9961
208.1009,53.9941
207.4097,53.6298
207.4054,53.6285
207.4036,53.6283
Z" /> 
<path style="fill:#FFFFFF; fill-opacity:1.0000; stroke:none;fill-rule:evenodd;"
d="M 203.9667,77.6979
202.6564,78.2893
202.6503,78.2959
202.6506,78.3048
202.6509,78.3055
203.0171,79.0002
203.0220,79.0051
203.7167,79.3713
203.7257,79.3721
203.7325,79.3664
203.7329,79.3658
204.3243,78.0555
204.3246,78.0465
204.3219,78.0424
203.9798,77.7003
203.9715,77.6969
Z" /> 
<path style="fill:#FFFFFF; fill-opacity:1.0000; stroke:none;fill-rule:evenodd;"
d="M 240.8492,37.2434
239.3339,37.8471
239.3275,37.8533
239.3265,37.8579
239.3265,38.3421
239.3300,38.3503
239.3339,38.3529
240.8492,38.9566
240.8581,38.9564
240.8644,38.9500
240.8647,38.9492
241.1265,38.1035
241.1265,38.0965
240.8647,37.2508
240.8590,37.2440
240.8501,37.2431
Z" /> 
<path style="fill:#FFFFFF; fill-opacity:1.0000; stroke:none;fill-rule:evenodd;"
d="M 233.4951,24.4587
232.9542,24.9521
232.9504,24.9602
232.9510,24.9642
233.2505,25.9142
233.2562,25.9210
233.2616,25.9224
233.7445,25.9224
233.7527,25.9189
233.7556,25.9142
234.0551,24.9642
234.0543,24.9553
234.0518,24.9521
233.5109,24.4587
233.5025,24.4556
Z" /> 
<path style="fill:#FFFFFF; fill-opacity:1.0000; stroke:none;fill-rule:evenodd;"
d="M 217.1743,24.4587
216.6334,24.9521
216.6296,24.9602
216.6301,24.9642
216.9296,25.9142
216.9354,25.9210
216.9408,25.9224
217.4236,25.9224
217.4319,25.9189
217.4348,25.9142
217.7343,24.9642
217.7335,24.9553
217.7310,24.9521
217.1901,24.4587
217.1817,24.4556
Z" /> 
<path style="fill:#FFFFFF; fill-opacity:1.0000; stroke:none;fill-rule:evenodd;"
d="M 237.7725,83.5755
237.1890,83.8162
237.1826,83.8225
237.1817,83.8274
237.2084,84.6873
237.2121,84.6955
237.2158,84.6978
238.0225,85.0182
238.0315,85.0181
238.0351,85.0156
238.3770,84.6737
238.3805,84.6654
238.3790,84.6598
237.7872,83.5807
237.7803,83.5751
Z" /> 
<path style="fill:#FFFFFF; fill-opacity:1.0000; stroke:none;fill-rule:evenodd;"
d="M 261.6463,56.2133
261.6462,56.2134
261.3064,56.5532
261.3039,56.5570
261.3027,56.5598
261.3027,56.5687
261.3028,56.5689
261.9334,58.0194
261.9360,58.0231
261.9373,58.0244
261.9456,58.0277
261.9456,58.0277
261.9470,58.0276
261.9523,58.0263
262.3250,57.8298
262.7111,57.6262
262.7139,57.6241
262.7163,57.6217
262.7184,57.6189
263.1183,56.8604
263.1196,56.8560
263.1198,56.8542
263.1171,56.8457
263.1162,56.8446
263.1119,56.8414
261.6621,56.2110
261.6577,56.2101
261.6547,56.2100
Z" /> 
<path style="fill:#FFFFFF; fill-opacity:1.0000; stroke:none;fill-rule:evenodd;"
d="M 192.6120,77.4073
192.6093,77.4114
192.1010,78.7561
192.1013,78.7651
192.1079,78.7712
192.1085,78.7715
192.8587,79.0038
192.8657,79.0038
193.6159,78.7715
193.6228,78.7657
193.6236,78.7568
193.6234,78.7562
193.1151,77.4114
193.1089,77.4049
193.1041,77.4039
192.6203,77.4039
Z" /> 
<path style="fill:#FFFFFF; fill-opacity:1.0000; stroke:none;fill-rule:evenodd;"
d="M 265.0019,40.6350
264.9993,40.6390
264.4183,42.1139
264.4184,42.1228
264.4249,42.1291
264.4257,42.1294
265.2487,42.3841
265.2557,42.3841
266.0787,42.1294
266.0856,42.1236
266.0864,42.1147
266.0861,42.1139
265.5051,40.6390
265.4989,40.6326
265.4942,40.6316
265.0102,40.6316
Z" /> 
<path style="fill:#FFFFFF; fill-opacity:1.0000; stroke:none;fill-rule:evenodd;"
d="M 259.1071,56.2126
258.7648,56.5549
258.7613,56.5631
258.7623,56.5678
259.3943,58.0215
259.4008,58.0277
259.4097,58.0276
259.4105,58.0272
259.7850,57.8298
260.1727,57.6254
260.1776,57.6205
260.5794,56.8583
260.5802,56.8494
260.5745,56.8425
260.5737,56.8422
259.1200,56.2101
259.1110,56.2100
Z" /> 
<path style="fill:#FFFFFF; fill-opacity:1.0000; stroke:none;fill-rule:evenodd;"
d="M 224.9246,45.0803
224.5825,45.4224
224.5791,45.4307
224.5801,45.4355
225.1715,46.7458
225.1781,46.7519
225.1870,46.7516
225.1877,46.7513
225.8824,46.3851
225.8873,46.3802
226.2535,45.6855
226.2543,45.6765
226.2486,45.6697
226.2480,45.6694
224.9377,45.0779
224.9287,45.0776
Z" /> 
<path style="fill:#FFFFFF; fill-opacity:1.0000; stroke:none;fill-rule:evenodd;"
d="M 204.8550,53.6310
204.8550,53.6310
204.8539,53.6319
204.8507,53.6361
204.2611,54.9424
204.2600,54.9468
204.2599,54.9498
204.2617,54.9564
204.2617,54.9564
204.2631,54.9581
204.2631,54.9582
204.2632,54.9582
204.2634,54.9585
204.6030,55.2981
204.6068,55.3006
204.6095,55.3017
204.6164,55.3024
204.6164,55.3024
204.6188,55.3016
205.9259,54.7116
205.9296,54.7090
205.9308,54.7077
205.9340,54.6993
205.9339,54.6978
205.9326,54.6927
205.5681,54.0013
205.5661,53.9985
205.5637,53.9961
205.5609,53.9941
204.8697,53.6298
204.8654,53.6285
204.8636,53.6283
Z" /> 
<path style="fill:#FFFFFF; fill-opacity:1.0000; stroke:none;fill-rule:evenodd;"
d="M 250.9746,23.2544
250.9709,23.2569
250.6290,23.5988
250.6256,23.6071
250.6270,23.6127
251.2188,24.6918
251.2258,24.6974
251.2336,24.6970
251.8171,24.4563
251.8234,24.4500
251.8243,24.4451
251.7985,23.6127
251.7976,23.5852
251.7940,23.5770
251.7903,23.5747
250.9835,23.2543
Z" /> 
<path style="fill:#FFFFFF; fill-opacity:1.0000; stroke:none;fill-rule:evenodd;"
d="M 213.4214,22.9847
213.0054,23.4007
212.6619,23.6461
212.6571,23.6537
212.6573,23.6584
212.7418,24.0066
212.7471,24.0138
212.7533,24.0156
213.5789,24.0022
213.5871,23.9986
213.5904,23.9903
213.5869,23.9822
213.3590,23.7543
213.7750,23.3383
213.7784,23.3300
213.7750,23.3217
213.4380,22.9847
213.4297,22.9813
Z" /> 
<path style="fill:#FFFFFF; fill-opacity:1.0000; stroke:none;fill-rule:evenodd;"
d="M 222.3855,45.0797
222.3855,45.0797
222.3837,45.0812
222.0441,45.4208
222.0416,45.4246
222.0405,45.4273
222.0398,45.4342
222.0398,45.4342
222.0405,45.4362
222.0405,45.4363
222.0405,45.4363
222.0406,45.4366
222.6306,46.7437
222.6332,46.7474
222.6345,46.7486
222.6345,46.7486
222.6345,46.7486
222.6366,46.7494
222.6429,46.7518
222.6429,46.7518
222.6444,46.7517
222.6495,46.7504
223.3409,46.3859
223.3437,46.3839
223.3461,46.3815
223.3481,46.3787
223.7124,45.6875
223.7137,45.6831
223.7139,45.6814
223.7112,45.6728
223.7103,45.6717
223.7061,45.6685
222.3998,45.0789
222.3954,45.0778
222.3924,45.0777
Z" /> 
<path style="fill:#FFFFFF; fill-opacity:1.0000; stroke:none;fill-rule:evenodd;"
d="M 231.9079,45.0776
231.9056,45.0784
231.8440,45.1062
230.5985,45.6684
230.5948,45.6710
230.5936,45.6723
230.5904,45.6807
230.5904,45.6807
230.5905,45.6822
230.5918,45.6873
230.9563,46.3787
230.9583,46.3815
230.9607,46.3839
230.9635,46.3859
231.6547,46.7502
231.6591,46.7515
231.6608,46.7517
231.6694,46.7490
231.6705,46.7481
231.6737,46.7439
232.2633,45.4376
232.2644,45.4332
232.2645,45.4302
232.2626,45.4234
232.2626,45.4234
232.2610,45.4215
231.9214,45.0819
231.9176,45.0794
231.9149,45.0783
231.9079,45.0776
Z" /> 
<path style="fill:#FFFFFF; fill-opacity:1.0000; stroke:none;fill-rule:evenodd;"
d="M 245.9292,34.7034
244.4139,35.3071
244.4075,35.3133
244.4065,35.3179
244.4065,35.8021
244.4100,35.8103
244.4139,35.8129
245.9292,36.4166
245.9381,36.4164
245.9444,36.4100
245.9447,36.4092
246.2065,35.5635
246.2065,35.5565
245.9447,34.7108
245.9390,34.7040
245.9301,34.7031
Z" /> 
<path style="fill:#FFFFFF; fill-opacity:1.0000; stroke:none;fill-rule:evenodd;"
d="M 220.0039,68.1665
220.0035,68.1674
219.3588,69.6657
219.3587,69.6746
219.3613,69.6786
219.7036,70.0209
219.7119,70.0243
219.7165,70.0234
221.2148,69.3787
221.2211,69.3723
221.2209,69.3634
221.2206,69.3625
220.8077,68.5794
220.8028,68.5745
220.0197,68.1616
220.0108,68.1608
Z" /> 
<path style="fill:#FFFFFF; fill-opacity:1.0000; stroke:none;fill-rule:evenodd;"
d="M 251.3878,24.8932
251.3831,24.9000
251.2988,25.2474
251.3001,25.2562
251.3025,25.2589
252.0631,25.9214
252.0716,25.9242
252.0791,25.9208
252.4215,25.5784
252.4249,25.5702
252.4236,25.0885
252.4202,25.0802
252.4141,25.0770
251.3965,24.8913
Z" /> 
<path style="fill:#FFFFFF; fill-opacity:1.0000; stroke:none;fill-rule:evenodd;"
d="M 211.0425,82.3536
211.0396,82.3583
210.7401,83.3083
210.7409,83.3172
210.7434,83.3204
211.2843,83.8138
211.2927,83.8169
211.3001,83.8138
211.8410,83.3204
211.8448,83.3123
211.8443,83.3083
211.5448,82.3583
211.5390,82.3515
211.5336,82.3501
211.0508,82.3501
Z" /> 
<path style="fill:#FFFFFF; fill-opacity:1.0000; stroke:none;fill-rule:evenodd;"
d="M 242.5636,31.5791
242.2213,31.9214
242.2179,31.9297
242.2188,31.9343
242.8635,33.4326
242.8699,33.4389
242.8788,33.4387
242.8797,33.4384
243.6628,33.0255
243.6677,33.0206
244.0806,32.2375
244.0814,32.2286
244.0757,32.2217
244.0748,32.2213
242.5765,31.5766
242.5676,31.5765
Z" /> 
<path style="fill:#FFFFFF; fill-opacity:1.0000; stroke:none;fill-rule:evenodd;"
d="M 214.9685,54.2285
214.9616,54.2343
214.9608,54.2432
214.9610,54.2439
215.4693,55.5886
215.4755,55.5951
215.4803,55.5961
215.9641,55.5961
215.9724,55.5927
215.9751,55.5886
216.4834,54.2439
216.4831,54.2349
216.4765,54.2288
216.4759,54.2286
215.7257,53.9962
215.7187,53.9962
Z" /> 
<path style="fill:#FFFFFF; fill-opacity:1.0000; stroke:none;fill-rule:evenodd;"
d="M 206.5079,52.6976
206.5056,52.6984
206.4440,52.7262
205.1985,53.2884
205.1948,53.2910
205.1936,53.2923
205.1904,53.3007
205.1904,53.3007
205.1905,53.3022
205.1918,53.3073
205.5563,53.9987
205.5583,54.0015
205.5607,54.0039
205.5635,54.0059
206.2547,54.3702
206.2591,54.3715
206.2608,54.3717
206.2694,54.3690
206.2705,54.3681
206.2737,54.3639
206.8633,53.0576
206.8644,53.0532
206.8645,53.0502
206.8626,53.0434
206.8626,53.0434
206.8610,53.0415
206.5214,52.7019
206.5176,52.6994
206.5149,52.6983
206.5079,52.6976
Z" /> 
<path style="fill:#FFFFFF; fill-opacity:1.0000; stroke:none;fill-rule:evenodd;"
d="M 240.6356,59.2713
240.6347,59.2716
240.4113,59.3895
239.8516,59.6845
239.8467,59.6894
239.4338,60.4725
239.4330,60.4814
239.4387,60.4883
239.4396,60.4887
240.9379,61.1334
240.9468,61.1335
240.9508,61.1309
241.2931,60.7886
241.2965,60.7803
241.2956,60.7757
240.6509,59.2774
240.6445,59.2711
Z" /> 
</g>
<g style="fill:#000000; fill-opacity:1.0000; stroke:none;">
<circle cx="239.8522" cy="59.6900" r="0.1750" /> 
<circle cx="246.2022" cy="35.5600" r="0.1750" /> 
<circle cx="241.1222" cy="38.1000" r="0.1750" /> 
<circle cx="220.8022" cy="68.5800" r="0.1750" /> 
<circle cx="243.6622" cy="33.0200" r="0.1750" /> 
</g>
<g style="fill:#FFFFFF; fill-opacity:1.0000; stroke:none;">
<circle cx="224.0022" cy="77.0000" r="0.1750" /> 
</g>
<g style="fill:#000000; fill-opacity:1.0000; stroke:none;">
<circle cx="213.1822" cy="24.4525" r="0.1750" /> 
</g>
<g style="fill:#000000; fill-opacity:1.0000; stroke:none;">
<circle cx="215.1822" cy="24.4525" r="0.1750" /> 
</g>
<g style="fill:#000000; fill-opacity:1.0000; stroke:none;">
<circle cx="217.1822" cy="24.4525" r="0.1750" /> 
</g>
<g style="fill:#000000; fill-opacity:1.0000; stroke:none;">
<circle cx="219.1822" cy="24.4525" r="0.1750" /> 
</g>
<g style="fill:#000000; fill-opacity:1.0000; stroke:none;">
<circle cx="270.9622" cy="84.9200" r="0.1750" /> 
</g>
<g style="fill:#000000; fill-opacity:1.0000; stroke:none;">
<circle cx="272.9622" cy="84.9200" r="0.1750" /> 
</g>
<g style="fill:#000000; fill-opacity:1.0000; stroke:none;">
<circle cx="274.9622" cy="84.9200" r="0.1750" /> 
</g>
<g style="fill:#FFFFFF; fill-opacity:1.0000; stroke:none;">
<circle cx="260.0022" cy="65.0000" r="0.1750" /> 
</g>
<g style="fill:#000000; fill-opacity:1.0000; stroke:none;">
<circle cx="236.0422" cy="54.0000" r="0.1750" /> 
</g>
<g style="fill:#000000; fill-opacity:1.0000; stroke:none;">
<circle cx="233.5022" cy="54.0000" r="0.1750" /> 
</g>
<g style="fill:#000000; fill-opacity:1.0000; stroke:none;">
<circle cx="230.9622" cy="54.0000" r="0.1750" /> 
</g>
<g style="fill:#000000; fill-opacity:1.0000; stroke:none;">
<circle cx="228.4222" cy="54.0000" r="0.1750" /> 
</g>
<g style="fill:#000000; fill-opacity:1.0000; stroke:none;">
<circle cx="225.8822" cy="54.0000" r="0.1750" /> 
</g>
<g style="fill:#000000; fill-opacity:1.0000; stroke:none;">
<circle cx="223.3422" cy="54.0000" r="0.1750" /> 
</g>
<g style="fill:#000000; fill-opacity:1.0000; stroke:none;">
<circle cx="220.8022" cy="54.0000" r="0.1750" /> 
</g>
<g style="fill:#000000; fill-opacity:1.0000; stroke:none;">
<circle cx="218.2622" cy="54.0000" r="0.1750" /> 
</g>
<g style="fill:#000000; fill-opacity:1.0000; stroke:none;">
<circle cx="215.7222" cy="54.0000" r="0.1750" /> 
</g>
<g style="fill:#000000; fill-opacity:1.0000; stroke:none;">
<circle cx="213.1822" cy="54.0000" r="0.1750" /> 
</g>
<g style="fill:#000000; fill-opacity:1.0000; stroke:none;">
<circle cx="210.6422" cy="54.0000" r="0.1750" /> 
</g>
<g style="fill:#000000; fill-opacity:1.0000; stroke:none;">
<circle cx="208.1022" cy="54.0000" r="0.1750" /> 
</g>
<g style="fill:#000000; fill-opacity:1.0000; stroke:none;">
<circle cx="205.5622" cy="54.0000" r="0.1750" /> 
</g>
<g style="fill:#000000; fill-opacity:1.0000; stroke:none;">
<circle cx="203.0222" cy="54.0000" r="0.1750" /> 
</g>
<g style="fill:#000000; fill-opacity:1.0000; stroke:none;">
<circle cx="203.0222" cy="46.3800" r="0.1750" /> 
</g>
<g style="fill:#000000; fill-opacity:1.0000; stroke:none;">
<circle cx="205.5622" cy="46.3800" r="0.1750" /> 
</g>
<g style="fill:#000000; fill-opacity:1.0000; stroke:none;">
<circle cx="208.1022" cy="46.3800" r="0.1750" /> 
</g>
<g style="fill:#000000; fill-opacity:1.0000; stroke:none;">
<circle cx="210.6422" cy="46.3800" r="0.1750" /> 
</g>
<g style="fill:#000000; fill-opacity:1.0000; stroke:none;">
<circle cx="213.1822" cy="46.3800" r="0.1750" /> 
</g>
<g style="fill:#000000; fill-opacity:1.0000; stroke:none;">
<circle cx="215.7222" cy="46.3800" r="0.1750" /> 
</g>
<g style="fill:#000000; fill-opacity:1.0000; stroke:none;">
<circle cx="218.2622" cy="46.3800" r="0.1750" /> 
</g>
<g style="fill:#000000; fill-opacity:1.0000; stroke:none;">
<circle cx="220.8022" cy="46.3800" r="0.1750" /> 
</g>
<g style="fill:#000000; fill-opacity:1.0000; stroke:none;">
<circle cx="223.3422" cy="46.3800" r="0.1750" /> 
</g>
<g style="fill:#000000; fill-opacity:1.0000; stroke:none;">
<circle cx="225.8822" cy="46.3800" r="0.1750" /> 
</g>
<g style="fill:#000000; fill-opacity:1.0000; stroke:none;">
<circle cx="228.4222" cy="46.3800" r="0.1750" /> 
</g>
<g style="fill:#000000; fill-opacity:1.0000; stroke:none;">
<circle cx="230.9622" cy="46.3800" r="0.1750" /> 
</g>
<g style="fill:#000000; fill-opacity:1.0000; stroke:none;">
<circle cx="233.5022" cy="46.3800" r="0.1750" /> 
</g>
<g style="fill:#000000; fill-opacity:1.0000; stroke:none;">
<circle cx="236.0422" cy="46.3800" r="0.1750" /> 
</g>
<g style="fill:#000000; fill-opacity:1.0000; stroke:none;">
<circle cx="272.8722" cy="57.6200" r="0.1750" /> 
</g>
<g style="fill:#000000; fill-opacity:1.0000; stroke:none;">
<circle cx="270.3322" cy="57.6200" r="0.1750" /> 
</g>
<g style="fill:#000000; fill-opacity:1.0000; stroke:none;">
<circle cx="267.7922" cy="57.6200" r="0.1750" /> 
</g>
<g style="fill:#000000; fill-opacity:1.0000; stroke:none;">
<circle cx="265.2522" cy="57.6200" r="0.1750" /> 
</g>
<g style="fill:#000000; fill-opacity:1.0000; stroke:none;">
<circle cx="262.7122" cy="57.6200" r="0.1750" /> 
</g>
<g style="fill:#000000; fill-opacity:1.0000; stroke:none;">
<circle cx="260.1722" cy="57.6200" r="0.1750" /> 
</g>
<g style="fill:#000000; fill-opacity:1.0000; stroke:none;">
<circle cx="257.6322" cy="57.6200" r="0.1750" /> 
</g>
<g style="fill:#000000; fill-opacity:1.0000; stroke:none;">
<circle cx="255.0922" cy="57.6200" r="0.1750" /> 
</g>
<g style="fill:#000000; fill-opacity:1.0000; stroke:none;">
<circle cx="252.5522" cy="57.6200" r="0.1750" /> 
</g>
<g style="fill:#000000; fill-opacity:1.0000; stroke:none;">
<circle cx="250.0122" cy="57.6200" r="0.1750" /> 
</g>
<g style="fill:#000000; fill-opacity:1.0000; stroke:none;">
<circle cx="247.4722" cy="57.6200" r="0.1750" /> 
</g>
<g style="fill:#000000; fill-opacity:1.0000; stroke:none;">
<circle cx="244.9322" cy="57.6200" r="0.1750" /> 
</g>
<g style="fill:#000000; fill-opacity:1.0000; stroke:none;">
<circle cx="244.9322" cy="42.3800" r="0.1750" /> 
</g>
<g style="fill:#000000; fill-opacity:1.0000; stroke:none;">
<circle cx="247.4722" cy="42.3800" r="0.1750" /> 
</g>
<g style="fill:#000000; fill-opacity:1.0000; stroke:none;">
<circle cx="250.0122" cy="42.3800" r="0.1750" /> 
</g>
<g style="fill:#000000; fill-opacity:1.0000; stroke:none;">
<circle cx="252.5522" cy="42.3800" r="0.1750" /> 
</g>
<g style="fill:#000000; fill-opacity:1.0000; stroke:none;">
<circle cx="255.0922" cy="42.3800" r="0.1750" /> 
</g>
<g style="fill:#000000; fill-opacity:1.0000; stroke:none;">
<circle cx="257.6322" cy="42.3800" r="0.1750" /> 
</g>
<g style="fill:#000000; fill-opacity:1.0000; stroke:none;">
<circle cx="260.1722" cy="42.3800" r="0.1750" /> 
</g>
<g style="fill:#000000; fill-opacity:1.0000; stroke:none;">
<circle cx="262.7122" cy="42.3800" r="0.1750" /> 
</g>
<g style="fill:#000000; fill-opacity:1.0000; stroke:none;">
<circle cx="265.2522" cy="42.3800" r="0.1750" /> 
</g>
<g style="fill:#000000; fill-opacity:1.0000; stroke:none;">
<circle cx="267.7922" cy="42.3800" r="0.1750" /> 
</g>
<g style="fill:#000000; fill-opacity:1.0000; stroke:none;">
<circle cx="270.3322" cy="42.3800" r="0.1750" /> 
</g>
<g style="fill:#000000; fill-opacity:1.0000; stroke:none;">
<circle cx="272.8722" cy="42.3800" r="0.1750" /> 
</g>
<g style="fill:#000000; fill-opacity:1.0000; stroke:none;">
<circle cx="251.8239" cy="24.4525" r="0.1750" /> 
</g>
<g style="fill:#000000; fill-opacity:1.0000; stroke:none;">
<circle cx="253.8239" cy="24.4525" r="0.1750" /> 
</g>
<g style="fill:#000000; fill-opacity:1.0000; stroke:none;">
<circle cx="255.8239" cy="24.4525" r="0.1750" /> 
</g>
<g style="fill:#000000; fill-opacity:1.0000; stroke:none;">
<circle cx="257.8239" cy="24.4525" r="0.1750" /> 
</g>
<g style="fill:#000000; fill-opacity:1.0000; stroke:none;">
<circle cx="271.4222" cy="34.0800" r="0.1750" /> 
</g>
<g style="fill:#000000; fill-opacity:1.0000; stroke:none;">
<circle cx="266.4222" cy="34.0800" r="0.1750" /> 
</g>
<g style="fill:#000000; fill-opacity:1.0000; stroke:none;">
<circle cx="276.6822" cy="68.5800" r="0.1750" /> 
</g>
<g style="fill:#000000; fill-opacity:1.0000; stroke:none;">
<circle cx="266.5222" cy="68.5800" r="0.1750" /> 
</g>
<g style="fill:#000000; fill-opacity:1.0000; stroke:none;">
<circle cx="261.4422" cy="37.0800" r="0.1750" /> 
</g>
<g style="fill:#000000; fill-opacity:1.0000; stroke:none;">
<circle cx="256.4422" cy="37.0800" r="0.1750" /> 
</g>
<g style="fill:#000000; fill-opacity:1.0000; stroke:none;">
<circle cx="258.4222" cy="32.0000" r="0.1750" /> 
</g>
<g style="fill:#000000; fill-opacity:1.0000; stroke:none;">
<circle cx="253.4222" cy="32.0000" r="0.1750" /> 
</g>
<g style="fill:#FFFFFF; fill-opacity:1.0000; stroke:none;">
<circle cx="278.0022" cy="37.0000" r="0.1750" /> 
</g>
<g style="fill:#000000; fill-opacity:1.0000; stroke:none;">
<circle cx="268.4997" cy="29.0025" r="0.1750" /> 
</g>
<g style="fill:#000000; fill-opacity:1.0000; stroke:none;">
<circle cx="274.9997" cy="29.0025" r="0.1750" /> 
</g>
<g style="fill:#000000; fill-opacity:1.0000; stroke:none;">
<circle cx="268.4997" cy="24.5025" r="0.1750" /> 
</g>
<g style="fill:#000000; fill-opacity:1.0000; stroke:none;">
<circle cx="274.9997" cy="24.5025" r="0.1750" /> 
</g>
<g style="fill:#000000; fill-opacity:1.0000; stroke:none;">
<circle cx="238.5822" cy="78.7400" r="0.1750" /> 
</g>
<g style="fill:#000000; fill-opacity:1.0000; stroke:none;">
<circle cx="248.7422" cy="78.7400" r="0.1750" /> 
</g>
<g style="fill:#FFFFFF; fill-opacity:1.0000; stroke:none;">
<circle cx="194.0022" cy="21.0000" r="0.1750" /> 
</g>
<g style="fill:#000000; fill-opacity:1.0000; stroke:none;">
<circle cx="237.1822" cy="83.8200" r="0.1750" /> 
</g>
<g style="fill:#000000; fill-opacity:1.0000; stroke:none;">
<circle cx="235.1822" cy="83.8200" r="0.1750" /> 
</g>
<g style="fill:#000000; fill-opacity:1.0000; stroke:none;">
<circle cx="233.1822" cy="83.8200" r="0.1750" /> 
</g>
<g style="fill:#000000; fill-opacity:1.0000; stroke:none;">
<circle cx="231.1822" cy="83.8200" r="0.1750" /> 
</g>
<g style="fill:#000000; fill-opacity:1.0000; stroke:none;">
<circle cx="229.1822" cy="83.8200" r="0.1750" /> 
</g>
<g style="fill:#000000; fill-opacity:1.0000; stroke:none;">
<circle cx="217.2922" cy="83.8200" r="0.1750" /> 
</g>
<g style="fill:#000000; fill-opacity:1.0000; stroke:none;">
<circle cx="215.2922" cy="83.8200" r="0.1750" /> 
</g>
<g style="fill:#000000; fill-opacity:1.0000; stroke:none;">
<circle cx="213.2922" cy="83.8200" r="0.1750" /> 
</g>
<g style="fill:#000000; fill-opacity:1.0000; stroke:none;">
<circle cx="211.2922" cy="83.8200" r="0.1750" /> 
</g>
<g style="fill:#000000; fill-opacity:1.0000; stroke:none;">
<circle cx="209.2922" cy="83.8200" r="0.1750" /> 
</g>
<g style="fill:#000000; fill-opacity:1.0000; stroke:none;">
<circle cx="207.2922" cy="83.8200" r="0.1750" /> 
</g>
<g style="fill:#000000; fill-opacity:1.0000; stroke:none;">
<circle cx="259.0722" cy="83.8200" r="0.1750" /> 
</g>
<g style="fill:#000000; fill-opacity:1.0000; stroke:none;">
<circle cx="257.0722" cy="83.8200" r="0.1750" /> 
</g>
<g style="fill:#000000; fill-opacity:1.0000; stroke:none;">
<circle cx="255.0722" cy="83.8200" r="0.1750" /> 
</g>
<g style="fill:#000000; fill-opacity:1.0000; stroke:none;">
<circle cx="253.0722" cy="83.8200" r="0.1750" /> 
</g>
<g style="fill:#000000; fill-opacity:1.0000; stroke:none;">
<circle cx="251.0722" cy="83.8200" r="0.1750" /> 
</g>
<g style="fill:#000000; fill-opacity:1.0000; stroke:none;">
<circle cx="249.0722" cy="83.8200" r="0.1750" /> 
</g>
<g style="fill:#000000; fill-opacity:1.0000; stroke:none;">
<circle cx="197.9422" cy="74.0000" r="0.1750" /> 
</g>
<g style="fill:#000000; fill-opacity:1.0000; stroke:none;">
<circle cx="187.7822" cy="74.0000" r="0.1750" /> 
</g>
<g style="fill:#000000; fill-opacity:1.0000; stroke:none;">
<circle cx="229.5030" cy="24.4525" r="0.1750" /> 
</g>
<g style="fill:#000000; fill-opacity:1.0000; stroke:none;">
<circle cx="231.5030" cy="24.4525" r="0.1750" /> 
</g>
<g style="fill:#000000; fill-opacity:1.0000; stroke:none;">
<circle cx="233.5030" cy="24.4525" r="0.1750" /> 
</g>
<g style="fill:#000000; fill-opacity:1.0000; stroke:none;">
<circle cx="235.5030" cy="24.4525" r="0.1750" /> 
</g>
<g style="fill:#000000; fill-opacity:1.0000; stroke:none;">
<circle cx="237.5030" cy="24.4525" r="0.1750" /> 
</g>
<g style="fill:#000000; fill-opacity:1.0000; stroke:none;">
<circle cx="239.5030" cy="24.4525" r="0.1750" /> 
</g>
<g style="fill:#000000; fill-opacity:1.0000; stroke:none;">
<circle cx="241.5030" cy="24.4525" r="0.1750" /> 
</g>
<g style="fill:#000000; fill-opacity:1.0000; stroke:none;">
<circle cx="205.5622" cy="66.0400" r="0.1750" /> 
</g>
<g style="fill:#000000; fill-opacity:1.0000; stroke:none;">
<circle cx="200.5622" cy="66.0400" r="0.1750" /> 
</g>
<g style="fill:#000000; fill-opacity:1.0000; stroke:none;">
<circle cx="206.5022" cy="58.4200" r="0.1750" /> 
</g>
<g style="fill:#000000; fill-opacity:1.0000; stroke:none;">
<circle cx="201.5022" cy="58.4200" r="0.1750" /> 
</g>
<g style="fill:#000000; fill-opacity:1.0000; stroke:none;">
<circle cx="276.6822" cy="75.4600" r="0.1750" /> 
</g>
<g style="fill:#000000; fill-opacity:1.0000; stroke:none;">
<circle cx="266.5222" cy="75.4600" r="0.1750" /> 
</g>
<g style="fill:#000000; fill-opacity:1.0000; stroke:none;">
<circle cx="195.4022" cy="83.8200" r="0.1750" /> 
</g>
<g style="fill:#000000; fill-opacity:1.0000; stroke:none;">
<circle cx="193.4022" cy="83.8200" r="0.1750" /> 
</g>
<g style="fill:#000000; fill-opacity:1.0000; stroke:none;">
<circle cx="191.4022" cy="83.8200" r="0.1750" /> 
</g>
<g style="fill:#000000; fill-opacity:1.0000; stroke:none;">
<circle cx="189.4022" cy="83.8200" r="0.1750" /> 
</g>
<g style="fill:#000000; fill-opacity:1.0000; stroke:none;">
<circle cx="203.0222" cy="79.0000" r="0.1750" /> 
</g>
<g style="fill:#000000; fill-opacity:1.0000; stroke:none;">
<circle cx="192.8622" cy="79.0000" r="0.1750" /> 
</g>
<g style="fill:#000000; fill-opacity:1.0000; stroke:none;">
<circle cx="210.6422" cy="30.4800" r="0.1750" /> 
</g>
<g style="fill:#000000; fill-opacity:1.0000; stroke:none;">
<circle cx="210.6422" cy="40.6400" r="0.1750" /> 
</g> 
</svg>
